<svg id="图层_1" xmlns="http://www.w3.org/2000/svg" viewBox="0 0 1920 1080"><style>.st1{fill:#fff}</style><linearGradient id="SVGID_1_" gradientUnits="userSpaceOnUse" x1="6.173" y1="-10.692" x2="1913.827" y2="1090.692"><stop offset="0" stop-color="#271b38"/><stop offset="1" stop-color="#223457"/></linearGradient><path fill="url(#SVGID_1_)" d="M0 0h1920v1080H0z"/><circle class="st1" cx="875.4" cy="649.7" r="2.7"/><circle class="st1" cx="1154.7" cy="636.1" r=".8"/><circle class="st1" cx="1458.3" cy="424.7" r="1.6"/><circle class="st1" cx="1676.9" cy="417.8" r=".5"/><circle class="st1" cx="1166.9" cy="881.6" r="1.3"/><circle class="st1" cx="1385.5" cy="867.9" r=".4"/><circle class="st1" cx="1567.6" cy="717.9" r=".8"/><circle class="st1" cx="1628.4" cy="704.3" r=".2"/><circle class="st1" cx="681.1" cy="827" r="1.3"/><circle class="st1" cx="790.4" cy="792.9" r=".4"/><circle class="st1" cx="826.8" cy="656.5" r=".8"/><circle class="st1" cx="887.5" cy="642.9" r=".2"/><circle class="st1" cx="802.5" cy="908.8" r=".6"/><circle class="st1" cx="814.7" cy="895.2" r=".2"/><circle class="st1" cx="839" cy="854.3" r=".4"/><circle class="st1" cx="863.3" cy="840.6" r=".1"/><circle class="st1" cx="535.3" cy="247.4" r="1.7"/><circle class="st1" cx="559.6" cy="220.1" r=".5"/><circle class="st1" cx="583.9" cy="383.7" r=".9"/><circle class="st1" cx="620.4" cy="370.1" r=".3"/><circle class="st1" cx="632.5" cy="301.9" r=".5"/><circle class="st1" cx="644.7" cy="295.1" r=".2"/><circle class="st1" cx="353.2" cy="342.8" r=".8"/><circle class="st1" cx="377.5" cy="329.2" r=".2"/><circle class="st1" cx="438.2" cy="274.6" r=".5"/><circle class="st1" cx="511.1" cy="261" r=".1"/><circle class="st1" cx="401.8" cy="397.4" r=".4"/><circle class="st1" cx="426" cy="390.6" r=".1"/><circle class="st1" cx="462.5" cy="356.5" r=".2"/><circle class="st1" cx="486.8" cy="349.6" r=".1"/><circle class="st1" cx="1069.7" cy="677" r="1.2"/><circle class="st1" cx="1179" cy="663.3" r=".4"/><circle class="st1" cx="1312.6" cy="629.2" r=".7"/><circle class="st1" cx="1446.2" cy="622.4" r=".2"/><circle class="st1" cx="1203.3" cy="786.1" r=".6"/><circle class="st1" cx="1251.9" cy="772.4" r=".2"/><circle class="st1" cx="1361.2" cy="711.1" r=".4"/><circle class="st1" cx="1409.8" cy="697.4" r=".1"/><circle class="st1" cx="924" cy="745.2" r=".6"/><circle class="st1" cx="972.6" cy="731.5" r=".2"/><circle class="st1" cx="1021.1" cy="690.6" r=".3"/><circle class="st1" cx="1057.6" cy="683.8" r=".1"/><circle class="st1" cx="996.8" cy="813.4" r=".3"/><circle class="st1" cx="1009" cy="799.7" r=".1"/><circle class="st1" cx="1033.3" cy="758.8" r=".2"/><circle class="st1" cx="1045.4" cy="752" r=".1"/><circle class="st1" cx="1336.9" cy="438.3" r="1.7"/><circle class="st1" cx="1579.8" cy="431.5" r=".5"/><circle class="st1" cx="1737.7" cy="376.9" r="1"/><circle class="st1" cx="1798.4" cy="363.3" r=".3"/><circle class="st1" cx="1591.9" cy="602" r=".9"/><circle class="st1" cx="1701.2" cy="595.1" r=".3"/><circle class="st1" cx="1749.8" cy="506.5" r=".5"/><circle class="st1" cx="1774.1" cy="492.9" r=".2"/><circle class="st1" cx="1081.9" cy="574.7" r=".8"/><circle class="st1" cx="1118.3" cy="554.2" r=".3"/><circle class="st1" cx="1227.6" cy="451.9" r=".5"/><circle class="st1" cx="1288.3" cy="445.1" r=".2"/><circle class="st1" cx="1142.6" cy="615.6" r=".4"/><circle class="st1" cx="1215.4" cy="608.8" r=".1"/><circle class="st1" cx="1239.7" cy="588.3" r=".2"/><circle class="st1" cx="1276.2" cy="581.5" r=".1"/><circle class="st1" cx="851.1" cy="315.5" r=".6"/><circle class="st1" cx="899.7" cy="308.7" r=".2"/><circle class="st1" cx="936.1" cy="240.5" r=".3"/><circle class="st1" cx="948.3" cy="233.7" r=".1"/><circle class="st1" cx="668.9" cy="267.8" r=".5"/><circle class="st1" cx="693.2" cy="254.2" r=".2"/><circle class="st1" cx="729.7" cy="226.9" r=".3"/><circle class="st1" cx="778.2" cy="213.3" r=".1"/><circle class="st1" cx="705.4" cy="336" r=".3"/><circle class="st1" cx="717.5" cy="322.4" r=".1"/><circle class="st1" cx="754" cy="288.3" r=".2"/><circle class="st1" cx="1" cy="738.3" r="1"/><circle class="st1" cx="13.1" cy="724.7" r=".3"/><circle class="st1" cx="49.6" cy="670.2" r=".6"/><circle class="st1" cx="25.3" cy="874.7" r=".5"/><circle class="st1" cx="37.4" cy="847.5" r=".1"/><circle class="st1" cx="61.7" cy="779.3" r=".3"/><circle class="st1" cx="73.9" cy="765.6" r=".1"/><circle class="st1" cx="474.6" cy="1079.3" r=".7"/><circle class="st1" cx="268.2" cy="977" r=".9"/><circle class="st1" cx="304.6" cy="963.4" r=".3"/><circle class="st1" cx="341" cy="936.1" r=".6"/><circle class="st1" cx="413.9" cy="929.3" r=".2"/><circle class="st1" cx="316.7" cy="1058.9" r=".5"/><circle class="st1" cx="328.9" cy="1052" r=".1"/><circle class="st1" cx="365.3" cy="1017.9" r=".3"/><circle class="st1" cx="389.6" cy="1011.1" r=".1"/><circle class="st1" cx="158.9" cy="1031.6" r=".4"/><circle class="st1" cx="171" cy="1024.8" r=".1"/><circle class="st1" cx="219.6" cy="990.7" r=".3"/><circle class="st1" cx="256" cy="983.8" r=".1"/><circle class="st1" cx="183.2" cy="1072.5" r=".2"/><circle class="st1" cx="195.3" cy="1065.7" r=".1"/><circle class="st1" cx="231.7" cy="1045.2" r=".1"/><circle class="st1" cx="280.3" cy="902" r=".7"/><circle class="st1" cx="292.5" cy="888.4" r=".2"/><circle class="st1" cx="86" cy="820.2" r=".6"/><circle class="st1" cx="98.1" cy="806.5" r=".2"/><circle class="st1" cx="110.3" cy="922.5" r=".3"/><circle class="st1" cx="122.4" cy="915.7" r=".1"/><circle class="st1" cx="134.6" cy="861.1" r=".2"/><circle class="st1" cx="146.7" cy="833.8" r=".1"/><circle class="st1" cx="450.3" cy="956.6" r=".3"/><circle class="st1" cx="498.9" cy="949.7" r=".1"/><circle class="st1" cx="571.8" cy="942.9" r=".2"/><circle class="st1" cx="523.2" cy="1004.3" r=".1"/><circle class="st1" cx="596.1" cy="970.2" r=".1"/><circle class="st1" cx="1543.4" cy="465.6" r=".8"/><circle class="st1" cx="1604.1" cy="458.8" r=".2"/><circle class="st1" cx="1664.8" cy="411" r=".5"/><circle class="st1" cx="1725.5" cy="404.2" r=".1"/><circle class="st1" cx="1616.2" cy="547.4" r=".4"/><circle class="st1" cx="1640.5" cy="540.6" r=".1"/><circle class="st1" cx="1689.1" cy="499.7" r=".2"/><circle class="st1" cx="1713.4" cy="486" r=".1"/><circle class="st1" cx="1349" cy="520.1" r=".4"/><circle class="st1" cx="1421.9" cy="513.3" r=".1"/><circle class="st1" cx="1482.6" cy="479.2" r=".2"/><circle class="st1" cx="1519.1" cy="472.4" r=".1"/><circle class="st1" cx="1434.1" cy="567.9" r=".2"/><circle class="st1" cx="1470.5" cy="561" r=".1"/><circle class="st1" cx="1494.8" cy="533.8" r=".1"/><circle class="st1" cx="608.2" cy="117.8" r=".7"/><circle class="st1" cx="1834.8" cy="49.6" r="2.3"/><circle class="st1" cx="1859.1" cy="42.8" r=".7"/><circle class="st1" cx="1094" cy="199.6" r="2.3"/><circle class="st1" cx="1373.3" cy="186" r=".7"/><circle class="st1" cx="1810.5" cy="90.5" r="1.9"/><circle class="st1" cx="1822.7" cy="83.7" r=".6"/><circle class="st1" cx="1300.5" cy="63.2" r="1.9"/><circle class="st1" cx="1531.2" cy="56.4" r=".6"/><circle class="st1" cx="1555.5" cy="131.4" r=".9"/><circle class="st1" cx="1652.7" cy="124.6" r=".3"/><circle class="st1" cx="1762" cy="76.9" r=".5"/><circle class="st1" cx="1786.2" cy="70.1" r=".2"/><circle class="st1" cx="1397.6" cy="206.4" r=".3"/><circle class="st1" cx="960.4" cy="138.2" r=".8"/><circle class="st1" cx="1130.4" cy="104.1" r="1.5"/><circle class="st1" cx="1324.8" cy="97.3" r=".5"/><circle class="st1" cx="984.7" cy="179.2" r="1.2"/><circle class="st1" cx="1106.1" cy="172.3" r=".4"/><circle class="st1" cx="1191.2" cy="151.9" r=".7"/><circle class="st1" cx="1264" cy="145.1" r=".2"/><circle class="st1" cx="207.4" cy="111" r="1.9"/><circle class="st1" cx="1847" cy="1.9" r="1.9"/><circle class="st1" cx="1871.3" cy="8.7" r=".6"/><circle class="st1" cx="1883.4" cy="36" r=".9"/><circle class="st1" cx="1895.5" cy="29.1" r=".3"/><circle class="st1" cx="1907.7" cy="22.3" r=".5"/><circle class="st1" cx="1919.8" cy="15.5" r=".2"/><circle class="st1" cx="656.8" cy="192.8" r=".8"/><circle class="st1" cx="741.8" cy="165.5" r="1.5"/><circle class="st1" cx="911.8" cy="158.7" r=".5"/></svg>