<svg id="图层_1" xmlns="http://www.w3.org/2000/svg" viewBox="0 0 1218.2 1406.5"><style>.st1{fill:#fff}</style><linearGradient id="SVGID_1_" gradientUnits="userSpaceOnUse" x1="-167.128" y1="1151.402" x2="1385.312" y2="255.1" gradientTransform="matrix(1 0 0 -1 0 1406.502)"><stop offset="0" stop-color="#271b38"/><stop offset="1" stop-color="#223457"/></linearGradient><path fill="url(#SVGID_1_)" d="M-11.9-13.7h1242v1434h-1242z"/><circle class="st1" cx="152.5" cy="636" r="2.7"/><circle class="st1" cx="431.8" cy="622.4" r=".8"/><circle class="st1" cx="735.4" cy="411" r="1.6"/><circle class="st1" cx="954" cy="404.1" r=".5"/><circle class="st1" cx="444" cy="867.9" r="1.3"/><circle class="st1" cx="662.6" cy="854.2" r=".4"/><circle class="st1" cx="844.7" cy="704.2" r=".8"/><circle class="st1" cx="905.5" cy="690.6" r=".2"/><circle class="st1" cx="1161.2" cy="1382.3" r="1.3"/><circle class="st1" cx="67.5" cy="779.2" r=".4"/><circle class="st1" cx="103.9" cy="642.8" r=".8"/><circle class="st1" cx="164.6" cy="629.2" r=".2"/><circle class="st1" cx="79.6" cy="895.1" r=".6"/><circle class="st1" cx="91.8" cy="881.5" r=".2"/><path class="st1" d="M116.1 840.2c.2 0 .4.2.4.4s-.2.4-.4.4-.4-.2-.4-.4.2-.4.4-.4z"/><circle class="st1" cx="140.4" cy="826.9" r=".1"/><circle class="st1" cx="1015.4" cy="802.7" r="1.7"/><circle class="st1" cx="1039.7" cy="775.4" r=".5"/><circle class="st1" cx="1064" cy="939" r=".9"/><circle class="st1" cx="1100.5" cy="925.4" r=".3"/><circle class="st1" cx="1112.6" cy="857.2" r=".5"/><circle class="st1" cx="1124.8" cy="850.4" r=".2"/><circle class="st1" cx="833.3" cy="898.1" r=".8"/><circle class="st1" cx="857.6" cy="884.5" r=".2"/><circle class="st1" cx="918.3" cy="829.9" r=".5"/><circle class="st1" cx="991.2" cy="816.3" r=".1"/><circle class="st1" cx="881.9" cy="952.7" r=".4"/><circle class="st1" cx="906.1" cy="945.9" r=".1"/><circle class="st1" cx="942.6" cy="911.8" r=".2"/><circle class="st1" cx="966.9" cy="904.9" r=".1"/><circle class="st1" cx="346.8" cy="663.3" r="1.2"/><circle class="st1" cx="456.1" cy="649.6" r=".4"/><circle class="st1" cx="589.7" cy="615.5" r=".7"/><circle class="st1" cx="723.3" cy="608.7" r=".2"/><circle class="st1" cx="480.4" cy="772.4" r=".6"/><circle class="st1" cx="529" cy="758.7" r=".2"/><circle class="st1" cx="638.3" cy="697.4" r=".4"/><circle class="st1" cx="686.9" cy="683.7" r=".1"/><circle class="st1" cx="201.1" cy="731.5" r=".6"/><circle class="st1" cx="249.7" cy="717.8" r=".2"/><circle class="st1" cx="298.2" cy="676.9" r=".3"/><circle class="st1" cx="334.7" cy="670.1" r=".1"/><circle class="st1" cx="273.9" cy="799.7" r=".3"/><circle class="st1" cx="286.1" cy="786" r=".1"/><circle class="st1" cx="310.4" cy="745.1" r=".2"/><circle class="st1" cx="322.5" cy="738.3" r=".1"/><circle class="st1" cx="614" cy="424.6" r="1.7"/><circle class="st1" cx="856.9" cy="417.8" r=".5"/><circle class="st1" cx="1014.8" cy="363.2" r="1"/><circle class="st1" cx="1075.5" cy="349.6" r=".3"/><circle class="st1" cx="869" cy="588.3" r=".9"/><circle class="st1" cx="978.3" cy="581.4" r=".3"/><circle class="st1" cx="1026.9" cy="492.8" r=".5"/><circle class="st1" cx="1051.2" cy="479.2" r=".2"/><circle class="st1" cx="359" cy="561" r=".8"/><circle class="st1" cx="395.4" cy="540.5" r=".3"/><circle class="st1" cx="504.7" cy="438.2" r=".5"/><circle class="st1" cx="565.4" cy="431.4" r=".2"/><circle class="st1" cx="419.7" cy="601.9" r=".4"/><circle class="st1" cx="492.5" cy="595.1" r=".1"/><circle class="st1" cx="516.8" cy="574.6" r=".2"/><circle class="st1" cx="553.3" cy="567.8" r=".1"/><circle class="st1" cx="128.2" cy="301.8" r=".6"/><circle class="st1" cx="176.8" cy="295" r=".2"/><circle class="st1" cx="213.2" cy="226.8" r=".3"/><circle class="st1" cx="225.4" cy="220" r=".1"/><circle class="st1" cx="1149" cy="823.1" r=".5"/><circle class="st1" cx="6.8" cy="213.2" r=".3"/><circle class="st1" cx="55.3" cy="199.6" r=".1"/><circle class="st1" cx="31.1" cy="274.6" r=".2"/><circle class="st1" cx="481.1" cy="1293.6" r="1"/><circle class="st1" cx="493.2" cy="1280" r=".3"/><circle class="st1" cx="529.7" cy="1225.5" r=".6"/><circle class="st1" cx="517.5" cy="1402.8" r=".1"/><circle class="st1" cx="541.8" cy="1334.6" r=".3"/><circle class="st1" cx="554" cy="1320.9" r=".1"/><circle class="st1" cx="516.7" cy="1250.6" r=".7"/><circle class="st1" cx="310.3" cy="1148.3" r=".9"/><circle class="st1" cx="346.7" cy="1134.7" r=".3"/><circle class="st1" cx="383.1" cy="1107.4" r=".6"/><circle class="st1" cx="456" cy="1100.6" r=".2"/><circle class="st1" cx="358.8" cy="1230.2" r=".5"/><circle class="st1" cx="371" cy="1223.3" r=".1"/><circle class="st1" cx="407.4" cy="1189.2" r=".3"/><circle class="st1" cx="431.7" cy="1182.4" r=".1"/><circle class="st1" cx="201" cy="1202.9" r=".4"/><circle class="st1" cx="213.1" cy="1196.1" r=".1"/><circle class="st1" cx="261.7" cy="1162" r=".3"/><circle class="st1" cx="298.1" cy="1155.1" r=".1"/><circle class="st1" cx="225.3" cy="1243.8" r=".2"/><circle class="st1" cx="237.4" cy="1237" r=".1"/><circle class="st1" cx="273.8" cy="1216.5" r=".1"/><path class="st1" d="M286 1209.7z"/><circle class="st1" cx="322.4" cy="1073.3" r=".7"/><circle class="st1" cx="566.1" cy="1375.5" r=".6"/><circle class="st1" cx="578.2" cy="1361.8" r=".2"/><circle class="st1" cx="152.4" cy="1093.8" r=".3"/><circle class="st1" cx="164.5" cy="1087" r=".1"/><circle class="st1" cx="614.7" cy="1416.4" r=".2"/><circle class="st1" cx="626.8" cy="1389.1" r=".1"/><circle class="st1" cx="492.4" cy="1127.9" r=".3"/><circle class="st1" cx="541" cy="1121" r=".1"/><circle class="st1" cx="613.9" cy="1114.2" r=".2"/><circle class="st1" cx="565.3" cy="1175.6" r=".1"/><path class="st1" d="M589.6 1168.8z"/><circle class="st1" cx="638.2" cy="1141.5" r=".1"/><path class="st1" d="M43.2 267.8z"/><circle class="st1" cx="820.5" cy="451.9" r=".8"/><circle class="st1" cx="881.2" cy="445.1" r=".2"/><circle class="st1" cx="941.9" cy="397.3" r=".5"/><circle class="st1" cx="1002.6" cy="390.5" r=".1"/><circle class="st1" cx="893.3" cy="533.7" r=".4"/><circle class="st1" cx="917.6" cy="526.9" r=".1"/><circle class="st1" cx="966.2" cy="486" r=".2"/><circle class="st1" cx="990.5" cy="472.3" r=".1"/><circle class="st1" cx="626.1" cy="506.4" r=".4"/><circle class="st1" cx="699" cy="499.6" r=".1"/><circle class="st1" cx="759.7" cy="465.5" r=".2"/><circle class="st1" cx="796.2" cy="458.7" r=".1"/><circle class="st1" cx="711.2" cy="554.2" r=".2"/><circle class="st1" cx="747.6" cy="547.3" r=".1"/><circle class="st1" cx="771.9" cy="520.1" r=".1"/><path class="st1" d="M784 513.2z"/><circle class="st1" cx="1088.3" cy="673.1" r=".7"/><circle class="st1" cx="1111.9" cy="35.9" r="2.3"/><circle class="st1" cx="1136.2" cy="29.1" r=".7"/><circle class="st1" cx="371.1" cy="185.9" r="2.3"/><circle class="st1" cx="650.4" cy="172.3" r=".7"/><circle class="st1" cx="1087.6" cy="76.8" r="1.9"/><circle class="st1" cx="1099.8" cy="70" r=".6"/><circle class="st1" cx="577.6" cy="49.5" r="1.9"/><circle class="st1" cx="808.3" cy="42.7" r=".6"/><circle class="st1" cx="832.6" cy="117.7" r=".9"/><circle class="st1" cx="929.8" cy="110.9" r=".3"/><circle class="st1" cx="1039.1" cy="63.2" r=".5"/><circle class="st1" cx="1063.3" cy="56.4" r=".2"/><circle class="st1" cx="674.7" cy="192.7" r=".3"/><circle class="st1" cx="237.5" cy="124.5" r=".8"/><circle class="st1" cx="407.5" cy="90.4" r="1.5"/><circle class="st1" cx="601.9" cy="83.6" r=".5"/><circle class="st1" cx="261.8" cy="165.5" r="1.2"/><circle class="st1" cx="383.2" cy="158.6" r=".4"/><circle class="st1" cx="468.3" cy="138.2" r=".7"/><circle class="st1" cx="541.1" cy="131.4" r=".2"/><circle class="st1" cx="687.5" cy="666.3" r="1.9"/><circle class="st1" cx="1148.4" cy="-5" r=".6"/><circle class="st1" cx="1160.5" cy="22.3" r=".9"/><circle class="st1" cx="1172.6" cy="15.4" r=".3"/><circle class="st1" cx="1184.8" cy="8.6" r=".5"/><circle class="st1" cx="1196.9" cy="1.8" r=".2"/><circle class="st1" cx="1136.9" cy="748.1" r=".8"/><circle class="st1" cx="18.9" cy="151.8" r="1.5"/><circle class="st1" cx="188.9" cy="145" r=".5"/></svg>