<?xml version="1.0" encoding="utf-8"?>
<!-- Generator: Adobe Illustrator 15.0.0, SVG Export Plug-In . SVG Version: 6.00 Build 0)  -->
<!DOCTYPE svg PUBLIC "-//W3C//DTD SVG 1.1//EN" "http://www.w3.org/Graphics/SVG/1.1/DTD/svg11.dtd">
<svg version="1.1" id="图层_1" xmlns="http://www.w3.org/2000/svg" xmlns:xlink="http://www.w3.org/1999/xlink" x="0px" y="0px"
	 width="612px" height="224.273px" viewBox="0 283.768 612 224.273" enable-background="new 0 283.768 612 224.273"
	 xml:space="preserve">
<linearGradient id="SVGID_1_" gradientUnits="userSpaceOnUse" x1="86.5977" y1="945.9102" x2="1831.266" y2="-61.3743" gradientTransform="matrix(0.3187 0 0 -0.3187 0.3405 536.8778)">
	<stop  offset="0" style="stop-color:#271B38"/>
	<stop  offset="1" style="stop-color:#223457"/>
</linearGradient>
<rect y="283.768" fill="url(#SVGID_1_)" width="612" height="224.273"/>
<circle fill="#FFFFFF" cx="279.034" cy="410.312" r="0.861"/>
<circle fill="#FFFFFF" cx="368.061" cy="405.977" r="0.255"/>
<circle fill="#FFFFFF" cx="464.833" cy="338.593" r="0.51"/>
<circle fill="#FFFFFF" cx="534.512" cy="336.394" r="0.159"/>
<circle fill="#FFFFFF" cx="371.949" cy="484.23" r="0.415"/>
<circle fill="#FFFFFF" cx="441.628" cy="479.863" r="0.127"/>
<circle fill="#FFFFFF" cx="499.673" cy="432.051" r="0.255"/>
<circle fill="#FFFFFF" cx="519.053" cy="427.716" r="0.063"/>
<circle fill="#FFFFFF" cx="217.101" cy="466.826" r="0.414"/>
<circle fill="#FFFFFF" cx="251.94" cy="455.957" r="0.127"/>
<circle fill="#FFFFFF" cx="263.542" cy="412.479" r="0.255"/>
<circle fill="#FFFFFF" cx="282.891" cy="408.145" r="0.063"/>
<circle fill="#FFFFFF" cx="255.797" cy="492.9" r="0.191"/>
<circle fill="#FFFFFF" cx="259.686" cy="488.565" r="0.064"/>
<circle fill="#FFFFFF" cx="267.431" cy="475.528" r="0.127"/>
<circle fill="#FFFFFF" cx="275.177" cy="471.161" r="0.032"/>
<circle fill="#FFFFFF" cx="186.118" cy="325.524" r="0.287"/>
<circle fill="#FFFFFF" cx="197.752" cy="321.189" r="0.096"/>
<circle fill="#FFFFFF" cx="201.609" cy="299.45" r="0.159"/>
<circle fill="#FFFFFF" cx="205.498" cy="297.283" r="0.064"/>
<circle fill="#FFFFFF" cx="112.583" cy="312.488" r="0.255"/>
<circle fill="#FFFFFF" cx="120.328" cy="308.153" r="0.064"/>
<circle fill="#FFFFFF" cx="139.676" cy="290.749" r="0.159"/>
<circle fill="#FFFFFF" cx="162.913" cy="286.414" r="0.032"/>
<circle fill="#FFFFFF" cx="128.074" cy="329.891" r="0.127"/>
<circle fill="#FFFFFF" cx="135.788" cy="327.724" r="0.032"/>
<circle fill="#FFFFFF" cx="147.422" cy="316.854" r="0.064"/>
<circle fill="#FFFFFF" cx="155.167" cy="314.655" r="0.032"/>
<circle fill="#FFFFFF" cx="340.967" cy="419.014" r="0.383"/>
<circle fill="#FFFFFF" cx="375.807" cy="414.647" r="0.127"/>
<circle fill="#FFFFFF" cx="418.392" cy="403.778" r="0.223"/>
<circle fill="#FFFFFF" cx="460.977" cy="401.61" r="0.064"/>
<circle fill="#FFFFFF" cx="383.552" cy="453.789" r="0.191"/>
<circle fill="#FFFFFF" cx="399.043" cy="449.422" r="0.064"/>
<circle fill="#FFFFFF" cx="433.883" cy="429.883" r="0.127"/>
<circle fill="#FFFFFF" cx="449.374" cy="425.516" r="0.032"/>
<circle fill="#FFFFFF" cx="294.525" cy="440.752" r="0.191"/>
<circle fill="#FFFFFF" cx="310.017" cy="436.386" r="0.063"/>
<circle fill="#FFFFFF" cx="325.476" cy="423.349" r="0.096"/>
<circle fill="#FFFFFF" cx="337.11" cy="421.181" r="0.032"/>
<circle fill="#FFFFFF" cx="317.73" cy="462.491" r="0.096"/>
<circle fill="#FFFFFF" cx="321.619" cy="458.125" r="0.032"/>
<circle fill="#FFFFFF" cx="329.364" cy="445.087" r="0.064"/>
<circle fill="#FFFFFF" cx="333.222" cy="442.92" r="0.032"/>
<circle fill="#FFFFFF" cx="426.137" cy="342.928" r="0.542"/>
<circle fill="#FFFFFF" cx="503.562" cy="340.76" r="0.159"/>
<circle fill="#FFFFFF" cx="553.892" cy="323.357" r="0.319"/>
<circle fill="#FFFFFF" cx="573.24" cy="319.022" r="0.096"/>
<circle fill="#FFFFFF" cx="507.418" cy="395.108" r="0.287"/>
<circle fill="#FFFFFF" cx="542.258" cy="392.908" r="0.096"/>
<circle fill="#FFFFFF" cx="557.749" cy="364.667" r="0.159"/>
<circle fill="#FFFFFF" cx="565.494" cy="360.332" r="0.064"/>
<circle fill="#FFFFFF" cx="344.855" cy="386.406" r="0.255"/>
<circle fill="#FFFFFF" cx="356.458" cy="379.871" r="0.096"/>
<circle fill="#FFFFFF" cx="391.298" cy="347.263" r="0.159"/>
<circle fill="#FFFFFF" cx="410.646" cy="345.095" r="0.064"/>
<circle fill="#FFFFFF" cx="364.204" cy="399.443" r="0.127"/>
<circle fill="#FFFFFF" cx="387.409" cy="397.275" r="0.032"/>
<circle fill="#FFFFFF" cx="395.154" cy="390.74" r="0.064"/>
<circle fill="#FFFFFF" cx="406.789" cy="388.573" r="0.032"/>
<circle fill="#FFFFFF" cx="271.288" cy="303.786" r="0.191"/>
<circle fill="#FFFFFF" cx="286.779" cy="301.618" r="0.064"/>
<circle fill="#FFFFFF" cx="213.212" cy="288.581" r="0.159"/>
<circle fill="#FFFFFF" cx="220.958" cy="284.246" r="0.064"/>
<circle fill="#FFFFFF" cx="224.846" cy="310.32" r="0.095"/>
<circle fill="#FFFFFF" cx="228.703" cy="305.985" r="0.032"/>
<circle fill="#FFFFFF" cx="240.337" cy="295.115" r="0.064"/>
<circle fill="#FFFFFF" cx="0.319" cy="438.553" r="0.319"/>
<circle fill="#FFFFFF" cx="4.176" cy="434.218" r="0.096"/>
<circle fill="#FFFFFF" cx="15.81" cy="416.846" r="0.191"/>
<circle fill="#FFFFFF" cx="8.064" cy="482.031" r="0.16"/>
<circle fill="#FFFFFF" cx="11.921" cy="473.361" r="0.032"/>
<circle fill="#FFFFFF" cx="19.667" cy="451.622" r="0.096"/>
<circle fill="#FFFFFF" cx="23.556" cy="447.255" r="0.032"/>
<circle fill="#FFFFFF" cx="108.694" cy="501.602" r="0.191"/>
<circle fill="#FFFFFF" cx="131.931" cy="499.435" r="0.063"/>
<circle fill="#FFFFFF" cx="89.346" cy="490.733" r="0.223"/>
<circle fill="#FFFFFF" cx="93.234" cy="486.397" r="0.063"/>
<circle fill="#FFFFFF" cx="27.413" cy="464.659" r="0.191"/>
<circle fill="#FFFFFF" cx="31.27" cy="460.292" r="0.063"/>
<circle fill="#FFFFFF" cx="35.158" cy="497.267" r="0.096"/>
<circle fill="#FFFFFF" cx="39.015" cy="495.099" r="0.032"/>
<circle fill="#FFFFFF" cx="42.904" cy="477.696" r="0.064"/>
<circle fill="#FFFFFF" cx="46.761" cy="468.994" r="0.032"/>
<path fill="#FFFFFF" d="M244.194,292.948L244.194,292.948L244.194,292.948z"/>
<circle fill="#FFFFFF" cx="491.959" cy="351.63" r="0.255"/>
<circle fill="#FFFFFF" cx="511.307" cy="349.463" r="0.064"/>
<circle fill="#FFFFFF" cx="530.655" cy="334.226" r="0.159"/>
<circle fill="#FFFFFF" cx="550.003" cy="332.059" r="0.032"/>
<circle fill="#FFFFFF" cx="515.164" cy="377.704" r="0.127"/>
<circle fill="#FFFFFF" cx="522.909" cy="375.536" r="0.032"/>
<circle fill="#FFFFFF" cx="538.4" cy="362.499" r="0.064"/>
<circle fill="#FFFFFF" cx="546.146" cy="358.133" r="0.032"/>
<circle fill="#FFFFFF" cx="429.994" cy="369.002" r="0.127"/>
<circle fill="#FFFFFF" cx="453.23" cy="366.834" r="0.032"/>
<circle fill="#FFFFFF" cx="472.579" cy="355.965" r="0.064"/>
<circle fill="#FFFFFF" cx="484.213" cy="353.798" r="0.032"/>
<circle fill="#FFFFFF" cx="457.119" cy="384.238" r="0.064"/>
<circle fill="#FFFFFF" cx="468.722" cy="382.039" r="0.032"/>
<circle fill="#FFFFFF" cx="476.468" cy="373.369" r="0.032"/>
<path fill="#FFFFFF" d="M480.324,371.169L480.324,371.169L480.324,371.169z"/>
<linearGradient id="SVGID_2_" gradientUnits="userSpaceOnUse" x1="134.4194" y1="730.5449" x2="246.8447" y2="618.1196" gradientTransform="matrix(0.3187 0 0 0.3187 0.3405 214.8127)">
	<stop  offset="0" style="stop-color:#262748"/>
	<stop  offset="1" style="stop-color:#353F5F"/>
</linearGradient>
<path fill="url(#SVGID_2_)" d="M61.104,404.415c13.993,0,25.34,11.348,25.34,25.341s-11.347,25.341-25.34,25.341
	s-25.341-11.348-25.341-25.341S47.111,404.415,61.104,404.415z"/>
<g>
	<g>
		
			<linearGradient id="SVGID_3_" gradientUnits="userSpaceOnUse" x1="238.7222" y1="647.2422" x2="270.542" y2="615.4224" gradientTransform="matrix(0.3187 0 0 0.3187 0.3405 214.8127)">
			<stop  offset="0" style="stop-color:#3B496A"/>
			<stop  offset="1" style="stop-color:#516E92"/>
		</linearGradient>
		<circle fill="url(#SVGID_3_)" cx="81.504" cy="416.05" r="7.172"/>
	</g>
</g>
<g>
	<g>
		
			<linearGradient id="SVGID_4_" gradientUnits="userSpaceOnUse" x1="1646.833" y1="364.4307" x2="1805.8311" y2="364.4307" gradientTransform="matrix(0.3187 0 0 0.3187 0.3405 214.8127)">
			<stop  offset="0" style="stop-color:#262748"/>
			<stop  offset="1" style="stop-color:#353F5F"/>
		</linearGradient>
		<circle fill="url(#SVGID_4_)" cx="550.608" cy="330.975" r="25.341"/>
	</g>
</g>
<linearGradient id="SVGID_5_" gradientUnits="userSpaceOnUse" x1="1603.2217" y1="370.1074" x2="1849.0459" y2="370.1074" gradientTransform="matrix(0.3187 0 0 0.3187 0.3405 214.8127)">
	<stop  offset="0" style="stop-color:#3B496A"/>
	<stop  offset="1" style="stop-color:#516E92"/>
</linearGradient>
<path fill="url(#SVGID_5_)" d="M516.088,322.018c-1.115,4.176,13.547,11.73,32.768,16.862c19.221,5.164,35.7,5.961,36.815,1.785
	c0.574-2.136-2.964-5.132-9.116-8.256c8.639,3.984,13.834,7.937,13.101,10.646c-1.243,4.686-20.018,4.686-41.628-1.084
	c-21.611-5.769-37.836-15.204-36.593-19.858c0.733-2.709,7.203-3.538,16.671-2.646C521.22,319.085,516.662,319.915,516.088,322.018z
	"/>
</svg>
