<?xml version="1.0" encoding="utf-8"?>
<!-- Generator: Adobe Illustrator 22.1.0, SVG Export Plug-In . SVG Version: 6.00 Build 0)  -->
<svg version="1.1" id="图层_1" xmlns="http://www.w3.org/2000/svg" xmlns:xlink="http://www.w3.org/1999/xlink" x="0px" y="0px"
	 viewBox="0 0 1920 704.2" style="enable-background:new 0 0 1920 704.2;" xml:space="preserve">
<style type="text/css">
	.st0{fill:url(#SVGID_1_);}
	.st1{fill:#FFFFFF;}
	.st2{fill:url(#SVGID_2_);}
	.st3{fill:url(#SVGID_3_);}
	.st4{fill:url(#SVGID_4_);}
	.st5{fill:url(#SVGID_5_);}
</style>
<linearGradient id="SVGID_1_" gradientUnits="userSpaceOnUse" x1="87.6661" y1="-151.8421" x2="1832.3339" y2="855.4421">
	<stop  offset="0" style="stop-color:#271B38"/>
	<stop  offset="1" style="stop-color:#223457"/>
</linearGradient>
<rect class="st0" width="1920" height="703.6"/>
<circle class="st1" cx="875.4" cy="397" r="2.7"/>
<circle class="st1" cx="1154.7" cy="383.4" r="0.8"/>
<circle class="st1" cx="1458.3" cy="172" r="1.6"/>
<circle class="st1" cx="1676.9" cy="165.1" r="0.5"/>
<circle class="st1" cx="1166.9" cy="628.9" r="1.3"/>
<circle class="st1" cx="1385.5" cy="615.2" r="0.4"/>
<circle class="st1" cx="1567.6" cy="465.2" r="0.8"/>
<circle class="st1" cx="1628.4" cy="451.6" r="0.2"/>
<circle class="st1" cx="681.1" cy="574.3" r="1.3"/>
<circle class="st1" cx="790.4" cy="540.2" r="0.4"/>
<circle class="st1" cx="826.8" cy="403.8" r="0.8"/>
<circle class="st1" cx="887.5" cy="390.2" r="0.2"/>
<circle class="st1" cx="802.5" cy="656.1" r="0.6"/>
<circle class="st1" cx="814.7" cy="642.5" r="0.2"/>
<circle class="st1" cx="839" cy="601.6" r="0.4"/>
<circle class="st1" cx="863.3" cy="587.9" r="0.1"/>
<circle class="st1" cx="583.9" cy="131" r="0.9"/>
<circle class="st1" cx="620.4" cy="117.4" r="0.3"/>
<circle class="st1" cx="632.5" cy="49.2" r="0.5"/>
<circle class="st1" cx="644.7" cy="42.4" r="0.2"/>
<circle class="st1" cx="353.2" cy="90.1" r="0.8"/>
<circle class="st1" cx="377.5" cy="76.5" r="0.2"/>
<circle class="st1" cx="438.2" cy="21.9" r="0.5"/>
<circle class="st1" cx="511.1" cy="8.3" r="0.1"/>
<circle class="st1" cx="401.8" cy="144.7" r="0.4"/>
<circle class="st1" cx="426" cy="137.9" r="0.1"/>
<circle class="st1" cx="462.5" cy="103.8" r="0.2"/>
<circle class="st1" cx="486.8" cy="96.9" r="0.1"/>
<circle class="st1" cx="1069.7" cy="424.3" r="1.2"/>
<circle class="st1" cx="1179" cy="410.6" r="0.4"/>
<circle class="st1" cx="1312.6" cy="376.5" r="0.7"/>
<circle class="st1" cx="1446.2" cy="369.7" r="0.2"/>
<circle class="st1" cx="1203.3" cy="533.4" r="0.6"/>
<circle class="st1" cx="1251.9" cy="519.7" r="0.2"/>
<circle class="st1" cx="1361.2" cy="458.4" r="0.4"/>
<circle class="st1" cx="1409.8" cy="444.7" r="0.1"/>
<circle class="st1" cx="924" cy="492.5" r="0.6"/>
<circle class="st1" cx="972.6" cy="478.8" r="0.2"/>
<circle class="st1" cx="1021.1" cy="437.9" r="0.3"/>
<circle class="st1" cx="1057.6" cy="431.1" r="0.1"/>
<circle class="st1" cx="996.8" cy="560.7" r="0.3"/>
<circle class="st1" cx="1009" cy="547" r="0.1"/>
<circle class="st1" cx="1033.3" cy="506.1" r="0.2"/>
<circle class="st1" cx="1045.4" cy="499.3" r="0.1"/>
<circle class="st1" cx="1336.9" cy="185.6" r="1.7"/>
<circle class="st1" cx="1579.8" cy="178.8" r="0.5"/>
<circle class="st1" cx="1737.7" cy="124.2" r="1"/>
<circle class="st1" cx="1798.4" cy="110.6" r="0.3"/>
<circle class="st1" cx="1591.9" cy="349.3" r="0.9"/>
<circle class="st1" cx="1701.2" cy="342.4" r="0.3"/>
<circle class="st1" cx="1749.8" cy="253.8" r="0.5"/>
<circle class="st1" cx="1774.1" cy="240.2" r="0.2"/>
<circle class="st1" cx="1081.9" cy="322" r="0.8"/>
<circle class="st1" cx="1118.3" cy="301.5" r="0.3"/>
<circle class="st1" cx="1227.6" cy="199.2" r="0.5"/>
<circle class="st1" cx="1288.3" cy="192.4" r="0.2"/>
<circle class="st1" cx="1142.6" cy="362.9" r="0.4"/>
<circle class="st1" cx="1215.4" cy="356.1" r="0.1"/>
<circle class="st1" cx="1239.7" cy="335.6" r="0.2"/>
<circle class="st1" cx="1276.2" cy="328.8" r="0.1"/>
<circle class="st1" cx="851.1" cy="62.8" r="0.6"/>
<circle class="st1" cx="899.7" cy="56" r="0.2"/>
<circle class="st1" cx="668.9" cy="15.1" r="0.5"/>
<circle class="st1" cx="693.2" cy="1.5" r="0.2"/>
<circle class="st1" cx="705.4" cy="83.3" r="0.3"/>
<circle class="st1" cx="717.5" cy="69.7" r="0.1"/>
<circle class="st1" cx="754" cy="35.6" r="0.2"/>
<circle class="st1" cx="1" cy="485.6" r="1"/>
<circle class="st1" cx="13.1" cy="472" r="0.3"/>
<circle class="st1" cx="49.6" cy="417.5" r="0.6"/>
<circle class="st1" cx="25.3" cy="622" r="0.5"/>
<circle class="st1" cx="37.4" cy="594.8" r="0.1"/>
<circle class="st1" cx="61.7" cy="526.6" r="0.3"/>
<circle class="st1" cx="73.9" cy="512.9" r="0.1"/>
<circle class="st1" cx="341" cy="683.4" r="0.6"/>
<circle class="st1" cx="413.9" cy="676.6" r="0.2"/>
<circle class="st1" cx="280.3" cy="649.3" r="0.7"/>
<circle class="st1" cx="292.5" cy="635.7" r="0.2"/>
<circle class="st1" cx="86" cy="567.5" r="0.6"/>
<circle class="st1" cx="98.1" cy="553.8" r="0.2"/>
<circle class="st1" cx="110.3" cy="669.8" r="0.3"/>
<circle class="st1" cx="122.4" cy="663" r="0.1"/>
<circle class="st1" cx="134.6" cy="608.4" r="0.2"/>
<circle class="st1" cx="146.7" cy="581.1" r="0.1"/>
<circle class="st1" cx="450.3" cy="703.9" r="0.3"/>
<circle class="st1" cx="498.9" cy="697" r="0.1"/>
<circle class="st1" cx="571.8" cy="690.2" r="0.2"/>
<polygon class="st1" points="766.1,28.8 766.1,28.8 766.1,28.8 "/>
<circle class="st1" cx="1543.4" cy="212.9" r="0.8"/>
<circle class="st1" cx="1604.1" cy="206.1" r="0.2"/>
<circle class="st1" cx="1664.8" cy="158.3" r="0.5"/>
<circle class="st1" cx="1725.5" cy="151.5" r="0.1"/>
<circle class="st1" cx="1616.2" cy="294.7" r="0.4"/>
<circle class="st1" cx="1640.5" cy="287.9" r="0.1"/>
<circle class="st1" cx="1689.1" cy="247" r="0.2"/>
<circle class="st1" cx="1713.4" cy="233.3" r="0.1"/>
<circle class="st1" cx="1349" cy="267.4" r="0.4"/>
<circle class="st1" cx="1421.9" cy="260.6" r="0.1"/>
<circle class="st1" cx="1482.6" cy="226.5" r="0.2"/>
<circle class="st1" cx="1519.1" cy="219.7" r="0.1"/>
<circle class="st1" cx="1434.1" cy="315.2" r="0.2"/>
<circle class="st1" cx="1470.5" cy="308.3" r="0.1"/>
<circle class="st1" cx="1494.8" cy="281.1" r="0.1"/>
<polygon class="st1" points="1506.9,274.2 1506.9,274.2 1506.9,274.2 "/>
<linearGradient id="SVGID_2_" gradientUnits="userSpaceOnUse" x1="135.4875" y1="60.3876" x2="247.9125" y2="172.8126" gradientTransform="matrix(1 0 0 -1 0 574.6)">
	<stop  offset="0" style="stop-color:#262748"/>
	<stop  offset="1" style="stop-color:#353F5F"/>
</linearGradient>
<path class="st2" d="M191.7,378.5c43.9,0,79.5,35.6,79.5,79.5s-35.6,79.5-79.5,79.5s-79.5-35.6-79.5-79.5S147.8,378.5,191.7,378.5z"
	/>
<g>
	<g>
		
			<linearGradient id="SVGID_3_" gradientUnits="userSpaceOnUse" x1="239.7901" y1="143.6902" x2="271.6099" y2="175.51" gradientTransform="matrix(1 0 0 -1 0 574.6)">
			<stop  offset="0" style="stop-color:#3B496A"/>
			<stop  offset="1" style="stop-color:#516E92"/>
		</linearGradient>
		<circle class="st3" cx="255.7" cy="415" r="22.5"/>
	</g>
</g>
<g>
	<g>
		
			<linearGradient id="SVGID_4_" gradientUnits="userSpaceOnUse" x1="1647.9098" y1="426.5" x2="1806.9098" y2="426.5" gradientTransform="matrix(1 0 0 -1 0 574.6)">
			<stop  offset="0" style="stop-color:#262748"/>
			<stop  offset="1" style="stop-color:#353F5F"/>
		</linearGradient>
		<circle class="st4" cx="1727.4" cy="148.1" r="79.5"/>
	</g>
</g>
<linearGradient id="SVGID_5_" gradientUnits="userSpaceOnUse" x1="1604.2999" y1="420.8236" x2="1850.125" y2="420.8236" gradientTransform="matrix(1 0 0 -1 0 574.6)">
	<stop  offset="0" style="stop-color:#3B496A"/>
	<stop  offset="1" style="stop-color:#516E92"/>
</linearGradient>
<path class="st5" d="M1619.1,120c-3.5,13.1,42.5,36.8,102.8,52.9c60.3,16.2,112,18.7,115.5,5.6c1.8-6.7-9.3-16.1-28.6-25.9
	c27.1,12.5,43.4,24.9,41.1,33.4c-3.9,14.7-62.8,14.7-130.6-3.4c-67.8-18.1-118.7-47.7-114.8-62.3c2.3-8.5,22.6-11.1,52.3-8.3
	C1635.2,110.8,1620.9,113.4,1619.1,120z"/>
</svg>
