<svg xmlns="http://www.w3.org/2000/svg" width="612" height="224.273" viewBox="0 283.768 612 224.273"><linearGradient id="a" gradientUnits="userSpaceOnUse" x1="86.598" y1="945.91" x2="1831.266" y2="-61.374" gradientTransform="matrix(.3187 0 0 -.3187 .34 536.878)"><stop offset="0" stop-color="#271b38"/><stop offset="1" stop-color="#223457"/></linearGradient><path fill="url(#a)" d="M0 283.768h612v224.273H0z"/><circle fill="#FFF" cx="279.034" cy="410.312" r=".861"/><circle fill="#FFF" cx="368.061" cy="405.977" r=".255"/><circle fill="#FFF" cx="464.833" cy="338.593" r=".51"/><circle fill="#FFF" cx="534.512" cy="336.394" r=".159"/><circle fill="#FFF" cx="371.949" cy="484.23" r=".415"/><circle fill="#FFF" cx="441.628" cy="479.863" r=".127"/><circle fill="#FFF" cx="499.673" cy="432.051" r=".255"/><circle fill="#FFF" cx="519.053" cy="427.716" r=".063"/><circle fill="#FFF" cx="217.101" cy="466.826" r=".414"/><circle fill="#FFF" cx="251.94" cy="455.957" r=".127"/><circle fill="#FFF" cx="263.542" cy="412.479" r=".255"/><circle fill="#FFF" cx="282.891" cy="408.145" r=".063"/><circle fill="#FFF" cx="255.797" cy="492.9" r=".191"/><circle fill="#FFF" cx="259.686" cy="488.565" r=".064"/><circle fill="#FFF" cx="267.431" cy="475.528" r=".127"/><circle fill="#FFF" cx="275.177" cy="471.161" r=".032"/><circle fill="#FFF" cx="186.118" cy="325.524" r=".287"/><circle fill="#FFF" cx="197.752" cy="321.189" r=".096"/><circle fill="#FFF" cx="201.609" cy="299.45" r=".159"/><circle fill="#FFF" cx="205.498" cy="297.283" r=".064"/><circle fill="#FFF" cx="112.583" cy="312.488" r=".255"/><circle fill="#FFF" cx="120.328" cy="308.153" r=".064"/><circle fill="#FFF" cx="139.676" cy="290.749" r=".159"/><circle fill="#FFF" cx="162.913" cy="286.414" r=".032"/><circle fill="#FFF" cx="128.074" cy="329.891" r=".127"/><circle fill="#FFF" cx="135.788" cy="327.724" r=".032"/><circle fill="#FFF" cx="147.422" cy="316.854" r=".064"/><circle fill="#FFF" cx="155.167" cy="314.655" r=".032"/><circle fill="#FFF" cx="340.967" cy="419.014" r=".383"/><circle fill="#FFF" cx="375.807" cy="414.647" r=".127"/><circle fill="#FFF" cx="418.392" cy="403.778" r=".223"/><circle fill="#FFF" cx="460.977" cy="401.61" r=".064"/><circle fill="#FFF" cx="383.552" cy="453.789" r=".191"/><circle fill="#FFF" cx="399.043" cy="449.422" r=".064"/><circle fill="#FFF" cx="433.883" cy="429.883" r=".127"/><circle fill="#FFF" cx="449.374" cy="425.516" r=".032"/><circle fill="#FFF" cx="294.525" cy="440.752" r=".191"/><circle fill="#FFF" cx="310.017" cy="436.386" r=".063"/><circle fill="#FFF" cx="325.476" cy="423.349" r=".096"/><circle fill="#FFF" cx="337.11" cy="421.181" r=".032"/><circle fill="#FFF" cx="317.73" cy="462.491" r=".096"/><circle fill="#FFF" cx="321.619" cy="458.125" r=".032"/><circle fill="#FFF" cx="329.364" cy="445.087" r=".064"/><circle fill="#FFF" cx="333.222" cy="442.92" r=".032"/><circle fill="#FFF" cx="426.137" cy="342.928" r=".542"/><circle fill="#FFF" cx="503.562" cy="340.76" r=".159"/><circle fill="#FFF" cx="553.892" cy="323.357" r=".319"/><circle fill="#FFF" cx="573.24" cy="319.022" r=".096"/><circle fill="#FFF" cx="507.418" cy="395.108" r=".287"/><circle fill="#FFF" cx="542.258" cy="392.908" r=".096"/><circle fill="#FFF" cx="557.749" cy="364.667" r=".159"/><circle fill="#FFF" cx="565.494" cy="360.332" r=".064"/><circle fill="#FFF" cx="344.855" cy="386.406" r=".255"/><circle fill="#FFF" cx="356.458" cy="379.871" r=".096"/><circle fill="#FFF" cx="391.298" cy="347.263" r=".159"/><circle fill="#FFF" cx="410.646" cy="345.095" r=".064"/><circle fill="#FFF" cx="364.204" cy="399.443" r=".127"/><circle fill="#FFF" cx="387.409" cy="397.275" r=".032"/><circle fill="#FFF" cx="395.154" cy="390.74" r=".064"/><circle fill="#FFF" cx="406.789" cy="388.573" r=".032"/><circle fill="#FFF" cx="271.288" cy="303.786" r=".191"/><circle fill="#FFF" cx="286.779" cy="301.618" r=".064"/><circle fill="#FFF" cx="213.212" cy="288.581" r=".159"/><circle fill="#FFF" cx="220.958" cy="284.246" r=".064"/><circle fill="#FFF" cx="224.846" cy="310.32" r=".095"/><circle fill="#FFF" cx="228.703" cy="305.985" r=".032"/><circle fill="#FFF" cx="240.337" cy="295.115" r=".064"/><circle fill="#FFF" cx=".319" cy="438.553" r=".319"/><circle fill="#FFF" cx="4.176" cy="434.218" r=".096"/><circle fill="#FFF" cx="15.81" cy="416.846" r=".191"/><circle fill="#FFF" cx="8.064" cy="482.031" r=".16"/><circle fill="#FFF" cx="11.921" cy="473.361" r=".032"/><circle fill="#FFF" cx="19.667" cy="451.622" r=".096"/><circle fill="#FFF" cx="23.556" cy="447.255" r=".032"/><circle fill="#FFF" cx="108.694" cy="501.602" r=".191"/><circle fill="#FFF" cx="131.931" cy="499.435" r=".063"/><circle fill="#FFF" cx="89.346" cy="490.733" r=".223"/><circle fill="#FFF" cx="93.234" cy="486.397" r=".063"/><circle fill="#FFF" cx="27.413" cy="464.659" r=".191"/><circle fill="#FFF" cx="31.27" cy="460.292" r=".063"/><circle fill="#FFF" cx="35.158" cy="497.267" r=".096"/><circle fill="#FFF" cx="39.015" cy="495.099" r=".032"/><circle fill="#FFF" cx="42.904" cy="477.696" r=".064"/><circle fill="#FFF" cx="46.761" cy="468.994" r=".032"/><path fill="#FFF" d="M244.194 292.948z"/><circle fill="#FFF" cx="491.959" cy="351.63" r=".255"/><circle fill="#FFF" cx="511.307" cy="349.463" r=".064"/><circle fill="#FFF" cx="530.655" cy="334.226" r=".159"/><circle fill="#FFF" cx="550.003" cy="332.059" r=".032"/><circle fill="#FFF" cx="515.164" cy="377.704" r=".127"/><circle fill="#FFF" cx="522.909" cy="375.536" r=".032"/><circle fill="#FFF" cx="538.4" cy="362.499" r=".064"/><circle fill="#FFF" cx="546.146" cy="358.133" r=".032"/><circle fill="#FFF" cx="429.994" cy="369.002" r=".127"/><circle fill="#FFF" cx="453.23" cy="366.834" r=".032"/><circle fill="#FFF" cx="472.579" cy="355.965" r=".064"/><circle fill="#FFF" cx="484.213" cy="353.798" r=".032"/><circle fill="#FFF" cx="457.119" cy="384.238" r=".064"/><circle fill="#FFF" cx="468.722" cy="382.039" r=".032"/><circle fill="#FFF" cx="476.468" cy="373.369" r=".032"/><path fill="#FFF" d="M480.324 371.169z"/><linearGradient id="b" gradientUnits="userSpaceOnUse" x1="134.419" y1="730.545" x2="246.845" y2="618.12" gradientTransform="translate(.34 214.813) scale(.3187)"><stop offset="0" stop-color="#262748"/><stop offset="1" stop-color="#353f5f"/></linearGradient><path fill="url(#b)" d="M61.104 404.415c13.993 0 25.34 11.348 25.34 25.341s-11.347 25.341-25.34 25.341-25.341-11.348-25.341-25.341 11.348-25.341 25.341-25.341z"/><linearGradient id="c" gradientUnits="userSpaceOnUse" x1="238.722" y1="647.242" x2="270.542" y2="615.422" gradientTransform="translate(.34 214.813) scale(.3187)"><stop offset="0" stop-color="#3b496a"/><stop offset="1" stop-color="#516e92"/></linearGradient><circle fill="url(#c)" cx="81.504" cy="416.05" r="7.172"/><linearGradient id="d" gradientUnits="userSpaceOnUse" x1="1646.833" y1="364.431" x2="1805.831" y2="364.431" gradientTransform="translate(.34 214.813) scale(.3187)"><stop offset="0" stop-color="#262748"/><stop offset="1" stop-color="#353f5f"/></linearGradient><circle fill="url(#d)" cx="550.608" cy="330.975" r="25.341"/><linearGradient id="e" gradientUnits="userSpaceOnUse" x1="1603.222" y1="370.107" x2="1849.046" y2="370.107" gradientTransform="translate(.34 214.813) scale(.3187)"><stop offset="0" stop-color="#3b496a"/><stop offset="1" stop-color="#516e92"/></linearGradient><path fill="url(#e)" d="M516.088 322.018c-1.115 4.176 13.547 11.73 32.768 16.862 19.221 5.164 35.7 5.961 36.815 1.785.574-2.136-2.964-5.132-9.116-8.256 8.639 3.984 13.834 7.937 13.101 10.646-1.243 4.686-20.018 4.686-41.628-1.084-21.611-5.769-37.836-15.204-36.593-19.858.733-2.709 7.203-3.538 16.671-2.646-6.886-.382-11.444.448-12.018 2.551z"/></svg>