<?xml version="1.0" encoding="utf-8"?>
<!-- Generator: Adobe Illustrator 22.1.0, SVG Export Plug-In . SVG Version: 6.00 Build 0)  -->
<svg version="1.1" id="图层_1" xmlns="http://www.w3.org/2000/svg" xmlns:xlink="http://www.w3.org/1999/xlink" x="0px" y="0px"
	 viewBox="0 0 1920 827" style="enable-background:new 0 0 1920 827;" xml:space="preserve">
<style type="text/css">
	.st0{fill-rule:evenodd;clip-rule:evenodd;fill:#22294A;}
	.st1{opacity:0.3;fill:#FFFFFF;}
	.st2{opacity:0.3;}
	.st3{fill-rule:evenodd;clip-rule:evenodd;fill:#FFFFFF;}
	.st4{fill:none;stroke:#FFFFFF;stroke-linecap:round;stroke-linejoin:round;}
	.st5{fill:none;stroke:#FFFFFF;stroke-linecap:round;stroke-linejoin:round;stroke-dasharray:5.0027,5.0027;}
	.st6{fill:none;stroke:#FFFFFF;stroke-linecap:round;stroke-linejoin:round;stroke-dasharray:4.7778,4.7778;}
	.st7{fill:none;stroke:#FFFFFF;stroke-linecap:round;stroke-linejoin:round;stroke-dasharray:4.7273,4.7273;}
</style>
<g>
	<g>
		<rect x="0" class="st0" width="1920" height="827"/>
	</g>
</g>
<g>
	<path class="st1" d="M170,568.2l-117,97c-15.6,12.9-34.2,19.6-53,20.3v126.4c13.9-2.8,27.3-9,39-18.6l120.1-99.6
		c37.6-31.2,42.8-87,11.6-124.6C170.5,568.8,170.2,568.5,170,568.2z"/>
	<path class="st1" d="M46.1,557.4c37.3-31,92.6-26.1,123.9,10.8l3.1-2.6c37.6-31.2,42.8-87,11.6-124.6
		c-31.2-37.6-87-42.8-124.6-11.6L0,479.3v116.4L46.1,557.4z"/>
	<path class="st1" d="M46.1,557.4L0,595.6v89.9c18.8-0.7,37.4-7.4,53-20.3l117-97C138.7,531.4,83.4,526.4,46.1,557.4z"/>
	<path class="st1" d="M46.1,557.4L0,595.6v89.9c18.8-0.7,37.4-7.4,53-20.3l117-97C138.7,531.4,83.4,526.4,46.1,557.4z"/>
</g>
<g>
	<path class="st1" d="M1886.9,271.2c-37.3,31-92.6,26.1-123.9-10.8l-3.1,2.6c-37.6,31.2-42.8,87-11.6,124.6
		c31.2,37.6,87,42.8,124.6,11.6l47.1-39.1V243.8L1886.9,271.2z"/>
	<path class="st1" d="M1920,144.6V20.4c-9.2,3.4-18,8.3-26,15L1773.9,135c-37.6,31.2-42.8,87-11.6,124.6c0.2,0.3,0.5,0.5,0.7,0.8
		l117-97C1892,153.5,1905.7,147.3,1920,144.6z"/>
	<path class="st1" d="M1886.9,271.2l33.1-27.5v-99.2c-14.3,2.7-28,8.9-40,18.8l-117,97C1794.3,297.3,1849.6,302.2,1886.9,271.2z"/>
	<path class="st1" d="M1886.9,271.2l33.1-27.5v-99.2c-14.3,2.7-28,8.9-40,18.8l-117,97C1794.3,297.3,1849.6,302.2,1886.9,271.2z"/>
</g>
<g class="st2">
	<g>
		<path class="st3" d="M1518.6,404.5v-9c0-0.3-0.2-0.5-0.4-0.6l0,0l-30-17.2l0,0c-0.1-0.1-0.2-0.1-0.4-0.1c-0.1,0-0.3,0-0.4,0.1l0,0
			l-30.7,17.2l0,0c-0.2,0.1-0.4,0.4-0.4,0.6v36c0,0.3,0.2,0.5,0.4,0.6l0,0l30.7,17.2l0,0c0.1,0.1,0.2,0.1,0.4,0.1
			c0.1,0,0.3,0,0.4-0.1l0,0l30-17.2l0,0c0.2-0.1,0.4-0.4,0.4-0.6v-9.7c0-0.3-0.2-0.5-0.4-0.6l0,0L1504,413l14.2-7.8l0,0
			C1518.5,405,1518.6,404.8,1518.6,404.5z M1487.1,437.8l-20.9-10.8l14.5-8.3l6.4,3.5V437.8z M1465.4,425.7v-15.4l13.8,7.6
			L1465.4,425.7z M1487.1,420.5l-22.1-12.1l0,0c-0.1-0.1-0.2-0.1-0.4-0.1c-0.4,0-0.7,0.3-0.7,0.8v18c0,0.3,0.2,0.5,0.4,0.7l0,0
			l22.8,11.8v8l-29.2-16.4v-34.3l6.2,3.5l1.5,0.9l21.5,12.1V420.5z M1487.9,411.9l-20.7-11.6l-1.5-0.9l-7-3.9l29.2-16.4l28.5,16.4
			l-6.3,3.6l-1.5,0.9L1487.9,411.9z M1516.4,421.8l-19.5,11.4v-16.2l5.6-3.1L1516.4,421.8z M1517.1,403.2c0,0.9-0.8,1.3-0.8,1.3
			l-13.8,7.6l0,0l0,0l-6.7,3.7l0,0c-0.2,0.1-0.4,0.4-0.4,0.6v18c0,0.4,0.3,0.8,0.7,0.8c0.1,0,0.3,0,0.4-0.1l0,0l13.1-7.7l1.5-0.9
			l6.1-3.6v7.1c0,0.8-0.7,1.3-0.7,1.3l-27.8,16v-34.3l21.4-12.3l1.5-0.9l5.6-3.2V403.2z M477.7,394.9L477.7,394.9l-30-17.3l0,0
			c-0.1-0.1-0.2-0.1-0.4-0.1c-0.1,0-0.3,0-0.4,0.1l0,0l-30.7,17.2l0,0c-0.2,0.1-0.4,0.4-0.4,0.6v36c0,0.3,0.2,0.5,0.4,0.6l0,0
			l30.7,17.2l0,0c0.1,0.1,0.2,0.1,0.4,0.1c0.1,0,0.3,0,0.4-0.1l0,0l30-17.2l0,0c0.2-0.1,0.4-0.4,0.4-0.6v-9.7c0-0.3-0.2-0.5-0.4-0.6
			l0,0l-14.2-8.1l14.2-7.8l0,0c0.2-0.1,0.4-0.4,0.4-0.6v-9C478.1,395.2,478,395,477.7,394.9z M446.6,437.8L425.7,427l14.5-8.3
			l6.4,3.5V437.8z M424.9,425.7v-15.4l13.8,7.6L424.9,425.7z M446.6,420.5l-22.1-12.1l0,0c-0.1-0.1-0.2-0.1-0.4-0.1
			c-0.4,0-0.7,0.3-0.7,0.8v18c0,0.3,0.2,0.5,0.4,0.7l0,0l22.8,11.8v8l-29.2-16.4v-34.3l6.2,3.5l1.5,0.9l21.5,12.1V420.5z
			 M447.4,411.9l-20.7-11.6l-1.5-0.9l-7-3.9l29.2-16.4l28.5,16.4l-6.3,3.6L468,400L447.4,411.9z M475.9,421.8l-19.5,11.4v-16.2
			l5.6-3.1L475.9,421.8z M476.6,403.2c0,0.9-0.8,1.3-0.8,1.3l-13.8,7.6l0,0l0,0l-6.7,3.7l0,0c-0.2,0.1-0.4,0.4-0.4,0.6v18
			c0,0.4,0.3,0.8,0.7,0.8c0.1,0,0.3,0,0.4-0.1l0,0l13.1-7.7l1.5-0.9l6.1-3.6v7.1c0,0.8-0.7,1.3-0.7,1.3l-27.8,16v-34.3l21.4-12.3
			l1.5-0.9l5.6-3.2V403.2z"/>
	</g>
</g>
<g class="st2">
	<g>
		<g>
			<line class="st4" x1="497" y1="412.5" x2="499.5" y2="412.5"/>
			<line class="st5" x1="504.5" y1="412.5" x2="1432.5" y2="412.5"/>
			<line class="st4" x1="1435" y1="412.5" x2="1437.5" y2="412.5"/>
		</g>
	</g>
</g>
<g class="st2">
	<g>
		<g>
			<polyline class="st4" points="1485.3,357.7 1487.5,356.5 1489.7,357.7 			"/>
			<line class="st6" x1="1493.8" y1="360.1" x2="1533.3" y2="382.6"/>
			<polyline class="st4" points="1535.3,383.8 1537.5,385 1537.5,387.5 			"/>
			<line class="st7" x1="1537.5" y1="392.2" x2="1537.5" y2="437.1"/>
			<polyline class="st4" points="1537.5,439.5 1537.5,442 1535.3,443.2 			"/>
			<line class="st6" x1="1531.2" y1="445.6" x2="1491.8" y2="468.1"/>
			<polyline class="st4" points="1489.7,469.3 1487.5,470.5 1485.3,469.3 			"/>
			<line class="st6" x1="1481.2" y1="466.9" x2="1441.8" y2="444.4"/>
			<polyline class="st4" points="1439.7,443.2 1437.5,442 1437.5,439.5 			"/>
			<line class="st7" x1="1437.5" y1="434.8" x2="1437.5" y2="389.9"/>
			<polyline class="st4" points="1437.5,387.5 1437.5,385 1439.7,383.8 			"/>
			<line class="st6" x1="1443.8" y1="381.4" x2="1483.3" y2="358.9"/>
		</g>
	</g>
</g>
<g class="st2">
	<g>
		<g>
			<polyline class="st4" points="444.8,357.7 447,356.5 449.2,357.7 			"/>
			<line class="st6" x1="453.3" y1="360.1" x2="492.8" y2="382.6"/>
			<polyline class="st4" points="494.8,383.8 497,385 497,387.5 			"/>
			<line class="st7" x1="497" y1="392.2" x2="497" y2="437.1"/>
			<polyline class="st4" points="497,439.5 497,442 494.8,443.2 			"/>
			<line class="st6" x1="490.7" y1="445.6" x2="451.3" y2="468.1"/>
			<polyline class="st4" points="449.2,469.3 447,470.5 444.8,469.3 			"/>
			<line class="st6" x1="440.7" y1="466.9" x2="401.3" y2="444.4"/>
			<polyline class="st4" points="399.2,443.2 397,442 397,439.5 			"/>
			<line class="st7" x1="397" y1="434.8" x2="397" y2="389.9"/>
			<polyline class="st4" points="397,387.5 397,385 399.2,383.8 			"/>
			<line class="st6" x1="403.3" y1="381.4" x2="442.8" y2="358.9"/>
		</g>
	</g>
</g>
</svg>
