<?xml version="1.0" encoding="utf-8"?>
<!-- Generator: Adobe Illustrator 22.1.0, SVG Export Plug-In . SVG Version: 6.00 Build 0)  -->
<svg version="1.1" id="图层_1" xmlns="http://www.w3.org/2000/svg" xmlns:xlink="http://www.w3.org/1999/xlink" x="0px" y="0px"
	 viewBox="0 0 25 25" style="enable-background:new 0 0 25 25;" xml:space="preserve">
<style type="text/css">
	.st0{fill:#FFFFFF;}
</style>
<path class="st0" d="M22.4,0H2.6C1.2,0,0,1.2,0,2.6v19.7C0,23.8,1.2,25,2.6,25h19.7c1.5,0,2.6-1.2,2.6-2.6V2.6C25,1.2,23.8,0,22.4,0
	z M21.3,5.8l-1.4,1.3c-0.1,0.1-0.2,0.2-0.2,0.4v9.8c0,0.2,0,0.3,0.2,0.4l1.4,1.3v0.3h-6.9V19l1.4-1.4c0.1-0.1,0.1-0.2,0.1-0.4v-8
	l-3.9,10h-0.5l-4.6-10v6.7c0,0.3,0.1,0.6,0.3,0.8L9,19.1v0.3H3.7v-0.3l1.8-2.2c0.2-0.2,0.3-0.5,0.2-0.8V8.4c0-0.2-0.1-0.4-0.2-0.6
	L4,5.8V5.6h5l3.9,8.6l3.4-8.6h4.8v0.2H21.3z"/>
</svg>
