<?xml version="1.0" encoding="utf-8"?>
<!-- Generator: Adobe Illustrator 22.1.0, SVG Export Plug-In . SVG Version: 6.00 Build 0)  -->
<svg version="1.1" id="图层_1" xmlns="http://www.w3.org/2000/svg" xmlns:xlink="http://www.w3.org/1999/xlink" x="0px" y="0px"
	 viewBox="0 0 19 22" style="enable-background:new 0 0 19 22;" xml:space="preserve">
<style type="text/css">
	.st0{opacity:0.33;}
	.st1{filter:url(#Adobe_OpacityMaskFilter);}
	.st2{mask:url(#SVGID_1_);}
	.st3{fill:#FFFFFF;}
	.st4{fill:none;}
</style>
<g class="st0">
	<defs>
		<filter id="Adobe_OpacityMaskFilter" filterUnits="userSpaceOnUse" x="0.2" y="0" width="18.8" height="22">
			<feFlood  style="flood-color:white;flood-opacity:1" result="back"/>
			<feBlend  in="SourceGraphic" in2="back" mode="normal"/>
		</filter>
	</defs>
	<mask maskUnits="userSpaceOnUse" x="0.2" y="0" width="18.8" height="22" id="SVGID_1_">
		<g class="st1">
			<image style="overflow:visible;" width="23" height="26" xlink:href="19654265.jpg"  transform="matrix(1 0 0 1 -1.9002 -2)">
			</image>
		</g>
	</mask>
	<g class="st2">
		<g>
			<g>
				<path class="st3" d="M18.2,4.7l-7.6-4.4c-0.6-0.3-1.6-0.3-2.2,0L1.1,4.7C0.5,5,0.2,5.6,0.2,6.6v8.9c0,0.6,0.3,1.3,0.9,1.9
					l7.3,4.4c0.6,0.3,1.6,0.3,2.2,0l7.3-4.4c0.6-0.3,0.9-0.9,0.9-1.9V6.6C19.2,5.6,18.9,5,18.2,4.7z"/>
			</g>
		</g>
	</g>
</g>
<path class="st4" d="M9.6,11"/>
<path class="st4" d="M9.6,11"/>
<path class="st4" d="M9.6,11"/>
<g>
	<g>
		<path class="st3" d="M11,9.9C11,9.4,10.7,9,10.2,9H9v1.6h1.2C10.7,10.7,11,10.3,11,9.9z M10.6,11.4H9V13h1.6
			c0.4,0,0.8-0.4,0.8-0.8C11.4,11.8,11,11.4,10.6,11.4z M9.6,4.2c-3.8,0-6.8,3.1-6.8,6.8s3.1,6.8,6.8,6.8s6.8-3.1,6.8-6.8
			S13.4,4.2,9.6,4.2z M11.2,14.1h-0.7v1.4c0,0.1-0.1,0.1-0.1,0.1H9.9c-0.1,0-0.1-0.1-0.1-0.1v-1.4H9v1.4c0,0.1-0.1,0.1-0.1,0.1H8.4
			c-0.1,0-0.1-0.1-0.1-0.1v-1.4H6.7c-0.1,0-0.2-0.1-0.1-0.2l0.1-0.5c0-0.1,0.1-0.1,0.1-0.1c0.5,0,0.7-0.4,0.7-0.8v-3
			c0-0.5-0.3-0.8-0.8-0.9c-0.1,0-0.1-0.1-0.1-0.1V8c0-0.1,0.1-0.1,0.1-0.1h1.6V6.5c0-0.1,0.1-0.1,0.1-0.1h0.5C8.9,6.3,9,6.4,9,6.5
			v1.4h0.8V6.5c0-0.1,0.1-0.1,0.1-0.1h0.5c0.1,0,0.1,0.1,0.1,0.1v1.4h0.3c0.9,0,1.7,0.8,1.7,1.8c0,0.4-0.1,0.8-0.4,1.1
			c0.4,0.3,0.7,0.9,0.7,1.5C12.9,13.3,12.2,14.1,11.2,14.1z"/>
	</g>
</g>
</svg>
