<svg id="图层_1" xmlns="http://www.w3.org/2000/svg" xmlns:xlink="http://www.w3.org/1999/xlink" viewBox="0 0 19 22" enable-background="new 0 0 19 22"><style>.st3{fill:#fff}.st4{fill:none}</style><g opacity=".33"><defs><filter id="Adobe_OpacityMaskFilter" filterUnits="userSpaceOnUse" x=".2" y="0" width="18.8" height="22"><feFlood result="back" flood-color="#fff" flood-opacity="1"/><feBlend in="SourceGraphic" in2="back"/></filter></defs><mask maskUnits="userSpaceOnUse" x=".2" y="0" width="18.8" height="22" id="SVGID_1_"><image width="23" height="26" xlink:href="19654265.jpg" transform="translate(-1.9 -2)" overflow="visible" filter="url(#Adobe_OpacityMaskFilter)"/></mask><g mask="url(#SVGID_1_)"><path class="st3" d="M18.2 4.7L10.6.3C10 0 9 0 8.4.3L1.1 4.7c-.6.3-.9.9-.9 1.9v8.9c0 .6.3 1.3.9 1.9l7.3 4.4c.6.3 1.6.3 2.2 0l7.3-4.4c.6-.3.9-.9.9-1.9V6.6c.4-1 .1-1.6-.6-1.9z"/></g></g><path class="st3" d="M11 9.9c0-.5-.3-.9-.8-.9H9v1.6h1.2c.5.1.8-.3.8-.7zm-.4 1.5H9V13h1.6c.4 0 .8-.4.8-.8s-.4-.8-.8-.8zm-1-7.2c-3.8 0-6.8 3.1-6.8 6.8s3.1 6.8 6.8 6.8 6.8-3.1 6.8-6.8-3-6.8-6.8-6.8zm1.6 9.9h-.7v1.4c0 .1-.1.1-.1.1h-.5c-.1 0-.1-.1-.1-.1v-1.4H9v1.4c0 .1-.1.1-.1.1h-.5c-.1 0-.1-.1-.1-.1v-1.4H6.7c-.1 0-.2-.1-.1-.2l.1-.5c0-.1.1-.1.1-.1.5 0 .7-.4.7-.8v-3c0-.5-.3-.8-.8-.9-.1 0-.1-.1-.1-.1V8c0-.1.1-.1.1-.1h1.6V6.5c0-.1.1-.1.1-.1h.5c0-.1.1 0 .1.1v1.4h.8V6.5c0-.1.1-.1.1-.1h.5c.1 0 .1.1.1.1v1.4h.3c.9 0 1.7.8 1.7 1.8 0 .4-.1.8-.4 1.1.4.3.7.9.7 1.5.1 1-.6 1.8-1.6 1.8z"/></svg>