<?xml version="1.0" encoding="utf-8"?>
<!-- Generator: Adobe Illustrator 22.1.0, SVG Export Plug-In . SVG Version: 6.00 Build 0)  -->
<svg version="1.1" id="图层_1" xmlns="http://www.w3.org/2000/svg" xmlns:xlink="http://www.w3.org/1999/xlink" x="0px" y="0px"
	 viewBox="0 0 20 20" style="enable-background:new 0 0 20 20;" xml:space="preserve">
<style type="text/css">
	.st0{fill:#FFFFFF;}
</style>
<path class="st0" d="M10,0C4.5,0,0,4.5,0,10c0,5.5,4.5,10,10,10c5.5,0,10-4.5,10-10C20,4.5,15.5,0,10,0L10,0z M18.7,11
	C18.7,11,18.7,11,18.7,11c0,0.3-0.1,0.6-0.2,0.9v0h-3c0.1-1.2,0.1-2.5,0-3.8h3v0c0.1,0.3,0.1,0.6,0.1,0.9c0,0,0,0,0,0
	C18.8,9.7,18.8,10.3,18.7,11L18.7,11z M13.4,18.1c0.9-1.2,1.7-2.9,2-5h2.8c0,0,0,0,0,0C17.3,15.4,15.6,17.2,13.4,18.1L13.4,18.1z
	 M18.2,6.9C18.2,6.9,18.2,6.9,18.2,6.9l-2.8,0c-0.4-2-1.1-3.8-2-5C15.6,2.8,17.3,4.6,18.2,6.9L18.2,6.9z M14.3,8.1
	c0.1,1.2,0.1,2.5,0,3.8h-3.6V8.1H14.3z M10.6,6.9V1.4c1.6,0.5,2.9,2.7,3.5,5.5H10.6L10.6,6.9z M10.6,13.1h3.5
	c-0.6,2.9-1.9,5.1-3.5,5.5V13.1z M1.8,13.1C1.8,13.1,1.8,13.1,1.8,13.1l2.8,0c0.4,2,1.1,3.8,2,5C4.5,17.2,2.7,15.4,1.8,13.1
	L1.8,13.1z M6.7,1.9c-0.9,1.2-1.7,2.9-2,5H1.8c0,0,0,0,0,0C2.7,4.6,4.5,2.8,6.7,1.9L6.7,1.9z M5.7,11.9c-0.1-1.2-0.1-2.5,0-3.8h3.6
	v3.8H5.7z M9.4,13.1v5.5c-1.6-0.5-2.9-2.7-3.5-5.5L9.4,13.1L9.4,13.1z M9.4,6.9H5.9C6.5,4,7.8,1.8,9.4,1.4V6.9z M1.3,9.1
	C1.3,9.1,1.3,9.1,1.3,9.1c0-0.3,0.1-0.6,0.2-0.9v0h3c-0.1,1.2-0.1,2.5,0,3.8h-3v0c-0.1-0.3-0.1-0.6-0.2-0.9c0,0,0,0,0,0
	C1.2,10.3,1.2,9.7,1.3,9.1L1.3,9.1z M1.3,9.1"/>
</svg>
