<svg xmlns="http://www.w3.org/2000/svg" viewBox="0 0 20 20"><path d="M10 0C4.5 0 0 4.5 0 10s4.5 10 10 10 10-4.5 10-10S15.5 0 10 0zm8.7 11c0 .3-.1.6-.2.9h-3c.1-1.2.1-2.5 0-3.8h3c.1.3.1.6.1.9.2.7.2 1.3.1 2zm-5.3 7.1c.9-1.2 1.7-2.9 2-5h2.8c-.9 2.3-2.6 4.1-4.8 5zm4.8-11.2h-2.8c-.4-2-1.1-3.8-2-5 2.2.9 3.9 2.7 4.8 5zm-3.9 1.2c.1 1.2.1 2.5 0 3.8h-3.6V8.1h3.6zm-3.7-1.2V1.4c1.6.5 2.9 2.7 3.5 5.5h-3.5zm0 6.2h3.5c-.6 2.9-1.9 5.1-3.5 5.5v-5.5zm-8.8 0h2.8c.4 2 1.1 3.8 2 5-2.1-.9-3.9-2.7-4.8-5zM6.7 1.9c-.9 1.2-1.7 2.9-2 5H1.8c.9-2.3 2.7-4.1 4.9-5zm-1 10c-.1-1.2-.1-2.5 0-3.8h3.6v3.8H5.7zm3.7 1.2v5.5c-1.6-.5-2.9-2.7-3.5-5.5h3.5zm0-6.2H5.9C6.5 4 7.8 1.8 9.4 1.4v5.5zM1.3 9.1c0-.3.1-.6.2-.9h3c-.1 1.2-.1 2.5 0 3.8h-3c-.1-.3-.1-.6-.2-.9-.1-.8-.1-1.4 0-2zm0 0" fill="#fff"/></svg>