<?xml version="1.0" encoding="utf-8"?>
<!-- Generator: Adobe Illustrator 22.1.0, SVG Export Plug-In . SVG Version: 6.00 Build 0)  -->
<svg version="1.1" id="图层_1" xmlns="http://www.w3.org/2000/svg" xmlns:xlink="http://www.w3.org/1999/xlink" x="0px" y="0px"
	 viewBox="0 0 23 23" style="enable-background:new 0 0 23 23;" xml:space="preserve">
<style type="text/css">
	.st0{fill:#FFFFFF;}
</style>
<g>
	<g>
		<path class="st0" d="M20.6,0H2.4C1.1,0,0,1.1,0,2.4v18.1C0,21.9,1.1,23,2.4,23h18.1c1.3,0,2.4-1.1,2.4-2.4V2.4
			C23,1.1,21.9,0,20.6,0z M18.8,6.4l-7.3,6.7L4.2,6.4H18.8z M3.7,7.4l4.1,3.7l-4.1,3.6C3.7,14.7,3.7,7.4,3.7,7.4z M4.2,15.6l4.3-4
			l3,2.7l2.9-2.7l4.4,4H4.2z M19.3,14.7l-4.2-3.6l4.2-3.7V14.7z"/>
	</g>
</g>
</svg>
