<?xml version="1.0" encoding="utf-8"?>
<!-- Generator: Adobe Illustrator 22.1.0, SVG Export Plug-In . SVG Version: 6.00 Build 0)  -->
<svg version="1.1" id="图层_1" xmlns="http://www.w3.org/2000/svg" xmlns:xlink="http://www.w3.org/1999/xlink" x="0px" y="0px"
	 viewBox="0 0 19 22" style="enable-background:new 0 0 19 22;" xml:space="preserve">
<style type="text/css">
	.st0{opacity:0.33;}
	.st1{filter:url(#Adobe_OpacityMaskFilter);}
	.st2{mask:url(#SVGID_1_);}
	.st3{fill:#FFFFFF;}
	.st4{fill:none;}
</style>
<g class="st0">
	<defs>
		<filter id="Adobe_OpacityMaskFilter" filterUnits="userSpaceOnUse" x="0.1" y="0" width="18.8" height="22">
			<feFlood  style="flood-color:white;flood-opacity:1" result="back"/>
			<feBlend  in="SourceGraphic" in2="back" mode="normal"/>
		</filter>
	</defs>
	<mask maskUnits="userSpaceOnUse" x="0.1" y="0" width="18.8" height="22" id="SVGID_1_">
		<g class="st1">
			<image style="overflow:visible;" width="23" height="28" xlink:href="C9F451AE.jpg"  transform="matrix(1 0 0 1 -2 -3)">
			</image>
		</g>
	</mask>
	<g class="st2">
		<g>
			<g>
				<path class="st3" d="M18.1,4.7l-7.6-4.4c-0.6-0.3-1.6-0.3-2.2,0L1,4.7c-0.6,0.3-1,1-1,1.9v8.9c0,0.6,0.3,1.3,1,1.9l7.3,4.4
					c0.6,0.3,1.6,0.3,2.2,0l7.3-4.4c0.6-0.3,1-1,1-1.9V6.6C19.1,5.6,18.8,5,18.1,4.7z"/>
			</g>
		</g>
	</g>
</g>
<path class="st4" d="M9.5,11"/>
<path class="st4" d="M9.5,11"/>
<path class="st4" d="M9.5,11"/>
<g>
	<g>
		<path class="st3" d="M9.5,4.1c-3.8,0-6.8,3.1-6.8,6.8s3.1,6.8,6.8,6.8c3.8,0,6.8-3.1,6.8-6.8S13.3,4.1,9.5,4.1z M9.7,5.5l2.1,3
			l-0.6,1.9L9.7,7.7V5.5z M9.3,5.5v2.2l-1.6,2.7L7.1,8.5L9.3,5.5z M6.9,9l0.6,1.9l-1.7,3L6.9,9z M5.9,14.4l1.8-3.1l1.7,5.2L5.9,14.4
			z M7.9,10.9l1.6-2.8l1.6,2.8l-1.6,4.9L7.9,10.9z M9.6,16.5l1.7-5.2l1.8,3.1L9.6,16.5z M11.5,10.8L12,9l1.1,4.8L11.5,10.8z"/>
	</g>
</g>
</svg>
