<svg id="图层_1" xmlns="http://www.w3.org/2000/svg" xmlns:xlink="http://www.w3.org/1999/xlink" viewBox="0 0 19 22" enable-background="new 0 0 19 22"><style>.st3{fill:#fff}.st4{fill:none}</style><g opacity=".33"><defs><filter id="Adobe_OpacityMaskFilter" filterUnits="userSpaceOnUse" x=".1" y="0" width="18.8" height="22"><feFlood result="back" flood-color="#fff" flood-opacity="1"/><feBlend in="SourceGraphic" in2="back"/></filter></defs><mask maskUnits="userSpaceOnUse" x=".1" y="0" width="18.8" height="22" id="SVGID_1_"><image width="23" height="28" xlink:href="C9F451AE.jpg" transform="translate(-2 -3)" overflow="visible" filter="url(#Adobe_OpacityMaskFilter)"/></mask><g mask="url(#SVGID_1_)"><path class="st3" d="M18.1 4.7L10.5.3C9.9 0 8.9 0 8.3.3L1 4.7c-.6.3-1 1-1 1.9v8.9c0 .6.3 1.3 1 1.9l7.3 4.4c.6.3 1.6.3 2.2 0l7.3-4.4c.6-.3 1-1 1-1.9V6.6c.3-1 0-1.6-.7-1.9z"/></g></g><path class="st3" d="M9.5 4.1c-3.8 0-6.8 3.1-6.8 6.8s3.1 6.8 6.8 6.8c3.8 0 6.8-3.1 6.8-6.8s-3-6.8-6.8-6.8zm.2 1.4l2.1 3-.6 1.9-1.5-2.7V5.5zm-.4 0v2.2l-1.6 2.7-.6-1.9 2.2-3zM6.9 9l.6 1.9-1.7 3L6.9 9zm-1 5.4l1.8-3.1 1.7 5.2-3.5-2.1zm2-3.5l1.6-2.8 1.6 2.8-1.6 4.9-1.6-4.9zm1.7 5.6l1.7-5.2 1.8 3.1-3.5 2.1zm1.9-5.7L12 9l1.1 4.8-1.6-3z"/></svg>