<?xml version="1.0" encoding="utf-8"?>
<!-- Generator: Adobe Illustrator 22.1.0, SVG Export Plug-In . SVG Version: 6.00 Build 0)  -->
<svg version="1.1" id="图层_1" xmlns="http://www.w3.org/2000/svg" xmlns:xlink="http://www.w3.org/1999/xlink" x="0px" y="0px"
	 viewBox="0 0 19 22" style="enable-background:new 0 0 19 22;" xml:space="preserve">
<style type="text/css">
	.st0{opacity:0.33;}
	.st1{filter:url(#Adobe_OpacityMaskFilter);}
	.st2{mask:url(#SVGID_1_);}
	.st3{fill:#FFFFFF;}
	.st4{fill:none;}
</style>
<g class="st0">
	<defs>
		<filter id="Adobe_OpacityMaskFilter" filterUnits="userSpaceOnUse" x="0.1" y="0" width="18.8" height="22">
			<feFlood  style="flood-color:white;flood-opacity:1" result="back"/>
			<feBlend  in="SourceGraphic" in2="back" mode="normal"/>
		</filter>
	</defs>
	<mask maskUnits="userSpaceOnUse" x="0.1" y="0" width="18.8" height="22" id="SVGID_1_">
		<g class="st1">
			<image style="overflow:visible;" width="23" height="26" xlink:href="13432BC6.jpg"  transform="matrix(1 0 0 1 -2 -2)">
			</image>
		</g>
	</mask>
	<g class="st2">
		<g>
			<g>
				<path class="st3" d="M18.1,4.7l-7.6-4.4C9.9-0.1,9-0.1,8.3,0.2L1,4.7C0.4,5,0.1,5.6,0.1,6.6v8.9c0,0.6,0.3,1.3,0.9,1.9l7.3,4.4
					c0.6,0.3,1.6,0.3,2.2,0l7.3-4.4c0.6-0.3,0.9-0.9,0.9-1.9V6.6C19.1,5.6,18.8,5,18.1,4.7z"/>
			</g>
		</g>
	</g>
</g>
<path class="st4" d="M9.5,11"/>
<path class="st4" d="M9.5,11"/>
<path class="st4" d="M9.5,11"/>
<g>
	<g>
		<path class="st3" d="M9.5,4.2c-3.8,0-6.8,3.1-6.8,6.8s3.1,6.8,6.8,6.8s6.8-3.1,6.8-6.8S13.3,4.2,9.5,4.2z M9.4,16.9l-3.6-5.2
			l3.6,2.2V16.9z M9.4,13.4l-3.7-2.2L9.4,5V13.4z M9.6,16.9v-3l3.7-2.2L9.6,16.9z M9.6,13.4V5l3.7,6.2L9.6,13.4z"/>
	</g>
</g>
</svg>
