<svg id="图层_1" xmlns="http://www.w3.org/2000/svg" xmlns:xlink="http://www.w3.org/1999/xlink" viewBox="0 0 19 22" enable-background="new 0 0 19 22"><style>.st3{fill:#fff}.st4{fill:none}</style><g opacity=".33"><defs><filter id="Adobe_OpacityMaskFilter" filterUnits="userSpaceOnUse" x=".1" y="0" width="18.8" height="22"><feFlood result="back" flood-color="#fff" flood-opacity="1"/><feBlend in="SourceGraphic" in2="back"/></filter></defs><mask maskUnits="userSpaceOnUse" x=".1" y="0" width="18.8" height="22" id="SVGID_1_"><image width="23" height="26" xlink:href="13432BC6.jpg" transform="translate(-2 -2)" overflow="visible" filter="url(#Adobe_OpacityMaskFilter)"/></mask><g mask="url(#SVGID_1_)"><path class="st3" d="M18.1 4.7L10.5.3C9.9-.1 9-.1 8.3.2L1 4.7c-.6.3-.9.9-.9 1.9v8.9c0 .6.3 1.3.9 1.9l7.3 4.4c.6.3 1.6.3 2.2 0l7.3-4.4c.6-.3.9-.9.9-1.9V6.6c.4-1 .1-1.6-.6-1.9z"/></g></g><path class="st3" d="M9.5 4.2c-3.8 0-6.8 3.1-6.8 6.8s3.1 6.8 6.8 6.8 6.8-3.1 6.8-6.8-3-6.8-6.8-6.8zm-.1 12.7l-3.6-5.2 3.6 2.2v3zm0-3.5l-3.7-2.2L9.4 5v8.4zm.2 3.5v-3l3.7-2.2-3.7 5.2zm0-3.5V5l3.7 6.2-3.7 2.2z"/></svg>