<?xml version="1.0" encoding="utf-8"?>
<!-- Generator: Adobe Illustrator 22.1.0, SVG Export Plug-In . SVG Version: 6.00 Build 0)  -->
<svg version="1.1" id="图层_1" xmlns="http://www.w3.org/2000/svg" xmlns:xlink="http://www.w3.org/1999/xlink" x="0px" y="0px"
	 viewBox="0 0 24 24" style="enable-background:new 0 0 24 24;" xml:space="preserve">
<style type="text/css">
	.st0{fill:#FFFFFF;}
</style>
<path class="st0" d="M2.4,0h19.2c0.6,0,1.2,0.3,1.7,0.7C23.7,1.2,24,1.8,24,2.4v19.2c0,0.6-0.3,1.2-0.7,1.7
	c-0.4,0.4-1.1,0.7-1.7,0.7h-6.2C15,23.9,15,23.1,15,22.8v-3.3c0-1.1-0.4-1.8-0.8-2.2c2.7-0.3,5.5-1.3,5.5-5.9c0-1.3-0.5-2.4-1.2-3.2
	C18.6,7.9,19,6.7,18.4,5c0,0-1-0.3-3.3,1.2c-0.9-0.3-2-0.4-3-0.4s-2,0.1-3,0.4C6.7,4.7,5.7,5,5.7,5C5,6.6,5.5,7.8,5.6,8.1
	c-0.8,0.9-1.3,2-1.3,3.3c0,4.6,2.8,5.6,5.5,5.9c-0.3,0.3-0.6,0.8-0.8,1.6c-0.7,0.3-2.4,0.8-3.5-1c0,0-0.6-1.2-1.8-1.2
	c0,0-1.2,0-0.1,0.7c0,0,0.8,0.4,1.4,1.8c0,0,0.7,2.3,4,1.6v2c0,0.3,0,1.1-0.4,1.2H2.4c-0.6,0-1.2-0.3-1.7-0.7
	C0.3,22.8,0,22.2,0,21.6V2.4c0-0.6,0.3-1.2,0.7-1.7C1.2,0.3,1.8,0,2.4,0L2.4,0z"/>
</svg>
