<svg xmlns="http://www.w3.org/2000/svg" viewBox="0 0 24 24"><path d="M2.4 0h19.2c.6 0 1.2.3 1.7.7.4.5.7 1.1.7 1.7v19.2c0 .6-.3 1.2-.7 1.7-.4.4-1.1.7-1.7.7h-6.2c-.4-.1-.4-.9-.4-1.2v-3.3c0-1.1-.4-1.8-.8-2.2 2.7-.3 5.5-1.3 5.5-5.9 0-1.3-.5-2.4-1.2-3.2.1-.3.5-1.5-.1-3.2 0 0-1-.3-3.3 1.2-.9-.3-2-.4-3-.4s-2 .1-3 .4C6.7 4.7 5.7 5 5.7 5c-.7 1.6-.2 2.8-.1 3.1-.8.9-1.3 2-1.3 3.3 0 4.6 2.8 5.6 5.5 5.9-.3.3-.6.8-.8 1.6-.7.3-2.4.8-3.5-1 0 0-.6-1.2-1.8-1.2 0 0-1.2 0-.1.7 0 0 .8.4 1.4 1.8 0 0 .7 2.3 4 1.6v2c0 .3 0 1.1-.4 1.2H2.4c-.6 0-1.2-.3-1.7-.7-.4-.5-.7-1.1-.7-1.7V2.4C0 1.8.3 1.2.7.7 1.2.3 1.8 0 2.4 0z" fill="#fff"/></svg>