<svg xmlns="http://www.w3.org/2000/svg" viewBox="0 0 25 25"><path d="M22.4 0H2.6C1.2 0 0 1.2 0 2.6v19.7C0 23.8 1.2 25 2.6 25h19.7c1.5 0 2.6-1.2 2.6-2.6V2.6C25 1.2 23.8 0 22.4 0zM5.7 9.3c0 .1-.1.1 0 0-.1.1-.1.1-.1.2h-.1l-.1.1s-.1 0-.1.1c0 0 0 .1-.1.1h-.1v.1c0 .1-.1.1-.2.1 0 0 0 .1-.1.1h-.1s0 .1-.1.1c0 0 0 .1-.1.1h-.1c-.1 0-.1.1-.1.2-.1 0-.1.1-.1.1l-.1.1-.1.1h-.1c-.1 0 0 .1-.1.1-.1.1-.2 0-.3 0 0 0 0-.1-.1-.1 0-.1-.2-.1-.2-.3 0-.1.1-.1.1-.1.1-.1.1-.2.2-.3l.1-.1v-.1c.3.1.4.1.4.1.1-.1.2-.2.2-.4 0-.1.1-.1.1-.2v-.1l.1-.1v-.1l.1-.1v-.1s0-.1.1-.1c0-.1 0-.1.1-.2 0 0 .1 0 .1-.1.1 0 .2-.1.2-.1v-.1l.1-.1v-.1s0-.1.1-.1c0-.1.1-.1.1-.2s.1-.1.1-.2c0 0 .1-.1.1-.2v-.1l.1-.1v-.1l.1-.1c0-.1.1-.1.1-.2.1-.1.2-.2.2-.4 0-.1.1-.1.1-.2v-.1c0-.1.1-.2.2-.3v-.2c0-.1.1-.1.1-.2v-.1c0-.1.1-.1.1-.1v-.1c0-.1.1-.1.1-.2v-.2c0-.1.1-.2.1-.3v-.1c0-.1.1-.1.1-.1 0-.1 0-.2.1-.3 0 .1.1.1.1 0 .1-.2.1-.4.2-.6v-.1h.1c.2 0 .3.1.5.1.1 0 .1 0 .2.1h.1s.1 0 .1.1h.1l.1.1c.1 0 .2.1.3.1.1 0 .3.1.4.2 0 0 .1 0 .1.1.1 0 .2 0 .2.1 0 0 .1.1.1.2s-.2.2-.3.2H9s0 .1-.1.1c0 0-.1 0-.1.1 0 0 0 .1-.1.1l-.1.1c0 .1-.1.2-.1.2 0 .1 0 .1-.1.2 0 .1-.1.1-.1.2 0 0-.1 0-.1.1s-.1.1-.1.2l-.1.1v.2H10.8l.1-.1.1-.1.1-.1s.1 0 .1-.1v-.2h.1l.1-.1v-.1s.1 0 .1-.1l.2-.2c.1 0 .3.1.3.2h.2l.2.2.1.1c.1.1.2.2.3.2 0 0 .1 0 .1.1l.1.1v.2l.1.1v.1c.1 0 .1.1.2.2s.1.3.1.4c-.1 0-.2.1-.3.1H9.4c0 .1.1.1.2.1 0 0 .1 0 .1.1.1 0 .1.1.2.1s.1.1.1.1.1 0 .1.1c.1 0 .1.1.1.2h.1c0 .1 0 .1.1.2 0 .1.1.1.1.1v.2c0 .2 0 .4-.1.5 0 .1-.1.1-.1.1v.1l-.1.1s0 .1-.1.1H10l-.1.1h-.1c-.1 0-.1.1-.2.1h-.2c-.1 0-.2 0-.2-.1-.2 0-.2-.3-.3-.5 0-.1-.1-.2-.1-.3v-.2l-.1-.1V8c-.1-.1-.1-.2-.2-.4 0-.1 0-.1-.1-.2l-.1-.1v-.1s-.1 0-.1-.1c0 0 0-.1-.1-.1 0-.1-.1-.2-.2-.2h-.4v.3s0 .1-.1.1c0 0-.1 0-.1.1v.1l-.3.3s-.1.1-.1.2l-.1.1v.1s-.1.1-.2.1v.1h-.1s0 .1-.1.1h-.1c0 .1-.1.1-.1.2l-.1.1s0 .1-.1.1h-.1c.1.1.1.2.1.2 0 .1-.1.1-.2.1v.1l-.1.1zM8 11.8c-.1 0-.2.1-.2.1s0 .1-.1.1v8.9c0 .1 0 .1-.1.1v.1c0 .1-.2.2-.2.2h-.1s-.1 0-.1.1c-.2.1-.3.1-.5.2-.1 0-.2.1-.2.1h-.1c-.1 0-.2.1-.3.1-.2 0-.2-.3-.2-.5v-.5-.2-.4-.7V15v-2.5-.3-.2-.6-.4s0-.1.1-.1h.1c.1 0 .2 0 .2.1 0 0 .1 0 .1.1h.1c.1 0 .2.1.3.1.2 0 .3.1.5.1.1 0 .1.1.2.1h.2c.1 0 .1.1.1.1.1 0 .1 0 .2.1l.1.1v.1c0-.3-.1 0-.1 0zm6.7 7.4l-.1.1h-.3s-.1 0-.1-.1c-.1 0-.1-.1-.1-.1v-.2-.2-.3H11.2c-.1 0 0 .1 0 .2v.8s0 .1-.1.1c0 0 0 .1-.1.1 0 0-.1 0-.1.1-.1 0-.1.1-.2.1s-.3.1-.4.1H10s-.1.1-.2.1-.2 0-.3-.1c0-.1-.1-.1-.1-.2v-.2-.2c0-.1 0-.2.1-.2v-.8V13.2v-.7-.3c0-.1-.2-.1-.3-.1-.1 0-.2-.1-.2-.1h-.1v-.1c-.1-.1-.1-.2-.2-.3-.1-.2-.3-.5-.4-.7v-.1s-.1 0-.1-.1c-.1-.1-.1-.2-.2-.3 0-.1-.1-.1-.1-.2 0 0 0-.1-.1-.1 0 0-.1 0-.1-.1v-.1l-.1-.1c-.1 0-.1-.1-.2-.1l-.1-.1s0-.1-.1-.1c-.1-.1-.2-.1-.2-.2s-.1-.2 0-.2c0 0 0-.1.1-.1.1-.1 0-.1.1-.1H7.5c.1.1.2.1.3.1.1 0 .2 0 .3.1 0 0 .1 0 .1.1h.1c.1 0 .1 0 .2.1.1 0 .2.1.4.1h.2c.1 0 .1.1.1.1h.1l.1.1c.1 0 .1.1.2.1s.1.1.1.1c.1 0 .2.1.3.2v.1c0 .1.1.1.1.2.1.2.1.3.1.5v.2c0 .1 0 .2-.1.3l-.1.1s0 .1-.1.1c0 0-.1.1-.1.2.1.1.2.1.3.1.1.1.3.1.4.2 0 0 .1 0 .1.1h.1l.1.1h.2s0 .1.1.1h2.6c.1 0 .2-.1.2-.2V12l.1-.1s0-.1.1-.1l.1-.1v-.1l.1-.1h.3l.1.1h.1c.1 0 .1.1.2.1s.1.1.2.1l.1.1h.1c.1 0 .2.1.2.2.1 0 .1.1.2.1l.1.1.3.3.1.1c.1.1 0 .2-.1.3l-.2.2c-.1.1-.2.1-.2.1v5.3c-.1.1-.2.2-.4.3h-.1c-.1 0-.1.1-.2.1 0 0-.1.1-.2.1 0 0-.1 0-.2.1zm5.6-8.4l-.1.1h-.1l-.1.1h-.1l-.1.1V19.2c0 .4 0 .8-.1 1 0 .1 0 .3-.1.4 0 .1-.1.2-.2.2h-.1l-.1.1h-.1l-.1.1h-.1c-.1 0-.1.1-.2.1s-.1 0-.2.1c-.1 0-.2.1-.2.1h-.1s-.1 0-.1.1H18c-.1.1-.3.1-.4.1s-.2 0-.3.1h-.1c-.2 0-.2-.2-.2-.4 0-.1 0-.1-.1-.2v-.2c0-.1-.1-.1-.1-.1v-.1c-.1-.1-.1-.2-.2-.3h-.1l-.1-.1h-.1l-.1-.1h-.1L16 20c-.1 0-.2-.1-.3-.1s-.1-.1-.2-.1-.3 0-.4-.1c-.1-.1.1-.4.2-.4l.1-.1h.1c.1 0 .2 0 .3.1.1 0 .3.1.5.1h.2c.1 0 .3 0 .4.1.2 0 .3 0 .5.1h.5s.1 0 .1-.1c.1-.1 0-.4 0-.6v-1.4-4.7-.9-.5-.3-.2c-.1-.1-.2 0-.3-.1h-5.2c-.1 0-.1 0-.2.1 0 0-.1 0-.1.1-.1 0-.2-.1-.2-.1s0-.1-.1-.1c0 0-.1 0-.1-.1-.1-.1-.2-.2-.2-.3s-.1-.2-.1-.2c0-.1.2-.1.4-.1h6c.2 0 .2-.2.3-.3-.3-.1-.2-.1-.2-.2v-.1s.1 0 .1-.1l.1-.1.1-.1.1-.1h.1c.2 0 .3 0 .4.1l.1.1h.1l.1.1h.1c.1.1.2.1.3.2h.1v.1c.1.1.2.1.3.2l.1.1c.1 0 .1.1.2.1l.1.1h.1s.2.2.2.3c-.1.1-.3.2-.4.3zm1.1-4.1h-4.5c0 .1.1.1.2.2 0 0 .1 0 .1.1 0 0 0 .1.1.1h.1c.1 0 .1.1.1.2 0 0 .1 0 .1.1s.1.1.1.2l.1.1c0 .1 0 .1.1.2.1 0 .1.1.2.2V8.7c0 .2 0 .3-.1.4 0 .1-.1.1-.1.1l-.3.3-.2.2h-.1s-.1 0-.1.1H16.9c-.1 0-.2-.1-.3-.2l-.1-.1c0-.1 0-.1-.1-.2 0 0 0-.1-.1-.1V9v-.2c0-.1 0-.2-.1-.3v-.2c0-.1-.1-.1-.1-.2v-.2c-.1-.2-.1-.4-.2-.5v-.1l-.1-.1c0-.1 0-.1-.1-.2 0 0-.1-.2-.2-.2s-.2.1-.2.1l-.1.1-.1.1v.1c-.1.1-.1.2-.2.2-.2.2-.4.5-.6.7 0 .1-.1.1-.1.2l-.1.1-.1.1s-.1 0-.1.1v.1s-.1.1-.2.1l-.1.1h-.1V9s-.1 0-.1.1l-.1.1-.1.1s0 .1-.1.1H13s0 .1-.1.1h-.1c-.1 0-.1.1-.1.1h-.1l-.1.1c0 .1-.1.1-.1.1l-.1.1h-.2c-.1-.1-.2-.2-.2-.3s.1-.1.1-.2.1-.1.1-.2c0 0 .1 0 .1-.1 0 0 0-.1.1-.1l.1-.1c0-.1.1-.1.2-.2v-.1l.1-.1v-.1c.1-.2.2-.3.3-.4v-.1l.1-.1c0-.1.1-.1.1-.2l.1-.1c0-.1 0-.1.1-.2l.1-.1v-.1l.1-.1s0-.1.1-.1l.1-.1c0-.1.1-.1.1-.2v-.1c.1-.4.4-.7.5-1.1v-.1c0-.1.1-.1.1-.2V5c0-.1.1-.2.1-.3v-.1s0-.1.1-.1v-.1l.3-.6v-.1s0-.1.1-.1v-.1l.1-.1h.1c.2 0 .1.1.2.1h.2c.1 0 .1.1.2.1s.2 0 .3.1c0 0 .1 0 .1.1 0 0 .1 0 .1.1h.1c.2 0 .4 0 .5.1l.1.1c.1 0 .1 0 .1.1 0 0 0 .1.1.1 0 0 .1.1 0 .1 0 .1-.1.1-.2.2H17c-.1 0-.2.1-.3.1-.1 0-.2.2-.2.2V5s-.1 0-.1.1 0 .1-.1.2l-.1.1-.1.1-.1.1s0 .1-.1.1c0 .1-.1.1-.1.2s.1 0 .2 0H18.3c.1 0 .3-.3.3-.4l.1-.1s0-.1.1-.1l.1-.1v-.1s.1 0 .1-.1l.3-.3c.2-.1.5.2.6.3h.1l.1.1s0 .1.1.1.1.1.2.1c.1.1.2.1.2.2l.1.1s.1 0 .1.1l.1.1.1.1.1.1.1.1v.1c.4.5.3.5.2.5zm-7.3 6.7c0-.1 0-.3-.1-.3H11.4c-.1 0-.3 0-.4.1 0 .1-.1.3 0 .4V15c.1.1.4 0 .6 0H14v-.2-.6c.1-.3.1-.6.1-.8zm-.4 2.2h-2.4-.2c-.1 0 0 .4 0 .5v1.3c.1.1.2 0 .4.1H13.9c.1 0 .2 0 .3-.1v-.1-1.2c0-.2 0-.4-.1-.4-.2-.1-.3-.1-.4-.1z" fill="#fff"/></svg>