<?xml version="1.0" encoding="utf-8"?>
<!-- Generator: Adobe Illustrator 22.1.0, SVG Export Plug-In . SVG Version: 6.00 Build 0)  -->
<svg version="1.1" id="图层_1" xmlns="http://www.w3.org/2000/svg" xmlns:xlink="http://www.w3.org/1999/xlink" x="0px" y="0px"
	 viewBox="0 0 25 25" style="enable-background:new 0 0 25 25;" xml:space="preserve">
<style type="text/css">
	.st0{fill:#FFFFFF;}
</style>
<g>
	<g>
		<path class="st0" d="M22.4,0H2.6C1.2,0,0,1.2,0,2.6v19.7C0,23.8,1.2,25,2.6,25h19.7c1.5,0,2.6-1.2,2.6-2.6V2.6
			C25,1.2,23.8,0,22.4,0z M5.7,9.3C5.7,9.4,5.6,9.4,5.7,9.3C5.6,9.4,5.6,9.4,5.6,9.5H5.5L5.4,9.6c0,0-0.1,0-0.1,0.1
			c0,0,0,0.1-0.1,0.1c0,0,0,0-0.1,0c0,0,0,0,0,0.1C5.1,10,5,10,4.9,10c0,0,0,0.1-0.1,0.1H4.7c0,0,0,0.1-0.1,0.1c0,0,0,0.1-0.1,0.1
			H4.4c-0.1,0-0.1,0.1-0.1,0.2c-0.1,0-0.1,0.1-0.1,0.1l-0.1,0.1c0,0,0,0-0.1,0.1H3.9c-0.1,0,0,0.1-0.1,0.1c-0.1,0.1-0.2,0-0.3,0
			c0,0,0-0.1-0.1-0.1c0-0.1-0.2-0.1-0.2-0.3c0-0.1,0.1-0.1,0.1-0.1c0.1-0.1,0.1-0.2,0.2-0.3L3.6,10V9.9C3.9,10,4,10,4,10
			c0.1-0.1,0.2-0.2,0.2-0.4c0-0.1,0.1-0.1,0.1-0.2c0,0,0,0,0-0.1l0.1-0.1V9.1L4.5,9V8.9c0,0,0-0.1,0.1-0.1l0,0c0-0.1,0-0.1,0.1-0.2
			c0,0,0.1,0,0.1-0.1C4.9,8.5,5,8.4,5,8.4l0,0c0,0,0,0,0-0.1l0.1-0.1V8.1c0,0,0-0.1,0.1-0.1c0-0.1,0.1-0.1,0.1-0.2s0.1-0.1,0.1-0.2
			c0,0,0.1-0.1,0.1-0.2V7.3l0.1-0.1V7.1L5.7,7c0-0.1,0.1-0.1,0.1-0.2C5.9,6.7,6,6.6,6,6.4c0-0.1,0.1-0.1,0.1-0.2V6.1
			c0-0.1,0.1-0.2,0.2-0.3c0-0.1,0-0.1,0-0.2s0.1-0.1,0.1-0.2V5.3c0-0.1,0.1-0.1,0.1-0.1V5.1C6.5,5,6.6,5,6.6,4.9s0-0.1,0-0.2
			s0.1-0.2,0.1-0.3V4.3c0-0.1,0.1-0.1,0.1-0.1c0-0.1,0-0.2,0.1-0.3C6.9,4,7,4,7,3.9c0.1-0.2,0.1-0.4,0.2-0.6V3.2h0.1
			c0.2,0,0.3,0.1,0.5,0.1c0.1,0,0.1,0,0.2,0.1h0.1c0,0,0.1,0,0.1,0.1h0.1c0,0,0,0,0.1,0.1c0.1,0,0.2,0.1,0.3,0.1
			c0.1,0,0.3,0.1,0.4,0.2c0,0,0.1,0,0.1,0.1c0.1,0,0.2,0,0.2,0.1c0,0,0.1,0.1,0.1,0.2S9.3,4.5,9.2,4.5s-0.1,0-0.2,0
			c0,0,0,0.1-0.1,0.1c0,0-0.1,0-0.1,0.1c0,0,0,0.1-0.1,0.1L8.6,4.9c0,0.1-0.1,0.2-0.1,0.2c0,0.1,0,0.1-0.1,0.2l0,0
			c0,0.1-0.1,0.1-0.1,0.2c0,0-0.1,0-0.1,0.1S8.1,5.7,8.1,5.8L8,5.9C8,6,8,6,8,6.1h0.1c0.1,0,0.1,0,0.2,0c0.1,0,0.2,0,0.3,0
			s0.2,0,0.2,0c0.1,0,0.1,0,0.2,0c0.1,0,0.2,0,0.3,0c0.2,0,0.4,0,0.5,0c0.2,0,0.4,0,0.5,0s0.1,0,0.2,0c0.1,0,0.2,0,0.2,0h0.1L10.9,6
			L11,5.9l0.1-0.1c0,0,0.1,0,0.1-0.1c0,0,0,0,0-0.1l0,0V5.5c0,0,0,0,0.1,0l0.1-0.1c0,0,0,0,0-0.1c0,0,0.1,0,0.1-0.1
			c0.1-0.1,0.1-0.1,0.2-0.2C11.8,5,12,5.1,12,5.2c0,0,0,0,0.1,0c0,0,0,0,0.1,0c0.1,0.1,0.1,0.1,0.2,0.2c0,0,0,0,0.1,0.1
			s0.2,0.2,0.3,0.2c0,0,0.1,0,0.1,0.1L13,5.9C13,6,13,6,13,6.1l0.1,0.1c0,0,0,0,0,0.1c0.1,0,0.1,0.1,0.2,0.2
			c0.1,0.1,0.1,0.3,0.1,0.4c-0.1,0-0.2,0.1-0.3,0.1H13c-0.1,0-0.2,0-0.3,0c-0.2,0-0.4,0-0.6,0h-1.8c-0.2,0-0.5,0-0.7,0
			C9.5,7,9.4,7,9.4,7l0,0c0,0.1,0.1,0.1,0.2,0.1c0,0,0.1,0,0.1,0.1c0.1,0,0.1,0.1,0.2,0.1C10,7.3,10,7.4,10,7.4s0.1,0,0.1,0.1
			c0.1,0,0.1,0.1,0.1,0.2c0,0,0,0,0.1,0c0,0.1,0,0.1,0.1,0.2C10.4,8,10.5,8,10.5,8v0.1v0.1c0,0.2,0,0.4-0.1,0.5
			c0,0.1-0.1,0.1-0.1,0.1v0.1L10.2,9c0,0,0,0.1-0.1,0.1H10L9.9,9.2H9.8c-0.1,0-0.1,0.1-0.2,0.1c-0.1,0-0.2,0-0.2,0
			c-0.1,0-0.2,0-0.2-0.1C9,9.2,9,8.9,8.9,8.7c0-0.1-0.1-0.2-0.1-0.3s0-0.1,0-0.2L8.7,8.1V8C8.6,7.9,8.6,7.8,8.5,7.6
			c0-0.1,0-0.1-0.1-0.2c0,0,0,0-0.1-0.1V7.2c0,0-0.1,0-0.1-0.1c0,0,0-0.1-0.1-0.1c0-0.1-0.1-0.2-0.2-0.2H7.7c-0.1,0-0.1,0-0.2,0
			c0,0.1,0,0.2,0,0.3l0,0c0,0,0,0.1-0.1,0.1c0,0-0.1,0-0.1,0.1v0.1C7.2,7.5,7.1,7.6,7,7.7c0,0-0.1,0.1-0.1,0.2c0,0,0,0-0.1,0.1
			c0,0,0,0,0,0.1c0,0-0.1,0.1-0.2,0.1c0,0,0,0,0,0.1c0,0,0,0-0.1,0c0,0,0,0.1-0.1,0.1H6.3c0,0.1-0.1,0.1-0.1,0.2L6.1,8.7
			c0,0,0,0.1-0.1,0.1c0,0,0,0-0.1,0C6,8.9,6,9,6,9c0,0.1-0.1,0.1-0.2,0.1v0.1C5.8,9.2,5.7,9.3,5.7,9.3L5.7,9.3z M8,11.8
			c-0.1,0-0.2,0.1-0.2,0.1s0,0.1-0.1,0.1c0,0.1,0,0.2,0,0.2c0,0.1,0,0.3,0,0.4c0,0.5,0,0.9,0,1.4v5c0,0.5,0,0.9,0,1.3
			c0,0.1,0,0.3,0,0.4s0,0.1,0,0.2s0,0.1-0.1,0.1v0.1c0,0.1-0.2,0.2-0.2,0.2H7.3c0,0-0.1,0-0.1,0.1c-0.2,0.1-0.3,0.1-0.5,0.2
			c-0.1,0-0.2,0.1-0.2,0.1H6.4c-0.1,0-0.2,0.1-0.3,0.1c-0.2,0-0.2-0.3-0.2-0.5s0-0.4,0-0.5s0-0.1,0-0.2s0-0.3,0-0.4
			c0-0.2,0-0.4,0-0.7c0-0.1,0-0.2,0-0.3V15c0-0.7,0-1.5,0-2.2v-0.3c0-0.1,0-0.2,0-0.3s0-0.1,0-0.2c0-0.2,0-0.4,0-0.6
			c0-0.1,0-0.3,0-0.4c0,0,0-0.1,0.1-0.1h0.1c0.1,0,0.2,0,0.2,0.1c0,0,0.1,0,0.1,0.1h0.1c0.1,0,0.2,0.1,0.3,0.1
			c0.2,0,0.3,0.1,0.5,0.1c0.1,0,0.1,0.1,0.2,0.1s0.1,0,0.2,0s0.1,0.1,0.1,0.1c0.1,0,0.1,0,0.2,0.1l0.1,0.1v0.1
			C8.1,11.5,8,11.8,8,11.8z M14.7,19.2l-0.1,0.1c-0.1,0-0.2,0-0.3,0c0,0-0.1,0-0.1-0.1c-0.1,0-0.1-0.1-0.1-0.1V19v-0.1
			c0-0.1,0-0.2,0-0.2c0-0.1,0-0.2,0-0.3c0,0-0.1,0-0.2,0c-0.2,0-0.3,0-0.5,0c-0.5,0-1,0-1.5,0c-0.2,0-0.5,0-0.7,0
			c-0.1,0,0,0.1,0,0.2s0,0.2,0,0.3c0,0.2,0,0.3,0,0.5c0,0,0,0.1-0.1,0.1c0,0,0,0.1-0.1,0.1c0,0-0.1,0-0.1,0.1
			c-0.1,0-0.1,0.1-0.2,0.1c-0.1,0-0.3,0.1-0.4,0.1h-0.1c-0.1,0-0.1,0-0.2,0c0,0-0.1,0.1-0.2,0.1c-0.1,0-0.2,0-0.3-0.1l0,0
			c0-0.1-0.1-0.1-0.1-0.2s0-0.1,0-0.2s0-0.1,0-0.2s0-0.2,0.1-0.2c0-0.3,0-0.5,0-0.8c0-0.1,0-0.2,0-0.4v-4.7c0-0.2,0-0.4,0-0.6v-0.1
			c0-0.1,0-0.2,0-0.3s-0.2-0.1-0.3-0.1C9.1,12.1,9,12,9,12s0,0-0.1,0v-0.1c-0.1-0.1-0.1-0.2-0.2-0.3c-0.1-0.2-0.3-0.5-0.4-0.7v-0.1
			c0,0-0.1,0-0.1-0.1c-0.1-0.1-0.1-0.2-0.2-0.3c0-0.1-0.1-0.1-0.1-0.2c0,0,0-0.1-0.1-0.1c0,0-0.1,0-0.1-0.1c0,0,0,0,0-0.1L7.6,9.8
			c-0.1,0-0.1-0.1-0.2-0.1L7.3,9.6c0,0,0-0.1-0.1-0.1C7.1,9.4,7,9.4,7,9.3c0-0.1-0.1-0.2,0-0.2C7,9.1,7,9,7.1,9
			c0.1-0.1,0-0.1,0.1-0.1h0.1c0.1,0,0.2,0,0.2,0C7.6,9,7.7,9,7.8,9C7.9,9,8,9,8.1,9.1c0,0,0.1,0,0.1,0.1h0.1c0.1,0,0.1,0,0.2,0.1
			c0.1,0,0.2,0.1,0.4,0.1c0.1,0,0.1,0,0.2,0c0.1,0,0.1,0.1,0.1,0.1h0.1l0.1,0.1c0.1,0,0.1,0.1,0.2,0.1c0.1,0,0.1,0.1,0.1,0.1
			c0.1,0,0.2,0.1,0.3,0.2v0.1c0,0.1,0.1,0.1,0.1,0.2c0.1,0.2,0.1,0.3,0.1,0.5V11c0,0.1,0,0.2-0.1,0.3L10,11.4c0,0,0,0.1-0.1,0.1
			c0,0-0.1,0.1-0.1,0.2c0.1,0.1,0.2,0.1,0.3,0.1c0.1,0.1,0.3,0.1,0.4,0.2c0,0,0.1,0,0.1,0.1h0.1l0.1,0.1c0,0,0,0,0.1,0H11
			c0,0,0,0.1,0.1,0.1h0.1c0.1,0,0.2,0,0.2,0c0.2,0,0.4,0,0.6,0h1.1c0.1,0,0.3,0,0.4,0c0.1,0,0.2,0,0.2,0c0.1,0,0.2-0.1,0.2-0.2V12
			l0.1-0.1c0,0,0-0.1,0.1-0.1l0.1-0.1c0,0,0,0,0-0.1l0.1-0.1c0.1,0,0.3,0,0.3,0l0.1,0.1h0.1c0.1,0,0.1,0.1,0.2,0.1
			c0.1,0,0.1,0.1,0.2,0.1c0,0,0,0,0.1,0.1h0.1c0.1,0,0.2,0.1,0.2,0.2c0.1,0,0.1,0.1,0.2,0.1l0.1,0.1c0.1,0.1,0.2,0.2,0.3,0.3
			l0.1,0.1c0.1,0.1,0,0.2-0.1,0.3s-0.1,0.1-0.2,0.2c-0.1,0.1-0.2,0.1-0.2,0.1c0,0.1,0,0.2,0,0.3s0,0.1,0,0.2v3.5c0,0.1,0,0.3,0,0.4
			c0,0.2,0,0.4,0,0.5v0.1c0,0.1,0,0.2,0,0.3c-0.1,0.1-0.2,0.2-0.4,0.3h-0.1c-0.1,0-0.1,0.1-0.2,0.1c0,0-0.1,0.1-0.2,0.1
			C14.9,19.1,14.8,19.1,14.7,19.2z M20.3,10.8l-0.1,0.1h-0.1C20,11,20,11,20,11s0,0-0.1,0l-0.1,0.1c0,0.1,0,0.3,0,0.4
			c0,0,0,0.1,0,0.2c0,0.1,0,0.1,0,0.2c0,0.3,0,0.6,0,0.9v6.4c0,0.4,0,0.8-0.1,1c0,0.1,0,0.3-0.1,0.4c0,0.1-0.1,0.2-0.2,0.2h-0.1
			c0,0,0,0-0.1,0.1c0,0,0,0-0.1,0L19,21h-0.1c-0.1,0-0.1,0.1-0.2,0.1s-0.1,0-0.2,0.1c-0.1,0-0.2,0.1-0.2,0.1h-0.1c0,0-0.1,0-0.1,0.1
			H18c-0.1,0.1-0.3,0.1-0.4,0.1s-0.2,0-0.3,0.1h-0.1c-0.2,0-0.2-0.2-0.2-0.4c0-0.1,0-0.1-0.1-0.2c0-0.1,0-0.1,0-0.2
			s-0.1-0.1-0.1-0.1v-0.1c-0.1-0.1-0.1-0.2-0.2-0.3h-0.1l-0.1-0.1h-0.1l-0.1-0.1h-0.1L16,20c-0.1,0-0.2-0.1-0.3-0.1
			s-0.1-0.1-0.2-0.1c-0.1,0-0.3,0-0.4-0.1c-0.1-0.1,0.1-0.4,0.2-0.4l0.1-0.1h0.1c0.1,0,0.2,0,0.3,0.1c0.1,0,0.3,0.1,0.5,0.1
			c0.1,0,0.1,0,0.2,0s0.3,0,0.4,0.1c0.2,0,0.3,0,0.5,0.1c0.1,0,0.3,0,0.3,0c0.1,0,0.1,0,0.2,0c0,0,0.1,0,0.1-0.1
			c0.1-0.1,0-0.4,0-0.6v-1.4c0-1.6,0-3.1,0-4.7c0-0.3,0-0.6,0-0.9c0-0.1,0-0.3,0-0.5c0-0.1,0-0.2,0-0.3s0-0.1,0-0.2
			c-0.1-0.1-0.2,0-0.3-0.1c-0.1,0-0.3,0-0.4,0h-0.8c-0.5,0-0.9,0-1.4,0c-0.1,0-0.3,0-0.4,0c-0.1,0-0.2,0-0.3,0c-0.2,0-0.4,0-0.6,0
			H13c-0.1,0-0.4,0-0.5,0s-0.1,0-0.2,0.1c0,0-0.1,0-0.1,0.1c-0.1,0-0.2-0.1-0.2-0.1s0-0.1-0.1-0.1c0,0-0.1,0-0.1-0.1
			c-0.1-0.1-0.2-0.2-0.2-0.3s-0.1-0.2-0.1-0.2c0-0.1,0.2-0.1,0.4-0.1s0.4,0,0.6,0c0.1,0,0.1,0,0.2,0c0.1,0,0.2,0,0.3,0s0.3,0,0.5,0
			c0.3,0,0.5,0,0.8,0h2.5c0.3,0,0.5,0,0.8,0c0,0,0,0,0.1,0s0.2,0,0.2,0c0.2,0,0.2-0.2,0.3-0.3C17.9,9.7,18,9.7,18,9.6V9.5
			c0,0,0.1,0,0.1-0.1l0.1-0.1c0,0,0,0,0.1-0.1l0.1-0.1h0.1c0.2,0,0.3,0,0.4,0.1c0,0,0,0,0.1,0.1h0.1l0.1,0.1h0.1
			c0.1,0.1,0.2,0.1,0.3,0.2c0,0,0,0,0.1,0c0,0,0,0,0,0.1c0.1,0.1,0.2,0.1,0.3,0.2l0.1,0.1c0.1,0,0.1,0.1,0.2,0.1c0,0,0,0,0.1,0.1
			h0.1c0,0,0.2,0.2,0.2,0.3C20.6,10.6,20.4,10.7,20.3,10.8z M21.4,6.7h-0.1c-0.1,0-0.2,0-0.3,0h-0.1h-2.7h-0.1c-0.1,0-0.2,0-0.3,0
			c-0.1,0-0.3,0-0.4,0s-0.1,0-0.2,0s-0.2,0-0.3,0c0,0.1,0.1,0.1,0.2,0.2l0,0c0,0,0.1,0,0.1,0.1c0,0,0,0.1,0.1,0.1h0.1
			c0.1,0,0.1,0.1,0.1,0.2c0,0,0.1,0,0.1,0.1s0.1,0.1,0.1,0.2c0,0,0,0,0.1,0.1c0,0.1,0,0.1,0.1,0.2C18,7.9,18,8,18.1,8.1
			c0,0.1,0,0.1,0,0.2c0,0.1,0,0.3,0,0.4c0,0.2,0,0.3-0.1,0.4c0,0.1-0.1,0.1-0.1,0.1c-0.1,0.1-0.2,0.2-0.3,0.3
			c-0.1,0.1-0.1,0.1-0.2,0.2c0,0,0,0-0.1,0c0,0-0.1,0-0.1,0.1c0,0,0,0-0.1,0s-0.1,0-0.2,0s-0.2-0.1-0.3-0.2l-0.1-0.1
			c0-0.1,0-0.1-0.1-0.2c0,0,0-0.1-0.1-0.1V9.1V9c0-0.1,0-0.1,0-0.2c0-0.1,0-0.2-0.1-0.3V8.4V8.3c0-0.1-0.1-0.1-0.1-0.2
			c0-0.1,0-0.1,0-0.2C16,7.7,16,7.5,15.9,7.4V7.3l-0.1-0.1c0-0.1,0-0.1-0.1-0.2c0,0-0.1-0.2-0.2-0.2c-0.1,0-0.2,0.1-0.2,0.1L15.2,7
			l-0.1,0.1c0,0,0,0,0,0.1C15,7.3,15,7.4,14.9,7.4c-0.2,0.2-0.4,0.5-0.6,0.7c0,0.1-0.1,0.1-0.1,0.2l-0.1,0.1L14,8.5
			c0,0-0.1,0-0.1,0.1c0,0,0,0,0,0.1c0,0-0.1,0.1-0.2,0.1c0,0,0,0-0.1,0.1c0,0,0,0-0.1,0c0,0,0,0,0,0.1c0,0-0.1,0-0.1,0.1l-0.1,0.1
			l-0.1,0.1c0,0,0,0.1-0.1,0.1c0,0,0,0-0.1,0c0,0,0,0.1-0.1,0.1h-0.1c-0.1,0-0.1,0.1-0.1,0.1h-0.1l-0.1,0.1c0,0.1-0.1,0.1-0.1,0.1
			s0,0-0.1,0.1c-0.1,0-0.2,0-0.2,0c-0.1-0.1-0.2-0.2-0.2-0.3S12,9.5,12,9.4c0-0.1,0.1-0.1,0.1-0.2c0,0,0.1,0,0.1-0.1
			c0,0,0-0.1,0.1-0.1l0.1-0.1c0-0.1,0.1-0.1,0.2-0.2V8.6l0.1-0.1V8.4C12.8,8.2,12.9,8.1,13,8V7.9l0.1-0.1c0-0.1,0.1-0.1,0.1-0.2
			c0,0,0,0,0.1-0.1c0-0.1,0-0.1,0.1-0.2l0.1-0.1V7.1L13.6,7c0,0,0-0.1,0.1-0.1l0.1-0.1c0-0.1,0.1-0.1,0.1-0.2c0,0,0,0,0-0.1
			c0.1-0.4,0.4-0.7,0.5-1.1V5.3c0-0.1,0.1-0.1,0.1-0.2V5c0-0.1,0.1-0.2,0.1-0.3V4.6c0,0,0-0.1,0.1-0.1V4.4C14.8,4.2,14.9,4,15,3.8
			V3.7c0,0,0-0.1,0.1-0.1V3.5l0.1-0.1c0,0,0,0,0.1,0c0.2,0,0.1,0.1,0.2,0.1c0.1,0,0.1,0,0.2,0c0.1,0,0.1,0.1,0.2,0.1s0.2,0,0.3,0.1
			c0,0,0.1,0,0.1,0.1c0,0,0.1,0,0.1,0.1h0.1c0.2,0,0.4,0,0.5,0.1l0.1,0.1c0.1,0,0.1,0,0.1,0.1c0,0,0,0.1,0.1,0.1c0,0,0.1,0.1,0,0.1
			c0,0.1-0.1,0.1-0.2,0.2H17c-0.1,0-0.2,0.1-0.3,0.1c-0.1,0-0.2,0.2-0.2,0.2s0,0,0,0.1c0,0-0.1,0-0.1,0.1s0,0.1-0.1,0.2
			c0,0,0,0-0.1,0.1l-0.1,0.1L16,5.6c0,0,0,0.1-0.1,0.1c0,0.1-0.1,0.1-0.1,0.2s0.1,0,0.2,0h0.1c0.1,0,0.1,0,0.2,0h0.4
			c0.1,0,0.2,0,0.3,0c0.1,0,0.3,0,0.5,0c0.1,0,0.3,0,0.4,0H18h0.1c0,0,0.1,0,0.2,0s0.3-0.3,0.3-0.4l0.1-0.1c0,0,0-0.1,0.1-0.1
			l0.1-0.1V5.1c0,0,0.1,0,0.1-0.1c0.1-0.1,0.2-0.2,0.3-0.3c0.2-0.1,0.5,0.2,0.6,0.3H20l0.1,0.1c0,0,0,0.1,0.1,0.1s0.1,0.1,0.2,0.1
			l0,0c0.1,0.1,0.2,0.1,0.2,0.2l0.1,0.1c0,0,0.1,0,0.1,0.1l0.1,0.1L21,5.9L21.1,6l0.1,0.1v0.1C21.6,6.7,21.5,6.7,21.4,6.7z
			 M14.1,13.4c0-0.1,0-0.3-0.1-0.3h-0.2c-0.1,0-0.3,0-0.5,0c-0.6,0-1.3,0-1.9,0c-0.1,0-0.3,0-0.4,0.1c0,0.1-0.1,0.3,0,0.4
			c0,0.1,0,0.2,0,0.3v0.7c0,0.1,0,0.4,0,0.4c0.1,0.1,0.4,0,0.6,0c0.1,0,0.2,0,0.2,0c0.1,0,0.2,0,0.3,0s0.1,0,0.2,0
			c0.1,0,0.3,0,0.4,0H13c0.1,0,0.2,0,0.3,0s0.1,0,0.2,0c0.1,0,0.2,0,0.3,0s0.2,0,0.2,0c0-0.1,0-0.1,0-0.2c0-0.2,0-0.4,0-0.6
			C14.1,13.9,14.1,13.6,14.1,13.4z M13.7,15.6L13.7,15.6c-0.2,0-0.4,0-0.5,0c-0.5,0-1,0-1.5,0h-0.1c-0.1,0-0.2,0-0.3,0
			c0,0-0.1,0-0.2,0c-0.1,0,0,0.4,0,0.5s0,0.1,0,0.2v0.1v0.2c0,0.2,0,0.5,0,0.7v0.1c0.1,0.1,0.2,0,0.4,0.1c0.1,0,0.1,0,0.2,0
			c0.1,0,0.2,0,0.2,0c0.1,0,0.2,0,0.4,0s0.3,0,0.5,0h0.7h0.1h0.1c0.1,0,0.1,0,0.2,0c0.1,0,0.2,0,0.3-0.1v-0.1c0-0.1,0-0.2,0-0.3
			v-0.9c0-0.2,0-0.4-0.1-0.4C13.9,15.6,13.8,15.6,13.7,15.6z"/>
	</g>
</g>
</svg>
