<svg xmlns="http://www.w3.org/2000/svg" viewBox="0 0 25 25"><path d="M22.4 0H2.6C1.2 0 0 1.2 0 2.6v19.7C0 23.8 1.2 25 2.6 25h19.7c1.5 0 2.6-1.2 2.6-2.6V2.6C25 1.2 23.8 0 22.4 0zM8.6 19.4H5.8v-9.2h2.8v9.2zM7.2 8.9c-.9 0-1.7-.8-1.7-1.7s.8-1.7 1.7-1.7 1.7.8 1.7 1.7-.7 1.7-1.7 1.7zm12.2 10.4h-2.8v-4.5c0-1.1 0-2.5-1.5-2.5s-1.7 1.2-1.7 2.4v4.6h-2.8v-9.1h2.7v1.2h.1c.4-.8 1.3-1.5 2.7-1.5 2.9 0 3.4 1.9 3.4 4.4v5h-.1z" fill="#fff"/><path d="M141.2 141.9c0-.1.2-.1.2-.1v-.1h.1s0-.1.1-.1l.1-.1c0-.1.1-.1.1-.2h.1s0-.1.1-.1h.1v-.1c.1-.1.1-.2.2-.3v-.1l.1-.1s.1-.1.1-.2c.1-.1.1-.2.2-.3v-.1l.1-.1s0-.1.1-.1c0-.1 0-.1.1-.1h.4c.1 0 .2.1.2.2 0 0 0 .1.1.1 0 0 .1 0 .1.1v.1l.1.1s0 .1.1.2.2.3.2.4v.1l.1.1v.2c0 .1.1.2.1.3.1.2.1.5.2.7.1 0 .1.1.2.1s.1.1.2 0c.1 0 .2-.1.2-.1h.1l.1-.1h.1s0-.1.1-.1l.1-.1v-.1c0-.1.1-.1.1-.1.1-.1.1-.4.1-.5v-.2c0-.1-.1-.1-.1-.1 0-.1 0-.1-.1-.2h-.1c0-.1-.1-.1-.1-.2 0 0-.1 0-.1-.1-.1 0-.1-.1-.1-.1-.1 0-.1-.1-.2-.1 0 0-.1 0-.1-.1-.1 0-.2-.1-.2-.1h3.7c.1 0 .2 0 .3-.1s0-.4-.1-.4c0-.1-.1-.1-.2-.2v-.1l-.1-.1s-.1 0-.1-.1l-.1-.1s-.1 0-.1-.1c-.1-.1-.2-.2-.3-.2l-.1-.1-.2-.2h-.1-.1c-.1-.1-.2-.2-.3-.2s-.1.1-.2.2c0 0-.1 0-.1.1v.1l-.1.1h-.1v.2s-.1 0-.1.1l-.1.1-.1.1s0 .1-.1.1h-.1c-.1 0-.1.1-.2 0h-2.5v-.2l.1-.1c0-.1.1-.1.1-.2 0 0 .1 0 .1-.1s.1-.1.1-.2 0-.1.1-.2c0-.1.1-.2.1-.2l.1-.1s0-.1.1-.1c0 0 .1 0 .1-.1 0 0 0-.1.1-.1h.2c.1 0 .3-.1.3-.2s0-.2-.1-.2l-.2-.2s-.1 0-.1-.1c-.1-.1-.3-.1-.4-.2-.1 0-.2-.1-.3-.1l-.1-.1h-.1s-.1 0-.1-.1h-.1c-.1 0-.1 0-.2-.1-.2 0-.3-.1-.5-.1h-.1v.1c-.1.2-.1.4-.2.6 0 .1-.1.2-.1.3s0 .2-.1.3c0 .1-.1.1-.1.1v.1c0 .1-.1.2-.1.3v.2s-.1.1-.1.2v.1l-.1.1v.1c0 .1-.1.1-.1.2v.2c0 .1-.1.2-.2.3v.1c0 .1-.1.1-.1.2s-.1.2-.1.3-.1.1-.1.2l-.1.1v.1l-.1.1v.1s-.1.1-.1.2-.1.1-.1.2-.1.1-.1.2c0 0 0 .1-.1.1v.1c0 .1-.1.1-.1.1v.1c0 .1-.1.1-.1.2 0 0-.1 0-.1.1 0 0 0 .1-.1.2 0 0 0 .1-.1.1v.1l-.1.1v.1c0 .1-.1.1-.1.1v.1c0 .1-.1.1-.1.2-.1.1-.1.3-.2.4l-.1.1v.1l-.1.1c-.1.1-.1.2-.2.3l-.1.1c-.1.1.1.2.2.3 0 0 0 .1.1.1s.2.1.3 0c0 0 0-.1.1-.1h.1l.1-.1.1-.1c.1 0 .1-.1.1-.1.1 0 .1-.1.1-.2h.1s0-.1.1-.1c0 0 0-.1.1-.1h.1s0-.1.1-.1.1-.1.2-.1v-.1h.1s0-.1.1-.1c0 0 .1 0 .1-.1l.1-.1h.1v-.1h.1v-.1c-.3-.8-.3-.9-.3-1 0 .1 0 .1 0 0zm15.8-2.7c0-.1-.1-.1-.1-.1l-.1-.1-.1-.1-.1-.1s-.1 0-.1-.1l-.1-.1c-.1-.1-.2-.1-.2-.2-.1 0-.1-.1-.2-.1 0 0 0-.1-.1-.1l-.1-.1h-.1c-.1-.1-.4-.4-.6-.3l-.3.3s-.1 0-.1.1v.1l-.1.1s0 .1-.1.1l-.1.1c-.1.1-.2.3-.3.4H151.6c0-.1.1-.2.1-.2s0-.1.1-.1c0-.1.1-.1.1-.1l.1-.1.1-.1c0-.1 0-.1.1-.2 0 0 .1 0 .1-.1v-.1c0-.1.2-.2.2-.2.1 0 .2-.1.3-.1h.1c.1 0 .1-.1.2-.2v-.1s0-.1-.1-.1c0 0-.1 0-.1-.1l-.1-.1c-.1-.1-.3-.2-.5-.2h-.1s-.1 0-.1-.1c0 0-.1 0-.1-.1-.1 0-.2 0-.3-.1-.1 0-.1-.1-.2-.1h-.2c-.1 0-.1-.1-.2-.1h-.1l-.1.1v.1s0 .1-.1.1v.1c-.1.2-.2.4-.2.6v.1s0 .1-.1.1v.1c0 .1-.1.2-.1.3v.1c0 .1-.1.1-.1.2v.1c-.2.4-.4.7-.5 1.1v.1c0 .1-.1.1-.1.2l-.1.1s0 .1-.1.1l-.1.1v.1l-.1.1s-.1.1-.1.2l-.1.1c0 .1-.1.1-.1.2l-.1.1v.1c-.1.1-.2.2-.3.4v.1l-.1.1v.1l-.2.2-.1.1s0 .1-.1.1c0 0-.1 0-.1.1-.1.1-.1.1-.1.2s-.1.1-.1.2.1.2.2.3c0 0 .1.1.2 0l.1-.1s.1 0 .1-.1l.1-.1h.1l.1-.1h.1s0-.1.1-.1h.1s0-.1.1-.1l.1-.1.1-.1s.1 0 .1-.1v-.1h.1l.1-.1c.1 0 .1-.1.2-.1v-.1s.1 0 .1-.1l.1-.1.1-.1c0-.1.1-.1.1-.2.2-.2.4-.4.6-.7.1-.1.1-.2.2-.2v-.1l.1-.1.1-.1s.1-.1.2-.1l.2.2c0 .1 0 .1.1.2l.1.1v.1c.1.2.2.3.2.5v.2c0 .1.1.1.1.2v.2c0 .1 0 .2.1.3v.4s0 .1.1.1c0 .1 0 .1.1.2l.1.1c0 .1.2.2.3.2H153.1s.1 0 .1-.1h.1l.2-.2.3-.3.1-.1c0-.1.1-.3.1-.4v-.4-.2c0-.1-.1-.1-.1-.2s0-.1-.1-.2l-.1-.1c0-.1-.1-.1-.1-.2 0 0-.1 0-.1-.1-.1 0-.1-.1-.1-.2h-.1s0-.1-.1-.1l-.1-.1c-.1-.1-.2-.1-.2-.2.1-.1.2 0 .3 0h4.2c.1 0 .2-.1.1-.2-.5-.2-.5-.3-.5-.3zm-6.3 12.5c.1 0 .1 0 0 0 .2-.1.4-.2.4-.3s.1-.2 0-.3v-.1-.5-.4-3.1-.5-.2-.3c0-.1.2-.1.2-.1l.2-.2c.1 0 .2-.2.1-.3l-.1-.1-.3-.3-.1-.1c-.1 0-.1-.1-.2-.1-.1-.1-.2-.1-.2-.2h-.1l-.1-.1c-.1 0-.1-.1-.2-.1s-.1-.1-.2-.1h-.1l-.1-.1h-.3l-.1.1v.1l-.1.1s0 .1-.1.1l-.1.1v.1c0 .1-.1.1-.2.2H146.4s0-.1-.1-.1h-.1-.1l-.1-.1h-.1s-.1 0-.1-.1c-.1-.1-.3-.1-.4-.2-.1 0-.2 0-.3-.1 0-.1.1-.2.1-.2s0-.1.1-.1l.1-.1c0-.1 0-.2.1-.3v-.1c0-.2 0-.4-.1-.5 0-.1-.1-.1-.1-.2v-.1c0-.1-.2-.1-.3-.2-.1 0-.1-.1-.1-.1-.1 0-.1-.1-.2-.1l-.1-.1h-.1l-.1-.1h-.2c-.1 0-.2-.1-.4-.1-.1 0-.1 0-.2-.1h-.1s-.1 0-.1-.1c-.1 0-.2 0-.3-.1-.1 0-.1-.1-.2-.1H142.6c-.1 0-.1.1-.1.1s-.1 0-.1.1v.2c0 .1.1.1.2.1 0 0 0 .1.1.1l.1.1c.1.1.2.2.2.3l.1.1v.1s.1 0 .1.1c0 0 0 .1.1.1 0 .1.1.1.1.2.1.1.1.2.2.3 0 0 .1 0 .1.1v.1c.1.2.3.5.4.7.1.1.1.2.2.3v.1h.1l.1.1c.1 0 .3-.1.3.1v6.9c0 .1 0 .2-.1.2v.4c0 .1.1.2.1.2.1 0 .2.1.3.1s.1 0 .2-.1H145.6c.1 0 .2-.1.4-.1.1 0 .1-.1.2-.1 0 0 .1 0 .1-.1l.1-.1.1-.1v-.5-.3c0-.1-.1-.2 0-.2.2-.1.5 0 .7 0h2.2c.1.1 0 .2 0 .3v.4c0 .1.1.1.1.1l.1.1h.3l.1-.1h.2c.1 0 .1-.1.2-.1l.3-.3zm-1.2-2.8v1.3c0 .1-.2 0-.3.1H146.8c-.1 0-.3 0-.4-.1v-.1-.7V149.1v-.2-.5h3c.1.1.1.3.1.5zm0-1.4v.2H147.1c-.2 0-.5.1-.6 0s0-.3 0-.4v-.7-.3-.4c.1-.1.2 0 .4-.1h2.6c.1.1.1.2.1.3v.7c-.1.3-.1.5-.1.7zm6.2-4.5s0-.1 0 0l-.1-.1s-.1-.1-.2-.1l-.1-.1c-.1-.1-.2-.1-.3-.2v-.1h-.1c-.1-.1-.2-.1-.3-.2h-.1l-.1-.1h-.1l-.1-.1c-.1-.1-.2-.1-.4-.1h-.1l-.1.1-.1.1-.1.1s-.1 0-.1.1v.1c-.1.1-.1.2-.2.2-.1.1-.1.3-.3.3h-.2-5.8c-.1 0-.3 0-.4.1 0 .1 0 .2.1.2.1.1.1.2.2.3 0 0 .1 0 .1.1 0 0 0 .1.1.1l.2.1c.1 0 .1 0 .1-.1.1 0 .1 0 .2-.1h5.2c.1 0 .3 0 .3.1v8.6l-.1.1h-.5c-.1 0-.3 0-.5-.1-.1 0-.3 0-.4-.1h-.2c-.1 0-.3-.1-.5-.1-.1 0-.2 0-.3-.1h-.1c-.1 0-.1 0-.1.1-.1.1-.3.3-.2.4.1.1.2.1.4.1.1 0 .1.1.2.1s.2 0 .3.1l.1.1h.1l.1.1h.1l.1.1h.1c.1.1.2.2.2.3v.1l.1.1v.2c0 .1.1.1.1.2 0 .2 0 .4.2.4h.1c.1 0 .2 0 .3-.1.2 0 .3-.1.4-.1h.1s.1 0 .1-.1h.1c.1 0 .2-.1.2-.1.1 0 .1 0 .2-.1.1 0 .1-.1.2-.1h.1l.1-.1h.1l.1-.1h.1c.1-.1.2-.1.2-.2.1-.1.1-.3.1-.4.1-.3.1-.7.1-1v-1-5.4-.9-.2-.2-.4l.1-.1h.1l.1-.1h.1l.1-.1c.1 0 .2-.2.2-.3.5-.1.4-.3.3-.3zm-12.3 1.1s-.1 0-.2-.1l-.1-.1h-.2c-.1 0-.1-.1-.2-.1-.2-.1-.3-.1-.5-.1-.1 0-.2-.1-.3-.1h-.1s-.1 0-.1-.1c-.1 0-.2 0-.2-.1h-.1s0 .1-.1.1V153.8c0 .2 0 .5.2.5.1 0 .2-.1.3-.1h.1c.1 0 .2-.1.2-.1.2-.1.3-.1.5-.2 0 0 .1 0 .1-.1h.1c.1 0 .2-.1.2-.2v-.1l.1-.1v-.2-.4-1.3-4.9-1.4-.4-.2s0-.1.1-.1l.2-.1.1-.2v-.1c0 .1-.1 0-.1 0z" fill="none"/></svg>