<?xml version="1.0" encoding="utf-8"?>
<!-- Generator: Adobe Illustrator 22.1.0, SVG Export Plug-In . SVG Version: 6.00 Build 0)  -->
<svg version="1.1" id="图层_1" xmlns="http://www.w3.org/2000/svg" xmlns:xlink="http://www.w3.org/1999/xlink" x="0px" y="0px"
	 viewBox="0 0 25 25" style="enable-background:new 0 0 25 25;" xml:space="preserve">
<style type="text/css">
	.st0{fill:#FFFFFF;}
	.st1{fill:none;}
</style>
<path class="st0" d="M22.4,0H2.6C1.2,0,0,1.2,0,2.6v19.7C0,23.8,1.2,25,2.6,25h19.7c1.5,0,2.6-1.2,2.6-2.6V2.6C25,1.2,23.8,0,22.4,0
	z M8.6,19.4H5.8v-9.2h2.8V19.4z M7.2,8.9c-0.9,0-1.7-0.8-1.7-1.7s0.8-1.7,1.7-1.7s1.7,0.8,1.7,1.7S8.2,8.9,7.2,8.9z M19.4,19.3h-2.8
	v-4.5c0-1.1,0-2.5-1.5-2.5s-1.7,1.2-1.7,2.4v4.6h-2.8v-9.1h2.7v1.2h0.1c0.4-0.8,1.3-1.5,2.7-1.5c2.9,0,3.4,1.9,3.4,4.4v5H19.4z"/>
<g>
	<path class="st1" d="M141.2,141.9c0-0.1,0.2-0.1,0.2-0.1v-0.1c0,0,0,0,0.1,0c0,0,0-0.1,0.1-0.1l0.1-0.1c0-0.1,0.1-0.1,0.1-0.2h0.1
		c0,0,0-0.1,0.1-0.1c0,0,0,0,0.1,0c0,0,0,0,0-0.1c0.1-0.1,0.1-0.2,0.2-0.3c0,0,0,0,0-0.1c0,0,0,0,0.1-0.1c0,0,0.1-0.1,0.1-0.2
		c0.1-0.1,0.1-0.2,0.2-0.3V140l0.1-0.1c0,0,0-0.1,0.1-0.1l0,0c0-0.1,0-0.1,0.1-0.1s0.1,0,0.2,0c0.1,0,0.1,0,0.2,0
		c0.1,0,0.2,0.1,0.2,0.2c0,0,0,0.1,0.1,0.1c0,0,0.1,0,0.1,0.1v0.1c0,0,0,0,0.1,0.1c0,0,0,0.1,0.1,0.2c0.1,0.1,0.2,0.3,0.2,0.4v0.1
		l0.1,0.1c0,0.1,0,0.1,0,0.2c0,0.1,0.1,0.2,0.1,0.3c0.1,0.2,0.1,0.5,0.2,0.7c0.1,0,0.1,0.1,0.2,0.1c0.1,0,0.1,0.1,0.2,0
		c0.1,0,0.2-0.1,0.2-0.1h0.1l0.1-0.1h0.1c0,0,0-0.1,0.1-0.1l0.1-0.1v-0.1c0-0.1,0.1-0.1,0.1-0.1c0.1-0.1,0.1-0.4,0.1-0.5v-0.1v-0.1
		c0-0.1-0.1-0.1-0.1-0.1c0-0.1,0-0.1-0.1-0.2c0,0,0,0-0.1,0c0-0.1-0.1-0.1-0.1-0.2c0,0-0.1,0-0.1-0.1c-0.1,0-0.1-0.1-0.1-0.1
		c-0.1,0-0.1-0.1-0.2-0.1c0,0-0.1,0-0.1-0.1c-0.1,0-0.2-0.1-0.2-0.1l0,0c0.1,0,0.2,0,0.2,0c0.2,0,0.4,0,0.7,0c0.2,0,0.4,0,0.6,0
		c0.4,0,0.8,0,1.2,0c0.2,0,0.4,0,0.6,0c0.1,0,0.2,0,0.3,0h0.1c0.1,0,0.2,0,0.3-0.1s0-0.4-0.1-0.4c0-0.1-0.1-0.1-0.2-0.2
		c0,0,0,0,0-0.1l-0.1-0.1c0,0-0.1,0-0.1-0.1l-0.1-0.1c0,0-0.1,0-0.1-0.1c-0.1-0.1-0.2-0.2-0.3-0.2c0,0,0,0-0.1-0.1s-0.1-0.1-0.2-0.2
		c0,0,0,0-0.1,0c0,0,0,0-0.1,0c-0.1-0.1-0.2-0.2-0.3-0.2s-0.1,0.1-0.2,0.2c0,0-0.1,0-0.1,0.1c0,0,0,0,0,0.1l-0.1,0.1c0,0,0,0-0.1,0
		v0.1l0,0c0,0,0,0,0,0.1c0,0-0.1,0-0.1,0.1l-0.1,0.1l-0.1,0.1c0,0,0,0.1-0.1,0.1H146c-0.1,0-0.1,0.1-0.2,0c-0.1,0-0.1,0-0.2,0
		c-0.2,0-0.4,0-0.5,0c-0.2,0-0.4,0-0.5,0s-0.2,0-0.3,0s-0.1,0-0.2,0c-0.1,0-0.1,0-0.2,0c-0.1,0-0.2,0-0.3,0s-0.1,0-0.2,0h-0.1
		c0,0,0-0.1,0-0.2l0.1-0.1c0-0.1,0.1-0.1,0.1-0.2c0,0,0.1,0,0.1-0.1s0.1-0.1,0.1-0.2l0,0c0-0.1,0-0.1,0.1-0.2c0-0.1,0.1-0.2,0.1-0.2
		l0.1-0.1c0,0,0-0.1,0.1-0.1c0,0,0.1,0,0.1-0.1c0,0,0-0.1,0.1-0.1s0.1,0,0.2,0c0.1,0,0.3-0.1,0.3-0.2c0-0.1,0-0.2-0.1-0.2
		c-0.1-0.1-0.1-0.1-0.2-0.2c0,0-0.1,0-0.1-0.1c-0.1-0.1-0.3-0.1-0.4-0.2c-0.1,0-0.2-0.1-0.3-0.1c0,0,0,0-0.1-0.1h-0.1
		c0,0-0.1,0-0.1-0.1h-0.1c-0.1,0-0.1,0-0.2-0.1c-0.2,0-0.3-0.1-0.5-0.1h-0.1v0.1c-0.1,0.2-0.1,0.4-0.2,0.6c0,0.1-0.1,0.2-0.1,0.3
		s0,0.2-0.1,0.3c0,0.1-0.1,0.1-0.1,0.1v0.1c0,0.1-0.1,0.2-0.1,0.3s0,0.1,0,0.2c0,0-0.1,0.1-0.1,0.2v0.1l-0.1,0.1v0.1
		c0,0.1-0.1,0.1-0.1,0.2c0,0.1,0,0.1,0,0.2c0,0.1-0.1,0.2-0.2,0.3v0.1c0,0.1-0.1,0.1-0.1,0.2c0,0.1-0.1,0.2-0.1,0.3
		s-0.1,0.1-0.1,0.2l-0.1,0.1v0.1l-0.1,0.1v0.1c0,0-0.1,0.1-0.1,0.2c0,0.1-0.1,0.1-0.1,0.2c0,0.1-0.1,0.1-0.1,0.2c0,0,0,0.1-0.1,0.1
		v0.1c0,0.1-0.1,0.1-0.1,0.1s0,0,0,0.1l0,0c0,0.1-0.1,0.1-0.1,0.2c0,0-0.1,0-0.1,0.1c0,0,0,0.1-0.1,0.2l0,0c0,0,0,0.1-0.1,0.1v0.1
		l-0.1,0.1v0.1c0,0.1-0.1,0.1-0.1,0.1s0,0,0,0.1s-0.1,0.1-0.1,0.2c-0.1,0.1-0.1,0.3-0.2,0.4l-0.1,0.1v0.1l-0.1,0.1
		c-0.1,0.1-0.1,0.2-0.2,0.3l-0.1,0.1c-0.1,0.1,0.1,0.2,0.2,0.3c0,0,0,0.1,0.1,0.1s0.2,0.1,0.3,0c0,0,0-0.1,0.1-0.1h0.1
		c0,0,0,0,0.1-0.1l0.1-0.1c0.1,0,0.1-0.1,0.1-0.1c0.1,0,0.1-0.1,0.1-0.2h0.1c0,0,0-0.1,0.1-0.1c0,0,0-0.1,0.1-0.1h0.1
		c0,0,0-0.1,0.1-0.1s0.1-0.1,0.2-0.1c0,0,0,0,0-0.1c0,0,0,0,0.1,0c0,0,0-0.1,0.1-0.1c0,0,0.1,0,0.1-0.1l0.1-0.1h0.1c0,0,0,0,0-0.1
		c0,0,0,0,0.1,0c0,0,0,0,0-0.1C141.2,142.1,141.2,142,141.2,141.9C141.2,142,141.2,142,141.2,141.9z M157,139.2
		c0-0.1-0.1-0.1-0.1-0.1l-0.1-0.1l-0.1-0.1l-0.1-0.1c0,0-0.1,0-0.1-0.1l-0.1-0.1c-0.1-0.1-0.2-0.1-0.2-0.2l0,0
		c-0.1,0-0.1-0.1-0.2-0.1c0,0,0-0.1-0.1-0.1l-0.1-0.1h-0.1c-0.1-0.1-0.4-0.4-0.6-0.3c-0.1,0.1-0.2,0.2-0.3,0.3c0,0-0.1,0-0.1,0.1
		v0.1l-0.1,0.1c0,0,0,0.1-0.1,0.1l-0.1,0.1c-0.1,0.1-0.2,0.3-0.3,0.4c-0.1,0-0.1,0-0.2,0c-0.1,0-0.1,0-0.1,0h-0.1
		c-0.1,0-0.3,0-0.4,0c-0.2,0-0.3,0-0.5,0c-0.1,0-0.2,0-0.3,0s-0.3,0-0.4,0c-0.1,0-0.1,0-0.2,0h-0.1c-0.1,0-0.2,0-0.2,0
		c0-0.1,0.1-0.2,0.1-0.2s0-0.1,0.1-0.1c0-0.1,0.1-0.1,0.1-0.1l0.1-0.1c0,0,0,0,0.1-0.1c0-0.1,0-0.1,0.1-0.2c0,0,0.1,0,0.1-0.1
		c0,0,0,0,0-0.1s0.2-0.2,0.2-0.2c0.1,0,0.2-0.1,0.3-0.1h0.1c0.1,0,0.1-0.1,0.2-0.2v-0.1c0,0,0-0.1-0.1-0.1c0,0-0.1,0-0.1-0.1
		l-0.1-0.1c-0.1-0.1-0.3-0.2-0.5-0.2h-0.1c0,0-0.1,0-0.1-0.1c0,0-0.1,0-0.1-0.1c-0.1,0-0.2,0-0.3-0.1c-0.1,0-0.1-0.1-0.2-0.1
		c-0.1,0-0.1,0-0.2,0c-0.1,0-0.1-0.1-0.2-0.1c0,0,0,0-0.1,0l-0.1,0.1v0.1c0,0,0,0.1-0.1,0.1v0.1c-0.1,0.2-0.2,0.4-0.2,0.6v0.1
		c0,0,0,0.1-0.1,0.1v0.1c0,0.1-0.1,0.2-0.1,0.3v0.1c0,0.1-0.1,0.1-0.1,0.2v0.1c-0.2,0.4-0.4,0.7-0.5,1.1c0,0,0,0,0,0.1
		s-0.1,0.1-0.1,0.2l-0.1,0.1c0,0,0,0.1-0.1,0.1l-0.1,0.1v0.1l-0.1,0.1c0,0-0.1,0.1-0.1,0.2c0,0,0,0-0.1,0.1c0,0.1-0.1,0.1-0.1,0.2
		l-0.1,0.1v0.1c-0.1,0.1-0.2,0.2-0.3,0.4v0.1l-0.1,0.1v0.1c-0.1,0.1-0.1,0.1-0.2,0.2l-0.1,0.1c0,0,0,0.1-0.1,0.1c0,0-0.1,0-0.1,0.1
		c-0.1,0.1-0.1,0.1-0.1,0.2c0,0.1-0.1,0.1-0.1,0.2c0,0.1,0.1,0.2,0.2,0.3c0,0,0.1,0.1,0.2,0c0,0,0,0,0.1-0.1c0,0,0.1,0,0.1-0.1
		l0.1-0.1h0.1l0.1-0.1h0.1c0,0,0-0.1,0.1-0.1c0,0,0,0,0.1,0c0,0,0-0.1,0.1-0.1l0.1-0.1l0.1-0.1c0,0,0.1,0,0.1-0.1c0,0,0,0,0-0.1
		c0,0,0,0,0.1,0c0,0,0,0,0.1-0.1c0.1,0,0.1-0.1,0.2-0.1c0,0,0,0,0-0.1c0,0,0.1,0,0.1-0.1l0.1-0.1l0.1-0.1c0-0.1,0.1-0.1,0.1-0.2
		c0.2-0.2,0.4-0.4,0.6-0.7c0.1-0.1,0.1-0.2,0.2-0.2c0,0,0,0,0-0.1l0.1-0.1l0.1-0.1c0,0,0.1-0.1,0.2-0.1l0.2,0.2c0,0.1,0,0.1,0.1,0.2
		l0.1,0.1v0.1c0.1,0.2,0.2,0.3,0.2,0.5c0,0.1,0,0.1,0,0.2c0,0.1,0.1,0.1,0.1,0.2v0.1v0.1c0,0.1,0,0.2,0.1,0.3c0,0.1,0,0.1,0,0.2v0.1
		v0.1c0,0,0,0.1,0.1,0.1c0,0.1,0,0.1,0.1,0.2l0.1,0.1c0,0.1,0.2,0.2,0.3,0.2s0.1,0,0.2,0c0,0,0,0,0.1,0c0,0,0.1,0,0.1-0.1
		c0,0,0,0,0.1,0c0.1-0.1,0.1-0.1,0.2-0.2c0.1-0.1,0.2-0.2,0.3-0.3l0.1-0.1c0-0.1,0.1-0.3,0.1-0.4c0-0.1,0-0.2,0-0.4
		c0-0.1,0-0.1,0-0.2c0-0.1-0.1-0.1-0.1-0.2c0-0.1,0-0.1-0.1-0.2c0,0,0,0-0.1-0.1c0-0.1-0.1-0.1-0.1-0.2c0,0-0.1,0-0.1-0.1
		c-0.1,0-0.1-0.1-0.1-0.2h-0.1c0,0,0-0.1-0.1-0.1l-0.1-0.1l0,0c-0.1-0.1-0.2-0.1-0.2-0.2c0.1-0.1,0.2,0,0.3,0s0.1,0,0.2,0
		c0.1,0,0.3,0,0.4,0c0.1,0,0.3,0,0.3,0h0.1c0.1,0,0.3,0,0.4,0c0.6,0,1.2,0,1.9,0c0.1,0,0.3,0,0.4,0h0.1c0.1,0,0.2,0,0.3,0h0.1
		c0.1,0,0.2-0.1,0.1-0.2C157,139.3,157,139.2,157,139.2z M150.7,151.7C150.8,151.7,150.8,151.7,150.7,151.7c0.2-0.1,0.4-0.2,0.4-0.3
		s0.1-0.2,0-0.3V151c0-0.2,0-0.4,0-0.5s0-0.3,0-0.4c0-1,0-2,0-3.1c0-0.2,0-0.3,0-0.5c0-0.1,0-0.1,0-0.2c0-0.1,0-0.2,0-0.3
		s0.2-0.1,0.2-0.1c0.1-0.1,0.1-0.1,0.2-0.2c0.1,0,0.2-0.2,0.1-0.3l-0.1-0.1c-0.1-0.1-0.2-0.2-0.3-0.3l-0.1-0.1
		c-0.1,0-0.1-0.1-0.2-0.1c-0.1-0.1-0.2-0.1-0.2-0.2h-0.1c0,0,0,0-0.1-0.1c-0.1,0-0.1-0.1-0.2-0.1c-0.1,0-0.1-0.1-0.2-0.1H150
		l-0.1-0.1c-0.1,0-0.3,0-0.3,0l-0.1,0.1c0,0,0,0,0,0.1l-0.1,0.1c0,0,0,0.1-0.1,0.1l-0.1,0.1v0.1c0,0.1-0.1,0.1-0.2,0.2
		c-0.1,0-0.2,0-0.2,0c-0.1,0-0.3,0-0.4,0c-0.4,0-0.7,0-1.1,0c-0.2,0-0.4,0-0.6,0c-0.1,0-0.2,0-0.2,0h-0.1c0,0,0-0.1-0.1-0.1h-0.1
		c0,0,0,0-0.1,0l-0.1-0.1h-0.1c0,0-0.1,0-0.1-0.1c-0.1-0.1-0.3-0.1-0.4-0.2c-0.1,0-0.2,0-0.3-0.1c0-0.1,0.1-0.2,0.1-0.2
		s0-0.1,0.1-0.1l0.1-0.1c0-0.1,0-0.2,0.1-0.3v-0.1c0-0.2,0-0.4-0.1-0.5c0-0.1-0.1-0.1-0.1-0.2v-0.1c0-0.1-0.2-0.1-0.3-0.2
		c-0.1,0-0.1-0.1-0.1-0.1c-0.1,0-0.1-0.1-0.2-0.1l-0.1-0.1h-0.1l-0.1-0.1c-0.1,0-0.1,0-0.2,0c-0.1,0-0.2-0.1-0.4-0.1
		c-0.1,0-0.1,0-0.2-0.1h-0.1c0,0-0.1,0-0.1-0.1c-0.1,0-0.2,0-0.3-0.1c-0.1,0-0.1-0.1-0.2-0.1c-0.1,0-0.2,0-0.2,0h-0.1
		c-0.1,0-0.1,0.1-0.1,0.1s-0.1,0-0.1,0.1s0,0.2,0,0.2c0,0.1,0.1,0.1,0.2,0.1c0,0,0,0.1,0.1,0.1l0.1,0.1c0.1,0.1,0.2,0.2,0.2,0.3
		l0.1,0.1c0,0,0,0,0,0.1c0,0,0.1,0,0.1,0.1c0,0,0,0.1,0.1,0.1c0,0.1,0.1,0.1,0.1,0.2c0.1,0.1,0.1,0.2,0.2,0.3c0,0,0.1,0,0.1,0.1v0.1
		c0.1,0.2,0.3,0.5,0.4,0.7c0.1,0.1,0.1,0.2,0.2,0.3v0.1c0,0,0,0,0.1,0l0.1,0.1c0.1,0,0.3-0.1,0.3,0.1c0,0.1,0,0.2,0,0.3v0.1
		c0,0.2,0,0.4,0,0.6c0,0.1,0,0.2,0,0.2c0,0.6,0,1.2,0,1.7c0,0.7,0,1.4,0,2.1c0,0.2,0,0.4,0,0.7c0,0.1,0,0.3,0,0.4c0,0.3,0,0.5,0,0.8
		c0,0.1,0,0.2-0.1,0.2c0,0.1,0,0.1,0,0.2c0,0,0,0.1,0,0.2c0,0.1,0.1,0.2,0.1,0.2l0,0c0.1,0,0.2,0.1,0.3,0.1s0.1,0,0.2-0.1
		c0.1,0,0.1,0,0.2,0h0.1c0.1,0,0.2-0.1,0.4-0.1c0.1,0,0.1-0.1,0.2-0.1c0,0,0.1,0,0.1-0.1l0.1-0.1l0.1-0.1c0-0.1,0-0.3,0-0.5
		c0-0.1,0-0.2,0-0.3s-0.1-0.2,0-0.2c0.2-0.1,0.5,0,0.7,0c0.5,0,1,0,1.5,0c0.2,0,0.4,0,0.5,0s0.2,0,0.2,0c0.1,0.1,0,0.2,0,0.3
		s0,0.2,0,0.2v0.1v0.1c0,0.1,0.1,0.1,0.1,0.1s0,0,0.1,0.1c0.1,0,0.3,0,0.3,0l0.1-0.1c0.1,0,0.1,0,0.2,0c0.1,0,0.1-0.1,0.2-0.1
		C150.6,151.8,150.6,151.8,150.7,151.7z M149.5,148.9c0,0.3,0,0.6,0,0.9c0,0.1,0,0.2,0,0.3v0.1c0,0.1-0.2,0-0.3,0.1c0,0-0.1,0-0.2,0
		h-0.1h-0.1c-0.2,0-0.5,0-0.7,0s-0.3,0-0.5,0c-0.1,0-0.2,0-0.4,0c-0.1,0-0.2,0-0.2,0c-0.1,0-0.2,0-0.2,0c-0.1,0-0.3,0-0.4-0.1v-0.1
		c0-0.2,0-0.5,0-0.7c0-0.1,0-0.2,0-0.2v-0.1c0,0,0-0.1,0-0.2c0-0.1,0-0.4,0-0.5c0,0,0.1,0,0.2,0c0.1,0,0.2,0,0.3,0h0.1
		c0.5,0,1,0,1.5,0c0.2,0,0.3,0,0.5,0h0.1c0.1,0,0.2,0,0.3,0C149.5,148.5,149.5,148.7,149.5,148.9z M149.5,147.5c0,0.1,0,0.1,0,0.2
		c0,0-0.1,0-0.2,0c-0.1,0-0.2,0-0.3,0s-0.1,0-0.2,0c-0.1,0-0.2,0-0.3,0s-0.2,0-0.3,0s-0.2,0-0.4,0c-0.1,0-0.1,0-0.2,0
		c-0.1,0-0.2,0-0.3,0s-0.2,0-0.2,0c-0.2,0-0.5,0.1-0.6,0s0-0.3,0-0.4c0-0.2,0-0.4,0-0.7c0-0.1,0-0.2,0-0.3s0-0.4,0-0.4
		c0.1-0.1,0.2,0,0.4-0.1c0.6,0,1.2,0,1.9,0c0.2,0,0.3,0,0.5,0c0.1,0,0.2,0,0.2,0c0.1,0.1,0.1,0.2,0.1,0.3c0,0.2,0,0.5,0,0.7
		C149.5,147.1,149.5,147.3,149.5,147.5z M155.7,143C155.7,143,155.7,142.9,155.7,143c-0.1-0.1-0.1-0.1-0.1-0.1s-0.1-0.1-0.2-0.1
		l-0.1-0.1c-0.1-0.1-0.2-0.1-0.3-0.2c0,0,0,0,0-0.1c0,0,0,0-0.1,0c-0.1-0.1-0.2-0.1-0.3-0.2h-0.1l-0.1-0.1h-0.1c0,0,0,0-0.1-0.1
		s-0.2-0.1-0.4-0.1h-0.1l-0.1,0.1c0,0,0,0-0.1,0.1l-0.1,0.1c0,0-0.1,0-0.1,0.1v0.1c-0.1,0.1-0.1,0.2-0.2,0.2
		c-0.1,0.1-0.1,0.3-0.3,0.3c-0.1,0-0.2,0-0.2,0s0,0-0.1,0c-0.3,0-0.5,0-0.8,0c-0.8,0-1.6,0-2.5,0c-0.3,0-0.5,0-0.8,0
		c-0.2,0-0.4,0-0.5,0s-0.2,0-0.3,0s-0.1,0-0.2,0c-0.2,0-0.4,0-0.6,0c-0.1,0-0.3,0-0.4,0.1c0,0.1,0,0.2,0.1,0.2
		c0.1,0.1,0.1,0.2,0.2,0.3c0,0,0.1,0,0.1,0.1c0,0,0,0.1,0.1,0.1l0.2,0.1c0.1,0,0.1,0,0.1-0.1c0.1,0,0.1,0,0.2-0.1c0.1,0,0.4,0,0.5,0
		c0.3,0,0.6,0,0.8,0s0.4,0,0.6,0c0.1,0,0.2,0,0.3,0s0.3,0,0.4,0c0.5,0,0.9,0,1.4,0c0.3,0,0.6,0,0.8,0c0.1,0,0.3,0,0.4,0
		c0.1,0,0.3,0,0.3,0.1c0,0,0,0.1,0,0.2c0,0.1,0,0.2,0,0.3s0,0.3,0,0.5c0,0.3,0,0.6,0,0.9c0,1.6,0,3.1,0,4.7c0,0.5,0,0.9,0,1.4
		c0,0.2,0,0.5,0,0.6l-0.1,0.1c-0.1,0-0.1,0-0.2,0c-0.1,0-0.2,0-0.3,0s-0.3,0-0.5-0.1c-0.1,0-0.3,0-0.4-0.1c-0.1,0-0.1,0-0.2,0
		c-0.1,0-0.3-0.1-0.5-0.1c-0.1,0-0.2,0-0.3-0.1h-0.1c-0.1,0-0.1,0-0.1,0.1c-0.1,0.1-0.3,0.3-0.2,0.4c0.1,0.1,0.2,0.1,0.4,0.1
		c0.1,0,0.1,0.1,0.2,0.1c0.1,0,0.2,0,0.3,0.1l0.1,0.1h0.1l0.1,0.1h0.1l0.1,0.1h0.1c0.1,0.1,0.2,0.2,0.2,0.3v0.1l0.1,0.1
		c0,0.1,0,0.1,0,0.2c0,0.1,0.1,0.1,0.1,0.2c0,0.2,0,0.4,0.2,0.4h0.1c0.1,0,0.2,0,0.3-0.1c0.2,0,0.3-0.1,0.4-0.1h0.1
		c0,0,0.1,0,0.1-0.1h0.1c0.1,0,0.2-0.1,0.2-0.1c0.1,0,0.1,0,0.2-0.1c0.1,0,0.1-0.1,0.2-0.1h0.1l0.1-0.1c0,0,0,0,0.1,0
		c0,0,0,0,0.1-0.1h0.1c0.1-0.1,0.2-0.1,0.2-0.2c0.1-0.1,0.1-0.3,0.1-0.4c0.1-0.3,0.1-0.7,0.1-1s0-0.7,0-1c0-1.8,0-3.6,0-5.4
		c0-0.3,0-0.6,0-0.9c0-0.1,0-0.2,0-0.2c0-0.1,0-0.1,0-0.2c0-0.1,0-0.3,0-0.4l0.1-0.1h0.1l0.1-0.1h0.1l0.1-0.1c0.1,0,0.2-0.2,0.2-0.3
		C155.9,143.2,155.8,143,155.7,143z M143.4,144.1c0,0-0.1,0-0.2-0.1l-0.1-0.1c-0.1,0-0.1,0-0.2,0c-0.1,0-0.1-0.1-0.2-0.1
		c-0.2-0.1-0.3-0.1-0.5-0.1c-0.1,0-0.2-0.1-0.3-0.1h-0.1c0,0-0.1,0-0.1-0.1c-0.1,0-0.2,0-0.2-0.1h-0.1c0,0,0,0.1-0.1,0.1
		c0,0.1,0,0.3,0,0.4c0,0.2,0,0.4,0,0.6c0,0.1,0,0.1,0,0.2c0,0.1,0,0.2,0,0.3s0,0.2,0,0.3c0,0.7,0,1.5,0,2.2c0,1.4,0,2.8,0,4.2
		c0,0.1,0,0.2,0,0.3c0,0.2,0,0.5,0,0.7c0,0.1,0,0.3,0,0.4c0,0.1,0,0.1,0,0.2c0,0.2,0,0.4,0,0.5c0,0.2,0,0.5,0.2,0.5
		c0.1,0,0.2-0.1,0.3-0.1h0.1c0.1,0,0.2-0.1,0.2-0.1c0.2-0.1,0.3-0.1,0.5-0.2c0,0,0.1,0,0.1-0.1h0.1c0.1,0,0.2-0.1,0.2-0.2v-0.1
		l0.1-0.1c0-0.1,0-0.1,0-0.2c0-0.1,0-0.3,0-0.4c0-0.4,0-0.9,0-1.3c0-1.6,0-3.3,0-4.9c0-0.5,0-0.9,0-1.4c0-0.1,0-0.3,0-0.4
		c0-0.1,0-0.2,0-0.2s0-0.1,0.1-0.1l0.2-0.1l0.1-0.2v-0.1C143.5,144.2,143.4,144.1,143.4,144.1z"/>
</g>
</svg>
