<svg xmlns="http://www.w3.org/2000/svg" viewBox="0 0 158 45"><path d="M61.9 13.9c-1.4.6-2.4 1.5-3.3 2.8-1.1 1.8-1.7 4-1.7 6.8 0 2.3.4 4.3 1.1 5.9 1.1 2.4 3 3.8 5.6 4.3.7.1 1.8.2 3.2.2H74v-3.7h-6.3c-1.8 0-3.2-.3-4-1-1.2-1-1.8-3-1.8-6.1 0-2.3.4-3.9 1.2-4.8.9-1.1 2.4-1.6 4.5-1.6h6.5V13h-7c-2.1.1-3.8.3-5.2.9zm19 0c-1.4.6-2.4 1.5-3.3 2.8-1.1 1.8-1.7 4-1.7 6.8 0 2.3.4 4.3 1.1 5.9 1.1 2.4 3 3.8 5.6 4.3.7.1 1.8.2 3.2.2h7.3v-3.7h-6.4c-1.8 0-3.2-.3-4-1-1.2-1-1.8-3-1.8-6.1 0-2.3.4-3.9 1.2-4.8.9-1.1 2.4-1.6 4.5-1.6h6.5V13H86c-2 .1-3.7.3-5.1.9zm29.7-.2c-1.2-.4-3-.7-5.3-.7h-8.9v21h8.9c2 0 3.5-.1 4.4-.3 1-.2 1.9-.5 2.7-1 1.3-.8 2.2-2.1 2.8-3.8.6-1.7.8-3.5.8-5.3 0-1.9-.3-3.7-.9-5.4-.7-2.2-2.2-3.7-4.5-4.5zm0 13c-.3 1-.7 1.7-1.1 2.3-.8.9-2.2 1.3-4.1 1.3h-5.1V16.8h5.1c1.8 0 3 .4 3.9 1.1.6.5 1 1.3 1.3 2.3.3 1 .5 2.2.5 3.4-.1 1.1-.2 2.1-.5 3.1zM124 13.5c-.9.3-1.7.8-2.5 1.4-2.3 2-3.4 4.9-3.4 8.5 0 3.3.8 5.9 2.4 7.8 1.1 1.3 2.7 2.2 4.6 2.5 1.2.2 2.6.3 4.2.3h6.5v-3.7h-6c-2.2 0-3.8-.4-4.7-1.1-.9-.7-1.5-2-1.6-3.8h12.3v-3.7h-12.3c.1-1 .2-1.7.3-2.1.1-.4.3-.8.7-1.3.5-.6 1.1-1 1.8-1.2.7-.2 1.8-.3 3.4-.3h6.2v-3.7h-8.2c-1.7 0-2.8.1-3.7.4zm34-.4h-5.5l-4.6 6.9-4.2-6.9h-5.6l7 10.4-7.2 10.5h5.4l4.6-7.2 4.7 7.2h5.4l-7.3-10.6 7.3-10.3z" fill="#fff"/><linearGradient id="a" gradientUnits="userSpaceOnUse" x1="494.99" y1="133.182" x2="525.94" y2="102.232" gradientTransform="translate(-491 -95)"><stop offset="0" stop-color="#0eacd0"/><stop offset="1" stop-color="#1ed4ca"/></linearGradient><path d="M0 34.2L19.2 45v-5.3L4.2 32c-.2-.1-.3-.2-.3-.4V19.7c0-.3.2-.5.5-.5.1 0 .2 0 .2.1l14.6 8v-4.8L0 11.6v22.6zM19.7 0L.5 10.8l19.2 10.8 18.8-10.8L19.7 0zm9.7 21.7l9.1-5s.5-.3.5-.8v-4.2L20.2 22.4V45l18.3-10.5s.5-.2.5-.9v-4.7l-13.6 8c-.1 0-.2.1-.2.1-.3 0-.5-.2-.5-.5V24.6c0-.2.1-.3.3-.4l4.4-2.5z" fill="url(#a)"/><linearGradient id="b" gradientUnits="userSpaceOnUse" x1="9.991" y1="36.014" x2="28.217" y2="17.788"><stop offset="0" stop-color="#00829f"/><stop offset="1" stop-color="#19beb5"/></linearGradient><path d="M25.7 35.6V24.9l3.7-2 9.1 5.2-12.8 7.5zM15 26l4.2 2.3v10.3L5.5 31.5 15 26zM4.9 20.5l9.1 5-9.1 5.2V20.5z" fill-rule="evenodd" clip-rule="evenodd" fill="url(#b)"/></svg>