<?xml version="1.0" encoding="utf-8"?>
<!-- Generator: Adobe Illustrator 22.1.0, SVG Export Plug-In . SVG Version: 6.00 Build 0)  -->
<svg version="1.1" id="图层_1" xmlns="http://www.w3.org/2000/svg" xmlns:xlink="http://www.w3.org/1999/xlink" x="0px" y="0px"
	 viewBox="0 0 158 45" style="enable-background:new 0 0 158 45;" xml:space="preserve">
<style type="text/css">
	.st0{fill:#FFFFFF;}
	.st1{fill:url(#SVGID_1_);}
	.st2{fill-rule:evenodd;clip-rule:evenodd;fill:url(#SVGID_2_);}
</style>
<g>
	<g>
		<g>
			<path class="st0" d="M61.9,13.9c-1.4,0.6-2.4,1.5-3.3,2.8c-1.1,1.8-1.7,4-1.7,6.8c0,2.3,0.4,4.3,1.1,5.9c1.1,2.4,3,3.8,5.6,4.3
				c0.7,0.1,1.8,0.2,3.2,0.2h7.2v-3.7h-6.3c-1.8,0-3.2-0.3-4-1c-1.2-1-1.8-3-1.8-6.1c0-2.3,0.4-3.9,1.2-4.8c0.9-1.1,2.4-1.6,4.5-1.6
				h6.5v-3.7h-7C65,13.1,63.3,13.3,61.9,13.9z M80.9,13.9c-1.4,0.6-2.4,1.5-3.3,2.8c-1.1,1.8-1.7,4-1.7,6.8c0,2.3,0.4,4.3,1.1,5.9
				c1.1,2.4,3,3.8,5.6,4.3c0.7,0.1,1.8,0.2,3.2,0.2h7.3v-3.7h-6.4c-1.8,0-3.2-0.3-4-1c-1.2-1-1.8-3-1.8-6.1c0-2.3,0.4-3.9,1.2-4.8
				c0.9-1.1,2.4-1.6,4.5-1.6h6.5v-3.7h-7.1C84,13.1,82.3,13.3,80.9,13.9z M110.6,13.7c-1.2-0.4-3-0.7-5.3-0.7h-8.9V34h8.9
				c2,0,3.5-0.1,4.4-0.3c1-0.2,1.9-0.5,2.7-1c1.3-0.8,2.2-2.1,2.8-3.8c0.6-1.7,0.8-3.5,0.8-5.3c0-1.9-0.3-3.7-0.9-5.4
				C114.4,16,112.9,14.5,110.6,13.7z M110.6,26.7c-0.3,1-0.7,1.7-1.1,2.3c-0.8,0.9-2.2,1.3-4.1,1.3h-5.1V16.8h5.1
				c1.8,0,3,0.4,3.9,1.1c0.6,0.5,1,1.3,1.3,2.3c0.3,1,0.5,2.2,0.5,3.4C111,24.7,110.9,25.7,110.6,26.7z M124,13.5
				c-0.9,0.3-1.7,0.8-2.5,1.4c-2.3,2-3.4,4.9-3.4,8.5c0,3.3,0.8,5.9,2.4,7.8c1.1,1.3,2.7,2.2,4.6,2.5c1.2,0.2,2.6,0.3,4.2,0.3h6.5
				v-3.7h-6c-2.2,0-3.8-0.4-4.7-1.1c-0.9-0.7-1.5-2-1.6-3.8h12.3v-3.7h-12.3c0.1-1,0.2-1.7,0.3-2.1c0.1-0.4,0.3-0.8,0.7-1.3
				c0.5-0.6,1.1-1,1.8-1.2c0.7-0.2,1.8-0.3,3.4-0.3h6.2v-3.7h-8.2C126,13.1,124.9,13.2,124,13.5z M158,13.1h-5.5l-4.6,6.9l-4.2-6.9
				h-5.6l7,10.4L137.9,34h5.4l4.6-7.2l4.7,7.2h5.4l-7.3-10.6L158,13.1z"/>
		</g>
	</g>
	<g>
		<g>
			<g>
				
					<linearGradient id="SVGID_1_" gradientUnits="userSpaceOnUse" x1="494.9899" y1="133.1822" x2="525.9399" y2="102.2322" gradientTransform="matrix(1 0 0 1 -491 -95)">
					<stop  offset="0" style="stop-color:#0EACD0"/>
					<stop  offset="1" style="stop-color:#1ED4CA"/>
				</linearGradient>
				<path class="st1" d="M0,34.2L19.2,45v-5.3L4.2,32l0,0c-0.2-0.1-0.3-0.2-0.3-0.4V19.7c0-0.3,0.2-0.5,0.5-0.5c0.1,0,0.2,0,0.2,0.1
					l0,0l14.6,8v-4.8L0,11.6V34.2z M19.7,0L0.5,10.8l19.2,10.8l18.8-10.8L19.7,0z M29.4,21.7L29.4,21.7l9.1-5c0,0,0.5-0.3,0.5-0.8
					v-4.2L20.2,22.4V45l18.3-10.5c0,0,0.5-0.2,0.5-0.9v-4.7l-13.6,8l0,0c-0.1,0-0.2,0.1-0.2,0.1c-0.3,0-0.5-0.2-0.5-0.5V24.6
					c0-0.2,0.1-0.3,0.3-0.4l0,0L29.4,21.7L29.4,21.7z"/>
			</g>
		</g>
		<linearGradient id="SVGID_2_" gradientUnits="userSpaceOnUse" x1="9.9914" y1="36.0136" x2="28.2174" y2="17.7876">
			<stop  offset="0" style="stop-color:#00829F"/>
			<stop  offset="1" style="stop-color:#19BEB5"/>
		</linearGradient>
		<path class="st2" d="M25.7,35.6V24.9l3.7-2l9.1,5.2L25.7,35.6z M15,26l4.2,2.3v10.3L5.5,31.5L15,26z M4.9,20.5l9.1,5l-9.1,5.2
			V20.5z"/>
	</g>
</g>
</svg>
