<?xml version="1.0" encoding="utf-8"?>
<!-- Generator: Adobe Illustrator 22.1.0, SVG Export Plug-In . SVG Version: 6.00 Build 0)  -->
<svg version="1.1" id="图层_1" xmlns="http://www.w3.org/2000/svg" xmlns:xlink="http://www.w3.org/1999/xlink" x="0px" y="0px"
	 viewBox="0 0 89 90" style="enable-background:new 0 0 89 90;" xml:space="preserve">
<style type="text/css">
	.st0{fill:#FFFFFF;}
</style>
<g>
	<g>
		<path class="st0" d="M7.4,15.7h74.2c4.1,0,7.4-3.5,7.4-7.8C89,3.5,85.7,0,81.6,0H7.4C3.3,0,0,3.5,0,7.8S3.3,15.7,7.4,15.7z
			 M81.6,74.3H7.4c-4.1,0-7.4,3.5-7.4,7.8C0,86.5,3.3,90,7.4,90h74.2c4.1,0,7.4-3.5,7.4-7.8C89,77.9,85.7,74.3,81.6,74.3z
			 M81.6,37.2H7.4C3.3,37.2,0,40.7,0,45c0,4.3,3.3,7.8,7.4,7.8h74.2c4.1,0,7.4-3.5,7.4-7.8C89,40.7,85.7,37.2,81.6,37.2z"/>
	</g>
</g>
</svg>
