<?xml version="1.0" encoding="utf-8"?>
<!-- Generator: Adobe Illustrator 22.1.0, SVG Export Plug-In . SVG Version: 6.00 Build 0)  -->
<svg version="1.1" id="图层_1" xmlns="http://www.w3.org/2000/svg" xmlns:xlink="http://www.w3.org/1999/xlink" x="0px" y="0px"
	 viewBox="0 0 25 25" style="enable-background:new 0 0 25 25;" xml:space="preserve">
<style type="text/css">
	.st0{fill:#FFFFFF;}
</style>
<g>
	<g>
		<path class="st0" d="M22.4,0H2.6C1.2,0,0,1.2,0,2.6v19.7C0,23.8,1.2,25,2.6,25h19.7c1.5,0,2.6-1.2,2.6-2.6V2.6
			C25,1.2,23.8,0,22.4,0z M18.6,19.6c-1,1-4.8,0.1-8.5-3.7c-3.7-3.7-4.7-7.5-3.7-8.5C7.3,6.5,8.3,5,9.9,7s0.8,2.6-0.1,3.5
			c-0.6,0.6,0.7,2.2,2.1,3.6s3,2.7,3.6,2.1c0.9-0.9,1.5-1.7,3.5-0.1S19.5,18.7,18.6,19.6z"/>
	</g>
</g>
</svg>
