<?xml version="1.0" encoding="utf-8"?>
<!-- Generator: Adobe Illustrator 22.1.0, SVG Export Plug-In . SVG Version: 6.00 Build 0)  -->
<svg version="1.1" id="illustration1" xmlns="http://www.w3.org/2000/svg" xmlns:xlink="http://www.w3.org/1999/xlink" x="0px"
	 y="0px" viewBox="0 0 1257 1103" style="enable-background:new 0 0 1257 1103;" xml:space="preserve">
<style type="text/css">
	.st0{fill:url(#SVGID_1_);}
	.st1{fill:#1ED4CA;}
	.st2{fill:url(#SVGID_2_);}
	.st3{opacity:0.8;fill:#FFFFFF;enable-background:new    ;}
	.st4{fill:url(#SVGID_3_);}
	.st5{fill:url(#SVGID_4_);}
	.st6{fill:url(#SVGID_5_);}
	.st7{opacity:0.4;fill:url(#SVGID_6_);}
	.st8{fill:#FFFFFF;}
	.st9{fill:url(#SVGID_7_);}
	.st10{fill:url(#SVGID_8_);}
	.st11{opacity:0.4;fill:url(#SVGID_9_);}
	.st12{fill:url(#SVGID_10_);}
	.st13{fill:url(#SVGID_11_);}
	.st14{opacity:0.4;fill:url(#SVGID_12_);}
	.st15{fill:url(#SVGID_13_);}
	.st16{fill:url(#SVGID_14_);}
	.st17{opacity:0.4;fill:url(#SVGID_15_);}
	.st18{fill:url(#SVGID_16_);}
	.st19{fill:url(#SVGID_17_);}
	.st20{opacity:0.4;fill:url(#SVGID_18_);}
	.st21{fill:url(#SVGID_19_);}
	.st22{fill:url(#SVGID_20_);}
	.st23{opacity:0.4;fill:url(#SVGID_21_);}
	.st24{fill:url(#SVGID_22_);}
	.st25{fill:url(#SVGID_23_);}
	.st26{fill:url(#SVGID_24_);}
	.st27{opacity:0.4;fill:url(#SVGID_25_);}
	.st28{fill:url(#SVGID_26_);}
	.st29{fill:url(#SVGID_27_);}
	.st30{opacity:0.4;fill:url(#SVGID_28_);}
	.st31{fill:url(#SVGID_29_);}
	.st32{fill:url(#SVGID_30_);}
	.st33{opacity:0.4;fill:url(#SVGID_31_);}
	.st34{enable-background:new    ;}
	.st35{fill:url(#SVGID_32_);}
	.st36{fill:url(#SVGID_33_);}
</style>
<linearGradient id="SVGID_1_" gradientUnits="userSpaceOnUse" x1="1047.6365" y1="267.0278" x2="1143.4291" y2="215.3302">
	<stop  offset="0" style="stop-color:#FFFFFF"/>
	<stop  offset="0.5" style="stop-color:#FCFDFF"/>
	<stop  offset="0.8" style="stop-color:#F4F7FF"/>
	<stop  offset="1" style="stop-color:#E9EEFF"/>
</linearGradient>
<path class="st0" d="M1174.9,297.7L662.3,1.7c-3.4-2-6.6-2.2-8.8-0.9l-12.1,7c2.3-1.3,5.4-1.1,8.8,0.9l512.6,296
	c6.8,3.9,12.4,13.5,12.3,21.4l-1,345.6c0,3.9-1.4,6.6-3.6,7.9l12.1-7c2.2-1.3,3.6-4,3.6-7.9l1-345.6
	C1187.3,311.2,1181.8,301.6,1174.9,297.7z"/>
<g>
	<path class="st1" d="M1162.9,304.7c6.8,3.9,12.4,13.5,12.3,21.4l-1,345.6c0,7.9-5.6,11-12.4,7.1l-512.6-296
		c-6.8-3.9-12.4-13.5-12.3-21.4l1-345.6c0-7.9,5.6-11,12.4-7.1L1162.9,304.7z"/>
</g>
<linearGradient id="SVGID_2_" gradientUnits="userSpaceOnUse" x1="647.0968" y1="339.4158" x2="1165.0051" y2="339.4158">
	<stop  offset="0" style="stop-color:#FFFFFF"/>
	<stop  offset="0.5" style="stop-color:#FCFDFF"/>
	<stop  offset="0.8" style="stop-color:#F4F7FF"/>
	<stop  offset="1" style="stop-color:#E9EEFF"/>
</linearGradient>
<polygon class="st2" points="1164.1,641.3 1165,336 648,37.5 647.1,342.8 "/>
<path class="st3" d="M1170.1,697.8L871.4,871.5c-6.8,3.9-17.8,3.9-24.7,0l-512.6-296c-3.4-2-5.2-4.6-5.2-7.2l-0.1,18.6
	c0,2.6,1.7,5.2,5.2,7.2l512.6,296c6.8,3.9,17.9,4,24.7,0l298.8-173.6c3.4-2,5.1-4.5,5.1-7.1l0.1-18.6
	C1175.2,693.3,1173.5,695.9,1170.1,697.8z"/>
<g>
	<linearGradient id="SVGID_3_" gradientUnits="userSpaceOnUse" x1="962.5897" y1="433.9207" x2="672.9304" y2="703.0531">
		<stop  offset="0" style="stop-color:#FFFFFF"/>
		<stop  offset="0.5" style="stop-color:#FCFDFF"/>
		<stop  offset="0.8" style="stop-color:#F4F7FF"/>
		<stop  offset="1" style="stop-color:#E9EEFF"/>
	</linearGradient>
	<path class="st4" d="M1170.1,683.5c6.8,3.9,6.9,10.4,0.1,14.3L871.4,871.5c-6.8,3.9-17.8,3.9-24.7,0l-512.6-296
		c-6.8-3.9-6.9-10.3-0.1-14.3l298.8-173.6c6.8-3.9,17.8-4,24.7,0L1170.1,683.5z"/>
</g>
<g>
	<path class="st1" d="M764.8,677.3c1.9,1.1,1.9,2.9,0,4l-84.1,48.9c-1.9,1.1-5,1.1-7,0l-144.3-83.3c-1.9-1.1-1.9-2.9,0-4l84.1-48.9
		c1.9-1.1,5-1.1,7,0L764.8,677.3z"/>
</g>
<path class="st1" d="M650.8,453.3l-15.8-9.1l15.7-9.1l15.8,9.1L650.8,453.3z M661.9,459.7l15.8,9.1l15.7-9.1l-15.8-9.1L661.9,459.7z
	 M688.9,475.3l15.8,9.1l15.7-9.1l-15.8-9.1L688.9,475.3z M715.8,490.9l15.8,9.1l15.7-9.1l-15.8-9.1L715.8,490.9z M774.4,506.5
	l-15.8-9.1l-15.7,9.1l15.8,9.1L774.4,506.5z M801.3,522l-15.8-9.1l-15.7,9.1l15.8,9.1L801.3,522z M828.3,537.6l-15.8-9.1l-15.7,9.1
	l15.8,9.1L828.3,537.6z M855.3,553.2l-15.8-9.1l-15.7,9.1l15.8,9.1L855.3,553.2z M882.2,568.7l-15.8-9.1l-15.7,9.1l15.8,9.1
	L882.2,568.7z M877.6,584.3l15.8,9.1l15.7-9.1l-15.8-9.1L877.6,584.3z M904.6,599.8l15.8,9.1l15.7-9.1l-15.8-9.1L904.6,599.8z
	 M963.1,615.4l-15.8-9.1l-15.7,9.1l15.8,9.1L963.1,615.4z M990.1,631l-15.8-9.1l-15.7,9.1l15.8,9.1L990.1,631z M1017,646.6
	l-15.8-9.1l-15.7,9.1l15.8,9.1L1017,646.6z M639.8,459.7l-15.8-9.1l-15.7,9.1l15.8,9.1L639.8,459.7z M635.1,475.2l15.8,9.1l15.7-9.1
	l-15.8-9.1L635.1,475.2z M662.1,490.8l15.8,9.1l15.7-9.1l-15.8-9.1L662.1,490.8z M689.1,506.3l15.8,9.1l15.7-9.1l-15.8-9.1
	L689.1,506.3z M747.6,521.9l-15.8-9.1l-15.7,9.1l15.8,9.1L747.6,521.9z M774.6,537.5l-15.8-9.1l-15.7,9.1l15.8,9.1L774.6,537.5z
	 M801.5,553.1l-15.8-9.1l-15.7,9.1l15.8,9.1L801.5,553.1z M828.5,568.6l-15.8-9.1l-15.7,9.1l15.8,9.1L828.5,568.6z M855.4,584.2
	l-15.8-9.1l-15.7,9.1l15.8,9.1L855.4,584.2z M850.8,599.7l15.8,9.1l15.7-9.1l-15.8-9.1L850.8,599.7z M877.8,615.3l15.8,9.1l15.7-9.1
	l-15.8-9.1L877.8,615.3z M936.3,630.9l-15.8-9.1l-15.7,9.1l15.8,9.1L936.3,630.9z M963.3,646.5l-15.8-9.1l-15.7,9.1l15.8,9.1
	L963.3,646.5z M974.4,652.9l-15.7,9.1l27,15.6l15.8,9.1l15.7-9.1l-15.8-9.1L974.4,652.9z M632,486.1L597.1,466l-15.7,9.1l34.9,20.1
	L632,486.1z M635.3,506.2l15.8,9.1l15.7-9.1l-15.8-9.1L635.3,506.2z M662.3,521.8l15.8,9.1l15.7-9.1l-15.8-9.1L662.3,521.8z
	 M720.8,537.4l-15.8-9.1l-15.7,9.1l15.8,9.1L720.8,537.4z M747.8,553l-15.8-9.1l-15.7,9.1l15.8,9.1L747.8,553z M774.7,568.5
	l-15.8-9.1l-15.7,9.1l15.8,9.1L774.7,568.5z M801.7,584.1l-15.8-9.1l-15.7,9.1l15.8,9.1L801.7,584.1z M828.6,599.7l-15.8-9.1
	l-15.7,9.1l15.8,9.1L828.6,599.7z M824,615.2l15.8,9.1l15.7-9.1l-15.8-9.1L824,615.2z M851,630.8l15.8,9.1l15.7-9.1l-15.8-9.1
	L851,630.8z M909.5,646.4l-15.8-9.1l-15.7,9.1l15.8,9.1L909.5,646.4z M936.5,661.9l-15.8-9.1l-15.7,9.1l15.8,9.1L936.5,661.9z
	 M947.6,668.4l-15.7,9.1l27,15.6l15.8,9.1l15.7-9.1l-15.8-9.1L947.6,668.4z M570.3,481.5l-15.7,9.1l27,15.6l15.8,9.1l15.7-9.1
	l-15.8-9.1L570.3,481.5z M608.5,521.7l15.8,9.1l15.7-9.1l-15.8-9.1L608.5,521.7z M635.5,537.3l15.8,9.1l15.7-9.1l-15.8-9.1
	L635.5,537.3z M694,552.9l-15.8-9.1l-15.7,9.1l15.8,9.1L694,552.9z M721,568.5l-15.8-9.1l-15.7,9.1l15.8,9.1L721,568.5z M747.9,584
	l-15.8-9.1l-15.7,9.1l15.8,9.1L747.9,584z M774.9,599.6l-15.8-9.1l-15.7,9.1l15.8,9.1L774.9,599.6z M801.8,615.1L786,606l-15.7,9.1
	l15.8,9.1L801.8,615.1z M797.2,630.7l15.8,9.1l15.7-9.1l-15.8-9.1L797.2,630.7z M824.2,646.2l15.8,9.1l15.7-9.1l-15.8-9.1
	L824.2,646.2z M882.7,661.8l-15.8-9.1l-15.7,9.1l15.8,9.1L882.7,661.8z M893.9,668.3l-15.7,9.1l27,15.6l15.8,9.1l15.7-9.1l-15.8-9.1
	L893.9,668.3z M543.5,496.9l-15.7,9.1l27,15.6l15.8,9.1l15.7-9.1l-15.8-9.1L543.5,496.9z M581.7,537.2l15.8,9.1l15.7-9.1l-15.8-9.1
	L581.7,537.2z M608.7,552.7l15.8,9.1l15.7-9.1l-15.8-9.1L608.7,552.7z M635.6,568.3l150.6,87l15.7-9.1l-150.6-87L635.6,568.3z
	 M797.4,661.7l15.8,9.1l15.7-9.1l-15.8-9.1L797.4,661.7z M840.1,668.2l-15.7,9.1l27,15.6l15.8,9.1l15.7-9.1l-15.8-9.1L840.1,668.2z
	 M878.3,708.4l15.8,9.1l15.7-9.1l-15.8-9.1L878.3,708.4z M1012.4,662.1l15.8,9.1l15.7-9.1l-15.8-9.1L1012.4,662.1z M932,708.5
	l15.8,9.1l15.7-9.1l-15.8-9.1L932,708.5z M905.2,724l15.8,9.1l15.7-9.1l-15.8-9.1L905.2,724z M1055.1,668.6l-15.7,9.1l15.8,9.1
	l15.7-9.1L1055.1,668.6z M1012.6,693.1l15.8,9.1l15.7-9.1l-15.8-9.1L1012.6,693.1z M985.8,708.6l15.8,9.1l15.7-9.1l-15.8-9.1
	L985.8,708.6z M959,724l15.8,9.1l15.7-9.1l-15.8-9.1L959,724z M932.2,739.5l15.8,9.1l15.7-9.1l-15.8-9.1L932.2,739.5z"/>
<g>
	<linearGradient id="SVGID_4_" gradientUnits="userSpaceOnUse" x1="998.7837" y1="993.9317" x2="998.7837" y2="893.8265">
		<stop  offset="0" style="stop-color:#FFFFFF"/>
		<stop  offset="0.4982" style="stop-color:#FCFDFF"/>
		<stop  offset="0.7974" style="stop-color:#F4F7FF"/>
		<stop  offset="1" style="stop-color:#E9EEFF"/>
	</linearGradient>
	<path class="st5" d="M1081.4,938.6c5.1,2.9,5.1,7.7,0.1,10.6l-73.2,42.5c-5.1,2.9-13.3,2.9-18.4,0l-73.7-42.5
		c-5.1-2.9-5.1-7.7-0.1-10.6l73.2-42.5c5.1-2.9,13.3-2.9,18.4,0L1081.4,938.6z"/>
</g>
<linearGradient id="SVGID_5_" gradientUnits="userSpaceOnUse" x1="912.3724" y1="971.3978" x2="1085.1951" y2="971.3978">
	<stop  offset="0.2043" style="stop-color:#E0E6FD"/>
	<stop  offset="0.5236" style="stop-color:#FFFFFF"/>
	<stop  offset="0.7261" style="stop-color:#FCFDFF"/>
	<stop  offset="0.8479" style="stop-color:#F4F6FE"/>
	<stop  offset="0.9481" style="stop-color:#E6EBFE"/>
	<stop  offset="1" style="stop-color:#DBE2FD"/>
</linearGradient>
<path class="st6" d="M1085.2,943.9c0,1.9-1.3,3.8-3.8,5.3l-73.2,42.5c-5.1,2.9-13.3,2.9-18.4,0l-73.7-42.5c-2.5-1.5-3.8-3.4-3.8-5.3
	h0v5h0c0,1.9,1.3,3.9,3.8,5.3l73.7,42.5c5.1,2.9,13.3,2.9,18.4,0l73.2-42.5c2.5-1.5,3.8-3.4,3.8-5.3h0L1085.2,943.9L1085.2,943.9z"
	/>
<g>
	<path class="st1" d="M999.1,980.9c-1.5,0-2.5-0.3-2.7-0.5L933,943.9l62.8-36.5c0.2-0.1,1.2-0.4,2.6-0.4c1.5,0,2.5,0.3,2.7,0.5
		l63.4,36.6l-62.8,36.5C1001.5,980.6,1000.6,980.9,999.1,980.9z"/>
</g>
<linearGradient id="SVGID_6_" gradientUnits="userSpaceOnUse" x1="998.7835" y1="982.1625" x2="998.7835" y2="832.2159">
	<stop  offset="2.051282e-02" style="stop-color:#2AFADF"/>
	<stop  offset="1" style="stop-color:#75FCEA;stop-opacity:0"/>
</linearGradient>
<path class="st7" d="M933,832.2v112.9l63.3,36.6c0.2,0.1,1.2,0.5,2.7,0.5c1.5,0,2.4-0.3,2.7-0.4l62.8-36.5v-113H933z"/>
<path class="st1" d="M1022.1,854.6c2.8,1.6,5.1,5.6,5.1,8.8l-0.1,46.8c0,3.2-2.3,4.5-5.1,2.9l-51-29.4c-2.8-1.6-5.1-5.6-5.1-8.8
	l0.1-46.8c0-3.2,2.3-4.5,5.1-2.9L1022.1,854.6z"/>
<g>
	<g>
		<path class="st8" d="M1003.8,862.5c1.8,1,3.2,3.5,3.2,5.5c0,2-1.4,2.8-3.2,1.8c-1.8-1-3.2-3.5-3.2-5.5
			C1000.6,862.3,1002,861.5,1003.8,862.5z"/>
	</g>
	<g>
		<path class="st8" d="M992.5,856.8c0.4,0.2,0.7,0.6,1,1.1l10.2,19.5c0.3,0.5,0.6,0.9,1,1.1c0.4,0.2,0.7,0.2,1,0l2.1-1.6
			c0.3-0.2,0.6-0.2,1,0.1c0.4,0.2,0.7,0.6,1,1.1l5.3,10.1c0.7,1.4,0.1,2.5-1,1.9l-5.3-3.1l-8.1-4.7L979,869.8c-1.1-0.6-1.7-2.5-1-3
			l13.5-10.1C991.8,856.5,992.2,856.6,992.5,856.8z"/>
	</g>
</g>
<g>
	<linearGradient id="SVGID_7_" gradientUnits="userSpaceOnUse" x1="586.5784" y1="991.4437" x2="586.5784" y2="891.3386">
		<stop  offset="0" style="stop-color:#FFFFFF"/>
		<stop  offset="0.4982" style="stop-color:#FCFDFF"/>
		<stop  offset="0.7974" style="stop-color:#F4F7FF"/>
		<stop  offset="1" style="stop-color:#E9EEFF"/>
	</linearGradient>
	<path class="st9" d="M669.2,936.1c5.1,2.9,5.1,7.7,0.1,10.6L596,989.2c-5.1,2.9-13.3,2.9-18.4,0L504,946.7
		c-5.1-2.9-5.1-7.7-0.1-10.6l73.2-42.5c5.1-2.9,13.3-2.9,18.4,0L669.2,936.1z"/>
</g>
<linearGradient id="SVGID_8_" gradientUnits="userSpaceOnUse" x1="500.1816" y1="968.9211" x2="673.0043" y2="968.9211">
	<stop  offset="0.2043" style="stop-color:#E0E6FD"/>
	<stop  offset="0.5236" style="stop-color:#FFFFFF"/>
	<stop  offset="0.7261" style="stop-color:#FCFDFF"/>
	<stop  offset="0.8479" style="stop-color:#F4F6FE"/>
	<stop  offset="0.9481" style="stop-color:#E6EBFE"/>
	<stop  offset="1" style="stop-color:#DBE2FD"/>
</linearGradient>
<path class="st10" d="M673,941.4c0,1.9-1.3,3.8-3.8,5.3L596,989.2c-5.1,2.9-13.3,2.9-18.4,0L504,946.7c-2.5-1.5-3.8-3.4-3.8-5.3h0v5
	h0c0,1.9,1.3,3.9,3.8,5.3l73.7,42.5c5.1,2.9,13.3,2.9,18.4,0l73.2-42.5c2.5-1.5,3.8-3.4,3.8-5.3h0L673,941.4L673,941.4z"/>
<g>
	<path class="st1" d="M586.9,978.4c-1.5,0-2.5-0.3-2.7-0.5l-63.4-36.6l62.8-36.5c0.2-0.1,1.2-0.4,2.6-0.4c1.5,0,2.5,0.3,2.7,0.5
		l63.4,36.6L589.5,978C589.3,978.1,588.4,978.4,586.9,978.4z"/>
</g>
<linearGradient id="SVGID_9_" gradientUnits="userSpaceOnUse" x1="586.5782" y1="978.4456" x2="586.5782" y2="828.499">
	<stop  offset="2.051282e-02" style="stop-color:#2AFADF"/>
	<stop  offset="1" style="stop-color:#75FCEA;stop-opacity:0"/>
</linearGradient>
<path class="st11" d="M520.8,828.5v112.9l63.3,36.6c0.2,0.1,1.2,0.5,2.7,0.5c1.5,0,2.4-0.3,2.7-0.4l62.8-36.5v-113H520.8z"/>
<path class="st1" d="M562.8,848.7c-3,1.7-5.5,6-5.4,9.4l0.1,50.2c0,3.5,2.5,4.9,5.5,3.1l54.6-31.5c3-1.7,5.5-6,5.4-9.4l-0.1-50.2
	c0-3.5-2.5-4.9-5.5-3.1L562.8,848.7z"/>
<g>
	<linearGradient id="SVGID_10_" gradientUnits="userSpaceOnUse" x1="769.4166" y1="1098.0216" x2="769.4166" y2="997.9165">
		<stop  offset="0" style="stop-color:#FFFFFF"/>
		<stop  offset="0.4982" style="stop-color:#FCFDFF"/>
		<stop  offset="0.7974" style="stop-color:#F4F7FF"/>
		<stop  offset="1" style="stop-color:#E9EEFF"/>
	</linearGradient>
	<path class="st12" d="M852,1042.6c5.1,2.9,5.1,7.7,0.1,10.6l-73.2,42.5c-5.1,2.9-13.3,2.9-18.4,0l-73.7-42.5
		c-5.1-2.9-5.1-7.7-0.1-10.6l73.2-42.5c5.1-2.9,13.3-2.9,18.4,0L852,1042.6z"/>
</g>
<linearGradient id="SVGID_11_" gradientUnits="userSpaceOnUse" x1="683.0198" y1="1075.499" x2="855.8425" y2="1075.499">
	<stop  offset="0.2043" style="stop-color:#E0E6FD"/>
	<stop  offset="0.5236" style="stop-color:#FFFFFF"/>
	<stop  offset="0.7261" style="stop-color:#FCFDFF"/>
	<stop  offset="0.8479" style="stop-color:#F4F6FE"/>
	<stop  offset="0.9481" style="stop-color:#E6EBFE"/>
	<stop  offset="1" style="stop-color:#DBE2FD"/>
</linearGradient>
<path class="st13" d="M855.8,1048c0,1.9-1.3,3.8-3.8,5.3l-73.2,42.5c-5.1,2.9-13.3,2.9-18.4,0l-73.7-42.5c-2.5-1.5-3.8-3.4-3.8-5.3
	h0v5h0c0,1.9,1.3,3.9,3.8,5.3l73.7,42.5c5.1,2.9,13.3,2.9,18.4,0l73.2-42.5c2.5-1.5,3.8-3.4,3.8-5.3h0L855.8,1048L855.8,1048z"/>
<g>
	<path class="st1" d="M769.7,1085c-1.5,0-2.5-0.3-2.7-0.5l-63.4-36.6l62.8-36.5c0.2-0.1,1.2-0.4,2.6-0.4c1.5,0,2.5,0.3,2.7,0.5
		l63.4,36.6l-62.8,36.5C772.1,1084.6,771.2,1085,769.7,1085z"/>
</g>
<linearGradient id="SVGID_12_" gradientUnits="userSpaceOnUse" x1="769.4164" y1="1085.0234" x2="769.4164" y2="935.077">
	<stop  offset="2.051282e-02" style="stop-color:#2AFADF"/>
	<stop  offset="1" style="stop-color:#75FCEA;stop-opacity:0"/>
</linearGradient>
<path class="st14" d="M703.6,935.1V1048l63.3,36.6c0.2,0.1,1.2,0.5,2.7,0.5c1.5,0,2.4-0.3,2.7-0.4l62.8-36.5v-113H703.6z"/>
<path class="st1" d="M745.6,955.3c-3,1.7-5.5,6-5.4,9.4l0.1,50.2c0,3.5,2.5,4.9,5.5,3.1l54.6-31.5c3-1.7,5.5-6,5.4-9.4l-0.1-50.2
	c0-3.5-2.5-4.9-5.5-3.1L745.6,955.3z"/>
<g>
	<linearGradient id="SVGID_13_" gradientUnits="userSpaceOnUse" x1="86.4112" y1="669.0028" x2="86.4112" y2="568.8976">
		<stop  offset="0" style="stop-color:#FFFFFF"/>
		<stop  offset="0.4982" style="stop-color:#FCFDFF"/>
		<stop  offset="0.7974" style="stop-color:#F4F7FF"/>
		<stop  offset="1" style="stop-color:#E9EEFF"/>
	</linearGradient>
	<path class="st15" d="M169,613.6c5.1,2.9,5.1,7.7,0.1,10.6l-73.2,42.5c-5.1,2.9-13.3,2.9-18.4,0L3.8,624.3
		c-5.1-2.9-5.1-7.7-0.1-10.6L77,571.1c5.1-2.9,13.3-2.9,18.4,0L169,613.6z"/>
</g>
<linearGradient id="SVGID_14_" gradientUnits="userSpaceOnUse" x1="1.454840e-02" y1="646.4802" x2="172.8372" y2="646.4802">
	<stop  offset="0.2043" style="stop-color:#E0E6FD"/>
	<stop  offset="0.5236" style="stop-color:#FFFFFF"/>
	<stop  offset="0.7261" style="stop-color:#FCFDFF"/>
	<stop  offset="0.8479" style="stop-color:#F4F6FE"/>
	<stop  offset="0.9481" style="stop-color:#E6EBFE"/>
	<stop  offset="1" style="stop-color:#DBE2FD"/>
</linearGradient>
<path class="st16" d="M172.8,619c0,1.9-1.3,3.8-3.8,5.3l-73.2,42.5c-5.1,2.9-13.3,2.9-18.4,0L3.8,624.3C1.3,622.8,0,620.9,0,619h0v5
	h0c0,1.9,1.3,3.9,3.8,5.3l73.7,42.5c5.1,2.9,13.3,2.9,18.4,0l73.2-42.5c2.5-1.5,3.8-3.4,3.8-5.3h0L172.8,619L172.8,619z"/>
<g>
	<path class="st1" d="M86.7,656c-1.5,0-2.5-0.3-2.7-0.5l-63.4-36.6l62.8-36.5c0.2-0.1,1.2-0.4,2.6-0.4c1.5,0,2.5,0.3,2.7,0.5
		l63.4,36.6l-62.8,36.5C89.1,655.6,88.2,656,86.7,656z"/>
</g>
<linearGradient id="SVGID_15_" gradientUnits="userSpaceOnUse" x1="86.4111" y1="656.0046" x2="86.4111" y2="506.0581">
	<stop  offset="2.051282e-02" style="stop-color:#2AFADF"/>
	<stop  offset="1" style="stop-color:#75FCEA;stop-opacity:0"/>
</linearGradient>
<path class="st17" d="M20.6,506.1V619L84,655.5c0.2,0.1,1.2,0.5,2.7,0.5c1.5,0,2.4-0.3,2.7-0.4l62.8-36.5v-113H20.6z"/>
<g>
	<linearGradient id="SVGID_16_" gradientUnits="userSpaceOnUse" x1="241.5197" y1="778.2601" x2="241.5197" y2="678.1549">
		<stop  offset="0" style="stop-color:#FFFFFF"/>
		<stop  offset="0.4982" style="stop-color:#FCFDFF"/>
		<stop  offset="0.7974" style="stop-color:#F4F7FF"/>
		<stop  offset="1" style="stop-color:#E9EEFF"/>
	</linearGradient>
	<path class="st18" d="M324.1,722.9c5.1,2.9,5.1,7.7,0.1,10.6L251,776.1c-5.1,2.9-13.3,2.9-18.4,0l-73.7-42.5
		c-5.1-2.9-5.1-7.7-0.1-10.6l73.2-42.5c5.1-2.9,13.3-2.9,18.4,0L324.1,722.9z"/>
</g>
<linearGradient id="SVGID_17_" gradientUnits="userSpaceOnUse" x1="155.1084" y1="755.7262" x2="327.9311" y2="755.7262">
	<stop  offset="0.2043" style="stop-color:#E0E6FD"/>
	<stop  offset="0.5236" style="stop-color:#FFFFFF"/>
	<stop  offset="0.7261" style="stop-color:#FCFDFF"/>
	<stop  offset="0.8479" style="stop-color:#F4F6FE"/>
	<stop  offset="0.9481" style="stop-color:#E6EBFE"/>
	<stop  offset="1" style="stop-color:#DBE2FD"/>
</linearGradient>
<path class="st19" d="M327.9,728.2c0,1.9-1.3,3.8-3.8,5.3L251,776.1c-5.1,2.9-13.3,2.9-18.4,0l-73.7-42.5c-2.5-1.5-3.8-3.4-3.8-5.3
	h0v5h0c0,1.9,1.3,3.9,3.8,5.3l73.7,42.5c5.1,2.9,13.3,2.9,18.4,0l73.2-42.5c2.5-1.5,3.8-3.4,3.8-5.3h0L327.9,728.2L327.9,728.2z"/>
<g>
	<path class="st1" d="M241.8,765.2c-1.5,0-2.5-0.3-2.7-0.5l-63.4-36.6l62.8-36.5c0.2-0.1,1.2-0.4,2.6-0.4c1.5,0,2.5,0.3,2.7,0.5
		l63.4,36.6l-62.8,36.5C244.2,764.9,243.3,765.2,241.8,765.2z"/>
</g>
<linearGradient id="SVGID_18_" gradientUnits="userSpaceOnUse" x1="241.5195" y1="765.2424" x2="241.5195" y2="615.2958">
	<stop  offset="2.051282e-02" style="stop-color:#2AFADF"/>
	<stop  offset="1" style="stop-color:#75FCEA;stop-opacity:0"/>
</linearGradient>
<path class="st20" d="M175.7,615.3v112.9l63.3,36.6c0.2,0.1,1.2,0.5,2.7,0.5c1.5,0,2.4-0.3,2.7-0.4l62.8-36.5v-113H175.7z"/>
<g>
	<path class="st1" d="M276.4,592.1c0.2,2.1,5,41.4-32.3,87.7c-37.4-3.2-32.9-47.8-32.7-50.2c1.1-0.9,22.4-17.2,32.4-36
		C254,600.7,275.3,592.5,276.4,592.1z"/>
</g>
<g>
	<path class="st8" d="M243.9,612.5c10.6-6.1,19.2-1.2,19.2,10.9c0,12.1-8.5,26.9-19.1,33c-10.6,6.1-19.2,1.2-19.2-10.9
		C224.8,633.4,233.4,618.6,243.9,612.5z"/>
</g>
<g>
	<path class="st1" d="M256.2,617.9c0.7-0.4,1.3-0.5,1.8-0.2c0.5,0.3,0.7,0.9,0.7,1.6c0,0.8-0.3,1.7-0.7,2.5l-15.4,26.7
		c-0.5,0.8-1.1,1.5-1.8,1.9s-1.3,0.5-1.8,0.2l-8.9-5.1c-0.5-0.3-0.7-0.9-0.7-1.6c0-0.8,0.3-1.7,0.7-2.5s1.1-1.5,1.8-1.9
		c0.7-0.4,1.3-0.5,1.8-0.2l7.2,4.1l13.6-23.6C254.8,618.9,255.5,618.3,256.2,617.9z"/>
</g>
<g>
	<linearGradient id="SVGID_19_" gradientUnits="userSpaceOnUse" x1="411.5455" y1="891.8959" x2="411.5455" y2="791.7908">
		<stop  offset="0" style="stop-color:#FFFFFF"/>
		<stop  offset="0.4982" style="stop-color:#FCFDFF"/>
		<stop  offset="0.7974" style="stop-color:#F4F7FF"/>
		<stop  offset="1" style="stop-color:#E9EEFF"/>
	</linearGradient>
	<path class="st21" d="M494.1,836.5c5.1,2.9,5.1,7.7,0.1,10.6L421,889.7c-5.1,2.9-13.3,2.9-18.4,0L329,847.2
		c-5.1-2.9-5.1-7.7-0.1-10.6l73.2-42.5c5.1-2.9,13.3-2.9,18.4,0L494.1,836.5z"/>
</g>
<linearGradient id="SVGID_20_" gradientUnits="userSpaceOnUse" x1="325.1342" y1="869.3621" x2="497.9568" y2="869.3621">
	<stop  offset="0.2043" style="stop-color:#E0E6FD"/>
	<stop  offset="0.5236" style="stop-color:#FFFFFF"/>
	<stop  offset="0.7261" style="stop-color:#FCFDFF"/>
	<stop  offset="0.8479" style="stop-color:#F4F6FE"/>
	<stop  offset="0.9481" style="stop-color:#E6EBFE"/>
	<stop  offset="1" style="stop-color:#DBE2FD"/>
</linearGradient>
<path class="st22" d="M498,841.8c0,1.9-1.3,3.8-3.8,5.3L421,889.7c-5.1,2.9-13.3,2.9-18.4,0L329,847.2c-2.5-1.5-3.8-3.4-3.8-5.3h0v5
	h0c0,1.9,1.3,3.9,3.8,5.3l73.7,42.5c5.1,2.9,13.3,2.9,18.4,0l73.2-42.5c2.5-1.5,3.8-3.4,3.8-5.3h0L498,841.8L498,841.8z"/>
<g>
	<path class="st1" d="M411.8,878.9c-1.5,0-2.5-0.3-2.7-0.5l-63.4-36.6l62.8-36.5c0.2-0.1,1.2-0.4,2.6-0.4c1.5,0,2.5,0.3,2.7,0.5
		l63.4,36.6l-62.8,36.5C414.3,878.5,413.3,878.9,411.8,878.9z"/>
</g>
<linearGradient id="SVGID_21_" gradientUnits="userSpaceOnUse" x1="411.5453" y1="878.8782" x2="411.5453" y2="728.9317">
	<stop  offset="2.051282e-02" style="stop-color:#2AFADF"/>
	<stop  offset="1" style="stop-color:#75FCEA;stop-opacity:0"/>
</linearGradient>
<path class="st23" d="M345.8,728.9v112.9l63.3,36.6c0.2,0.1,1.2,0.5,2.7,0.5c1.5,0,2.4-0.3,2.7-0.4l62.8-36.5v-113H345.8z"/>
<g>
	<path class="st1" d="M444.6,713.8c2.8-1.6,5.1-0.3,5.1,2.9l0.1,46.1c0,3.2-2.3,7.1-5.1,8.8l-60.3,34.8c-2.8,1.6-5.1,0.3-5.1-2.9
		l-0.1-46.1c0-3.2,2.3-7.1,5.1-8.8L444.6,713.8z"/>
</g>
<g>
	<linearGradient id="SVGID_22_" gradientUnits="userSpaceOnUse" x1="379.474" y1="761.9279" x2="449.8749" y2="761.9279">
		<stop  offset="0" style="stop-color:#FFFFFF"/>
		<stop  offset="0.4982" style="stop-color:#FCFDFF"/>
		<stop  offset="0.7974" style="stop-color:#F4F7FF"/>
		<stop  offset="1" style="stop-color:#E9EEFF"/>
	</linearGradient>
	<path class="st24" d="M448.2,715.2c0.8,0.4,1.4,1.3,1.6,2.6l-24.2,38.3l24.3,9.7c-0.2,1.4-0.7,2.8-1.5,4.1l-24.9-10.2l-8.7,13.8
		l-8.7-3.7l-24.8,38.9c-0.8-0.4-1.3-1.2-1.5-2.3l24.1-37.6l-24.3-10.2c0.1-1.5,0.7-3,1.6-4.4l33.7,13.7L448.2,715.2z"/>
</g>
<g>
	<linearGradient id="SVGID_23_" gradientUnits="userSpaceOnUse" x1="287.5386" y1="545.3799" x2="287.5386" y2="445.2747">
		<stop  offset="0" style="stop-color:#FFFFFF"/>
		<stop  offset="0.4982" style="stop-color:#FCFDFF"/>
		<stop  offset="0.7974" style="stop-color:#F4F7FF"/>
		<stop  offset="1" style="stop-color:#E9EEFF"/>
	</linearGradient>
	<path class="st25" d="M370.1,490c5.1,2.9,5.1,7.7,0.1,10.6L297,543.2c-5.1,2.9-13.3,2.9-18.4,0L205,500.6
		c-5.1-2.9-5.1-7.7-0.1-10.6l73.2-42.5c5.1-2.9,13.3-2.9,18.4,0L370.1,490z"/>
</g>
<linearGradient id="SVGID_24_" gradientUnits="userSpaceOnUse" x1="201.1273" y1="522.8459" x2="373.95" y2="522.8459">
	<stop  offset="0.2043" style="stop-color:#E0E6FD"/>
	<stop  offset="0.5236" style="stop-color:#FFFFFF"/>
	<stop  offset="0.7261" style="stop-color:#FCFDFF"/>
	<stop  offset="0.8479" style="stop-color:#F4F6FE"/>
	<stop  offset="0.9481" style="stop-color:#E6EBFE"/>
	<stop  offset="1" style="stop-color:#DBE2FD"/>
</linearGradient>
<path class="st26" d="M373.9,495.3c0,1.9-1.3,3.8-3.8,5.3L297,543.2c-5.1,2.9-13.3,2.9-18.4,0L205,500.6c-2.5-1.5-3.8-3.4-3.8-5.3h0
	v5h0c0,1.9,1.3,3.9,3.8,5.3l73.7,42.5c5.1,2.9,13.3,2.9,18.4,0l73.2-42.5c2.5-1.5,3.8-3.4,3.8-5.3h0L373.9,495.3L373.9,495.3z"/>
<g>
	<path class="st1" d="M287.8,532.3c-1.5,0-2.5-0.3-2.7-0.5l-63.4-36.6l62.8-36.5c0.2-0.1,1.2-0.4,2.6-0.4c1.5,0,2.5,0.3,2.7,0.5
		l63.4,36.6l-62.8,36.5C290.3,532,289.3,532.3,287.8,532.3z"/>
</g>
<linearGradient id="SVGID_25_" gradientUnits="userSpaceOnUse" x1="287.5385" y1="532.3622" x2="287.5385" y2="382.4156">
	<stop  offset="2.051282e-02" style="stop-color:#2AFADF"/>
	<stop  offset="1" style="stop-color:#75FCEA;stop-opacity:0"/>
</linearGradient>
<path class="st27" d="M221.8,382.4v112.9l63.3,36.6c0.2,0.1,1.2,0.5,2.7,0.5c1.5,0,2.4-0.3,2.7-0.4l62.8-36.5v-113H221.8z"/>
<g>
	<linearGradient id="SVGID_26_" gradientUnits="userSpaceOnUse" x1="1170.6083" y1="886.3154" x2="1170.6083" y2="786.2102">
		<stop  offset="0" style="stop-color:#FFFFFF"/>
		<stop  offset="0.4982" style="stop-color:#FCFDFF"/>
		<stop  offset="0.7974" style="stop-color:#F4F7FF"/>
		<stop  offset="1" style="stop-color:#E9EEFF"/>
	</linearGradient>
	<path class="st28" d="M1253.2,830.9c5.1,2.9,5.1,7.7,0.1,10.6l-73.2,42.5c-5.1,2.9-13.3,2.9-18.4,0l-73.7-42.5
		c-5.1-2.9-5.1-7.7-0.1-10.6l73.2-42.5c5.1-2.9,13.3-2.9,18.4,0L1253.2,830.9z"/>
</g>
<linearGradient id="SVGID_27_" gradientUnits="userSpaceOnUse" x1="1084.1969" y1="863.7814" x2="1257.0195" y2="863.7814">
	<stop  offset="0.2043" style="stop-color:#E0E6FD"/>
	<stop  offset="0.5236" style="stop-color:#FFFFFF"/>
	<stop  offset="0.7261" style="stop-color:#FCFDFF"/>
	<stop  offset="0.8479" style="stop-color:#F4F6FE"/>
	<stop  offset="0.9481" style="stop-color:#E6EBFE"/>
	<stop  offset="1" style="stop-color:#DBE2FD"/>
</linearGradient>
<path class="st29" d="M1257,836.3c0,1.9-1.3,3.8-3.8,5.3l-73.2,42.5c-5.1,2.9-13.3,2.9-18.4,0l-73.7-42.5c-2.5-1.5-3.8-3.4-3.8-5.3
	h0v5h0c0,1.9,1.3,3.9,3.8,5.3l73.7,42.5c5.1,2.9,13.3,2.9,18.4,0l73.2-42.5c2.5-1.5,3.8-3.4,3.8-5.3h0L1257,836.3L1257,836.3z"/>
<g>
	<path class="st1" d="M1170.9,873.3c-1.5,0-2.5-0.3-2.7-0.5l-63.4-36.6l62.8-36.5c0.2-0.1,1.2-0.4,2.6-0.4c1.5,0,2.5,0.3,2.7,0.5
		l63.4,36.6l-62.8,36.5C1173.3,872.9,1172.4,873.3,1170.9,873.3z"/>
</g>
<linearGradient id="SVGID_28_" gradientUnits="userSpaceOnUse" x1="1170.608" y1="874.5461" x2="1170.608" y2="724.5996">
	<stop  offset="2.051282e-02" style="stop-color:#2AFADF"/>
	<stop  offset="1" style="stop-color:#75FCEA;stop-opacity:0"/>
</linearGradient>
<path class="st30" d="M1104.8,724.6v112.9l63.3,36.6c0.2,0.1,1.2,0.5,2.7,0.5c1.5,0,2.4-0.3,2.7-0.4l62.8-36.5v-113H1104.8z"/>
<g>
	<path class="st1" d="M1167.4,692.1c15.2,8.8,27.5,30.1,27.4,47.5c0,17.5-26.3,51-27.7,52.7c-1.4-3.4-27.4-67.1-27.3-84.5
		C1139.8,690.3,1152.2,683.3,1167.4,692.1z"/>
</g>
<g>
	
		<ellipse transform="matrix(0.8646 -0.5025 0.5025 0.8646 -208.5183 684.8145)" class="st8" cx="1166.4" cy="729.3" rx="11.6" ry="20.1"/>
</g>
<g>
	<linearGradient id="SVGID_29_" gradientUnits="userSpaceOnUse" x1="470.9301" y1="438.2868" x2="470.9301" y2="338.1816">
		<stop  offset="0" style="stop-color:#FFFFFF"/>
		<stop  offset="0.4982" style="stop-color:#FCFDFF"/>
		<stop  offset="0.7974" style="stop-color:#F4F7FF"/>
		<stop  offset="1" style="stop-color:#E9EEFF"/>
	</linearGradient>
	<path class="st31" d="M553.5,382.9c5.1,2.9,5.1,7.7,0.1,10.6l-73.2,42.5c-5.1,2.9-13.3,2.9-18.4,0l-73.7-42.5
		c-5.1-2.9-5.1-7.7-0.1-10.6l73.2-42.5c5.1-2.9,13.3-2.9,18.4,0L553.5,382.9z"/>
</g>
<linearGradient id="SVGID_30_" gradientUnits="userSpaceOnUse" x1="384.5188" y1="415.7529" x2="557.3414" y2="415.7529">
	<stop  offset="0.2043" style="stop-color:#E0E6FD"/>
	<stop  offset="0.5236" style="stop-color:#FFFFFF"/>
	<stop  offset="0.7261" style="stop-color:#FCFDFF"/>
	<stop  offset="0.8479" style="stop-color:#F4F6FE"/>
	<stop  offset="0.9481" style="stop-color:#E6EBFE"/>
	<stop  offset="1" style="stop-color:#DBE2FD"/>
</linearGradient>
<path class="st32" d="M557.3,388.2c0,1.9-1.3,3.8-3.8,5.3l-73.2,42.5c-5.1,2.9-13.3,2.9-18.4,0l-73.7-42.5c-2.5-1.5-3.8-3.4-3.8-5.3
	h0v5h0c0,1.9,1.3,3.9,3.8,5.3l73.7,42.5c5.1,2.9,13.3,2.9,18.4,0l73.2-42.5c2.5-1.5,3.8-3.4,3.8-5.3h0L557.3,388.2L557.3,388.2z"/>
<g>
	<path class="st1" d="M471.2,425.2c-1.5,0-2.5-0.3-2.7-0.5l-63.4-36.6l62.8-36.5c0.2-0.1,1.2-0.4,2.6-0.4c1.5,0,2.5,0.3,2.7,0.5
		l63.4,36.6l-62.8,36.5C473.7,424.9,472.7,425.2,471.2,425.2z"/>
</g>
<linearGradient id="SVGID_31_" gradientUnits="userSpaceOnUse" x1="470.9299" y1="425.2886" x2="470.9299" y2="275.3421">
	<stop  offset="2.051282e-02" style="stop-color:#2AFADF"/>
	<stop  offset="1" style="stop-color:#75FCEA;stop-opacity:0"/>
</linearGradient>
<path class="st33" d="M405.2,275.3v112.9l63.3,36.6c0.2,0.1,1.2,0.5,2.7,0.5c1.5,0,2.4-0.3,2.7-0.4l62.8-36.5v-113H405.2z"/>
<g>
	<g>
		<path class="st1" d="M965.7,309.3v-15.5l-68.9,39.7v82.9l67.1-38.6c0,0,1.8-0.7,1.8-3.2v-17.3l-49.9,29.3l0,0
			c-0.3,0.2-0.6,0.3-0.9,0.3c-1,0-1.8-0.8-1.8-1.8v-43.6c0-0.7,0.4-1.3,1-1.6l0,0l16.2-9l0.1-0.1l0.1,0l33.4-18.5
			C963.9,312.4,965.7,311.4,965.7,309.3z M822.4,376.7l70.8,39.7V397l-55.3-28.5l0,0c-0.6-0.3-1-0.9-1-1.6v-43.6
			c0-1,0.8-1.8,1.8-1.8c0.3,0,0.6,0.1,0.9,0.2l0,0l53.6,29.4v-17.6l-70.8-39.7V376.7z M895,251l-70.7,39.7l70.7,39.7l68.9-39.7
			L895,251z M840.5,363.8l33.4-19.1l-33.4-18.3V363.8z M916.8,342.6v39.3l47.2-27.7L930.4,335L916.8,342.6z M842.5,366.8l50.6,26.1
			v-37.7l-15.5-8.5L842.5,366.8z"/>
	</g>
</g>
<g>
	<path class="st1" d="M62.6,527.8c-3,1.7-5.5,6-5.4,9.4l0.1,50.2c0,3.5,2.5,4.9,5.5,3.1l54.6-31.5c3-1.7,5.5-6,5.4-9.4l-0.1-50.2
		c0-3.5-2.5-4.9-5.5-3.1L62.6,527.8z"/>
	<g class="st34">
		<g>
			<path class="st8" d="M78.6,567.7c-1.5,0.9-2.8,1.1-3.8,0.6c-0.7-0.4-1-1.6-1.1-3.3c0-5.2,2.9-15.2,8.8-25.4
				c0.3-0.5,1.9-3.2,2.1-3.7c-3,3.4-5.3,7-7.4,11.4c1.6-8.2,7.3-17,14.2-20.9c0.4-0.2,0.8-0.4,1.1-0.6c2.9-3.1,5.5-5.4,7.6-6.6
				c1.6-0.9,2.8-1.2,3.5-0.8c1.7,1,1.8,4.3,0.5,9c1.3,1.8,2,4.2,2,7.3c0,0.7,0,1.3-0.1,2l-7.9,4.5l-12.9,7.4c0,1.3,0.3,2.3,0.8,3.1
				c1.1,1.7,3.2,2,5.7,0.6c2.4-1.4,4.6-4.2,5.7-7.2l7.9-4.6c-2,7.8-7.4,15.7-13.8,19.4c-2.4,1.4-4.6,2-6.6,2
				C82.6,564.7,80.5,566.7,78.6,567.7z M77.8,556.8c-1.8,5.2-2.2,8.9-0.8,9.7c0.6,0.3,1.4,0.2,2.4-0.4c1.3-0.7,2.9-2.2,4.6-4.1
				C81.2,561.7,78.9,559.8,77.8,556.8 M91.5,534c-3.3,1.9-6,6.4-6.1,10.2l12.3-7.1C97.5,533.5,94.8,532.1,91.5,534 M101.2,520.8
				c-1.2,0.7-2.6,1.9-4.3,3.7c2.8-0.3,5.2,0.6,6.8,2.5c0.9-3.5,1-5.9-0.2-6.6C103,520,102.2,520.2,101.2,520.8"/>
		</g>
	</g>
</g>
<path class="st1" d="M320.9,413.1c2.8,1.6,5.1,5.6,5.1,8.8l-0.1,46.8c0,3.2-2.3,4.5-5.1,2.9l-51-29.4c-2.8-1.6-5.1-5.6-5.1-8.8
	l0.1-46.8c0-3.2,2.3-4.5,5.1-2.9L320.9,413.1z"/>
<path class="st1" d="M504.9,305.5c2.8,1.6,5.1,5.6,5.1,8.8l-0.1,46.8c0,3.2-2.3,4.5-5.1,2.9l-51-29.4c-2.8-1.6-5.1-5.6-5.1-8.8
	l0.1-46.8c0-3.2,2.3-4.5,5.1-2.9L504.9,305.5z"/>
<g>
	<path class="st8" d="M282.1,399.8c0.3,0.2,0.6,0.5,0.9,0.8c0.3,0.4,0.5,0.8,0.6,1.2l4,11.2c0.2,0.6,0.3,1.1,0.2,1.6
		c-0.1,0.5-0.3,0.8-0.6,1l-1.9,1.1c-0.1,0-0.1,0.1-0.1,0.2c0,0.1-0.1,0.2-0.1,0.3c0.1,0.7,0.3,1.5,0.7,2.5c0.3,0.9,0.8,2,1.4,3.4
		c0.6,1.4,1.5,3,2.7,5c1.1,2,2.1,3.6,3,4.9c0.9,1.3,1.6,2.2,2.2,2.9c0.6,0.7,1.1,1.2,1.4,1.4l0.5,0.4c0.1,0,0.1,0.1,0.2,0.1
		c0.1,0,0.2,0,0.2,0l2.2-1.3c0.5-0.2,1-0.1,1.6,0.2c0.4,0.2,0.8,0.5,1,0.9l7.4,9.2c0.5,0.7,0.8,1.3,0.9,2c0.1,0.7-0.1,1.2-0.5,1.4
		l-5.1,2.9c-0.2,0.2-0.5,0.2-0.9,0.2c-0.4,0-0.7-0.1-1.1-0.2c0,0-0.1-0.1-0.2-0.1c-0.1-0.1-0.3-0.1-0.5-0.3
		c-0.5-0.3-1.3-0.8-2.3-1.6c-1.1-0.8-2.4-2-4-3.7c-1.6-1.6-3.3-3.8-5.3-6.4c-2-2.6-4.1-5.9-6.3-9.8c-1.8-3-3.2-5.8-4.4-8.3
		c-1.2-2.5-2.1-4.7-2.8-6.7c-0.7-2-1.2-3.7-1.6-5.2c-0.4-1.5-0.6-2.7-0.7-3.7c-0.1-1-0.2-1.7-0.1-2.3c0-0.5,0-0.8,0-0.9
		c0.1-0.4,0.2-0.7,0.3-1c0.2-0.3,0.4-0.5,0.6-0.7l5.1-2.9C281.3,399.5,281.7,399.6,282.1,399.8z"/>
</g>
<path class="st8" d="M491.3,310l-7.6-7.5c-0.4,0.3-0.8,0.6-1.3,0.7c0.5-0.2,0.9-0.4,1.3-0.7l-1.1-1.1l0,0c-0.1-0.1-1.8-1.5-4.8-3.3
	c-1.5-0.9-3.3-1.8-5.3-2.6l-8.7-1.5l-5.8,10.2l7.6,7.1l1.1-2.1l-0.1,25.4l21.8,12.6l0.1-25.4l1.1,3.3l7.6,1.7L491.3,310z"/>
<g>
	<linearGradient id="SVGID_32_" gradientUnits="userSpaceOnUse" x1="571.1415" y1="864.3081" x2="614.9758" y2="864.3081">
		<stop  offset="0" style="stop-color:#FFFFFF"/>
		<stop  offset="0.4982" style="stop-color:#FCFDFF"/>
		<stop  offset="0.7974" style="stop-color:#F4F7FF"/>
		<stop  offset="1" style="stop-color:#E9EEFF"/>
	</linearGradient>
	<path class="st35" d="M615,851.6c0,6.7-3.8,14.8-9,22.3l2,6.3l-7.1-0.4c-2.6,2.2-5.2,4.5-7.7,6c-12.3,7.1-22,3-22-8.8
		c0-11.8,9.6-27.1,21.9-34.2C604.6,836,614.9,839.7,615,851.6z M586,864.6c2-1.1,3.2-3.3,3.2-4.8c0-1.5-1.3-2.2-3.2-1.1
		c-1.3,0.7-2.6,3-2.6,4.5C583.4,864.6,584.7,865.4,586,864.6 M600.1,856.4c1.9-1.1,3.2-3.3,3.2-4.8c0-1.5-1.3-2.2-3.2-1.1
		c-1.3,0.7-2.6,3-2.6,4.4C597.6,856.4,598.9,857.2,600.1,856.4"/>
</g>
<g>
	<linearGradient id="SVGID_33_" gradientUnits="userSpaceOnUse" x1="754.4358" y1="973.5779" x2="801.5659" y2="973.5779">
		<stop  offset="0" style="stop-color:#FFFFFF"/>
		<stop  offset="0.4982" style="stop-color:#FCFDFF"/>
		<stop  offset="0.7974" style="stop-color:#F4F7FF"/>
		<stop  offset="1" style="stop-color:#E9EEFF"/>
	</linearGradient>
	<path class="st36" d="M786.8,970.2c4.7-1.1,9.5-2.1,14.2-3c0.2,0,0.4-0.1,0.5-0.1l0,9.2c-0.1,0-0.2,0-0.3,0c-6,0.5-12,0.9-17.9,1.2
		c-0.3,0-0.6,0.1-0.9,0.2c-0.4,0.2-0.7,0.7-1.1,1.4c-1.3,2.5-2.7,5-4.3,7.3c-3.3,4.6-6.8,8.1-10.6,10.3c-1.4,0.8-2.9,1.5-4.4,1.9
		c-0.1,0-0.1,0.1-0.2,0.1c-0.3,0.1-0.5,0.2-0.7,0.1c-0.1,0-0.2,0.1-0.3,0.1c-0.3,0.2-0.5,0.2-0.7,0.1c-3.5,0.4-5.6-1.7-5.7-5.6
		l0-0.2c0-0.1,0-0.1,0-0.2c0.1-4.4,2.3-9.2,5.7-12.6c1.5-1.7,3.1-2.8,4.7-3.8c0.2-0.1,0.3-0.2,0.5-0.3c4.8-2.7,9.3-4.1,13.8-4.8
		c0.3,0,0.6-0.1,0.8-0.3c0.4-0.3,0.8-0.7,1-1.6c0.6-2.1,1.2-4.1,1.8-6.2c0.5-1.5,0.3-1.8-1-1.1c-3,1.8-6,3.5-8.9,5.2
		c-1,0.6-2.1,1.2-3.1,1.8c-1.1,0.6-2.2,1.3-3.3,1.9c-0.6,0.4-1.3,0.7-1.9,1.1c-0.1,0.1-0.2,0.1-0.3,0.2c-0.6,0.3-1,0.5-1-0.6
		c0-1.1,0.5-1.5,1.2-1.9c0,0,0.1-0.1,0.1-0.1c0.2-0.1,0.3-0.2,0.5-0.3c0.6-0.4,1.3-0.7,1.9-1.1c0.6-0.4,1.3-0.8,1.9-1.1
		c0.9-0.5,1.7-1,2.6-1.4c0.1-0.1,0.2-0.1,0.3-0.2c1.1-0.7,1.5-1.3,1.4-2.8c-0.1-1.9,0-2.2-0.8-1.7c-0.1,0.1-0.3,0.2-0.4,0.3
		c-0.2,0.1-0.3,0.2-0.5,0.3c-1.5,0.9-2.9,1.7-4.3,2.5c-1.6,0.9-3.2,1.8-4.8,2.8c-0.8,0.5-1.3,0.6-1.3-0.5c0-1.2,0.5-1.5,1.2-2
		c0.5-0.3,1-0.6,1.5-0.9c0.7-0.4,1.4-0.8,2.1-1.2c0.7-0.4,1.5-0.9,2.2-1.3c1.2-0.7,2.4-1.4,3.6-2c1.1-0.6,1.5-1.1,1.5-2.4
		c0-4.7,0-5.4,2.9-7.1c0.5-0.3,1.1-0.6,1.9-1c0.9-0.5,1.2-0.2,1.1,0.8c-0.1,1.4,0.1,2.7,0,4.1c-0.1,1.2,0.3,1.3,1.2,0.7
		c1.6-0.9,3.1-1.8,4.6-2.7c0.6-0.3,1.1-0.7,1.7-1c0.6-0.3,1.1-0.7,1.7-1c0.8-0.5,1.7-1,2.5-1.4c0.8-0.5,1.3-0.7,1.3,0.5
		c0,1.1-0.4,1.5-1.2,1.9c-1.5,0.8-2.9,1.7-4.3,2.5c-0.8,0.5-1.7,1-2.5,1.5c-0.7,0.4-1.5,0.8-2.2,1.3c-0.2,0.1-0.3,0.2-0.5,0.3
		c-2.3,1.3-2.3,1.3-2.3,4c0,1.1,0.3,1.2,1.2,0.7c0.6-0.4,1.2-0.7,1.7-1c0.6-0.3,1.2-0.7,1.8-1c0.6-0.3,1.2-0.7,1.8-1
		c0.9-0.5,1.8-1,2.7-1.6c0.1,0,0.1-0.1,0.2-0.1c1.2-0.7,1.2,0,0.9,1.3c-0.8,3.6-1.7,7.2-3.1,10.9
		C785.3,970.4,785.7,970.5,786.8,970.2z M777,979.2c0.4-0.7,1-1.7,0-1.6c-4.1,0.2-8.3,1-12.8,3.6c-1,0.6-2.1,1.3-3.1,2.1
		c-0.1,0.1-0.2,0.2-0.3,0.3l-0.1,0.1l-0.1,0c-0.1,0.2-0.3,0.3-0.4,0.5c-0.3,0.3-0.6,0.7-0.8,1c-0.5,0.8-1.1,1.6-1.5,2.5
		c-2.3,4.5-1,8.2,2.6,7.8c0.6-0.1,1.2-0.1,1.8-0.2c0.1-0.1,0.2-0.2,0.4-0.3c0,0,0,0,0.1,0c0.8-0.3,1.5-0.7,2.2-1.1
		C769.8,990.9,773.7,985.5,777,979.2"/>
</g>
</svg>
