<?xml version="1.0" encoding="utf-8"?>
<!-- Generator: Adobe Illustrator 22.1.0, SVG Export Plug-In . SVG Version: 6.00 Build 0)  -->
<svg version="1.1" id="Solid" xmlns="http://www.w3.org/2000/svg" xmlns:xlink="http://www.w3.org/1999/xlink" x="0px" y="0px"
	 viewBox="0 0 328.8 358.8" style="enable-background:new 0 0 328.8 358.8;" xml:space="preserve">
<style type="text/css">
	.st0{fill:url(#SVGID_1_);}
	.st1{fill:url(#SVGID_2_);}
	.st2{fill:#1ED4CA;}
	.st3{fill:url(#SVGID_3_);}
	.st4{opacity:0.2;fill:#0246AF;enable-background:new    ;}
	.st5{opacity:0.8;fill:#FFFFFF;enable-background:new    ;}
	.st6{fill:#FFFFFF;}
	.st7{fill:none;stroke:#FFFFFF;stroke-width:2.2385;stroke-linecap:round;stroke-miterlimit:10;}
	.st8{opacity:0.2;fill:url(#SVGID_4_);}
	.st9{opacity:0.4;fill:url(#SVGID_5_);}
	.st10{fill:url(#XMLID_2_);}
	.st11{opacity:0.4;fill:url(#SVGID_6_);}
	.st12{opacity:0.4;fill:url(#SVGID_7_);}
	.st13{opacity:0.4;fill:url(#SVGID_8_);}
	.st14{opacity:0.4;fill:url(#SVGID_9_);}
	.st15{opacity:0.4;fill:url(#SVGID_10_);}
	.st16{opacity:0.4;fill:url(#SVGID_11_);}
	.st17{opacity:0.3;fill:#FFFFFF;}
	.st18{opacity:0.8;fill:#FFFFFF;}
	.st19{opacity:0.4;fill:url(#SVGID_12_);}
	.st20{opacity:0.8;}
	.st21{clip-path:url(#SVGID_14_);fill:#FFFFFF;}
	.st22{clip-path:url(#SVGID_16_);fill:#FFFFFF;}
	.st23{opacity:0.4;fill:url(#SVGID_17_);}
	.st24{clip-path:url(#SVGID_19_);fill:#FFFFFF;}
	.st25{clip-path:url(#SVGID_21_);fill:#FFFFFF;}
	.st26{fill:none;stroke:#004680;stroke-width:1.4;stroke-linecap:round;stroke-linejoin:round;stroke-miterlimit:10;}
</style>
<linearGradient id="SVGID_1_" gradientUnits="userSpaceOnUse" x1="281.5754" y1="184.6531" x2="105.1071" y2="304.0287">
	<stop  offset="5.376340e-03" style="stop-color:#00C6FB"/>
	<stop  offset="1" style="stop-color:#005BEA"/>
</linearGradient>
<path class="st0" d="M316.1,236c-0.3-1-43.4-46.4-43.4-46.4l-40.5-0.2c-20.7-5.1-43.6-7.9-67.8-7.9c-23.2,0-45.3,2.6-65.4,7.3
	l-42.6-0.2c0,0-46.5,50.8-46.6,51.5C3.4,249.4,0,259.6,0,270.1c0,49,73.6,88.7,164.4,88.7c90.8,0,164.4-39.7,164.4-88.7
	C328.8,258,324.3,246.5,316.1,236z"/>
<linearGradient id="SVGID_2_" gradientUnits="userSpaceOnUse" x1="-4.5045" y1="228.2816" x2="290.5846" y2="293.7804">
	<stop  offset="0" style="stop-color:#FFFFFF"/>
	<stop  offset="0.5" style="stop-color:#FCFDFF"/>
	<stop  offset="0.8" style="stop-color:#F4F7FF"/>
	<stop  offset="1" style="stop-color:#E9EEFF"/>
</linearGradient>
<path class="st1" d="M316.1,236c-0.3-1-43.4-46.4-43.4-46.4l-40.5-0.2c-20.7-5.1-43.6-7.9-67.8-7.9c-23.2,0-45.3,2.6-65.4,7.3
	l-42.6-0.2c0,0-46.5,50.8-46.6,51.5C3.4,249.4,0,259.6,0,270.1c0,49,73.6,88.7,164.4,88.7c90.8,0,164.4-39.7,164.4-88.7
	C328.8,258,324.3,246.5,316.1,236z"/>
<ellipse class="st2" cx="164.1" cy="221.1" rx="122.7" ry="68"/>
<linearGradient id="SVGID_3_" gradientUnits="userSpaceOnUse" x1="54.4536" y1="218.9301" x2="273.118" y2="218.9301">
	<stop  offset="0" style="stop-color:#DBE2FD"/>
	<stop  offset="1" style="stop-color:#1ED4CA;stop-opacity:0"/>
</linearGradient>
<ellipse class="st3" cx="163.8" cy="218.9" rx="109.3" ry="56.7"/>
<path class="st4" d="M163.8,167.5c58.7,0,106.5,24,109.2,54.1c0.1-0.9,0.1-1.8,0.1-2.7c0-31.3-48.9-56.7-109.3-56.7
	S54.5,187.6,54.5,218.9c0,0.9,0,1.8,0.1,2.7C57.2,191.5,105.1,167.5,163.8,167.5z"/>
<ellipse class="st5" cx="163.8" cy="218.9" rx="109.3" ry="56.7"/>
<path class="st6" d="M64.3,304.9c-5-1.2-7.4-5.7-5.4-10.1c2-4.4,7.8-7,12.8-5.8c0.7,0.2,1.1,0.8,0.8,1.4c-0.3,0.6-1.1,1-1.8,0.8
	c-3.6-0.8-7.7,1-9.1,4.1c-1.5,3.1,0.3,6.4,3.8,7.2c0.9,0.2,1.8,0.3,2.8,0.1c0.8-0.1,1.4,0.3,1.4,1c0,0.6-0.6,1.2-1.4,1.3
	C66.9,305.3,65.6,305.2,64.3,304.9z"/>
<line class="st7" x1="85.5" y1="294.8" x2="94.6" y2="298"/>
<line class="st7" x1="81" y1="300.9" x2="90.1" y2="304.1"/>
<line class="st7" x1="75.1" y1="307.6" x2="84.2" y2="310.9"/>
<path class="st2" d="M58,289.1c0,0-42.7-25.4-28.7-71l-6.6,7.3c0,0-12.7,39.1,28.6,68.8L58,289.1z"/>
<path class="st2" d="M267.5,287.1c0,0,43.7-26.1,29.7-71.6l6.6,7.3c0,0,11.8,39.8-29.5,69.5L267.5,287.1z"/>
<linearGradient id="SVGID_4_" gradientUnits="userSpaceOnUse" x1="264.1771" y1="271.2189" x2="332.0356" y2="289.7776">
	<stop  offset="0" style="stop-color:#FFFFFF"/>
	<stop  offset="1" style="stop-color:#FFFFFF;stop-opacity:0"/>
</linearGradient>
<path class="st8" d="M264.3,260.4l52.9,42.6c0,0,5-7.8,8.4-15.3l-55.6-32.2C269.9,255.5,266.9,258.4,264.3,260.4z"/>
<linearGradient id="SVGID_5_" gradientUnits="userSpaceOnUse" x1="166.6737" y1="284.1985" x2="164.5289" y2="22.536">
	<stop  offset="2.051282e-02" style="stop-color:#2AFADF"/>
	<stop  offset="1" style="stop-color:#75FCEA;stop-opacity:0"/>
</linearGradient>
<path class="st9" d="M285.4,0.3L43.4,0l1.9,219.8c-0.1,0.8-0.1,1.7-0.1,2.5c0,30.2,53.3,54.6,119.1,54.6s119.1-24.4,119.1-54.6
	c0-0.8,0-1.7-0.1-3.5L285.4,0.3z"/>
<linearGradient id="XMLID_2_" gradientUnits="userSpaceOnUse" x1="173.2528" y1="265.8875" x2="179.1691" y2="265.8875">
	<stop  offset="0" style="stop-color:#FFFFFF;stop-opacity:0.6"/>
	<stop  offset="0" style="stop-color:#FDFDFF;stop-opacity:0.6"/>
	<stop  offset="1.000000e-02" style="stop-color:#FCFCFF;stop-opacity:0.58"/>
	<stop  offset="0.18" style="stop-color:#F2F4FE;stop-opacity:0.412"/>
	<stop  offset="0.35" style="stop-color:#EAEEFE;stop-opacity:0.259"/>
	<stop  offset="0.52" style="stop-color:#E3E9FD;stop-opacity:0.149"/>
	<stop  offset="0.68" style="stop-color:#DFE5FD;stop-opacity:7.100000e-02"/>
	<stop  offset="0.84" style="stop-color:#DCE3FD;stop-opacity:2.000000e-02"/>
	<stop  offset="1" style="stop-color:#DBE2FD;stop-opacity:0"/>
</linearGradient>
<path id="XMLID_35_" class="st10" d="M179.2,265.9c0,1.6-1.3,3-3,3c-1.6,0-3-1.3-3-3c0-1.6,1.3-3,3-3
	C177.8,262.9,179.2,264.3,179.2,265.9z"/>
<g>
	<linearGradient id="SVGID_6_" gradientUnits="userSpaceOnUse" x1="70.4913" y1="101.2932" x2="211.6592" y2="101.2932">
		<stop  offset="2.051282e-02" style="stop-color:#2AFADF"/>
		<stop  offset="0.39" style="stop-color:#43FBE3;stop-opacity:0.6982"/>
		<stop  offset="1" style="stop-color:#75FCEA;stop-opacity:0.2"/>
	</linearGradient>
	<path class="st11" d="M208.1,8.2c2-1.1,3.6-0.2,3.6,2v102.1c0,0.9-0.6,1.9-1.4,2.4L71.9,194.7c-0.8,0.4-1.4,0.1-1.4-0.8V91.8
		c0-2.3,1.6-5,3.6-6.2L208.1,8.2z"/>
	<linearGradient id="SVGID_7_" gradientUnits="userSpaceOnUse" x1="96.0682" y1="118.5332" x2="241.2809" y2="118.5332">
		<stop  offset="2.051282e-02" style="stop-color:#2AFADF"/>
		<stop  offset="0.39" style="stop-color:#43FBE3;stop-opacity:0.6982"/>
		<stop  offset="1" style="stop-color:#75FCEA;stop-opacity:0.2"/>
	</linearGradient>
	<path class="st12" d="M241.3,27.2l-4,101.5c0,0.9-0.6,1.9-1.4,2.4l-134.7,81.7c-0.8,0.4-5.1-1.7-5.1-2.6V108.1c0-2.3,1.6-5,3.6-6.2
		l134-77.4C235.6,23.4,241.3,24.9,241.3,27.2z"/>
	<linearGradient id="SVGID_8_" gradientUnits="userSpaceOnUse" x1="100.2896" y1="119.459" x2="241.4576" y2="119.459">
		<stop  offset="2.051282e-02" style="stop-color:#2AFADF"/>
		<stop  offset="0.39" style="stop-color:#43FBE3;stop-opacity:0.6982"/>
		<stop  offset="1" style="stop-color:#75FCEA;stop-opacity:0.2"/>
	</linearGradient>
	<path class="st13" d="M100.3,153.2v-43.3c0-2.3,1.6-5,3.6-6.2l134-77.4c2-1.1,3.6-0.2,3.6,2v102.1c0,0.9-0.6,1.9-1.4,2.4
		l-138.4,79.9c-0.8,0.4-1.4,0.1-1.4-0.8v-46"/>
	<linearGradient id="SVGID_9_" gradientUnits="userSpaceOnUse" x1="100.2896" y1="72.2628" x2="241.4576" y2="72.2628">
		<stop  offset="2.051282e-02" style="stop-color:#2AFADF"/>
		<stop  offset="0.39" style="stop-color:#43FBE3;stop-opacity:0.6982"/>
		<stop  offset="1" style="stop-color:#75FCEA;stop-opacity:0.2"/>
	</linearGradient>
	<path class="st14" d="M187.5,68.2l-87.2,50.3V110c0-2.3,1.6-5,3.6-6.2l134-77.4c2-1.1,3.6-0.2,3.6,2V37"/>
	
		<ellipse transform="matrix(0.5047 -0.8633 0.8633 0.5047 -41.1636 145.6813)" class="st6" cx="106.4" cy="108.7" rx="2.1" ry="1.2"/>
	
		<ellipse transform="matrix(0.5047 -0.8633 0.8633 0.5047 -37.2992 147.9264)" class="st6" cx="110.3" cy="106.5" rx="2.1" ry="1.2"/>
	
		<ellipse transform="matrix(0.5047 -0.8633 0.8633 0.5047 -33.4347 150.1715)" class="st6" cx="114.2" cy="104.2" rx="2.1" ry="1.2"/>
	<linearGradient id="SVGID_10_" gradientUnits="userSpaceOnUse" x1="195.6713" y1="76.6778" x2="236.383" y2="76.6778">
		<stop  offset="2.051282e-02" style="stop-color:#2AFADF"/>
		<stop  offset="0.39" style="stop-color:#43FBE3;stop-opacity:0.6982"/>
		<stop  offset="1" style="stop-color:#75FCEA;stop-opacity:0.2"/>
	</linearGradient>
	<path class="st15" d="M234.7,51.7c0.9-0.5,1.7-0.1,1.7,1v24.6c0,1.1-0.7,2.3-1.7,2.9l-37.4,21.6c-0.9,0.5-1.7,0.1-1.7-1V76.1
		c0-1.1,0.7-2.3,1.7-2.9L234.7,51.7z"/>
	<linearGradient id="SVGID_11_" gradientUnits="userSpaceOnUse" x1="195.6713" y1="112.2696" x2="236.383" y2="112.2696">
		<stop  offset="2.051282e-02" style="stop-color:#2AFADF"/>
		<stop  offset="0.39" style="stop-color:#43FBE3;stop-opacity:0.6982"/>
		<stop  offset="1" style="stop-color:#75FCEA;stop-opacity:0.2"/>
	</linearGradient>
	<path class="st16" d="M234.7,87.3c0.9-0.5,1.7-0.1,1.7,1v24.6c0,1.1-0.7,2.3-1.7,2.9l-37.4,21.6c-0.9,0.5-1.7,0.1-1.7-1v-24.6
		c0-1.1,0.7-2.3,1.7-2.9L234.7,87.3z"/>
	<path class="st17" d="M178,82.8c1.5-0.9,2.7-0.2,2.7,1.5v53.8c0,1.7-1.2,3.8-2.7,4.7l-70.7,40.7c-1.5,0.9-2.7,0.2-2.7-1.5v-53.8
		c0-1.7,1.2-3.8,2.7-4.7L178,82.8z"/>
	<path class="st17" d="M187.6,88.9c1.5-0.9,2.7-0.2,2.7,1.5v53.8c0,1.7-1.2,3.8-2.7,4.7l-70.7,40.7c-1.5,0.9-2.7,0.2-2.7-1.5v-53.8
		c0-1.7,1.2-3.8,2.7-4.7L187.6,88.9z"/>
	<path class="st18" d="M199.5,94.6c1.5-0.9,2.7-0.2,2.7,1.5v53.8c0,1.7-1.2,3.8-2.7,4.7l-70.7,40.7c-1.5,0.9-2.7,0.2-2.7-1.5v-53.8
		c0-1.7,1.2-3.8,2.7-4.7L199.5,94.6z"/>
	<g>
		<g>
			<path class="st2" d="M167.5,136l-30.7,17.7c-0.3,0.2-0.6,0-0.6-0.5l0,0c0-0.4,0.3-1,0.6-1.2l30.7-17.7c0.3-0.2,0.6,0,0.6,0.5v0
				C168.2,135.3,167.9,135.8,167.5,136z"/>
			<path class="st2" d="M185.6,125.6l-13.4,7.7c-0.3,0.2-0.6,0-0.6-0.5l0,0c0-0.4,0.3-1,0.6-1.2l13.4-7.7c0.3-0.2,0.6,0,0.6,0.5l0,0
				C186.2,124.9,185.9,125.4,185.6,125.6z"/>
		</g>
		<g>
			<path class="st2" d="M167.5,140.7l-16.1,9.3c-0.3,0.2-0.6,0-0.6-0.5l0,0c0-0.4,0.3-1,0.6-1.2l16.1-9.3c0.3-0.2,0.6,0,0.6,0.5l0,0
				C168.1,140,167.8,140.5,167.5,140.7z"/>
			<path class="st2" d="M147.7,152.1l-10.8,6.3c-0.3,0.2-0.6,0-0.6-0.5l0,0c0-0.4,0.3-1,0.6-1.2l10.8-6.3c0.3-0.2,0.6,0,0.6,0.5l0,0
				C148.3,151.4,148,151.9,147.7,152.1z"/>
			<path class="st2" d="M185.5,130.3l-13.4,7.7c-0.3,0.2-0.6,0-0.6-0.5l0,0c0-0.4,0.3-1,0.6-1.2l13.4-7.7c0.3-0.2,0.6,0,0.6,0.5l0,0
				C186.1,129.6,185.9,130.1,185.5,130.3z"/>
		</g>
		<g>
			<path class="st2" d="M156.5,133.1l-19.6,11.3c-0.3,0.2-0.6,0-0.6-0.5l0,0c0-0.4,0.3-1,0.6-1.2l19.6-11.3c0.3-0.2,0.6,0,0.6,0.5
				l0,0C157.1,132.4,156.8,132.9,156.5,133.1z"/>
			<path class="st2" d="M168.2,126.3l-8.3,4.8c-0.3,0.2-0.6,0-0.6-0.5l0,0c0-0.4,0.3-1,0.6-1.2l8.3-4.8c0.3-0.2,0.6,0,0.6,0.5l0,0
				C168.8,125.6,168.6,126.1,168.2,126.3z"/>
			<path class="st2" d="M192,112.5l-20,11.5c-0.3,0.2-0.6,0-0.6-0.5v0c0-0.4,0.3-1,0.6-1.2l20-11.5c0.3-0.2,0.6,0,0.6,0.5l0,0
				C192.6,111.8,192.4,112.3,192,112.5z"/>
		</g>
		<g>
			<path class="st2" d="M172.4,156.5l19.6-11.3c0.3-0.2,0.6-0.7,0.6-1.2l0,0c0-0.4-0.3-0.7-0.6-0.5l-19.6,11.3
				c-0.3,0.2-0.6,0.7-0.6,1.2l0,0C171.8,156.5,172.1,156.7,172.4,156.5z"/>
			<path class="st2" d="M160.6,163.3l8.3-4.8c0.3-0.2,0.6-0.7,0.6-1.2v0c0-0.4-0.3-0.7-0.6-0.5l-8.3,4.8c-0.3,0.2-0.6,0.7-0.6,1.2
				l0,0C160,163.3,160.3,163.5,160.6,163.3z"/>
			<path class="st2" d="M136.8,177l20-11.5c0.3-0.2,0.6-0.7,0.6-1.2l0,0c0-0.4-0.3-0.7-0.6-0.5l-20,11.5c-0.3,0.2-0.6,0.7-0.6,1.2
				l0,0C136.2,177,136.5,177.2,136.8,177z"/>
		</g>
		<g>
			<path class="st2" d="M149.4,141.8l-12.6,7.3c-0.3,0.2-0.6,0-0.6-0.5l0,0c0-0.4,0.3-1,0.6-1.2l12.6-7.3c0.3-0.2,0.6,0,0.6,0.5l0,0
				C150,141.1,149.7,141.6,149.4,141.8z"/>
			<path class="st2" d="M176.4,126.2l-24.3,14c-0.3,0.2-0.6,0-0.6-0.5l0,0c0-0.4,0.3-1,0.6-1.2l24.3-14c0.3-0.2,0.6,0,0.6,0.5l0,0
				C177,125.5,176.7,126,176.4,126.2z"/>
			<path class="st2" d="M194.3,115.9l-15.2,8.8c-0.3,0.2-0.6,0-0.6-0.5l0,0c0-0.4,0.3-1,0.6-1.2l15.2-8.8c0.3-0.2,0.6,0,0.6,0.5l0,0
				C194.9,115.2,194.6,115.7,194.3,115.9z"/>
		</g>
		<g>
			<path class="st2" d="M181.7,154.2l12.6-7.3c0.3-0.2,0.6,0,0.6,0.5l0,0c0,0.4-0.3,1-0.6,1.2l-12.6,7.3c-0.3,0.2-0.6,0-0.6-0.5l0,0
				C181.1,154.9,181.4,154.4,181.7,154.2z"/>
			<path class="st2" d="M154.7,169.8l24.3-14c0.3-0.2,0.6,0,0.6,0.5l0,0c0,0.4-0.3,1-0.6,1.2l-24.3,14c-0.3,0.2-0.6,0-0.6-0.5l0,0
				C154.1,170.5,154.4,170,154.7,169.8z"/>
			<path class="st2" d="M136.8,180.1l15.2-8.8c0.3-0.2,0.6,0,0.6,0.5l0,0c0,0.4-0.3,1-0.6,1.2l-15.2,8.8c-0.3,0.2-0.6,0-0.6-0.5l0,0
				C136.2,180.8,136.5,180.3,136.8,180.1z"/>
		</g>
		<g>
			<path class="st2" d="M167.5,154.6l-30.7,17.7c-0.3,0.2-0.6,0-0.6-0.5l0,0c0-0.4,0.3-1,0.6-1.2l30.7-17.7c0.3-0.2,0.6,0,0.6,0.5v0
				C168.2,153.9,167.9,154.4,167.5,154.6z"/>
			<path class="st2" d="M185.6,144.2l-13.4,7.7c-0.3,0.2-0.6,0-0.6-0.5l0,0c0-0.4,0.3-1,0.6-1.2l13.4-7.7c0.3-0.2,0.6,0,0.6,0.5l0,0
				C186.2,143.5,185.9,144,185.6,144.2z"/>
		</g>
		<g>
			<path class="st2" d="M149.4,160.5l-12.6,7.3c-0.3,0.2-0.6,0-0.6-0.5l0,0c0-0.4,0.3-1,0.6-1.2l12.6-7.3c0.3-0.2,0.6,0,0.6,0.5l0,0
				C150,159.7,149.7,160.3,149.4,160.5z"/>
			<path class="st2" d="M176.4,144.9l-24.3,14c-0.3,0.2-0.6,0-0.6-0.5l0,0c0-0.4,0.3-1,0.6-1.2l24.3-14c0.3-0.2,0.6,0,0.6,0.5l0,0
				C177,144.2,176.7,144.7,176.4,144.9z"/>
			<path class="st2" d="M194.3,134.5l-15.2,8.8c-0.3,0.2-0.6,0-0.6-0.5l0,0c0-0.4,0.3-1,0.6-1.2l15.2-8.8c0.3-0.2,0.6,0,0.6,0.5l0,0
				C194.9,133.8,194.6,134.4,194.3,134.5z"/>
		</g>
		<g>
			<path class="st2" d="M147.1,157.1l-10.2,5.9c-0.3,0.2-0.6,0-0.6-0.5l0,0c0-0.4,0.3-1,0.6-1.2l10.2-5.9c0.3-0.2,0.6,0,0.6,0.5l0,0
				C147.7,156.4,147.4,157,147.1,157.1z"/>
			<path class="st2" d="M169.4,144.2l-19.9,11.5c-0.3,0.2-0.6,0-0.6-0.5l0,0c0-0.4,0.3-1,0.6-1.2l19.9-11.5c0.3-0.2,0.6,0,0.6,0.5
				l0,0C170.1,143.5,169.8,144,169.4,144.2z"/>
			<path class="st2" d="M191.8,131.3l-19.9,11.5c-0.3,0.2-0.6,0-0.6-0.5l0,0c0-0.4,0.3-1,0.6-1.2l19.9-11.5c0.3-0.2,0.6,0,0.6,0.5v0
				C192.4,130.6,192.1,131.1,191.8,131.3z"/>
		</g>
	</g>
	<linearGradient id="SVGID_12_" gradientUnits="userSpaceOnUse" x1="209.276" y1="81.6744" x2="249.9877" y2="81.6744">
		<stop  offset="2.051282e-02" style="stop-color:#2AFADF"/>
		<stop  offset="0.39" style="stop-color:#43FBE3;stop-opacity:0.6982"/>
		<stop  offset="1" style="stop-color:#75FCEA;stop-opacity:0.2"/>
	</linearGradient>
	<path class="st19" d="M248.3,56.7c0.9-0.5,1.7-0.1,1.7,1v24.6c0,1.1-0.7,2.3-1.7,2.9l-37.4,21.6c-0.9,0.5-1.7,0.1-1.7-1V81.1
		c0-1.1,0.7-2.3,1.7-2.9L248.3,56.7z"/>
	<g class="st20">
		<g>
			<g>
				<defs>
					<path id="SVGID_13_" d="M221.6,89.6c-0.4-0.1-0.9-0.2-1.3-0.3c0.4-1.4,0.4-1.8,0.3-2.5c-0.1-1.2-1-1.7-2.1-1.1
						c-1.1,0.6-2.1,2-2.3,3.4c-0.2,1,0,1.8,0.3,2.4c-0.2,0.3-0.5,0.6-0.7,0.8c-0.5,0.6-0.9,1.3-1.1,2c-0.1,0.4,0,0.6,0.2,0.7
						c1.9,1.1,4.8-0.6,6.8-3.8c0.4-0.6,0.5-0.9,0.2-1.5C221.8,89.7,221.7,89.6,221.6,89.6z M218,86.9c0.9-0.8,1.7-0.6,1.8,0.6
						c0,0.7-0.1,1.4-0.4,2.2c-0.5,1.1-1.4,1.7-1.9,1.1c-0.3-0.3-0.4-0.8-0.5-1.4C217,88.4,217.4,87.5,218,86.9z M221.1,91.1
						c-1.5,2.5-4.1,3.9-5.5,3c0.1-0.3,0.3-0.5,0.4-0.8c0.2-0.3,0.5-0.6,0.7-0.9c0.2-0.3,0.4-0.4,0.6-0.3c0.6,0.1,1.5-0.4,2.1-1.3
						c0.2-0.2,0.3-0.4,0.5-0.3c0.4,0.1,0.8,0.1,1.1,0.2C221.2,90.7,221.2,90.8,221.1,91.1z"/>
				</defs>
				<use xlink:href="#SVGID_13_"  style="overflow:visible;fill:#FFFFFF;"/>
				<clipPath id="SVGID_14_">
					<use xlink:href="#SVGID_13_"  style="overflow:visible;"/>
				</clipPath>
				<polygon class="st21" points="215.5,94.9 215.9,95 215.5,95 				"/>
				<polygon class="st21" points="215.5,94.7 216.4,95 215.9,95 215.5,94.9 				"/>
				<polygon class="st21" points="215.5,94.6 217,95 216.4,95 215.5,94.7 				"/>
				<polygon class="st21" points="215.5,94.4 217.5,95 217,95 215.5,94.6 				"/>
				<polygon class="st21" points="215.5,94.2 218,95 217.5,95 215.5,94.4 				"/>
				<polygon class="st21" points="215.5,94 218.6,95 218,95 215.5,94.2 				"/>
				<polygon class="st21" points="215.5,93.9 219.1,95 218.6,95 215.5,94 				"/>
				<polygon class="st21" points="215.5,93.7 219.7,95 219.1,95 215.5,93.9 				"/>
				<polygon class="st21" points="215.5,93.5 220.2,95 219.7,95 215.5,93.7 				"/>
				<polygon class="st21" points="215.5,93.4 220.8,95 220.2,95 215.5,93.5 				"/>
				<polygon class="st21" points="215.5,93.2 221.2,95 221.2,95 220.8,95 215.5,93.4 				"/>
				<polygon class="st21" points="215.5,93 221.2,94.8 221.2,95 215.5,93.2 				"/>
				<polygon class="st21" points="215.5,92.9 221.2,94.6 221.2,94.8 215.5,93 				"/>
				<polygon class="st21" points="215.5,92.7 221.2,94.5 221.2,94.6 215.5,92.9 				"/>
				<polygon class="st21" points="215.5,92.5 221.2,94.3 221.2,94.5 215.5,92.7 				"/>
				<polygon class="st21" points="215.5,92.3 221.2,94.1 221.2,94.3 215.5,92.5 				"/>
				<polygon class="st21" points="215.5,92.2 221.2,94 221.2,94.1 215.5,92.3 				"/>
				<polygon class="st21" points="215.5,92 221.2,93.8 221.2,94 215.5,92.2 				"/>
				<polygon class="st21" points="215.5,91.8 221.2,93.6 221.2,93.8 215.5,92 				"/>
				<polygon class="st21" points="215.5,91.7 221.2,93.4 221.2,93.6 215.5,91.8 				"/>
				<polygon class="st21" points="215.5,91.5 221.2,93.3 221.2,93.4 215.5,91.7 				"/>
				<polygon class="st21" points="215.5,91.3 221.2,93.1 221.2,93.3 215.5,91.5 				"/>
				<polygon class="st21" points="215.5,91.1 221.2,92.9 221.2,93.1 215.5,91.3 				"/>
				<polygon class="st21" points="215.5,91 221.2,92.8 221.2,92.9 215.5,91.1 				"/>
				<polygon class="st21" points="215.5,90.8 221.2,92.6 221.2,92.8 215.5,91 				"/>
				<polygon class="st21" points="215.5,90.6 221.2,92.4 221.2,92.6 215.5,90.8 				"/>
				<polygon class="st21" points="215.5,90.5 221.2,92.3 221.2,92.4 215.5,90.6 				"/>
				<polygon class="st21" points="215.9,90.4 221.2,92.1 221.2,92.3 215.5,90.5 215.5,90.4 				"/>
				<polygon class="st21" points="216.5,90.4 221.2,91.9 221.2,92.1 215.9,90.4 				"/>
				<polygon class="st21" points="217,90.4 221.2,91.7 221.2,91.9 216.5,90.4 				"/>
				<polygon class="st21" points="217.6,90.4 221.2,91.6 221.2,91.7 217,90.4 				"/>
				<polygon class="st21" points="218.1,90.4 221.2,91.4 221.2,91.6 217.6,90.4 				"/>
				<polygon class="st21" points="218.7,90.4 221.2,91.2 221.2,91.4 218.1,90.4 				"/>
				<polygon class="st21" points="219.2,90.4 221.2,91.1 221.2,91.2 218.7,90.4 				"/>
				<polygon class="st21" points="219.7,90.4 221.2,90.9 221.2,91.1 219.2,90.4 				"/>
				<polygon class="st21" points="220.3,90.4 221.2,90.7 221.2,90.9 219.7,90.4 				"/>
				<polygon class="st21" points="220.8,90.4 221.2,90.6 221.2,90.7 220.3,90.4 				"/>
				<polygon class="st21" points="221.2,90.6 220.8,90.4 221.2,90.4 				"/>
				<polygon class="st21" points="217,91.3 217.3,91.4 217,91.4 				"/>
				<polygon class="st21" points="217,91.1 217.8,91.4 217.3,91.4 217,91.3 				"/>
				<polygon class="st21" points="217,90.9 218.4,91.4 217.8,91.4 217,91.1 				"/>
				<polygon class="st21" points="217,90.7 218.9,91.4 218.4,91.4 217,90.9 				"/>
				<polygon class="st21" points="217,90.6 219.4,91.4 218.9,91.4 217,90.7 				"/>
				<polygon class="st21" points="217,90.4 219.9,91.3 219.9,91.4 219.4,91.4 217,90.6 				"/>
				<polygon class="st21" points="217,90.2 219.9,91.1 219.9,91.3 217,90.4 				"/>
				<polygon class="st21" points="217,90.1 219.9,91 219.9,91.1 217,90.2 				"/>
				<polygon class="st21" points="217,89.9 219.9,90.8 219.9,91 217,90.1 				"/>
				<polygon class="st21" points="217,89.7 219.9,90.6 219.9,90.8 217,89.9 				"/>
				<polygon class="st21" points="217,89.6 219.9,90.5 219.9,90.6 217,89.7 				"/>
				<polygon class="st21" points="217,89.4 219.9,90.3 219.9,90.5 217,89.6 				"/>
				<polygon class="st21" points="217,89.2 219.9,90.1 219.9,90.3 217,89.4 				"/>
				<polygon class="st21" points="217,89 219.9,90 219.9,90.1 217,89.2 				"/>
				<polygon class="st21" points="217,88.9 219.9,89.8 219.9,90 217,89 				"/>
				<polygon class="st21" points="217,88.7 219.9,89.6 219.9,89.8 217,88.9 				"/>
				<polygon class="st21" points="217,88.5 219.9,89.4 219.9,89.6 217,88.7 				"/>
				<polygon class="st21" points="217,88.4 219.9,89.3 219.9,89.4 217,88.5 				"/>
				<polygon class="st21" points="217,88.2 219.9,89.1 219.9,89.3 217,88.4 				"/>
				<polygon class="st21" points="217,88 219.9,88.9 219.9,89.1 217,88.2 				"/>
				<polygon class="st21" points="217,87.9 219.9,88.8 219.9,88.9 217,88 				"/>
				<polygon class="st21" points="217,87.7 219.9,88.6 219.9,88.8 217,87.9 				"/>
				<polygon class="st21" points="217,87.5 219.9,88.4 219.9,88.6 217,87.7 				"/>
				<polygon class="st21" points="217,87.3 219.9,88.3 219.9,88.4 217,87.5 				"/>
				<polygon class="st21" points="217,87.2 219.9,88.1 219.9,88.3 217,87.3 				"/>
				<polygon class="st21" points="217,87 219.9,87.9 219.9,88.1 217,87.2 				"/>
				<polygon class="st21" points="217,86.8 219.9,87.7 219.9,87.9 217,87 				"/>
				<polygon class="st21" points="217,86.7 219.9,87.6 219.9,87.7 217,86.8 				"/>
				<polygon class="st21" points="217,86.5 219.9,87.4 219.9,87.6 217,86.7 				"/>
				<polygon class="st21" points="217,86.3 219.9,87.2 219.9,87.4 217,86.5 				"/>
				<polygon class="st21" points="217,86.2 219.9,87.1 219.9,87.2 217,86.3 				"/>
				<polygon class="st21" points="217.4,86.1 219.9,86.9 219.9,87.1 217,86.2 217,86.1 				"/>
				<polygon class="st21" points="217.9,86.1 219.9,86.7 219.9,86.9 217.4,86.1 				"/>
				<polygon class="st21" points="218.5,86.1 219.9,86.6 219.9,86.7 217.9,86.1 				"/>
				<polygon class="st21" points="219,86.1 219.9,86.4 219.9,86.6 218.5,86.1 				"/>
				<polygon class="st21" points="219.6,86.1 219.9,86.2 219.9,86.4 219,86.1 				"/>
				<polygon class="st21" points="219.9,86.2 219.6,86.1 219.9,86.1 				"/>
				<polygon class="st21" points="214.7,96.2 214.7,96.2 214.7,96.2 				"/>
				<polygon class="st21" points="214.7,96 215.2,96.2 214.7,96.2 214.7,96.2 				"/>
				<polygon class="st21" points="214.7,95.8 215.8,96.2 215.2,96.2 214.7,96 				"/>
				<polygon class="st21" points="214.7,95.6 216.3,96.2 215.8,96.2 214.7,95.8 				"/>
				<polygon class="st21" points="214.7,95.5 216.9,96.2 216.3,96.2 214.7,95.6 				"/>
				<polygon class="st21" points="214.7,95.3 217.4,96.2 216.9,96.2 214.7,95.5 				"/>
				<polygon class="st21" points="214.7,95.1 217.9,96.2 217.4,96.2 214.7,95.3 				"/>
				<polygon class="st21" points="214.7,95 218.5,96.2 217.9,96.2 214.7,95.1 				"/>
				<polygon class="st21" points="214.7,94.8 219,96.2 218.5,96.2 214.7,95 				"/>
				<polygon class="st21" points="214.7,94.6 219.6,96.2 219,96.2 214.7,94.8 				"/>
				<polygon class="st21" points="214.7,94.5 220.1,96.2 219.6,96.2 214.7,94.6 				"/>
				<polygon class="st21" points="214.7,94.3 220.7,96.2 220.1,96.2 214.7,94.5 				"/>
				<polygon class="st21" points="214.7,94.1 221.2,96.2 220.7,96.2 214.7,94.3 				"/>
				<polygon class="st21" points="214.7,93.9 221.7,96.2 221.2,96.2 214.7,94.1 				"/>
				<polygon class="st21" points="214.7,93.8 222.2,96.1 222.2,96.2 221.7,96.2 214.7,93.9 				"/>
				<polygon class="st21" points="214.7,93.6 222.2,96 222.2,96.1 214.7,93.8 				"/>
				<polygon class="st21" points="214.7,93.4 222.2,95.8 222.2,96 214.7,93.6 				"/>
				<polygon class="st21" points="214.7,93.3 222.2,95.6 222.2,95.8 214.7,93.4 				"/>
				<polygon class="st21" points="214.7,93.1 222.2,95.4 222.2,95.6 214.7,93.3 				"/>
				<polygon class="st21" points="214.7,92.9 222.2,95.3 222.2,95.4 214.7,93.1 				"/>
				<polygon class="st21" points="214.7,92.8 222.2,95.1 222.2,95.3 214.7,92.9 				"/>
				<polygon class="st21" points="214.7,92.6 222.2,94.9 222.2,95.1 214.7,92.8 				"/>
				<polygon class="st21" points="214.7,92.4 222.2,94.8 222.2,94.9 214.7,92.6 				"/>
				<polygon class="st21" points="214.7,92.2 222.2,94.6 222.2,94.8 214.7,92.4 				"/>
				<polygon class="st21" points="214.7,92.1 222.2,94.4 222.2,94.6 214.7,92.2 				"/>
				<polygon class="st21" points="214.7,91.9 222.2,94.3 222.2,94.4 214.7,92.1 				"/>
				<polygon class="st21" points="214.7,91.7 222.2,94.1 222.2,94.3 214.7,91.9 				"/>
				<polygon class="st21" points="214.7,91.6 222.2,93.9 222.2,94.1 214.7,91.7 				"/>
				<polygon class="st21" points="214.7,91.4 222.2,93.7 222.2,93.9 214.7,91.6 				"/>
				<polygon class="st21" points="214.7,91.2 222.2,93.6 222.2,93.7 214.7,91.4 				"/>
				<polygon class="st21" points="214.7,91.1 222.2,93.4 222.2,93.6 214.7,91.2 				"/>
				<polygon class="st21" points="214.7,90.9 222.2,93.2 222.2,93.4 214.7,91.1 				"/>
				<polygon class="st21" points="214.7,90.7 222.2,93.1 222.2,93.2 214.7,90.9 				"/>
				<polygon class="st21" points="214.7,90.5 222.2,92.9 222.2,93.1 214.7,90.7 				"/>
				<polygon class="st21" points="214.7,90.4 222.2,92.7 222.2,92.9 214.7,90.5 				"/>
				<polygon class="st21" points="214.7,90.2 222.2,92.6 222.2,92.7 214.7,90.4 				"/>
				<polygon class="st21" points="214.7,90 222.2,92.4 222.2,92.6 214.7,90.2 				"/>
				<polygon class="st21" points="214.7,89.9 222.2,92.2 222.2,92.4 214.7,90 				"/>
				<polygon class="st21" points="214.7,89.7 222.2,92 222.2,92.2 214.7,89.9 				"/>
				<polygon class="st21" points="214.7,89.5 222.2,91.9 222.2,92 214.7,89.7 				"/>
				<polygon class="st21" points="214.7,89.4 222.2,91.7 222.2,91.9 214.7,89.5 				"/>
				<polygon class="st21" points="214.7,89.2 222.2,91.5 222.2,91.7 214.7,89.4 				"/>
				<polygon class="st21" points="214.7,89 222.2,91.4 222.2,91.5 214.7,89.2 				"/>
				<polygon class="st21" points="214.7,88.8 222.2,91.2 222.2,91.4 214.7,89 				"/>
				<polygon class="st21" points="214.7,88.7 222.2,91 222.2,91.2 214.7,88.8 				"/>
				<polygon class="st21" points="214.7,88.5 222.2,90.9 222.2,91 214.7,88.7 				"/>
				<polygon class="st21" points="214.7,88.3 222.2,90.7 222.2,90.9 214.7,88.5 				"/>
				<polygon class="st21" points="214.7,88.2 222.2,90.5 222.2,90.7 214.7,88.3 				"/>
				<polygon class="st21" points="214.7,88 222.2,90.3 222.2,90.5 214.7,88.2 				"/>
				<polygon class="st21" points="214.7,87.8 222.2,90.2 222.2,90.3 214.7,88 				"/>
				<polygon class="st21" points="214.7,87.6 222.2,90 222.2,90.2 214.7,87.8 				"/>
				<polygon class="st21" points="214.7,87.5 222.2,89.8 222.2,90 214.7,87.6 				"/>
				<polygon class="st21" points="214.7,87.3 222.2,89.7 222.2,89.8 214.7,87.5 				"/>
				<polygon class="st21" points="214.7,87.1 222.2,89.5 222.2,89.7 214.7,87.3 				"/>
				<polygon class="st21" points="214.7,87 222.2,89.3 222.2,89.5 214.7,87.1 				"/>
				<polygon class="st21" points="214.7,86.8 222.2,89.2 222.2,89.3 214.7,87 				"/>
				<polygon class="st21" points="214.7,86.6 222.2,89 222.2,89.2 214.7,86.8 				"/>
				<polygon class="st21" points="214.7,86.6 214.7,86.5 222.2,88.8 222.2,89 214.7,86.6 				"/>
				<polygon class="st21" points="214.7,86.5 214.8,86.3 222.2,88.6 222.2,88.8 				"/>
				<polygon class="st21" points="214.8,86.3 214.8,86.2 222.2,88.5 222.2,88.6 				"/>
				<polygon class="st21" points="214.8,86.2 214.9,86 222.2,88.3 222.2,88.5 				"/>
				<polygon class="st21" points="214.9,86 214.9,85.8 222.2,88.1 222.2,88.3 				"/>
				<polygon class="st21" points="214.9,85.8 215,85.7 222.2,88 222.2,88.1 				"/>
				<polygon class="st21" points="215,85.7 215,85.5 222.2,87.8 222.2,88 				"/>
				<polygon class="st21" points="215,85.5 215.1,85.4 222.2,87.6 222.2,87.8 				"/>
				<polygon class="st21" points="215.1,85.4 215.1,85.2 222.2,87.5 222.2,87.6 				"/>
				<polygon class="st21" points="215.1,85.2 215.2,85.1 215.2,85.1 222.2,87.3 222.2,87.5 				"/>
				<polygon class="st21" points="215.7,85.1 222.2,87.1 222.2,87.3 215.2,85.1 				"/>
				<polygon class="st21" points="216.3,85.1 222.2,86.9 222.2,87.1 215.7,85.1 				"/>
				<polygon class="st21" points="216.8,85.1 222.2,86.8 222.2,86.9 216.3,85.1 				"/>
				<polygon class="st21" points="217.4,85.1 222.2,86.6 222.2,86.8 216.8,85.1 				"/>
				<polygon class="st21" points="217.9,85.1 222.2,86.4 222.2,86.6 217.4,85.1 				"/>
				<polygon class="st21" points="218.4,85.1 222.2,86.3 222.2,86.4 217.9,85.1 				"/>
				<polygon class="st21" points="219,85.1 222.2,86.1 222.2,86.3 218.4,85.1 				"/>
				<polygon class="st21" points="219.5,85.1 222.2,85.9 222.2,86.1 219,85.1 				"/>
				<polygon class="st21" points="220.1,85.1 222.2,85.7 222.2,85.9 219.5,85.1 				"/>
				<polygon class="st21" points="220.6,85.1 222.2,85.6 222.2,85.7 220.1,85.1 				"/>
				<polygon class="st21" points="221.2,85.1 222.2,85.4 222.2,85.6 220.6,85.1 				"/>
				<polygon class="st21" points="221.7,85.1 222.2,85.2 222.2,85.4 221.2,85.1 				"/>
				<polygon class="st21" points="222.2,85.2 221.7,85.1 222.2,85.1 				"/>
			</g>
		</g>
		<g>
			<g>
				<defs>
					<path id="SVGID_15_" d="M218.4,83.5c-0.2,0.2-0.5,0.3-0.7,0.5c-2.4,1.8-4,4.8-4.2,7.6c-0.1,1,0.1,1.8,0.4,2.4
						c0.1,0.1,0.3,0.1,0.4,0c0.1-0.1,0.3-0.4,0.3-0.5c0-0.1,0-0.3-0.1-0.4c-0.3-0.7-0.4-1.4-0.2-2.4c0.3-1.9,1.2-3.7,2.6-5.2
						c1.5-1.5,2.9-2,4.1-1.5c1.3,0.5,1.8,2.4,1.1,4.7c-0.1,0.4,0,0.7,0.2,0.6c0.2,0,0.4-0.3,0.6-0.7
						C224.3,84.2,221.9,81.5,218.4,83.5z"/>
				</defs>
				<use xlink:href="#SVGID_15_"  style="overflow:visible;fill:#FFFFFF;"/>
				<clipPath id="SVGID_16_">
					<use xlink:href="#SVGID_15_"  style="overflow:visible;"/>
				</clipPath>
				<polygon class="st22" points="213.4,94.1 213.5,94.1 213.4,94.1 				"/>
				<polygon class="st22" points="213.4,93.9 214.1,94.1 213.5,94.1 213.4,94.1 				"/>
				<polygon class="st22" points="213.4,93.7 214.6,94.1 214.1,94.1 213.4,93.9 				"/>
				<polygon class="st22" points="213.4,93.6 215.2,94.1 214.6,94.1 213.4,93.7 				"/>
				<polygon class="st22" points="213.4,93.4 215.7,94.1 215.2,94.1 213.4,93.6 				"/>
				<polygon class="st22" points="213.4,93.2 216.3,94.1 215.7,94.1 213.4,93.4 				"/>
				<polygon class="st22" points="213.4,93 216.8,94.1 216.3,94.1 213.4,93.2 				"/>
				<polygon class="st22" points="213.4,92.9 217.3,94.1 216.8,94.1 213.4,93 				"/>
				<polygon class="st22" points="213.4,92.7 217.9,94.1 217.3,94.1 213.4,92.9 				"/>
				<polygon class="st22" points="213.4,92.5 218.4,94.1 217.9,94.1 213.4,92.7 				"/>
				<polygon class="st22" points="213.4,92.4 219,94.1 218.4,94.1 213.4,92.5 				"/>
				<polygon class="st22" points="213.4,92.2 219.5,94.1 219,94.1 213.4,92.4 				"/>
				<polygon class="st22" points="213.4,92 220.1,94.1 219.5,94.1 213.4,92.2 				"/>
				<polygon class="st22" points="213.4,91.9 220.6,94.1 220.1,94.1 213.4,92 				"/>
				<polygon class="st22" points="213.4,91.7 221.2,94.1 220.6,94.1 213.4,91.9 				"/>
				<polygon class="st22" points="213.4,91.5 221.7,94.1 221.2,94.1 213.4,91.7 				"/>
				<polygon class="st22" points="213.4,91.3 222.2,94.1 221.7,94.1 213.4,91.5 				"/>
				<polygon class="st22" points="213.4,91.2 222.8,94.1 222.2,94.1 213.4,91.3 				"/>
				<polygon class="st22" points="213.4,91 223.3,94.1 222.8,94.1 213.4,91.2 				"/>
				<polygon class="st22" points="213.4,90.8 223.4,93.9 223.3,94.1 223.3,94.1 213.4,91 				"/>
				<polygon class="st22" points="213.4,90.7 223.4,93.8 223.4,93.9 213.4,90.8 				"/>
				<polygon class="st22" points="213.4,90.5 223.5,93.6 223.4,93.8 213.4,90.7 				"/>
				<polygon class="st22" points="213.4,90.3 223.5,93.5 223.5,93.6 213.4,90.5 				"/>
				<polygon class="st22" points="213.4,90.2 223.6,93.3 223.5,93.5 213.4,90.3 				"/>
				<polygon class="st22" points="213.4,90 223.6,93.2 223.6,93.3 213.4,90.2 				"/>
				<polygon class="st22" points="213.4,89.8 223.7,93 223.6,93.2 213.4,90 				"/>
				<polygon class="st22" points="213.4,89.6 223.7,92.9 223.7,93 213.4,89.8 				"/>
				<polygon class="st22" points="213.4,89.5 223.8,92.7 223.7,92.9 213.4,89.6 				"/>
				<polygon class="st22" points="213.4,89.3 223.8,92.6 223.8,92.7 213.4,89.5 				"/>
				<polygon class="st22" points="213.4,89.1 223.9,92.4 223.8,92.6 213.4,89.3 				"/>
				<polygon class="st22" points="213.4,89 223.9,92.2 223.9,92.4 213.4,89.1 				"/>
				<polygon class="st22" points="213.4,88.8 224,92.1 223.9,92.2 213.4,89 				"/>
				<polygon class="st22" points="213.4,88.6 224,91.9 224,92.1 213.4,88.8 				"/>
				<polygon class="st22" points="213.4,88.4 224.1,91.8 224,91.9 213.4,88.6 				"/>
				<polygon class="st22" points="213.4,88.3 224.1,91.6 224.1,91.8 213.4,88.4 				"/>
				<polygon class="st22" points="213.4,88.1 224.2,91.5 224.1,91.6 213.4,88.3 				"/>
				<polygon class="st22" points="213.4,87.9 224.2,91.3 224.2,91.5 213.4,88.1 				"/>
				<polygon class="st22" points="213.4,87.8 224.2,91.2 224.2,91.3 213.4,87.9 				"/>
				<polygon class="st22" points="213.4,87.6 224.3,91 224.3,91.1 224.2,91.2 213.4,87.8 				"/>
				<polygon class="st22" points="213.4,87.4 224.3,90.8 224.3,91 213.4,87.6 				"/>
				<polygon class="st22" points="213.4,87.3 224.3,90.6 224.3,90.8 213.4,87.4 				"/>
				<polygon class="st22" points="213.4,87.1 224.3,90.5 224.3,90.6 213.4,87.3 				"/>
				<polygon class="st22" points="213.4,86.9 224.3,90.3 224.3,90.5 213.4,87.1 				"/>
				<polygon class="st22" points="213.4,86.7 224.3,90.1 224.3,90.3 213.4,86.9 				"/>
				<polygon class="st22" points="213.4,86.6 224.3,90 224.3,90.1 213.4,86.7 				"/>
				<polygon class="st22" points="213.4,86.4 224.3,89.8 224.3,90 213.4,86.6 				"/>
				<polygon class="st22" points="213.4,86.2 224.3,89.6 224.3,89.8 213.4,86.4 				"/>
				<polygon class="st22" points="213.4,86.1 224.3,89.5 224.3,89.6 213.4,86.2 				"/>
				<polygon class="st22" points="213.4,85.9 224.3,89.3 224.3,89.5 213.4,86.1 				"/>
				<polygon class="st22" points="213.4,85.7 224.3,89.1 224.3,89.3 213.4,85.9 				"/>
				<polygon class="st22" points="213.4,85.6 224.3,88.9 224.3,89.1 213.4,85.7 				"/>
				<polygon class="st22" points="213.4,85.4 224.3,88.8 224.3,88.9 213.4,85.6 				"/>
				<polygon class="st22" points="213.4,85.2 224.3,88.6 224.3,88.8 213.4,85.4 				"/>
				<polygon class="st22" points="213.4,85 224.3,88.4 224.3,88.6 213.4,85.2 				"/>
				<polygon class="st22" points="213.4,84.9 224.3,88.3 224.3,88.4 213.4,85 				"/>
				<polygon class="st22" points="213.4,84.7 224.3,88.1 224.3,88.3 213.4,84.9 				"/>
				<polygon class="st22" points="213.4,84.5 224.3,87.9 224.3,88.1 213.4,84.7 				"/>
				<polygon class="st22" points="213.4,84.4 224.3,87.8 224.3,87.9 213.4,84.5 				"/>
				<polygon class="st22" points="213.4,84.2 224.3,87.6 224.3,87.8 213.4,84.4 				"/>
				<polygon class="st22" points="213.4,84 224.3,87.4 224.3,87.6 213.4,84.2 				"/>
				<polygon class="st22" points="213.4,83.9 224.3,87.2 224.3,87.4 213.4,84 				"/>
				<polygon class="st22" points="213.4,83.7 224.3,87.1 224.3,87.2 213.4,83.9 				"/>
				<polygon class="st22" points="213.4,83.5 224.3,86.9 224.3,87.1 213.4,83.7 				"/>
				<polygon class="st22" points="213.4,83.3 224.3,86.7 224.3,86.9 213.4,83.5 				"/>
				<polygon class="st22" points="213.4,83.2 224.3,86.6 224.3,86.7 213.4,83.3 				"/>
				<polygon class="st22" points="213.4,83 224.3,86.4 224.3,86.6 213.4,83.2 				"/>
				<polygon class="st22" points="213.4,82.9 213.5,82.8 224.3,86.2 224.3,86.4 213.4,83 				"/>
				<polygon class="st22" points="213.5,82.8 213.5,82.7 224.3,86.1 224.3,86.2 				"/>
				<polygon class="st22" points="213.5,82.7 213.6,82.5 224.3,85.9 224.3,86.1 				"/>
				<polygon class="st22" points="213.6,82.5 213.6,82.4 224.3,85.7 224.3,85.9 				"/>
				<polygon class="st22" points="213.6,82.4 213.7,82.2 224.3,85.5 224.3,85.7 				"/>
				<polygon class="st22" points="213.7,82.2 213.7,82.1 224.3,85.4 224.3,85.5 				"/>
				<polygon class="st22" points="213.7,82.1 213.7,81.9 224.3,85.2 224.3,85.4 				"/>
				<polygon class="st22" points="213.7,81.9 213.8,81.8 224.3,85 224.3,85.2 				"/>
				<polygon class="st22" points="213.8,81.8 213.8,81.6 224.3,84.9 224.3,85 				"/>
				<polygon class="st22" points="213.8,81.6 213.9,81.5 214,81.5 224.3,84.7 224.3,84.9 				"/>
				<polygon class="st22" points="224.3,84.7 214,81.5 224.3,81.5 				"/>
			</g>
		</g>
	</g>
	<g class="st20">
		<line class="st6" x1="226" y1="82.2" x2="242.9" y2="72.4"/>
		<path class="st6" d="M226,82.9c-0.2,0-0.5-0.1-0.6-0.4c-0.2-0.3-0.1-0.8,0.3-1l16.9-9.8c0.3-0.2,0.8-0.1,1,0.3s0.1,0.8-0.3,1
			l-16.9,9.8C226.3,82.9,226.2,82.9,226,82.9z"/>
	</g>
	<g class="st20">
		<line class="st6" x1="226.3" y1="87.9" x2="232.6" y2="84.3"/>
		<path class="st6" d="M226.3,88.6c-0.2,0-0.5-0.1-0.6-0.4c-0.2-0.3-0.1-0.8,0.3-1l6.2-3.6c0.3-0.2,0.8-0.1,1,0.3s0.1,0.8-0.3,1
			l-6.2,3.6C226.6,88.5,226.5,88.6,226.3,88.6z"/>
	</g>
	<linearGradient id="SVGID_17_" gradientUnits="userSpaceOnUse" x1="210.8396" y1="117.5064" x2="251.5512" y2="117.5064">
		<stop  offset="2.051282e-02" style="stop-color:#2AFADF"/>
		<stop  offset="0.39" style="stop-color:#43FBE3;stop-opacity:0.6982"/>
		<stop  offset="1" style="stop-color:#75FCEA;stop-opacity:0.2"/>
	</linearGradient>
	<path class="st23" d="M249.9,92.5c0.9-0.5,1.7-0.1,1.7,1V118c0,1.1-0.7,2.3-1.7,2.9l-37.4,21.6c-0.9,0.5-1.7,0.1-1.7-1V117
		c0-1.1,0.7-2.3,1.7-2.9L249.9,92.5z"/>
	<g class="st20">
		<g>
			<g>
				<defs>
					<path id="SVGID_18_" d="M223.2,125.4c-0.4-0.1-0.9-0.2-1.3-0.3c0.4-1.4,0.4-1.8,0.3-2.5c-0.1-1.2-1-1.7-2.1-1.1
						c-1.1,0.6-2.1,2-2.3,3.4c-0.2,1,0,1.8,0.3,2.4c-0.2,0.3-0.5,0.6-0.7,0.8c-0.5,0.6-0.9,1.3-1.1,2c-0.1,0.4,0,0.6,0.2,0.7
						c1.9,1.1,4.8-0.6,6.8-3.8c0.4-0.6,0.5-0.9,0.2-1.5C223.4,125.6,223.3,125.5,223.2,125.4z M219.6,122.8c0.9-0.8,1.7-0.6,1.8,0.6
						c0,0.7-0.1,1.4-0.4,2.2c-0.5,1.1-1.4,1.7-1.9,1.1c-0.3-0.3-0.4-0.8-0.5-1.4C218.5,124.3,218.9,123.3,219.6,122.8z M222.7,126.9
						c-1.5,2.5-4.1,3.9-5.5,3c0.1-0.3,0.3-0.5,0.4-0.8c0.2-0.3,0.5-0.6,0.7-0.9c0.2-0.3,0.4-0.4,0.6-0.3c0.6,0.1,1.5-0.4,2.1-1.3
						c0.2-0.2,0.3-0.4,0.5-0.3c0.4,0.1,0.8,0.1,1.1,0.2C222.8,126.5,222.8,126.7,222.7,126.9z"/>
				</defs>
				<use xlink:href="#SVGID_18_"  style="overflow:visible;fill:#FFFFFF;"/>
				<clipPath id="SVGID_19_">
					<use xlink:href="#SVGID_18_"  style="overflow:visible;"/>
				</clipPath>
				<polygon class="st24" points="217.1,130.7 217.4,130.8 217.1,130.8 				"/>
				<polygon class="st24" points="217.1,130.5 218,130.8 217.4,130.8 217.1,130.7 				"/>
				<polygon class="st24" points="217.1,130.4 218.6,130.8 218,130.8 217.1,130.5 				"/>
				<polygon class="st24" points="217.1,130.2 219.2,130.8 218.6,130.8 217.1,130.4 				"/>
				<polygon class="st24" points="217.1,130 219.8,130.8 219.2,130.8 217.1,130.2 				"/>
				<polygon class="st24" points="217.1,129.8 220.4,130.8 219.8,130.8 217.1,130 				"/>
				<polygon class="st24" points="217.1,129.6 221,130.8 220.4,130.8 217.1,129.8 				"/>
				<polygon class="st24" points="217.1,129.4 221.6,130.8 221,130.8 217.1,129.6 				"/>
				<polygon class="st24" points="217.1,129.2 222.2,130.8 221.6,130.8 217.1,129.4 				"/>
				<polygon class="st24" points="217.1,129 222.8,130.8 222.2,130.8 217.1,129.2 				"/>
				<polygon class="st24" points="217.1,128.8 222.8,130.6 222.8,130.8 222.8,130.8 217.1,129 				"/>
				<polygon class="st24" points="217.1,128.6 222.8,130.4 222.8,130.6 217.1,128.8 				"/>
				<polygon class="st24" points="217.1,128.4 222.8,130.3 222.8,130.4 217.1,128.6 				"/>
				<polygon class="st24" points="217.1,128.2 222.8,130.1 222.8,130.3 217.1,128.4 				"/>
				<polygon class="st24" points="217.1,128 222.8,129.9 222.8,130.1 217.1,128.2 				"/>
				<polygon class="st24" points="217.1,127.8 222.8,129.7 222.8,129.9 217.1,128 				"/>
				<polygon class="st24" points="217.1,127.6 222.8,129.5 222.8,129.7 217.1,127.8 				"/>
				<polygon class="st24" points="217.1,127.4 222.8,129.3 222.8,129.5 217.1,127.6 				"/>
				<polygon class="st24" points="217.1,127.2 222.8,129.1 222.8,129.3 217.1,127.4 				"/>
				<polygon class="st24" points="217.1,127 222.8,128.9 222.8,129.1 217.1,127.2 				"/>
				<polygon class="st24" points="217.1,126.8 222.8,128.7 222.8,128.9 217.1,127 				"/>
				<polygon class="st24" points="217.1,126.6 222.8,128.5 222.8,128.7 217.1,126.8 				"/>
				<polygon class="st24" points="217.1,126.4 222.8,128.3 222.8,128.5 217.1,126.6 				"/>
				<polygon class="st24" points="217.1,126.3 222.8,128.1 222.8,128.3 217.1,126.4 217.1,126.3 				"/>
				<polygon class="st24" points="217.7,126.3 222.8,127.9 222.8,128.1 217.1,126.3 				"/>
				<polygon class="st24" points="218.3,126.3 222.8,127.7 222.8,127.9 217.7,126.3 				"/>
				<polygon class="st24" points="218.9,126.3 222.8,127.5 222.8,127.7 218.3,126.3 				"/>
				<polygon class="st24" points="219.5,126.3 222.8,127.3 222.8,127.5 218.9,126.3 				"/>
				<polygon class="st24" points="220.1,126.3 222.8,127.1 222.8,127.3 219.5,126.3 				"/>
				<polygon class="st24" points="220.7,126.3 222.8,126.9 222.8,127.1 220.1,126.3 				"/>
				<polygon class="st24" points="221.3,126.3 222.8,126.7 222.8,126.9 220.7,126.3 				"/>
				<polygon class="st24" points="221.9,126.3 222.8,126.5 222.8,126.7 221.3,126.3 				"/>
				<polygon class="st24" points="222.5,126.3 222.8,126.3 222.8,126.5 221.9,126.3 				"/>
				<polygon class="st24" points="222.8,126.3 222.5,126.3 222.8,126.3 				"/>
				<polygon class="st24" points="218.5,127.1 218.8,127.2 218.5,127.2 				"/>
				<polygon class="st24" points="218.5,126.9 219.4,127.2 218.8,127.2 218.5,127.1 				"/>
				<polygon class="st24" points="218.5,126.7 220,127.2 219.4,127.2 218.5,126.9 				"/>
				<polygon class="st24" points="218.5,126.5 220.6,127.2 220,127.2 218.5,126.7 				"/>
				<polygon class="st24" points="218.5,126.3 221.2,127.2 220.6,127.2 218.5,126.5 				"/>
				<polygon class="st24" points="218.5,126.1 221.4,127.1 221.4,127.2 221.2,127.2 218.5,126.3 				"/>
				<polygon class="st24" points="218.5,125.9 221.4,126.9 221.4,127.1 218.5,126.1 				"/>
				<polygon class="st24" points="218.5,125.7 221.4,126.7 221.4,126.9 218.5,125.9 				"/>
				<polygon class="st24" points="218.5,125.5 221.4,126.5 221.4,126.7 218.5,125.7 				"/>
				<polygon class="st24" points="218.5,125.3 221.4,126.3 221.4,126.5 218.5,125.5 				"/>
				<polygon class="st24" points="218.5,125.2 221.4,126.1 221.4,126.3 218.5,125.3 				"/>
				<polygon class="st24" points="218.5,125 221.4,125.9 221.4,126.1 218.5,125.2 				"/>
				<polygon class="st24" points="218.5,124.8 221.4,125.7 221.4,125.9 218.5,125 				"/>
				<polygon class="st24" points="218.5,124.6 221.4,125.5 221.4,125.7 218.5,124.8 				"/>
				<polygon class="st24" points="218.5,124.4 221.4,125.3 221.4,125.5 218.5,124.6 				"/>
				<polygon class="st24" points="218.5,124.2 221.4,125.1 221.4,125.3 218.5,124.4 				"/>
				<polygon class="st24" points="218.5,124 221.4,124.9 221.4,125.1 218.5,124.2 				"/>
				<polygon class="st24" points="218.5,123.8 221.4,124.7 221.4,124.9 218.5,124 				"/>
				<polygon class="st24" points="218.5,123.6 221.4,124.5 221.4,124.7 218.5,123.8 				"/>
				<polygon class="st24" points="218.5,123.4 221.4,124.3 221.4,124.5 218.5,123.6 				"/>
				<polygon class="st24" points="218.5,123.2 221.4,124.1 221.4,124.3 218.5,123.4 				"/>
				<polygon class="st24" points="218.5,123 221.4,123.9 221.4,124.1 218.5,123.2 				"/>
				<polygon class="st24" points="218.5,122.8 221.4,123.7 221.4,123.9 218.5,123 				"/>
				<polygon class="st24" points="218.5,122.6 221.4,123.6 221.4,123.7 218.5,122.8 				"/>
				<polygon class="st24" points="218.5,122.4 221.4,123.4 221.4,123.6 218.5,122.6 				"/>
				<polygon class="st24" points="218.5,122.2 221.4,123.2 221.4,123.4 218.5,122.4 				"/>
				<polygon class="st24" points="218.5,122 221.4,123 221.4,123.2 218.5,122.2 				"/>
				<polygon class="st24" points="218.9,122 221.4,122.8 221.4,123 218.5,122 218.5,122 				"/>
				<polygon class="st24" points="219.5,122 221.4,122.6 221.4,122.8 218.9,122 				"/>
				<polygon class="st24" points="220.1,122 221.4,122.4 221.4,122.6 219.5,122 				"/>
				<polygon class="st24" points="220.7,122 221.4,122.2 221.4,122.4 220.1,122 				"/>
				<polygon class="st24" points="221.3,122 221.4,122 221.4,122.2 220.7,122 				"/>
				<polygon class="st24" points="221.4,122 221.3,122 221.4,122 				"/>
				<polygon class="st24" points="216.3,131.8 216.7,132 216.3,132 				"/>
				<polygon class="st24" points="216.3,131.6 217.3,132 216.7,132 216.3,131.8 				"/>
				<polygon class="st24" points="216.3,131.4 217.9,132 217.3,132 216.3,131.6 				"/>
				<polygon class="st24" points="216.3,131.2 218.5,132 217.9,132 216.3,131.4 				"/>
				<polygon class="st24" points="216.3,131 219.1,132 218.5,132 216.3,131.2 				"/>
				<polygon class="st24" points="216.3,130.9 219.7,132 219.1,132 216.3,131 				"/>
				<polygon class="st24" points="216.3,130.7 220.3,132 219.7,132 216.3,130.9 				"/>
				<polygon class="st24" points="216.3,130.5 220.9,132 220.3,132 216.3,130.7 				"/>
				<polygon class="st24" points="216.3,130.3 221.5,132 220.9,132 216.3,130.5 				"/>
				<polygon class="st24" points="216.3,130.1 222.1,132 221.5,132 216.3,130.3 				"/>
				<polygon class="st24" points="216.3,129.9 222.7,132 222.1,132 216.3,130.1 				"/>
				<polygon class="st24" points="216.3,129.7 223.3,132 222.7,132 216.3,129.9 				"/>
				<polygon class="st24" points="216.3,129.5 223.8,131.9 223.8,132 223.3,132 216.3,129.7 				"/>
				<polygon class="st24" points="216.3,129.3 223.8,131.7 223.8,131.9 216.3,129.5 				"/>
				<polygon class="st24" points="216.3,129.1 223.8,131.5 223.8,131.7 216.3,129.3 				"/>
				<polygon class="st24" points="216.3,128.9 223.8,131.3 223.8,131.5 216.3,129.1 				"/>
				<polygon class="st24" points="216.3,128.7 223.8,131.1 223.8,131.3 216.3,128.9 				"/>
				<polygon class="st24" points="216.3,128.5 223.8,131 223.8,131.1 216.3,128.7 				"/>
				<polygon class="st24" points="216.3,128.3 223.8,130.8 223.8,131 216.3,128.5 				"/>
				<polygon class="st24" points="216.3,128.1 223.8,130.6 223.8,130.8 216.3,128.3 				"/>
				<polygon class="st24" points="216.3,127.9 223.8,130.4 223.8,130.6 216.3,128.1 				"/>
				<polygon class="st24" points="216.3,127.7 223.8,130.2 223.8,130.4 216.3,127.9 				"/>
				<polygon class="st24" points="216.3,127.5 223.8,130 223.8,130.2 216.3,127.7 				"/>
				<polygon class="st24" points="216.3,127.3 223.8,129.8 223.8,130 216.3,127.5 				"/>
				<polygon class="st24" points="216.3,127.1 223.8,129.6 223.8,129.8 216.3,127.3 				"/>
				<polygon class="st24" points="216.3,126.9 223.8,129.4 223.8,129.6 216.3,127.1 				"/>
				<polygon class="st24" points="216.3,126.8 223.8,129.2 223.8,129.4 216.3,126.9 				"/>
				<polygon class="st24" points="216.3,126.6 223.8,129 223.8,129.2 216.3,126.8 				"/>
				<polygon class="st24" points="216.3,126.4 223.8,128.8 223.8,129 216.3,126.6 				"/>
				<polygon class="st24" points="216.3,126.2 223.8,128.6 223.8,128.8 216.3,126.4 				"/>
				<polygon class="st24" points="216.3,126 223.8,128.4 223.8,128.6 216.3,126.2 				"/>
				<polygon class="st24" points="216.3,125.8 223.8,128.2 223.8,128.4 216.3,126 				"/>
				<polygon class="st24" points="216.3,125.6 223.8,128 223.8,128.2 216.3,125.8 				"/>
				<polygon class="st24" points="216.3,125.4 223.8,127.8 223.8,128 216.3,125.6 				"/>
				<polygon class="st24" points="216.3,125.2 223.8,127.6 223.8,127.8 216.3,125.4 				"/>
				<polygon class="st24" points="216.3,125 223.8,127.4 223.8,127.6 216.3,125.2 				"/>
				<polygon class="st24" points="216.3,124.8 223.8,127.2 223.8,127.4 216.3,125 				"/>
				<polygon class="st24" points="216.3,124.6 223.8,127 223.8,127.2 216.3,124.8 				"/>
				<polygon class="st24" points="216.3,124.4 223.8,126.9 223.8,127 216.3,124.6 				"/>
				<polygon class="st24" points="216.3,124.2 223.8,126.7 223.8,126.9 216.3,124.4 				"/>
				<polygon class="st24" points="216.3,124 223.8,126.5 223.8,126.7 216.3,124.2 				"/>
				<polygon class="st24" points="216.3,123.8 223.8,126.3 223.8,126.5 216.3,124 				"/>
				<polygon class="st24" points="216.3,123.6 223.8,126.1 223.8,126.3 216.3,123.8 				"/>
				<polygon class="st24" points="216.3,123.4 223.8,125.9 223.8,126.1 216.3,123.6 				"/>
				<polygon class="st24" points="216.3,123.2 223.8,125.7 223.8,125.9 216.3,123.4 				"/>
				<polygon class="st24" points="216.3,123 223.8,125.5 223.8,125.7 216.3,123.2 				"/>
				<polygon class="st24" points="216.3,122.8 223.8,125.3 223.8,125.5 216.3,123 				"/>
				<polygon class="st24" points="216.3,122.6 223.8,125.1 223.8,125.3 216.3,122.8 				"/>
				<polygon class="st24" points="216.3,122.5 223.8,124.9 223.8,125.1 216.3,122.6 				"/>
				<polygon class="st24" points="216.3,122.4 216.3,122.3 223.8,124.7 223.8,124.9 216.3,122.5 				"/>
				<polygon class="st24" points="216.3,122.3 216.4,122.1 223.8,124.5 223.8,124.7 				"/>
				<polygon class="st24" points="216.4,122.1 216.4,121.9 223.8,124.3 223.8,124.5 				"/>
				<polygon class="st24" points="216.4,121.9 216.5,121.7 223.8,124.1 223.8,124.3 				"/>
				<polygon class="st24" points="216.5,121.7 216.5,121.6 223.8,123.9 223.8,124.1 				"/>
				<polygon class="st24" points="216.5,121.6 216.6,121.4 223.8,123.7 223.8,123.9 				"/>
				<polygon class="st24" points="216.6,121.4 216.6,121.2 223.8,123.5 223.8,123.7 				"/>
				<polygon class="st24" points="216.6,121.2 216.7,121 223.8,123.3 223.8,123.5 				"/>
				<polygon class="st24" points="216.7,121 216.7,120.9 216.9,120.9 223.8,123.1 223.8,123.3 				"/>
				<polygon class="st24" points="217.5,120.9 223.8,122.9 223.8,123.1 216.9,120.9 				"/>
				<polygon class="st24" points="218.1,120.9 223.8,122.7 223.8,122.9 217.5,120.9 				"/>
				<polygon class="st24" points="218.7,120.9 223.8,122.6 223.8,122.7 218.1,120.9 				"/>
				<polygon class="st24" points="219.3,120.9 223.8,122.4 223.8,122.6 218.7,120.9 				"/>
				<polygon class="st24" points="219.9,120.9 223.8,122.2 223.8,122.4 219.3,120.9 				"/>
				<polygon class="st24" points="220.5,120.9 223.8,122 223.8,122.2 219.9,120.9 				"/>
				<polygon class="st24" points="221.1,120.9 223.8,121.8 223.8,122 220.5,120.9 				"/>
				<polygon class="st24" points="221.7,120.9 223.8,121.6 223.8,121.8 221.1,120.9 				"/>
				<polygon class="st24" points="222.3,120.9 223.8,121.4 223.8,121.6 221.7,120.9 				"/>
				<polygon class="st24" points="222.9,120.9 223.8,121.2 223.8,121.4 222.3,120.9 				"/>
				<polygon class="st24" points="223.5,120.9 223.8,121 223.8,121.2 222.9,120.9 				"/>
				<polygon class="st24" points="223.8,121 223.5,120.9 223.8,120.9 				"/>
			</g>
		</g>
		<g>
			<g>
				<defs>
					<path id="SVGID_20_" d="M220,119.3c-0.2,0.2-0.5,0.3-0.7,0.5c-2.4,1.8-4,4.8-4.2,7.6c-0.1,1,0.1,1.8,0.4,2.4
						c0.1,0.1,0.3,0.1,0.4,0c0.1-0.1,0.3-0.4,0.3-0.5c0-0.1,0-0.3-0.1-0.4c-0.3-0.7-0.4-1.4-0.2-2.4c0.3-1.9,1.2-3.7,2.6-5.2
						c1.5-1.5,2.9-2,4.1-1.5c1.3,0.5,1.8,2.4,1.1,4.7c-0.1,0.4,0,0.7,0.2,0.6c0.2,0,0.4-0.3,0.6-0.7
						C225.8,120,223.5,117.3,220,119.3z"/>
				</defs>
				<use xlink:href="#SVGID_20_"  style="overflow:visible;fill:#FFFFFF;"/>
				<clipPath id="SVGID_21_">
					<use xlink:href="#SVGID_20_"  style="overflow:visible;"/>
				</clipPath>
				<polygon class="st25" points="215,129.9 215.2,129.9 215,129.9 				"/>
				<polygon class="st25" points="215,129.7 215.8,129.9 215.2,129.9 215,129.9 				"/>
				<polygon class="st25" points="215,129.5 216.4,129.9 215.8,129.9 215,129.7 				"/>
				<polygon class="st25" points="215,129.3 217,129.9 216.4,129.9 215,129.5 				"/>
				<polygon class="st25" points="215,129.1 217.6,129.9 217,129.9 215,129.3 				"/>
				<polygon class="st25" points="215,128.9 218.2,129.9 217.6,129.9 215,129.1 				"/>
				<polygon class="st25" points="215,128.7 218.8,129.9 218.2,129.9 215,128.9 				"/>
				<polygon class="st25" points="215,128.5 219.4,129.9 218.8,129.9 215,128.7 				"/>
				<polygon class="st25" points="215,128.3 220,129.9 219.4,129.9 215,128.5 				"/>
				<polygon class="st25" points="215,128.1 220.6,129.9 220,129.9 215,128.3 				"/>
				<polygon class="st25" points="215,127.9 221.2,129.9 220.6,129.9 215,128.1 				"/>
				<polygon class="st25" points="215,127.7 221.8,129.9 221.2,129.9 215,127.9 				"/>
				<polygon class="st25" points="215,127.5 222.4,129.9 221.8,129.9 215,127.7 				"/>
				<polygon class="st25" points="215,127.3 223,129.9 222.4,129.9 215,127.5 				"/>
				<polygon class="st25" points="215,127.1 223.6,129.9 223,129.9 215,127.3 				"/>
				<polygon class="st25" points="215,126.9 224.2,129.9 223.6,129.9 215,127.1 				"/>
				<polygon class="st25" points="215,126.7 224.8,129.9 224.2,129.9 215,126.9 				"/>
				<polygon class="st25" points="215,126.5 224.9,129.8 224.8,129.9 224.8,129.9 215,126.7 				"/>
				<polygon class="st25" points="215,126.3 224.9,129.6 224.9,129.8 215,126.5 				"/>
				<polygon class="st25" points="215,126.1 225,129.4 224.9,129.6 215,126.3 				"/>
				<polygon class="st25" points="215,126 225.1,129.2 225,129.4 215,126.1 				"/>
				<polygon class="st25" points="215,125.8 225.1,129.1 225.1,129.2 215,126 				"/>
				<polygon class="st25" points="215,125.6 225.2,128.9 225.1,129.1 215,125.8 				"/>
				<polygon class="st25" points="215,125.4 225.2,128.7 225.2,128.9 215,125.6 				"/>
				<polygon class="st25" points="215,125.2 225.3,128.5 225.2,128.7 215,125.4 				"/>
				<polygon class="st25" points="215,125 225.4,128.3 225.3,128.5 215,125.2 				"/>
				<polygon class="st25" points="215,124.8 225.4,128.2 225.4,128.3 215,125 				"/>
				<polygon class="st25" points="215,124.6 225.5,128 225.4,128.2 215,124.8 				"/>
				<polygon class="st25" points="215,124.4 225.5,127.8 225.5,128 215,124.6 				"/>
				<polygon class="st25" points="215,124.2 225.6,127.6 225.5,127.8 215,124.4 				"/>
				<polygon class="st25" points="215,124 225.6,127.5 225.6,127.6 215,124.2 				"/>
				<polygon class="st25" points="215,123.8 225.7,127.3 225.6,127.5 215,124 				"/>
				<polygon class="st25" points="215,123.6 225.8,127.1 225.7,127.3 215,123.8 				"/>
				<polygon class="st25" points="215,123.4 225.8,126.9 225.8,127.1 215,123.6 				"/>
				<polygon class="st25" points="215,123.2 225.8,126.7 225.8,126.9 225.8,126.9 215,123.4 				"/>
				<polygon class="st25" points="215,123 225.8,126.5 225.8,126.7 215,123.2 				"/>
				<polygon class="st25" points="215,122.8 225.8,126.3 225.8,126.5 215,123 				"/>
				<polygon class="st25" points="215,122.6 225.8,126.2 225.8,126.3 215,122.8 				"/>
				<polygon class="st25" points="215,122.4 225.8,126 225.8,126.2 215,122.6 				"/>
				<polygon class="st25" points="215,122.2 225.8,125.8 225.8,126 215,122.4 				"/>
				<polygon class="st25" points="215,122 225.8,125.6 225.8,125.8 215,122.2 				"/>
				<polygon class="st25" points="215,121.9 225.8,125.4 225.8,125.6 215,122 				"/>
				<polygon class="st25" points="215,121.7 225.8,125.2 225.8,125.4 215,121.9 				"/>
				<polygon class="st25" points="215,121.5 225.8,125 225.8,125.2 215,121.7 				"/>
				<polygon class="st25" points="215,121.3 225.8,124.8 225.8,125 215,121.5 				"/>
				<polygon class="st25" points="215,121.1 225.8,124.6 225.8,124.8 215,121.3 				"/>
				<polygon class="st25" points="215,120.9 225.8,124.4 225.8,124.6 215,121.1 				"/>
				<polygon class="st25" points="215,120.7 225.8,124.2 225.8,124.4 215,120.9 				"/>
				<polygon class="st25" points="215,120.5 225.8,124 225.8,124.2 215,120.7 				"/>
				<polygon class="st25" points="215,120.3 225.8,123.8 225.8,124 215,120.5 				"/>
				<polygon class="st25" points="215,120.1 225.8,123.6 225.8,123.8 215,120.3 				"/>
				<polygon class="st25" points="215,119.9 225.8,123.4 225.8,123.6 215,120.1 				"/>
				<polygon class="st25" points="215,119.7 225.8,123.2 225.8,123.4 215,119.9 				"/>
				<polygon class="st25" points="215,119.5 225.8,123 225.8,123.2 215,119.7 				"/>
				<polygon class="st25" points="215,119.3 225.8,122.8 225.8,123 215,119.5 				"/>
				<polygon class="st25" points="215,119.1 225.8,122.6 225.8,122.8 215,119.3 				"/>
				<polygon class="st25" points="215,118.9 215,118.9 225.8,122.4 225.8,122.6 215,119.1 				"/>
				<polygon class="st25" points="215,118.9 215.1,118.7 225.8,122.2 225.8,122.4 				"/>
				<polygon class="st25" points="215.1,118.7 215.1,118.6 225.8,122 225.8,122.2 				"/>
				<polygon class="st25" points="215.1,118.6 215.2,118.4 225.8,121.9 225.8,122 				"/>
				<polygon class="st25" points="215.2,118.4 215.2,118.2 225.8,121.7 225.8,121.9 				"/>
				<polygon class="st25" points="215.2,118.2 215.5,117.3 225.8,117.3 225.8,121.7 				"/>
			</g>
		</g>
	</g>
	<g class="st20">
		<line class="st6" x1="227.6" y1="118" x2="244.5" y2="108.3"/>
		<path class="st6" d="M227.6,118.7c-0.2,0-0.5-0.1-0.6-0.4c-0.2-0.3-0.1-0.8,0.3-1l16.9-9.8c0.3-0.2,0.8-0.1,1,0.3s0.1,0.8-0.3,1
			l-16.9,9.8C227.8,118.7,227.7,118.7,227.6,118.7z"/>
	</g>
	<g class="st20">
		<line class="st6" x1="227.9" y1="123.7" x2="234.1" y2="120.1"/>
		<path class="st6" d="M227.9,124.4c-0.2,0-0.5-0.1-0.6-0.4c-0.2-0.3-0.1-0.8,0.3-1l6.2-3.6c0.3-0.2,0.8-0.1,1,0.3
			c0.2,0.3,0.1,0.8-0.3,1l-6.2,3.6C228.1,124.4,228,124.4,227.9,124.4z"/>
	</g>
	<path class="st26" d="M164.5,122"/>
</g>
</svg>
