<?xml version="1.0" encoding="utf-8"?>
<!-- Generator: Adobe Illustrator 22.1.0, SVG Export Plug-In . SVG Version: 6.00 Build 0)  -->
<svg version="1.1" id="Cryptocurrency" xmlns="http://www.w3.org/2000/svg" xmlns:xlink="http://www.w3.org/1999/xlink" x="0px"
	 y="0px" viewBox="0 0 593.3 438.1" style="enable-background:new 0 0 593.3 438.1;" xml:space="preserve">
<style type="text/css">
	.st0{opacity:0.6;fill:none;stroke:#FFFFFF;stroke-width:6;stroke-linecap:round;stroke-linejoin:round;stroke-miterlimit:10;}
	.st1{opacity:0.4;fill:url(#SVGID_1_);}
	.st2{opacity:0.4;fill:url(#SVGID_2_);}
	.st3{fill:url(#SVGID_3_);}
	.st4{fill:url(#SVGID_4_);}
	.st5{fill:#FFFFFF;}
	.st6{fill:#F79C82;}
	.st7{opacity:0.4;fill:url(#SVGID_5_);}
	.st8{opacity:0.4;fill:url(#SVGID_6_);}
	.st9{fill:url(#SVGID_7_);}
	.st10{fill:url(#SVGID_8_);}
	.st11{fill:url(#SVGID_9_);}
	.st12{opacity:0.4;fill:url(#SVGID_10_);}
	.st13{opacity:0.4;fill:url(#SVGID_11_);}
	.st14{fill:url(#SVGID_12_);}
	.st15{fill:url(#SVGID_13_);}
	.st16{fill:url(#SVGID_14_);}
	.st17{opacity:0.4;}
	.st18{fill:url(#SVGID_15_);}
	.st19{opacity:0.6;fill:#F2F2F2;}
	.st20{opacity:0.5;fill:#F2F2F2;}
	.st21{opacity:0.3;fill:#F2F2F2;}
	.st22{opacity:0.1;fill:#F2F2F2;}
	.st23{fill:#F2F2F2;}
	.st24{fill:url(#SVGID_16_);}
	.st25{fill:url(#SVGID_17_);}
	.st26{fill:url(#SVGID_18_);}
</style>
<ellipse id="XMLID_2_" class="st0" cx="296.7" cy="280.9" rx="293.7" ry="154.2"/>
<linearGradient id="SVGID_1_" gradientUnits="userSpaceOnUse" x1="432.2174" y1="373.5069" x2="432.2174" y2="151.6584" gradientTransform="matrix(1 -2.744536e-03 2.744536e-03 1 3.7821 -4.5028)">
	<stop  offset="2.051282e-02" style="stop-color:#2AFADF"/>
	<stop  offset="1" style="stop-color:#75FCEA;stop-opacity:0"/>
</linearGradient>
<path class="st1" d="M395.2,146.1l0.5,197.9c0,0.5,0.3,1.1,0.8,1.4l38.5,22.1c0.2,0.1,1,0.4,2.2,0.4c1.2,0,1.9-0.3,2.1-0.3
	l38.1-22.3c0.5-0.3,0.8-0.9,0.8-1.4l-0.5-197.9L395.2,146.1z"/>
<linearGradient id="SVGID_2_" gradientUnits="userSpaceOnUse" x1="432.2174" y1="384.7146" x2="432.2174" y2="215.2223" gradientTransform="matrix(1 -2.744536e-03 2.744536e-03 1 3.7821 -4.5028)">
	<stop  offset="2.051282e-02" style="stop-color:#2AFADF"/>
	<stop  offset="1" style="stop-color:#75FCEA;stop-opacity:0"/>
</linearGradient>
<path class="st2" d="M380,209.7l0.4,136.6c0,0.7,0.4,1.5,1.1,1.9l52.9,30.4c0.2,0.1,1.3,0.5,3,0.5c1.6,0,2.7-0.4,2.9-0.5l52.3-30.6
	c0.7-0.4,1.1-1.2,1.1-2l-0.4-136.6L380,209.7z"/>
<g>
	
		<linearGradient id="SVGID_3_" gradientUnits="userSpaceOnUse" x1="435.4141" y1="342.7394" x2="435.4141" y2="238.9986" gradientTransform="matrix(1 -2.744536e-03 2.744536e-03 1 3.7821 -4.5028)">
		<stop  offset="4.807692e-04" style="stop-color:#FA917A"/>
		<stop  offset="0.3933" style="stop-color:#F89980"/>
		<stop  offset="0.9946" style="stop-color:#F79C82"/>
	</linearGradient>
	<path class="st3" d="M478.9,303.6c0-0.6-0.1-1.2-0.1-1.8c0-0.6-0.1-1.2-0.2-1.9c-0.1-0.6-0.1-1.3-0.2-1.9c-0.1-0.6-0.2-1.3-0.3-2
		c-0.1-0.5-0.2-1-0.3-1.6c0-0.2-0.1-0.3-0.1-0.5c-0.1-0.7-0.3-1.4-0.4-2c-0.2-0.7-0.3-1.4-0.5-2.1c-0.2-0.7-0.4-1.4-0.5-2.1
		c-0.2-0.7-0.4-1.4-0.6-2c-0.2-0.7-0.4-1.3-0.7-2c-0.2-0.7-0.4-1.3-0.7-1.9c-0.2-0.6-0.5-1.3-0.7-1.9c-0.2-0.6-0.5-1.2-0.7-1.8
		c-0.3-0.6-0.5-1.2-0.8-1.8c-0.3-0.6-0.6-1.2-0.8-1.8c-0.3-0.7-0.6-1.3-1-2c-0.4-0.8-0.8-1.5-1.2-2.3c-0.6-1.2-1.3-2.3-2-3.5
		c-1-1.7-2.1-3.4-3.2-5c-0.7-1.1-1.5-2.1-2.2-3.1c-0.5-0.7-1.1-1.4-1.6-2.1c-0.5-0.6-1-1.2-1.5-1.9c-0.5-0.6-1-1.2-1.5-1.7
		c-0.5-0.6-1-1.1-1.5-1.7c-0.5-0.6-1.1-1.1-1.6-1.7c-0.5-0.6-1.1-1.1-1.7-1.6c-0.6-0.5-1.1-1.1-1.7-1.6c-0.6-0.5-1.1-1-1.7-1.5
		c-0.6-0.5-1.1-0.9-1.7-1.4c-0.6-0.4-1.1-0.9-1.7-1.3c-0.5-0.4-1.1-0.8-1.6-1.2c-0.5-0.4-1.1-0.7-1.6-1.1c-0.5-0.3-1.1-0.7-1.6-1
		c-0.1-0.1-0.2-0.1-0.4-0.2c-0.4-0.2-0.8-0.5-1.2-0.7c-0.5-0.3-1-0.5-1.6-0.8c-0.5-0.3-1-0.5-1.6-0.7c-0.5-0.2-1-0.4-1.6-0.7
		c-0.5-0.2-1-0.4-1.6-0.6c-0.5-0.2-1-0.3-1.5-0.5c0,0-0.1,0-0.1,0c-0.6-0.2-1.1-0.3-1.6-0.4c-0.5-0.1-1.1-0.3-1.6-0.4
		c-0.6-0.1-1.1-0.2-1.7-0.3c-0.6-0.1-1.2-0.1-1.7-0.2c-0.6,0-1.2-0.1-1.8-0.1c-0.7,0-1.3,0-2,0.1c-0.8,0.1-1.5,0.2-2.2,0.3
		c-0.9,0.2-1.8,0.4-2.7,0.7c-1.1,0.4-2.1,0.9-3.1,1.4l-11.8,6.9c1-0.6,2-1.1,3.1-1.4c0.9-0.3,1.8-0.6,2.7-0.7
		c0.7-0.1,1.5-0.3,2.2-0.3c0.7-0.1,1.3-0.1,2-0.1c0.6,0,1.2,0,1.8,0.1c0.6,0,1.2,0.1,1.7,0.2c0.6,0.1,1.1,0.2,1.7,0.3
		c0.5,0.1,1.1,0.2,1.6,0.4c0.5,0.1,1.1,0.3,1.6,0.4c0,0,0.1,0,0.1,0c0.5,0.1,1,0.3,1.5,0.5c0.5,0.2,1,0.4,1.6,0.6
		c0.5,0.2,1,0.4,1.6,0.7c0.5,0.2,1,0.5,1.6,0.7c0.5,0.3,1,0.5,1.6,0.8c0.4,0.2,0.8,0.4,1.2,0.7c0.1,0.1,0.2,0.1,0.4,0.2
		c0.5,0.3,1.1,0.6,1.6,1c0.5,0.3,1.1,0.7,1.6,1.1c0.6,0.4,1.1,0.8,1.6,1.2c0.6,0.4,1.1,0.9,1.7,1.3c0.6,0.5,1.2,0.9,1.7,1.4
		c0.6,0.5,1.2,1,1.7,1.5c0.6,0.5,1.1,1,1.7,1.6c0.6,0.5,1.1,1.1,1.7,1.6c0.5,0.5,1.1,1.1,1.6,1.7c0.5,0.6,1,1.1,1.5,1.7
		c0.5,0.6,1,1.2,1.5,1.7c0.5,0.6,1,1.2,1.5,1.9c0.6,0.7,1.1,1.4,1.6,2.1c0.8,1,1.5,2.1,2.2,3.1c1.1,1.6,2.2,3.3,3.2,5
		c0.7,1.1,1.3,2.3,2,3.5c0.4,0.7,0.8,1.5,1.2,2.3c0.3,0.7,0.7,1.3,1,2c0.3,0.6,0.6,1.2,0.8,1.8c0.3,0.6,0.5,1.2,0.8,1.8
		c0.3,0.6,0.5,1.2,0.7,1.8c0.2,0.6,0.5,1.3,0.7,1.9c0.2,0.6,0.5,1.3,0.7,1.9c0.2,0.7,0.4,1.3,0.7,2c0.2,0.7,0.4,1.4,0.6,2
		c0.2,0.7,0.4,1.4,0.6,2.1c0.2,0.7,0.3,1.4,0.5,2.1c0.2,0.7,0.3,1.4,0.4,2c0,0.2,0.1,0.3,0.1,0.5c0.1,0.5,0.2,1,0.3,1.6
		c0.1,0.7,0.2,1.3,0.3,2c0.1,0.6,0.2,1.3,0.2,1.9c0.1,0.6,0.1,1.3,0.2,1.9c0,0.6,0.1,1.2,0.1,1.8c0,0.6,0,1.2,0,1.8
		c0,0.6,0,1.2,0,1.8c0,0.6-0.1,1.2-0.1,1.8c0,0.6-0.1,1.2-0.2,1.9c-0.1,0.6-0.2,1.2-0.3,1.8c-0.1,0.6-0.2,1.3-0.4,1.9
		c-0.2,0.7-0.3,1.3-0.5,2c-0.2,0.7-0.4,1.4-0.7,2.1c-0.3,0.8-0.6,1.5-0.9,2.2c-0.4,0.9-0.9,1.8-1.5,2.7c-1.8,2.8-4,5-6.7,6.6
		l11.8-6.9c2.7-1.6,4.9-3.8,6.7-6.6h0l0,0c0.5-0.8,1-1.7,1.5-2.7c0.3-0.7,0.6-1.5,0.9-2.2c0.2-0.7,0.5-1.3,0.7-2.1
		c0.2-0.6,0.4-1.3,0.5-2c0.1-0.6,0.3-1.3,0.4-1.9c0.1-0.6,0.2-1.2,0.3-1.8c0.1-0.6,0.1-1.2,0.2-1.9c0-0.6,0.1-1.2,0.1-1.8
		c0-0.6,0-1.2,0-1.8C479,304.8,479,304.2,478.9,303.6z"/>
	<g>
		
			<linearGradient id="SVGID_4_" gradientUnits="userSpaceOnUse" x1="385.1851" y1="295.597" x2="462.5147" y2="295.597" gradientTransform="matrix(1 -2.744536e-03 2.744536e-03 1 3.7821 -4.5028)">
			<stop  offset="4.807692e-04" style="stop-color:#FA917A"/>
			<stop  offset="0.9133" style="stop-color:#F79B81"/>
			<stop  offset="0.9946" style="stop-color:#F79C82"/>
		</linearGradient>
		<path class="st4" d="M428.5,245.5c17.6,10.1,33.4,33,37.6,55.8c4.9,26.7-8,43.2-28.8,36.9c-3-0.9-6-2.2-8.9-3.9
			c-17.6-10.1-33.4-33-37.6-55.8c-4.9-26.7,8-43.2,28.8-36.9C422.5,242.5,425.5,243.8,428.5,245.5z"/>
	</g>
	<g>
		<path class="st5" d="M428.6,252.5c14.8,8.5,28.3,27.9,31.9,47.2c4.1,22.6-6.8,36.6-24.4,31.2c-2.5-0.8-5.1-1.9-7.6-3.3
			c-14.8-8.5-28.3-27.9-31.9-47.2c-4.1-22.6,6.8-36.6,24.4-31.2C423.6,249.9,426.1,251.1,428.6,252.5z"/>
	</g>
	<g>
		<path class="st6" d="M428.6,254.5c14.1,8.1,26.8,26.4,30.1,44.7c3.9,21.4-6.4,34.6-23.1,29.6c-2.4-0.7-4.8-1.8-7.2-3.1
			c-14.1-8.1-26.8-26.4-30.1-44.7c-3.9-21.4,6.4-34.6,23.1-29.6C423.9,252.1,426.3,253.2,428.6,254.5z"/>
	</g>
	<g>
		<path class="st5" d="M443.3,304.1c0.3,2.4,0.1,4.4-0.6,6c-1,2.1-2.8,2.5-5.1,1.9c-1.8-0.5-3.6-1.4-5.4-2.1c-0.1,0-0.2-0.1-0.3-0.1
			c0,2.1,0,4.9,0,7.2l-3.8-2.2c0-2.3,0-5,0-7.2c-1-0.6-2-1.2-3.1-1.9c0,2.2,0,4.9,0,7.3l-3.8-2.2c0-2.4,0-5.2,0-7.4
			c-2.6-1.5-5.1-3-7.7-4.5c0.3-1.6,0.5-3.1,0.8-4.7c0.8,0.5,1.7,1,2.5,1.5c1.2,0.7,1.7,0.4,1.7-0.9c0-6.2,0.1-12.4,0.1-18.6
			c0-1.5-0.7-2.7-2-3.6c-0.5-0.3-0.9-0.6-1.4-0.9c-0.5-0.3-0.9-0.6-1.5-0.9c0-1.6,0-3,0-4.6c2.6,1.5,5.1,3,7.7,4.5c0-2,0-4.9,0-7.2
			l3.8,2.2c0,2.3,0,5,0,7.1c1,0.6,2,1.1,3.1,1.7c0-2,0-4.8,0-7.1l3.8,2.2c0,2.3,0,5.2,0,7.3c1,0.8,2,1.5,3.1,2.4
			c1.4,1.2,2.7,2.6,3.9,4.3c3,4.2,3.3,11.5-0.7,11.6l-0.2,0.1c0.8,0.9,1.7,1.7,2.4,2.6C442.1,299.6,443.1,301.8,443.3,304.1z
			 M433.6,304.4c1.4,0.1,2.2-0.6,2.3-2.4c0-1.8-0.8-3.5-2.2-5c-1.9-2.1-3.9-3.4-6-4.6c-0.8-0.5-1.6-0.9-2.5-1.4
			c0,3.2-0.1,6.4-0.1,9.6c0.1,0.1,0.2,0.1,0.3,0.2c0.6,0.3,1.1,0.7,1.6,1C429.3,303,431.5,304.2,433.6,304.4 M425.3,277.8
			c0,3,0,5.8-0.1,8.6c0.6,0.4,1.3,0.8,1.9,1.2c1.6,0.9,3.1,1.6,4.6,1.9c1.5,0.3,2.4-0.4,2.5-2.1c0.1-1.5-0.6-3.3-2.1-4.8
			c-1.5-1.6-3.1-2.7-4.7-3.6C426.7,278.6,426,278.3,425.3,277.8"/>
	</g>
</g>
<linearGradient id="SVGID_5_" gradientUnits="userSpaceOnUse" x1="298.402" y1="227.2833" x2="298.402" y2="5.4349" gradientTransform="matrix(1 -2.744536e-03 2.744536e-03 1 3.7821 -4.5028)">
	<stop  offset="2.051282e-02" style="stop-color:#2AFADF"/>
	<stop  offset="1" style="stop-color:#75FCEA;stop-opacity:0"/>
</linearGradient>
<path class="st7" d="M261,0.2l0.5,197.9c0,0.5,0.3,1.1,0.8,1.4l38.5,22.1c0.2,0.1,1,0.4,2.2,0.4c1.2,0,1.9-0.3,2.1-0.3l38.1-22.3
	c0.5-0.3,0.8-0.9,0.8-1.4L343.4,0L261,0.2z"/>
<linearGradient id="SVGID_6_" gradientUnits="userSpaceOnUse" x1="298.402" y1="238.491" x2="298.402" y2="68.9987" gradientTransform="matrix(1 -2.744536e-03 2.744536e-03 1 3.7821 -4.5028)">
	<stop  offset="2.051282e-02" style="stop-color:#2AFADF"/>
	<stop  offset="1" style="stop-color:#75FCEA;stop-opacity:0"/>
</linearGradient>
<path class="st8" d="M245.8,63.8l0.4,136.6c0,0.7,0.4,1.5,1.1,1.9l52.9,30.4c0.2,0.1,1.3,0.5,3,0.5c1.6,0,2.7-0.4,2.9-0.5l52.3-30.6
	c0.7-0.4,1.1-1.2,1.1-2L359,63.5L245.8,63.8z"/>
<g>
	
		<linearGradient id="SVGID_7_" gradientUnits="userSpaceOnUse" x1="282.2584" y1="90.1088" x2="336.7825" y2="184.5472" gradientTransform="matrix(1 -2.744536e-03 2.744536e-03 1 3.7821 -4.5028)">
		<stop  offset="0.1174" style="stop-color:#7F64FF"/>
		<stop  offset="1" style="stop-color:#6B49FF"/>
	</linearGradient>
	<path class="st9" d="M344.7,157c0-0.6-0.1-1.2-0.1-1.8c0-0.6-0.1-1.2-0.2-1.9c-0.1-0.6-0.1-1.3-0.2-1.9c-0.1-0.6-0.2-1.3-0.3-2
		c-0.1-0.5-0.2-1-0.3-1.6c0-0.2-0.1-0.3-0.1-0.5c-0.1-0.7-0.3-1.4-0.4-2c-0.2-0.7-0.3-1.4-0.5-2.1c-0.2-0.7-0.4-1.4-0.6-2.1
		c-0.2-0.7-0.4-1.4-0.6-2c-0.2-0.7-0.4-1.3-0.7-2c-0.2-0.7-0.4-1.3-0.7-1.9c-0.2-0.6-0.5-1.3-0.7-1.9c-0.2-0.6-0.5-1.2-0.7-1.8
		c-0.3-0.6-0.5-1.2-0.8-1.8c-0.3-0.6-0.6-1.2-0.8-1.8c-0.3-0.7-0.6-1.3-1-2c-0.4-0.8-0.8-1.5-1.2-2.3c-0.6-1.2-1.3-2.3-2-3.5
		c-1-1.7-2.1-3.4-3.2-5c-0.7-1.1-1.5-2.1-2.2-3.1c-0.5-0.7-1.1-1.4-1.6-2.1c-0.5-0.6-1-1.2-1.5-1.9c-0.5-0.6-1-1.2-1.5-1.7
		c-0.5-0.6-1-1.1-1.5-1.7c-0.5-0.6-1.1-1.1-1.6-1.7c-0.5-0.6-1.1-1.1-1.7-1.6c-0.6-0.5-1.1-1.1-1.7-1.6c-0.6-0.5-1.2-1-1.7-1.5
		c-0.6-0.5-1.1-0.9-1.7-1.4c-0.6-0.4-1.1-0.9-1.7-1.3c-0.5-0.4-1.1-0.8-1.6-1.2c-0.5-0.4-1.1-0.7-1.6-1.1c-0.5-0.3-1.1-0.7-1.6-1
		c-0.1-0.1-0.2-0.1-0.4-0.2c-0.4-0.2-0.8-0.5-1.2-0.7c-0.5-0.3-1-0.5-1.6-0.8c-0.5-0.3-1-0.5-1.6-0.7c-0.5-0.2-1-0.4-1.6-0.7
		c-0.5-0.2-1-0.4-1.6-0.6c-0.5-0.2-1-0.3-1.5-0.5c0,0-0.1,0-0.1,0c-0.6-0.2-1.1-0.3-1.6-0.4c-0.5-0.1-1.1-0.3-1.6-0.4
		c-0.6-0.1-1.1-0.2-1.7-0.3c-0.6-0.1-1.2-0.1-1.7-0.2c-0.6,0-1.2-0.1-1.8-0.1c-0.7,0-1.3,0-2,0.1c-0.8,0.1-1.5,0.2-2.2,0.3
		c-0.9,0.2-1.8,0.4-2.7,0.7c-1.1,0.4-2.1,0.9-3.1,1.4l-11.8,6.9c1-0.6,2-1.1,3.1-1.4c0.9-0.3,1.8-0.6,2.7-0.7
		c0.7-0.1,1.5-0.3,2.2-0.3c0.7-0.1,1.3-0.1,2-0.1c0.6,0,1.2,0,1.8,0.1c0.6,0,1.2,0.1,1.7,0.2c0.6,0.1,1.1,0.2,1.7,0.3
		c0.5,0.1,1.1,0.2,1.6,0.4c0.5,0.1,1.1,0.3,1.6,0.4c0,0,0.1,0,0.1,0c0.2,0.1,0.3,0.1,0.5,0.2c0.7,0.2,2.1,0.7,2.6,0.9
		c0.5,0.2,1,0.4,1.6,0.7c0.5,0.2,1,0.5,1.6,0.7c0.5,0.3,1,0.5,1.6,0.8c0.4,0.2,0.8,0.4,1.2,0.7c0.1,0.1,0.2,0.1,0.4,0.2
		c0.5,0.3,1.1,0.6,1.6,1c0.5,0.3,1.1,0.7,1.6,1.1c0.6,0.4,1.1,0.8,1.6,1.2c0.6,0.4,1.1,0.9,1.7,1.3c0.6,0.5,1.2,0.9,1.7,1.4
		c0.6,0.5,1.2,1,1.7,1.5c0.6,0.5,1.1,1,1.7,1.6c0.6,0.5,1.1,1.1,1.7,1.6c0.5,0.5,1.1,1.1,1.6,1.7c0.5,0.6,1,1.1,1.5,1.7
		c0.5,0.6,1,1.2,1.5,1.7c0.5,0.6,1,1.2,1.5,1.9c0.5,0.7,1.1,1.4,1.6,2.1c0.8,1,1.5,2.1,2.2,3.1c1.1,1.6,2.2,3.3,3.2,5
		c0.7,1.1,1.3,2.3,2,3.5c0.4,0.7,0.8,1.5,1.2,2.3c0.3,0.7,0.7,1.3,1,2c0.3,0.6,0.6,1.2,0.8,1.8c0.3,0.6,0.5,1.2,0.8,1.8
		c0.3,0.6,0.5,1.2,0.7,1.8c0.2,0.6,0.5,1.3,0.7,1.9c0.2,0.6,0.5,1.3,0.7,1.9c0.2,0.7,0.4,1.3,0.7,2c0.2,0.7,0.4,1.4,0.6,2
		c0.2,0.7,0.4,1.4,0.5,2.1c0.2,0.7,0.3,1.4,0.5,2.1c0.2,0.7,0.3,1.4,0.4,2c0,0.2,0.1,0.3,0.1,0.5c0.1,0.5,0.2,1,0.3,1.6
		c0.1,0.7,0.2,1.3,0.3,2c0.1,0.6,0.2,1.3,0.2,1.9c0.1,0.6,0.1,1.3,0.2,1.9c0,0.6,0.1,1.2,0.1,1.8c0,0.6,0,1.2,0,1.8
		c0,0.6,0,1.2,0,1.8c0,0.6-0.1,1.2-0.1,1.8c0,0.6-0.1,1.2-0.2,1.9c-0.1,0.6-0.2,1.2-0.3,1.8c-0.1,0.6-0.2,1.3-0.4,1.9
		c-0.2,0.7-0.3,1.3-0.5,2c-0.2,0.7-0.4,1.4-0.7,2.1c-0.3,0.8-0.6,1.5-0.9,2.2c-0.4,0.9-0.9,1.8-1.5,2.7c-1.8,2.8-4,5-6.7,6.6
		l11.8-6.9c2.7-1.6,4.9-3.8,6.7-6.6c0.5-0.8,1-1.7,1.5-2.7c0.3-0.7,0.6-1.5,0.9-2.2c0.2-0.7,0.5-1.3,0.7-2.1c0.2-0.6,0.4-1.3,0.5-2
		c0.1-0.6,0.3-1.3,0.4-1.9c0.1-0.6,0.2-1.2,0.3-1.8c0.1-0.6,0.1-1.2,0.2-1.9c0-0.6,0.1-1.2,0.1-1.8c0-0.6,0-1.2,0-1.8
		C344.7,158.2,344.7,157.6,344.7,157z"/>
	<g>
		
			<linearGradient id="SVGID_8_" gradientUnits="userSpaceOnUse" x1="251.3277" y1="148.6253" x2="328.6574" y2="148.6253" gradientTransform="matrix(1 -2.744536e-03 2.744536e-03 1 3.7821 -4.5028)">
			<stop  offset="0.1174" style="stop-color:#7F64FF"/>
			<stop  offset="1" style="stop-color:#6B49FF"/>
		</linearGradient>
		<path class="st10" d="M294.2,98.9c17.6,10.1,33.4,33,37.6,55.8c4.9,26.7-8,43.2-28.8,36.9c-3-0.9-6-2.2-8.9-3.9
			c-17.6-10.1-33.4-33-37.6-55.8c-4.9-26.7,8-43.2,28.8-36.9C288.3,95.9,291.3,97.2,294.2,98.9z"/>
	</g>
	<g>
		<path class="st5" d="M294.4,105.9c14.8,8.5,28.3,27.9,31.9,47.2c4.1,22.6-6.8,36.6-24.4,31.2c-2.5-0.8-5.1-1.9-7.6-3.3
			c-14.8-8.5-28.3-27.9-31.9-47.2c-4.1-22.6,6.8-36.6,24.4-31.2C289.4,103.3,291.9,104.5,294.4,105.9z"/>
	</g>
	<g>
		
			<linearGradient id="SVGID_9_" gradientUnits="userSpaceOnUse" x1="259.1834" y1="148.7651" x2="321.1167" y2="148.7651" gradientTransform="matrix(1 -2.744536e-03 2.744536e-03 1 3.7821 -4.5028)">
			<stop  offset="0.1174" style="stop-color:#7F64FF"/>
			<stop  offset="1" style="stop-color:#6B49FF"/>
		</linearGradient>
		<path class="st11" d="M294.4,107.9c14.1,8.1,26.8,26.4,30.1,44.7c3.9,21.4-6.4,34.6-23.1,29.6c-2.4-0.7-4.8-1.8-7.2-3.1
			c-14.1-8.1-26.8-26.4-30.1-44.7c-3.9-21.4,6.4-34.6,23.1-29.6C289.6,105.5,292,106.6,294.4,107.9z"/>
	</g>
	<g>
		<g>
			<polygon class="st5" points="276.6,121.3 292.8,138.7 292.9,164.7 276.6,147.3 			"/>
		</g>
		<g>
			<polygon class="st5" points="311.7,142.1 311.7,168.1 295.5,150.7 295.5,139.2 			"/>
		</g>
		<g>
			<polygon class="st5" points="295.5,122.5 311.7,140 292.9,136.6 276.6,119.1 			"/>
		</g>
	</g>
</g>
<linearGradient id="SVGID_10_" gradientUnits="userSpaceOnUse" x1="152.0588" y1="364.5339" x2="152.0588" y2="142.6855" gradientTransform="matrix(1 -2.744536e-03 2.744536e-03 1 3.7821 -4.5028)">
	<stop  offset="2.051282e-02" style="stop-color:#2AFADF"/>
	<stop  offset="1" style="stop-color:#75FCEA;stop-opacity:0"/>
</linearGradient>
<path class="st12" d="M115,137.9l0.5,197.9c0,0.5,0.3,1.1,0.8,1.4l38.5,22.1c0.2,0.1,1,0.4,2.2,0.4c1.2,0,1.9-0.3,2.1-0.3l38.1-22.3
	c0.5-0.3,0.8-0.9,0.8-1.4l-0.5-197.9L115,137.9z"/>
<linearGradient id="SVGID_11_" gradientUnits="userSpaceOnUse" x1="152.0588" y1="375.7416" x2="152.0588" y2="206.2493" gradientTransform="matrix(1 -2.744536e-03 2.744536e-03 1 3.7821 -4.5028)">
	<stop  offset="2.051282e-02" style="stop-color:#2AFADF"/>
	<stop  offset="1" style="stop-color:#75FCEA;stop-opacity:0"/>
</linearGradient>
<path class="st13" d="M99.8,201.5l0.4,136.6c0,0.7,0.4,1.5,1.1,1.9l52.9,30.4c0.2,0.1,1.3,0.5,3,0.5c1.6,0,2.7-0.4,2.9-0.5
	l52.3-30.6c0.7-0.4,1.1-1.2,1.1-2L213,201.2L99.8,201.5z"/>
<g>
	
		<linearGradient id="SVGID_12_" gradientUnits="userSpaceOnUse" x1="136.088" y1="228.1187" x2="190.6124" y2="322.5577" gradientTransform="matrix(1 -2.744536e-03 2.744536e-03 1 3.7821 -4.5028)">
		<stop  offset="4.807692e-04" style="stop-color:#69ECDA"/>
		<stop  offset="0.1834" style="stop-color:#63E2DB"/>
		<stop  offset="0.4928" style="stop-color:#52C8DD"/>
		<stop  offset="0.8888" style="stop-color:#369DE0"/>
		<stop  offset="0.9946" style="stop-color:#2E90E1"/>
	</linearGradient>
	<path class="st14" d="M198.9,295.4c0-0.6,0-1.2-0.1-1.8c0-0.6-0.1-1.2-0.2-1.9c-0.1-0.6-0.1-1.3-0.2-1.9c-0.1-0.6-0.2-1.3-0.3-2
		c-0.1-0.5-0.2-1-0.3-1.6c0-0.2-0.1-0.3-0.1-0.5c-0.1-0.7-0.3-1.4-0.4-2c-0.2-0.7-0.3-1.4-0.5-2.1c-0.2-0.7-0.4-1.4-0.5-2.1
		c-0.2-0.7-0.4-1.4-0.6-2c-0.2-0.7-0.4-1.3-0.7-2c-0.2-0.7-0.4-1.3-0.7-1.9c-0.2-0.6-0.5-1.3-0.7-1.9c-0.2-0.6-0.5-1.2-0.7-1.8
		c-0.3-0.6-0.5-1.2-0.8-1.8c-0.3-0.6-0.6-1.2-0.8-1.8c-0.3-0.7-0.6-1.3-1-2c-0.4-0.8-0.8-1.5-1.2-2.3c-0.6-1.2-1.3-2.3-2-3.5
		c-1-1.7-2.1-3.4-3.2-5c-0.7-1.1-1.5-2.1-2.2-3.1c-0.5-0.7-1.1-1.4-1.6-2.1c-0.5-0.6-1-1.2-1.5-1.9c-0.5-0.6-1-1.2-1.5-1.7
		c-0.5-0.6-1-1.1-1.5-1.7c-0.5-0.6-1.1-1.1-1.6-1.7c-0.5-0.6-1.1-1.1-1.7-1.6c-0.6-0.5-1.1-1.1-1.7-1.6c-0.6-0.5-1.1-1-1.7-1.5
		c-0.6-0.5-1.1-0.9-1.7-1.4c-0.6-0.4-1.1-0.9-1.7-1.3c-0.5-0.4-1.1-0.8-1.6-1.2c-0.5-0.4-1.1-0.7-1.6-1.1c-0.5-0.3-1.1-0.7-1.6-1
		c-0.1-0.1-0.2-0.1-0.4-0.2c-0.4-0.2-0.8-0.5-1.2-0.7c-0.5-0.3-1-0.5-1.6-0.8c-0.4-0.2-3.5-1.5-4.7-1.9l0,0c-0.1,0-0.3-0.1-0.4-0.1
		c0,0-0.1,0-0.1,0c0,0,0,0,0,0c-0.3-0.1-0.7-0.2-1-0.3c0,0-0.1,0-0.1,0c-0.6-0.2-1.1-0.3-1.6-0.4c-0.5-0.1-1.1-0.3-1.6-0.4
		c-0.6-0.1-1.1-0.2-1.7-0.3c-0.6-0.1-1.2-0.1-1.7-0.2c-0.6,0-1.2-0.1-1.8-0.1c-0.7,0-1.3,0-2,0.1c-0.8,0.1-1.5,0.2-2.2,0.3
		c-0.9,0.2-1.8,0.4-2.7,0.7c-1.1,0.4-2.1,0.9-3.1,1.4l-11.8,6.9c1-0.6,2-1.1,3.1-1.4c0.9-0.3,1.8-0.6,2.7-0.7
		c0.7-0.1,1.5-0.3,2.2-0.3c0.7-0.1,1.3-0.1,2-0.1c0.6,0,1.2,0,1.8,0.1c0.6,0,1.2,0.1,1.7,0.2c0.6,0.1,1.1,0.2,1.7,0.3
		c0.5,0.1,1.1,0.2,1.6,0.4c0.5,0.1,1.1,0.3,1.6,0.4c0,0,0.1,0,0.1,0c0.5,0.1,1,0.3,1.5,0.5c-2.8-0.4,1,0.4,1.6,0.6
		c0.5,0.2,1,0.4,1.6,0.7c0.5,0.2,1,0.5,1.6,0.7c0.5,0.3,1,0.5,1.6,0.8c0.4,0.2,0.8,0.4,1.2,0.7c0.1,0.1,0.2,0.1,0.4,0.2
		c0.5,0.3,1.1,0.6,1.6,1c0.5,0.3,1.1,0.7,1.6,1.1c0.6,0.4,1.1,0.8,1.6,1.2c0.6,0.4,1.1,0.9,1.7,1.3c0.6,0.5,1.2,0.9,1.7,1.4
		c0.6,0.5,1.2,1,1.7,1.5c0.6,0.5,1.1,1,1.7,1.6c0.6,0.5,1.1,1.1,1.7,1.6c0.5,0.5,1.1,1.1,1.6,1.7c0.5,0.6,1,1.1,1.5,1.7
		c0.5,0.6,1,1.2,1.5,1.7c0.5,0.6,1,1.2,1.5,1.9c0.6,0.7,1.1,1.4,1.6,2.1c0.8,1,1.5,2.1,2.2,3.1c1.1,1.6,2.2,3.3,3.2,5
		c0.7,1.1,1.3,2.3,2,3.5c0.4,0.7,0.8,1.5,1.2,2.3c0.3,0.7,0.7,1.3,1,2c0.3,0.6,0.6,1.2,0.8,1.8c0.3,0.6,0.5,1.2,0.8,1.8
		c0.3,0.6,0.5,1.2,0.7,1.8c0.2,0.6,0.5,1.3,0.7,1.9c0.2,0.6,0.5,1.3,0.7,1.9c0.2,0.7,0.4,1.3,0.7,2c0.2,0.7,0.4,1.4,0.6,2
		c0.2,0.7,0.4,1.4,0.5,2.1c0.2,0.7,0.3,1.4,0.5,2.1c0.2,0.7,0.3,1.4,0.4,2c0,0.2,0.1,0.3,0.1,0.5c0.1,0.5,0.2,1,0.3,1.6
		c0.1,0.7,0.2,1.3,0.3,2c0.1,0.6,0.2,1.3,0.2,1.9c0.1,0.6,0.1,1.3,0.2,1.9c0,0.6,0.1,1.2,0.1,1.8c0,0.6,0,1.2,0,1.8
		c0,0.6,0,1.2,0,1.8c0,0.6-0.1,1.2-0.1,1.8c-0.1,0.6-0.1,1.2-0.2,1.9c-0.1,0.6-0.2,1.2-0.3,1.8c-0.1,0.6-0.2,1.3-0.4,1.9
		c-0.2,0.7-0.3,1.3-0.5,2c-0.2,0.7-0.4,1.4-0.7,2.1c-0.3,0.8-0.6,1.5-0.9,2.2c-0.4,0.9-0.9,1.8-1.5,2.7c-1.8,2.8-4,5-6.7,6.6
		l11.8-6.9c2.7-1.6,4.9-3.8,6.7-6.6c0.5-0.8,1-1.7,1.5-2.7c0.3-0.7,0.6-1.5,0.9-2.2c0.2-0.7,0.5-1.3,0.7-2.1c0.2-0.6,0.4-1.3,0.5-2
		c0.1-0.6,0.3-1.3,0.4-1.9c0.1-0.6,0.2-1.2,0.3-1.8c0.1-0.6,0.1-1.2,0.2-1.9c0-0.6,0.1-1.2,0.1-1.8c0-0.6,0-1.2,0-1.8
		C198.9,296.6,198.9,296,198.9,295.4z"/>
	<g>
		
			<linearGradient id="SVGID_13_" gradientUnits="userSpaceOnUse" x1="105.1574" y1="286.6354" x2="182.487" y2="286.6354" gradientTransform="matrix(1 -2.744536e-03 2.744536e-03 1 3.7821 -4.5028)">
			<stop  offset="4.807692e-04" style="stop-color:#69ECDA"/>
			<stop  offset="0.1834" style="stop-color:#63E2DB"/>
			<stop  offset="0.4928" style="stop-color:#52C8DD"/>
			<stop  offset="0.8888" style="stop-color:#369DE0"/>
			<stop  offset="0.9946" style="stop-color:#2E90E1"/>
		</linearGradient>
		<path class="st15" d="M148.4,237.3c17.6,10.1,33.4,33,37.6,55.8c4.9,26.7-8,43.2-28.8,36.9c-3-0.9-6-2.2-8.9-3.9
			c-17.6-10.1-33.4-33-37.6-55.8c-4.9-26.7,8-43.2,28.8-36.9C142.5,234.3,145.5,235.6,148.4,237.3z"/>
	</g>
	<g>
		<path class="st5" d="M148.6,244.3c14.8,8.5,28.3,27.9,31.9,47.2c4.1,22.6-6.8,36.6-24.4,31.2c-2.5-0.8-5.1-1.9-7.6-3.3
			c-14.8-8.5-28.3-27.9-31.9-47.2c-4.1-22.6,6.8-36.6,24.4-31.2C143.6,241.7,146.1,242.9,148.6,244.3z"/>
	</g>
	<g>
		
			<linearGradient id="SVGID_14_" gradientUnits="userSpaceOnUse" x1="113.0131" y1="286.7751" x2="174.9464" y2="286.7751" gradientTransform="matrix(1 -2.744536e-03 2.744536e-03 1 3.7821 -4.5028)">
			<stop  offset="4.807692e-04" style="stop-color:#69ECDA"/>
			<stop  offset="0.1834" style="stop-color:#63E2DB"/>
			<stop  offset="0.4928" style="stop-color:#52C8DD"/>
			<stop  offset="0.8888" style="stop-color:#369DE0"/>
			<stop  offset="0.9946" style="stop-color:#2E90E1"/>
		</linearGradient>
		<path class="st16" d="M148.6,246.3c14.1,8.1,26.8,26.4,30.1,44.7c3.9,21.4-6.4,34.6-23.1,29.6c-2.4-0.7-4.8-1.8-7.2-3.1
			c-14.1-8.1-26.8-26.4-30.1-44.7c-3.9-21.4,6.4-34.6,23.1-29.6C143.8,243.9,146.2,245,148.6,246.3z"/>
	</g>
	<g>
		<g>
			<polygon class="st5" points="161.2,293.2 148.1,306.8 148.1,294.7 			"/>
		</g>
		<g>
			<polygon class="st5" points="148.1,276.5 160.6,290.2 148.1,291.5 			"/>
		</g>
		<g>
			<polygon class="st5" points="148.1,257.6 160.7,288.9 148.1,275.1 			"/>
		</g>
		<g>
			<polygon class="st5" points="147,275.9 147,290.8 134.4,275.2 			"/>
		</g>
		<g>
			<polygon class="st5" points="133.8,277.4 146.9,294 146.9,306.2 			"/>
		</g>
		<g>
			<polygon class="st5" points="147,257 147,274.5 134.3,273.8 			"/>
		</g>
	</g>
</g>
<g class="st17">
	<linearGradient id="SVGID_15_" gradientUnits="userSpaceOnUse" x1="511.7368" y1="149.6169" x2="511.7368" y2="314.4955">
		<stop  offset="2.051282e-02" style="stop-color:#2AFADF"/>
		<stop  offset="1" style="stop-color:#75FCEA;stop-opacity:0"/>
	</linearGradient>
	<path class="st18" d="M511.7,314.5c-2.6,0-4.7-2.2-4.7-4.8V154.5c0-2.7,2.1-4.8,4.7-4.8c2.6,0,4.7,2.2,4.7,4.8v155.2
		C516.4,312.3,514.3,314.5,511.7,314.5z"/>
</g>
<ellipse class="st19" cx="67.4" cy="277" rx="17.4" ry="18.1"/>
<ellipse class="st20" cx="328.3" cy="357.5" rx="9.8" ry="10.2"/>
<ellipse class="st21" cx="306.1" cy="292.7" rx="13.9" ry="14.5"/>
<ellipse class="st20" cx="210" cy="176.3" rx="9.8" ry="10.2"/>
<ellipse class="st22" cx="229.7" cy="90.6" rx="9.8" ry="10.2"/>
<ellipse class="st21" cx="380" cy="154" rx="15.3" ry="15.9"/>
<ellipse class="st23" cx="449.5" cy="220.4" rx="4.3" ry="4.5"/>
<ellipse class="st23" cx="366.3" cy="100.4" rx="4.3" ry="4.5"/>
<ellipse class="st23" cx="270.5" cy="337.9" rx="7.1" ry="7.4"/>
<g class="st17">
	<linearGradient id="SVGID_16_" gradientUnits="userSpaceOnUse" x1="370.6335" y1="183.2792" x2="370.6335" y2="348.1578">
		<stop  offset="2.051282e-02" style="stop-color:#2AFADF"/>
		<stop  offset="1" style="stop-color:#75FCEA;stop-opacity:0"/>
	</linearGradient>
	<path class="st24" d="M370.6,348.2c-2.6,0-4.7-2.2-4.7-4.8V188.1c0-2.7,2.1-4.8,4.7-4.8s4.7,2.2,4.7,4.8v155.2
		C375.3,346,373.2,348.2,370.6,348.2z"/>
</g>
<g class="st17">
	<linearGradient id="SVGID_17_" gradientUnits="userSpaceOnUse" x1="80.0702" y1="116.3876" x2="80.0702" y2="281.2662">
		<stop  offset="2.051282e-02" style="stop-color:#2AFADF"/>
		<stop  offset="1" style="stop-color:#75FCEA;stop-opacity:0"/>
	</linearGradient>
	<path class="st25" d="M80.1,281.3c-2.6,0-4.7-2.2-4.7-4.8V121.2c0-2.7,2.1-4.8,4.7-4.8s4.7,2.2,4.7,4.8v155.2
		C84.7,279.1,82.6,281.3,80.1,281.3z"/>
</g>
<g class="st17">
	<linearGradient id="SVGID_18_" gradientUnits="userSpaceOnUse" x1="231.154" y1="192.765" x2="231.154" y2="357.6436">
		<stop  offset="2.051282e-02" style="stop-color:#2AFADF"/>
		<stop  offset="1" style="stop-color:#75FCEA;stop-opacity:0"/>
	</linearGradient>
	<path class="st26" d="M231.2,357.6c-2.6,0-4.7-2.2-4.7-4.8V197.6c0-2.7,2.1-4.8,4.7-4.8s4.7,2.2,4.7,4.8v155.2
		C235.8,355.5,233.7,357.6,231.2,357.6z"/>
</g>
</svg>
