<?xml version="1.0" encoding="utf-8"?>
<!-- Generator: Adobe Illustrator 22.1.0, SVG Export Plug-In . SVG Version: 6.00 Build 0)  -->
<svg version="1.1" id="_x30_03" xmlns="http://www.w3.org/2000/svg" xmlns:xlink="http://www.w3.org/1999/xlink" x="0px" y="0px"
	 viewBox="0 0 328.8 341.8" style="enable-background:new 0 0 328.8 341.8;" xml:space="preserve">
<style type="text/css">
	.st0{fill:url(#SVGID_1_);}
	.st1{fill:url(#SVGID_2_);}
	.st2{fill:#1ED4CA;}
	.st3{fill:url(#SVGID_3_);}
	.st4{opacity:0.2;fill:#0246AF;enable-background:new    ;}
	.st5{opacity:0.8;fill:#FFFFFF;enable-background:new    ;}
	.st6{fill:none;stroke:#FFFFFF;stroke-width:1.4923;stroke-linecap:round;stroke-miterlimit:10;}
	.st7{fill:none;stroke:#A6F3F1;stroke-width:1.4923;stroke-linecap:round;stroke-miterlimit:10;}
	.st8{fill:#FFFFFF;}
	.st9{fill:url(#SVGID_4_);}
	.st10{fill:none;stroke:#FFFFFF;stroke-width:2.2385;stroke-linecap:round;stroke-miterlimit:10;}
	.st11{fill:#9EE1EC;}
	.st12{opacity:0.2;fill:url(#SVGID_5_);}
	.st13{opacity:0.2;fill:url(#SVGID_6_);}
	.st14{opacity:0.2;fill:url(#SVGID_7_);}
	.st15{opacity:0.4;fill:url(#SVGID_8_);}
	.st16{opacity:0.6;fill:none;stroke:#FFFFFF;stroke-width:6;stroke-linecap:round;stroke-linejoin:round;stroke-miterlimit:10;}
	.st17{fill:url(#XMLID_3_);}
	.st18{fill:url(#SVGID_9_);}
	.st19{fill:url(#SVGID_10_);}
	.st20{fill:url(#SVGID_11_);}
	.st21{fill:url(#SVGID_12_);}
	.st22{fill:url(#SVGID_13_);}
	.st23{fill:url(#SVGID_14_);}
	.st24{fill:url(#SVGID_15_);}
	.st25{fill:url(#SVGID_16_);}
	.st26{fill:url(#SVGID_17_);}
	.st27{fill:none;stroke:url(#SVGID_18_);stroke-width:6;stroke-linecap:round;stroke-linejoin:round;stroke-miterlimit:10;}
	.st28{fill:none;stroke:url(#SVGID_19_);stroke-width:6;stroke-linecap:round;stroke-linejoin:round;stroke-miterlimit:10;}
	.st29{fill:none;stroke:url(#SVGID_20_);stroke-width:6;stroke-linecap:round;stroke-linejoin:round;stroke-miterlimit:10;}
	.st30{fill:none;stroke:url(#SVGID_21_);stroke-width:6;stroke-linecap:round;stroke-linejoin:round;stroke-miterlimit:10;}
	.st31{fill:none;stroke:url(#SVGID_22_);stroke-width:6;stroke-linecap:round;stroke-linejoin:round;stroke-miterlimit:10;}
	.st32{fill:none;stroke:url(#SVGID_23_);stroke-width:6;stroke-linecap:round;stroke-linejoin:round;stroke-miterlimit:10;}
</style>
<linearGradient id="SVGID_1_" gradientUnits="userSpaceOnUse" x1="281.5754" y1="167.6126" x2="105.1071" y2="286.9882">
	<stop  offset="5.376340e-03" style="stop-color:#00C6FB"/>
	<stop  offset="1" style="stop-color:#005BEA"/>
</linearGradient>
<path class="st0" d="M316.1,218.9c-0.3-1-43.4-46.4-43.4-46.4l-40.5-0.2c-20.7-5.1-43.6-7.9-67.8-7.9c-23.2,0-45.3,2.6-65.4,7.3
	l-42.6-0.2c0,0-46.5,50.8-46.6,51.5C3.4,232.4,0,242.5,0,253.1c0,49,73.6,88.7,164.4,88.7c90.8,0,164.4-39.7,164.4-88.7
	C328.8,241,324.3,229.5,316.1,218.9z"/>
<linearGradient id="SVGID_2_" gradientUnits="userSpaceOnUse" x1="-4.5045" y1="211.2411" x2="290.5846" y2="276.7399">
	<stop  offset="0" style="stop-color:#FFFFFF"/>
	<stop  offset="0.5" style="stop-color:#FCFDFF"/>
	<stop  offset="0.8" style="stop-color:#F4F7FF"/>
	<stop  offset="1" style="stop-color:#E9EEFF"/>
</linearGradient>
<path class="st1" d="M316.1,218.9c-0.3-1-43.4-46.4-43.4-46.4l-40.5-0.2c-20.7-5.1-43.6-7.9-67.8-7.9c-23.2,0-45.3,2.6-65.4,7.3
	l-42.6-0.2c0,0-46.5,50.8-46.6,51.5C3.4,232.4,0,242.5,0,253.1c0,49,73.6,88.7,164.4,88.7c90.8,0,164.4-39.7,164.4-88.7
	C328.8,241,324.3,229.5,316.1,218.9z"/>
<ellipse class="st2" cx="164.1" cy="204.1" rx="122.7" ry="68"/>
<linearGradient id="SVGID_3_" gradientUnits="userSpaceOnUse" x1="54.4536" y1="201.8896" x2="273.118" y2="201.8896">
	<stop  offset="0" style="stop-color:#DBE2FD"/>
	<stop  offset="1" style="stop-color:#1ED4CA;stop-opacity:0"/>
</linearGradient>
<ellipse class="st3" cx="163.8" cy="201.9" rx="109.3" ry="56.7"/>
<path class="st4" d="M163.8,150.5c58.7,0,106.5,24,109.2,54.1c0.1-0.9,0.1-1.8,0.1-2.7c0-31.3-48.9-56.7-109.3-56.7
	S54.5,170.6,54.5,201.9c0,0.9,0,1.8,0.1,2.7C57.2,174.4,105.1,150.5,163.8,150.5z"/>
<ellipse class="st5" cx="163.8" cy="201.9" rx="109.3" ry="56.7"/>
<path class="st2" d="M165.7,284.4c-17.5,0-34.2-1.8-49.6-5.1L91.4,306c21.9,6.4,47.3,10.1,74.3,10.1c25.4,0,49.4-3.2,70.3-9
	l-24-27.2C197.6,282.8,182,284.4,165.7,284.4z"/>
<path class="st2" d="M220.7,278l25.1,26.2h0c15.9-5.2,29.8-11.9,40.8-19.7l-27.4-20.7C248.1,269.7,235,274.6,220.7,278z"/>
<line class="st6" x1="237.1" y1="287.2" x2="244.1" y2="295.1"/>
<line class="st7" x1="237.1" y1="278.6" x2="246.9" y2="288.6"/>
<line class="st6" x1="246.7" y1="280.5" x2="253.9" y2="288.6"/>
<line class="st7" x1="255.3" y1="282.2" x2="262" y2="289.7"/>
<line class="st6" x1="256.1" y1="274.3" x2="267.1" y2="285.6"/>
<line class="st7" x1="259.1" y1="269.2" x2="271.4" y2="280"/>
<path class="st2" d="M70.2,262.5L43.1,283c10.8,7.9,24.4,14.8,40.2,20.1l25-26.1C94.1,273.4,81.2,268.4,70.2,262.5z"/>
<path class="st8" d="M64.3,287.9c-5-1.2-7.4-5.7-5.4-10.1c2-4.4,7.8-7,12.8-5.8c0.7,0.2,1.1,0.8,0.8,1.4c-0.3,0.6-1.1,1-1.8,0.8
	c-3.6-0.8-7.7,1-9.1,4.1c-1.5,3.1,0.3,6.4,3.8,7.2c0.9,0.2,1.8,0.3,2.8,0.1c0.8-0.1,1.4,0.3,1.4,1c0,0.6-0.6,1.2-1.4,1.3
	C66.9,288.2,65.6,288.2,64.3,287.9z"/>
<linearGradient id="SVGID_4_" gradientUnits="userSpaceOnUse" x1="64.2383" y1="270.3601" x2="76.9828" y2="283.5092">
	<stop  offset="0" style="stop-color:#4C83FF"/>
	<stop  offset="1" style="stop-color:#2AFADF"/>
</linearGradient>
<path class="st9" d="M72.2,286.4c-0.2-0.1-0.5-0.2-0.6-0.4c-0.4-0.5-0.3-1.2,0.4-1.7c1.2-0.8,2-1.8,2.6-2.9c0.8-1.8,0.6-3.8-0.6-5.3
	c-0.4-0.5-0.2-1.2,0.4-1.7c0.7-0.4,1.5-0.3,1.9,0.2c1.7,2,2,4.8,0.8,7.4c-0.7,1.6-2,3-3.6,4.1C73.1,286.4,72.6,286.5,72.2,286.4z"/>
<line class="st10" x1="85.5" y1="277.7" x2="94.6" y2="281"/>
<line class="st10" x1="81" y1="283.9" x2="90.1" y2="287.1"/>
<line class="st10" x1="75.1" y1="290.6" x2="84.2" y2="293.8"/>
<path class="st11" d="M91.4,306l37.8-20.1c0,0,36.6,6.5,73.1,0.4l33.8,20.9c0,0-30,9.2-70.3,9C125.4,315.9,91.4,306,91.4,306z"/>
<path class="st4" d="M129.2,285.9v-4.2c0,0,34.3,6.7,73.1,0l0,4.6C202.3,286.3,162.5,293.2,129.2,285.9z"/>
<path class="st2" d="M58,272.1c0,0-42.7-25.4-28.7-71l-6.6,7.3c0,0-12.7,39.1,28.6,68.8L58,272.1z"/>
<path class="st2" d="M267.5,270.1c0,0,43.7-26.1,29.7-71.6l6.6,7.3c0,0,11.8,39.8-29.5,69.5L267.5,270.1z"/>
<linearGradient id="SVGID_5_" gradientUnits="userSpaceOnUse" x1="230.9467" y1="258.2605" x2="296.6961" y2="304.6418">
	<stop  offset="0" style="stop-color:#FFFFFF"/>
	<stop  offset="1" style="stop-color:#FFFFFF;stop-opacity:0"/>
</linearGradient>
<path class="st12" d="M236,259.1l33.9,61.9c0,0,28.3-12,43.9-31l-51.7-45.1C262.1,244.9,252.5,252.7,236,259.1z"/>
<linearGradient id="SVGID_6_" gradientUnits="userSpaceOnUse" x1="264.1771" y1="254.1785" x2="332.0356" y2="272.7371">
	<stop  offset="0" style="stop-color:#FFFFFF"/>
	<stop  offset="1" style="stop-color:#FFFFFF;stop-opacity:0"/>
</linearGradient>
<path class="st13" d="M264.3,243.3l52.9,42.6c0,0,5-7.8,8.4-15.3l-55.6-32.2C269.9,238.5,266.9,241.4,264.3,243.3z"/>
<linearGradient id="SVGID_7_" gradientUnits="userSpaceOnUse" x1="102.0455" y1="257.1548" x2="32.0668" y2="314.0125">
	<stop  offset="0" style="stop-color:#FFFFFF"/>
	<stop  offset="1" style="stop-color:#FFFFFF;stop-opacity:0"/>
</linearGradient>
<path class="st14" d="M96.8,260.9L47,315.1c0,0-13.4-7.9-18-11.8l59.9-45.5C88.8,257.8,93.6,259.7,96.8,260.9z"/>
<linearGradient id="SVGID_8_" gradientUnits="userSpaceOnUse" x1="166.0059" y1="284.1985" x2="163.8611" y2="22.536">
	<stop  offset="2.051282e-02" style="stop-color:#2AFADF"/>
	<stop  offset="1" style="stop-color:#75FCEA;stop-opacity:0"/>
</linearGradient>
<path class="st15" d="M284.7,0.3L42.7,0l1.9,219.8c-0.1,0.8-0.1,1.7-0.1,2.5c0,30.2,53.3,54.6,119.1,54.6s119.1-24.4,119.1-54.6
	c0-0.8,0-1.7-0.1-3.5L284.7,0.3z"/>
<ellipse id="XMLID_38_" class="st16" cx="165.9" cy="165.4" rx="123.3" ry="64.8"/>
<ellipse id="XMLID_1_" class="st16" cx="165.9" cy="181.7" rx="115.5" ry="60.7"/>
<linearGradient id="XMLID_3_" gradientUnits="userSpaceOnUse" x1="173.2528" y1="248.847" x2="179.1691" y2="248.847">
	<stop  offset="0" style="stop-color:#FFFFFF;stop-opacity:0.6"/>
	<stop  offset="0" style="stop-color:#FDFDFF;stop-opacity:0.6"/>
	<stop  offset="1.000000e-02" style="stop-color:#FCFCFF;stop-opacity:0.58"/>
	<stop  offset="0.18" style="stop-color:#F2F4FE;stop-opacity:0.412"/>
	<stop  offset="0.35" style="stop-color:#EAEEFE;stop-opacity:0.259"/>
	<stop  offset="0.52" style="stop-color:#E3E9FD;stop-opacity:0.149"/>
	<stop  offset="0.68" style="stop-color:#DFE5FD;stop-opacity:7.100000e-02"/>
	<stop  offset="0.84" style="stop-color:#DCE3FD;stop-opacity:2.000000e-02"/>
	<stop  offset="1" style="stop-color:#DBE2FD;stop-opacity:0"/>
</linearGradient>
<path id="XMLID_35_" class="st17" d="M179.2,248.8c0,1.6-1.3,3-3,3c-1.6,0-3-1.3-3-3c0-1.6,1.3-3,3-3
	C177.8,245.9,179.2,247.2,179.2,248.8z"/>
<polygon class="st2" points="99,105.5 77.5,93.1 98.9,80.7 120.4,93.1 "/>
<linearGradient id="SVGID_9_" gradientUnits="userSpaceOnUse" x1="88.196" y1="100.5286" x2="88.196" y2="197.4563">
	<stop  offset="0" style="stop-color:#4C83FF"/>
	<stop  offset="1" style="stop-color:#2AFADF"/>
</linearGradient>
<polygon class="st18" points="99,205.1 77.4,192.7 77.5,93.1 99,105.5 "/>
<linearGradient id="SVGID_10_" gradientUnits="userSpaceOnUse" x1="109.715" y1="109.2149" x2="109.715" y2="291.5807">
	<stop  offset="0" style="stop-color:#4C83FF"/>
	<stop  offset="1" style="stop-color:#2AFADF"/>
</linearGradient>
<polygon class="st19" points="98.9,205.1 120.5,192.7 120.5,93.1 99,105.5 "/>
<linearGradient id="SVGID_11_" gradientUnits="userSpaceOnUse" x1="237.7516" y1="113.8087" x2="237.7516" y2="270.8883">
	<stop  offset="0" style="stop-color:#4C83FF"/>
	<stop  offset="1" style="stop-color:#2AFADF"/>
</linearGradient>
<polygon class="st20" points="227,206.8 248.5,194.4 248.5,109.4 227,121.8 "/>
<linearGradient id="SVGID_12_" gradientUnits="userSpaceOnUse" x1="80.9561" y1="132.3121" x2="123.9305" y2="132.3121">
	<stop  offset="0" style="stop-color:#4C83FF"/>
	<stop  offset="1" style="stop-color:#2AFADF"/>
</linearGradient>
<polygon class="st21" points="134.1,144.7 112.5,132.3 133.9,119.9 155.5,132.4 "/>
<linearGradient id="SVGID_13_" gradientUnits="userSpaceOnUse" x1="104.4371" y1="133.5628" x2="136.804" y2="202.1403">
	<stop  offset="0" style="stop-color:#4C83FF"/>
	<stop  offset="1" style="stop-color:#2AFADF"/>
</linearGradient>
<polygon class="st22" points="134,214.6 112.5,202.2 112.5,132.3 134,144.7 "/>
<linearGradient id="SVGID_14_" gradientUnits="userSpaceOnUse" x1="135.97" y1="158.4891" x2="172.7874" y2="220.9977">
	<stop  offset="0" style="stop-color:#4C83FF"/>
	<stop  offset="1" style="stop-color:#2AFADF"/>
</linearGradient>
<polygon class="st23" points="134,214.6 155.6,202.2 155.5,132.3 134,144.7 "/>
<linearGradient id="SVGID_15_" gradientUnits="userSpaceOnUse" x1="177.1531" y1="110.3971" x2="220.1275" y2="110.3971">
	<stop  offset="0" style="stop-color:#4C83FF"/>
	<stop  offset="1" style="stop-color:#2AFADF"/>
</linearGradient>
<polygon class="st24" points="228.9,122.8 207.4,110.4 228.8,98 250.3,110.4 "/>
<linearGradient id="SVGID_16_" gradientUnits="userSpaceOnUse" x1="218.1005" y1="133.7718" x2="218.1005" y2="221.6006">
	<stop  offset="0" style="stop-color:#4C83FF"/>
	<stop  offset="1" style="stop-color:#2AFADF"/>
</linearGradient>
<polygon class="st25" points="228.9,207.8 207.3,195.4 207.4,110.4 228.9,122.8 "/>
<linearGradient id="SVGID_17_" gradientUnits="userSpaceOnUse" x1="239.6266" y1="114.8087" x2="239.6266" y2="271.8883">
	<stop  offset="0" style="stop-color:#4C83FF"/>
	<stop  offset="1" style="stop-color:#2AFADF"/>
</linearGradient>
<polygon class="st26" points="228.8,207.8 250.4,195.4 250.4,110.4 228.8,122.8 "/>
<linearGradient id="SVGID_18_" gradientUnits="userSpaceOnUse" x1="181.2176" y1="87.4193" x2="181.2176" y2="134.8333">
	<stop  offset="0" style="stop-color:#FFFFFF"/>
	<stop  offset="1" style="stop-color:#FFFFFF;stop-opacity:0.5"/>
</linearGradient>
<path class="st27" d="M133.6,131.8c0,0,52.6-77,95.3-21"/>
<linearGradient id="SVGID_19_" gradientUnits="userSpaceOnUse" x1="181.5575" y1="75.9728" x2="181.5575" y2="131.8333">
	<stop  offset="0" style="stop-color:#FFFFFF"/>
	<stop  offset="1" style="stop-color:#FFFFFF;stop-opacity:0.5"/>
</linearGradient>
<path class="st28" d="M134.6,128.8c0,0,42.2-99,94-18"/>
<linearGradient id="SVGID_20_" gradientUnits="userSpaceOnUse" x1="117.1905" y1="79.1215" x2="117.1905" y2="131.8333">
	<stop  offset="0" style="stop-color:#FFFFFF"/>
	<stop  offset="1" style="stop-color:#FFFFFF;stop-opacity:0.5"/>
</linearGradient>
<path class="st29" d="M98.6,92.8c0,0,45.3-40.5,36,36"/>
<linearGradient id="SVGID_21_" gradientUnits="userSpaceOnUse" x1="116.5575" y1="87.7757" x2="116.5575" y2="131.8333">
	<stop  offset="0" style="stop-color:#FFFFFF"/>
	<stop  offset="1" style="stop-color:#FFFFFF;stop-opacity:0.5"/>
</linearGradient>
<path class="st30" d="M98.6,92.8c0,0,36-15,36,36"/>
<linearGradient id="SVGID_22_" gradientUnits="userSpaceOnUse" x1="163.0575" y1="60.7791" x2="163.0575" y2="111.8333">
	<stop  offset="0" style="stop-color:#FFFFFF"/>
	<stop  offset="1" style="stop-color:#FFFFFF;stop-opacity:0.5"/>
</linearGradient>
<path class="st31" d="M97.6,92.8c0,0,74-75,131,16"/>
<linearGradient id="SVGID_23_" gradientUnits="userSpaceOnUse" x1="163.0575" y1="49.2609" x2="163.0575" y2="111.8333">
	<stop  offset="0" style="stop-color:#FFFFFF"/>
	<stop  offset="1" style="stop-color:#FFFFFF;stop-opacity:0.5"/>
</linearGradient>
<path class="st32" d="M97.6,92.8c0,0,73-101.2,131,16"/>
</svg>
