<?xml version="1.0" encoding="utf-8"?>
<!-- Generator: Adobe Illustrator 22.1.0, SVG Export Plug-In . SVG Version: 6.00 Build 0)  -->
<svg version="1.1" id="Solid" xmlns="http://www.w3.org/2000/svg" xmlns:xlink="http://www.w3.org/1999/xlink" x="0px" y="0px"
	 viewBox="0 0 593.3 426.5" style="enable-background:new 0 0 593.3 426.5;" xml:space="preserve">
<style type="text/css">
	.st0{opacity:0.6;fill:none;stroke:#FFFFFF;stroke-width:6;stroke-linecap:round;stroke-linejoin:round;stroke-miterlimit:10;}
	.st1{fill:url(#SVGID_1_);}
	.st2{fill:#FFFFFF;}
	.st3{fill:url(#SVGID_2_);}
	.st4{fill:url(#SVGID_3_);}
	.st5{fill:url(#SVGID_4_);}
	.st6{fill:#1ED4CA;}
	.st7{fill:url(#SVGID_5_);}
	.st8{opacity:0.2;fill:#0246AF;enable-background:new    ;}
	.st9{opacity:0.8;fill:#FFFFFF;enable-background:new    ;}
	.st10{opacity:0.4;fill:url(#SVGID_6_);}
	.st11{fill:url(#XMLID_5_);}
	.st12{fill:url(#SVGID_7_);}
	.st13{fill:url(#SVGID_8_);}
	.st14{opacity:0.4;fill:url(#SVGID_9_);}
	.st15{fill:url(#XMLID_6_);}
	.st16{fill:url(#SVGID_10_);}
	.st17{fill:url(#SVGID_11_);}
	.st18{opacity:0.4;fill:url(#SVGID_12_);}
	.st19{fill:url(#XMLID_7_);}
	.st20{fill:none;stroke:url(#SVGID_13_);stroke-width:6;stroke-linecap:round;stroke-linejoin:round;stroke-miterlimit:10;}
	.st21{fill:none;stroke:url(#SVGID_14_);stroke-width:6;stroke-linecap:round;stroke-linejoin:round;stroke-miterlimit:10;}
	.st22{fill:none;stroke:url(#SVGID_15_);stroke-width:6;stroke-linecap:round;stroke-linejoin:round;stroke-miterlimit:10;}
	.st23{fill:none;stroke:url(#SVGID_16_);stroke-width:6;stroke-linecap:round;stroke-linejoin:round;stroke-miterlimit:10;}
	.st24{fill:none;stroke:url(#SVGID_17_);stroke-width:6;stroke-linecap:round;stroke-linejoin:round;stroke-miterlimit:10;}
	.st25{fill:none;stroke:url(#SVGID_18_);stroke-width:6;stroke-linecap:round;stroke-linejoin:round;stroke-miterlimit:10;}
	.st26{fill:none;stroke:url(#SVGID_19_);stroke-width:6;stroke-linecap:round;stroke-linejoin:round;stroke-miterlimit:10;}
	.st27{fill:none;stroke:url(#SVGID_20_);stroke-width:6;stroke-linecap:round;stroke-linejoin:round;stroke-miterlimit:10;}
	.st28{fill:none;stroke:url(#SVGID_21_);stroke-width:6;stroke-linecap:round;stroke-linejoin:round;stroke-miterlimit:10;}
	.st29{fill:none;stroke:url(#SVGID_22_);stroke-width:6;stroke-linecap:round;stroke-linejoin:round;stroke-miterlimit:10;}
	.st30{fill:none;stroke:url(#SVGID_23_);stroke-width:6;stroke-linecap:round;stroke-linejoin:round;stroke-miterlimit:10;}
	.st31{fill:none;stroke:url(#SVGID_24_);stroke-width:6;stroke-linecap:round;stroke-linejoin:round;stroke-miterlimit:10;}
	.st32{fill:none;stroke:url(#SVGID_25_);stroke-width:6;stroke-linecap:round;stroke-linejoin:round;stroke-miterlimit:10;}
	.st33{fill:none;stroke:url(#SVGID_26_);stroke-width:6;stroke-linecap:round;stroke-linejoin:round;stroke-miterlimit:10;}
	.st34{fill:none;stroke:url(#SVGID_27_);stroke-width:6;stroke-linecap:round;stroke-linejoin:round;stroke-miterlimit:10;}
	
		.st35{fill:url(#SVGID_28_);stroke:url(#SVGID_29_);stroke-width:6;stroke-linecap:round;stroke-linejoin:round;stroke-miterlimit:10;}
	.st36{opacity:0.4;}
	.st37{opacity:0.6;fill:#1ED4CA;}
	.st38{opacity:0.8;}
</style>
<ellipse id="XMLID_38_" class="st0" cx="296.7" cy="269.3" rx="293.7" ry="154.2"/>
<linearGradient id="SVGID_1_" gradientUnits="userSpaceOnUse" x1="151.8553" y1="182.176" x2="175.1459" y2="182.5578">
	<stop  offset="0" style="stop-color:#EAEFF5"/>
	<stop  offset="0.9932" style="stop-color:#DEE1F0"/>
</linearGradient>
<path class="st1" d="M203.9,177.1c0-0.1,0-0.2,0-0.3v-13.2h-85.7v13.6c0,1,0.6,1.9,1.8,2.7l36.2,20.9c2.7,1.6,7.5,1.4,10.7-0.4
	l34.4-19.9c1.6-0.9,2.5-2.1,2.6-3.2h0V177.1z"/>
<path class="st2" d="M156.3,187.4L120,166.4c-2.7-1.6-2.4-4.3,0.8-6.1l34.4-19.9c3.2-1.8,7.9-2,10.7-0.4l36.2,20.9
	c2.7,1.6,2.4,4.3-0.8,6.1l-34.4,19.9C163.8,188.7,159,188.9,156.3,187.4z"/>
<linearGradient id="SVGID_2_" gradientUnits="userSpaceOnUse" x1="343.7922" y1="138.3104" x2="429.4798" y2="138.3104">
	<stop  offset="0" style="stop-color:#EAEFF5"/>
	<stop  offset="0.9932" style="stop-color:#DEE1F0"/>
</linearGradient>
<path class="st3" d="M429.5,161.9c0-0.1,0-0.2,0-0.3V90.1h-85.7v71.8c0,1,0.6,1.9,1.8,2.7l36.2,20.9c2.7,1.6,7.5,1.4,10.7-0.4
	l34.4-19.9c1.6-0.9,2.5-2.1,2.6-3.2h0V161.9z"/>
<path class="st2" d="M381.8,113.9L345.6,93c-2.7-1.6-2.4-4.3,0.8-6.1L380.8,67c3.2-1.8,7.9-2,10.7-0.4l36.2,20.9
	c2.7,1.6,2.4,4.3-0.8,6.1l-34.4,19.9C389.3,115.3,384.6,115.5,381.8,113.9z"/>
<linearGradient id="SVGID_3_" gradientUnits="userSpaceOnUse" x1="145.638" y1="366.2697" x2="231.3256" y2="366.2697">
	<stop  offset="0" style="stop-color:#EAEFF5"/>
	<stop  offset="0.9932" style="stop-color:#DEE1F0"/>
</linearGradient>
<path class="st4" d="M231.3,375.3c0-0.1,0-0.2,0-0.3v-42.3h-85.7v42.7c0,1,0.6,1.9,1.8,2.7l36.2,20.9c2.7,1.6,7.5,1.4,10.7-0.4
	l34.4-19.9c1.6-0.9,2.5-2.1,2.6-3.2h0V375.3z"/>
<path class="st2" d="M183.7,356.4l-36.2-20.9c-2.7-1.6-2.4-4.3,0.8-6.1l34.4-19.9c3.2-1.8,7.9-2,10.7-0.4l36.2,20.9
	c2.7,1.6,2.4,4.3-0.8,6.1L194.3,356C191.2,357.8,186.4,358,183.7,356.4z"/>
<g>
	<linearGradient id="SVGID_4_" gradientUnits="userSpaceOnUse" x1="373.0364" y1="83.8484" x2="396.7985" y2="89.1227">
		<stop  offset="0" style="stop-color:#FFFFFF"/>
		<stop  offset="0.5" style="stop-color:#FCFDFF"/>
		<stop  offset="0.8" style="stop-color:#F4F7FF"/>
		<stop  offset="1" style="stop-color:#E9EEFF"/>
	</linearGradient>
	<path class="st5" d="M398.9,84.5c0-0.1-3.5-3.7-3.5-3.7l-3.3,0c-1.7-0.4-3.5-0.6-5.5-0.6c-1.9,0-3.7,0.2-5.3,0.6l-3.4,0
		c0,0-3.7,4.1-3.8,4.1c-0.5,0.8-0.8,1.6-0.8,2.4c0,3.9,5.9,7.1,13.2,7.1s13.2-3.2,13.2-7.1C399.9,86.2,399.5,85.3,398.9,84.5z"/>
	<ellipse class="st6" cx="386.6" cy="83.3" rx="9.9" ry="5.5"/>
	<linearGradient id="SVGID_5_" gradientUnits="userSpaceOnUse" x1="377.784" y1="83.0954" x2="395.3919" y2="83.0954">
		<stop  offset="0" style="stop-color:#DBE2FD"/>
		<stop  offset="1" style="stop-color:#1ED4CA;stop-opacity:0"/>
	</linearGradient>
	<ellipse class="st7" cx="386.6" cy="83.1" rx="8.8" ry="4.6"/>
	<path class="st8" d="M386.6,79c4.7,0,8.6,1.9,8.8,4.4c0-0.1,0-0.1,0-0.2c0-2.5-3.9-4.6-8.8-4.6s-8.8,2-8.8,4.6c0,0.1,0,0.1,0,0.2
		C378,80.9,381.9,79,386.6,79z"/>
	<ellipse class="st9" cx="386.6" cy="83.1" rx="8.8" ry="4.6"/>
	<linearGradient id="SVGID_6_" gradientUnits="userSpaceOnUse" x1="386.8205" y1="88.3511" x2="386.6478" y2="67.2808">
		<stop  offset="2.051282e-02" style="stop-color:#2AFADF"/>
		<stop  offset="1" style="stop-color:#75FCEA;stop-opacity:0"/>
	</linearGradient>
	<path class="st10" d="M396.4,65.5l-19.5,0l0.2,17.7c0,0.1,0,0.1,0,0.2c0,2.4,4.3,4.4,9.6,4.4c5.3,0,9.6-2,9.6-4.4
		c0-0.1,0-0.1,0-0.3L396.4,65.5z"/>
	<linearGradient id="XMLID_5_" gradientUnits="userSpaceOnUse" x1="387.3503" y1="86.8766" x2="387.8267" y2="86.8766">
		<stop  offset="0" style="stop-color:#FFFFFF;stop-opacity:0.6"/>
		<stop  offset="0" style="stop-color:#FDFDFF;stop-opacity:0.6"/>
		<stop  offset="1.000000e-02" style="stop-color:#FCFCFF;stop-opacity:0.58"/>
		<stop  offset="0.18" style="stop-color:#F2F4FE;stop-opacity:0.412"/>
		<stop  offset="0.35" style="stop-color:#EAEEFE;stop-opacity:0.259"/>
		<stop  offset="0.52" style="stop-color:#E3E9FD;stop-opacity:0.149"/>
		<stop  offset="0.68" style="stop-color:#DFE5FD;stop-opacity:7.100000e-02"/>
		<stop  offset="0.84" style="stop-color:#DCE3FD;stop-opacity:2.000000e-02"/>
		<stop  offset="1" style="stop-color:#DBE2FD;stop-opacity:0"/>
	</linearGradient>
	<path id="XMLID_2_" class="st11" d="M387.8,86.9c0,0.1-0.1,0.2-0.2,0.2c-0.1,0-0.2-0.1-0.2-0.2c0-0.1,0.1-0.2,0.2-0.2
		C387.7,86.6,387.8,86.7,387.8,86.9z"/>
</g>
<g>
	<linearGradient id="SVGID_7_" gradientUnits="userSpaceOnUse" x1="174.8822" y1="326.5865" x2="198.6442" y2="331.8608">
		<stop  offset="0" style="stop-color:#FFFFFF"/>
		<stop  offset="0.5" style="stop-color:#FCFDFF"/>
		<stop  offset="0.8" style="stop-color:#F4F7FF"/>
		<stop  offset="1" style="stop-color:#E9EEFF"/>
	</linearGradient>
	<path class="st12" d="M200.7,327.2c0-0.1-3.5-3.7-3.5-3.7l-3.3,0c-1.7-0.4-3.5-0.6-5.5-0.6c-1.9,0-3.7,0.2-5.3,0.6l-3.4,0
		c0,0-3.7,4.1-3.8,4.1c-0.5,0.8-0.8,1.6-0.8,2.4c0,3.9,5.9,7.1,13.2,7.1c7.3,0,13.2-3.2,13.2-7.1C201.7,329,201.4,328.1,200.7,327.2
		z"/>
	<ellipse class="st6" cx="188.5" cy="326" rx="9.9" ry="5.5"/>
	<linearGradient id="SVGID_8_" gradientUnits="userSpaceOnUse" x1="179.6298" y1="325.8335" x2="197.2377" y2="325.8335">
		<stop  offset="0" style="stop-color:#DBE2FD"/>
		<stop  offset="1" style="stop-color:#1ED4CA;stop-opacity:0"/>
	</linearGradient>
	<ellipse class="st13" cx="188.4" cy="325.8" rx="8.8" ry="4.6"/>
	<path class="st8" d="M188.4,321.7c4.7,0,8.6,1.9,8.8,4.4c0-0.1,0-0.1,0-0.2c0-2.5-3.9-4.6-8.8-4.6s-8.8,2-8.8,4.6
		c0,0.1,0,0.1,0,0.2C179.9,323.6,183.7,321.7,188.4,321.7z"/>
	<ellipse class="st9" cx="188.4" cy="325.8" rx="8.8" ry="4.6"/>
	<linearGradient id="SVGID_9_" gradientUnits="userSpaceOnUse" x1="188.6663" y1="331.0893" x2="188.4936" y2="310.0189">
		<stop  offset="2.051282e-02" style="stop-color:#2AFADF"/>
		<stop  offset="1" style="stop-color:#75FCEA;stop-opacity:0"/>
	</linearGradient>
	<path class="st14" d="M198.2,308.2l-19.5,0l0.2,17.7c0,0.1,0,0.1,0,0.2c0,2.4,4.3,4.4,9.6,4.4s9.6-2,9.6-4.4c0-0.1,0-0.1,0-0.3
		L198.2,308.2z"/>
	<linearGradient id="XMLID_6_" gradientUnits="userSpaceOnUse" x1="189.1961" y1="329.6147" x2="189.6725" y2="329.6147">
		<stop  offset="0" style="stop-color:#FFFFFF;stop-opacity:0.6"/>
		<stop  offset="0" style="stop-color:#FDFDFF;stop-opacity:0.6"/>
		<stop  offset="1.000000e-02" style="stop-color:#FCFCFF;stop-opacity:0.58"/>
		<stop  offset="0.18" style="stop-color:#F2F4FE;stop-opacity:0.412"/>
		<stop  offset="0.35" style="stop-color:#EAEEFE;stop-opacity:0.259"/>
		<stop  offset="0.52" style="stop-color:#E3E9FD;stop-opacity:0.149"/>
		<stop  offset="0.68" style="stop-color:#DFE5FD;stop-opacity:7.100000e-02"/>
		<stop  offset="0.84" style="stop-color:#DCE3FD;stop-opacity:2.000000e-02"/>
		<stop  offset="1" style="stop-color:#DBE2FD;stop-opacity:0"/>
	</linearGradient>
	<path id="XMLID_4_" class="st15" d="M189.7,329.6c0,0.1-0.1,0.2-0.2,0.2c-0.1,0-0.2-0.1-0.2-0.2s0.1-0.2,0.2-0.2
		C189.6,329.4,189.7,329.5,189.7,329.6z"/>
</g>
<g>
	<linearGradient id="SVGID_10_" gradientUnits="userSpaceOnUse" x1="147.4548" y1="158.4949" x2="171.2169" y2="163.7692">
		<stop  offset="0" style="stop-color:#FFFFFF"/>
		<stop  offset="0.5" style="stop-color:#FCFDFF"/>
		<stop  offset="0.8" style="stop-color:#F4F7FF"/>
		<stop  offset="1" style="stop-color:#E9EEFF"/>
	</linearGradient>
	<path class="st16" d="M173.3,159.1c0-0.1-3.5-3.7-3.5-3.7l-3.3,0c-1.7-0.4-3.5-0.6-5.5-0.6c-1.9,0-3.7,0.2-5.3,0.6l-3.4,0
		c0,0-3.7,4.1-3.8,4.1c-0.5,0.8-0.8,1.6-0.8,2.4c0,3.9,5.9,7.1,13.2,7.1c7.3,0,13.2-3.2,13.2-7.1C174.3,160.9,173.9,160,173.3,159.1
		z"/>
	<ellipse class="st6" cx="161" cy="157.9" rx="9.9" ry="5.5"/>
	<linearGradient id="SVGID_11_" gradientUnits="userSpaceOnUse" x1="152.2024" y1="157.7419" x2="169.8103" y2="157.7419">
		<stop  offset="0" style="stop-color:#DBE2FD"/>
		<stop  offset="1" style="stop-color:#1ED4CA;stop-opacity:0"/>
	</linearGradient>
	<ellipse class="st17" cx="161" cy="157.7" rx="8.8" ry="4.6"/>
	<path class="st8" d="M161,153.6c4.7,0,8.6,1.9,8.8,4.4c0-0.1,0-0.1,0-0.2c0-2.5-3.9-4.6-8.8-4.6c-4.9,0-8.8,2-8.8,4.6
		c0,0.1,0,0.1,0,0.2C152.4,155.5,156.3,153.6,161,153.6z"/>
	<ellipse class="st9" cx="161" cy="157.7" rx="8.8" ry="4.6"/>
	<linearGradient id="SVGID_12_" gradientUnits="userSpaceOnUse" x1="161.2389" y1="162.9976" x2="161.0662" y2="141.9272">
		<stop  offset="2.051282e-02" style="stop-color:#2AFADF"/>
		<stop  offset="1" style="stop-color:#75FCEA;stop-opacity:0"/>
	</linearGradient>
	<path class="st18" d="M170.8,140.1l-19.5,0l0.2,17.7c0,0.1,0,0.1,0,0.2c0,2.4,4.3,4.4,9.6,4.4s9.6-2,9.6-4.4c0-0.1,0-0.1,0-0.3
		L170.8,140.1z"/>
	<linearGradient id="XMLID_7_" gradientUnits="userSpaceOnUse" x1="161.7687" y1="161.5231" x2="162.2451" y2="161.5231">
		<stop  offset="0" style="stop-color:#FFFFFF;stop-opacity:0.6"/>
		<stop  offset="0" style="stop-color:#FDFDFF;stop-opacity:0.6"/>
		<stop  offset="1.000000e-02" style="stop-color:#FCFCFF;stop-opacity:0.58"/>
		<stop  offset="0.18" style="stop-color:#F2F4FE;stop-opacity:0.412"/>
		<stop  offset="0.35" style="stop-color:#EAEEFE;stop-opacity:0.259"/>
		<stop  offset="0.52" style="stop-color:#E3E9FD;stop-opacity:0.149"/>
		<stop  offset="0.68" style="stop-color:#DFE5FD;stop-opacity:7.100000e-02"/>
		<stop  offset="0.84" style="stop-color:#DCE3FD;stop-opacity:2.000000e-02"/>
		<stop  offset="1" style="stop-color:#DBE2FD;stop-opacity:0"/>
	</linearGradient>
	<path id="XMLID_3_" class="st19" d="M162.2,161.5c0,0.1-0.1,0.2-0.2,0.2c-0.1,0-0.2-0.1-0.2-0.2c0-0.1,0.1-0.2,0.2-0.2
		C162.1,161.3,162.2,161.4,162.2,161.5z"/>
</g>
<linearGradient id="SVGID_13_" gradientUnits="userSpaceOnUse" x1="459.8889" y1="135.4118" x2="459.8889" y2="135.4118">
	<stop  offset="0" style="stop-color:#FFFFFF"/>
	<stop  offset="1" style="stop-color:#FFFFFF;stop-opacity:0.5"/>
</linearGradient>
<path class="st20" d="M459.9,135.4"/>
<linearGradient id="SVGID_14_" gradientUnits="userSpaceOnUse" x1="199.748" y1="147.9176" x2="199.748" y2="147.9176">
	<stop  offset="0" style="stop-color:#FFFFFF"/>
	<stop  offset="1" style="stop-color:#FFFFFF;stop-opacity:0.5"/>
</linearGradient>
<path class="st21" d="M199.7,147.9"/>
<linearGradient id="SVGID_15_" gradientUnits="userSpaceOnUse" x1="460.2339" y1="137.5836" x2="460.2339" y2="137.5836">
	<stop  offset="0" style="stop-color:#FFFFFF"/>
	<stop  offset="1" style="stop-color:#FFFFFF;stop-opacity:0.5"/>
</linearGradient>
<path class="st22" d="M460.2,137.6"/>
<linearGradient id="SVGID_16_" gradientUnits="userSpaceOnUse" x1="188.4585" y1="326.0093" x2="188.4585" y2="326.0093">
	<stop  offset="0" style="stop-color:#FFFFFF"/>
	<stop  offset="1" style="stop-color:#FFFFFF;stop-opacity:0.5"/>
</linearGradient>
<path class="st23" d="M188.5,326"/>
<linearGradient id="SVGID_17_" gradientUnits="userSpaceOnUse" x1="459.9137" y1="137.5877" x2="459.9137" y2="137.5877">
	<stop  offset="0" style="stop-color:#FFFFFF"/>
	<stop  offset="1" style="stop-color:#FFFFFF;stop-opacity:0.5"/>
</linearGradient>
<path class="st24" d="M459.9,137.6"/>
<linearGradient id="SVGID_18_" gradientUnits="userSpaceOnUse" x1="189.4585" y1="323.0093" x2="189.4585" y2="323.0093">
	<stop  offset="0" style="stop-color:#FFFFFF"/>
	<stop  offset="1" style="stop-color:#FFFFFF;stop-opacity:0.5"/>
</linearGradient>
<path class="st25" d="M189.5,323"/>
<linearGradient id="SVGID_19_" gradientUnits="userSpaceOnUse" x1="189.4585" y1="323.0094" x2="189.4585" y2="323.0094">
	<stop  offset="0" style="stop-color:#FFFFFF"/>
	<stop  offset="1" style="stop-color:#FFFFFF;stop-opacity:0.5"/>
</linearGradient>
<path class="st26" d="M189.5,323"/>
<linearGradient id="SVGID_20_" gradientUnits="userSpaceOnUse" x1="200.748" y1="147.9176" x2="200.748" y2="147.9176">
	<stop  offset="0" style="stop-color:#FFFFFF"/>
	<stop  offset="1" style="stop-color:#FFFFFF;stop-opacity:0.5"/>
</linearGradient>
<path class="st27" d="M200.7,147.9"/>
<linearGradient id="SVGID_21_" gradientUnits="userSpaceOnUse" x1="459.9138" y1="135.5876" x2="459.9138" y2="135.5876">
	<stop  offset="0" style="stop-color:#FFFFFF"/>
	<stop  offset="1" style="stop-color:#FFFFFF;stop-opacity:0.5"/>
</linearGradient>
<path class="st28" d="M459.9,135.6"/>
<linearGradient id="SVGID_22_" gradientUnits="userSpaceOnUse" x1="199.748" y1="147.9176" x2="199.748" y2="147.9176">
	<stop  offset="0" style="stop-color:#FFFFFF"/>
	<stop  offset="1" style="stop-color:#FFFFFF;stop-opacity:0.5"/>
</linearGradient>
<path class="st29" d="M199.7,147.9"/>
<linearGradient id="SVGID_23_" gradientUnits="userSpaceOnUse" x1="459.9138" y1="135.5876" x2="459.9138" y2="135.5876">
	<stop  offset="0" style="stop-color:#FFFFFF"/>
	<stop  offset="1" style="stop-color:#FFFFFF;stop-opacity:0.5"/>
</linearGradient>
<path class="st30" d="M459.9,135.6"/>
<linearGradient id="SVGID_24_" gradientUnits="userSpaceOnUse" x1="199.748" y1="147.9176" x2="199.748" y2="147.9176">
	<stop  offset="0" style="stop-color:#FFFFFF"/>
	<stop  offset="1" style="stop-color:#FFFFFF;stop-opacity:0.5"/>
</linearGradient>
<path class="st31" d="M199.7,147.9"/>
<linearGradient id="SVGID_25_" gradientUnits="userSpaceOnUse" x1="188.4585" y1="326.0093" x2="188.4585" y2="326.0093">
	<stop  offset="0" style="stop-color:#FFFFFF"/>
	<stop  offset="1" style="stop-color:#FFFFFF;stop-opacity:0.5"/>
</linearGradient>
<path class="st32" d="M188.5,326"/>
<linearGradient id="SVGID_26_" gradientUnits="userSpaceOnUse" x1="459.9138" y1="135.5876" x2="459.9138" y2="135.5876">
	<stop  offset="0" style="stop-color:#FFFFFF"/>
	<stop  offset="1" style="stop-color:#FFFFFF;stop-opacity:0.5"/>
</linearGradient>
<path class="st33" d="M459.9,135.6"/>
<linearGradient id="SVGID_27_" gradientUnits="userSpaceOnUse" x1="188.4585" y1="326.0093" x2="188.4585" y2="326.0093">
	<stop  offset="0" style="stop-color:#FFFFFF"/>
	<stop  offset="1" style="stop-color:#FFFFFF;stop-opacity:0.5"/>
</linearGradient>
<path class="st34" d="M188.5,326"/>
<linearGradient id="SVGID_28_" gradientUnits="userSpaceOnUse" x1="161.0064" y1="164.5046" x2="386.588" y2="164.5046">
	<stop  offset="0" style="stop-color:#FFFFFF;stop-opacity:0.4"/>
	<stop  offset="0.6564" style="stop-color:#75FCEA;stop-opacity:0"/>
</linearGradient>
<linearGradient id="SVGID_29_" gradientUnits="userSpaceOnUse" x1="273.7972" y1="0" x2="273.7972" y2="329.0093">
	<stop  offset="0" style="stop-color:#FFFFFF"/>
	<stop  offset="1" style="stop-color:#FFFFFF"/>
</linearGradient>
<path class="st35" d="M386.6,83.1C252.2-70.4,188.5,326,188.5,326S282-64.2,161,157.7C161,157.7,242.2-133.5,386.6,83.1"/>
<g>
	<g class="st36">
		<path class="st6" d="M474.2,109.3c4-2.3,7.3-0.5,7.3,4.2l0.5,184.2c0,4.6-3.3,10.3-7.3,12.6l-101.9,58.8c-4,2.3-7.3,0.5-7.3-4.2
			l-0.5-184.2c0-4.6,3.3-10.3,7.3-12.6L474.2,109.3z"/>
	</g>
	<path class="st37" d="M490.7,118.8c4-2.3,7.3-0.5,7.3,4.2l0.5,184.2c0,4.6-3.3,10.3-7.3,12.6l-101.9,58.8c-4,2.3-7.3,0.5-7.3-4.2
		l-0.5-184.2c0-4.6,3.3-10.3,7.3-12.6L490.7,118.8z"/>
	<g class="st38">
		<path class="st6" d="M507.2,128.3c4-2.3,7.3-0.5,7.3,4.2l0.5,184.2c0,4.6-3.3,10.3-7.3,12.6l-101.9,58.8c-4,2.3-7.3,0.5-7.3-4.2
			L398,199.7c0-4.6,3.3-10.3,7.3-12.6L507.2,128.3z"/>
	</g>
</g>
<g>
	<path class="st2" d="M494.4,336.3c-10.9,6.3-19.8,1.4-20.2-10.9l0-1.2c0.3-12.7,9.1-27.8,20-34.1c11.1-6.4,20.1-1.2,20.2,11.5
		C514.5,314.3,505.5,329.9,494.4,336.3z M483,319.2c-0.8,1.3-0.8,2.8,0,3.2l5.7,3.1l1.4,0.8c0.4,0.2,0.9,0.1,1.4-0.2
		c0.5-0.3,1-0.8,1.4-1.5l12.7-21.6c0.8-1.3,0.8-2.8,0-3.2l-1.4-0.8c-0.4-0.2-0.9-0.1-1.4,0.2s-1,0.8-1.4,1.5l-9.8,16.8l-4.2-2.3
		c-0.4-0.2-0.9-0.1-1.4,0.2c-0.5,0.3-1,0.8-1.4,1.5L483,319.2"/>
</g>
<g>
	<g>
		<path class="st2" d="M477.6,205.9c1.5-0.9,2.8-0.2,2.8,1.6c0,1.8-1.2,3.9-2.8,4.8l-50.4,29.1c-1.5,0.9-2.8,0.2-2.8-1.6
			c0-1.8,1.2-3.9,2.8-4.8L477.6,205.9z"/>
	</g>
	<g>
		<path class="st2" d="M452.9,300.1c1.5-0.9,2.8-0.2,2.8,1.6s-1.2,3.9-2.8,4.8l-25.4,14.7c-1.5,0.9-2.8,0.2-2.8-1.6
			c0-1.8,1.2-3.9,2.8-4.8L452.9,300.1z"/>
	</g>
	<g>
		<path class="st2" d="M477.8,270.1c1.5-0.9,2.8-0.2,2.8,1.6c0,1.8-1.2,3.9-2.8,4.8l-50.4,29.1c-1.5,0.9-2.8,0.2-2.8-1.6
			c0-1.8,1.2-3.9,2.8-4.8L477.8,270.1z"/>
	</g>
	<g>
		<path class="st2" d="M477.8,254.4c1.5-0.9,2.8-0.2,2.8,1.6s-1.2,3.9-2.8,4.8l-50.4,29.1c-1.5,0.9-2.8,0.2-2.8-1.6
			c0-1.8,1.2-3.9,2.8-4.8L477.8,254.4z"/>
	</g>
	<g>
		<path class="st2" d="M452.7,251.6c1.5-0.9,2.8-0.2,2.8,1.6c0,1.8-1.2,3.9-2.8,4.8l-25.4,14.7c-1.5,0.9-2.8,0.2-2.8-1.6
			c0-1.8,1.2-3.9,2.8-4.8L452.7,251.6z"/>
	</g>
	<g>
		<path class="st2" d="M477.6,221.6c1.5-0.9,2.8-0.2,2.8,1.6c0,1.8-1.2,3.9-2.8,4.8l-50.4,29.1c-1.5,0.9-2.8,0.2-2.8-1.6
			c0-1.8,1.2-3.9,2.8-4.8L477.6,221.6z"/>
	</g>
</g>
<g>
	<g>
		<polygon class="st2" points="446.3,189.7 446.4,211.2 442.7,213.3 442.6,195 442.6,194.9 437.4,216.3 434.1,218.3 429.1,202.7 
			429,202.9 429.1,221.2 425.3,223.3 425.3,201.9 431.8,198.1 435.8,211.5 435.9,211.4 440.1,193.3 		"/>
	</g>
	<g>
		<path class="st2" d="M455.8,184.3c4.9-2.9,7.4-2.1,7.3,2.4c-0.1,4.3-2.3,7.7-6.4,10.3l-2.9,1.7l0,8.2l-3.9,2.3l-0.1-21.4l5.8-3.3
			C455.6,184.4,455.7,184.3,455.8,184.3z M455.8,193.9c2.1-1.2,3.1-2.8,3-4.8c0.1-2.1-1-2.5-3.1-1.3c-0.3,0.2-0.6,0.3-0.9,0.6
			c-0.5,0.3-0.9,0.5-1.2,0.7l0,6c0.3-0.2,0.7-0.4,1.2-0.7C455.3,194.2,455.6,194.1,455.8,193.9"/>
	</g>
	<g>
		<path class="st2" d="M472.5,174.2c5-2.8,7.6-1.8,7.9,2.9l-4.2,2.4c-0.1-2.5-1.4-3.2-3.6-2c-2.2,1.4-3.4,4.7-3.5,9.9
			c0.1,4.9,1.3,6.9,3.6,5.7c2.4-1.4,3.6-3.5,3.6-6.2l4.2-2.4c-0.2,4.8-2.8,8.7-7.8,11.7c-5,2.8-7.6,0.6-7.8-6.4
			C464.9,182.5,467.5,177.3,472.5,174.2z"/>
	</g>
</g>
</svg>
