<?xml version="1.0" encoding="utf-8"?>
<!-- Generator: Adobe Illustrator 22.1.0, SVG Export Plug-In . SVG Version: 6.00 Build 0)  -->
<svg version="1.1" id="_x30_03" xmlns="http://www.w3.org/2000/svg" xmlns:xlink="http://www.w3.org/1999/xlink" x="0px" y="0px"
	 viewBox="0 0 196.2 220.7" style="enable-background:new 0 0 196.2 220.7;" xml:space="preserve">
<style type="text/css">
	.st0{fill:url(#Path-1667_2_);}
	.st1{fill:#0246AF;}
	.st2{fill:#2564F4;}
	.st3{fill:#1ED4CA;}
	.st4{fill:url(#Path-1671_2_);}
	.st5{opacity:0.8;}
	.st6{fill:#FFFFFF;}
	.st7{fill:url(#SVGID_1_);}
	.st8{fill:url(#SVGID_2_);}
	.st9{fill:url(#Path-1472_2_);}
	.st10{fill:url(#Path-1478_2_);}
	.st11{fill:url(#Path-1475_2_);}
	.st12{fill:url(#SVGID_3_);}
	.st13{fill:url(#SVGID_4_);}
	.st14{opacity:0.8;enable-background:new    ;}
</style>
<linearGradient id="Path-1667_2_" gradientUnits="userSpaceOnUse" x1="-9043.7568" y1="5071.2529" x2="-9042.7568" y2="5071.2529" gradientTransform="matrix(196.188 0 0 -113.4915 1774276.5 575708.3125)">
	<stop  offset="0" style="stop-color:#FFFFFF"/>
	<stop  offset="1" style="stop-color:#DBE2FD"/>
</linearGradient>
<path id="Path-1667_1_" class="st0" d="M2.8,167.9L91,219.1c4.3,2.2,9.3,2.2,13.6,0l88.8-51.2c3-1.7,3.6-4.3,1.9-6.3
	c-0.1-0.2-0.3-0.3-0.4-0.4l0,0c-0.4-0.4-0.9-0.8-1.4-1.1l-88.2-51.2c-4.3-2.2-9.3-2.2-13.6,0L2.8,160.1c-0.5,0.3-1,0.7-1.5,1.1l0,0
	c-0.2,0.1-0.3,0.3-0.4,0.5C-0.8,163.7-0.1,166.2,2.8,167.9z"/>
<path id="Path-1668_1_" class="st1" d="M153.4,167.6l-10,5.8l-41.6,24c-2.5,1.3-5.4,1.3-7.9,0l-41.2-23.9l-10-5.8
	c-2.2-1.3-2.2-3.3,0-4.6l51.6-29.7c2.5-1.3,5.4-1.3,7.9,0l51.2,29.7C155.6,164.3,155.6,166.3,153.4,167.6z"/>
<path id="Path-1669_1_" class="st2" d="M143.4,173.3l-41.6,24c-2.5,1.3-5.4,1.3-7.9,0l-41.2-23.9l41.6-24c2.5-1.3,5.4-1.3,7.9,0
	L143.4,173.3z"/>
<path id="Shape-81_1_" class="st3" d="M97.6,211.9c-2,0-4.1-0.5-5.9-1.5L18.6,168c-1.4-0.7-2.3-1.9-2.7-3.4
	c-0.2-1.1,0.1-2.3,0.9-3.2c0.1-0.2,0.3-0.3,0.4-0.5c0.4-0.4,0.9-0.7,1.4-1l73.6-42.4c3.8-2,8.3-2,12.2,0l73.1,42.4
	c0.5,0.3,1,0.6,1.4,1c0.1,0.1,0.3,0.3,0.4,0.4c0.8,0.9,1.1,2,0.9,3.2c-0.4,1.5-1.4,2.7-2.7,3.4l-73.6,42.4c-1.8,1-3.8,1.5-5.9,1.5
	h-0.2L97.6,211.9z M98.2,117.8c-1.8,0-3.5,0.4-5,1.3l-73.6,42.4c-0.4,0.2-0.7,0.5-1,0.8c-0.1,0.1-0.2,0.2-0.3,0.3
	c-0.4,0.5-0.6,1.1-0.5,1.8c0.3,0.9,1,1.7,1.9,2.2l73.1,42.4c1.6,0.8,3.4,1.3,5.2,1.2c1.8,0,3.6-0.4,5.2-1.2l73.6-42.4
	c0.9-0.4,1.6-1.2,1.9-2.2c0.1-0.6-0.1-1.3-0.5-1.8c-0.1-0.1-0.1-0.1-0.2-0.2l-0.1-0.1c-0.3-0.3-0.7-0.6-1-0.8l-73.1-42.4
	c-1.5-0.8-3.2-1.2-5-1.2h-0.2L98.2,117.8z"/>
<path id="Shape-82_1_" class="st1" d="M98,192.2c-1.2,0-2.5-0.3-3.6-0.9l-37.6-21.8c-1.6-0.7-2.3-2.5-1.6-4c0.3-0.7,0.9-1.3,1.6-1.6
	l37.8-21.8c2.2-1.2,4.9-1.2,7.1,0l37.6,21.8c1.6,0.7,2.3,2.5,1.6,4c-0.3,0.7-0.9,1.3-1.6,1.6l-37.8,21.8
	C100.4,191.9,99.2,192.2,98,192.2z M98.2,143.9c-0.8,0-1.5,0.2-2.2,0.5l-37.8,21.8c-0.4,0.2-0.6,0.5-0.6,0.5c0,0.1,0.1,0.3,0.5,0.5
	l37.6,21.8c1.4,0.7,3.1,0.7,4.5,0l37.8-21.8c0.4-0.3,0.5-0.5,0.5-0.5s-0.1-0.3-0.5-0.5l-37.6-21.8C99.7,144,99,143.9,98.2,143.9
	L98.2,143.9z"/>
<path id="Shape-83_1_" class="st1" d="M98,180.2c-0.7,0-1.4-0.2-2.1-0.5l-18.9-11c-0.8-0.4-1.2-1.1-1.3-2c0-0.8,0.5-1.6,1.3-2
	l19-10.9c1.3-0.7,2.9-0.7,4.2,0l18.9,11c1.1,0.5,1.6,1.8,1.1,2.9c-0.2,0.5-0.6,0.8-1.1,1.1l-19,11c-0.6,0.3-1.3,0.5-2.1,0.5H98z
	 M98.2,155.9c-0.3,0-0.5,0.1-0.8,0.2l-18.5,10.7l18.4,10.6c0.5,0.2,1.1,0.2,1.6,0l18.5-10.6L99,156
	C98.7,155.9,98.4,155.9,98.2,155.9z"/>
<linearGradient id="Path-1671_2_" gradientUnits="userSpaceOnUse" x1="-9041.2324" y1="5044.0562" x2="-9041.2324" y2="5045.0562" gradientTransform="matrix(113.924 0 0 -198.2308 1030111.4375 1000085.625)">
	<stop  offset="0" style="stop-color:#1ED4CA"/>
	<stop  offset="0.1445" style="stop-color:#1ED4CA;stop-opacity:0.8555"/>
	<stop  offset="1" style="stop-color:#1ED4CA;stop-opacity:0"/>
</linearGradient>
<path id="Path-1671_1_" class="st4" d="M41.1,33.1v132.2l0,0c0.1,1,0.7,1.9,1.6,2.3l10,5.8l41.2,23.9c2.5,1.3,5.4,1.3,7.9,0l41.6-24
	l10-5.8c0.9-0.4,1.6-1.3,1.7-2.3V33.1L98.1,0L41.1,33.1z"/>
<g id="Group-210_1_" transform="translate(171.995 105.072)" class="st5">
	<path id="Path-1678_1_" class="st6" d="M-66.1,5.2l-7.2,4.2c-0.3,0.2-0.8,0.2-1.1,0l-7.2-4.2c-0.1,0-0.2-0.1-0.2-0.2v32.7l0,0
		c0,0.1,0.1,0.3,0.2,0.3l7.2,4.2c0.3,0.2,0.8,0.2,1.1,0l7.2-4.2c0.1-0.1,0.2-0.2,0.2-0.3V4.9l0,0C-65.9,5-66,5.1-66.1,5.2L-66.1,5.2
		z"/>
	<path id="Path-1679_1_" class="st6" d="M-81.7,5.2l7.2,4.2c0.3,0.2,0.8,0.2,1.1,0l7.2-4.2c0.1-0.1,0.2-0.2,0.2-0.3
		c0-0.1-0.1-0.3-0.2-0.3l-7.2-4.2c-0.3-0.2-0.8-0.2-1.1,0l-7.2,4.2c-0.2,0.1-0.3,0.3-0.2,0.4C-81.8,5-81.8,5.1-81.7,5.2z"/>
</g>
<g>
	<g>
		<linearGradient id="SVGID_1_" gradientUnits="userSpaceOnUse" x1="67.3055" y1="139.7099" x2="153.2049" y2="139.7099">
			<stop  offset="0" style="stop-color:#FFFFFF"/>
			<stop  offset="0.5" style="stop-color:#FCFDFF"/>
			<stop  offset="0.8" style="stop-color:#F4F7FF"/>
			<stop  offset="1" style="stop-color:#E9EEFF"/>
		</linearGradient>
		<path class="st7" d="M140.1,165.4c-2,1.4-3.9,1.2-5.2,0.5c-2.7-1.5-8.3-13.2-8.3-13.6c-0.1-1.1,1.4-1.5,2.6-1.1
			c1.1,0.5,7.1,3.2,7.4,3.3c5.5-7.2,5-15.8-2.8-23c-1.7-1.6-3.6-3-5.8-4.2c-13.8-8-36.5-9.8-53.5-3.5c-0.2,0.1-2,0.9-3.3,0.1
			c-0.9-0.6-2.7-3-3.3-3.9c-0.7-1-1.1-1.1,1-2c21.3-8.2,50.7-6,68.5,4.3c2.7,1.6,5.2,3.3,7.3,5.3C157.9,139.8,155.3,155,140.1,165.4
			z"/>
	</g>
	<g>
		<linearGradient id="SVGID_2_" gradientUnits="userSpaceOnUse" x1="42.9832" y1="149.6818" x2="129.8077" y2="149.6818">
			<stop  offset="0" style="stop-color:#FFFFFF"/>
			<stop  offset="0.5" style="stop-color:#FCFDFF"/>
			<stop  offset="0.8" style="stop-color:#F4F7FF"/>
			<stop  offset="1" style="stop-color:#E9EEFF"/>
		</linearGradient>
		<path class="st8" d="M129.4,169.8c0.8,0.8,0.3,1-0.8,1.4c-0.3,0.2-0.7,0.3-1,0.4c-22.1,8-50.4,5.8-68.2-4.5
			c-2.9-1.7-5.6-3.6-7.8-5.7c-13.2-12.1-10.6-27.4,4.5-37.7c1.8-1.2,3.7-1.2,4.9-0.4c0.6,0.3,1,0.8,1.4,1.4
			c0.8,1.4,5.7,11.6,6.2,12.8c0.5,1.3-1.5,2.1-3.1,1.3c-1.6-0.8-6.4-3.1-6.7-3.2c-4.7,7-3.9,15.1,3.5,22c1.7,1.6,3.8,3.1,6,4.4
			c13.7,7.9,35.7,9.8,52.7,3.6c0.4-0.1,0.3-0.1,1.2-0.5c0.7-0.3,1.7-0.7,2.6-0.2c0.2,0.1,0.4,0.2,0.5,0.4
			C126.2,166.5,128.6,169,129.4,169.8z"/>
	</g>
</g>
<path id="Path-1471_1_" class="st3" d="M78.5,126.1c10.9-6.2,28.5-6,39.3,0.4c10.8,6.4,10.8,16.6-0.1,22.8
	c-10.9,6.2-28.5,6-39.3-0.4S67.6,132.3,78.5,126.1z"/>
<linearGradient id="Path-1472_2_" gradientUnits="userSpaceOnUse" x1="-9040.084" y1="5117.0264" x2="-9039.7129" y2="5117.0264" gradientTransform="matrix(150.1015 0 0 -62.7 1357000 320986.5625)">
	<stop  offset="0.2" style="stop-color:#E0E6FD"/>
	<stop  offset="0.52" style="stop-color:#FFFFFF"/>
	<stop  offset="0.73" style="stop-color:#FCFDFF"/>
	<stop  offset="0.85" style="stop-color:#F4F6FE"/>
	<stop  offset="0.95" style="stop-color:#E6EBFE"/>
	<stop  offset="1" style="stop-color:#DBE2FD"/>
</linearGradient>
<path id="Path-1472_1_" class="st9" d="M124.7,142.7c-0.2,0.5-0.5,0.9-0.8,1.3c-0.2,0.3-0.5,0.7-0.7,1c-0.2,0.3-0.5,0.6-0.7,0.8
	c-0.3,0.3-0.5,0.5-0.7,0.7c-0.3,0.3-0.5,0.4-0.7,0.6s-0.5,0.4-0.7,0.6c-0.3,0.2-0.5,0.4-0.7,0.5c-0.2,0.2-0.5,0.3-0.7,0.5
	c-0.2,0.2-0.5,0.3-0.8,0.5h-0.1l-0.7,0.4l-0.9,0.4c-0.3,0.1-0.6,0.3-0.9,0.4l-0.9,0.4l-1,0.4l-0.9,0.3l-1,0.3l-1,0.3l-1,0.3
	l-1.1,0.2l-1,0.2l-1,0.2l-1,0.2c-0.3,0.1-0.7,0.1-1,0.1c-0.3,0-0.7,0.1-1,0.1l-1,0.1l-1.2,0.1c-0.4,0-0.9,0-1.3,0h-2
	c-0.9,0-1.8-0.1-2.7-0.1c-0.7-0.1-1.4-0.1-2.2-0.2c-0.5-0.1-1-0.1-1.4-0.2l-1.2-0.2l-1.2-0.2c-0.4-0.1-0.7-0.2-1.1-0.2
	c-0.4-0.1-0.7-0.2-1.1-0.3l-1.1-0.3c-0.4-0.1-0.7-0.2-1.1-0.4l-1.1-0.4l-1-0.4c-0.3-0.1-0.7-0.3-1-0.4c-0.3-0.1-0.6-0.3-0.9-0.4
	c-0.3-0.2-0.6-0.3-0.9-0.5s-0.6-0.3-0.9-0.5l-0.2-0.1l-0.6-0.4l-0.7-0.5l-0.7-0.5l-0.7-0.5c-0.2-0.2-0.4-0.4-0.6-0.5
	c-0.2-0.2-0.4-0.4-0.6-0.6c-0.2-0.2-0.4-0.4-0.6-0.6c-0.2-0.2-0.4-0.4-0.5-0.6c-0.2-0.2-0.4-0.5-0.5-0.7s-0.3-0.5-0.5-0.7
	c-0.2-0.3-0.3-0.5-0.5-0.8c-0.1-0.3-0.3-0.6-0.5-0.9c-0.1-0.3-0.3-0.7-0.4-1.1c-0.1-0.5-0.3-0.9-0.3-1.4c-0.1-0.6-0.1-1.2-0.1-1.8
	l-0.1,6.8c0,1.1,0.2,2.1,0.5,3.1c0.1,0.4,0.3,0.7,0.4,1.1c0.1,0.3,0.3,0.6,0.5,0.9c0.2,0.3,0.3,0.5,0.5,0.8c0.2,0.3,0.3,0.5,0.5,0.7
	s0.4,0.5,0.5,0.7l0.6,0.6c0.2,0.2,0.4,0.4,0.6,0.6c0.2,0.2,0.4,0.4,0.6,0.6l0.7,0.5c0.2,0.2,0.4,0.4,0.7,0.5l0.7,0.5
	c0.2,0.2,0.5,0.3,0.7,0.5c0.2,0.2,0.4,0.3,0.6,0.4l0.2,0.1c0.3,0.2,0.6,0.3,0.9,0.5c0.3,0.1,0.6,0.3,0.9,0.5s0.6,0.3,1,0.4
	c0.3,0.1,0.7,0.3,1,0.4l1.1,0.4l1.1,0.4c0.4,0.1,0.7,0.2,1.1,0.4c0.4,0.1,0.7,0.2,1.1,0.3c0.4,0.1,0.7,0.2,1.1,0.3l1.1,0.3l1.1,0.2
	c0.4,0.1,0.8,0.1,1.2,0.2c0.4,0.1,0.9,0.1,1.4,0.2c0.7,0.1,1.4,0.2,2.2,0.2c0.9,0.1,1.8,0.1,2.8,0.1h2l1.3,0l1.2-0.1l1-0.1l1-0.1
	l1-0.1c0.3,0,0.7-0.1,1-0.2l1.1-0.2l1-0.2c0.4-0.1,0.7-0.2,1.1-0.2l1-0.3l1-0.3l1-0.3l1-0.3l0.9-0.4l0.9-0.4
	c0.3-0.1,0.6-0.3,0.9-0.4c0.3-0.1,0.6-0.3,0.9-0.4l0.8-0.4h0c0.3-0.2,0.6-0.3,0.8-0.5l0.7-0.5c0.3-0.2,0.5-0.4,0.7-0.5
	c0.2-0.2,0.5-0.4,0.7-0.6c0.2-0.2,0.5-0.4,0.7-0.6c0.3-0.2,0.5-0.5,0.7-0.7c0.2-0.3,0.5-0.5,0.7-0.8c0.2-0.3,0.5-0.6,0.7-1
	c0.3-0.4,0.6-0.9,0.8-1.3c0.8-1.4,1.3-3,1.3-4.6l0.1-6.8C125.9,139.7,125.5,141.3,124.7,142.7z"/>
<path id="Path-1477_1_" class="st3" d="M78.5,116.5c10.9-6.2,28.5-6,39.3,0.4c10.8,6.4,10.8,16.6-0.1,22.8s-28.5,6-39.3-0.4
	C67.6,132.8,67.6,122.6,78.5,116.5z"/>
<linearGradient id="Path-1478_2_" gradientUnits="userSpaceOnUse" x1="-9040.0713" y1="5116.272" x2="-9039.7002" y2="5116.272" gradientTransform="matrix(150.0224 0 0 -62.68 1356283.625 320827.25)">
	<stop  offset="0.2" style="stop-color:#E0E6FD"/>
	<stop  offset="0.52" style="stop-color:#FFFFFF"/>
	<stop  offset="0.73" style="stop-color:#FCFDFF"/>
	<stop  offset="0.85" style="stop-color:#F4F6FE"/>
	<stop  offset="0.95" style="stop-color:#E6EBFE"/>
	<stop  offset="1" style="stop-color:#DBE2FD"/>
</linearGradient>
<path id="Path-1478_1_" class="st10" d="M124.7,133c-0.2,0.5-0.5,0.9-0.8,1.3c-0.2,0.3-0.5,0.6-0.7,1s-0.5,0.5-0.7,0.8
	c-0.3,0.3-0.5,0.5-0.7,0.7c-0.2,0.2-0.5,0.4-0.7,0.6c-0.3,0.2-0.5,0.4-0.7,0.6c-0.2,0.2-0.5,0.4-0.7,0.6c-0.3,0.2-0.5,0.4-0.8,0.5
	l-0.8,0.5h-0.1L117,140l-0.9,0.4l-0.9,0.4l-0.9,0.4l-0.9,0.4l-0.9,0.3l-1,0.3l-1,0.3l-1,0.3l-1.1,0.2l-1.1,0.2l-1,0.2l-1,0.2l-1,0.2
	l-1,0.1c-0.3,0-0.7,0.1-1,0.1l-1.1,0.1l-1.3,0.1h-2c-0.9,0-1.8-0.1-2.7-0.1c-0.7-0.1-1.5-0.1-2.2-0.2c-0.5-0.1-1-0.1-1.4-0.2
	c-0.5-0.1-0.8-0.1-1.2-0.2c-0.4-0.1-0.7-0.1-1.1-0.2l-1.1-0.3l-1.1-0.3l-1.1-0.3l-1.1-0.4c-0.4-0.1-0.7-0.3-1.1-0.4l-1.1-0.4l-1-0.5
	l-0.9-0.5c-0.3-0.1-0.6-0.3-0.9-0.5l-0.8-0.4l-0.2-0.1l-0.6-0.4l-0.7-0.5c-0.2-0.2-0.5-0.3-0.7-0.5s-0.5-0.3-0.7-0.5
	s-0.4-0.4-0.7-0.5c-0.2-0.2-0.4-0.4-0.6-0.6s-0.4-0.4-0.6-0.6c-0.2-0.2-0.4-0.4-0.6-0.6c-0.2-0.2-0.4-0.5-0.5-0.7s-0.3-0.5-0.5-0.7
	c-0.2-0.3-0.3-0.5-0.5-0.8c-0.1-0.3-0.3-0.6-0.5-0.9c-0.1-0.3-0.3-0.7-0.4-1.1c-0.1-0.5-0.3-0.9-0.3-1.4c-0.1-0.6-0.1-1.2-0.1-1.8
	l-0.1,6.8c0,0.6,0,1.2,0.1,1.8c0.1,0.5,0.2,0.9,0.3,1.4c0.1,0.4,0.3,0.7,0.4,1.1c0.1,0.3,0.3,0.6,0.5,0.9c0.2,0.3,0.3,0.5,0.5,0.8
	c0.2,0.3,0.3,0.5,0.5,0.7c0.2,0.2,0.4,0.5,0.5,0.7c0.2,0.2,0.4,0.4,0.5,0.6c0.2,0.2,0.4,0.4,0.6,0.6c0.2,0.2,0.4,0.4,0.6,0.6
	c0.2,0.2,0.4,0.4,0.7,0.5c0.2,0.2,0.5,0.3,0.7,0.5s0.5,0.3,0.7,0.5c0.3,0.2,0.5,0.3,0.7,0.5l0.6,0.3l0.2,0.1l0.9,0.5
	c0.3,0.2,0.6,0.3,0.9,0.5l0.9,0.4c0.3,0.1,0.7,0.3,1,0.4l1.1,0.4c0.4,0.1,0.7,0.3,1.1,0.4l1.1,0.4l1.1,0.3l1.1,0.3l1.1,0.3
	c0.4,0.1,0.7,0.2,1.1,0.2c0.4,0.1,0.8,0.1,1.2,0.2c0.4,0.1,0.9,0.1,1.4,0.2c0.7,0.1,1.4,0.2,2.2,0.2c0.9,0.1,1.8,0.1,2.7,0.1h2
	l1.3-0.1c0.4,0,0.7,0,1.2-0.1c0.4,0,0.7-0.1,1-0.1c0.3,0,0.7-0.1,1-0.1l1-0.1l1-0.2l1-0.2l1-0.2l1.1-0.3l1-0.3l1-0.3l1-0.3
	c0.3-0.1,0.6-0.2,1-0.3c0.3-0.1,0.6-0.2,0.9-0.4l0.9-0.4l0.9-0.4l0.9-0.4l0.7-0.4h0l0.8-0.5c0.3-0.2,0.5-0.3,0.7-0.5l0.7-0.6
	c0.3-0.2,0.5-0.4,0.7-0.6c0.2-0.2,0.5-0.4,0.7-0.6s0.5-0.5,0.7-0.7c0.2-0.3,0.5-0.5,0.7-0.8c0.3-0.3,0.5-0.6,0.7-1
	c0.3-0.4,0.6-0.9,0.8-1.3c0.8-1.4,1.2-3,1.3-4.6l0.1-6.8C125.9,130,125.5,131.6,124.7,133z"/>
<path id="Path-1474_1_" class="st3" d="M78.5,105.8c10.9-6.2,28.5-6,39.3,0.4c10.8,6.4,10.8,16.6-0.1,22.8
	c-10.9,6.2-28.5,6-39.3-0.4S67.6,112,78.5,105.8z"/>
<linearGradient id="Path-1475_2_" gradientUnits="userSpaceOnUse" x1="-9039.9805" y1="5116.5259" x2="-9039.6094" y2="5116.5259" gradientTransform="matrix(150.101 0 0 -62.906 1356980.125 321988.625)">
	<stop  offset="0.2" style="stop-color:#E0E6FD"/>
	<stop  offset="0.52" style="stop-color:#FFFFFF"/>
	<stop  offset="0.73" style="stop-color:#FCFDFF"/>
	<stop  offset="0.85" style="stop-color:#F4F6FE"/>
	<stop  offset="0.95" style="stop-color:#E6EBFE"/>
	<stop  offset="1" style="stop-color:#DBE2FD"/>
</linearGradient>
<path id="Path-1475_1_" class="st11" d="M124.7,122.3c-0.2,0.5-0.5,0.9-0.8,1.3c-0.2,0.3-0.5,0.6-0.7,1c-0.3,0.3-0.5,0.5-0.7,0.8
	l-0.7,0.7c-0.2,0.2-0.5,0.4-0.7,0.6c-0.3,0.2-0.5,0.4-0.7,0.6s-0.5,0.4-0.7,0.6c-0.3,0.2-0.5,0.4-0.8,0.5l-0.8,0.5h-0.1
	c-0.3,0.1-0.5,0.3-0.7,0.4c-0.2,0.1-0.6,0.3-0.9,0.4l-0.9,0.4c-0.3,0.1-0.6,0.3-0.9,0.4c-0.3,0.1-0.6,0.3-0.9,0.4
	c-0.3,0.1-0.6,0.2-0.9,0.3c-0.3,0.1-0.7,0.2-1,0.3l-1,0.3c-0.3,0.1-0.7,0.2-1,0.3l-1.1,0.3l-1.1,0.2c-0.3,0.1-0.7,0.1-1,0.2l-1,0.2
	c-0.3,0-0.7,0.1-1,0.1c-0.3,0-0.7,0.1-1,0.1c-0.3,0-0.8,0.1-1.1,0.1s-0.7,0.1-1.1,0.1c-0.4,0-0.9,0-1.3,0.1h-2
	c-0.9,0-1.8-0.1-2.8-0.1c-0.7-0.1-1.4-0.1-2.2-0.2c-0.5-0.1-1-0.1-1.4-0.2c-0.5-0.1-0.8-0.1-1.2-0.2l-1.2-0.2
	c-0.4-0.1-0.7-0.2-1.1-0.3l-1.1-0.3l-1.1-0.3l-1.1-0.4l-1.1-0.4l-1.1-0.4l-1-0.4l-1-0.4c-0.3-0.1-0.6-0.3-0.9-0.5l-0.9-0.5l-0.2-0.1
	l-0.6-0.4c-0.3-0.2-0.5-0.3-0.7-0.5c-0.2-0.2-0.5-0.3-0.7-0.5c-0.2-0.2-0.5-0.3-0.7-0.5l-0.7-0.5c-0.2-0.2-0.4-0.4-0.6-0.6
	c-0.2-0.2-0.4-0.4-0.6-0.6c-0.2-0.2-0.4-0.4-0.6-0.6c-0.2-0.2-0.4-0.5-0.5-0.7c-0.2-0.2-0.4-0.5-0.5-0.7c-0.2-0.3-0.3-0.5-0.5-0.7
	s-0.3-0.6-0.5-0.9c-0.1-0.3-0.3-0.7-0.4-1.1c-0.2-0.5-0.3-0.9-0.4-1.4c-0.1-0.6-0.2-1.2-0.1-1.8l-0.1,6.9c0,0.6,0,1.2,0.1,1.8
	c0.1,0.5,0.2,0.9,0.3,1.4c0.1,0.4,0.3,0.7,0.4,1.1c0.2,0.3,0.3,0.6,0.5,0.9c0.2,0.3,0.3,0.5,0.5,0.8c0.2,0.3,0.3,0.5,0.5,0.7
	c0.2,0.2,0.4,0.5,0.5,0.7c0.2,0.2,0.4,0.4,0.6,0.6c0.2,0.2,0.4,0.4,0.6,0.6c0.2,0.2,0.4,0.4,0.6,0.6c0.2,0.2,0.4,0.4,0.7,0.5
	c0.2,0.2,0.4,0.3,0.7,0.5c0.2,0.2,0.5,0.4,0.7,0.5l0.7,0.5l0.6,0.4l0.2,0.1l0.9,0.5c0.3,0.2,0.6,0.3,0.9,0.5s0.6,0.3,0.9,0.4
	s0.7,0.3,1,0.4c0.3,0.1,0.7,0.3,1.1,0.4l1.1,0.4c0.4,0.1,0.7,0.2,1.1,0.4l1.1,0.3c0.4,0.1,0.7,0.2,1.1,0.3l1.1,0.2l1.1,0.2l1.2,0.2
	l1.4,0.2c0.7,0.1,1.4,0.2,2.2,0.2c0.9,0.1,1.8,0.1,2.7,0.1h2c0.4,0,0.9,0,1.3-0.1l1.2-0.1l1-0.1c0.3,0,0.7-0.1,1-0.1
	c0.3,0,0.7-0.1,1-0.1l1-0.2l1-0.2l1-0.3l1.1-0.3c0.3-0.1,0.7-0.2,1-0.3c0.3-0.1,0.7-0.2,1-0.3s0.7-0.2,1-0.3
	c0.3-0.1,0.6-0.2,0.9-0.3l0.9-0.4l0.9-0.4l0.9-0.4c0.3-0.1,0.6-0.3,0.9-0.4c0.3-0.1,0.5-0.3,0.7-0.4h0.1c0.3-0.2,0.5-0.3,0.8-0.5
	s0.5-0.3,0.7-0.5s0.5-0.4,0.8-0.6c0.3-0.2,0.5-0.4,0.7-0.6c0.2-0.2,0.5-0.4,0.7-0.6s0.5-0.5,0.7-0.7c0.2-0.3,0.5-0.5,0.7-0.8
	c0.3-0.3,0.5-0.6,0.7-1c0.3-0.4,0.6-0.9,0.8-1.3c0.8-1.4,1.2-3,1.2-4.6l0.2-6.8C125.9,119.3,125.5,120.9,124.7,122.3z"/>
<g>
	<g>
		<linearGradient id="SVGID_3_" gradientUnits="userSpaceOnUse" x1="81.3872" y1="116.0202" x2="114.8008" y2="116.0202">
			<stop  offset="0" style="stop-color:#FFFFFF"/>
			<stop  offset="0.5" style="stop-color:#FCFDFF"/>
			<stop  offset="0.8" style="stop-color:#F4F7FF"/>
			<stop  offset="1" style="stop-color:#E9EEFF"/>
		</linearGradient>
		<path class="st12" d="M109.9,109.2c6.5,3.8,6.6,9.9,0.1,13.7c-6.5,3.8-17.1,3.8-23.6,0c-6.5-3.8-6.6-9.9-0.1-13.7
			S103.3,105.4,109.9,109.2z M88.3,121.7c5.5,3.2,14.3,3.2,19.7,0c5.4-3.2,5.4-8.3-0.1-11.4c-5.5-3.2-14.3-3.2-19.7,0
			C82.8,113.5,82.8,118.6,88.3,121.7"/>
	</g>
	<g>
		<linearGradient id="SVGID_4_" gradientUnits="userSpaceOnUse" x1="87.5758" y1="115.7268" x2="107.7128" y2="115.7268">
			<stop  offset="0" style="stop-color:#FFFFFF"/>
			<stop  offset="0.5" style="stop-color:#FCFDFF"/>
			<stop  offset="0.8" style="stop-color:#F4F7FF"/>
			<stop  offset="1" style="stop-color:#E9EEFF"/>
		</linearGradient>
		<path class="st13" d="M102.9,118.4c0.2,0.8-0.2,1.6-1.3,2.2c-1.7,1-4.4,1.1-6,0.1l-1.1-0.7l-2.4,1.4c-0.1,0.1-0.4,0.1-0.5,0
			l-0.8-0.5c-0.1-0.1-0.1-0.2,0-0.3l2.4-1.4l-1.4-0.8l-2.4,1.4c-0.1,0.1-0.4,0.1-0.5,0l-0.8-0.5c-0.1-0.1-0.1-0.2,0-0.3l2.4-1.4
			l-2.7-1.5c-0.2-0.1-0.1-0.2,0-0.3l1-0.4c0.1-0.1,0.3,0,0.4,0c0.9,0.4,1.8,0.3,2.5-0.1l5.2-3c0.8-0.5,0.9-1.1,0-1.7
			c-0.1-0.1-0.1-0.2,0-0.3l0.8-0.5c0.1-0.1,0.4-0.1,0.5,0l2.8,1.6l2.4-1.4c0.1-0.1,0.4-0.1,0.5,0l0.8,0.5c0.1,0.1,0.1,0.2,0,0.3
			l-2.4,1.4l1.4,0.8l2.4-1.4c0.1-0.1,0.4-0.1,0.5,0l0.8,0.5c0.1,0.1,0.1,0.2,0,0.3l-2.4,1.4l0.5,0.3c1.6,0.9,1.5,2.5-0.2,3.5
			C104.7,118.1,103.8,118.3,102.9,118.4z M96.4,119c0.8,0.4,2,0.4,2.8,0c0.8-0.4,0.8-1.2,0-1.6l-2.8-1.6l-2.8,1.6L96.4,119
			 M100.4,113.5l-2.8,1.6l2.1,1.2c0.8,0.4,2,0.4,2.8,0c0.8-0.4,0.8-1.2,0-1.6L100.4,113.5"/>
	</g>
</g>
<g class="st14">
	<g>
		<path class="st6" d="M79.1,93.5c-3.7-6.1,1.8-12.8,12.4-15c7.6-1.5,15.8-0.3,21.1,2.8c0.7,0.4,1.3,0.8,1.9,1.2l0.2,0.2
			c0.5,0.6-0.2,1-1.3,1c-1,0-7.6,0.2-8.5,0.2c-0.3,0-0.5-0.1-0.7-0.1c-0.3-0.2-0.3-0.4,0.1-0.6c0.6-0.3,2.4-1.1,2.5-1.1
			c-4-1.6-9.1-2.1-13.9-1.1c-8.1,1.6-12.5,6.8-9.7,11.5c0.1,0.1,0,0.1,0.2,0.3c0.1,0.2,0.3,0.5-0.4,0.6c-0.8,0.1-2.6,0.4-3.1,0.5
			c-0.3,0.1-0.5,0-0.6,0c-0.1-0.1-0.2-0.1-0.3-0.3C79.1,93.6,79.1,93.6,79.1,93.5z"/>
	</g>
	<g>
		<path class="st6" d="M117.1,85.7c3.9,5.9-1.7,12.9-12.1,15c-7.6,1.5-15.7,0.3-21.1-2.8c-0.7-0.4-1.3-0.8-1.9-1.3
			c-0.7-0.5-0.4-0.9,0.1-1.1c1.1-0.4,8.8-0.6,9.1-0.6c0.2,0,0.4,0.1,0.5,0.1c0.2,0.1,0.2,0.4,0,0.5c-0.4,0.2-2.6,1.2-2.7,1.3
			c4,1.8,9.4,2.4,14.5,1.3c8.1-1.6,12.5-7,9.6-11.7c0,0-0.4-0.5,0.2-0.7c0.4-0.1,2-0.3,2.6-0.4c0.4,0,0.6-0.1,0.8,0
			C116.8,85.4,116.9,85.5,117.1,85.7z"/>
	</g>
</g>
<g>
	<g>
		<g>
			<path class="st3" d="M124.9,92.4c-1.3,0.9-2.5,0.8-3.3,0.3c-1.7-1-5.3-8.4-5.3-8.7c0-0.7,0.9-1,1.6-0.7c0.7,0.3,4.5,2,4.7,2.1
				c3.5-4.6,3.2-10.1-1.8-14.7c-1.1-1-2.3-1.9-3.7-2.7c-8.8-5.1-23.3-6.2-34.1-2.3c-0.1,0-1.3,0.5-2.1,0.1c-0.6-0.4-1.7-1.9-2.1-2.5
				c-0.4-0.7-0.7-0.7,0.7-1.3c13.6-5.2,32.3-3.8,43.6,2.7c1.7,1,3.3,2.1,4.7,3.4C136.2,76.1,134.6,85.8,124.9,92.4z"/>
		</g>
		<g>
			<path class="st3" d="M118.1,95.3c0.5,0.5,0.2,0.6-0.5,0.9c-0.2,0.1-0.4,0.2-0.7,0.3c-14.1,5.1-32.1,3.7-43.5-2.9
				c-1.9-1.1-3.5-2.3-5-3.6c-8.4-7.7-6.8-17.5,2.9-24c1.2-0.8,2.3-0.7,3.1-0.3c0.4,0.2,0.7,0.5,0.9,0.9c0.5,0.9,3.6,7.4,4,8.2
				c0.3,0.8-1,1.3-2,0.8c-1-0.5-4.1-2-4.2-2c-3,4.5-2.5,9.6,2.3,14c1.1,1,2.4,2,3.8,2.8c8.7,5,22.7,6.2,33.6,2.3
				c0.3-0.1,0.2-0.1,0.8-0.3c0.4-0.2,1.1-0.4,1.6-0.1c0.1,0.1,0.2,0.2,0.3,0.3C116,93.1,117.6,94.8,118.1,95.3z"/>
		</g>
	</g>
</g>
</svg>
