<?xml version="1.0" encoding="utf-8"?>
<!-- Generator: Adobe Illustrator 22.1.0, SVG Export Plug-In . SVG Version: 6.00 Build 0)  -->
<svg version="1.1" id="_x30_03" xmlns="http://www.w3.org/2000/svg" xmlns:xlink="http://www.w3.org/1999/xlink" x="0px" y="0px"
	 viewBox="0 0 202.3 218.8" style="enable-background:new 0 0 202.3 218.8;" xml:space="preserve">
<style type="text/css">
	.st0{fill:url(#Path-909_2_);}
	.st1{fill:url(#Path-910_2_);}
	.st2{fill:url(#Path-911_2_);}
	.st3{fill:url(#Path-912_2_);}
	.st4{fill:#FFFFFF;}
	.st5{opacity:0.8;}
	.st6{fill:#1ED4CA;}
</style>
<linearGradient id="Path-909_2_" gradientUnits="userSpaceOnUse" x1="-9022.2236" y1="5041.5508" x2="-9022.2236" y2="5042.5508" gradientTransform="matrix(201.0864 0 0 -116.4237 1814347.125 587169.1875)">
	<stop  offset="0" style="stop-color:#FFFFFF"/>
	<stop  offset="0.5" style="stop-color:#FCFDFF"/>
	<stop  offset="0.8" style="stop-color:#F4F7FF"/>
	<stop  offset="1" style="stop-color:#E9EEFF"/>
</linearGradient>
<path id="Path-909_1_" class="st0" d="M197.2,148.5c5.9,3.4,5.9,9,0.1,12.4l-85.1,49.5c-5.9,3.4-15.4,3.4-21.4,0L5,161
	c-5.9-3.4-5.9-9-0.1-12.4l85.2-49.5c5.9-3.4,15.5-3.4,21.4,0L197.2,148.5z"/>
<linearGradient id="Path-910_2_" gradientUnits="userSpaceOnUse" x1="-9022.7227" y1="5074.0796" x2="-9021.7227" y2="5074.0796" gradientTransform="matrix(201.08 0 0 -64.0912 1814290.125 325390.875)">
	<stop  offset="0.2" style="stop-color:#E0E6FD"/>
	<stop  offset="0.52" style="stop-color:#FFFFFF"/>
	<stop  offset="0.73" style="stop-color:#FCFDFF"/>
	<stop  offset="0.85" style="stop-color:#F4F6FE"/>
	<stop  offset="0.95" style="stop-color:#E6EBFE"/>
	<stop  offset="1" style="stop-color:#DBE2FD"/>
</linearGradient>
<path id="Path-910_1_" class="st1" d="M201.6,154.7c0,2.2-1.4,4.5-4.4,6.2l-85.2,49.5c-5.9,3.4-15.4,3.4-21.4,0L5,161
	c-3-1.7-4.4-4-4.4-6.2l0,0v5.8l0,0c0,2.2,1.5,4.5,4.4,6.2l85.7,49.5c5.9,3.4,15.5,3.4,21.4,0l85.2-49.5c2.9-1.7,4.4-4,4.4-6.2l0,0
	L201.6,154.7L201.6,154.7z"/>
<linearGradient id="Path-911_2_" gradientUnits="userSpaceOnUse" x1="24.6" y1="154.7474" x2="177.6" y2="154.7474">
	<stop  offset="0" style="stop-color:#DBE2FD"/>
	<stop  offset="1" style="stop-color:#1ED4CA;stop-opacity:0"/>
</linearGradient>
<path id="Path-911_1_" class="st2" d="M101.4,197.8c-1.1,0-2.1-0.1-3.1-0.5l-73.7-42.6l73.1-42.5c2-0.7,4.2-0.7,6.2,0l73.7,42.6
	l-73.1,42.5C103.5,197.7,102.5,197.8,101.4,197.8z"/>
<linearGradient id="Path-912_2_" gradientUnits="userSpaceOnUse" x1="-9021.3086" y1="5028.5034" x2="-9021.3086" y2="5029.5034" gradientTransform="matrix(153 0 0 -174.45 1380361.375 877420.0625)">
	<stop  offset="0" style="stop-color:#1ED4CA"/>
	<stop  offset="0.1445" style="stop-color:#1ED4CA;stop-opacity:0.8555"/>
	<stop  offset="1" style="stop-color:#1ED4CA;stop-opacity:0"/>
</linearGradient>
<path id="Path-912_1_" class="st3" d="M24.6,23.3v131.4l73.7,42.6c2,0.7,4.2,0.7,6.2,0l73.1-42.5V23.3H24.6z"/>
<path id="Shape-53_1_" class="st4" d="M101.9,183.5c-0.2,0-0.3,0-0.5,0c-0.1,0-0.3,0-0.4,0c-3.7,0-7.3-0.9-10.6-2.6L4.9,131.5
	c-3.1-1.8-4.8-4.2-4.8-6.8c0-1.3,0.4-2.6,1.2-3.7c0.9-1.3,2.1-2.3,3.5-3.1l85-49.4c6.9-3.5,15.2-3.5,22.1,0l85.5,49.4
	c3.1,1.8,4.8,4.2,4.8,6.8c0,1.3-0.4,2.6-1.2,3.7c-0.9,1.3-2.1,2.3-3.5,3.1l-85,49.4C109.3,182.6,105.6,183.5,101.9,183.5z
	 M100.4,67.3c-3.4,0-6.8,0.9-9.9,2.5l-85,49.4c-2.6,1.5-4,3.5-4,5.5s1.4,4,4.1,5.5l85.6,49.4c6.5,3.3,14.1,3.3,20.6,0l85-49.4
	c2.6-1.5,4-3.4,4-5.5c0-2-1.4-4-4.1-5.6l-85.6-49.4c-3-1.6-6.4-2.5-9.9-2.5c-0.1,0-0.3,0-0.4,0S100.5,67.3,100.4,67.3z"/>
<path id="Shape-54_1_" class="st4" d="M101.9,153.4c-0.2,0-0.3,0-0.5,0c-0.1,0-0.3,0-0.4,0c-3.7,0-7.3-0.9-10.6-2.6L4.8,101.4
	C1.7,99.6,0,97.2,0,94.5c0-1.3,0.4-2.6,1.2-3.7c0.9-1.3,2.1-2.3,3.5-3.1l85-49.4c6.9-3.5,15.1-3.5,22.1,0l85.5,49.4
	c3.1,1.8,4.8,4.2,4.8,6.8c0,1.3-0.4,2.6-1.2,3.7c-0.9,1.3-2.1,2.3-3.5,3.1l-85,49.4C109.2,152.5,105.6,153.4,101.9,153.4z
	 M100.4,37.2c-3.4,0-6.8,0.8-9.9,2.5L5.5,89c-2.6,1.5-4,3.5-4,5.5c0,2,1.4,4,4.1,5.6l85.6,49.4c6.5,3.3,14.1,3.3,20.6,0l85-49.4
	c2.6-1.5,4-3.4,4-5.5c0-2-1.4-4-4.1-5.5l-85.6-49.4c-3-1.6-6.4-2.5-9.9-2.5c-0.1,0-0.3,0-0.4,0S100.5,37.2,100.4,37.2z"/>
<g id="Group-75_1_" transform="translate(46 26)" class="st5">
	<g>
		<path id="Path-758_9_" class="st6" d="M96.8-19.7c2.3-1.3,4.2-0.3,4.2,2.4l0.2,87.1c0,2.7-1.9,5.9-4.2,7.3l-75.8,43.8
			c-2.3,1.3-4.2,0.3-4.2-2.4l-0.2-87.1c0-2.7,1.9-5.9,4.2-7.3L96.8-19.7z"/>
	</g>
</g>
<path id="Path-759_1_" class="st6" d="M55,142.4c-0.4,0-0.9-0.1-1.2-0.3c-0.9-0.5-1.4-1.6-1.4-3l-0.2-87.1c0-2.8,1.9-6.1,4.3-7.5
	l75.8-43.8c1.2-0.7,2.4-0.8,3.3-0.3s1.4,1.6,1.4,3h-0.6c0-1.2-0.4-2.1-1.1-2.5c-0.7-0.4-1.6-0.3-2.7,0.3L56.8,44.9
	c-2.2,1.3-4.1,4.4-4,7l0.2,87.1c0,1.2,0.4,2.1,1.1,2.5c0.7,0.4,1.6,0.3,2.7-0.3l0.3,0.5C56.5,142.1,55.8,142.3,55,142.4L55,142.4z"
	/>
<path id="Path-761_1_" class="st4" d="M144.9,58.5c1-0.6,1.9-0.1,1.9,1.1c-0.1,1.3-0.8,2.5-1.9,3.2L85.3,98.2
	c-1,0.6-1.9,0.1-1.9-1.1c0.1-1.3,0.8-2.5,1.8-3.2L144.9,58.5z"/>
<path id="Path-762_1_" class="st4" d="M157.1,41c1-0.6,1.9-0.1,1.9,1.1c-0.1,1.3-0.8,2.5-1.9,3.2L85.2,87.8c-1,0.6-1.9,0.1-1.9-1.1
	c0.1-1.3,0.8-2.5,1.8-3.2L157.1,41z"/>
<path id="Path-763_1_" class="st4" d="M157.1,30.6c1-0.6,1.9-0.1,1.9,1.1c-0.1,1.3-0.8,2.5-1.9,3.2L85.2,77.4
	c-1,0.6-1.9,0.1-1.9-1.1c0.1-1.3,0.8-2.5,1.8-3.2L157.1,30.6z"/>
<g>
	<g>
		<polygon class="st4" points="116.5,111.8 123.1,115.6 141.1,84.3 144.1,86 123.1,122.3 113.6,116.9 		"/>
	</g>
	<g>
		<path class="st4" d="M142,101.7l4.2-2.4c0,13.3-9.4,29.7-21,36.4c-11.6,6.7-21.1,1.3-21.1-12c0-13.3,9.4-29.7,21-36.4
			c2.7-1.6,5.5-2.4,8-2.9l-3.4,5.8c-1.5,0.4-2.9,1-4.6,1.9c-9.3,5.4-16.8,18.4-16.8,29.1c0,10.6,7.6,15,16.9,9.6
			C134.5,125.5,142.1,112.4,142,101.7z"/>
	</g>
</g>
<polygon class="st4" points="5.6,100.1 91.1,149.5 90.4,150.8 4.8,101.4 "/>
</svg>
