<?xml version="1.0" encoding="utf-8"?>
<!-- Generator: Adobe Illustrator 22.1.0, SVG Export Plug-In . SVG Version: 6.00 Build 0)  -->
<svg version="1.1" id="Solid" xmlns="http://www.w3.org/2000/svg" xmlns:xlink="http://www.w3.org/1999/xlink" x="0px" y="0px"
	 viewBox="0 0 448.9 394.4" style="enable-background:new 0 0 448.9 394.4;" xml:space="preserve">
<style type="text/css">
	.st0{fill:url(#SVGID_1_);}
	.st1{fill:url(#SVGID_2_);}
	.st2{fill:url(#SVGID_3_);}
	.st3{fill:url(#SVGID_4_);}
	.st4{fill:url(#SVGID_5_);}
	.st5{fill:url(#SVGID_6_);}
	.st6{fill:url(#SVGID_7_);}
	.st7{fill:url(#SVGID_8_);}
	.st8{fill:url(#SVGID_9_);}
	.st9{fill:url(#SVGID_10_);}
	.st10{fill:url(#SVGID_11_);}
	.st11{fill:url(#SVGID_12_);}
	.st12{fill:url(#SVGID_13_);}
	.st13{fill:url(#SVGID_14_);}
	.st14{fill-rule:evenodd;clip-rule:evenodd;fill:url(#SVGID_15_);}
	.st15{fill-rule:evenodd;clip-rule:evenodd;fill:url(#SVGID_16_);}
	.st16{fill-rule:evenodd;clip-rule:evenodd;fill:url(#SVGID_17_);}
	.st17{fill-rule:evenodd;clip-rule:evenodd;fill:url(#SVGID_18_);}
	.st18{fill-rule:evenodd;clip-rule:evenodd;fill:url(#SVGID_19_);}
	.st19{fill:#1ED4CA;}
	.st20{fill:#FFFFFF;}
	.st21{fill-rule:evenodd;clip-rule:evenodd;fill:#1ED4CA;}
	.st22{fill-rule:evenodd;clip-rule:evenodd;fill:url(#SVGID_20_);}
	.st23{fill-rule:evenodd;clip-rule:evenodd;fill:url(#SVGID_21_);}
	.st24{fill-rule:evenodd;clip-rule:evenodd;fill:url(#SVGID_22_);}
	.st25{fill-rule:evenodd;clip-rule:evenodd;fill:url(#SVGID_23_);}
	.st26{fill-rule:evenodd;clip-rule:evenodd;fill:url(#SVGID_24_);}
	.st27{fill-rule:evenodd;clip-rule:evenodd;fill:url(#SVGID_25_);}
	.st28{fill-rule:evenodd;clip-rule:evenodd;fill:url(#SVGID_26_);}
	.st29{fill-rule:evenodd;clip-rule:evenodd;fill:url(#SVGID_27_);}
	.st30{fill-rule:evenodd;clip-rule:evenodd;fill:url(#SVGID_28_);}
	.st31{fill-rule:evenodd;clip-rule:evenodd;fill:url(#SVGID_29_);}
	.st32{fill-rule:evenodd;clip-rule:evenodd;fill:url(#SVGID_30_);}
	.st33{fill-rule:evenodd;clip-rule:evenodd;fill:url(#SVGID_31_);}
	.st34{fill-rule:evenodd;clip-rule:evenodd;fill:url(#SVGID_32_);}
	.st35{fill-rule:evenodd;clip-rule:evenodd;fill:url(#SVGID_33_);}
	.st36{fill-rule:evenodd;clip-rule:evenodd;fill:url(#SVGID_34_);}
	.st37{fill:url(#SVGID_35_);}
	.st38{fill:url(#SVGID_36_);}
	.st39{fill:url(#SVGID_37_);}
	.st40{fill:url(#SVGID_38_);}
	.st41{fill:url(#SVGID_39_);}
	.st42{fill:url(#SVGID_40_);}
	.st43{fill:url(#SVGID_41_);}
	.st44{fill:url(#SVGID_42_);}
	.st45{fill:url(#SVGID_43_);}
	.st46{fill:url(#SVGID_44_);}
	.st47{fill:url(#SVGID_45_);}
	.st48{fill:url(#SVGID_46_);}
	.st49{fill:url(#SVGID_47_);}
	.st50{fill:url(#SVGID_48_);}
	.st51{fill:url(#SVGID_49_);}
	.st52{fill:url(#SVGID_50_);}
	.st53{fill:url(#SVGID_51_);}
	.st54{fill:url(#SVGID_52_);}
	.st55{fill:url(#SVGID_53_);}
	.st56{fill:url(#SVGID_54_);}
	.st57{fill:url(#SVGID_55_);}
	.st58{fill:url(#SVGID_56_);}
	.st59{fill:url(#SVGID_57_);}
	.st60{fill:url(#SVGID_58_);}
	.st61{fill:url(#SVGID_59_);}
	.st62{fill:url(#SVGID_60_);}
	.st63{fill:url(#SVGID_61_);}
	.st64{fill:url(#SVGID_62_);}
	.st65{fill:url(#SVGID_63_);}
	.st66{fill:url(#SVGID_64_);}
	.st67{fill:url(#SVGID_65_);}
	.st68{fill:url(#SVGID_66_);}
	.st69{fill:url(#SVGID_67_);}
	.st70{fill:url(#SVGID_68_);}
	.st71{fill:url(#SVGID_69_);}
	.st72{fill:url(#SVGID_70_);}
	.st73{fill:url(#SVGID_71_);}
	.st74{fill:url(#SVGID_72_);}
	.st75{fill:url(#SVGID_73_);}
	.st76{fill:url(#SVGID_74_);}
	.st77{fill:url(#SVGID_75_);}
	.st78{fill:url(#SVGID_76_);}
	.st79{fill:url(#SVGID_77_);}
	.st80{fill:url(#SVGID_78_);}
	.st81{fill:url(#SVGID_79_);}
	.st82{fill:url(#SVGID_80_);}
	.st83{fill:url(#SVGID_81_);}
	.st84{fill:url(#SVGID_82_);}
	.st85{fill:url(#SVGID_83_);}
	.st86{fill:url(#SVGID_84_);}
	.st87{fill:url(#SVGID_85_);}
	.st88{fill:url(#SVGID_86_);}
	.st89{fill:url(#SVGID_87_);}
	.st90{fill:url(#SVGID_88_);}
	.st91{fill:url(#SVGID_89_);}
	.st92{fill:url(#SVGID_90_);}
	.st93{fill:url(#SVGID_91_);}
	.st94{fill:url(#SVGID_92_);}
	.st95{fill:url(#SVGID_93_);}
	.st96{fill:url(#SVGID_94_);}
	.st97{fill:url(#SVGID_95_);}
	.st98{fill:url(#SVGID_96_);}
	.st99{fill:url(#SVGID_97_);}
	.st100{fill:url(#SVGID_98_);}
	.st101{fill:url(#SVGID_99_);}
	.st102{fill:url(#SVGID_100_);}
	.st103{fill:url(#SVGID_101_);}
	.st104{fill:url(#SVGID_102_);}
	.st105{fill:url(#SVGID_103_);}
	.st106{fill:url(#SVGID_104_);}
	.st107{fill:url(#SVGID_105_);}
	.st108{fill:url(#SVGID_106_);}
	.st109{fill:url(#SVGID_107_);}
	.st110{fill:url(#SVGID_108_);}
	.st111{fill:url(#SVGID_109_);}
	.st112{fill:url(#SVGID_110_);}
	.st113{fill:url(#SVGID_111_);}
	.st114{fill:url(#SVGID_112_);}
	.st115{fill:url(#SVGID_113_);}
	.st116{fill:url(#SVGID_114_);}
	.st117{fill:url(#SVGID_115_);}
	.st118{fill:url(#SVGID_116_);}
	.st119{fill:url(#SVGID_117_);}
	.st120{fill:url(#SVGID_118_);}
	.st121{fill:url(#SVGID_119_);}
	.st122{fill:url(#SVGID_120_);}
	.st123{fill:url(#SVGID_121_);}
</style>
<g>
	<g>
		<linearGradient id="SVGID_1_" gradientUnits="userSpaceOnUse" x1="305.0721" y1="117.5059" x2="312.0459" y2="117.5059">
			<stop  offset="0" style="stop-color:#FFFFFF"/>
			<stop  offset="1" style="stop-color:#E6F0FA"/>
		</linearGradient>
		<path class="st0" d="M312,109.4l0,17.6l-3.1-1.8l0-11.4l-3.8-2.2l0-2.7c1.2,0.7,2.2,1,3.1,0.9c0.8-0.1,1.3-0.7,1.4-1.8L312,109.4z
			"/>
	</g>
	<g>
		<linearGradient id="SVGID_2_" gradientUnits="userSpaceOnUse" x1="316.0569" y1="123.7864" x2="327.3127" y2="123.7864">
			<stop  offset="0" style="stop-color:#FFFFFF"/>
			<stop  offset="1" style="stop-color:#E6F0FA"/>
		</linearGradient>
		<path class="st1" d="M326.9,122.5c0.3,1.3,0.4,2.8,0.4,4.5c0,1.7-0.2,3.1-0.5,4.1c-0.3,1-0.7,1.8-1.2,2.2
			c-0.5,0.4-1.1,0.6-1.8,0.5c-0.7-0.1-1.4-0.3-2.2-0.8c-0.8-0.5-1.5-1.1-2.2-1.8c-0.7-0.7-1.3-1.6-1.8-2.6c-0.5-1-0.9-2.2-1.2-3.6
			c-0.3-1.4-0.4-2.9-0.4-4.6c0-1.7,0.2-3,0.5-4c0.3-1,0.7-1.7,1.2-2.1c0.5-0.4,1.1-0.6,1.8-0.5c0.7,0.1,1.4,0.3,2.2,0.8
			c0.8,0.5,1.5,1,2.2,1.7c0.7,0.7,1.3,1.5,1.8,2.6C326.2,119.9,326.6,121.1,326.9,122.5z M324.1,127.2c0-0.6,0.1-1.3,0.1-2
			c0-0.7,0-1.4,0-2c0-0.6-0.1-1.3-0.3-2.1c-0.2-0.8-0.4-1.4-0.8-2.1c-0.3-0.6-0.8-1.1-1.4-1.5c-0.6-0.3-1.1-0.4-1.4-0.2
			c-0.3,0.2-0.6,0.6-0.8,1.2c-0.1,0.6-0.3,1.1-0.3,1.7c0,0.6-0.1,1.3-0.1,2c0,0.8,0,1.5,0,2.1c0,0.7,0.1,1.4,0.3,2.1
			c0.2,0.8,0.4,1.4,0.8,2.1c0.4,0.6,0.8,1.1,1.4,1.5c0.6,0.3,1.1,0.4,1.4,0.2c0.4-0.2,0.6-0.6,0.8-1.2
			C324,128.4,324.1,127.8,324.1,127.2"/>
	</g>
	<g>
		<linearGradient id="SVGID_3_" gradientUnits="userSpaceOnUse" x1="329.3866" y1="131.5485" x2="336.3604" y2="131.5485">
			<stop  offset="0" style="stop-color:#FFFFFF"/>
			<stop  offset="1" style="stop-color:#E6F0FA"/>
		</linearGradient>
		<path class="st2" d="M336.4,123.5l0,17.6l-3.1-1.8l0-11.4l-3.9-2.2l0-2.7c1.2,0.7,2.3,1,3.1,0.9c0.8-0.1,1.3-0.7,1.4-1.8
			L336.4,123.5z"/>
	</g>
	<g>
		<linearGradient id="SVGID_4_" gradientUnits="userSpaceOnUse" x1="341.5608" y1="138.5724" x2="348.5346" y2="138.5724">
			<stop  offset="0" style="stop-color:#FFFFFF"/>
			<stop  offset="1" style="stop-color:#E6F0FA"/>
		</linearGradient>
		<path class="st3" d="M348.5,130.5l0,17.6l-3.1-1.8l0-11.4l-3.8-2.2l0-2.7c1.2,0.7,2.2,1,3.1,0.9c0.8-0.1,1.3-0.7,1.4-1.8
			L348.5,130.5z"/>
	</g>
	<g>
		<linearGradient id="SVGID_5_" gradientUnits="userSpaceOnUse" x1="353.7181" y1="145.5917" x2="360.6919" y2="145.5917">
			<stop  offset="0" style="stop-color:#FFFFFF"/>
			<stop  offset="1" style="stop-color:#E6F0FA"/>
		</linearGradient>
		<path class="st4" d="M360.7,137.5l0,17.6l-3.1-1.8l0-11.4l-3.9-2.2l0-2.7c1.2,0.7,2.3,1,3.1,0.9c0.8-0.1,1.3-0.7,1.4-1.8
			L360.7,137.5z"/>
	</g>
	<g>
		<linearGradient id="SVGID_6_" gradientUnits="userSpaceOnUse" x1="364.7198" y1="151.8785" x2="375.9578" y2="151.8785">
			<stop  offset="0" style="stop-color:#FFFFFF"/>
			<stop  offset="1" style="stop-color:#E6F0FA"/>
		</linearGradient>
		<path class="st5" d="M375.5,150.6c0.3,1.3,0.4,2.8,0.4,4.5c0,1.7-0.2,3.1-0.5,4.1c-0.3,1-0.7,1.8-1.2,2.2
			c-0.5,0.4-1.1,0.6-1.8,0.5c-0.7-0.1-1.4-0.3-2.2-0.8c-0.8-0.5-1.5-1-2.2-1.8c-0.7-0.7-1.3-1.6-1.8-2.6c-0.5-1-0.9-2.2-1.2-3.6
			c-0.3-1.3-0.4-2.9-0.4-4.6c0-1.7,0.2-3,0.4-4c0.3-1,0.7-1.7,1.2-2.1c0.5-0.4,1.1-0.6,1.8-0.5c0.7,0.1,1.4,0.3,2.2,0.8
			c0.8,0.5,1.5,1,2.2,1.8c0.7,0.7,1.3,1.5,1.8,2.6C374.8,148,375.2,149.2,375.5,150.6z M372.8,155.3c0.1-0.6,0.1-1.3,0.1-2
			c0-0.7,0-1.4-0.1-2c0-0.6-0.1-1.3-0.3-2.1c-0.2-0.8-0.4-1.4-0.8-2.1c-0.4-0.6-0.8-1.1-1.4-1.5c-0.6-0.3-1.1-0.4-1.4-0.2
			c-0.4,0.2-0.6,0.6-0.8,1.2c-0.2,0.5-0.2,1.1-0.3,1.7c0,0.6-0.1,1.3-0.1,2c0,0.8,0,1.5,0,2.1c0,0.7,0.1,1.4,0.3,2.1
			c0.1,0.7,0.4,1.4,0.8,2.1c0.3,0.6,0.8,1.1,1.4,1.5c0.6,0.3,1.1,0.4,1.4,0.2c0.4-0.2,0.6-0.6,0.8-1.2
			C372.7,156.5,372.8,155.9,372.8,155.3"/>
	</g>
	<g>
		<linearGradient id="SVGID_7_" gradientUnits="userSpaceOnUse" x1="378.0487" y1="159.639" x2="385.0225" y2="159.639">
			<stop  offset="0" style="stop-color:#FFFFFF"/>
			<stop  offset="1" style="stop-color:#E6F0FA"/>
		</linearGradient>
		<path class="st6" d="M385,151.6l0,17.6l-3.1-1.8l0-11.4l-3.8-2.2l0-2.7c1.2,0.7,2.2,1,3.1,0.9c0.8-0.1,1.3-0.7,1.4-1.8L385,151.6z
			"/>
	</g>
	<g>
		<linearGradient id="SVGID_8_" gradientUnits="userSpaceOnUse" x1="389.0344" y1="165.92" x2="400.2893" y2="165.92">
			<stop  offset="0" style="stop-color:#FFFFFF"/>
			<stop  offset="1" style="stop-color:#E6F0FA"/>
		</linearGradient>
		<path class="st7" d="M399.9,164.6c0.3,1.3,0.4,2.8,0.4,4.5c0,1.7-0.2,3.1-0.5,4.1c-0.3,1-0.7,1.8-1.2,2.2
			c-0.5,0.4-1.1,0.6-1.8,0.5c-0.7-0.1-1.4-0.3-2.2-0.8c-0.8-0.5-1.5-1.1-2.2-1.8c-0.7-0.7-1.3-1.6-1.8-2.6c-0.5-1-0.9-2.2-1.2-3.6
			c-0.3-1.4-0.4-2.9-0.4-4.6c0-1.7,0.2-3,0.5-4c0.3-1,0.7-1.7,1.2-2.1c0.5-0.4,1.1-0.6,1.8-0.5c0.7,0.1,1.4,0.3,2.2,0.8
			c0.8,0.5,1.5,1,2.2,1.7c0.7,0.7,1.3,1.5,1.8,2.6C399.2,162.1,399.6,163.3,399.9,164.6z M397.1,169.3c0-0.6,0.1-1.3,0.1-2
			c0-0.7,0-1.4,0-2c0-0.6-0.1-1.3-0.3-2.1c-0.2-0.8-0.4-1.4-0.8-2.1c-0.3-0.6-0.8-1.1-1.4-1.5c-0.6-0.3-1.1-0.4-1.4-0.2
			c-0.3,0.2-0.6,0.6-0.8,1.2c-0.1,0.6-0.2,1.1-0.3,1.7c0,0.6-0.1,1.3-0.1,2c0,0.8,0,1.5,0,2.1c0,0.7,0.1,1.4,0.3,2.1
			c0.2,0.8,0.4,1.4,0.8,2.1c0.4,0.6,0.8,1.1,1.4,1.5c0.6,0.3,1.1,0.4,1.4,0.2c0.4-0.2,0.6-0.6,0.8-1.2
			C397,170.5,397.1,170,397.1,169.3"/>
	</g>
	<g>
		<linearGradient id="SVGID_9_" gradientUnits="userSpaceOnUse" x1="402.3641" y1="173.6821" x2="409.338" y2="173.6821">
			<stop  offset="0" style="stop-color:#FFFFFF"/>
			<stop  offset="1" style="stop-color:#E6F0FA"/>
		</linearGradient>
		<path class="st8" d="M409.3,165.6l0,17.6l-3.1-1.8l0-11.4l-3.9-2.2l0-2.7c1.2,0.7,2.3,1,3.1,0.9c0.8-0.1,1.3-0.7,1.4-1.8
			L409.3,165.6z"/>
	</g>
	<g>
		<linearGradient id="SVGID_10_" gradientUnits="userSpaceOnUse" x1="413.365" y1="179.9671" x2="424.6039" y2="179.9671">
			<stop  offset="0" style="stop-color:#FFFFFF"/>
			<stop  offset="1" style="stop-color:#E6F0FA"/>
		</linearGradient>
		<path class="st9" d="M424.2,178.6c0.3,1.3,0.4,2.8,0.4,4.5c0,1.7-0.2,3.1-0.4,4.1c-0.3,1-0.7,1.7-1.2,2.2
			c-0.5,0.4-1.1,0.6-1.8,0.5c-0.7-0.1-1.4-0.3-2.2-0.8c-0.8-0.5-1.5-1-2.2-1.8c-0.7-0.7-1.3-1.6-1.8-2.6c-0.5-1-0.9-2.2-1.2-3.6
			c-0.3-1.4-0.4-2.9-0.4-4.6c0-1.7,0.2-3,0.5-4c0.3-1,0.7-1.7,1.2-2.1c0.5-0.4,1.1-0.6,1.8-0.5c0.7,0.1,1.4,0.3,2.2,0.8
			c0.8,0.5,1.5,1,2.2,1.8c0.7,0.7,1.3,1.5,1.8,2.6C423.5,176.1,423.9,177.3,424.2,178.6z M421.4,183.4c0-0.6,0.1-1.3,0.1-2
			c0-0.7,0-1.4,0-2c0-0.6-0.1-1.3-0.3-2.1c-0.2-0.8-0.4-1.4-0.8-2.1c-0.3-0.6-0.8-1.1-1.4-1.5c-0.6-0.3-1.1-0.4-1.4-0.2
			c-0.3,0.2-0.6,0.6-0.8,1.2c-0.1,0.6-0.2,1.1-0.3,1.7c-0.1,0.6-0.1,1.2-0.1,2c0,0.8,0,1.5,0.1,2.1c0,0.7,0.1,1.4,0.3,2.1
			c0.1,0.7,0.4,1.4,0.8,2.1c0.3,0.6,0.8,1.1,1.4,1.5c0.6,0.4,1.1,0.4,1.4,0.2c0.3-0.2,0.6-0.6,0.8-1.2
			C421.3,184.6,421.4,184,421.4,183.4"/>
	</g>
	<g>
		<linearGradient id="SVGID_11_" gradientUnits="userSpaceOnUse" x1="425.5231" y1="186.9865" x2="436.778" y2="186.9865">
			<stop  offset="0" style="stop-color:#FFFFFF"/>
			<stop  offset="1" style="stop-color:#E6F0FA"/>
		</linearGradient>
		<path class="st10" d="M436.3,185.7c0.3,1.3,0.4,2.8,0.4,4.5c0,1.7-0.2,3.1-0.5,4.1c-0.3,1-0.7,1.8-1.2,2.2
			c-0.5,0.4-1.1,0.6-1.8,0.5c-0.7-0.1-1.4-0.3-2.2-0.8c-0.8-0.5-1.5-1.1-2.2-1.8c-0.7-0.7-1.3-1.6-1.8-2.6c-0.5-1-0.9-2.2-1.2-3.6
			c-0.3-1.4-0.4-2.9-0.4-4.6c0-1.7,0.2-3,0.5-4c0.3-1,0.7-1.7,1.2-2.1c0.5-0.4,1.1-0.6,1.8-0.5c0.7,0.1,1.4,0.3,2.2,0.8
			c0.8,0.5,1.5,1,2.2,1.7c0.7,0.7,1.3,1.5,1.8,2.6C435.7,183.2,436.1,184.3,436.3,185.7z M433.6,190.4c0-0.6,0.1-1.3,0.1-2
			c0-0.7,0-1.4,0-2c0-0.6-0.1-1.3-0.3-2.1c-0.2-0.8-0.4-1.4-0.8-2.1c-0.3-0.6-0.8-1.1-1.4-1.5c-0.6-0.3-1.1-0.4-1.4-0.2
			c-0.3,0.2-0.6,0.6-0.8,1.2c-0.1,0.6-0.2,1.1-0.3,1.7c0,0.6-0.1,1.3-0.1,2c0,0.8,0,1.5,0,2.1c0,0.7,0.1,1.4,0.3,2.1
			c0.2,0.8,0.4,1.4,0.8,2.1c0.4,0.6,0.8,1.1,1.4,1.5c0.6,0.3,1.1,0.4,1.4,0.2c0.4-0.2,0.6-0.6,0.8-1.2
			C433.5,191.6,433.6,191,433.6,190.4"/>
	</g>
	<g>
		<linearGradient id="SVGID_12_" gradientUnits="userSpaceOnUse" x1="437.6965" y1="194.012" x2="448.9353" y2="194.012">
			<stop  offset="0" style="stop-color:#FFFFFF"/>
			<stop  offset="1" style="stop-color:#E6F0FA"/>
		</linearGradient>
		<path class="st11" d="M448.5,192.7c0.3,1.3,0.4,2.8,0.4,4.5c0,1.7-0.2,3.1-0.5,4.1c-0.3,1-0.7,1.8-1.2,2.2
			c-0.5,0.4-1.1,0.6-1.8,0.5c-0.7-0.1-1.4-0.3-2.2-0.8c-0.8-0.5-1.5-1-2.2-1.7c-0.7-0.7-1.3-1.6-1.8-2.6c-0.5-1-0.9-2.2-1.2-3.6
			c-0.3-1.3-0.4-2.9-0.4-4.6c0-1.7,0.2-3,0.4-4c0.3-1,0.7-1.7,1.2-2.1c0.5-0.4,1.1-0.6,1.8-0.5c0.7,0.1,1.4,0.3,2.2,0.8
			c0.8,0.5,1.5,1,2.2,1.8c0.7,0.7,1.3,1.5,1.8,2.5C447.8,190.2,448.2,191.4,448.5,192.7z M445.8,197.4c0.1-0.6,0.1-1.3,0.1-2
			c0-0.7,0-1.4-0.1-2c0-0.6-0.1-1.3-0.3-2.1c-0.1-0.7-0.4-1.4-0.8-2.1c-0.4-0.6-0.8-1.1-1.4-1.5c-0.6-0.3-1.1-0.4-1.4-0.2
			c-0.4,0.2-0.6,0.6-0.8,1.2c-0.2,0.5-0.3,1.1-0.3,1.7c0,0.6-0.1,1.3-0.1,2c0,0.8,0,1.5,0,2.1c0,0.7,0.1,1.4,0.3,2.1
			c0.1,0.7,0.4,1.4,0.8,2.1c0.3,0.6,0.8,1.1,1.4,1.5c0.6,0.3,1.1,0.4,1.4,0.2c0.4-0.2,0.6-0.6,0.8-1.2
			C445.6,198.6,445.7,198.1,445.8,197.4"/>
	</g>
</g>
<linearGradient id="SVGID_13_" gradientUnits="userSpaceOnUse" x1="230.3056" y1="403.2875" x2="230.3056" y2="371.3606">
	<stop  offset="0" style="stop-color:#DDDCF9"/>
	<stop  offset="0.4644" style="stop-color:#FFFFFF"/>
	<stop  offset="0.6428" style="stop-color:#F9F8FE"/>
	<stop  offset="0.8958" style="stop-color:#E6E6FB"/>
	<stop  offset="1" style="stop-color:#DDDCF9"/>
</linearGradient>
<path class="st12" d="M82.6,321.9l112,64.7c20.1,11.6,55.2,10.1,78.3-3.2l135.7-78.4c13.5-7.8,20-15.5,19.1-24.8v-12.9
	c0.7-8-3.7-15.7-13.5-21.3L266,160.2c-20.1-11.6-55.2-10.1-78.3,3.2L51.9,241.8c-12.6,7.3-19.1,16.6-19.2,25.5h0v13.1h0
	c-0.4,7.7,4.1,15,13.5,20.5l17.7,10.2"/>
<linearGradient id="SVGID_14_" gradientUnits="userSpaceOnUse" x1="32.7197" y1="266.8469" x2="427.9246" y2="266.8469">
	<stop  offset="0" style="stop-color:#FFFFFF"/>
	<stop  offset="0.5553" style="stop-color:#FDFDFF"/>
	<stop  offset="0.7554" style="stop-color:#F7F6FE"/>
	<stop  offset="0.8974" style="stop-color:#EBEBFB"/>
	<stop  offset="1" style="stop-color:#DDDCF9"/>
</linearGradient>
<path class="st13" d="M330.7,336.2L273,369.5c-25,14.5-56.4,15.9-78.3,3.2L46.3,287c-20.1-11.6-17.6-31.8,5.6-45.2l135.7-78.4
	c23.2-13.4,58.3-14.8,78.3-3.2l148.4,85.7c20.1,11.6,17.6,31.8-5.6,45.2l-37.9,21.9"/>
<linearGradient id="SVGID_15_" gradientUnits="userSpaceOnUse" x1="191.8786" y1="172.8602" x2="281.0918" y2="172.8602">
	<stop  offset="0" style="stop-color:#2AFADF"/>
	<stop  offset="1" style="stop-color:#94FFE8"/>
</linearGradient>
<path class="st14" d="M281.1,172v-18.1h-7.9v4.4c-1.5-1.3-3.3-2.5-5.2-3.6c-17.1-9.9-44.5-10.1-61.9-0.7h-14.1v18.8h0
	c0,6.6,4.4,13.2,13.2,18.3c17.5,10.1,45.7,10.1,63.1,0.1C277.2,185.9,281.5,178.9,281.1,172z"/>
<radialGradient id="SVGID_16_" cx="236.4959" cy="154.1044" r="36.4149" gradientUnits="userSpaceOnUse">
	<stop  offset="3.378379e-03" style="stop-color:#1E9FCA"/>
	<stop  offset="1" style="stop-color:#1ED4CA"/>
</radialGradient>
<path class="st15" d="M268.1,172.4c-17.4,10-45.6,10-63.1-0.1s-17.6-26.4-0.2-36.4c17.4-10,45.6-10,63.1,0.1
	C285.4,146,285.5,162.3,268.1,172.4z"/>
<linearGradient id="SVGID_17_" gradientUnits="userSpaceOnUse" x1="191.8786" y1="144.795" x2="281.0918" y2="144.795">
	<stop  offset="0" style="stop-color:#2AFADF"/>
	<stop  offset="1" style="stop-color:#94FFE8"/>
</linearGradient>
<path class="st16" d="M281.1,143.9v-18.1h-7.9v4.4c-1.5-1.3-3.3-2.5-5.2-3.6c-17.1-9.9-44.5-10.1-61.9-0.7h-14.1v18.8h0
	c0,6.6,4.4,13.2,13.2,18.3c17.5,10.1,45.7,10.1,63.1,0.1C277.2,157.8,281.5,150.8,281.1,143.9z"/>
<radialGradient id="SVGID_18_" cx="236.4959" cy="126.0391" r="36.4149" gradientUnits="userSpaceOnUse">
	<stop  offset="3.378379e-03" style="stop-color:#1E9FCA"/>
	<stop  offset="1" style="stop-color:#1ED4CA"/>
</radialGradient>
<path class="st17" d="M268.1,144.3c-17.4,10-45.6,10-63.1-0.1s-17.6-26.4-0.2-36.4s45.6-10,63.1,0.1
	C285.4,118,285.5,134.3,268.1,144.3z"/>
<linearGradient id="SVGID_19_" gradientUnits="userSpaceOnUse" x1="191.8786" y1="116.7297" x2="281.0918" y2="116.7297">
	<stop  offset="0" style="stop-color:#2AFADF"/>
	<stop  offset="1" style="stop-color:#94FFE8"/>
</linearGradient>
<path class="st18" d="M281.1,115.9V97.8h-7.9v4.4c-1.5-1.3-3.3-2.5-5.2-3.6c-17.1-9.9-44.5-10.1-61.9-0.7h-14.1v18.8h0
	c0,6.6,4.4,13.2,13.2,18.3c17.5,10.1,45.7,10.1,63.1,0.1C277.2,129.7,281.5,122.8,281.1,115.9z"/>
<path class="st19" d="M198,118.9c1,0.6,1.9,2.1,1.9,3.3c0,1.2-0.8,1.7-1.9,1.1c-1-0.6-1.9-2.1-1.9-3.3
	C196.2,118.8,197,118.3,198,118.9z"/>
<path class="st20" d="M202.9,122.5c1,0.6,1.9,2.1,1.9,3.3c0,1.2-0.8,1.7-1.9,1.1c-1-0.6-1.9-2.1-1.9-3.3
	C201,122.3,201.9,121.8,202.9,122.5z"/>
<path class="st20" d="M208,125.4c1,0.6,1.9,2.1,1.9,3.3c0,1.2-0.8,1.7-1.9,1.1c-1-0.6-1.9-2.1-1.9-3.3
	C206.1,125.3,207,124.8,208,125.4z"/>
<path class="st19" d="M198,147.8c1,0.6,1.9,2.1,1.9,3.3c0,1.2-0.8,1.7-1.9,1.1c-1-0.6-1.9-2.1-1.9-3.3
	C196.2,147.7,197,147.2,198,147.8z"/>
<path class="st20" d="M202.9,151.4c1,0.6,1.9,2.1,1.9,3.3c0,1.2-0.8,1.7-1.9,1.1c-1-0.6-1.9-2.1-1.9-3.3
	C201,151.2,201.9,150.8,202.9,151.4z"/>
<path class="st20" d="M208,154.3c1,0.6,1.9,2.1,1.9,3.3c0,1.2-0.8,1.7-1.9,1.1c-1-0.6-1.9-2.1-1.9-3.3
	C206.1,154.2,207,153.7,208,154.3z"/>
<path class="st19" d="M198,175c1,0.6,1.9,2.1,1.9,3.3c0,1.2-0.8,1.7-1.9,1.1c-1-0.6-1.9-2.1-1.9-3.3C196.2,174.9,197,174.4,198,175z
	"/>
<path class="st20" d="M202.9,178.5c1,0.6,1.9,2.1,1.9,3.3c0,1.2-0.8,1.7-1.9,1.1c-1-0.6-1.9-2.1-1.9-3.3
	C201,178.4,201.9,177.9,202.9,178.5z"/>
<path class="st20" d="M208,181.5c1,0.6,1.9,2.1,1.9,3.3c0,1.2-0.8,1.7-1.9,1.1c-1-0.6-1.9-2.1-1.9-3.3
	C206.1,181.4,207,180.9,208,181.5z"/>
<ellipse transform="matrix(5.422033e-03 -1 1 5.422033e-03 137.2411 333.9351)" class="st21" cx="236.5" cy="98" rx="25.7" ry="44.6"/>
<linearGradient id="SVGID_20_" gradientUnits="userSpaceOnUse" x1="262.7689" y1="243.7505" x2="351.9821" y2="243.7505">
	<stop  offset="0" style="stop-color:#2AFADF"/>
	<stop  offset="1" style="stop-color:#94FFE8"/>
</linearGradient>
<path class="st22" d="M351.9,242.9v-18.1H344v4.4c-1.5-1.3-3.3-2.5-5.2-3.6c-17.1-9.9-44.5-10.1-61.9-0.7h-14.1v18.8h0
	c0,6.6,4.4,13.2,13.2,18.3C293.4,272,321.7,272,339,262C348.1,256.8,352.4,249.8,351.9,242.9z"/>
<radialGradient id="SVGID_21_" cx="307.3862" cy="224.9947" r="36.4149" gradientUnits="userSpaceOnUse">
	<stop  offset="3.378379e-03" style="stop-color:#1E9FCA"/>
	<stop  offset="1" style="stop-color:#1ED4CA"/>
</radialGradient>
<path class="st23" d="M339,243.3c-17.4,10-45.6,10-63.1-0.1s-17.6-26.4-0.2-36.4c17.4-10,45.6-10,63.1,0.1
	C356.3,216.9,356.4,233.2,339,243.3z"/>
<linearGradient id="SVGID_22_" gradientUnits="userSpaceOnUse" x1="262.7689" y1="215.6853" x2="351.9821" y2="215.6853">
	<stop  offset="0" style="stop-color:#2AFADF"/>
	<stop  offset="1" style="stop-color:#94FFE8"/>
</linearGradient>
<path class="st24" d="M351.9,214.8v-18.1H344v4.4c-1.5-1.3-3.3-2.5-5.2-3.6c-17.1-9.9-44.5-10.1-61.9-0.7h-14.1v18.8h0
	c0,6.6,4.4,13.2,13.2,18.3c17.5,10.1,45.7,10.1,63.1,0.1C348.1,228.7,352.4,221.7,351.9,214.8z"/>
<radialGradient id="SVGID_23_" cx="307.3862" cy="196.9295" r="36.4149" gradientUnits="userSpaceOnUse">
	<stop  offset="3.378379e-03" style="stop-color:#1E9FCA"/>
	<stop  offset="1" style="stop-color:#1ED4CA"/>
</radialGradient>
<path class="st25" d="M339,215.2c-17.4,10-45.6,10-63.1-0.1s-17.6-26.4-0.2-36.4c17.4-10,45.6-10,63.1,0.1S356.4,205.2,339,215.2z"
	/>
<linearGradient id="SVGID_24_" gradientUnits="userSpaceOnUse" x1="262.7689" y1="187.6201" x2="351.9821" y2="187.6201">
	<stop  offset="0" style="stop-color:#2AFADF"/>
	<stop  offset="1" style="stop-color:#94FFE8"/>
</linearGradient>
<path class="st26" d="M351.9,186.7v-18.1H344v4.4c-1.5-1.3-3.3-2.5-5.2-3.6c-17.1-9.9-44.5-10.1-61.9-0.7h-14.1v18.8h0
	c0,6.6,4.4,13.2,13.2,18.3c17.5,10.1,45.7,10.1,63.1,0.1C348.1,200.6,352.4,193.6,351.9,186.7z"/>
<path class="st19" d="M268.9,189.8c1,0.6,1.9,2.1,1.9,3.3c0,1.2-0.8,1.7-1.9,1.1c-1-0.6-1.9-2.1-1.9-3.3
	C267.1,189.7,267.9,189.2,268.9,189.8z"/>
<path class="st20" d="M273.8,193.3c1,0.6,1.9,2.1,1.9,3.3c0,1.2-0.8,1.7-1.9,1.1c-1-0.6-1.9-2.1-1.9-3.3
	C271.9,193.2,272.8,192.7,273.8,193.3z"/>
<path class="st20" d="M278.9,196.3c1,0.6,1.9,2.1,1.9,3.3c0,1.2-0.8,1.7-1.9,1.1c-1-0.6-1.9-2.1-1.9-3.3
	C277,196.2,277.9,195.7,278.9,196.3z"/>
<path class="st19" d="M268.9,218.7c1,0.6,1.9,2.1,1.9,3.3c0,1.2-0.8,1.7-1.9,1.1c-1-0.6-1.9-2.1-1.9-3.3
	C267.1,218.6,267.9,218.1,268.9,218.7z"/>
<path class="st20" d="M273.8,222.3c1,0.6,1.9,2.1,1.9,3.3c0,1.2-0.8,1.7-1.9,1.1c-1-0.6-1.9-2.1-1.9-3.3
	C271.9,222.1,272.8,221.6,273.8,222.3z"/>
<path class="st20" d="M278.9,225.2c1,0.6,1.9,2.1,1.9,3.3c0,1.2-0.8,1.7-1.9,1.1c-1-0.6-1.9-2.1-1.9-3.3
	C277,225.1,277.9,224.6,278.9,225.2z"/>
<path class="st19" d="M268.9,245.9c1,0.6,1.9,2.1,1.9,3.3c0,1.2-0.8,1.7-1.9,1.1c-1-0.6-1.9-2.1-1.9-3.3
	C267.1,245.8,267.9,245.3,268.9,245.9z"/>
<path class="st20" d="M273.8,249.4c1,0.6,1.9,2.1,1.9,3.3c0,1.2-0.8,1.7-1.9,1.1c-1-0.6-1.9-2.1-1.9-3.3
	C271.9,249.3,272.8,248.8,273.8,249.4z"/>
<path class="st20" d="M278.9,252.4c1,0.6,1.9,2.1,1.9,3.3c0,1.2-0.8,1.7-1.9,1.1c-1-0.6-1.9-2.1-1.9-3.3
	C277,252.2,277.9,251.8,278.9,252.4z"/>
<ellipse transform="matrix(5.422033e-03 -1 1 5.422033e-03 136.8578 475.3303)" class="st21" cx="307.4" cy="168.9" rx="25.7" ry="44.6"/>
<linearGradient id="SVGID_25_" gradientUnits="userSpaceOnUse" x1="111.8253" y1="247.6197" x2="201.0385" y2="247.6197">
	<stop  offset="0" style="stop-color:#2AFADF"/>
	<stop  offset="1" style="stop-color:#94FFE8"/>
</linearGradient>
<path class="st27" d="M201,246.7v-18.1h-7.9v4.4c-1.5-1.3-3.3-2.5-5.2-3.6c-17.1-9.9-44.5-10.1-61.9-0.7h-14.1v18.8h0
	c0,6.6,4.4,13.2,13.2,18.3c17.5,10.1,45.7,10.1,63.1,0.1C197.2,260.6,201.5,253.6,201,246.7z"/>
<radialGradient id="SVGID_26_" cx="156.4426" cy="228.8638" r="36.4149" gradientUnits="userSpaceOnUse">
	<stop  offset="3.378379e-03" style="stop-color:#1E9FCA"/>
	<stop  offset="1" style="stop-color:#1ED4CA"/>
</radialGradient>
<path class="st28" d="M188.1,247.1c-17.4,10-45.6,10-63.1-0.1c-17.5-10.1-17.6-26.4-0.2-36.4s45.6-10,63.1,0.1
	S205.4,237.1,188.1,247.1z"/>
<linearGradient id="SVGID_27_" gradientUnits="userSpaceOnUse" x1="111.8253" y1="219.5544" x2="201.0385" y2="219.5544">
	<stop  offset="0" style="stop-color:#2AFADF"/>
	<stop  offset="1" style="stop-color:#94FFE8"/>
</linearGradient>
<path class="st29" d="M201,218.7v-18.1h-7.9v4.4c-1.5-1.3-3.3-2.5-5.2-3.6c-17.1-9.9-44.5-10.1-61.9-0.7h-14.1v18.8h0
	c0,6.6,4.4,13.2,13.2,18.3c17.5,10.1,45.7,10.1,63.1,0.1C197.2,232.6,201.5,225.6,201,218.7z"/>
<radialGradient id="SVGID_28_" cx="156.4426" cy="200.7986" r="36.4149" gradientUnits="userSpaceOnUse">
	<stop  offset="3.378379e-03" style="stop-color:#1E9FCA"/>
	<stop  offset="1" style="stop-color:#1ED4CA"/>
</radialGradient>
<path class="st30" d="M188.1,219.1c-17.4,10-45.6,10-63.1-0.1s-17.6-26.4-0.2-36.4c17.4-10,45.6-10,63.1,0.1S205.4,209,188.1,219.1z
	"/>
<linearGradient id="SVGID_29_" gradientUnits="userSpaceOnUse" x1="111.8253" y1="191.4892" x2="201.0385" y2="191.4892">
	<stop  offset="0" style="stop-color:#2AFADF"/>
	<stop  offset="1" style="stop-color:#94FFE8"/>
</linearGradient>
<path class="st31" d="M201,190.6v-18.1h-7.9v4.4c-1.5-1.3-3.3-2.5-5.2-3.6c-17.1-9.9-44.5-10.1-61.9-0.7h-14.1v18.8h0
	c0,6.6,4.4,13.2,13.2,18.3c17.5,10.1,45.7,10.1,63.1,0.1C197.2,204.5,201.5,197.5,201,190.6z"/>
<path class="st19" d="M118,193.7c1,0.6,1.9,2.1,1.9,3.3c0,1.2-0.8,1.7-1.9,1.1c-1-0.6-1.9-2.1-1.9-3.3
	C116.1,193.5,117,193.1,118,193.7z"/>
<path class="st20" d="M122.8,197.2c1,0.6,1.9,2.1,1.9,3.3c0,1.2-0.8,1.7-1.9,1.1c-1-0.6-1.9-2.1-1.9-3.3
	C121,197.1,121.8,196.6,122.8,197.2z"/>
<path class="st20" d="M127.9,200.2c1,0.6,1.9,2.1,1.9,3.3c0,1.2-0.8,1.7-1.9,1.1c-1-0.6-1.9-2.1-1.9-3.3
	C126.1,200,126.9,199.6,127.9,200.2z"/>
<path class="st19" d="M118,222.6c1,0.6,1.9,2.1,1.9,3.3c0,1.2-0.8,1.7-1.9,1.1c-1-0.6-1.9-2.1-1.9-3.3
	C116.1,222.5,117,222,118,222.6z"/>
<path class="st20" d="M122.8,226.1c1,0.6,1.9,2.1,1.9,3.3c0,1.2-0.8,1.7-1.9,1.1c-1-0.6-1.9-2.1-1.9-3.3
	C121,226,121.8,225.5,122.8,226.1z"/>
<path class="st20" d="M127.9,229.1c1,0.6,1.9,2.1,1.9,3.3c0,1.2-0.8,1.7-1.9,1.1c-1-0.6-1.9-2.1-1.9-3.3
	C126.1,228.9,126.9,228.5,127.9,229.1z"/>
<path class="st19" d="M118,249.8c1,0.6,1.9,2.1,1.9,3.3c0,1.2-0.8,1.7-1.9,1.1c-1-0.6-1.9-2.1-1.9-3.3
	C116.1,249.6,117,249.1,118,249.8z"/>
<path class="st20" d="M122.8,253.3c1,0.6,1.9,2.1,1.9,3.3c0,1.2-0.8,1.7-1.9,1.1c-1-0.6-1.9-2.1-1.9-3.3
	C121,253.2,121.8,252.7,122.8,253.3z"/>
<path class="st20" d="M127.9,256.2c1,0.6,1.9,2.1,1.9,3.3c0,1.2-0.8,1.7-1.9,1.1c-1-0.6-1.9-2.1-1.9-3.3
	C126.1,256.1,126.9,255.6,127.9,256.2z"/>
<ellipse transform="matrix(5.422033e-03 -1 1 5.422033e-03 -17.1365 328.237)" class="st21" cx="156.4" cy="172.7" rx="25.7" ry="44.6"/>
<linearGradient id="SVGID_30_" gradientUnits="userSpaceOnUse" x1="182.7156" y1="318.51" x2="271.9288" y2="318.51">
	<stop  offset="0" style="stop-color:#2AFADF"/>
	<stop  offset="1" style="stop-color:#94FFE8"/>
</linearGradient>
<path class="st32" d="M271.9,317.6v-18.1H264v4.4c-1.5-1.3-3.3-2.5-5.2-3.6c-17.1-9.9-44.5-10.1-61.9-0.7h-14.1v18.8h0
	c0,6.6,4.4,13.2,13.2,18.3c17.5,10.1,45.7,10.1,63.1,0.1C268.1,331.5,272.4,324.5,271.9,317.6z"/>
<radialGradient id="SVGID_31_" cx="227.3329" cy="299.7542" r="36.4149" gradientUnits="userSpaceOnUse">
	<stop  offset="3.378379e-03" style="stop-color:#1E9FCA"/>
	<stop  offset="1" style="stop-color:#1ED4CA"/>
</radialGradient>
<path class="st33" d="M259,318c-17.4,10-45.6,10-63.1-0.1c-17.5-10.1-17.6-26.4-0.2-36.4c17.4-10,45.6-10,63.1,0.1
	C276.2,291.7,276.3,308,259,318z"/>
<linearGradient id="SVGID_32_" gradientUnits="userSpaceOnUse" x1="182.7156" y1="290.4448" x2="271.9288" y2="290.4448">
	<stop  offset="0" style="stop-color:#2AFADF"/>
	<stop  offset="1" style="stop-color:#94FFE8"/>
</linearGradient>
<path class="st34" d="M271.9,289.6v-18.1H264v4.4c-1.5-1.3-3.3-2.5-5.2-3.6c-17.1-9.9-44.5-10.1-61.9-0.7h-14.1v18.8h0
	c0,6.6,4.4,13.2,13.2,18.3c17.5,10.1,45.7,10.1,63.1,0.1C268.1,303.5,272.4,296.5,271.9,289.6z"/>
<radialGradient id="SVGID_33_" cx="227.3329" cy="271.6889" r="36.4149" gradientUnits="userSpaceOnUse">
	<stop  offset="3.378379e-03" style="stop-color:#1E9FCA"/>
	<stop  offset="1" style="stop-color:#1ED4CA"/>
</radialGradient>
<path class="st35" d="M259,290c-17.4,10-45.6,10-63.1-0.1c-17.5-10.1-17.6-26.4-0.2-36.4c17.4-10,45.6-10,63.1,0.1
	S276.3,279.9,259,290z"/>
<linearGradient id="SVGID_34_" gradientUnits="userSpaceOnUse" x1="182.7156" y1="262.3795" x2="271.9288" y2="262.3795">
	<stop  offset="0" style="stop-color:#2AFADF"/>
	<stop  offset="1" style="stop-color:#94FFE8"/>
</linearGradient>
<path class="st36" d="M271.9,261.5v-18.1H264v4.4c-1.5-1.3-3.3-2.5-5.2-3.6c-17.1-9.9-44.5-10.1-61.9-0.7h-14.1v18.8h0
	c0,6.6,4.4,13.2,13.2,18.3c17.5,10.1,45.7,10.1,63.1,0.1C268.1,275.4,272.4,268.4,271.9,261.5z"/>
<path class="st19" d="M188.9,264.6c1,0.6,1.9,2.1,1.9,3.3c0,1.2-0.8,1.7-1.9,1.1c-1-0.6-1.9-2.1-1.9-3.3
	C187,264.4,187.9,264,188.9,264.6z"/>
<path class="st20" d="M193.7,268.1c1,0.6,1.9,2.1,1.9,3.3c0,1.2-0.8,1.7-1.9,1.1c-1-0.6-1.9-2.1-1.9-3.3
	C191.9,268,192.7,267.5,193.7,268.1z"/>
<path class="st20" d="M198.8,271.1c1,0.6,1.9,2.1,1.9,3.3c0,1.2-0.8,1.7-1.9,1.1c-1-0.6-1.9-2.1-1.9-3.3
	C197,270.9,197.8,270.4,198.8,271.1z"/>
<path class="st19" d="M188.9,293.5c1,0.6,1.9,2.1,1.9,3.3c0,1.2-0.8,1.7-1.9,1.1c-1-0.6-1.9-2.1-1.9-3.3
	C187,293.3,187.9,292.9,188.9,293.5z"/>
<path class="st20" d="M193.7,297c1,0.6,1.9,2.1,1.9,3.3c0,1.2-0.8,1.7-1.9,1.1c-1-0.6-1.9-2.1-1.9-3.3S192.7,296.4,193.7,297z"/>
<path class="st20" d="M198.8,300c1,0.6,1.9,2.1,1.9,3.3c0,1.2-0.8,1.7-1.9,1.1c-1-0.6-1.9-2.1-1.9-3.3
	C197,299.8,197.8,299.4,198.8,300z"/>
<path class="st19" d="M188.9,320.6c1,0.6,1.9,2.1,1.9,3.3c0,1.2-0.8,1.7-1.9,1.1c-1-0.6-1.9-2.1-1.9-3.3
	C187,320.5,187.9,320,188.9,320.6z"/>
<path class="st20" d="M193.7,324.2c1,0.6,1.9,2.1,1.9,3.3c0,1.2-0.8,1.7-1.9,1.1c-1-0.6-1.9-2.1-1.9-3.3
	C191.9,324.1,192.7,323.6,193.7,324.2z"/>
<path class="st20" d="M198.8,327.1c1,0.6,1.9,2.1,1.9,3.3c0,1.2-0.8,1.7-1.9,1.1c-1-0.6-1.9-2.1-1.9-3.3
	C197,327,197.8,326.5,198.8,327.1z"/>
<ellipse transform="matrix(5.422033e-03 -1 1 5.422033e-03 -17.5198 469.6323)" class="st21" cx="227.3" cy="243.6" rx="25.7" ry="44.6"/>
<linearGradient id="SVGID_35_" gradientUnits="userSpaceOnUse" x1="36.031" y1="228.3414" x2="45.212" y2="228.3414">
	<stop  offset="0" style="stop-color:#FFFFFF"/>
	<stop  offset="1" style="stop-color:#E6F0FA"/>
</linearGradient>
<path class="st37" d="M45.2,238.8l-4.1,2.4v-15L36,229v-3.5c1.6-0.9,3-2.1,4-3.4c1.1-1.3,1.7-2.9,1.9-4.6l3.3-1.9V238.8z"/>
<linearGradient id="SVGID_36_" gradientUnits="userSpaceOnUse" x1="52.0829" y1="219.0732" x2="61.2639" y2="219.0732">
	<stop  offset="0" style="stop-color:#FFFFFF"/>
	<stop  offset="1" style="stop-color:#E6F0FA"/>
</linearGradient>
<path class="st38" d="M61.3,229.5l-4.1,2.4v-15l-5.1,2.9v-3.5c1.6-0.9,3-2.1,4-3.4s1.7-2.9,1.9-4.6l3.3-1.9V229.5z"/>
<linearGradient id="SVGID_37_" gradientUnits="userSpaceOnUse" x1="68.1367" y1="209.8051" x2="77.3177" y2="209.8051">
	<stop  offset="0" style="stop-color:#FFFFFF"/>
	<stop  offset="1" style="stop-color:#E6F0FA"/>
</linearGradient>
<path class="st39" d="M77.3,220.2l-4.1,2.4v-15l-5.1,2.9v-3.5c1.6-0.9,3-2.1,4-3.4c1.1-1.3,1.7-2.9,1.9-4.6l3.3-1.9V220.2z"/>
<linearGradient id="SVGID_38_" gradientUnits="userSpaceOnUse" x1="84.1906" y1="200.5369" x2="93.3716" y2="200.5369">
	<stop  offset="0" style="stop-color:#FFFFFF"/>
	<stop  offset="1" style="stop-color:#E6F0FA"/>
</linearGradient>
<path class="st40" d="M93.4,210.9l-4.1,2.4v-15l-5.1,2.9v-3.5c1.6-0.9,3-2.1,4-3.4c1.1-1.3,1.7-2.9,1.9-4.6l3.3-1.9V210.9z"/>
<linearGradient id="SVGID_39_" gradientUnits="userSpaceOnUse" x1="98.7129" y1="191.9831" x2="113.5543" y2="191.9831">
	<stop  offset="0" style="stop-color:#FFFFFF"/>
	<stop  offset="1" style="stop-color:#E6F0FA"/>
</linearGradient>
<path class="st41" d="M99.3,190.2c0.4-1.8,0.9-3.3,1.6-4.6c0.7-1.3,1.5-2.4,2.3-3.4c0.9-0.9,1.8-1.7,2.9-2.3c1.1-0.6,2-1,2.9-1.1
	c0.9-0.1,1.7,0.1,2.4,0.7c0.7,0.5,1.2,1.5,1.6,2.8c0.4,1.3,0.6,3.1,0.6,5.3c0,2.2-0.2,4.2-0.6,6c-0.4,1.8-0.9,3.4-1.6,4.7
	s-1.5,2.5-2.4,3.4c-0.9,0.9-1.9,1.7-2.9,2.3c-1,0.6-2,0.9-2.9,1c-0.9,0.1-1.7-0.1-2.3-0.7c-0.7-0.5-1.2-1.5-1.6-2.9
	c-0.4-1.4-0.6-3.2-0.6-5.4C98.7,194,98.9,192,99.3,190.2z M102.9,196.5c0,0.8,0.2,1.6,0.4,2.3c0.2,0.7,0.5,1.3,1,1.6
	c0.5,0.3,1.1,0.2,1.8-0.2c0.8-0.5,1.4-1.1,1.9-2c0.5-0.8,0.8-1.8,1-2.7c0.2-1,0.3-1.9,0.4-2.8c0-0.9,0.1-1.8,0.1-2.8
	c0-0.9,0-1.8-0.1-2.6c0-0.8-0.2-1.5-0.4-2.3c-0.2-0.7-0.5-1.3-1-1.6c-0.5-0.3-1.1-0.2-1.9,0.2c-0.8,0.4-1.4,1.1-1.8,1.9
	c-0.5,0.8-0.8,1.7-1,2.7c-0.2,1-0.3,1.9-0.4,2.7c0,0.8-0.1,1.7-0.1,2.7C102.8,194.8,102.8,195.7,102.9,196.5z"/>
<linearGradient id="SVGID_40_" gradientUnits="userSpaceOnUse" x1="116.2983" y1="181.9996" x2="125.4792" y2="181.9996">
	<stop  offset="0" style="stop-color:#FFFFFF"/>
	<stop  offset="1" style="stop-color:#E6F0FA"/>
</linearGradient>
<path class="st42" d="M125.5,192.4l-4.1,2.4v-15l-5.1,2.9v-3.5c1.6-0.9,3-2.1,4-3.4c1.1-1.3,1.7-2.9,1.9-4.6l3.3-1.9V192.4z"/>
<linearGradient id="SVGID_41_" gradientUnits="userSpaceOnUse" x1="130.8206" y1="173.4452" x2="145.662" y2="173.4452">
	<stop  offset="0" style="stop-color:#FFFFFF"/>
	<stop  offset="1" style="stop-color:#E6F0FA"/>
</linearGradient>
<path class="st43" d="M131.4,171.7c0.4-1.8,0.9-3.3,1.6-4.6c0.7-1.3,1.5-2.4,2.3-3.4c0.9-0.9,1.8-1.7,2.9-2.3c1.1-0.6,2-1,2.9-1.1
	c0.9-0.1,1.7,0.1,2.4,0.7c0.7,0.5,1.2,1.5,1.6,2.8c0.4,1.3,0.6,3.1,0.6,5.3c0,2.2-0.2,4.2-0.6,6c-0.4,1.8-0.9,3.4-1.6,4.7
	c-0.7,1.3-1.5,2.5-2.4,3.4c-0.9,0.9-1.9,1.7-2.9,2.3c-1,0.6-2,0.9-2.9,1c-0.9,0.1-1.7-0.1-2.3-0.7c-0.7-0.6-1.2-1.5-1.6-2.9
	c-0.4-1.4-0.6-3.2-0.6-5.4C130.8,175.4,131,173.5,131.4,171.7z M135,178c0,0.8,0.2,1.6,0.4,2.3c0.2,0.7,0.5,1.3,1,1.6
	c0.5,0.3,1.1,0.2,1.8-0.2c0.8-0.5,1.4-1.1,1.9-2c0.5-0.8,0.8-1.8,1-2.7c0.2-1,0.3-1.9,0.4-2.8c0-0.9,0.1-1.8,0.1-2.8
	c0-0.9,0-1.8-0.1-2.6c0-0.8-0.2-1.5-0.4-2.3c-0.2-0.7-0.5-1.3-1-1.6c-0.5-0.3-1.1-0.2-1.9,0.2c-0.8,0.4-1.4,1.1-1.8,1.9
	c-0.5,0.8-0.8,1.7-1,2.7c-0.2,1-0.3,1.9-0.4,2.7c0,0.8-0.1,1.7-0.1,2.7C134.9,176.3,134.9,177.2,135,178z"/>
<linearGradient id="SVGID_42_" gradientUnits="userSpaceOnUse" x1="148.404" y1="163.4633" x2="157.5869" y2="163.4633">
	<stop  offset="0" style="stop-color:#FFFFFF"/>
	<stop  offset="1" style="stop-color:#E6F0FA"/>
</linearGradient>
<path class="st44" d="M157.6,173.9l-4.1,2.4v-15l-5.1,2.9v-3.5c1.6-0.9,3-2.1,4-3.4c1.1-1.3,1.7-2.9,1.9-4.6l3.3-1.9V173.9z"/>
<linearGradient id="SVGID_43_" gradientUnits="userSpaceOnUse" x1="162.9283" y1="154.9085" x2="177.7677" y2="154.9085">
	<stop  offset="0" style="stop-color:#FFFFFF"/>
	<stop  offset="1" style="stop-color:#E6F0FA"/>
</linearGradient>
<path class="st45" d="M163.5,153.2c0.4-1.8,0.9-3.3,1.6-4.6c0.7-1.3,1.5-2.4,2.3-3.4c0.9-0.9,1.8-1.7,2.9-2.3c1.1-0.6,2-1,2.9-1.1
	c0.9-0.1,1.7,0.1,2.4,0.7c0.7,0.5,1.2,1.5,1.6,2.8c0.4,1.3,0.6,3.1,0.6,5.3c0,2.2-0.2,4.2-0.6,6c-0.4,1.8-0.9,3.4-1.6,4.7
	c-0.7,1.3-1.5,2.5-2.4,3.4c-0.9,0.9-1.9,1.7-2.9,2.3c-1,0.6-2,0.9-2.9,1c-0.9,0.1-1.7-0.1-2.3-0.7s-1.2-1.5-1.6-2.9
	c-0.4-1.4-0.6-3.2-0.6-5.4C162.9,156.9,163.1,154.9,163.5,153.2z M167.1,159.4c0,0.8,0.2,1.6,0.4,2.3c0.2,0.7,0.5,1.3,1,1.6
	c0.5,0.3,1.1,0.2,1.8-0.2c0.8-0.5,1.4-1.1,1.9-2c0.5-0.8,0.8-1.8,1-2.7s0.3-1.9,0.4-2.8c0-0.9,0.1-1.8,0.1-2.8c0-0.9,0-1.8-0.1-2.6
	c0-0.8-0.2-1.5-0.4-2.3c-0.2-0.7-0.5-1.3-1-1.6c-0.5-0.3-1.1-0.2-1.9,0.2c-0.8,0.4-1.4,1.1-1.8,1.9c-0.5,0.8-0.8,1.7-1,2.7
	c-0.2,1-0.3,1.9-0.4,2.7c0,0.8-0.1,1.7-0.1,2.7C167,157.7,167.1,158.6,167.1,159.4z"/>
<linearGradient id="SVGID_44_" gradientUnits="userSpaceOnUse" x1="180.5117" y1="144.926" x2="189.6926" y2="144.926">
	<stop  offset="0" style="stop-color:#FFFFFF"/>
	<stop  offset="1" style="stop-color:#E6F0FA"/>
</linearGradient>
<path class="st46" d="M189.7,155.3l-4.1,2.4v-15l-5.1,2.9v-3.5c1.6-0.9,3-2.1,4-3.4c1.1-1.3,1.7-2.9,1.9-4.6l3.3-1.9V155.3z"/>
<linearGradient id="SVGID_45_" gradientUnits="userSpaceOnUse" x1="195.036" y1="136.3722" x2="209.8754" y2="136.3722">
	<stop  offset="0" style="stop-color:#FFFFFF"/>
	<stop  offset="1" style="stop-color:#E6F0FA"/>
</linearGradient>
<path class="st47" d="M195.6,134.6c0.4-1.8,0.9-3.3,1.6-4.6c0.7-1.3,1.5-2.4,2.3-3.4c0.9-0.9,1.9-1.7,2.9-2.3c1.1-0.6,2-1,2.9-1.1
	c0.9-0.1,1.7,0.1,2.4,0.7c0.7,0.5,1.2,1.5,1.6,2.8c0.4,1.3,0.6,3.1,0.6,5.3c0,2.2-0.2,4.2-0.6,6c-0.4,1.8-0.9,3.4-1.6,4.7
	c-0.7,1.3-1.5,2.5-2.4,3.4c-0.9,0.9-1.9,1.7-2.9,2.3c-1,0.6-2,0.9-2.9,1c-0.9,0.1-1.7-0.1-2.3-0.7c-0.7-0.6-1.2-1.5-1.6-2.9
	c-0.4-1.4-0.6-3.2-0.6-5.4C195,138.4,195.2,136.4,195.6,134.6z M199.2,140.9c0,0.8,0.2,1.6,0.4,2.3c0.2,0.7,0.5,1.3,1,1.6
	c0.5,0.3,1.1,0.2,1.8-0.2c0.8-0.5,1.4-1.1,1.9-2c0.5-0.8,0.8-1.8,1-2.7c0.2-1,0.3-1.9,0.4-2.8c0-0.9,0.1-1.8,0.1-2.8
	c0-1,0-1.8-0.1-2.6c0-0.8-0.2-1.5-0.4-2.3c-0.2-0.7-0.5-1.3-1-1.6c-0.5-0.3-1.1-0.2-1.9,0.2c-0.8,0.4-1.4,1.1-1.8,1.9
	c-0.5,0.8-0.8,1.7-1,2.7s-0.3,1.9-0.4,2.7c0,0.8-0.1,1.7-0.1,2.7C199.1,139.2,199.2,140.1,199.2,140.9z"/>
<linearGradient id="SVGID_46_" gradientUnits="userSpaceOnUse" x1="259.0917" y1="24.5516" x2="268.2727" y2="24.5516">
	<stop  offset="0" style="stop-color:#FFFFFF"/>
	<stop  offset="1" style="stop-color:#E6F0FA"/>
</linearGradient>
<path class="st48" d="M268.3,35l-4.1,2.4v-15l-5.1,2.9v-3.5c1.6-0.9,3-2.1,4-3.4c1.1-1.3,1.7-2.9,1.9-4.6l3.3-1.9V35z"/>
<linearGradient id="SVGID_47_" gradientUnits="userSpaceOnUse" x1="273.6141" y1="15.9978" x2="288.4554" y2="15.9978">
	<stop  offset="0" style="stop-color:#FFFFFF"/>
	<stop  offset="1" style="stop-color:#E6F0FA"/>
</linearGradient>
<path class="st49" d="M274.2,14.3c0.4-1.8,0.9-3.3,1.6-4.6c0.7-1.3,1.5-2.4,2.3-3.4C279,5.3,280,4.6,281,4c1.1-0.6,2-1,2.9-1.1
	c0.9-0.1,1.7,0.1,2.4,0.7c0.7,0.5,1.2,1.5,1.6,2.8c0.4,1.3,0.6,3.1,0.6,5.3c0,2.2-0.2,4.2-0.6,6c-0.4,1.8-0.9,3.4-1.6,4.7
	s-1.5,2.5-2.4,3.4c-0.9,0.9-1.9,1.7-2.9,2.3c-1,0.6-2,0.9-2.9,1c-0.9,0.1-1.7-0.1-2.3-0.7c-0.7-0.6-1.2-1.5-1.6-2.9
	c-0.4-1.4-0.6-3.2-0.6-5.4C273.6,18,273.8,16,274.2,14.3z M277.8,20.5c0,0.8,0.2,1.6,0.4,2.3c0.2,0.7,0.5,1.3,1,1.6
	c0.5,0.3,1.1,0.2,1.8-0.2c0.8-0.5,1.4-1.1,1.9-2c0.5-0.8,0.8-1.8,1-2.7c0.2-1,0.3-1.9,0.4-2.8c0-0.9,0.1-1.8,0.1-2.8
	c0-0.9,0-1.8-0.1-2.6c0-0.8-0.2-1.5-0.4-2.3c-0.2-0.7-0.5-1.3-1-1.6c-0.5-0.3-1.1-0.2-1.9,0.2c-0.8,0.4-1.4,1.1-1.8,1.9
	c-0.5,0.8-0.8,1.7-1,2.7c-0.2,1-0.3,1.9-0.4,2.7c0,0.8-0.1,1.7-0.1,2.7C277.7,18.8,277.7,19.7,277.8,20.5z"/>
<g>
	<linearGradient id="SVGID_48_" gradientUnits="userSpaceOnUse" x1="35.9761" y1="188.1003" x2="40.5015" y2="188.1003">
		<stop  offset="0" style="stop-color:#FFFFFF"/>
		<stop  offset="1" style="stop-color:#E6F0FA"/>
	</linearGradient>
	<path class="st50" d="M40.5,193.2l-2,1.2V187l-2.5,1.4v-1.7c0.8-0.5,1.5-1,2-1.7s0.8-1.4,0.9-2.3l1.6-0.9V193.2z"/>
	<linearGradient id="SVGID_49_" gradientUnits="userSpaceOnUse" x1="43.8892" y1="183.5319" x2="48.4146" y2="183.5319">
		<stop  offset="0" style="stop-color:#FFFFFF"/>
		<stop  offset="1" style="stop-color:#E6F0FA"/>
	</linearGradient>
	<path class="st51" d="M48.4,188.7l-2,1.2v-7.4l-2.5,1.4v-1.7c0.8-0.5,1.5-1,2-1.7c0.5-0.7,0.8-1.4,0.9-2.3l1.6-0.9V188.7z"/>
	<linearGradient id="SVGID_50_" gradientUnits="userSpaceOnUse" x1="51.8023" y1="178.9636" x2="56.3277" y2="178.9636">
		<stop  offset="0" style="stop-color:#FFFFFF"/>
		<stop  offset="1" style="stop-color:#E6F0FA"/>
	</linearGradient>
	<path class="st52" d="M56.3,184.1l-2,1.2v-7.4l-2.5,1.4v-1.7c0.8-0.5,1.5-1,2-1.7c0.5-0.7,0.8-1.4,0.9-2.3l1.6-0.9V184.1z"/>
	<linearGradient id="SVGID_51_" gradientUnits="userSpaceOnUse" x1="58.9605" y1="174.747" x2="66.2759" y2="174.747">
		<stop  offset="0" style="stop-color:#FFFFFF"/>
		<stop  offset="1" style="stop-color:#E6F0FA"/>
	</linearGradient>
	<path class="st53" d="M59.2,173.9c0.2-0.9,0.4-1.6,0.8-2.3c0.3-0.6,0.7-1.2,1.2-1.7c0.4-0.5,0.9-0.8,1.4-1.1c0.5-0.3,1-0.5,1.4-0.5
		c0.4,0,0.8,0.1,1.2,0.3c0.3,0.3,0.6,0.7,0.8,1.4c0.2,0.7,0.3,1.5,0.3,2.6c0,1.1-0.1,2.1-0.3,3c-0.2,0.9-0.5,1.7-0.8,2.3
		c-0.3,0.7-0.7,1.2-1.2,1.7c-0.4,0.5-0.9,0.8-1.4,1.1c-0.5,0.3-1,0.5-1.4,0.5c-0.4,0-0.8-0.1-1.2-0.3c-0.3-0.3-0.6-0.7-0.8-1.4
		c-0.2-0.7-0.3-1.6-0.3-2.7C59,175.7,59.1,174.8,59.2,173.9z M61,177c0,0.4,0.1,0.8,0.2,1.1c0.1,0.4,0.3,0.6,0.5,0.8
		s0.5,0.1,0.9-0.1c0.4-0.2,0.7-0.5,0.9-1c0.2-0.4,0.4-0.9,0.5-1.3c0.1-0.5,0.2-0.9,0.2-1.4c0-0.4,0-0.9,0-1.4c0-0.5,0-0.9,0-1.3
		c0-0.4-0.1-0.8-0.2-1.1c-0.1-0.4-0.3-0.6-0.5-0.8c-0.2-0.1-0.5-0.1-0.9,0.1c-0.4,0.2-0.7,0.5-0.9,0.9s-0.4,0.9-0.5,1.3
		c-0.1,0.5-0.2,0.9-0.2,1.3c0,0.4,0,0.9,0,1.3C61,176.1,61,176.6,61,177z"/>
	<linearGradient id="SVGID_52_" gradientUnits="userSpaceOnUse" x1="66.8726" y1="170.1787" x2="74.189" y2="170.1787">
		<stop  offset="0" style="stop-color:#FFFFFF"/>
		<stop  offset="1" style="stop-color:#E6F0FA"/>
	</linearGradient>
	<path class="st54" d="M67.2,169.3c0.2-0.9,0.5-1.6,0.8-2.3c0.3-0.6,0.7-1.2,1.2-1.7s0.9-0.8,1.4-1.1c0.5-0.3,1-0.5,1.4-0.5
		c0.4,0,0.8,0.1,1.2,0.3c0.3,0.3,0.6,0.7,0.8,1.4c0.2,0.7,0.3,1.5,0.3,2.6c0,1.1-0.1,2.1-0.3,3s-0.5,1.7-0.8,2.3
		c-0.3,0.7-0.7,1.2-1.2,1.7c-0.4,0.5-0.9,0.8-1.4,1.1c-0.5,0.3-1,0.5-1.4,0.5c-0.4,0-0.8-0.1-1.2-0.3c-0.3-0.3-0.6-0.7-0.8-1.4
		s-0.3-1.6-0.3-2.7C66.9,171.2,67,170.2,67.2,169.3z M68.9,172.4c0,0.4,0.1,0.8,0.2,1.1s0.3,0.6,0.5,0.8s0.5,0.1,0.9-0.1
		c0.4-0.2,0.7-0.5,0.9-1c0.2-0.4,0.4-0.9,0.5-1.3s0.2-0.9,0.2-1.4c0-0.4,0-0.9,0-1.4c0-0.5,0-0.9,0-1.3c0-0.4-0.1-0.8-0.2-1.1
		c-0.1-0.4-0.3-0.6-0.5-0.8c-0.2-0.1-0.5-0.1-0.9,0.1c-0.4,0.2-0.7,0.5-0.9,0.9s-0.4,0.9-0.5,1.3s-0.2,0.9-0.2,1.3
		c0,0.4,0,0.9,0,1.3C68.9,171.6,68.9,172,68.9,172.4z"/>
	<linearGradient id="SVGID_53_" gradientUnits="userSpaceOnUse" x1="75.5406" y1="165.258" x2="80.066" y2="165.258">
		<stop  offset="0" style="stop-color:#FFFFFF"/>
		<stop  offset="1" style="stop-color:#E6F0FA"/>
	</linearGradient>
	<path class="st55" d="M80.1,170.4l-2,1.2v-7.4l-2.5,1.4v-1.7c0.8-0.5,1.5-1,2-1.7c0.5-0.7,0.8-1.4,0.9-2.3l1.6-0.9V170.4z"/>
	<linearGradient id="SVGID_54_" gradientUnits="userSpaceOnUse" x1="83.4537" y1="160.6892" x2="87.98" y2="160.6892">
		<stop  offset="0" style="stop-color:#FFFFFF"/>
		<stop  offset="1" style="stop-color:#E6F0FA"/>
	</linearGradient>
	<path class="st56" d="M88,165.8l-2,1.2v-7.4l-2.5,1.4v-1.7c0.8-0.5,1.5-1,2-1.7c0.5-0.7,0.8-1.4,0.9-2.3l1.6-0.9V165.8z"/>
	<linearGradient id="SVGID_55_" gradientUnits="userSpaceOnUse" x1="90.6119" y1="156.4729" x2="97.9273" y2="156.4729">
		<stop  offset="0" style="stop-color:#FFFFFF"/>
		<stop  offset="1" style="stop-color:#E6F0FA"/>
	</linearGradient>
	<path class="st57" d="M90.9,155.6c0.2-0.9,0.5-1.6,0.8-2.3c0.3-0.7,0.7-1.2,1.2-1.7c0.4-0.5,0.9-0.8,1.4-1.1c0.5-0.3,1-0.5,1.4-0.5
		c0.4,0,0.8,0.1,1.2,0.3c0.3,0.3,0.6,0.7,0.8,1.4c0.2,0.7,0.3,1.5,0.3,2.6c0,1.1-0.1,2.1-0.3,3c-0.2,0.9-0.5,1.7-0.8,2.3
		c-0.3,0.7-0.7,1.2-1.2,1.7c-0.4,0.5-0.9,0.8-1.4,1.1c-0.5,0.3-1,0.5-1.4,0.5c-0.4,0-0.8-0.1-1.2-0.3s-0.6-0.7-0.8-1.4
		c-0.2-0.7-0.3-1.6-0.3-2.7C90.6,157.5,90.7,156.5,90.9,155.6z M92.7,158.7c0,0.4,0.1,0.8,0.2,1.1s0.3,0.6,0.5,0.8
		c0.2,0.2,0.5,0.1,0.9-0.1c0.4-0.2,0.7-0.5,0.9-1c0.2-0.4,0.4-0.9,0.5-1.3s0.2-0.9,0.2-1.4c0-0.4,0-0.9,0-1.4c0-0.5,0-0.9,0-1.3
		c0-0.4-0.1-0.8-0.2-1.1c-0.1-0.4-0.3-0.6-0.5-0.8s-0.5-0.1-0.9,0.1c-0.4,0.2-0.7,0.5-0.9,0.9c-0.2,0.4-0.4,0.9-0.5,1.3
		c-0.1,0.5-0.2,0.9-0.2,1.3c0,0.4,0,0.9,0,1.3C92.6,157.9,92.6,158.3,92.7,158.7z"/>
	<linearGradient id="SVGID_56_" gradientUnits="userSpaceOnUse" x1="99.2788" y1="151.5524" x2="103.8052" y2="151.5524">
		<stop  offset="0" style="stop-color:#FFFFFF"/>
		<stop  offset="1" style="stop-color:#E6F0FA"/>
	</linearGradient>
	<path class="st58" d="M103.8,156.7l-2,1.2v-7.4l-2.5,1.4v-1.7c0.8-0.5,1.5-1,2-1.7c0.5-0.7,0.8-1.4,0.9-2.3l1.6-0.9V156.7z"/>
	<linearGradient id="SVGID_57_" gradientUnits="userSpaceOnUse" x1="106.438" y1="147.3362" x2="113.7535" y2="147.3362">
		<stop  offset="0" style="stop-color:#FFFFFF"/>
		<stop  offset="1" style="stop-color:#E6F0FA"/>
	</linearGradient>
	<path class="st59" d="M106.7,146.5c0.2-0.9,0.5-1.6,0.8-2.3c0.3-0.7,0.7-1.2,1.2-1.7c0.4-0.5,0.9-0.8,1.4-1.1
		c0.5-0.3,1-0.5,1.4-0.5c0.4,0,0.8,0.1,1.2,0.3c0.3,0.3,0.6,0.7,0.8,1.4c0.2,0.7,0.3,1.5,0.3,2.6c0,1.1-0.1,2.1-0.3,3
		s-0.5,1.7-0.8,2.3c-0.3,0.7-0.7,1.2-1.2,1.7c-0.4,0.5-0.9,0.8-1.4,1.1c-0.5,0.3-1,0.5-1.4,0.5c-0.4,0-0.8-0.1-1.2-0.3
		c-0.3-0.3-0.6-0.7-0.8-1.4c-0.2-0.7-0.3-1.6-0.3-2.7C106.4,148.3,106.5,147.3,106.7,146.5z M108.5,149.6c0,0.4,0.1,0.8,0.2,1.1
		c0.1,0.4,0.3,0.6,0.5,0.8c0.2,0.2,0.5,0.1,0.9-0.1c0.4-0.2,0.7-0.5,0.9-1c0.2-0.4,0.4-0.9,0.5-1.3s0.2-0.9,0.2-1.4
		c0-0.4,0-0.9,0-1.4c0-0.5,0-0.9,0-1.3c0-0.4-0.1-0.8-0.2-1.1s-0.3-0.6-0.5-0.8c-0.2-0.1-0.5-0.1-0.9,0.1c-0.4,0.2-0.7,0.5-0.9,0.9
		c-0.2,0.4-0.4,0.9-0.5,1.3s-0.2,0.9-0.2,1.3c0,0.4,0,0.9,0,1.3C108.5,148.7,108.5,149.2,108.5,149.6z"/>
	<linearGradient id="SVGID_58_" gradientUnits="userSpaceOnUse" x1="115.105" y1="142.4157" x2="119.6304" y2="142.4157">
		<stop  offset="0" style="stop-color:#FFFFFF"/>
		<stop  offset="1" style="stop-color:#E6F0FA"/>
	</linearGradient>
	<path class="st60" d="M119.6,147.5l-2,1.2v-7.4l-2.5,1.4V141c0.8-0.5,1.5-1,2-1.7c0.5-0.7,0.8-1.4,0.9-2.3l1.6-0.9V147.5z"/>
	<linearGradient id="SVGID_59_" gradientUnits="userSpaceOnUse" x1="123.0191" y1="137.8464" x2="127.5445" y2="137.8464">
		<stop  offset="0" style="stop-color:#FFFFFF"/>
		<stop  offset="1" style="stop-color:#E6F0FA"/>
	</linearGradient>
	<path class="st61" d="M127.5,143l-2,1.2v-7.4l-2.5,1.4v-1.7c0.8-0.5,1.5-1,2-1.7c0.5-0.7,0.8-1.4,0.9-2.3l1.6-0.9V143z"/>
	<linearGradient id="SVGID_60_" gradientUnits="userSpaceOnUse" x1="130.9312" y1="133.278" x2="135.4566" y2="133.278">
		<stop  offset="0" style="stop-color:#FFFFFF"/>
		<stop  offset="1" style="stop-color:#E6F0FA"/>
	</linearGradient>
	<path class="st62" d="M135.5,138.4l-2,1.2v-7.4l-2.5,1.4v-1.7c0.8-0.5,1.5-1,2-1.7c0.5-0.7,0.8-1.4,0.9-2.3l1.6-0.9V138.4z"/>
	<linearGradient id="SVGID_61_" gradientUnits="userSpaceOnUse" x1="138.0894" y1="129.0618" x2="145.4048" y2="129.0618">
		<stop  offset="0" style="stop-color:#FFFFFF"/>
		<stop  offset="1" style="stop-color:#E6F0FA"/>
	</linearGradient>
	<path class="st63" d="M138.4,128.2c0.2-0.9,0.5-1.6,0.8-2.3c0.3-0.6,0.7-1.2,1.2-1.7c0.4-0.5,0.9-0.8,1.4-1.1
		c0.5-0.3,1-0.5,1.4-0.5c0.4,0,0.8,0.1,1.2,0.3c0.3,0.3,0.6,0.7,0.8,1.4s0.3,1.5,0.3,2.6c0,1.1-0.1,2.1-0.3,3s-0.5,1.7-0.8,2.3
		s-0.7,1.2-1.2,1.7c-0.4,0.5-0.9,0.8-1.4,1.1c-0.5,0.3-1,0.5-1.4,0.5c-0.4,0-0.8-0.1-1.2-0.3c-0.3-0.3-0.6-0.7-0.8-1.4
		c-0.2-0.7-0.3-1.6-0.3-2.7C138.1,130,138.2,129.1,138.4,128.2z M140.1,131.3c0,0.4,0.1,0.8,0.2,1.1c0.1,0.4,0.3,0.6,0.5,0.8
		c0.2,0.2,0.5,0.1,0.9-0.1c0.4-0.2,0.7-0.5,0.9-1c0.2-0.4,0.4-0.9,0.5-1.3s0.2-0.9,0.2-1.4c0-0.4,0-0.9,0-1.4c0-0.5,0-0.9,0-1.3
		c0-0.4-0.1-0.8-0.2-1.1c-0.1-0.4-0.3-0.6-0.5-0.8c-0.2-0.1-0.5-0.1-0.9,0.1c-0.4,0.2-0.7,0.5-0.9,0.9c-0.2,0.4-0.4,0.9-0.5,1.3
		s-0.2,0.9-0.2,1.3c0,0.4,0,0.9,0,1.3C140.1,130.4,140.1,130.9,140.1,131.3z"/>
	<linearGradient id="SVGID_62_" gradientUnits="userSpaceOnUse" x1="146.7574" y1="124.1413" x2="151.2828" y2="124.1413">
		<stop  offset="0" style="stop-color:#FFFFFF"/>
		<stop  offset="1" style="stop-color:#E6F0FA"/>
	</linearGradient>
	<path class="st64" d="M151.3,129.3l-2,1.2V123l-2.5,1.4v-1.7c0.8-0.5,1.5-1,2-1.7c0.5-0.7,0.8-1.4,0.9-2.3l1.6-0.9V129.3z"/>
	<linearGradient id="SVGID_63_" gradientUnits="userSpaceOnUse" x1="153.9156" y1="119.9251" x2="161.23" y2="119.9251">
		<stop  offset="0" style="stop-color:#FFFFFF"/>
		<stop  offset="1" style="stop-color:#E6F0FA"/>
	</linearGradient>
	<path class="st65" d="M154.2,119.1c0.2-0.9,0.4-1.6,0.8-2.3c0.3-0.6,0.7-1.2,1.2-1.7c0.4-0.5,0.9-0.8,1.4-1.1
		c0.5-0.3,1-0.5,1.4-0.5c0.4,0,0.8,0.1,1.2,0.3c0.3,0.3,0.6,0.7,0.8,1.4c0.2,0.7,0.3,1.5,0.3,2.6c0,1.1-0.1,2.1-0.3,3
		c-0.2,0.9-0.5,1.7-0.8,2.3s-0.7,1.2-1.2,1.7s-0.9,0.8-1.4,1.1c-0.5,0.3-1,0.5-1.4,0.5c-0.4,0-0.8-0.1-1.2-0.3
		c-0.3-0.3-0.6-0.7-0.8-1.4c-0.2-0.7-0.3-1.6-0.3-2.7C153.9,120.9,154,119.9,154.2,119.1z M156,122.1c0,0.4,0.1,0.8,0.2,1.1
		c0.1,0.4,0.3,0.6,0.5,0.8s0.5,0.1,0.9-0.1c0.4-0.2,0.7-0.5,0.9-1c0.2-0.4,0.4-0.9,0.5-1.3c0.1-0.5,0.2-0.9,0.2-1.4
		c0-0.4,0-0.9,0-1.4c0-0.5,0-0.9,0-1.3c0-0.4-0.1-0.8-0.2-1.1c-0.1-0.4-0.3-0.6-0.5-0.8c-0.2-0.1-0.5-0.1-0.9,0.1
		c-0.4,0.2-0.7,0.5-0.9,0.9s-0.4,0.9-0.5,1.3c-0.1,0.5-0.2,0.9-0.2,1.3c0,0.4,0,0.9,0,1.3C155.9,121.3,155.9,121.8,156,122.1z"/>
	<linearGradient id="SVGID_64_" gradientUnits="userSpaceOnUse" x1="162.5835" y1="115.0041" x2="167.1089" y2="115.0041">
		<stop  offset="0" style="stop-color:#FFFFFF"/>
		<stop  offset="1" style="stop-color:#E6F0FA"/>
	</linearGradient>
	<path class="st66" d="M167.1,120.1l-2,1.2v-7.4l-2.5,1.4v-1.7c0.8-0.5,1.5-1,2-1.7c0.5-0.7,0.8-1.4,0.9-2.3l1.6-0.9V120.1z"/>
	<linearGradient id="SVGID_65_" gradientUnits="userSpaceOnUse" x1="169.7417" y1="110.788" x2="177.0562" y2="110.788">
		<stop  offset="0" style="stop-color:#FFFFFF"/>
		<stop  offset="1" style="stop-color:#E6F0FA"/>
	</linearGradient>
	<path class="st67" d="M170,109.9c0.2-0.9,0.5-1.6,0.8-2.3s0.7-1.2,1.2-1.7s0.9-0.8,1.4-1.1c0.5-0.3,1-0.5,1.4-0.5
		c0.4,0,0.8,0.1,1.2,0.3c0.3,0.3,0.6,0.7,0.8,1.4c0.2,0.7,0.3,1.5,0.3,2.6c0,1.1-0.1,2.1-0.3,3c-0.2,0.9-0.5,1.7-0.8,2.3
		c-0.3,0.7-0.7,1.2-1.2,1.7c-0.4,0.5-0.9,0.8-1.4,1.1c-0.5,0.3-1,0.5-1.4,0.5c-0.4,0-0.8-0.1-1.2-0.3c-0.3-0.3-0.6-0.7-0.8-1.4
		c-0.2-0.7-0.3-1.6-0.3-2.7C169.7,111.8,169.8,110.8,170,109.9z M171.8,113c0,0.4,0.1,0.8,0.2,1.1s0.3,0.6,0.5,0.8
		c0.2,0.2,0.5,0.1,0.9-0.1c0.4-0.2,0.7-0.5,0.9-1c0.2-0.4,0.4-0.9,0.5-1.3c0.1-0.5,0.2-0.9,0.2-1.4c0-0.4,0-0.9,0-1.4
		c0-0.5,0-0.9,0-1.3s-0.1-0.8-0.2-1.1c-0.1-0.4-0.3-0.6-0.5-0.8c-0.2-0.1-0.5-0.1-0.9,0.1c-0.4,0.2-0.7,0.5-0.9,0.9
		c-0.2,0.4-0.4,0.9-0.5,1.3s-0.2,0.9-0.2,1.3c0,0.4,0,0.9,0,1.3C171.8,112.2,171.8,112.6,171.8,113z"/>
	<linearGradient id="SVGID_66_" gradientUnits="userSpaceOnUse" x1="178.4087" y1="105.8674" x2="182.9341" y2="105.8674">
		<stop  offset="0" style="stop-color:#FFFFFF"/>
		<stop  offset="1" style="stop-color:#E6F0FA"/>
	</linearGradient>
	<path class="st68" d="M182.9,111l-2,1.2v-7.4l-2.5,1.4v-1.7c0.8-0.5,1.5-1,2-1.7c0.5-0.7,0.8-1.4,0.9-2.3l1.6-0.9V111z"/>
</g>
<g>
	<linearGradient id="SVGID_67_" gradientUnits="userSpaceOnUse" x1="161.7596" y1="51.8081" x2="166.285" y2="51.8081">
		<stop  offset="0" style="stop-color:#FFFFFF"/>
		<stop  offset="1" style="stop-color:#E6F0FA"/>
	</linearGradient>
	<path class="st69" d="M166.3,56.9l-2,1.2v-7.4l-2.5,1.4v-1.7c0.8-0.5,1.5-1,2-1.7c0.5-0.7,0.8-1.4,0.9-2.3l1.6-0.9V56.9z"/>
	<linearGradient id="SVGID_68_" gradientUnits="userSpaceOnUse" x1="169.6727" y1="47.2392" x2="174.1981" y2="47.2392">
		<stop  offset="0" style="stop-color:#FFFFFF"/>
		<stop  offset="1" style="stop-color:#E6F0FA"/>
	</linearGradient>
	<path class="st70" d="M174.2,52.4l-2,1.2v-7.4l-2.5,1.4v-1.7c0.8-0.5,1.5-1,2-1.7c0.5-0.7,0.8-1.4,0.9-2.3l1.6-0.9V52.4z"/>
	<linearGradient id="SVGID_69_" gradientUnits="userSpaceOnUse" x1="177.5858" y1="42.6709" x2="182.1111" y2="42.6709">
		<stop  offset="0" style="stop-color:#FFFFFF"/>
		<stop  offset="1" style="stop-color:#E6F0FA"/>
	</linearGradient>
	<path class="st71" d="M182.1,47.8l-2,1.2v-7.4l-2.5,1.4v-1.7c0.8-0.5,1.5-1,2-1.7c0.5-0.7,0.8-1.4,0.9-2.3l1.6-0.9V47.8z"/>
	<linearGradient id="SVGID_70_" gradientUnits="userSpaceOnUse" x1="184.744" y1="38.4543" x2="192.0594" y2="38.4543">
		<stop  offset="0" style="stop-color:#FFFFFF"/>
		<stop  offset="1" style="stop-color:#E6F0FA"/>
	</linearGradient>
	<path class="st72" d="M185,37.6c0.2-0.9,0.5-1.6,0.8-2.3c0.3-0.6,0.7-1.2,1.2-1.7c0.4-0.5,0.9-0.8,1.4-1.1c0.5-0.3,1-0.5,1.4-0.5
		c0.4,0,0.8,0.1,1.2,0.3c0.3,0.3,0.6,0.7,0.8,1.4c0.2,0.7,0.3,1.5,0.3,2.6c0,1.1-0.1,2.1-0.3,3c-0.2,0.9-0.5,1.7-0.8,2.3
		c-0.3,0.7-0.7,1.2-1.2,1.7c-0.4,0.5-0.9,0.8-1.4,1.1c-0.5,0.3-1,0.5-1.4,0.5c-0.4,0-0.8-0.1-1.2-0.3s-0.6-0.7-0.8-1.4
		c-0.2-0.7-0.3-1.6-0.3-2.7C184.7,39.4,184.8,38.5,185,37.6z M186.8,40.7c0,0.4,0.1,0.8,0.2,1.1s0.3,0.6,0.5,0.8
		c0.2,0.2,0.5,0.1,0.9-0.1c0.4-0.2,0.7-0.5,0.9-1s0.4-0.9,0.5-1.3s0.2-0.9,0.2-1.4c0-0.4,0-0.9,0-1.4c0-0.5,0-0.9,0-1.3
		c0-0.4-0.1-0.8-0.2-1.1c-0.1-0.4-0.3-0.6-0.5-0.8c-0.2-0.1-0.5-0.1-0.9,0.1c-0.4,0.2-0.7,0.5-0.9,0.9c-0.2,0.4-0.4,0.9-0.5,1.3
		s-0.2,0.9-0.2,1.3c0,0.4,0,0.9,0,1.3C186.8,39.8,186.8,40.3,186.8,40.7z"/>
	<linearGradient id="SVGID_71_" gradientUnits="userSpaceOnUse" x1="192.657" y1="33.886" x2="199.9725" y2="33.886">
		<stop  offset="0" style="stop-color:#FFFFFF"/>
		<stop  offset="1" style="stop-color:#E6F0FA"/>
	</linearGradient>
	<path class="st73" d="M192.9,33c0.2-0.9,0.5-1.6,0.8-2.3c0.3-0.6,0.7-1.2,1.2-1.7s0.9-0.8,1.4-1.1c0.5-0.3,1-0.5,1.4-0.5
		c0.4,0,0.8,0.1,1.2,0.3c0.3,0.3,0.6,0.7,0.8,1.4c0.2,0.7,0.3,1.5,0.3,2.6c0,1.1-0.1,2.1-0.3,3c-0.2,0.9-0.5,1.7-0.8,2.3
		c-0.3,0.7-0.7,1.2-1.2,1.7c-0.4,0.5-0.9,0.8-1.4,1.1c-0.5,0.3-1,0.5-1.4,0.5c-0.4,0-0.8-0.1-1.2-0.3s-0.6-0.7-0.8-1.4
		s-0.3-1.6-0.3-2.7C192.7,34.9,192.8,33.9,192.9,33z M194.7,36.1c0,0.4,0.1,0.8,0.2,1.1s0.3,0.6,0.5,0.8c0.2,0.2,0.5,0.1,0.9-0.1
		c0.4-0.2,0.7-0.5,0.9-1s0.4-0.9,0.5-1.3s0.2-0.9,0.2-1.4c0-0.4,0-0.9,0-1.4c0-0.5,0-0.9,0-1.3c0-0.4-0.1-0.8-0.2-1.1
		c-0.1-0.4-0.3-0.6-0.5-0.8c-0.2-0.1-0.5-0.1-0.9,0.1c-0.4,0.2-0.7,0.5-0.9,0.9c-0.2,0.4-0.4,0.9-0.5,1.3c-0.1,0.5-0.2,0.9-0.2,1.3
		c0,0.4,0,0.9,0,1.3C194.7,35.3,194.7,35.7,194.7,36.1z"/>
	<linearGradient id="SVGID_72_" gradientUnits="userSpaceOnUse" x1="200.5701" y1="29.3174" x2="207.8846" y2="29.3174">
		<stop  offset="0" style="stop-color:#FFFFFF"/>
		<stop  offset="1" style="stop-color:#E6F0FA"/>
	</linearGradient>
	<path class="st74" d="M200.9,28.5c0.2-0.9,0.5-1.6,0.8-2.3c0.3-0.7,0.7-1.2,1.2-1.7s0.9-0.8,1.4-1.1c0.5-0.3,1-0.5,1.4-0.5
		c0.4,0,0.8,0.1,1.2,0.3c0.3,0.3,0.6,0.7,0.8,1.4c0.2,0.7,0.3,1.5,0.3,2.6c0,1.1-0.1,2.1-0.3,3c-0.2,0.9-0.5,1.7-0.8,2.3
		c-0.3,0.7-0.7,1.2-1.2,1.7c-0.4,0.5-0.9,0.8-1.4,1.1c-0.5,0.3-1,0.5-1.4,0.5c-0.4,0-0.8-0.1-1.2-0.3s-0.6-0.7-0.8-1.4
		c-0.2-0.7-0.3-1.6-0.3-2.7C200.6,30.3,200.7,29.3,200.9,28.5z M202.6,31.5c0,0.4,0.1,0.8,0.2,1.1s0.3,0.6,0.5,0.8
		c0.2,0.2,0.5,0.1,0.9-0.1c0.4-0.2,0.7-0.5,0.9-1c0.2-0.4,0.4-0.9,0.5-1.3c0.1-0.5,0.2-0.9,0.2-1.4c0-0.4,0-0.9,0-1.4
		c0-0.5,0-0.9,0-1.3c0-0.4-0.1-0.8-0.2-1.1c-0.1-0.4-0.3-0.6-0.5-0.8c-0.2-0.1-0.5-0.1-0.9,0.1c-0.4,0.2-0.7,0.5-0.9,0.9
		c-0.2,0.4-0.4,0.9-0.5,1.3c-0.1,0.5-0.2,0.9-0.2,1.3c0,0.4,0,0.9,0,1.3C202.6,30.7,202.6,31.1,202.6,31.5z"/>
	<linearGradient id="SVGID_73_" gradientUnits="userSpaceOnUse" x1="209.2381" y1="24.3969" x2="213.7635" y2="24.3969">
		<stop  offset="0" style="stop-color:#FFFFFF"/>
		<stop  offset="1" style="stop-color:#E6F0FA"/>
	</linearGradient>
	<path class="st75" d="M213.8,29.5l-2,1.2v-7.4l-2.5,1.4V23c0.8-0.5,1.5-1,2-1.7c0.5-0.7,0.8-1.4,0.9-2.3l1.6-0.9V29.5z"/>
	<linearGradient id="SVGID_74_" gradientUnits="userSpaceOnUse" x1="216.3963" y1="20.1807" x2="223.7108" y2="20.1807">
		<stop  offset="0" style="stop-color:#FFFFFF"/>
		<stop  offset="1" style="stop-color:#E6F0FA"/>
	</linearGradient>
	<path class="st76" d="M216.7,19.3c0.2-0.9,0.5-1.6,0.8-2.3c0.3-0.7,0.7-1.2,1.2-1.7c0.4-0.5,0.9-0.8,1.4-1.1c0.5-0.3,1-0.5,1.4-0.5
		c0.4,0,0.8,0.1,1.2,0.3c0.3,0.3,0.6,0.7,0.8,1.4c0.2,0.7,0.3,1.5,0.3,2.6c0,1.1-0.1,2.1-0.3,3s-0.5,1.7-0.8,2.3
		c-0.3,0.7-0.7,1.2-1.2,1.7c-0.4,0.5-0.9,0.8-1.4,1.1c-0.5,0.3-1,0.5-1.4,0.5c-0.4,0-0.8-0.1-1.2-0.3c-0.3-0.3-0.6-0.7-0.8-1.4
		c-0.2-0.7-0.3-1.6-0.3-2.7C216.4,21.2,216.5,20.2,216.7,19.3z M218.5,22.4c0,0.4,0.1,0.8,0.2,1.1c0.1,0.4,0.3,0.6,0.5,0.8
		c0.2,0.2,0.5,0.1,0.9-0.1c0.4-0.2,0.7-0.5,0.9-1c0.2-0.4,0.4-0.9,0.5-1.3c0.1-0.5,0.2-0.9,0.2-1.4c0-0.4,0-0.9,0-1.4
		c0-0.5,0-0.9,0-1.3c0-0.4-0.1-0.8-0.2-1.1c-0.1-0.4-0.3-0.6-0.5-0.8c-0.2-0.1-0.5-0.1-0.9,0.1c-0.4,0.2-0.7,0.5-0.9,0.9
		c-0.2,0.4-0.4,0.9-0.5,1.3c-0.1,0.5-0.2,0.9-0.2,1.3c0,0.4,0,0.9,0,1.3C218.4,21.6,218.4,22,218.5,22.4z"/>
	<linearGradient id="SVGID_75_" gradientUnits="userSpaceOnUse" x1="225.0633" y1="15.2602" x2="229.5887" y2="15.2602">
		<stop  offset="0" style="stop-color:#FFFFFF"/>
		<stop  offset="1" style="stop-color:#E6F0FA"/>
	</linearGradient>
	<path class="st77" d="M229.6,20.4l-2,1.2v-7.4l-2.5,1.4v-1.7c0.8-0.5,1.5-1,2-1.7c0.5-0.7,0.8-1.4,0.9-2.3l1.6-0.9V20.4z"/>
	<linearGradient id="SVGID_76_" gradientUnits="userSpaceOnUse" x1="232.2215" y1="11.0438" x2="239.5369" y2="11.0438">
		<stop  offset="0" style="stop-color:#FFFFFF"/>
		<stop  offset="1" style="stop-color:#E6F0FA"/>
	</linearGradient>
	<path class="st78" d="M232.5,10.2c0.2-0.9,0.5-1.6,0.8-2.3s0.7-1.2,1.2-1.7c0.4-0.5,0.9-0.8,1.4-1.1c0.5-0.3,1-0.5,1.4-0.5
		c0.4-0.1,0.8,0.1,1.2,0.3c0.3,0.3,0.6,0.7,0.8,1.4c0.2,0.7,0.3,1.5,0.3,2.6c0,1.1-0.1,2.1-0.3,3s-0.5,1.7-0.8,2.3
		c-0.3,0.7-0.7,1.2-1.2,1.7c-0.4,0.5-0.9,0.8-1.4,1.1c-0.5,0.3-1,0.5-1.4,0.5c-0.4,0-0.8-0.1-1.2-0.3c-0.3-0.3-0.6-0.7-0.8-1.4
		c-0.2-0.7-0.3-1.6-0.3-2.7C232.2,12,232.3,11.1,232.5,10.2z M234.3,13.3c0,0.4,0.1,0.8,0.2,1.1s0.3,0.6,0.5,0.8
		c0.2,0.2,0.5,0.1,0.9-0.1c0.4-0.2,0.7-0.5,0.9-1c0.2-0.4,0.4-0.9,0.5-1.3s0.2-0.9,0.2-1.4c0-0.4,0-0.9,0-1.4c0-0.5,0-0.9,0-1.3
		c0-0.4-0.1-0.8-0.2-1.1c-0.1-0.4-0.3-0.6-0.5-0.8c-0.2-0.1-0.5-0.1-0.9,0.1c-0.4,0.2-0.7,0.5-0.9,0.9c-0.2,0.4-0.4,0.9-0.5,1.3
		s-0.2,0.9-0.2,1.3c0,0.4,0,0.9,0,1.3C234.2,12.4,234.3,12.9,234.3,13.3z"/>
	<linearGradient id="SVGID_77_" gradientUnits="userSpaceOnUse" x1="240.1346" y1="6.475" x2="247.449" y2="6.475">
		<stop  offset="0" style="stop-color:#FFFFFF"/>
		<stop  offset="1" style="stop-color:#E6F0FA"/>
	</linearGradient>
	<path class="st79" d="M240.4,5.6c0.2-0.9,0.4-1.6,0.8-2.3c0.3-0.6,0.7-1.2,1.2-1.7c0.4-0.5,0.9-0.8,1.4-1.1c0.5-0.3,1-0.5,1.4-0.5
		c0.4,0,0.8,0.1,1.2,0.3c0.3,0.3,0.6,0.7,0.8,1.4c0.2,0.7,0.3,1.5,0.3,2.6c0,1.1-0.1,2.1-0.3,3c-0.2,0.9-0.5,1.7-0.8,2.3
		c-0.3,0.7-0.7,1.2-1.2,1.7c-0.4,0.5-0.9,0.8-1.4,1.1c-0.5,0.3-1,0.5-1.4,0.5c-0.4,0-0.8-0.1-1.2-0.3c-0.3-0.3-0.6-0.7-0.8-1.4
		c-0.2-0.7-0.3-1.6-0.3-2.7C240.1,7.5,240.2,6.5,240.4,5.6z M242.2,8.7c0,0.4,0.1,0.8,0.2,1.1c0.1,0.4,0.3,0.6,0.5,0.8
		c0.2,0.2,0.5,0.1,0.9-0.1c0.4-0.2,0.7-0.5,0.9-1c0.2-0.4,0.4-0.9,0.5-1.3c0.1-0.5,0.2-0.9,0.2-1.4c0-0.4,0-0.9,0-1.4
		c0-0.5,0-0.9,0-1.3c0-0.4-0.1-0.8-0.2-1.1c-0.1-0.4-0.3-0.6-0.5-0.8c-0.2-0.1-0.5-0.1-0.9,0.1c-0.4,0.2-0.7,0.5-0.9,0.9
		c-0.2,0.4-0.4,0.9-0.5,1.3c-0.1,0.5-0.2,0.9-0.2,1.3c0,0.4,0,0.9,0,1.3C242.2,7.9,242.2,8.3,242.2,8.7z"/>
</g>
<g>
	<linearGradient id="SVGID_78_" gradientUnits="userSpaceOnUse" x1="0" y1="173.9579" x2="9.6611" y2="173.9579">
		<stop  offset="0" style="stop-color:#FFFFFF"/>
		<stop  offset="1" style="stop-color:#E6F0FA"/>
	</linearGradient>
	<path class="st80" d="M9.7,184.9l-4.3,2.5v-15.8L0,174.7v-3.7c1.7-1,3.1-2.2,4.3-3.6c1.1-1.4,1.8-3,2-4.8l3.4-2V184.9z"/>
	<linearGradient id="SVGID_79_" gradientUnits="userSpaceOnUse" x1="15.2818" y1="164.9562" x2="30.8992" y2="164.9562">
		<stop  offset="0" style="stop-color:#FFFFFF"/>
		<stop  offset="1" style="stop-color:#E6F0FA"/>
	</linearGradient>
	<path class="st81" d="M15.9,163.1c0.4-1.9,1-3.5,1.7-4.9c0.7-1.4,1.5-2.6,2.5-3.5c0.9-1,1.9-1.8,3-2.4c1.1-0.6,2.1-1,3.1-1.1
		c0.9-0.1,1.8,0.1,2.5,0.7c0.7,0.6,1.3,1.6,1.7,3c0.4,1.4,0.6,3.2,0.6,5.5c0,2.3-0.2,4.5-0.6,6.4c-0.4,1.9-1,3.5-1.7,4.9
		c-0.7,1.4-1.5,2.6-2.5,3.6c-0.9,1-2,1.8-3.1,2.4c-1.1,0.6-2.1,1-3,1.1c-0.9,0.1-1.8-0.1-2.5-0.7c-0.7-0.6-1.3-1.6-1.7-3
		c-0.4-1.4-0.6-3.3-0.6-5.7C15.3,167.1,15.5,165,15.9,163.1z M19.7,169.7c0.1,0.8,0.2,1.7,0.4,2.4c0.2,0.8,0.6,1.3,1,1.7
		c0.5,0.3,1.1,0.3,1.9-0.2c0.8-0.5,1.5-1.2,2-2.1c0.5-0.9,0.8-1.8,1.1-2.9c0.2-1,0.3-2,0.4-2.9c0.1-0.9,0.1-1.9,0.1-2.9
		c0-1,0-1.9-0.1-2.7c-0.1-0.8-0.2-1.6-0.4-2.4c-0.2-0.8-0.6-1.3-1.1-1.6c-0.5-0.3-1.1-0.2-2,0.2c-0.8,0.5-1.5,1.1-1.9,2
		c-0.5,0.9-0.8,1.8-1,2.8s-0.3,2-0.4,2.8c-0.1,0.9-0.1,1.8-0.1,2.8C19.6,167.9,19.6,168.9,19.7,169.7z"/>
	<linearGradient id="SVGID_80_" gradientUnits="userSpaceOnUse" x1="33.7846" y1="154.4512" x2="43.4477" y2="154.4512">
		<stop  offset="0" style="stop-color:#FFFFFF"/>
		<stop  offset="1" style="stop-color:#E6F0FA"/>
	</linearGradient>
	<path class="st82" d="M43.4,165.4l-4.3,2.5v-15.8l-5.3,3.1v-3.7c1.7-1,3.1-2.2,4.3-3.6c1.1-1.4,1.8-3,2-4.8l3.4-2V165.4z"/>
	<linearGradient id="SVGID_81_" gradientUnits="userSpaceOnUse" x1="49.0684" y1="145.4495" x2="64.6838" y2="145.4495">
		<stop  offset="0" style="stop-color:#FFFFFF"/>
		<stop  offset="1" style="stop-color:#E6F0FA"/>
	</linearGradient>
	<path class="st83" d="M49.7,143.6c0.4-1.9,1-3.5,1.7-4.9c0.7-1.4,1.5-2.6,2.5-3.5c0.9-1,1.9-1.8,3-2.4c1.1-0.6,2.1-1,3.1-1.1
		c0.9-0.1,1.8,0.1,2.5,0.7c0.7,0.6,1.3,1.6,1.7,3c0.4,1.4,0.6,3.2,0.6,5.5c0,2.3-0.2,4.5-0.6,6.4c-0.4,1.9-1,3.5-1.7,4.9
		c-0.7,1.4-1.5,2.6-2.5,3.6c-0.9,1-2,1.8-3.1,2.4c-1.1,0.6-2.1,1-3,1.1c-0.9,0.1-1.8-0.1-2.5-0.7c-0.7-0.6-1.3-1.6-1.7-3
		c-0.4-1.4-0.6-3.3-0.6-5.7C49.1,147.6,49.3,145.5,49.7,143.6z M53.5,150.2c0.1,0.8,0.2,1.7,0.4,2.4c0.2,0.8,0.6,1.3,1,1.7
		c0.5,0.3,1.1,0.3,1.9-0.2c0.8-0.5,1.5-1.2,2-2.1c0.5-0.9,0.9-1.8,1.1-2.9c0.2-1,0.3-2,0.4-2.9c0.1-0.9,0.1-1.9,0.1-2.9
		c0-1,0-1.9-0.1-2.7c-0.1-0.8-0.2-1.6-0.4-2.4c-0.2-0.8-0.6-1.3-1.1-1.6c-0.5-0.3-1.1-0.2-2,0.3c-0.8,0.5-1.5,1.1-1.9,2
		c-0.5,0.9-0.8,1.8-1,2.8c-0.2,1-0.3,2-0.4,2.8c-0.1,0.9-0.1,1.8-0.1,2.8C53.4,148.4,53.4,149.4,53.5,150.2z"/>
	<linearGradient id="SVGID_82_" gradientUnits="userSpaceOnUse" x1="67.5712" y1="134.9456" x2="77.2323" y2="134.9456">
		<stop  offset="0" style="stop-color:#FFFFFF"/>
		<stop  offset="1" style="stop-color:#E6F0FA"/>
	</linearGradient>
	<path class="st84" d="M77.2,145.9l-4.3,2.5v-15.8l-5.3,3.1v-3.7c1.7-1,3.1-2.2,4.3-3.6c1.1-1.4,1.8-3,2-4.8l3.4-2V145.9z"/>
	<linearGradient id="SVGID_83_" gradientUnits="userSpaceOnUse" x1="82.8551" y1="125.9435" x2="98.4704" y2="125.9435">
		<stop  offset="0" style="stop-color:#FFFFFF"/>
		<stop  offset="1" style="stop-color:#E6F0FA"/>
	</linearGradient>
	<path class="st85" d="M83.5,124.1c0.4-1.9,1-3.5,1.7-4.9c0.7-1.4,1.5-2.6,2.5-3.5c0.9-1,1.9-1.8,3-2.4c1.1-0.6,2.1-1,3.1-1.1
		c0.9-0.1,1.8,0.1,2.5,0.7c0.7,0.6,1.3,1.6,1.7,3c0.4,1.4,0.6,3.2,0.6,5.5c0,2.3-0.2,4.5-0.6,6.4c-0.4,1.9-1,3.5-1.7,4.9
		c-0.7,1.4-1.5,2.6-2.5,3.6c-0.9,1-2,1.8-3.1,2.4c-1.1,0.6-2.1,1-3,1.1c-0.9,0.1-1.8-0.1-2.5-0.7c-0.7-0.6-1.3-1.6-1.7-3
		c-0.4-1.4-0.6-3.3-0.6-5.7C82.9,128,83.1,126,83.5,124.1z M87.2,130.7c0.1,0.8,0.2,1.7,0.4,2.4c0.2,0.8,0.6,1.3,1.1,1.7
		c0.5,0.3,1.1,0.3,1.9-0.2c0.8-0.5,1.5-1.2,2-2.1c0.5-0.9,0.9-1.9,1.1-2.9c0.2-1,0.3-2,0.4-2.9c0.1-0.9,0.1-1.9,0.1-2.9
		c0-1,0-1.9-0.1-2.7c-0.1-0.8-0.2-1.6-0.4-2.4c-0.2-0.8-0.6-1.3-1.1-1.6s-1.1-0.2-2,0.3c-0.8,0.5-1.5,1.1-1.9,2
		c-0.5,0.9-0.8,1.8-1.1,2.8c-0.2,1-0.3,2-0.4,2.8c-0.1,0.9-0.1,1.8-0.1,2.8C87.2,128.9,87.2,129.8,87.2,130.7z"/>
	<linearGradient id="SVGID_84_" gradientUnits="userSpaceOnUse" x1="99.7463" y1="116.1907" x2="115.3637" y2="116.1907">
		<stop  offset="0" style="stop-color:#FFFFFF"/>
		<stop  offset="1" style="stop-color:#E6F0FA"/>
	</linearGradient>
	<path class="st86" d="M100.4,114.4c0.4-1.9,1-3.5,1.7-4.9c0.7-1.4,1.5-2.6,2.5-3.5c0.9-1,1.9-1.8,3-2.4c1.1-0.6,2.1-1,3.1-1.1
		c0.9-0.1,1.8,0.1,2.5,0.7c0.7,0.6,1.3,1.6,1.7,3c0.4,1.4,0.6,3.2,0.6,5.5c0,2.3-0.2,4.5-0.6,6.4c-0.4,1.9-1,3.5-1.7,4.9
		c-0.7,1.4-1.5,2.6-2.5,3.6c-0.9,1-2,1.8-3.1,2.4c-1.1,0.6-2.1,1-3,1.1c-0.9,0.1-1.8-0.1-2.5-0.7c-0.7-0.6-1.3-1.6-1.7-3
		c-0.4-1.4-0.6-3.3-0.6-5.7C99.7,118.3,100,116.2,100.4,114.4z M104.1,120.9c0.1,0.8,0.2,1.7,0.4,2.4c0.2,0.8,0.6,1.3,1,1.7
		c0.5,0.3,1.1,0.3,1.9-0.2c0.8-0.5,1.5-1.2,2-2.1c0.5-0.9,0.9-1.8,1.1-2.9c0.2-1,0.3-2,0.4-2.9c0-0.9,0.1-1.9,0.1-2.9
		c0-1,0-1.9-0.1-2.7c-0.1-0.8-0.2-1.6-0.4-2.4c-0.2-0.8-0.6-1.3-1.1-1.6c-0.5-0.3-1.1-0.2-2,0.2c-0.8,0.5-1.5,1.1-1.9,2
		c-0.5,0.9-0.8,1.8-1,2.8s-0.3,2-0.4,2.8c-0.1,0.9-0.1,1.8-0.1,2.8C104.1,119.2,104.1,120.1,104.1,120.9z"/>
	<linearGradient id="SVGID_85_" gradientUnits="userSpaceOnUse" x1="116.6397" y1="106.4379" x2="132.2571" y2="106.4379">
		<stop  offset="0" style="stop-color:#FFFFFF"/>
		<stop  offset="1" style="stop-color:#E6F0FA"/>
	</linearGradient>
	<path class="st87" d="M117.2,104.6c0.4-1.9,1-3.5,1.7-4.9c0.7-1.4,1.5-2.6,2.5-3.5c0.9-1,1.9-1.8,3-2.4c1.1-0.6,2.1-1,3.1-1.1
		c0.9-0.1,1.8,0.1,2.5,0.7c0.7,0.6,1.3,1.6,1.7,3c0.4,1.4,0.6,3.2,0.6,5.5c0,2.3-0.2,4.5-0.6,6.4c-0.4,1.9-1,3.5-1.7,4.9
		c-0.7,1.4-1.5,2.6-2.5,3.6c-0.9,1-2,1.8-3.1,2.4c-1.1,0.6-2.1,1-3,1.1c-0.9,0.1-1.8-0.1-2.5-0.7c-0.7-0.6-1.3-1.6-1.7-3
		c-0.4-1.4-0.6-3.3-0.6-5.7C116.6,108.5,116.8,106.5,117.2,104.6z M121,111.2c0.1,0.8,0.2,1.7,0.4,2.4c0.2,0.8,0.6,1.3,1,1.7
		c0.5,0.3,1.1,0.3,1.9-0.2c0.8-0.5,1.5-1.2,2-2.1c0.5-0.9,0.9-1.8,1.1-2.9c0.2-1,0.3-2,0.4-2.9c0.1-0.9,0.1-1.9,0.1-2.9
		c0-1,0-1.9-0.1-2.7c-0.1-0.8-0.2-1.6-0.4-2.4c-0.2-0.8-0.6-1.3-1.1-1.6c-0.5-0.3-1.1-0.2-2,0.2c-0.8,0.5-1.5,1.1-1.9,2
		c-0.5,0.9-0.8,1.8-1,2.8c-0.2,1-0.3,2-0.4,2.8c-0.1,0.9-0.1,1.8-0.1,2.8C121,109.4,121,110.3,121,111.2z"/>
	<linearGradient id="SVGID_86_" gradientUnits="userSpaceOnUse" x1="133.533" y1="96.6847" x2="149.1483" y2="96.6847">
		<stop  offset="0" style="stop-color:#FFFFFF"/>
		<stop  offset="1" style="stop-color:#E6F0FA"/>
	</linearGradient>
	<path class="st88" d="M134.1,94.8c0.4-1.9,1-3.5,1.7-4.9c0.7-1.4,1.5-2.6,2.5-3.5s1.9-1.8,3-2.4c1.1-0.6,2.1-1,3.1-1.1
		c0.9-0.1,1.8,0.1,2.5,0.7c0.7,0.6,1.3,1.6,1.7,3c0.4,1.4,0.6,3.2,0.6,5.5c0,2.3-0.2,4.5-0.6,6.4c-0.4,1.9-1,3.5-1.7,4.9
		c-0.7,1.4-1.5,2.6-2.5,3.6c-0.9,1-2,1.8-3.1,2.4c-1.1,0.6-2.1,1-3,1.1c-0.9,0.1-1.8-0.1-2.5-0.7c-0.7-0.6-1.3-1.6-1.7-3
		c-0.4-1.4-0.6-3.3-0.6-5.7C133.5,98.8,133.7,96.7,134.1,94.8z M137.9,101.4c0.1,0.8,0.2,1.7,0.4,2.4c0.2,0.8,0.6,1.3,1,1.7
		c0.5,0.3,1.1,0.3,1.9-0.2c0.8-0.5,1.5-1.2,2-2.1c0.5-0.9,0.9-1.8,1.1-2.9c0.2-1,0.3-2,0.4-2.9c0-0.9,0.1-1.9,0.1-2.9
		c0-1,0-1.9-0.1-2.7c-0.1-0.8-0.2-1.6-0.4-2.4c-0.2-0.8-0.6-1.3-1.1-1.6c-0.5-0.3-1.1-0.2-2,0.3c-0.8,0.5-1.5,1.1-1.9,2
		c-0.5,0.9-0.8,1.8-1,2.8c-0.2,1-0.3,2-0.4,2.8c-0.1,0.9-0.1,1.8-0.1,2.8C137.8,99.6,137.9,100.6,137.9,101.4z"/>
	<linearGradient id="SVGID_87_" gradientUnits="userSpaceOnUse" x1="202.7158" y1="56.92" x2="212.3769" y2="56.92">
		<stop  offset="0" style="stop-color:#FFFFFF"/>
		<stop  offset="1" style="stop-color:#E6F0FA"/>
	</linearGradient>
	<path class="st89" d="M212.4,67.9l-4.3,2.5V54.5l-5.3,3.1v-3.7c1.7-1,3.1-2.2,4.3-3.6c1.1-1.4,1.8-3,2-4.8l3.4-2V67.9z"/>
	<linearGradient id="SVGID_88_" gradientUnits="userSpaceOnUse" x1="217.9975" y1="47.9189" x2="233.615" y2="47.9189">
		<stop  offset="0" style="stop-color:#FFFFFF"/>
		<stop  offset="1" style="stop-color:#E6F0FA"/>
	</linearGradient>
	<path class="st90" d="M218.6,46.1c0.4-1.9,1-3.5,1.7-4.9c0.7-1.4,1.5-2.6,2.5-3.5c0.9-1,1.9-1.8,3-2.4c1.1-0.6,2.1-1,3.1-1.1
		c0.9-0.1,1.8,0.1,2.5,0.7c0.7,0.6,1.3,1.6,1.7,3c0.4,1.4,0.6,3.2,0.6,5.5c0,2.3-0.2,4.5-0.6,6.4c-0.4,1.9-1,3.5-1.7,4.9
		c-0.7,1.4-1.5,2.6-2.5,3.6c-0.9,1-2,1.8-3.1,2.4c-1.1,0.6-2.1,1-3,1.1c-0.9,0.1-1.8-0.1-2.5-0.7c-0.7-0.6-1.3-1.6-1.7-3
		c-0.4-1.4-0.6-3.3-0.6-5.7C218,50,218.2,47.9,218.6,46.1z M222.4,52.7c0.1,0.8,0.2,1.7,0.4,2.4c0.2,0.8,0.6,1.3,1,1.7
		c0.5,0.3,1.1,0.3,1.9-0.2c0.8-0.5,1.5-1.2,2-2.1c0.5-0.9,0.8-1.9,1.1-2.9c0.2-1,0.3-2,0.4-2.9c0.1-0.9,0.1-1.9,0.1-2.9
		c0-1,0-1.9-0.1-2.7c-0.1-0.8-0.2-1.6-0.4-2.4c-0.2-0.8-0.6-1.3-1.1-1.6c-0.5-0.3-1.1-0.2-2,0.3c-0.8,0.5-1.5,1.1-1.9,2
		s-0.8,1.8-1,2.8c-0.2,1-0.3,2-0.4,2.8c-0.1,0.9-0.1,1.8-0.1,2.8C222.3,50.9,222.3,51.8,222.4,52.7z"/>
	<linearGradient id="SVGID_89_" gradientUnits="userSpaceOnUse" x1="234.8888" y1="38.1661" x2="250.5083" y2="38.1661">
		<stop  offset="0" style="stop-color:#FFFFFF"/>
		<stop  offset="1" style="stop-color:#E6F0FA"/>
	</linearGradient>
	<path class="st91" d="M235.5,36.3c0.4-1.9,1-3.5,1.7-4.9c0.7-1.4,1.5-2.6,2.5-3.5c0.9-1,1.9-1.8,3-2.4c1.1-0.6,2.1-1,3.1-1.1
		c0.9-0.1,1.8,0.1,2.5,0.7c0.7,0.6,1.3,1.6,1.7,3c0.4,1.4,0.6,3.2,0.6,5.5c0,2.3-0.2,4.5-0.6,6.4c-0.4,1.9-1,3.5-1.7,4.9
		c-0.7,1.4-1.5,2.6-2.5,3.6c-0.9,1-2,1.8-3.1,2.4c-1.1,0.6-2.1,1-3,1.1c-0.9,0.1-1.8-0.1-2.5-0.7c-0.7-0.6-1.3-1.6-1.7-3
		c-0.4-1.4-0.6-3.3-0.6-5.7C234.9,40.3,235.1,38.2,235.5,36.3z M239.3,42.9c0.1,0.8,0.2,1.7,0.4,2.4c0.2,0.8,0.6,1.3,1,1.7
		c0.5,0.3,1.1,0.3,1.9-0.2c0.8-0.5,1.5-1.2,2-2.1c0.5-0.9,0.9-1.9,1.1-2.9c0.2-1,0.3-2,0.4-2.9c0.1-0.9,0.1-1.9,0.1-2.9
		c0-1,0-1.9-0.1-2.7c-0.1-0.8-0.2-1.6-0.4-2.4c-0.2-0.8-0.6-1.3-1.1-1.6c-0.5-0.3-1.1-0.2-2,0.3c-0.8,0.5-1.5,1.1-1.9,2
		c-0.5,0.9-0.8,1.8-1,2.8c-0.2,1-0.3,2-0.4,2.8c-0.1,0.9-0.1,1.8-0.1,2.8C239.2,41.1,239.2,42.1,239.3,42.9z"/>
</g>
<g>
	<g>
		<linearGradient id="SVGID_90_" gradientUnits="userSpaceOnUse" x1="252.9244" y1="56.8455" x2="257.1622" y2="56.8455">
			<stop  offset="0" style="stop-color:#FFFFFF"/>
			<stop  offset="1" style="stop-color:#E6F0FA"/>
		</linearGradient>
		<path class="st92" d="M257.2,51.9l0,10.7l-1.9-1.1l0-6.9l-2.3-1.4l0-1.6c0.8,0.4,1.4,0.6,1.9,0.6c0.5,0,0.8-0.4,0.9-1.1
			L257.2,51.9z"/>
	</g>
	<g>
		<linearGradient id="SVGID_91_" gradientUnits="userSpaceOnUse" x1="260.3222" y1="61.1136" x2="264.56" y2="61.1136">
			<stop  offset="0" style="stop-color:#FFFFFF"/>
			<stop  offset="1" style="stop-color:#E6F0FA"/>
		</linearGradient>
		<path class="st93" d="M264.6,56.2l0,10.7l-1.9-1.1l0-6.9l-2.3-1.3l0-1.6c0.7,0.4,1.4,0.6,1.9,0.6c0.5,0,0.8-0.4,0.9-1.1
			L264.6,56.2z"/>
	</g>
	<g>
		<linearGradient id="SVGID_92_" gradientUnits="userSpaceOnUse" x1="266.9973" y1="64.9319" x2="273.8365" y2="64.9319">
			<stop  offset="0" style="stop-color:#FFFFFF"/>
			<stop  offset="1" style="stop-color:#E6F0FA"/>
		</linearGradient>
		<path class="st94" d="M273.6,64.1c0.2,0.8,0.3,1.7,0.3,2.7c0,1-0.1,1.9-0.3,2.5c-0.2,0.6-0.4,1.1-0.7,1.3
			c-0.3,0.3-0.7,0.4-1.1,0.3c-0.4,0-0.9-0.2-1.3-0.5c-0.5-0.3-0.9-0.6-1.3-1.1c-0.4-0.4-0.8-0.9-1.1-1.6c-0.3-0.6-0.5-1.3-0.7-2.2
			c-0.2-0.8-0.3-1.8-0.3-2.8c0-1,0.1-1.8,0.3-2.4c0.2-0.6,0.4-1,0.7-1.3c0.3-0.3,0.7-0.4,1.1-0.3c0.4,0.1,0.9,0.2,1.3,0.5
			c0.5,0.3,0.9,0.6,1.3,1.1c0.4,0.4,0.8,0.9,1.1,1.6C273.1,62.6,273.4,63.3,273.6,64.1z M271.9,67c0-0.4,0-0.8,0-1.2
			c0-0.4,0-0.8,0-1.2c0-0.4-0.1-0.8-0.2-1.2c-0.1-0.5-0.2-0.9-0.5-1.3c-0.2-0.4-0.5-0.7-0.9-0.9c-0.4-0.2-0.6-0.2-0.9-0.1
			c-0.2,0.1-0.4,0.4-0.5,0.7c-0.1,0.3-0.2,0.7-0.2,1c0,0.4,0,0.8,0,1.2c0,0.5,0,0.9,0,1.3c0,0.4,0.1,0.8,0.2,1.3
			c0.1,0.5,0.2,0.9,0.5,1.3c0.2,0.4,0.5,0.7,0.9,0.9c0.4,0.2,0.6,0.2,0.9,0.1c0.2-0.1,0.4-0.4,0.5-0.7
			C271.8,67.7,271.9,67.4,271.9,67"/>
	</g>
	<g>
		<linearGradient id="SVGID_93_" gradientUnits="userSpaceOnUse" x1="274.3946" y1="69.201" x2="281.2241" y2="69.201">
			<stop  offset="0" style="stop-color:#FFFFFF"/>
			<stop  offset="1" style="stop-color:#E6F0FA"/>
		</linearGradient>
		<path class="st95" d="M281,68.4c0.2,0.8,0.3,1.7,0.3,2.7c0,1-0.1,1.9-0.3,2.5c-0.2,0.6-0.4,1.1-0.7,1.3c-0.3,0.3-0.7,0.4-1.1,0.3
			c-0.4,0-0.9-0.2-1.3-0.5c-0.5-0.3-0.9-0.6-1.3-1.1c-0.4-0.4-0.8-0.9-1.1-1.6c-0.3-0.6-0.6-1.3-0.7-2.2c-0.2-0.8-0.3-1.8-0.3-2.8
			c0-1,0.1-1.8,0.3-2.4c0.2-0.6,0.4-1,0.7-1.3c0.3-0.3,0.7-0.4,1.1-0.3c0.4,0.1,0.8,0.2,1.3,0.5c0.5,0.3,0.9,0.6,1.3,1.1
			c0.4,0.4,0.8,0.9,1.1,1.5C280.5,66.9,280.8,67.6,281,68.4z M279.3,71.3c0-0.4,0-0.8,0-1.2c0-0.4,0-0.8,0-1.2
			c0-0.4-0.1-0.8-0.2-1.2c-0.1-0.5-0.2-0.9-0.5-1.2c-0.2-0.4-0.5-0.7-0.9-0.9c-0.4-0.2-0.6-0.2-0.8-0.1c-0.2,0.1-0.4,0.4-0.5,0.7
			c-0.1,0.3-0.2,0.7-0.2,1c0,0.4,0,0.8,0,1.2c0,0.5,0,0.9,0,1.3c0,0.4,0.1,0.8,0.2,1.3c0.1,0.5,0.2,0.9,0.5,1.3
			c0.2,0.4,0.5,0.7,0.8,0.9c0.4,0.2,0.6,0.2,0.9,0.1c0.2-0.1,0.4-0.4,0.5-0.7C279.2,72,279.3,71.7,279.3,71.3"/>
	</g>
	<g>
		<linearGradient id="SVGID_94_" gradientUnits="userSpaceOnUse" x1="282.4946" y1="73.915" x2="286.7324" y2="73.915">
			<stop  offset="0" style="stop-color:#FFFFFF"/>
			<stop  offset="1" style="stop-color:#E6F0FA"/>
		</linearGradient>
		<path class="st96" d="M286.7,69l0,10.7l-1.9-1.1l0-6.9l-2.3-1.3l0-1.6c0.7,0.4,1.4,0.6,1.9,0.6c0.5,0,0.8-0.4,0.9-1.1L286.7,69z"
			/>
	</g>
	<g>
		<linearGradient id="SVGID_95_" gradientUnits="userSpaceOnUse" x1="289.1702" y1="77.7334" x2="296.0094" y2="77.7334">
			<stop  offset="0" style="stop-color:#FFFFFF"/>
			<stop  offset="1" style="stop-color:#E6F0FA"/>
		</linearGradient>
		<path class="st97" d="M295.7,76.9c0.2,0.8,0.3,1.7,0.3,2.7c0,1-0.1,1.9-0.3,2.5c-0.2,0.6-0.4,1.1-0.7,1.3
			c-0.3,0.3-0.7,0.4-1.1,0.3c-0.4,0-0.9-0.2-1.3-0.5c-0.5-0.3-0.9-0.6-1.3-1.1c-0.4-0.4-0.8-0.9-1.1-1.6c-0.3-0.6-0.5-1.3-0.7-2.2
			c-0.2-0.8-0.3-1.8-0.3-2.8c0-1,0.1-1.8,0.3-2.4c0.2-0.6,0.4-1,0.7-1.3c0.3-0.3,0.7-0.4,1.1-0.3c0.4,0.1,0.9,0.2,1.3,0.5
			c0.5,0.3,0.9,0.6,1.3,1.1c0.4,0.4,0.8,0.9,1.1,1.6C295.3,75.4,295.6,76.1,295.7,76.9z M294.1,79.8c0-0.4,0-0.8,0-1.2
			c0-0.4,0-0.8,0-1.2c0-0.4-0.1-0.8-0.2-1.2c-0.1-0.5-0.2-0.9-0.5-1.3c-0.2-0.4-0.5-0.7-0.9-0.9c-0.4-0.2-0.6-0.2-0.9-0.1
			c-0.2,0.1-0.4,0.4-0.5,0.7c-0.1,0.3-0.2,0.7-0.2,1c0,0.4,0,0.8,0,1.2c0,0.5,0,0.9,0,1.3c0,0.4,0.1,0.8,0.2,1.3
			c0.1,0.5,0.2,0.9,0.5,1.3c0.2,0.4,0.5,0.7,0.9,0.9c0.4,0.2,0.6,0.2,0.9,0.1c0.2-0.1,0.4-0.4,0.5-0.7
			C294,80.5,294.1,80.2,294.1,79.8"/>
	</g>
	<g>
		<linearGradient id="SVGID_96_" gradientUnits="userSpaceOnUse" x1="297.2702" y1="82.4485" x2="301.508" y2="82.4485">
			<stop  offset="0" style="stop-color:#FFFFFF"/>
			<stop  offset="1" style="stop-color:#E6F0FA"/>
		</linearGradient>
		<path class="st98" d="M301.5,77.5l0,10.7l-1.9-1.1l0-6.9l-2.3-1.4l0-1.6c0.8,0.4,1.4,0.6,1.9,0.6c0.5,0,0.8-0.4,0.9-1.1
			L301.5,77.5z"/>
	</g>
	<g>
		<linearGradient id="SVGID_97_" gradientUnits="userSpaceOnUse" x1="303.955" y1="86.2693" x2="310.7845" y2="86.2693">
			<stop  offset="0" style="stop-color:#FFFFFF"/>
			<stop  offset="1" style="stop-color:#E6F0FA"/>
		</linearGradient>
		<path class="st99" d="M310.5,85.5c0.2,0.8,0.3,1.7,0.3,2.7c0,1-0.1,1.9-0.3,2.5c-0.2,0.6-0.4,1.1-0.7,1.3
			c-0.3,0.3-0.7,0.4-1.1,0.3c-0.4,0-0.9-0.2-1.4-0.5c-0.5-0.3-0.9-0.6-1.3-1.1c-0.4-0.4-0.8-0.9-1.1-1.6c-0.3-0.6-0.6-1.3-0.7-2.2
			c-0.2-0.8-0.3-1.8-0.3-2.8c0-1,0.1-1.8,0.3-2.4c0.2-0.6,0.4-1,0.7-1.3c0.3-0.3,0.7-0.4,1.1-0.3c0.4,0.1,0.8,0.2,1.3,0.5
			c0.5,0.3,0.9,0.6,1.3,1.1c0.4,0.4,0.8,0.9,1.1,1.6C310.1,83.9,310.4,84.7,310.5,85.5z M308.9,88.3c0-0.4,0-0.8,0-1.2
			c0-0.4,0-0.8,0-1.2c0-0.4-0.1-0.8-0.2-1.2c-0.1-0.5-0.3-0.9-0.5-1.3c-0.2-0.4-0.5-0.7-0.9-0.9c-0.3-0.2-0.6-0.2-0.8-0.1
			c-0.2,0.1-0.4,0.4-0.5,0.7c-0.1,0.3-0.2,0.7-0.2,1c0,0.4,0,0.8,0,1.2c0,0.5,0,0.9,0,1.3c0,0.4,0.1,0.8,0.2,1.3
			c0.1,0.5,0.2,0.9,0.5,1.3c0.2,0.4,0.5,0.7,0.8,0.9c0.4,0.2,0.7,0.2,0.9,0.1c0.2-0.1,0.4-0.4,0.5-0.7
			C308.8,89.1,308.8,88.7,308.9,88.3"/>
	</g>
	<g>
		<linearGradient id="SVGID_98_" gradientUnits="userSpaceOnUse" x1="312.0551" y1="90.9817" x2="316.2928" y2="90.9817">
			<stop  offset="0" style="stop-color:#FFFFFF"/>
			<stop  offset="1" style="stop-color:#E6F0FA"/>
		</linearGradient>
		<path class="st100" d="M316.3,86.1l0,10.7l-1.9-1.1l0-6.9l-2.3-1.4l0-1.6c0.8,0.4,1.4,0.6,1.9,0.6c0.5,0,0.8-0.4,0.9-1.1
			L316.3,86.1z"/>
	</g>
	<g>
		<linearGradient id="SVGID_99_" gradientUnits="userSpaceOnUse" x1="319.4426" y1="95.2499" x2="323.6803" y2="95.2499">
			<stop  offset="0" style="stop-color:#FFFFFF"/>
			<stop  offset="1" style="stop-color:#E6F0FA"/>
		</linearGradient>
		<path class="st101" d="M323.7,90.3l0,10.7l-1.9-1.1l0-6.9l-2.3-1.4l0-1.6c0.8,0.4,1.4,0.6,1.9,0.6c0.5,0,0.8-0.4,0.9-1.1
			L323.7,90.3z"/>
	</g>
	<g>
		<linearGradient id="SVGID_100_" gradientUnits="userSpaceOnUse" x1="326.1279" y1="99.0708" x2="332.9574" y2="99.0708">
			<stop  offset="0" style="stop-color:#FFFFFF"/>
			<stop  offset="1" style="stop-color:#E6F0FA"/>
		</linearGradient>
		<path class="st102" d="M332.7,98.3c0.2,0.8,0.3,1.7,0.3,2.7c0,1-0.1,1.9-0.3,2.5c-0.2,0.6-0.4,1.1-0.7,1.3
			c-0.3,0.3-0.7,0.4-1.1,0.3c-0.4,0-0.9-0.2-1.4-0.5c-0.5-0.3-0.9-0.6-1.3-1.1c-0.4-0.4-0.8-0.9-1.1-1.6c-0.3-0.6-0.6-1.3-0.7-2.2
			c-0.2-0.8-0.3-1.8-0.3-2.8c0-1,0.1-1.8,0.3-2.4c0.2-0.6,0.4-1,0.7-1.3c0.3-0.3,0.7-0.4,1.1-0.3c0.4,0.1,0.8,0.2,1.3,0.5
			c0.5,0.3,0.9,0.6,1.3,1.1c0.4,0.4,0.8,0.9,1.1,1.6C332.3,96.7,332.5,97.5,332.7,98.3z M331,101.1c0-0.4,0-0.8,0-1.2
			c0-0.4,0-0.8,0-1.2c0-0.4-0.1-0.8-0.2-1.2c-0.1-0.5-0.3-0.9-0.5-1.3c-0.2-0.4-0.5-0.7-0.9-0.9c-0.3-0.2-0.6-0.2-0.8-0.1
			c-0.2,0.1-0.4,0.4-0.5,0.7c-0.1,0.3-0.2,0.7-0.2,1c0,0.4,0,0.8,0,1.2c0,0.5,0,0.9,0,1.3c0,0.4,0.1,0.8,0.2,1.3
			c0.1,0.5,0.2,0.9,0.5,1.3c0.2,0.4,0.5,0.7,0.8,0.9c0.4,0.2,0.7,0.2,0.9,0.1c0.2-0.1,0.4-0.4,0.5-0.7
			C331,101.9,331,101.5,331,101.1"/>
	</g>
	<g>
		<linearGradient id="SVGID_101_" gradientUnits="userSpaceOnUse" x1="333.5155" y1="103.3362" x2="340.3552" y2="103.3362">
			<stop  offset="0" style="stop-color:#FFFFFF"/>
			<stop  offset="1" style="stop-color:#E6F0FA"/>
		</linearGradient>
		<path class="st103" d="M340.1,102.5c0.2,0.8,0.3,1.7,0.3,2.7c0,1-0.1,1.9-0.3,2.5c-0.2,0.6-0.4,1.1-0.7,1.3
			c-0.3,0.3-0.7,0.4-1.1,0.3c-0.4,0-0.9-0.2-1.3-0.5c-0.5-0.3-0.9-0.6-1.3-1.1c-0.4-0.4-0.8-0.9-1.1-1.6c-0.3-0.6-0.5-1.3-0.7-2.2
			c-0.2-0.8-0.3-1.8-0.3-2.8c0-1,0.1-1.8,0.3-2.4c0.2-0.6,0.4-1,0.7-1.3c0.3-0.3,0.7-0.4,1.1-0.3c0.4,0.1,0.9,0.2,1.3,0.5
			c0.5,0.3,0.9,0.6,1.3,1.1c0.4,0.4,0.8,0.9,1.1,1.6C339.7,101,339.9,101.7,340.1,102.5z M338.4,105.4c0-0.4,0-0.8,0-1.2
			c0-0.4,0-0.8,0-1.2c0-0.4-0.1-0.8-0.2-1.2c-0.1-0.5-0.2-0.9-0.5-1.3c-0.2-0.4-0.5-0.7-0.9-0.9c-0.4-0.2-0.6-0.2-0.9-0.1
			c-0.2,0.1-0.4,0.4-0.5,0.7c-0.1,0.3-0.2,0.7-0.2,1c0,0.4,0,0.8,0,1.2c0,0.5,0,0.9,0,1.3c0,0.4,0.1,0.8,0.2,1.3
			c0.1,0.5,0.2,0.9,0.5,1.3c0.2,0.4,0.5,0.7,0.9,0.9c0.4,0.2,0.6,0.2,0.9,0.1c0.2-0.1,0.4-0.4,0.5-0.7
			C338.3,106.1,338.4,105.8,338.4,105.4"/>
	</g>
	<g>
		<linearGradient id="SVGID_102_" gradientUnits="userSpaceOnUse" x1="341.6155" y1="108.0513" x2="345.8532" y2="108.0513">
			<stop  offset="0" style="stop-color:#FFFFFF"/>
			<stop  offset="1" style="stop-color:#E6F0FA"/>
		</linearGradient>
		<path class="st104" d="M345.9,103.1l0,10.7l-1.9-1.1l0-6.9l-2.3-1.4l0-1.6c0.8,0.4,1.4,0.6,1.9,0.6c0.5,0,0.8-0.4,0.9-1.1
			L345.9,103.1z"/>
	</g>
	<g>
		<linearGradient id="SVGID_103_" gradientUnits="userSpaceOnUse" x1="348.3008" y1="111.8723" x2="355.1303" y2="111.8723">
			<stop  offset="0" style="stop-color:#FFFFFF"/>
			<stop  offset="1" style="stop-color:#E6F0FA"/>
		</linearGradient>
		<path class="st105" d="M354.9,111.1c0.2,0.8,0.3,1.7,0.3,2.7c0,1-0.1,1.9-0.3,2.5c-0.2,0.6-0.4,1.1-0.7,1.3
			c-0.3,0.3-0.7,0.4-1.1,0.3c-0.4,0-0.9-0.2-1.4-0.5c-0.5-0.3-0.9-0.6-1.3-1.1c-0.4-0.4-0.8-0.9-1.1-1.6c-0.3-0.6-0.6-1.3-0.7-2.2
			c-0.2-0.8-0.3-1.8-0.3-2.8c0-1,0.1-1.8,0.3-2.4c0.2-0.6,0.4-1,0.7-1.3c0.3-0.3,0.7-0.4,1.1-0.3c0.4,0.1,0.8,0.2,1.3,0.5
			c0.5,0.3,0.9,0.6,1.3,1.1c0.4,0.4,0.8,0.9,1.1,1.6C354.5,109.5,354.7,110.3,354.9,111.1z M353.2,114c0-0.4,0-0.8,0-1.2
			c0-0.4,0-0.8,0-1.2c0-0.4-0.1-0.8-0.2-1.2c-0.1-0.5-0.3-0.9-0.5-1.3c-0.2-0.4-0.5-0.7-0.9-0.9c-0.3-0.2-0.6-0.2-0.8-0.1
			c-0.2,0.1-0.4,0.4-0.5,0.7c-0.1,0.3-0.2,0.7-0.2,1c0,0.4,0,0.8,0,1.2c0,0.5,0,0.9,0,1.3c0,0.4,0.1,0.8,0.2,1.3
			c0.1,0.5,0.2,0.9,0.5,1.3c0.2,0.4,0.5,0.7,0.8,0.9c0.4,0.2,0.7,0.2,0.9,0.1c0.2-0.1,0.4-0.4,0.5-0.7
			C353.1,114.7,353.2,114.3,353.2,114"/>
	</g>
</g>
<g>
	<g>
		<linearGradient id="SVGID_104_" gradientUnits="userSpaceOnUse" x1="133.6471" y1="56.963" x2="142.0869" y2="56.963">
			<stop  offset="0" style="stop-color:#FFFFFF"/>
			<stop  offset="1" style="stop-color:#E6F0FA"/>
		</linearGradient>
		<path class="st106" d="M142.1,47.2L142,68.5l-3.8-2.2l0-13.8l-4.6-2.7l0-3.3c1.5,0.9,2.7,1.3,3.7,1.1c1-0.1,1.6-0.8,1.7-2.2
			L142.1,47.2z"/>
	</g>
	<g>
		<linearGradient id="SVGID_105_" gradientUnits="userSpaceOnUse" x1="146.9404" y1="64.585" x2="160.5595" y2="64.585">
			<stop  offset="0" style="stop-color:#FFFFFF"/>
			<stop  offset="1" style="stop-color:#E6F0FA"/>
		</linearGradient>
		<path class="st107" d="M160,63c0.4,1.6,0.5,3.5,0.5,5.5c0,2-0.2,3.7-0.6,4.9c-0.4,1.2-0.8,2.1-1.5,2.6c-0.6,0.5-1.4,0.7-2.2,0.6
			c-0.8-0.1-1.7-0.4-2.7-1c-1-0.6-1.8-1.2-2.7-2.1s-1.5-1.9-2.1-3.1c-0.6-1.2-1.1-2.7-1.4-4.3c-0.4-1.7-0.5-3.5-0.5-5.6
			c0-2,0.2-3.6,0.6-4.8c0.4-1.2,0.8-2.1,1.5-2.6c0.6-0.5,1.3-0.7,2.1-0.6c0.8,0.1,1.7,0.4,2.7,0.9c1,0.6,1.8,1.3,2.7,2.1
			c0.8,0.8,1.5,1.9,2.2,3.1C159.2,59.9,159.7,61.3,160,63z M156.7,68.7c0-0.8,0.1-1.6,0.1-2.5c0-0.9,0-1.7-0.1-2.5
			c0-0.8-0.2-1.6-0.4-2.5c-0.2-0.9-0.5-1.7-0.9-2.5c-0.4-0.7-1-1.3-1.7-1.8c-0.7-0.4-1.3-0.5-1.7-0.2c-0.4,0.3-0.7,0.8-0.9,1.4
			c-0.2,0.7-0.3,1.4-0.3,2.1c0,0.7-0.1,1.5-0.1,2.4c0,0.9,0,1.7,0.1,2.5c0,0.8,0.2,1.6,0.3,2.5c0.2,0.9,0.5,1.7,0.9,2.5
			c0.4,0.8,1,1.4,1.7,1.8c0.7,0.4,1.3,0.5,1.7,0.2c0.4-0.3,0.7-0.8,0.9-1.4C156.6,70.2,156.7,69.5,156.7,68.7"/>
	</g>
	<g>
		<linearGradient id="SVGID_106_" gradientUnits="userSpaceOnUse" x1="161.6708" y1="73.0859" x2="175.2706" y2="73.0859">
			<stop  offset="0" style="stop-color:#FFFFFF"/>
			<stop  offset="1" style="stop-color:#E6F0FA"/>
		</linearGradient>
		<path class="st108" d="M174.7,71.5c0.4,1.6,0.5,3.5,0.5,5.5c0,2-0.2,3.7-0.6,4.9c-0.4,1.2-0.8,2.1-1.5,2.6
			c-0.6,0.5-1.3,0.7-2.2,0.6c-0.8-0.1-1.7-0.4-2.7-1c-1-0.6-1.8-1.2-2.6-2.1c-0.8-0.9-1.5-1.9-2.1-3.1c-0.6-1.2-1.1-2.7-1.5-4.3
			c-0.3-1.7-0.5-3.5-0.5-5.5c0-2,0.2-3.6,0.5-4.9c0.4-1.2,0.9-2.1,1.5-2.6c0.6-0.5,1.3-0.7,2.1-0.6c0.8,0.1,1.7,0.4,2.6,0.9
			c1,0.6,1.9,1.3,2.7,2.1c0.8,0.8,1.5,1.9,2.1,3.1C173.9,68.4,174.4,69.8,174.7,71.5z M171.4,77.2c0.1-0.7,0.1-1.6,0.1-2.5
			c0-0.9,0-1.7-0.1-2.5c0-0.8-0.2-1.6-0.4-2.5c-0.2-0.9-0.5-1.7-0.9-2.5c-0.4-0.8-1-1.4-1.7-1.8c-0.7-0.4-1.3-0.5-1.7-0.2
			c-0.4,0.3-0.7,0.8-0.9,1.4c-0.2,0.7-0.3,1.4-0.4,2.1c0,0.7-0.1,1.5-0.1,2.4c0,0.9,0,1.7,0.1,2.5c0.1,0.8,0.2,1.6,0.4,2.5
			c0.2,0.9,0.5,1.7,0.9,2.5c0.4,0.8,1,1.4,1.7,1.8c0.7,0.4,1.3,0.5,1.7,0.2c0.4-0.3,0.8-0.8,0.9-1.4C171.3,78.7,171.4,78,171.4,77.2
			"/>
	</g>
	<g>
		<linearGradient id="SVGID_107_" gradientUnits="userSpaceOnUse" x1="177.8007" y1="82.4547" x2="186.2394" y2="82.4547">
			<stop  offset="0" style="stop-color:#FFFFFF"/>
			<stop  offset="1" style="stop-color:#E6F0FA"/>
		</linearGradient>
		<path class="st109" d="M186.2,72.7L186.2,94l-3.8-2.2l0-13.8l-4.6-2.7l0-3.3c1.5,0.9,2.7,1.3,3.7,1.1c1-0.1,1.6-0.8,1.7-2.2
			L186.2,72.7z"/>
	</g>
	<g>
		<linearGradient id="SVGID_108_" gradientUnits="userSpaceOnUse" x1="192.5117" y1="90.9484" x2="200.9515" y2="90.9484">
			<stop  offset="0" style="stop-color:#FFFFFF"/>
			<stop  offset="1" style="stop-color:#E6F0FA"/>
		</linearGradient>
		<path class="st110" d="M201,81.2l-0.1,21.3l-3.8-2.2l0-13.8l-4.7-2.7l0-3.3c1.5,0.9,2.7,1.3,3.7,1.1c1-0.1,1.5-0.9,1.7-2.2
			L201,81.2z"/>
	</g>
	<g>
		<linearGradient id="SVGID_109_" gradientUnits="userSpaceOnUse" x1="205.8244" y1="98.5779" x2="219.4241" y2="98.5779">
			<stop  offset="0" style="stop-color:#FFFFFF"/>
			<stop  offset="1" style="stop-color:#E6F0FA"/>
		</linearGradient>
		<path class="st111" d="M218.9,97c0.4,1.6,0.5,3.5,0.5,5.5c0,2-0.2,3.7-0.6,4.9c-0.3,1.2-0.8,2.1-1.5,2.6c-0.6,0.5-1.3,0.7-2.2,0.6
			c-0.8-0.1-1.7-0.4-2.7-1c-1-0.6-1.8-1.2-2.6-2.1c-0.8-0.9-1.5-1.9-2.1-3.1c-0.6-1.2-1.1-2.7-1.5-4.3c-0.3-1.7-0.5-3.5-0.5-5.5
			c0-2,0.2-3.6,0.5-4.9c0.4-1.2,0.9-2.1,1.5-2.6c0.6-0.5,1.3-0.7,2.1-0.6c0.8,0.1,1.7,0.4,2.6,0.9c1,0.6,1.9,1.3,2.7,2.1
			c0.8,0.8,1.5,1.9,2.1,3.1C218.1,93.9,218.6,95.3,218.9,97z M215.6,102.7c0.1-0.7,0.1-1.6,0.1-2.5c0-0.9,0-1.7-0.1-2.5
			c0-0.8-0.2-1.6-0.4-2.5c-0.2-0.9-0.5-1.7-0.9-2.5c-0.4-0.8-1-1.3-1.7-1.8c-0.7-0.4-1.3-0.5-1.7-0.2c-0.4,0.3-0.7,0.8-0.9,1.4
			c-0.2,0.7-0.3,1.4-0.4,2.1c0,0.7-0.1,1.5-0.1,2.4c0,0.9,0,1.7,0.1,2.5c0.1,0.8,0.2,1.6,0.4,2.5c0.2,0.9,0.5,1.7,0.9,2.5
			c0.4,0.8,1,1.4,1.7,1.8c0.7,0.4,1.3,0.5,1.7,0.2c0.4-0.3,0.8-0.8,0.9-1.4C215.4,104.2,215.5,103.4,215.6,102.7"/>
	</g>
	<g>
		<linearGradient id="SVGID_110_" gradientUnits="userSpaceOnUse" x1="220.5354" y1="107.0749" x2="234.1351" y2="107.0749">
			<stop  offset="0" style="stop-color:#FFFFFF"/>
			<stop  offset="1" style="stop-color:#E6F0FA"/>
		</linearGradient>
		<path class="st112" d="M233.6,105.5c0.3,1.6,0.5,3.4,0.5,5.5c0,2-0.2,3.7-0.5,4.9c-0.4,1.2-0.9,2.1-1.5,2.6
			c-0.6,0.5-1.3,0.7-2.1,0.6c-0.8-0.1-1.7-0.4-2.7-1c-1-0.6-1.8-1.2-2.6-2.1s-1.5-1.9-2.1-3.1c-0.6-1.2-1.1-2.7-1.4-4.3
			c-0.4-1.7-0.5-3.5-0.5-5.6c0-2,0.2-3.6,0.6-4.8c0.4-1.2,0.8-2.1,1.5-2.6c0.6-0.5,1.3-0.7,2.1-0.6s1.7,0.4,2.6,0.9
			c1,0.6,1.9,1.3,2.7,2.1c0.8,0.8,1.5,1.9,2.2,3.1C232.8,102.4,233.3,103.8,233.6,105.5z M230.3,111.2c0-0.8,0.1-1.6,0.1-2.5
			c0-0.9,0-1.7-0.1-2.5c-0.1-0.8-0.2-1.6-0.4-2.5c-0.2-0.9-0.5-1.7-0.9-2.5c-0.4-0.7-1-1.3-1.7-1.8c-0.7-0.4-1.3-0.5-1.7-0.2
			c-0.4,0.3-0.7,0.8-0.9,1.4c-0.2,0.7-0.3,1.4-0.3,2.1c-0.1,0.7-0.1,1.5-0.1,2.4c0,0.9,0,1.7,0.1,2.6c0,0.8,0.2,1.6,0.3,2.5
			c0.2,0.9,0.5,1.7,0.9,2.5c0.4,0.8,1,1.4,1.7,1.8c0.7,0.4,1.3,0.5,1.7,0.2c0.4-0.3,0.7-0.8,0.9-1.4
			C230.2,112.7,230.3,111.9,230.3,111.2"/>
	</g>
	<g>
		<linearGradient id="SVGID_111_" gradientUnits="userSpaceOnUse" x1="235.2464" y1="115.5688" x2="248.8666" y2="115.5688">
			<stop  offset="0" style="stop-color:#FFFFFF"/>
			<stop  offset="1" style="stop-color:#E6F0FA"/>
		</linearGradient>
		<path class="st113" d="M248.3,114c0.4,1.6,0.5,3.5,0.5,5.5c0,2-0.2,3.7-0.6,4.9c-0.4,1.2-0.8,2.1-1.5,2.6
			c-0.6,0.5-1.4,0.7-2.2,0.6c-0.8-0.1-1.7-0.4-2.7-1c-1-0.6-1.8-1.2-2.7-2.1c-0.8-0.9-1.5-1.9-2.1-3.1c-0.6-1.2-1.1-2.7-1.4-4.3
			c-0.4-1.7-0.5-3.5-0.5-5.6c0-2,0.2-3.6,0.6-4.8c0.4-1.2,0.8-2.1,1.5-2.6c0.6-0.5,1.3-0.7,2.1-0.6c0.8,0.1,1.7,0.4,2.7,0.9
			c1,0.6,1.8,1.3,2.7,2.1c0.8,0.8,1.5,1.9,2.2,3.1C247.5,110.9,248,112.3,248.3,114z M245,119.7c0-0.8,0.1-1.6,0.1-2.5
			c0-0.9,0-1.7-0.1-2.5c0-0.8-0.2-1.6-0.4-2.5c-0.2-0.9-0.5-1.7-0.9-2.5c-0.4-0.7-1-1.3-1.7-1.8c-0.7-0.4-1.3-0.5-1.7-0.2
			c-0.4,0.3-0.7,0.8-0.9,1.4c-0.2,0.7-0.3,1.4-0.3,2.1c0,0.7-0.1,1.5-0.1,2.4c0,0.9,0,1.7,0.1,2.5c0,0.8,0.2,1.6,0.3,2.5
			c0.2,0.9,0.5,1.7,0.9,2.5c0.4,0.8,1,1.4,1.7,1.8c0.7,0.4,1.3,0.5,1.7,0.2c0.4-0.3,0.7-0.8,0.9-1.4
			C244.9,121.1,245,120.4,245,119.7"/>
	</g>
	<g>
		<linearGradient id="SVGID_112_" gradientUnits="userSpaceOnUse" x1="251.3763" y1="124.9395" x2="259.8151" y2="124.9395">
			<stop  offset="0" style="stop-color:#FFFFFF"/>
			<stop  offset="1" style="stop-color:#E6F0FA"/>
		</linearGradient>
		<path class="st114" d="M259.8,115.2l-0.1,21.3l-3.8-2.2l0-13.8l-4.7-2.7l0-3.3c1.5,0.9,2.7,1.3,3.7,1.1c1-0.1,1.6-0.8,1.7-2.2
			L259.8,115.2z"/>
	</g>
	<g>
		<linearGradient id="SVGID_113_" gradientUnits="userSpaceOnUse" x1="266.1078" y1="133.4389" x2="274.5466" y2="133.4389">
			<stop  offset="0" style="stop-color:#FFFFFF"/>
			<stop  offset="1" style="stop-color:#E6F0FA"/>
		</linearGradient>
		<path class="st115" d="M274.5,123.7l-0.1,21.3l-3.8-2.2l0-13.8l-4.6-2.7l0-3.3c1.5,0.9,2.7,1.3,3.7,1.1c1-0.1,1.6-0.8,1.7-2.2
			L274.5,123.7z"/>
	</g>
	<g>
		<linearGradient id="SVGID_114_" gradientUnits="userSpaceOnUse" x1="279.4" y1="141.0606" x2="293.0202" y2="141.0606">
			<stop  offset="0" style="stop-color:#FFFFFF"/>
			<stop  offset="1" style="stop-color:#E6F0FA"/>
		</linearGradient>
		<path class="st116" d="M292.5,139.4c0.4,1.6,0.5,3.5,0.5,5.5c0,2-0.2,3.7-0.6,4.9c-0.4,1.2-0.8,2.1-1.5,2.6
			c-0.6,0.5-1.4,0.7-2.2,0.6c-0.8-0.1-1.7-0.4-2.7-1c-1-0.6-1.8-1.2-2.7-2.1c-0.8-0.9-1.5-1.9-2.1-3.1c-0.6-1.2-1.1-2.7-1.4-4.3
			c-0.4-1.7-0.5-3.5-0.5-5.6c0-2,0.2-3.6,0.6-4.8c0.4-1.2,0.8-2.1,1.5-2.6c0.6-0.5,1.3-0.7,2.1-0.6c0.8,0.1,1.7,0.4,2.7,0.9
			c1,0.6,1.8,1.3,2.7,2.1c0.8,0.8,1.5,1.9,2.2,3.1C291.7,136.4,292.1,137.8,292.5,139.4z M289.2,145.2c0-0.8,0.1-1.6,0.1-2.5
			c0-0.9,0-1.7-0.1-2.5c0-0.8-0.2-1.6-0.4-2.5c-0.2-0.9-0.5-1.7-0.9-2.5c-0.4-0.7-1-1.3-1.7-1.8c-0.7-0.4-1.3-0.5-1.7-0.2
			c-0.4,0.3-0.7,0.8-0.9,1.4c-0.2,0.7-0.3,1.4-0.3,2.1c0,0.7-0.1,1.5-0.1,2.4c0,0.9,0,1.7,0.1,2.5c0,0.8,0.2,1.6,0.3,2.5
			c0.2,0.9,0.5,1.7,0.9,2.5c0.4,0.8,1,1.4,1.7,1.8c0.7,0.4,1.3,0.5,1.7,0.2c0.4-0.3,0.7-0.8,0.9-1.4
			C289,146.6,289.1,145.9,289.2,145.2"/>
	</g>
	<g>
		<linearGradient id="SVGID_115_" gradientUnits="userSpaceOnUse" x1="294.1315" y1="149.5618" x2="307.7313" y2="149.5618">
			<stop  offset="0" style="stop-color:#FFFFFF"/>
			<stop  offset="1" style="stop-color:#E6F0FA"/>
		</linearGradient>
		<path class="st117" d="M307.2,147.9c0.4,1.6,0.5,3.5,0.5,5.5c0,2-0.2,3.7-0.6,4.9c-0.4,1.2-0.8,2.1-1.5,2.6
			c-0.6,0.5-1.3,0.7-2.2,0.6c-0.8-0.1-1.7-0.4-2.7-1c-1-0.6-1.8-1.2-2.6-2.1c-0.8-0.9-1.5-1.9-2.1-3.1c-0.6-1.2-1.1-2.7-1.5-4.3
			c-0.3-1.7-0.5-3.5-0.5-5.5c0-2,0.2-3.6,0.5-4.9c0.4-1.2,0.9-2.1,1.5-2.6c0.6-0.5,1.3-0.7,2.1-0.6c0.8,0.1,1.7,0.4,2.6,0.9
			c1,0.6,1.9,1.3,2.7,2.1c0.8,0.8,1.5,1.9,2.1,3.1C306.4,144.9,306.9,146.3,307.2,147.9z M303.9,153.7c0.1-0.7,0.1-1.6,0.1-2.5
			c0-0.9,0-1.7-0.1-2.5c0-0.8-0.2-1.6-0.4-2.5c-0.2-0.9-0.5-1.7-0.9-2.5c-0.4-0.8-1-1.4-1.7-1.8c-0.7-0.4-1.3-0.5-1.7-0.2
			c-0.4,0.3-0.7,0.8-0.9,1.4c-0.2,0.7-0.3,1.4-0.4,2.1c0,0.7-0.1,1.5-0.1,2.4c0,0.9,0,1.7,0.1,2.5c0.1,0.8,0.2,1.6,0.3,2.5
			c0.2,0.9,0.5,1.7,0.9,2.5c0.4,0.8,1,1.4,1.7,1.8c0.7,0.4,1.3,0.5,1.7,0.2c0.4-0.3,0.8-0.8,0.9-1.4
			C303.7,155.1,303.8,154.4,303.9,153.7"/>
	</g>
	<g>
		<linearGradient id="SVGID_116_" gradientUnits="userSpaceOnUse" x1="310.2614" y1="158.9306" x2="318.7001" y2="158.9306">
			<stop  offset="0" style="stop-color:#FFFFFF"/>
			<stop  offset="1" style="stop-color:#E6F0FA"/>
		</linearGradient>
		<path class="st118" d="M318.7,149.2l-0.1,21.3l-3.8-2.2l0-13.8l-4.6-2.7l0-3.3c1.5,0.9,2.7,1.3,3.7,1.1c1-0.1,1.6-0.8,1.7-2.2
			L318.7,149.2z"/>
	</g>
	<g>
		<linearGradient id="SVGID_117_" gradientUnits="userSpaceOnUse" x1="324.9724" y1="167.4243" x2="333.4112" y2="167.4243">
			<stop  offset="0" style="stop-color:#FFFFFF"/>
			<stop  offset="1" style="stop-color:#E6F0FA"/>
		</linearGradient>
		<path class="st119" d="M333.4,157.6l-0.1,21.3l-3.8-2.2l0-13.8l-4.7-2.7l0-3.3c1.5,0.9,2.7,1.3,3.7,1.1c1-0.1,1.5-0.9,1.7-2.2
			L333.4,157.6z"/>
	</g>
	<g>
		<linearGradient id="SVGID_118_" gradientUnits="userSpaceOnUse" x1="338.285" y1="175.0536" x2="351.8837" y2="175.0536">
			<stop  offset="0" style="stop-color:#FFFFFF"/>
			<stop  offset="1" style="stop-color:#E6F0FA"/>
		</linearGradient>
		<path class="st120" d="M351.4,173.4c0.4,1.6,0.5,3.5,0.5,5.5c0,2-0.2,3.7-0.6,4.9c-0.3,1.2-0.8,2.1-1.5,2.6
			c-0.6,0.5-1.3,0.7-2.2,0.6c-0.8-0.1-1.7-0.4-2.7-1c-1-0.6-1.8-1.2-2.6-2.1c-0.8-0.9-1.5-1.9-2.1-3.1c-0.6-1.2-1.1-2.7-1.5-4.3
			c-0.3-1.7-0.5-3.5-0.5-5.5c0-2,0.2-3.6,0.5-4.9c0.4-1.2,0.9-2.1,1.5-2.6c0.6-0.5,1.3-0.7,2.1-0.6c0.8,0.1,1.7,0.4,2.6,0.9
			c1,0.6,1.9,1.3,2.7,2.1c0.8,0.8,1.5,1.9,2.1,3.1C350.5,170.4,351,171.8,351.4,173.4z M348,179.2c0.1-0.7,0.1-1.6,0.1-2.5
			c0-0.9,0-1.7-0.1-2.5c0-0.8-0.2-1.6-0.4-2.5c-0.2-0.9-0.5-1.7-0.9-2.5c-0.4-0.8-1-1.3-1.7-1.8c-0.7-0.4-1.3-0.5-1.7-0.2
			c-0.4,0.3-0.7,0.8-0.9,1.4c-0.2,0.7-0.3,1.4-0.4,2.1c0,0.7-0.1,1.5-0.1,2.4c0,0.9,0,1.7,0.1,2.5c0.1,0.8,0.2,1.6,0.4,2.5
			c0.2,0.9,0.5,1.7,0.9,2.5c0.4,0.8,1,1.4,1.7,1.8c0.7,0.4,1.3,0.5,1.7,0.2c0.4-0.3,0.8-0.8,0.9-1.4
			C347.9,180.6,348,179.9,348,179.2"/>
	</g>
	<g>
		<linearGradient id="SVGID_119_" gradientUnits="userSpaceOnUse" x1="354.4138" y1="184.4224" x2="362.8526" y2="184.4224">
			<stop  offset="0" style="stop-color:#FFFFFF"/>
			<stop  offset="1" style="stop-color:#E6F0FA"/>
		</linearGradient>
		<path class="st121" d="M362.9,174.6l-0.1,21.3l-3.8-2.2l0-13.8l-4.6-2.7l0-3.3c1.5,0.9,2.7,1.3,3.7,1.1c1-0.1,1.6-0.8,1.7-2.2
			L362.9,174.6z"/>
	</g>
	<g>
		<linearGradient id="SVGID_120_" gradientUnits="userSpaceOnUse" x1="367.7071" y1="192.0447" x2="381.3263" y2="192.0447">
			<stop  offset="0" style="stop-color:#FFFFFF"/>
			<stop  offset="1" style="stop-color:#E6F0FA"/>
		</linearGradient>
		<path class="st122" d="M380.8,190.4c0.4,1.6,0.5,3.5,0.5,5.5c0,2-0.2,3.7-0.6,4.9c-0.4,1.2-0.8,2.1-1.5,2.6
			c-0.6,0.5-1.4,0.7-2.2,0.6c-0.8-0.1-1.7-0.4-2.7-1c-1-0.6-1.8-1.2-2.7-2.1c-0.8-0.9-1.5-1.9-2.1-3.1c-0.6-1.2-1.1-2.7-1.4-4.3
			c-0.4-1.7-0.5-3.5-0.5-5.6c0-2,0.2-3.6,0.5-4.8c0.4-1.2,0.8-2.1,1.5-2.6c0.6-0.5,1.3-0.7,2.1-0.6c0.8,0.1,1.7,0.4,2.7,0.9
			c1,0.6,1.8,1.3,2.7,2.1c0.8,0.8,1.5,1.9,2.2,3.1C380,187.4,380.5,188.8,380.8,190.4z M377.5,196.2c0-0.8,0.1-1.6,0.1-2.5
			c0-0.9,0-1.7-0.1-2.5c0-0.8-0.2-1.6-0.4-2.5c-0.2-0.9-0.5-1.7-0.9-2.5c-0.4-0.7-1-1.3-1.7-1.8c-0.7-0.4-1.3-0.5-1.7-0.2
			c-0.4,0.3-0.7,0.8-0.9,1.4c-0.2,0.7-0.3,1.4-0.3,2.1c0,0.7-0.1,1.5-0.1,2.4c0,0.9,0,1.7,0.1,2.5c0,0.8,0.2,1.6,0.3,2.5
			c0.2,0.9,0.5,1.7,0.9,2.5c0.4,0.8,1,1.4,1.7,1.8c0.7,0.4,1.3,0.5,1.7,0.2c0.4-0.3,0.7-0.8,0.9-1.4
			C377.3,197.6,377.4,196.9,377.5,196.2"/>
	</g>
	<g>
		<linearGradient id="SVGID_121_" gradientUnits="userSpaceOnUse" x1="382.4376" y1="200.5455" x2="396.0373" y2="200.5455">
			<stop  offset="0" style="stop-color:#FFFFFF"/>
			<stop  offset="1" style="stop-color:#E6F0FA"/>
		</linearGradient>
		<path class="st123" d="M395.5,198.9c0.4,1.6,0.5,3.5,0.5,5.5c0,2-0.2,3.7-0.6,4.9c-0.4,1.2-0.8,2.1-1.5,2.6
			c-0.6,0.5-1.3,0.7-2.2,0.6c-0.8-0.1-1.7-0.4-2.7-1c-1-0.6-1.8-1.2-2.6-2.1c-0.8-0.9-1.5-1.9-2.1-3.1c-0.6-1.2-1.1-2.7-1.5-4.3
			c-0.3-1.7-0.5-3.5-0.5-5.5c0-2,0.2-3.6,0.5-4.9c0.4-1.2,0.9-2.1,1.5-2.6c0.6-0.5,1.3-0.7,2.1-0.6c0.8,0.1,1.7,0.4,2.6,0.9
			c1,0.6,1.9,1.3,2.7,2.1s1.5,1.9,2.1,3.1C394.7,195.9,395.2,197.3,395.5,198.9z M392.2,204.7c0.1-0.7,0.1-1.6,0.1-2.5
			c0-0.9,0-1.7-0.1-2.5c0-0.8-0.2-1.6-0.4-2.5c-0.2-0.9-0.5-1.7-0.9-2.5c-0.4-0.8-1-1.4-1.7-1.8c-0.7-0.4-1.3-0.5-1.7-0.2
			c-0.4,0.3-0.7,0.8-0.9,1.4c-0.2,0.7-0.3,1.4-0.4,2.1c0,0.7-0.1,1.5-0.1,2.4c0,0.9,0,1.7,0.1,2.5c0.1,0.8,0.2,1.6,0.4,2.5
			c0.2,0.9,0.5,1.7,0.9,2.5c0.4,0.8,1,1.4,1.7,1.8c0.7,0.4,1.3,0.5,1.7,0.2c0.4-0.3,0.8-0.8,0.9-1.4
			C392,206.1,392.2,205.4,392.2,204.7"/>
	</g>
</g>
</svg>
