<?xml version="1.0" encoding="utf-8"?>
<!-- Generator: Adobe Illustrator 22.1.0, SVG Export Plug-In . SVG Version: 6.00 Build 0)  -->
<svg version="1.1" id="图层_1" xmlns="http://www.w3.org/2000/svg" xmlns:xlink="http://www.w3.org/1999/xlink" x="0px" y="0px"
	 viewBox="0 0 245.8 159" style="enable-background:new 0 0 245.8 159;" xml:space="preserve">
<style type="text/css">
	.st0{fill:url(#SVGID_1_);}
	.st1{fill-rule:evenodd;clip-rule:evenodd;fill:url(#SVGID_2_);}
</style>
<g>
	<g>
		<linearGradient id="SVGID_1_" gradientUnits="userSpaceOnUse" x1="43.6267" y1="79.5" x2="202.6267" y2="79.5">
			<stop  offset="0" style="stop-color:#262748"/>
			<stop  offset="1" style="stop-color:#353F5F"/>
		</linearGradient>
		<circle class="st0" cx="123.1" cy="79.5" r="79.5"/>
	</g>
</g>
<linearGradient id="SVGID_2_" gradientUnits="userSpaceOnUse" x1="0" y1="85.1601" x2="245.7678" y2="85.1601">
	<stop  offset="0" style="stop-color:#3B496A"/>
	<stop  offset="1" style="stop-color:#516E92"/>
</linearGradient>
<path class="st1" d="M14.8,51.4c-3.5,13.1,42.5,36.8,102.8,52.9c60.3,16.2,112,18.7,115.5,5.6c1.8-6.7-9.3-16.1-28.6-25.9
	c27.1,12.5,43.4,24.9,41.1,33.4c-3.9,14.7-62.8,14.7-130.6-3.4S-3.7,66.3,0.2,51.7c2.3-8.5,22.6-11.1,52.3-8.3
	C30.9,42.2,16.6,44.8,14.8,51.4z"/>
</svg>
