<?xml version="1.0" encoding="utf-8"?>
<!-- Generator: Adobe Illustrator 22.1.0, SVG Export Plug-In . SVG Version: 6.00 Build 0)  -->
<svg version="1.1" id="图层_1" xmlns="http://www.w3.org/2000/svg" xmlns:xlink="http://www.w3.org/1999/xlink" x="0px" y="0px"
	 viewBox="0 0 1141 859" style="enable-background:new 0 0 1141 859;" xml:space="preserve">
<style type="text/css">
	.st0{fill-rule:evenodd;clip-rule:evenodd;fill:#2D2C51;}
	.st1{fill-rule:evenodd;clip-rule:evenodd;fill:#FFFFFF;}
	.st2{opacity:0.2;fill-rule:evenodd;clip-rule:evenodd;fill:#FFFFFF;}
</style>
<path class="st0" d="M361,0h263v859H361V0z"/>
<g>
	<g>
		<path class="st1" d="M1051.8,46.6c1.8,0,3.2-0.3,4.3-0.8v-3c-1.1,0.7-2.3,1-3.7,1c-1.4,0-2.6-0.5-3.4-1.4
			c-0.8-0.9-1.3-2.1-1.3-3.6c0-1.5,0.4-2.8,1.3-3.7c0.9-0.9,2.1-1.4,3.5-1.4c1.3,0,2.5,0.3,3.5,0.9v-3.1c-1-0.4-2.2-0.6-3.7-0.6
			c-2.4,0-4.3,0.8-5.8,2.3c-1.5,1.5-2.2,3.5-2.2,5.9c0,2.3,0.7,4.1,2,5.5C1047.8,45.9,1049.6,46.6,1051.8,46.6z M1067.8,43.7h-5.7
			v-3.7h5v-2.6h-5v-3.6h5.4v-2.6h-8.6v15.1h9V43.7z M1072.8,46.4l2.7-5c0.2-0.4,0.3-0.8,0.4-1h0c0.1,0.5,0.2,0.8,0.3,1l2.7,5h3.8
			l-4.7-7.6l4.6-7.5h-3.6l-2.5,4.6c-0.2,0.5-0.4,0.9-0.5,1.3h0c-0.1-0.5-0.3-0.9-0.5-1.3l-2.3-4.6h-3.9l4.4,7.6l-4.9,7.6H1072.8z
			 M859,45.1c1-0.8,1.5-1.9,1.5-3.3c0-1-0.3-1.8-1-2.5c-0.6-0.7-1.5-1-2.6-1.2v0c0.8-0.2,1.5-0.7,2.1-1.3c0.6-0.6,0.8-1.3,0.8-2.2
			c0-1.1-0.4-2-1.3-2.6c-0.9-0.6-2.2-0.9-3.8-0.9h-5.4v15.1h5.7C856.7,46.4,858,46,859,45.1z M852.6,33.6h1.4c1.7,0,2.5,0.6,2.5,1.7
			c0,0.6-0.2,1.1-0.6,1.5c-0.4,0.4-1,0.5-1.7,0.5h-1.5V33.6z M852.6,44v-4.2h1.9c0.8,0,1.5,0.2,1.9,0.5c0.5,0.4,0.7,0.8,0.7,1.5
			c0,0.7-0.2,1.2-0.7,1.6c-0.5,0.4-1.1,0.6-1.9,0.6H852.6z M864.3,33.7c0.5,0,1-0.2,1.3-0.5c0.3-0.3,0.5-0.7,0.5-1.2
			c0-0.5-0.2-0.9-0.5-1.2c-0.3-0.3-0.8-0.5-1.3-0.5c-0.5,0-1,0.2-1.3,0.5c-0.3,0.3-0.5,0.7-0.5,1.2c0,0.5,0.2,0.9,0.5,1.2
			C863.3,33.6,863.7,33.7,864.3,33.7z M862.7,46.4h3.1V35.6h-3.1V46.4z M875.8,40.3v6h3.1v-6.6c0-3-1.2-4.5-3.6-4.5
			c-1.5,0-2.7,0.7-3.5,2h0v-1.7h-3.2v10.8h3.2v-6.2c0-0.7,0.2-1.3,0.6-1.8c0.4-0.5,0.9-0.7,1.5-0.7
			C875.1,37.7,875.8,38.6,875.8,40.3z M890.4,46.4v-6.5c0-3-1.5-4.5-4.5-4.5c-0.6,0-1.3,0.1-2.1,0.3c-0.8,0.2-1.5,0.4-2,0.7v2.4
			c1.1-0.8,2.4-1.2,3.6-1.2c1.3,0,2,0.6,2,1.9l-3,0.4c-2.5,0.3-3.7,1.5-3.7,3.6c0,1,0.3,1.8,0.9,2.4c0.6,0.6,1.4,0.9,2.5,0.9
			c1.4,0,2.5-0.6,3.2-1.8h0v1.6H890.4z M886.8,43.7c-0.4,0.5-0.9,0.7-1.6,0.7c-0.5,0-0.8-0.1-1.1-0.4c-0.3-0.2-0.4-0.6-0.4-1
			c0-0.9,0.6-1.4,1.7-1.5l2-0.3V42C887.5,42.7,887.3,43.2,886.8,43.7z M903.4,46.4v-6.6c0-3-1.2-4.5-3.6-4.5c-1.5,0-2.7,0.7-3.5,2h0
			v-1.7h-3.2v10.8h3.2v-6.2c0-0.7,0.2-1.3,0.6-1.8c0.4-0.5,0.9-0.7,1.5-0.7c1.3,0,1.9,0.9,1.9,2.6v6H903.4z M911,46.6
			c1.4,0,2.5-0.2,3.2-0.7v-2.6c-0.8,0.5-1.6,0.8-2.5,0.8c-1,0-1.7-0.3-2.3-0.9c-0.6-0.6-0.8-1.3-0.8-2.3c0-1,0.3-1.8,0.9-2.4
			c0.6-0.6,1.4-0.9,2.3-0.9c0.9,0,1.6,0.3,2.4,0.8v-2.7c-0.6-0.3-1.5-0.5-2.7-0.5c-1.8,0-3.3,0.5-4.4,1.6c-1.1,1.1-1.6,2.5-1.6,4.3
			c0,1.6,0.5,2.9,1.5,3.9C908,46.1,909.3,46.6,911,46.6z M921.2,46.6c1.6,0,2.9-0.3,3.9-0.8v-2.3c-0.9,0.6-2,0.9-3.2,0.9
			c-1.9,0-2.9-0.8-3-2.5h7.1v-1.3c0-1.6-0.4-2.9-1.3-3.8c-0.9-0.9-2.1-1.4-3.6-1.4c-1.5,0-2.8,0.5-3.8,1.6c-1,1.1-1.5,2.5-1.5,4.2
			c0,1.7,0.5,3.1,1.4,4.1C918.2,46.1,919.5,46.6,921.2,46.6z M919.7,38.1c0.4-0.4,0.9-0.7,1.4-0.7c1.3,0,2,0.8,2,2.4h-4.2
			C919,39.1,919.3,38.6,919.7,38.1z M939.6,31.2h-5.2v15.1h5.2c2.4,0,4.3-0.7,5.8-2.1c1.5-1.4,2.3-3.3,2.3-5.6
			C947.6,33.7,944.9,31.2,939.6,31.2z M942.9,42.4c-0.9,0.9-2.1,1.4-3.6,1.4h-1.8v-9.9h1.7c1.5,0,2.6,0.4,3.6,1.3
			c0.9,0.8,1.4,2,1.4,3.5C944.2,40.2,943.8,41.4,942.9,42.4z M953.4,40.1h5v-2.6h-5v-3.6h5.4v-2.6h-8.6v15.1h9v-2.6h-5.7V40.1z
			 M974,31.2h-3.6l-2.5,4.6c-0.2,0.5-0.4,0.9-0.5,1.3h0c-0.1-0.5-0.3-0.9-0.5-1.3l-2.3-4.6h-3.9l4.4,7.6l-4.9,7.6h3.9l2.7-5
			c0.2-0.4,0.3-0.8,0.4-1h0c0.1,0.5,0.2,0.8,0.3,1l2.7,5h3.8l-4.7-7.6L974,31.2z M658.7,46.6c1.8,0,3.1-0.7,4.1-2.1
			c0.9-1.4,1.4-3.3,1.4-5.9c0-5.1-1.7-7.7-5.2-7.7c-1.8,0-3.2,0.7-4.2,2.1c-1,1.4-1.4,3.4-1.4,6C653.4,44.1,655.2,46.6,658.7,46.6z
			 M658.9,33.4c1.4,0,2.1,1.8,2.1,5.4c0,3.6-0.7,5.4-2.2,5.4c-1.5,0-2.2-1.7-2.2-5.2C656.6,35.3,657.3,33.4,658.9,33.4z M668.7,46.4
			l1.6-3c0.2-0.3,0.3-0.6,0.4-0.9h0c0.1,0.2,0.2,0.6,0.5,1l1.6,3h3.6l-3.5-5.5l3.6-5.3h-3.4l-1.7,3.1c-0.2,0.4-0.4,0.8-0.4,1h0
			c-0.1-0.4-0.3-0.7-0.4-1l-1.6-3.1h-3.7l3.4,5.4l-3.7,5.4H668.7z M687.6,41.1h1.7c1.7,0,3.1-0.4,4.3-1.3c1.1-0.9,1.7-2.2,1.7-3.7
			c0-3.2-1.9-4.8-5.6-4.8h-5.2v15.1h3.2V41.1z M687.6,33.7h1.4c1.9,0,2.8,0.8,2.8,2.4c0,1.6-0.9,2.5-2.8,2.5h-1.4V33.7z M700.4,37.6
			L700.4,37.6l0-2h-3.2v10.8h3.2v-5.2c0-1,0.2-1.7,0.6-2.3c0.4-0.5,1-0.8,1.7-0.8c0.5,0,1,0.1,1.4,0.3v-2.9
			c-0.2-0.1-0.5-0.1-0.8-0.1C701.8,35.4,700.9,36.1,700.4,37.6z M710.7,46.6c1.8,0,3.2-0.5,4.3-1.6c1-1,1.6-2.5,1.6-4.2
			c0-1.7-0.5-3-1.5-4c-1-1-2.4-1.5-4.1-1.5c-1.8,0-3.2,0.5-4.3,1.5c-1.1,1-1.6,2.4-1.6,4.2c0,1.7,0.5,3.1,1.5,4.1
			S708.9,46.6,710.7,46.6z M708.8,38.6c0.5-0.6,1.1-0.8,1.9-0.8c1.7,0,2.5,1.1,2.5,3.2c0,2.2-0.8,3.3-2.5,3.3
			c-1.8,0-2.6-1.1-2.6-3.2C708.1,39.9,708.3,39.1,708.8,38.6z M722.6,32.3l-3.1,0.9v2.4h-1.8v2.4h1.8V43c0,2.4,1.1,3.6,3.4,3.6
			c1,0,1.7-0.1,2.2-0.4v-2.4c-0.4,0.2-0.7,0.3-1.1,0.3c-0.9,0-1.4-0.6-1.4-1.7v-4.6h2.5v-2.4h-2.5V32.3z M732,46.6
			c1.8,0,3.2-0.5,4.3-1.6c1-1,1.6-2.5,1.6-4.2c0-1.7-0.5-3-1.5-4c-1-1-2.4-1.5-4.1-1.5c-1.8,0-3.2,0.5-4.3,1.5
			c-1.1,1-1.6,2.4-1.6,4.2c0,1.7,0.5,3.1,1.5,4.1C728.8,46.1,730.2,46.6,732,46.6z M730.1,38.6c0.5-0.6,1.1-0.8,1.9-0.8
			c1.7,0,2.5,1.1,2.5,3.2c0,2.2-0.8,3.3-2.5,3.3c-1.8,0-2.6-1.1-2.6-3.2C729.5,39.9,729.7,39.1,730.1,38.6z M748.1,43.4
			c-0.8,0.5-1.6,0.8-2.5,0.8c-1,0-1.7-0.3-2.3-0.9c-0.6-0.6-0.8-1.3-0.8-2.3c0-1,0.3-1.8,0.9-2.4c0.6-0.6,1.4-0.9,2.3-0.9
			c0.9,0,1.6,0.3,2.4,0.8v-2.7c-0.6-0.3-1.5-0.5-2.7-0.5c-1.8,0-3.3,0.5-4.4,1.6c-1.1,1.1-1.6,2.5-1.6,4.3c0,1.6,0.5,2.9,1.5,3.9
			c1,1,2.3,1.5,4,1.5c1.4,0,2.5-0.2,3.2-0.7V43.4z M755.5,46.6c1.8,0,3.2-0.5,4.3-1.6c1-1,1.6-2.5,1.6-4.2c0-1.7-0.5-3-1.5-4
			c-1-1-2.4-1.5-4.1-1.5c-1.8,0-3.2,0.5-4.3,1.5c-1.1,1-1.6,2.4-1.6,4.2c0,1.7,0.5,3.1,1.5,4.1C752.3,46.1,753.7,46.6,755.5,46.6z
			 M753.6,38.6c0.5-0.6,1.1-0.8,1.9-0.8c1.7,0,2.5,1.1,2.5,3.2c0,2.2-0.8,3.3-2.5,3.3c-1.8,0-2.6-1.1-2.6-3.2
			C752.9,39.9,753.2,39.1,753.6,38.6z M766.6,30.4h-3.1v16h3.1V30.4z M171.9,33.3c-0.8-1.2-1.7-2.4-2.6-3.6l-2.3,1.3
			c1,1.4,1.7,2.7,2.4,3.8L171.9,33.3z M180.1,33.2h4.6v-2.5h-12v2.5h4.6v6.7h-5.5v2.5h5.5V49h2.9v-6.6h5.2v-2.5h-5.2V33.2z
			 M180.8,38.2l2.2,1l2.1-4.8l-2.4-0.9C182,35.4,181.3,37,180.8,38.2z M174.8,33.7l-2.5,0.7c0.6,1.5,1.1,3.1,1.7,4.6l2.5-0.8
			L174.8,33.7z M168,45.3c0,0.7-0.2,1.2-0.5,1.6l1.4,1.9c0.8-1,2.2-2.1,4.2-3.4c-0.2-0.8-0.3-1.7-0.4-2.9c-0.4,0.4-1.2,0.9-2.2,1.7
			v-8H166v2.5h2V45.3z M200,29.9h-2.9v3.5h-4.9v2.5h4.9V39h-4v9.8h2.7v-1.1h5.5v1.1h2.7V39H200v-3.1h5.1v-2.5H200V29.9z M201.4,41.5
			v3.7h-5.5v-3.7H201.4z M188.4,39.9v8.9h2.7V34.2c0.4-1.1,0.9-2.3,1.3-3.5l-2.6-0.8c-1.2,3.8-2.5,6.8-3.9,9.1
			c0.4,1.4,0.6,2.6,0.8,3.6C187.3,41.7,187.9,40.8,188.4,39.9z M205.9,43.8l0.5,2.9c1.8-0.5,3.8-1.1,6-1.6c0-1,0-2,0.1-2.9
			c-0.7,0.2-1.3,0.4-2,0.5v-9h1.9V31h-6.3v2.7h1.8v9.6L205.9,43.8z M215.7,37.1h5.9v6.6h2.7v-8.9h-4.8l0.4-1.9h5.2v-2.4h-11.8v2.4
			h3.7l-0.4,1.9h-3.5v9.1h2.7V37.1z M220.2,38.3h-2.6c0,2.3-0.5,4.1-1.4,5.4s-2.6,2.2-5,2.7c0.5,0.8,1,1.7,1.5,2.7
			c2.6-1,4.5-2.3,5.7-4.1c2.2,1.5,3.9,2.9,5.3,4l1.7-2.1c-2-1.5-4-2.8-6-4C219.9,41.6,220.1,40.1,220.2,38.3z M14.8,38.2l2.2,1
			l2.1-4.8l-2.4-0.9C16,35.4,15.4,37,14.8,38.2z M2,45.3c0,0.7-0.2,1.2-0.5,1.6l1.4,1.9c0.8-1,2.2-2.1,4.2-3.4
			c-0.2-0.8-0.3-1.7-0.4-2.9c-0.4,0.4-1.2,0.9-2.2,1.7v-8H0v2.5h2V45.3z M10.4,38.3l-1.6-4.6l-2.5,0.7C6.9,36,7.4,37.5,8,39.1
			L10.4,38.3z M5.9,33.3c-0.8-1.2-1.7-2.4-2.6-3.6L1.1,31c1,1.4,1.7,2.7,2.4,3.8L5.9,33.3z M11.3,39.9H5.8v2.5h5.5V49h2.9v-6.6h5.2
			v-2.5h-5.2v-6.7h4.6v-2.5h-12v2.5h4.6V39.9z M26.3,35.9h4.9V39h-4v9.8h2.7v-1.1h5.5v1.1h2.7V39H34v-3.1h5.1v-2.5H34v-3.5h-2.9v3.5
			h-4.9V35.9z M35.4,41.5v3.7h-5.5v-3.7H35.4z M22.4,48.8h2.7V34.2c0.4-1.1,0.9-2.3,1.3-3.5l-2.6-0.8c-1.2,3.8-2.5,6.8-3.9,9.1
			c0.4,1.4,0.6,2.6,0.8,3.6c0.6-0.8,1.1-1.7,1.6-2.6V48.8z M40.2,46.7c0.5,0.6,1,1.4,1.6,2.4c4.5-1.1,7.1-2.7,7.9-5
			c1.6,2.6,4.2,4.3,7.7,5.1c0.4-0.6,1-1.4,1.7-2.5c-3-0.3-5.3-1.3-7-2.9h6.8v-2.4h-8.2c0.1-0.4,0.1-0.7,0.1-1.1h-2.7
			c0,0.4,0,0.8-0.1,1.1h-7.8v2.4h6.9C46,45.2,43.6,46.2,40.2,46.7z M40.9,38.5c0.5,0.8,0.9,1.6,1.3,2.4c2.6-0.8,4.6-1.8,6.1-3v1.8
			h2.7v-1.6c2.6,1.1,4.7,2.1,6.4,2.9l1.1-2.2c-2-0.8-4.2-1.6-6.6-2.4h6.7V34h-4.3c0.9-0.7,2-1.5,3-2.4l-1.7-1.7
			c-1.2,1.1-2.4,2-3.3,2.8l1.3,1.3h-2.6v-4.2h-2.7V34h-2.5c0.9-1,1.4-1.4,1.4-1.5c-1.2-0.9-2.4-1.8-3.5-2.6l-1.5,1.6
			c1,0.8,2,1.6,2.9,2.4h-4.5v2.3h6C45.3,37.3,43.4,38,40.9,38.5z M399.9,46.6c1.8,0,3.2-0.3,4.3-0.8v-3c-1.1,0.7-2.3,1-3.7,1
			c-1.4,0-2.6-0.5-3.4-1.4c-0.8-0.9-1.3-2.1-1.3-3.6c0-1.5,0.4-2.8,1.3-3.7c0.9-0.9,2.1-1.4,3.5-1.4c1.3,0,2.5,0.3,3.5,0.9v-3.1
			c-1-0.4-2.2-0.6-3.7-0.6c-2.4,0-4.3,0.8-5.8,2.3c-1.5,1.5-2.2,3.5-2.2,5.9c0,2.3,0.7,4.1,2,5.5C395.8,45.9,397.6,46.6,399.9,46.6z
			 M412.7,46.6c1.8,0,3.2-0.3,4.3-0.8v-3c-1.1,0.7-2.3,1-3.7,1c-1.4,0-2.6-0.5-3.4-1.4c-0.8-0.9-1.3-2.1-1.3-3.6
			c0-1.5,0.4-2.8,1.3-3.7c0.9-0.9,2.1-1.4,3.5-1.4c1.3,0,2.5,0.3,3.5,0.9v-3.1c-1-0.4-2.2-0.6-3.7-0.6c-2.4,0-4.3,0.8-5.8,2.3
			c-1.5,1.5-2.2,3.5-2.2,5.9c0,2.3,0.7,4.1,2,5.5C408.6,45.9,410.4,46.6,412.7,46.6z M424.9,31.2h-5.2v15.1h5.2
			c2.4,0,4.3-0.7,5.8-2.1c1.5-1.4,2.3-3.3,2.3-5.6C432.9,33.7,430.3,31.2,424.9,31.2z M428.3,42.4c-0.9,0.9-2.1,1.4-3.6,1.4h-1.8
			v-9.9h1.7c1.5,0,2.6,0.4,3.6,1.3c0.9,0.8,1.4,2,1.4,3.5C429.6,40.2,429.1,41.4,428.3,42.4z M444.5,43.7h-5.7v-3.7h5v-2.6h-5v-3.6
			h5.4v-2.6h-8.6v15.1h9V43.7z M449.5,46.4l2.7-5c0.2-0.4,0.3-0.8,0.4-1h0c0.1,0.5,0.2,0.8,0.3,1l2.7,5h3.8l-4.7-7.6l4.6-7.5h-3.6
			l-2.5,4.6c-0.2,0.5-0.4,0.9-0.5,1.3h0c-0.1-0.5-0.3-0.9-0.5-1.3l-2.3-4.6h-3.9l4.4,7.6l-4.9,7.6H449.5z M1052.3,112.9
			c1.2,0,2.3,0.2,3.3,0.7v-1.1c-1.1-0.4-2.2-0.6-3.3-0.6c-2.2,0-4,0.7-5.4,2.2c-1.4,1.5-2.1,3.4-2.1,5.9c0,2.2,0.7,4,2,5.4
			c1.3,1.4,3,2.1,5.1,2.1c1.3,0,2.6-0.3,3.8-0.8v-1c-1.1,0.5-2.4,0.8-3.7,0.8c-1.7,0-3.2-0.6-4.3-1.8c-1.1-1.2-1.7-2.8-1.7-4.9
			c0-2.1,0.6-3.8,1.8-5.1C1048.8,113.6,1050.4,112.9,1052.3,112.9z M1066,113.2v-1h-7.1v15.1h7.4v-0.9h-6.4v-6.2h5.6v-0.9h-5.6v-6.1
			H1066z M1069.7,127.4l3.5-5.8c0.2-0.3,0.4-0.7,0.6-1.1h0c0.2,0.3,0.3,0.7,0.6,1.1l3.5,5.8h1.3l-4.6-7.6l4.5-7.5h-1.2l-3.4,5.7
			l-0.6,1h0c-0.2-0.4-0.4-0.7-0.5-1l-3.4-5.7h-1.3l4.5,7.5l-4.8,7.6H1069.7z M1054.1,156.9l-3.5,3.5l-3.5-3.5l-0.6,0.6l3.5,3.5
			l-3.5,3.5l0.6,0.6l3.5-3.5l3.5,3.5l0.6-0.6l-3.5-3.5l3.5-3.5L1054.1,156.9z M1045.1,209.9c4.6-2.5,7.3-6,8.2-10.2h0.9v6.9
			c-0.1,1.8,0.8,2.6,2.6,2.6h3.2c1.8,0.1,2.7-0.6,2.9-2c0.1-0.6,0.2-1.5,0.2-2.5c-0.3-0.1-0.6-0.2-1.1-0.4c0,0.9-0.1,1.7-0.2,2.4
			c-0.1,1.1-0.7,1.7-1.9,1.6h-2.7c-0.7,0-1.2-0.1-1.4-0.4c-0.3-0.2-0.4-0.7-0.4-1.3v-6.7h7.7v-1h-9.4c0.3-1.3,0.4-3,0.5-5.1h7.4v-1
			h-15.4v1h7c-0.1,2-0.2,3.7-0.5,5.1h-7.9v1h7.7c-0.8,3.9-3.4,7-7.9,9.3c0.1,0.1,0.2,0.2,0.3,0.4
			C1044.8,209.6,1045,209.8,1045.1,209.9z M1047.1,245.2l3.5-3.5l3.5,3.5l0.6-0.6l-3.5-3.5l3.5-3.5l-0.6-0.6l-3.5,3.5l-3.5-3.5
			l-0.6,0.6l3.5,3.5l-3.5,3.5L1047.1,245.2z M1047.1,325.2l3.5-3.5l3.5,3.5l0.6-0.6l-3.5-3.5l3.5-3.5l-0.6-0.6l-3.5,3.5l-3.5-3.5
			l-0.6,0.6l3.5,3.5l-3.5,3.5L1047.1,325.2z M1047.1,365.2l3.5-3.5l3.5,3.5l0.6-0.6l-3.5-3.5l3.5-3.5l-0.6-0.6l-3.5,3.5l-3.5-3.5
			l-0.6,0.6l3.5,3.5l-3.5,3.5L1047.1,365.2z M1060.5,400.2l-1-0.4c-0.7,2-1.5,3.5-2.4,4.6c-0.9-1.1-1.7-2.6-2.4-4.5l-1,0.4
			c0.8,2.1,1.7,3.8,2.7,4.8c-1.2,1.3-3.1,2.4-5.7,3.5c0.1,0.2,0.4,0.5,0.6,1c2.6-1.1,4.5-2.3,5.8-3.7c1.1,1.1,3,2.2,5.4,3.4
			c0.1-0.3,0.3-0.6,0.6-1c-2.4-1-4.2-2-5.3-3.1C1058.9,404,1059.7,402.4,1060.5,400.2z M1045.8,405.7c1.1-0.2,1.9-0.4,2.5-0.5v4.5h1
			v-4.7c0.5-0.1,1.3-0.2,2.2-0.4c0.2,0,0.3,0,0.3-0.1c0-0.5,0-0.9,0-1c-0.2,0-0.4,0.1-0.8,0.1c-0.8,0.1-1.4,0.3-1.8,0.3v-3.1h1.9v-1
			h-1.9v-3.8h-1v3.8h-2.6c0.6-1.7,1.2-3.4,1.8-5.2h4v-1h-3.7c0.3-1,0.6-1.9,0.8-2.8l-1-0.2c-0.3,1-0.5,2-0.8,3h-2.4v1h2.1
			c-0.6,1.8-1.2,3.6-1.9,5.2v0.9h3.7v3.3c-1.4,0.3-2.8,0.5-4.2,0.7l0.2,1C1044.6,406,1045.1,405.9,1045.8,405.7z M1062.8,394.1
			h-10.5v1h10.5V394.1z M1063,400.1c-1-1-2.3-2.4-4-4.1l-0.7,0.6c1.2,1.2,2.5,2.6,3.9,4.2L1063,400.1z M1052.4,401.1
			c1.3-1.4,2.6-2.9,3.8-4.5l-0.9-0.6c-1.1,1.7-2.4,3.1-3.7,4.4C1052,400.6,1052.2,400.9,1052.4,401.1z M1058.6,393.5
			c-0.3-0.7-0.8-1.5-1.4-2.6l-0.9,0.4c0.1,0.1,0.2,0.3,0.3,0.5c0.5,0.9,0.9,1.6,1.1,2.1L1058.6,393.5z M1081.9,407.3v-6.4h-16.6v8.8
			h1v-7.9h14.5v5.5c0,0.5-0.1,0.8-0.3,1c-0.2,0.2-0.6,0.3-1.2,0.3c-0.8,0-1.6,0-2.2-0.1c0.1,0.3,0.2,0.7,0.2,1.1c0.9,0,1.7,0,2.4,0
			C1081.3,409.5,1082,408.8,1081.9,407.3z M1077.8,403.4h-8.4v3.9h8.4V403.4z M1076.8,406.5h-6.4v-2.2h6.4V406.5z M1067.5,395.5v3.7
			h12.2v-3.7H1067.5z M1078.7,398.3h-10.2v-1.9h10.2V398.3z M1083,392.9h-8.6c-0.2-0.7-0.3-1.4-0.5-2l-1.1,0.2
			c0.2,0.8,0.4,1.4,0.5,1.8h-9.1v0.9h18.8V392.9z M1058.6,433.5c-0.3-0.7-0.8-1.5-1.4-2.6l-0.9,0.4c0.1,0.1,0.2,0.3,0.3,0.5
			c0.5,0.9,0.9,1.6,1.1,2.1L1058.6,433.5z M1058.3,436.7c1.2,1.2,2.5,2.6,3.9,4.2l0.8-0.8c-1-1-2.3-2.4-4-4.1L1058.3,436.7z
			 M1052.4,441.1c1.3-1.4,2.6-2.9,3.8-4.5l-0.9-0.6c-1.1,1.7-2.4,3.1-3.7,4.4C1052,440.6,1052.2,440.9,1052.4,441.1z M1052.3,435
			h10.5v-1h-10.5V435z M1045.8,445.7c1.1-0.2,1.9-0.4,2.5-0.5v4.5h1v-4.7c0.5-0.1,1.3-0.2,2.2-0.4c0.2,0,0.3,0,0.3-0.1
			c0-0.5,0-0.9,0-1c-0.2,0-0.4,0.1-0.8,0.1c-0.8,0.1-1.4,0.3-1.8,0.3v-3.1h1.9v-1h-1.9v-3.8h-1v3.8h-2.6c0.6-1.7,1.2-3.4,1.8-5.2h4
			v-1h-3.7c0.3-1,0.6-1.9,0.8-2.8l-1-0.2c-0.3,1-0.5,2-0.8,3h-2.4v1h2.1c-0.6,1.8-1.2,3.6-1.9,5.2v0.9h3.7v3.3
			c-1.4,0.3-2.8,0.5-4.2,0.7l0.2,1C1044.6,446,1045.1,445.9,1045.8,445.7z M1060.5,440.2l-1-0.4c-0.7,2-1.5,3.5-2.4,4.6
			c-0.9-1.1-1.7-2.6-2.4-4.5l-1,0.4c0.8,2.1,1.7,3.8,2.7,4.8c-1.2,1.3-3.1,2.4-5.7,3.5c0.1,0.2,0.4,0.5,0.6,1
			c2.6-1.1,4.5-2.3,5.8-3.7c1.1,1.1,3,2.2,5.4,3.4c0.1-0.3,0.3-0.6,0.6-1c-2.4-1-4.2-2-5.3-3.1
			C1058.9,444,1059.7,442.4,1060.5,440.2z M1078.6,447.5V444h3.9v-0.9h-3.9v-3.4h3.9v-0.9h-3.9v-3.3h4.2v-0.9h-9.1
			c0.4-0.9,0.9-2,1.4-3.3l-1-0.3c-1,3-2.4,5.7-4.3,8c0.1,0.1,0.3,0.3,0.7,0.8c0,0,0,0,0,0c0.5-0.7,1.1-1.5,1.6-2.3v12.3h1v-1.4h9.8
			v-0.9H1078.6z M1077.6,447.5h-4.4V444h4.4V447.5z M1077.6,443.1h-4.4v-3.4h4.4V443.1z M1077.6,438.8h-4.4v-3.2
			c0-0.1,0-0.1,0.1-0.2h4.3V438.8z M1078.3,434.3l1-0.5c-0.3-0.7-0.8-1.7-1.5-2.9l-0.9,0.4C1077.3,432.4,1077.8,433.4,1078.3,434.3z
			 M1068.1,443.6c0.1,0.2,0.2,0.4,0.4,0.7c0.8,1.5,1.4,2.6,1.7,3.3l0.9-0.5c-0.2-0.3-0.4-0.8-0.8-1.6c-0.7-1.4-1.3-2.4-1.7-3.2
			c0.7-1.9,1.2-4.6,1.6-7.9v-1h-5.8v1h4.7c-0.3,2.7-0.7,4.9-1.2,6.7c-0.9-1.8-1.8-3.4-2.7-5l-0.9,0.5c0.6,1.1,1.7,3.1,3.1,5.8
			c-0.8,2-1.9,3.9-3.5,5.7c0.3,0.3,0.6,0.6,0.8,0.9C1066.2,447.2,1067.3,445.4,1068.1,443.6z M1054.1,516.9l-3.5,3.5l-3.5-3.5
			l-0.6,0.6l3.5,3.5l-3.5,3.5l0.6,0.6l3.5-3.5l3.5,3.5l0.6-0.6l-3.5-3.5l3.5-3.5L1054.1,516.9z M1058.3,556.7
			c1.2,1.2,2.5,2.6,3.9,4.2l0.8-0.8c-1-1-2.3-2.4-4-4.1L1058.3,556.7z M1048.3,569.7h1v-4.7c0.5-0.1,1.3-0.2,2.2-0.4
			c0.2,0,0.3,0,0.3-0.1c0-0.5,0-0.9,0-1c-0.2,0-0.4,0.1-0.8,0.1c-0.8,0.1-1.4,0.3-1.8,0.3v-3.1h1.9v-1h-1.9v-3.8h-1v3.8h-2.6
			c0.6-1.7,1.2-3.4,1.8-5.2h4v-1h-3.7c0.3-1,0.6-1.9,0.8-2.8l-1-0.2c-0.3,1-0.5,2-0.8,3h-2.4v1h2.1c-0.6,1.8-1.2,3.6-1.9,5.2v0.9
			h3.7v3.3c-1.4,0.3-2.8,0.5-4.2,0.7l0.2,1c0.3-0.1,0.8-0.2,1.5-0.3c1.1-0.2,1.9-0.4,2.5-0.5V569.7z M1052.3,555h10.5v-1h-10.5V555z
			 M1060.5,560.2l-1-0.4c-0.7,2-1.5,3.5-2.4,4.6c-0.9-1.1-1.7-2.6-2.4-4.5l-1,0.4c0.8,2.1,1.7,3.8,2.7,4.8c-1.2,1.3-3.1,2.4-5.7,3.5
			c0.1,0.2,0.4,0.5,0.6,1c2.6-1.1,4.5-2.3,5.8-3.7c1.1,1.1,3,2.2,5.4,3.4c0.1-0.3,0.3-0.6,0.6-1c-2.4-1-4.2-2-5.3-3.1
			C1058.9,564,1059.7,562.4,1060.5,560.2z M1058.6,553.5c-0.3-0.7-0.8-1.5-1.4-2.6l-0.9,0.4c0.1,0.1,0.2,0.3,0.3,0.5
			c0.5,0.9,0.9,1.6,1.1,2.1L1058.6,553.5z M1052.4,561.1c1.3-1.4,2.6-2.9,3.8-4.5l-0.9-0.6c-1.1,1.7-2.4,3.1-3.7,4.4
			C1052,560.6,1052.2,560.9,1052.4,561.1z M1073.9,550.9l-1.1,0.2c0.2,0.8,0.4,1.4,0.5,1.8h-9.1v0.9h18.8v-0.9h-8.6
			C1074.2,552.2,1074,551.6,1073.9,550.9z M1077.8,563.4h-8.4v3.9h8.4V563.4z M1076.8,566.5h-6.4v-2.2h6.4V566.5z M1067.5,555.5v3.7
			h12.2v-3.7H1067.5z M1078.7,558.3h-10.2v-1.9h10.2V558.3z M1065.3,569.7h1v-7.9h14.5v5.5c0,0.5-0.1,0.8-0.3,1
			c-0.2,0.2-0.6,0.3-1.2,0.3c-0.8,0-1.6,0-2.2-0.1c0.1,0.3,0.2,0.7,0.2,1.1c0.9,0,1.7,0,2.4,0c1.5,0,2.2-0.7,2.1-2.2v-6.4h-16.6
			V569.7z M1054.1,596.9l-3.5,3.5l-3.5-3.5l-0.6,0.6l3.5,3.5l-3.5,3.5l0.6,0.6l3.5-3.5l3.5,3.5l0.6-0.6l-3.5-3.5l3.5-3.5
			L1054.1,596.9z M1054.1,636.9l-3.5,3.5l-3.5-3.5l-0.6,0.6l3.5,3.5l-3.5,3.5l0.6,0.6l3.5-3.5l3.5,3.5l0.6-0.6l-3.5-3.5l3.5-3.5
			L1054.1,636.9z M1054.1,716.9l-3.5,3.5l-3.5-3.5l-0.6,0.6l3.5,3.5l-3.5,3.5l0.6,0.6l3.5-3.5l3.5,3.5l0.6-0.6l-3.5-3.5l3.5-3.5
			L1054.1,716.9z M1054.1,756.9l-3.5,3.5l-3.5-3.5l-0.6,0.6l3.5,3.5l-3.5,3.5l0.6,0.6l3.5-3.5l3.5,3.5l0.6-0.6l-3.5-3.5l3.5-3.5
			L1054.1,756.9z M1054.1,796.9l-3.5,3.5l-3.5-3.5l-0.6,0.6l3.5,3.5l-3.5,3.5l0.6,0.6l3.5-3.5l3.5,3.5l0.6-0.6l-3.5-3.5l3.5-3.5
			L1054.1,796.9z M862,117.6c0-2.4-0.7-4.2-2-5.5c-1.3-1.3-3.2-1.9-5.7-1.9h-3.8v15.1h3.6c2.5,0,4.4-0.7,5.8-2.2
			C861.3,121.8,862,119.9,862,117.6z M854,124.4h-2.4v-13.2h2.6c4.5,0,6.8,2.1,6.8,6.4c0,2.2-0.6,3.9-1.8,5
			C857.9,123.8,856.2,124.4,854,124.4z M866.2,118.2h5.6v-0.9h-5.6v-6.1h6v-1h-7.1v15.1h7.4v-0.9h-6.4V118.2z M885.3,110.2H884
			l-3.4,5.7l-0.6,1h0c-0.2-0.4-0.4-0.7-0.5-1l-3.4-5.7h-1.3l4.5,7.5l-4.8,7.6h1.3l3.5-5.8c0.2-0.3,0.4-0.7,0.6-1.1h0
			c0.2,0.3,0.3,0.7,0.6,1.1l3.5,5.8h1.3l-4.6-7.6L885.3,110.2z M893.6,114.3h-0.9v4.3h-4.3v0.9h4.3v4.3h0.9v-4.3h4.3v-0.9h-4.3
			V114.3z M908.3,110.4l-1.1-0.4c-1.5,3.3-3.6,6-6.5,8.2c0.4,0.3,0.7,0.6,0.9,0.9C904.5,116.7,906.7,113.8,908.3,110.4z M913,109.6
			L912,110c1.3,3.4,3.5,6.3,6.7,8.6c0.2-0.3,0.5-0.6,0.9-1C916.5,115.7,914.3,113,913,109.6z M911.9,121c1.4,1.6,2.5,3,3.3,3.9
			c-2.5,0.1-5.6,0.2-9.3,0.4c-0.6,0-1,0-1.3,0c2.1-2.5,4-5.1,5.7-7.9l-1.2-0.6c-1.6,2.9-3.4,5.4-5.3,7.5c-0.4,0.4-0.9,0.8-1.4,1
			l0.5,1.2c0.5-0.1,1.2-0.2,2-0.2c2.9-0.2,6.6-0.3,11-0.5c0.5,0.6,0.9,1.2,1.4,1.8l1-0.8c-1.9-2.3-3.8-4.5-5.6-6.6L911.9,121z
			 M935.2,125.4h1v-3.1h3.2v-0.9h-3.2v-2.9h2.7v-0.9h-2.7v-3.5h-1v3.5h-2.7c0.6-1.5,1.2-3.1,1.7-4.9h5v-0.9h-4.7
			c0.2-0.7,0.5-1.5,0.7-2.5l-1-0.2c-0.2,0.9-0.5,1.8-0.7,2.7h-2.3v0.9h2c-0.5,1.8-1.1,3.4-1.7,4.7v1.2h3.7v2.9h-4.3v0.9h4.3V125.4z
			 M926.5,122.8l-2.3,2.2v-4.7h2.6v-0.9h-2.6v-2.8h1.9v-0.9H922v0.9h1.2v2.8h-2.5v0.9h2.5v4.2c0,0.4,0,0.7-0.1,1
			c-0.1,0.3-0.2,0.5-0.4,0.8l0.7,0.8c0.3-0.4,0.6-0.6,0.8-0.8c0.7-0.7,1.6-1.5,2.5-2.3L926.5,122.8z M934,126.2
			c-1.9,0-3.4-0.7-4.4-2.2v-7.9h-2.5v0.9h1.6v6.9c-0.1,0.1-0.1,0.2-0.3,0.3c-0.9,1.1-1.6,2-2.1,2.6l0.8,0.7c0.7-1.1,1.4-2,2-2.7
			c1.1,1.5,2.7,2.3,4.8,2.3c2.2,0.1,4,0.1,5.4,0.1c0.1-0.4,0.2-0.7,0.3-1.1c-0.9,0-1.9,0-2.8,0C935.9,126.2,934.9,126.2,934,126.2z
			 M930.1,113.2c-0.3-1-0.8-2.3-1.5-3.9l-0.9,0.3c0.6,1.5,1,2.8,1.4,3.9L930.1,113.2z M923,113h3.7v-0.9h-3.3
			c0.3-0.7,0.6-1.7,0.9-2.8l-1-0.2c-0.7,2.5-1.6,4.7-2.7,6.5c0.3,0.2,0.6,0.5,0.8,0.7C922.1,115,922.6,113.9,923,113z M859.2,154.9
			l-3.5,3.5l-3.5-3.5l-0.6,0.6l3.5,3.5l-3.5,3.5l0.6,0.6l3.5-3.5l3.5,3.5l0.6-0.6l-3.5-3.5l3.5-3.5L859.2,154.9z M849.4,199.1
			c0.8-0.9,1.5-2.1,2.3-3.4v12.1h1v-14c0.7-1.3,1.3-2.8,2-4.5l-1-0.4c-1.2,3.5-2.8,6.5-4.8,9c0,0,0,0.1,0.1,0.1
			C849.2,198.4,849.3,198.8,849.4,199.1z M867,205.5c-0.1,0.6-0.4,0.9-0.7,0.9c-0.5,0-1-0.4-1.4-1.1c-1.2-1.8-1.9-4.3-2.1-7.7h5.2
			v-1h-5.3c-0.1-1.9-0.2-3.7-0.2-5.4c0.1,0,0.3,0,0.6,0c1.9-0.1,3.4-0.3,4.6-0.4l-0.4-1c-3.7,0.4-7.5,0.6-11.4,0.7v13.7
			c0,0.4,0,0.7-0.1,1c-0.1,0.3-0.2,0.5-0.4,0.8l0.8,0.9c0.4-0.3,0.7-0.6,0.9-0.7c1.1-0.7,2.4-1.4,3.8-2.2c-0.1-0.5-0.2-0.8-0.2-1
			c-1.3,0.8-2.5,1.5-3.7,2.1v-7.5h4.7c0.3,3.6,1,6.4,2.2,8.1c0.7,1.1,1.5,1.7,2.4,1.7c0.9,0,1.4-0.5,1.6-1.5
			c0.1-0.6,0.3-1.5,0.4-2.8c-0.2,0-0.5-0.1-1-0.3C867.2,203.8,867.1,204.6,867,205.5z M856.9,196.6v-5.1c1.3,0,2.8-0.1,4.4-0.2
			c0,2.2,0.1,3.9,0.2,5.3H856.9z M860.9,205.4c-0.2-0.1-0.3-0.3-0.4-0.3l-0.7,0.6c0.8,0.8,1.4,1.5,1.9,2l0.8-0.7
			C862.2,206.7,861.7,206.2,860.9,205.4z M855.5,243.8l-3-7.5h-2.4v0.9h1.7l3.4,8.2h0.8l4-16h-0.9L855.5,243.8z M852.1,323.2
			l3.5-3.5l3.5,3.5l0.6-0.6l-3.5-3.5l3.5-3.5l-0.6-0.6l-3.5,3.5l-3.5-3.5l-0.6,0.6l3.5,3.5l-3.5,3.5L852.1,323.2z M852.1,363.2
			l3.5-3.5l3.5,3.5l0.6-0.6l-3.5-3.5l3.5-3.5l-0.6-0.6l-3.5,3.5l-3.5-3.5l-0.6,0.6l3.5,3.5l-3.5,3.5L852.1,363.2z M866.8,401.7v-8.5
			h-7.6v-4.3h-1.1v4.3h-7.6v8.5h1.1v-1.1h6.5v7.3h1.1v-7.3h6.6v1.1H866.8z M858.1,399.6h-6.5v-5.4h6.5V399.6z M859.2,399.6v-5.4h6.6
			v5.4H859.2z M863.6,442h3.9v-0.9h-3.9v-3.4h3.9v-0.9h-3.9v-3.3h4.2v-0.9h-9.1c0.4-0.9,0.9-2,1.4-3.3l-1-0.3c-1,3-2.4,5.7-4.3,8
			c0.1,0.1,0.3,0.3,0.7,0.8c0,0,0,0,0,0c0.5-0.7,1.1-1.5,1.6-2.3v12.3h1v-1.4h9.8v-0.9h-4.4V442z M862.6,445.5h-4.4V442h4.4V445.5z
			 M862.6,441.1h-4.4v-3.4h4.4V441.1z M862.6,436.8h-4.4v-3.2c0-0.1,0-0.1,0.1-0.2h4.3V436.8z M863.3,432.3l1-0.5
			c-0.3-0.7-0.8-1.7-1.5-2.9l-0.9,0.4C862.3,430.4,862.8,431.4,863.3,432.3z M853.1,441.6c0.1,0.2,0.2,0.4,0.4,0.7
			c0.8,1.5,1.4,2.6,1.7,3.3l0.9-0.5c-0.2-0.3-0.4-0.8-0.8-1.6c-0.7-1.4-1.3-2.4-1.7-3.2c0.7-1.9,1.2-4.6,1.6-7.9v-1h-5.8v1h4.7
			c-0.3,2.7-0.7,4.9-1.2,6.7c-0.9-1.8-1.8-3.4-2.7-5l-0.9,0.5c0.6,1.1,1.7,3.1,3.1,5.8c-0.8,2-1.9,3.9-3.5,5.7
			c0.3,0.3,0.6,0.6,0.8,0.9C851.2,445.2,852.3,443.4,853.1,441.6z M859.2,514.9l-3.5,3.5l-3.5-3.5l-0.6,0.6l3.5,3.5l-3.5,3.5
			l0.6,0.6l3.5-3.5l3.5,3.5l0.6-0.6l-3.5-3.5l3.5-3.5L859.2,514.9z M850.3,567.7h1v-7.9h14.5v5.5c0,0.5-0.1,0.8-0.3,1
			c-0.2,0.2-0.6,0.3-1.2,0.3c-0.8,0-1.6,0-2.2-0.1c0.1,0.3,0.2,0.7,0.2,1.1c0.9,0,1.7,0,2.4,0c1.5,0,2.2-0.7,2.1-2.2v-6.4h-16.6
			V567.7z M862.8,561.4h-8.4v3.9h8.4V561.4z M861.8,564.5h-6.4v-2.2h6.4V564.5z M858.9,548.9l-1.1,0.2c0.2,0.8,0.4,1.4,0.5,1.8h-9.1
			v0.9H868v-0.9h-8.6C859.2,550.2,859,549.6,858.9,548.9z M852.5,553.5v3.7h12.2v-3.7H852.5z M863.7,556.3h-10.2v-1.9h10.2V556.3z
			 M855.5,603.8l-3-7.5h-2.4v0.9h1.7l3.4,8.2h0.8l4-16h-0.9L855.5,603.8z M855.5,643.8l-3-7.5h-2.4v0.9h1.7l3.4,8.2h0.8l4-16h-0.9
			L855.5,643.8z M859.2,714.9l-3.5,3.5l-3.5-3.5l-0.6,0.6l3.5,3.5l-3.5,3.5l0.6,0.6l3.5-3.5l3.5,3.5l0.6-0.6l-3.5-3.5l3.5-3.5
			L859.2,714.9z M859.2,754.9l-3.5,3.5l-3.5-3.5l-0.6,0.6l3.5,3.5l-3.5,3.5l0.6,0.6l3.5-3.5l3.5,3.5l0.6-0.6l-3.5-3.5l3.5-3.5
			L859.2,754.9z M859.2,794.9l-3.5,3.5l-3.5-3.5l-0.6,0.6l3.5,3.5l-3.5,3.5l0.6,0.6l3.5-3.5l3.5,3.5l0.6-0.6l-3.5-3.5l3.5-3.5
			L859.2,794.9z M664.9,123.2c1.4-1.4,2.1-3.3,2.1-5.6c0-2.4-0.7-4.2-2-5.5c-1.3-1.3-3.2-1.9-5.7-1.9h-3.8v15.1h3.6
			C661.6,125.4,663.5,124.6,664.9,123.2z M656.6,124.4v-13.2h2.6c4.5,0,6.8,2.1,6.8,6.4c0,2.2-0.6,3.9-1.8,5
			c-1.2,1.2-2.9,1.7-5.2,1.7H656.6z M677.2,111.2v-1h-7.1v15.1h7.4v-0.9h-6.4v-6.2h5.6v-0.9h-5.6v-6.1H677.2z M680.9,125.4l3.5-5.8
			c0.2-0.3,0.4-0.7,0.6-1.1h0c0.2,0.3,0.3,0.7,0.6,1.1l3.5,5.8h1.3l-4.6-7.6l4.5-7.5H689l-3.4,5.7l-0.6,1h0c-0.2-0.4-0.4-0.7-0.5-1
			l-3.4-5.7h-1.3l4.5,7.5l-4.8,7.6H680.9z M698.6,114.3h-0.9v4.3h-4.3v0.9h4.3v4.3h0.9v-4.3h4.3v-0.9h-4.3V114.3z M719.5,117.9
			l-1-0.4c-1,2.2-2.1,3.9-3.3,5c-1.3-1.2-2.4-2.8-3.4-4.8l-1,0.5c1.1,2.2,2.3,3.9,3.5,5c-1.6,1.3-4.4,2.5-8.4,3.5l0.6,1.1
			c4.1-1.2,7-2.5,8.6-3.9c1.7,1.4,4.6,2.7,8.5,3.7c0.2-0.5,0.4-0.9,0.6-1.1c-3.7-0.8-6.5-2-8.3-3.4
			C717.3,121.9,718.4,120.1,719.5,117.9z M724,118c-2.1-1.4-4.1-2.7-5.9-3.9l-0.7,0.8c2.1,1.4,4.1,2.8,5.8,4.1L724,118z
			 M716.3,111.4c-0.4-0.8-0.9-1.6-1.4-2.5l-1,0.5c0.6,0.9,1,1.7,1.4,2.5h-9.1v1h18.2v-1h-8.9L716.3,111.4z M712.1,114.1
			c-1.8,1.7-3.8,3.1-5.8,4.3c0.3,0.4,0.5,0.7,0.7,1c2.2-1.5,4.1-2.9,5.9-4.4L712.1,114.1z M731.9,117.6l-1-0.4
			c-1.3,1.8-2.9,3.4-5,4.6c0.3,0.3,0.5,0.6,0.7,0.8c1.3-0.8,2.4-1.6,3.3-2.6h3.6c-1.1,2.4-3.7,4.3-7.7,5.8c0.3,0.3,0.5,0.6,0.7,0.9
			c4.2-1.6,6.9-3.8,8.1-6.7h3.3c-0.6,2.9-2.8,5.3-6.5,7c0.2,0.2,0.5,0.5,0.7,0.9c3.9-1.8,6.2-4.5,6.9-7.8h3.2c0,0.9-0.1,2.1-0.2,3.5
			c0,2-0.9,2.9-2.5,2.9c-0.1,0-0.2,0-0.3,0c-0.8,0-1.7,0-2.5-0.1c0.1,0.4,0.2,0.8,0.2,1.1c0.9,0,1.7,0,2.3,0
			c2.5,0.1,3.8-1.2,3.8-3.9c0.1-1.6,0.2-3.1,0.2-4.5h-12.5C731.1,118.6,731.5,118.1,731.9,117.6z M728.4,116.9h13.9v-7.1h-13.9
			V116.9z M729.4,110.7h11.9v2.1h-11.9V110.7z M729.4,113.8h11.9v2.2h-11.9V113.8z M753.2,116.9l-1-0.3c-0.6,1.6-1.3,3.3-2.1,5
			c0.4,0.1,0.7,0.2,1,0.4C751.9,120.4,752.6,118.7,753.2,116.9z M756.6,110.1c0-0.5,0-0.8,0-1.1h-1.1c0,1.3,0,2.6-0.1,4h-3.3v1h3.3
			c0,1.2-0.1,2.2-0.1,2.9c-0.1,4.6-1.7,7.9-4.8,10.1c0.3,0.3,0.6,0.5,0.9,0.8c3.2-2.3,4.9-6,5-11c0-0.6,0.1-1.5,0.1-2.7h3.7
			c0,3.2-0.1,6.5-0.3,10.1c0,1.5-0.6,2.2-1.8,2.1c-0.8,0-1.5,0-2.2-0.1c0.1,0.2,0.1,0.6,0.2,1.2c1,0,1.7,0,2.1,0
			c1.9,0.1,2.8-1,2.8-3.3c0.1-4.1,0.3-7.7,0.3-11h-4.8C756.6,112.4,756.6,111.4,756.6,110.1z M761.8,117c0.8,1.6,1.4,3.1,2,4.6
			l1-0.4c-0.5-1.3-1.2-2.8-2.1-4.6L761.8,117z M751.1,114.7h-2.2V109h-1.1v5.7h-2.2v1h2.2v12h1.1v-12h2.2V114.7z M772,121.8
			c-0.9,0.7-1.9,1.5-2.9,2.3v-8.6h-3.4v1h2.4v7.2c0,0.6-0.2,1.2-0.6,1.6l0.8,0.8c0.2-0.2,0.5-0.5,0.8-0.8c1.1-0.9,2.2-1.8,3.1-2.5
			C772.2,122.5,772.1,122.1,772,121.8z M783.1,110.4l-1.1-0.2c-0.6,4.6-2.1,8.2-4.4,10.9c-2.4-2.8-3.9-6.4-4.4-10.9l-1.1,0.2
			c0.6,4.9,2.2,8.7,4.7,11.6c-1.7,1.7-3.9,3.3-6.6,4.7c0.3,0.4,0.6,0.8,0.8,1.1c2.9-1.7,5.1-3.3,6.6-4.9c1.6,1.7,3.7,3.2,6.3,4.7
			c0.2-0.4,0.5-0.8,0.8-1.1c-2.6-1.3-4.7-2.8-6.4-4.5C780.6,119.3,782.2,115.4,783.1,110.4z M779,113.2c-0.7-1.3-1.5-2.7-2.4-4
			l-0.9,0.5c0.7,1.2,1.5,2.5,2.3,4.1L779,113.2z M770.3,112.5c-0.8-1-1.7-2-2.7-3l-0.8,0.6c0.8,0.9,1.7,1.9,2.6,3.1L770.3,112.5z
			 M655.1,157.2h1.7l3.4,8.2h0.8l4-16h-0.9l-3.6,14.5l-3-7.5h-2.4V157.2z M673,190.9h-8.6c-0.2-0.7-0.3-1.4-0.5-2l-1.1,0.2
			c0.2,0.8,0.4,1.4,0.5,1.8h-9.1v0.9H673V190.9z M669.8,207.5c1.5,0,2.2-0.7,2.1-2.2v-6.4h-16.6v8.8h1v-7.9h14.5v5.5
			c0,0.5-0.1,0.8-0.3,1c-0.2,0.2-0.6,0.3-1.2,0.3c-0.8,0-1.6,0-2.2-0.1c0.1,0.3,0.2,0.7,0.2,1.1
			C668.3,207.5,669.1,207.5,669.8,207.5z M657.5,193.5v3.7h12.2v-3.7H657.5z M668.7,196.3h-10.2v-1.9h10.2V196.3z M667.8,201.4h-8.4
			v3.9h8.4V201.4z M666.8,204.5h-6.4v-2.2h6.4V204.5z M664.2,234.9l-3.5,3.5l-3.5-3.5l-0.6,0.6l3.5,3.5l-3.5,3.5l0.6,0.6l3.5-3.5
			l3.5,3.5l0.6-0.6l-3.5-3.5l3.5-3.5L664.2,234.9z M664.2,314.9l-3.5,3.5l-3.5-3.5l-0.6,0.6l3.5,3.5l-3.5,3.5l0.6,0.6l3.5-3.5
			l3.5,3.5l0.6-0.6l-3.5-3.5l3.5-3.5L664.2,314.9z M664.2,354.9l-3.5,3.5l-3.5-3.5l-0.6,0.6l3.5,3.5l-3.5,3.5l0.6,0.6l3.5-3.5
			l3.5,3.5l0.6-0.6l-3.5-3.5l3.5-3.5L664.2,354.9z M656.8,395.7v12.1h1v-14c0.7-1.3,1.3-2.8,2-4.5l-1-0.4c-1.2,3.5-2.8,6.5-4.8,9
			c0,0,0,0.1,0.1,0.1c0.2,0.3,0.3,0.7,0.4,1C655.2,398.1,656,397,656.8,395.7z M672,405.5c-0.1,0.6-0.4,0.9-0.7,0.9
			c-0.5,0-1-0.4-1.4-1.1c-1.2-1.8-1.9-4.3-2.1-7.7h5.2v-1h-5.3c-0.1-1.9-0.2-3.7-0.2-5.4c0.1,0,0.3,0,0.6,0c1.9-0.1,3.4-0.3,4.6-0.4
			l-0.4-1c-3.7,0.4-7.5,0.6-11.4,0.7v13.7c0,0.4,0,0.7-0.1,1c-0.1,0.3-0.2,0.5-0.4,0.8l0.8,0.9c0.4-0.3,0.7-0.6,0.9-0.7
			c1.1-0.7,2.4-1.4,3.8-2.2c-0.1-0.5-0.2-0.8-0.2-1c-1.3,0.8-2.5,1.5-3.7,2.1v-7.5h4.7c0.3,3.6,1,6.4,2.2,8.1
			c0.7,1.1,1.5,1.7,2.4,1.7c0.9,0,1.4-0.5,1.6-1.5c0.1-0.6,0.3-1.5,0.4-2.8c-0.2,0-0.5-0.1-1-0.3C672.2,403.8,672.1,404.6,672,405.5
			z M661.9,396.6v-5.1c1.3,0,2.8-0.1,4.4-0.2c0,2.2,0.1,3.9,0.2,5.3H661.9z M665.9,405.4c-0.2-0.1-0.3-0.3-0.4-0.3l-0.7,0.6
			c0.8,0.8,1.4,1.5,1.9,2l0.8-0.7C667.2,406.7,666.7,406.2,665.9,405.4z M663.1,428.9v4.3h-7.6v8.5h1.1v-1.1h6.5v7.3h1.1v-7.3h6.6
			v1.1h1.1v-8.5h-7.6v-4.3H663.1z M663.1,439.6h-6.5v-5.4h6.5V439.6z M670.7,434.2v5.4h-6.6v-5.4H670.7z M678.2,443.4
			c1,0.9,1.9,1.7,2.8,2.6l0.8-0.7c-0.9-0.9-1.9-1.7-2.8-2.5L678.2,443.4z M680.3,434.4l0.8-0.6c-0.6-0.7-1.2-1.3-1.7-1.8l-0.8,0.6
			C679.2,433.2,679.8,433.9,680.3,434.4z M684,436.1h7.7v-0.9H684v-1.3h-1.1v1.3h-7.4v0.9h7.4v2.3h-8.7v0.9H693v-0.9h-9V436.1z
			 M689.1,434.5l0.8-0.7c-0.7-0.7-1.3-1.3-1.9-1.8l-0.7,0.6C687.8,433.1,688.4,433.8,689.1,434.5z M688.2,440.1h-1.1v1.4h-12.2v0.9
			h12.2v2.5c0,0.6-0.1,1-0.4,1.3c-0.2,0.2-0.6,0.4-1.2,0.4c-0.9,0-1.7,0-2.6-0.1c0.1,0.3,0.2,0.7,0.3,1.1c1.2,0,2,0,2.6,0
			c1.7,0,2.5-0.8,2.5-2.4v-2.7h4.2v-0.9h-4.2V440.1z M677.4,431.7h6.3v-0.9H678c0.3-0.4,0.6-1,1-1.8l-1-0.2c-1,2-2.3,3.7-3.9,4.9
			c0.3,0.2,0.6,0.5,0.8,0.8C675.9,433.6,676.7,432.7,677.4,431.7z M692.9,430.8h-6.5c0.3-0.5,0.6-1.1,1-1.8l-1.1-0.2
			c-0.6,1.5-1.6,2.9-2.9,4.2c0.4,0.2,0.7,0.4,0.9,0.6c0.6-0.7,1.1-1.3,1.5-1.9h7.1V430.8z M660.5,523.8l-3-7.5h-2.4v0.9h1.7l3.4,8.2
			h0.8l4-16h-0.9L660.5,523.8z M667.8,561.4h-8.4v3.9h8.4V561.4z M666.8,564.5h-6.4v-2.2h6.4V564.5z M663.9,548.9l-1.1,0.2
			c0.2,0.8,0.4,1.4,0.5,1.8h-9.1v0.9H673v-0.9h-8.6C664.2,550.2,664.1,549.6,663.9,548.9z M657.5,553.5v3.7h12.2v-3.7H657.5z
			 M668.7,556.3h-10.2v-1.9h10.2V556.3z M655.3,567.7h1v-7.9h14.5v5.5c0,0.5-0.1,0.8-0.3,1c-0.2,0.2-0.6,0.3-1.2,0.3
			c-0.8,0-1.6,0-2.2-0.1c0.1,0.3,0.2,0.7,0.2,1.1c0.9,0,1.7,0,2.4,0c1.5,0,2.2-0.7,2.1-2.2v-6.4h-16.6V567.7z M660.5,603.8l-3-7.5
			h-2.4v0.9h1.7l3.4,8.2h0.8l4-16h-0.9L660.5,603.8z M657.1,643.2l3.5-3.5l3.5,3.5l0.6-0.6l-3.5-3.5l3.5-3.5l-0.6-0.6l-3.5,3.5
			l-3.5-3.5l-0.6,0.6l3.5,3.5l-3.5,3.5L657.1,643.2z M660.5,723.8l-3-7.5h-2.4v0.9h1.7l3.4,8.2h0.8l4-16h-0.9L660.5,723.8z
			 M657.1,763.2l3.5-3.5l3.5,3.5l0.6-0.6l-3.5-3.5l3.5-3.5l-0.6-0.6l-3.5,3.5l-3.5-3.5l-0.6,0.6l3.5,3.5l-3.5,3.5L657.1,763.2z
			 M660.5,803.8l-3-7.5h-2.4v0.9h1.7l3.4,8.2h0.8l4-16h-0.9L660.5,803.8z M403.1,112.1c-1.3-1.3-3.2-1.9-5.7-1.9h-3.8v15.1h3.6
			c2.5,0,4.4-0.7,5.8-2.2c1.4-1.4,2.1-3.3,2.1-5.6C405,115.2,404.4,113.4,403.1,112.1z M402.1,122.7c-1.2,1.2-2.9,1.7-5.2,1.7h-2.4
			v-13.2h2.6c4.5,0,6.8,2.1,6.8,6.4C404,119.8,403.4,121.5,402.1,122.7z M415.2,111.2v-1h-7.1v15.1h7.4v-0.9h-6.4v-6.2h5.6v-0.9
			h-5.6v-6.1H415.2z M418.9,125.4l3.5-5.8c0.2-0.3,0.4-0.7,0.6-1.1h0c0.2,0.3,0.3,0.7,0.6,1.1l3.5,5.8h1.3l-4.6-7.6l4.5-7.5h-1.2
			l-3.4,5.7l-0.6,1h0c-0.2-0.4-0.4-0.7-0.5-1l-3.4-5.7h-1.3l4.5,7.5l-4.8,7.6H418.9z M436.6,114.3h-0.9v4.3h-4.3v0.9h4.3v4.3h0.9
			v-4.3h4.3v-0.9h-4.3V114.3z M450.1,114.1c-1.8,1.7-3.8,3.1-5.8,4.3c0.3,0.4,0.5,0.7,0.7,1c2.2-1.5,4.1-2.9,5.9-4.4L450.1,114.1z
			 M457.5,117.9l-1-0.4c-1,2.2-2.1,3.9-3.3,5c-1.3-1.2-2.4-2.8-3.4-4.8l-1,0.5c1.1,2.2,2.3,3.9,3.5,5c-1.6,1.3-4.4,2.5-8.4,3.5
			l0.6,1.1c4.1-1.2,7-2.5,8.6-3.9c1.7,1.4,4.6,2.7,8.5,3.7c0.2-0.5,0.4-0.9,0.6-1.1c-3.7-0.8-6.5-2-8.3-3.4
			C455.3,121.9,456.4,120.1,457.5,117.9z M454.3,111.4c-0.4-0.8-0.9-1.6-1.4-2.5l-1,0.5c0.6,0.9,1,1.7,1.4,2.5h-9.1v1h18.2v-1h-8.9
			L454.3,111.4z M462,118c-2.1-1.4-4.1-2.7-5.9-3.9l-0.7,0.8c2.1,1.4,4.1,2.8,5.8,4.1L462,118z M480.3,109.8h-13.9v7.1h13.9V109.8z
			 M479.3,116h-11.9v-2.2h11.9V116z M479.3,112.9h-11.9v-2.1h11.9V112.9z M469.9,117.6l-1-0.4c-1.3,1.8-2.9,3.4-5,4.6
			c0.3,0.3,0.5,0.6,0.7,0.8c1.3-0.8,2.4-1.6,3.3-2.6h3.6c-1.1,2.4-3.7,4.3-7.7,5.8c0.3,0.3,0.5,0.6,0.7,0.9c4.2-1.6,6.9-3.8,8.1-6.7
			h3.3c-0.6,2.9-2.8,5.3-6.5,7c0.2,0.2,0.5,0.5,0.7,0.9c3.9-1.8,6.2-4.5,6.9-7.8h3.2c0,0.9-0.1,2.1-0.2,3.5c0,2-0.9,2.9-2.5,2.9
			c-0.1,0-0.2,0-0.3,0c-0.8,0-1.7,0-2.5-0.1c0.1,0.4,0.2,0.8,0.2,1.1c0.9,0,1.7,0,2.3,0c2.5,0.1,3.8-1.2,3.8-3.9
			c0.1-1.6,0.2-3.1,0.2-4.5h-12.5C469.1,118.6,469.5,118.1,469.9,117.6z M499.8,117c0.8,1.6,1.4,3.1,2,4.6l1-0.4
			c-0.5-1.3-1.2-2.8-2.1-4.6L499.8,117z M491.2,116.9l-1-0.3c-0.6,1.6-1.3,3.3-2.1,5c0.4,0.1,0.7,0.2,1,0.4
			C489.9,120.4,490.6,118.7,491.2,116.9z M494.6,110.1c0-0.5,0-0.8,0-1.1h-1.1c0,1.3,0,2.6-0.1,4h-3.3v1h3.3c0,1.2-0.1,2.2-0.1,2.9
			c-0.1,4.6-1.7,7.9-4.8,10.1c0.3,0.3,0.6,0.5,0.9,0.8c3.2-2.3,4.9-6,5-11c0-0.6,0.1-1.5,0.1-2.7h3.7c0,3.2-0.1,6.5-0.3,10.1
			c0,1.5-0.6,2.2-1.8,2.1c-0.8,0-1.5,0-2.2-0.1c0.1,0.2,0.1,0.6,0.2,1.2c1,0,1.7,0,2.1,0c1.9,0.1,2.8-1,2.8-3.3
			c0.1-4.1,0.3-7.7,0.3-11h-4.8C494.6,112.4,494.6,111.4,494.6,110.1z M489.1,114.7h-2.2V109h-1.1v5.7h-2.2v1h2.2v12h1.1v-12h2.2
			V114.7z M517,113.2c-0.7-1.3-1.5-2.7-2.4-4l-0.9,0.5c0.7,1.2,1.5,2.5,2.3,4.1L517,113.2z M510,121.8c-0.9,0.7-1.9,1.5-2.9,2.3
			v-8.6h-3.4v1h2.4v7.2c0,0.6-0.2,1.2-0.6,1.6l0.8,0.8c0.2-0.2,0.5-0.5,0.8-0.8c1.1-0.9,2.2-1.8,3.1-2.5
			C510.2,122.5,510.1,122.1,510,121.8z M521.1,110.4l-1.1-0.2c-0.6,4.6-2.1,8.2-4.4,10.9c-2.4-2.8-3.9-6.4-4.4-10.9l-1.1,0.2
			c0.6,4.9,2.2,8.7,4.7,11.6c-1.7,1.7-3.9,3.3-6.6,4.7c0.3,0.4,0.6,0.8,0.8,1.1c2.9-1.7,5.1-3.3,6.6-4.9c1.6,1.7,3.7,3.2,6.3,4.7
			c0.2-0.4,0.5-0.8,0.8-1.1c-2.6-1.3-4.7-2.8-6.4-4.5C518.7,119.3,520.2,115.4,521.1,110.4z M508.3,112.5c-0.8-1-1.7-2-2.7-3
			l-0.8,0.6c0.8,0.9,1.7,1.9,2.6,3.1L508.3,112.5z M530.6,114.3h-0.9v4.3h-4.3v0.9h4.3v4.3h0.9v-4.3h4.3v-0.9h-4.3V114.3z
			 M545.4,110.4l-1.1-0.4c-1.5,3.3-3.6,6-6.5,8.2c0.4,0.3,0.7,0.6,0.9,0.9C541.5,116.7,543.7,113.8,545.4,110.4z M548.9,121
			c1.4,1.6,2.5,3,3.3,3.9c-2.5,0.1-5.6,0.2-9.3,0.4c-0.6,0-1,0-1.3,0c2.1-2.5,4-5.1,5.7-7.9l-1.2-0.6c-1.6,2.9-3.4,5.4-5.3,7.5
			c-0.4,0.4-0.9,0.8-1.4,1l0.5,1.2c0.5-0.1,1.2-0.2,2-0.2c2.9-0.2,6.6-0.3,11-0.5c0.5,0.6,0.9,1.2,1.4,1.8l1-0.8
			c-1.9-2.3-3.8-4.5-5.6-6.6L548.9,121z M550.1,109.6L549,110c1.3,3.4,3.5,6.3,6.7,8.6c0.2-0.3,0.5-0.6,0.9-1
			C553.5,115.7,551.4,113,550.1,109.6z M563.5,122.8l-2.3,2.2v-4.7h2.6v-0.9h-2.6v-2.8h1.9v-0.9H559v0.9h1.2v2.8h-2.5v0.9h2.5v4.2
			c0,0.4,0,0.7-0.1,1c-0.1,0.3-0.2,0.5-0.4,0.8l0.7,0.8c0.3-0.4,0.6-0.6,0.8-0.8c0.7-0.7,1.6-1.5,2.5-2.3L563.5,122.8z M571.1,126.2
			c-1.9,0-3.4-0.7-4.4-2.2v-7.9h-2.5v0.9h1.6v6.9c-0.1,0.1-0.1,0.2-0.3,0.3c-0.9,1.1-1.6,2-2.1,2.6l0.8,0.7c0.7-1.1,1.4-2,2-2.7
			c1.1,1.5,2.7,2.3,4.8,2.3c2.2,0.1,4,0.1,5.4,0.1c0.1-0.4,0.2-0.7,0.3-1.1c-0.9,0-1.9,0-2.8,0C572.9,126.2,572,126.2,571.1,126.2z
			 M560,113h3.7v-0.9h-3.3c0.3-0.7,0.6-1.7,0.9-2.8l-1-0.2c-0.7,2.5-1.6,4.7-2.7,6.5c0.3,0.2,0.6,0.5,0.8,0.7
			C559.1,115,559.7,113.9,560,113z M572.3,125.4h1v-3.1h3.2v-0.9h-3.2v-2.9h2.7v-0.9h-2.7v-3.5h-1v3.5h-2.7c0.6-1.5,1.2-3.1,1.7-4.9
			h5v-0.9h-4.7c0.2-0.7,0.5-1.5,0.7-2.5l-1-0.2c-0.2,0.9-0.5,1.8-0.7,2.7h-2.3v0.9h2c-0.5,1.8-1.1,3.4-1.7,4.7v1.2h3.7v2.9H568v0.9
			h4.3V125.4z M567.1,113.2c-0.3-1-0.8-2.3-1.5-3.9l-0.9,0.3c0.6,1.5,1,2.8,1.4,3.9L567.1,113.2z M398.5,163.8l-3-7.5h-2.4v0.9h1.7
			l3.4,8.2h0.8l4-16h-0.9L398.5,163.8z M405.8,201.4h-8.4v3.9h8.4V201.4z M404.8,204.5h-6.4v-2.2h6.4V204.5z M395.5,193.5v3.7h12.2
			v-3.7H395.5z M406.7,196.3h-10.2v-1.9h10.2V196.3z M407.8,207.5c1.5,0,2.2-0.7,2.1-2.2v-6.4h-16.6v8.8h1v-7.9h14.5v5.5
			c0,0.5-0.1,0.8-0.3,1c-0.2,0.2-0.6,0.3-1.2,0.3c-0.8,0-1.6,0-2.2-0.1c0.1,0.3,0.2,0.7,0.2,1.1
			C406.3,207.5,407.1,207.5,407.8,207.5z M411,190.9h-8.6c-0.2-0.7-0.3-1.4-0.5-2l-1.1,0.2c0.2,0.8,0.4,1.4,0.5,1.8h-9.1v0.9H411
			V190.9z M402.1,229.4l-3.6,14.5l-3-7.5h-2.4v0.9h1.7l3.4,8.2h0.8l4-16H402.1z M402.1,309.4l-3.6,14.5l-3-7.5h-2.4v0.9h1.7l3.4,8.2
			h0.8l4-16H402.1z M395.5,356.3h-2.4v0.9h1.7l3.4,8.2h0.8l4-16h-0.9l-3.6,14.5L395.5,356.3z M395.5,393.5v3.7h12.2v-3.7H395.5z
			 M406.7,396.3h-10.2v-1.9h10.2V396.3z M393.3,407.7h1v-7.9h14.5v5.5c0,0.5-0.1,0.8-0.3,1c-0.2,0.2-0.6,0.3-1.2,0.3
			c-0.8,0-1.6,0-2.2-0.1c0.1,0.3,0.2,0.7,0.2,1.1c0.9,0,1.7,0,2.4,0c1.5,0,2.2-0.7,2.1-2.2v-6.4h-16.6V407.7z M411,390.9h-8.6
			c-0.2-0.7-0.3-1.4-0.5-2l-1.1,0.2c0.2,0.8,0.4,1.4,0.5,1.8h-9.1v0.9H411V390.9z M397.4,401.4v3.9h8.4v-3.9H397.4z M404.8,404.5
			h-6.4v-2.2h6.4V404.5z M403.6,434.4c2,0.9,3.9,1.9,5.8,3l0.6-0.9c-1.4-0.7-3.3-1.7-5.8-2.9L403.6,434.4z M410.1,431.3h-7.7
			c0,0,0-0.1,0-0.2c-0.2-1-0.3-1.7-0.4-2.2l-1.1,0.2c0.2,0.7,0.4,1.5,0.5,2.2h-8.2v3.1h1.1v-2.2h14.9v2.2h1.1V431.3z M407.7,447.8
			V441h-12.3v6.8h1.1v-1.1h10.1v1.1H407.7z M396.6,445.8V442h10.1v3.8H396.6z M392.7,442.2c3.7-1.5,6.6-3.4,8.9-5.7
			c2.1,2.3,5,4.1,8.9,5.5c0.1-0.3,0.3-0.6,0.6-0.9c-3.7-1.2-6.7-3-8.8-5.2c0.1-0.1,0.1-0.2,0.3-0.3c0.1-0.1,0.1-0.2,0.2-0.2
			l-1.1-0.3c-2.3,2.6-5.5,4.7-9.6,6.3c0,0,0,0.1,0.1,0.1C392.4,441.8,392.6,442,392.7,442.2z M393.7,437.5c1.6-0.8,3.6-1.8,5.8-3.1
			l-0.7-0.8c-1.8,1.1-3.7,2.1-5.8,3C393.3,436.9,393.5,437.2,393.7,437.5z M428.8,429.8h-13.9v7.1h13.9V429.8z M427.7,436h-11.9
			v-2.2h11.9V436z M427.7,432.9h-11.9v-2.1h11.9V432.9z M418.3,437.6l-1-0.4c-1.3,1.8-2.9,3.4-5,4.6c0.3,0.3,0.5,0.6,0.7,0.8
			c1.3-0.8,2.4-1.6,3.3-2.6h3.6c-1.1,2.4-3.7,4.3-7.7,5.8c0.3,0.3,0.5,0.6,0.7,0.9c4.2-1.6,6.9-3.8,8.1-6.7h3.3
			c-0.6,2.9-2.8,5.3-6.5,7c0.2,0.2,0.5,0.5,0.7,0.9c3.9-1.8,6.2-4.5,6.9-7.8h3.2c0,0.9-0.1,2.1-0.2,3.5c0,2-0.9,2.9-2.5,2.9
			c-0.1,0-0.2,0-0.3,0c-0.8,0-1.7,0-2.5-0.1c0.1,0.4,0.2,0.8,0.2,1.1c0.9,0,1.7,0,2.3,0c2.5,0.1,3.8-1.2,3.8-3.9
			c0.1-1.6,0.2-3.1,0.2-4.5h-12.5C417.6,438.6,417.9,438.1,418.3,437.6z M395.5,516.3h-2.4v0.9h1.7l3.4,8.2h0.8l4-16h-0.9l-3.6,14.5
			L395.5,516.3z M410,565.5c-0.1,0.6-0.4,0.9-0.7,0.9c-0.5,0-1-0.4-1.4-1.1c-1.2-1.8-1.9-4.3-2.1-7.7h5.2v-1h-5.3
			c-0.1-1.9-0.2-3.7-0.2-5.4c0.1,0,0.3,0,0.6,0c1.9-0.1,3.4-0.3,4.6-0.4l-0.4-1c-3.7,0.4-7.5,0.6-11.4,0.7v13.7c0,0.4,0,0.7-0.1,1
			c-0.1,0.3-0.2,0.5-0.4,0.8l0.8,0.9c0.4-0.3,0.7-0.6,0.9-0.7c1.1-0.7,2.4-1.4,3.8-2.2c-0.1-0.5-0.2-0.8-0.2-1
			c-1.3,0.8-2.5,1.5-3.7,2.1v-7.5h4.7c0.3,3.6,1,6.4,2.2,8.1c0.7,1.1,1.5,1.7,2.4,1.7c0.9,0,1.4-0.5,1.6-1.5
			c0.1-0.6,0.3-1.5,0.4-2.8c-0.2,0-0.5-0.1-1-0.3C410.2,563.8,410.1,564.6,410,565.5z M399.9,556.6v-5.1c1.3,0,2.8-0.1,4.4-0.2
			c0,2.2,0.1,3.9,0.2,5.3H399.9z M403.9,565.4c-0.2-0.1-0.3-0.3-0.4-0.3l-0.7,0.6c0.8,0.8,1.4,1.5,1.9,2l0.8-0.7
			C405.2,566.7,404.7,566.2,403.9,565.4z M394.8,567.8h1v-14c0.7-1.3,1.3-2.8,2-4.5l-1-0.4c-1.2,3.5-2.8,6.5-4.8,9
			c0,0,0,0.1,0.1,0.1c0.2,0.3,0.3,0.7,0.4,1c0.8-0.9,1.5-2.1,2.3-3.4V567.8z M398.5,603.8l-3-7.5h-2.4v0.9h1.7l3.4,8.2h0.8l4-16
			h-0.9L398.5,603.8z M398.5,643.8l-3-7.5h-2.4v0.9h1.7l3.4,8.2h0.8l4-16h-0.9L398.5,643.8z M398.5,723.8l-3-7.5h-2.4v0.9h1.7
			l3.4,8.2h0.8l4-16h-0.9L398.5,723.8z M398.5,763.8l-3-7.5h-2.4v0.9h1.7l3.4,8.2h0.8l4-16h-0.9L398.5,763.8z M398.5,803.8l-3-7.5
			h-2.4v0.9h1.7l3.4,8.2h0.8l4-16h-0.9L398.5,803.8z M184.1,109.9h-16.8v1h7.8v8.6h-8.7v1.1h8.7v7.2h1.1v-7.2h8.8v-1.1h-8.8V111h7.9
			V109.9z M169.2,112.7l-0.9,0.6c1.3,1.7,2.5,3.3,3.4,4.7l1-0.7C171.5,115.7,170.4,114.2,169.2,112.7z M179.1,118.1
			c1.4-1.6,2.7-3.2,3.8-4.7l-1-0.6c-1.1,1.6-2.4,3.2-3.7,4.6L179.1,118.1z M202.4,127.8v-8.5h-13.5v8.5h1.1v-1.3h11.4v1.3H202.4z
			 M189.9,125.5v-5.2h11.4v5.2H189.9z M195.4,109.5l-1.1-0.6c-1.8,2.2-3.8,4.2-6.1,6.2c-0.4,0.4-0.9,0.7-1.5,0.9l0.5,1.2
			c0.5-0.1,1.1-0.2,1.9-0.2c3.2-0.2,7.7-0.3,13.4-0.5c0.4,0.4,0.9,0.9,1.6,1.6l1-0.7c-2.1-2.1-4-4-5.7-5.6l-0.9,0.6
			c1.4,1.4,2.4,2.4,3.1,3.1c-1.8,0.1-3.5,0.1-5.2,0.2c-3.5,0.1-6,0.2-7.5,0.2C191.4,113.6,193.6,111.5,195.4,109.5z M216,109
			c-0.9,2.5-2,4.7-3.5,6.7c0.2,0.1,0.5,0.3,1,0.6c0.6-0.9,1.2-1.9,1.8-3.1h7.9c-0.1,3.8-0.2,7.3-0.3,10.5c0,1-0.2,1.6-0.6,1.9
			c-0.3,0.4-1,0.5-1.9,0.5h-1.3c-0.3,0-0.6,0-0.8,0c-0.5,0-1,0-1.4,0c0.1,0.5,0.2,0.9,0.2,1.1c1.4,0,2.5,0,3.3,0
			c2.4,0.1,3.5-1,3.5-3.3c0.1-2.9,0.2-6.8,0.4-11.8h-8.5c0.4-0.9,0.9-1.9,1.2-2.9L216,109z M209.1,109.1v4.1h-2.8v0.9h2.8v0.1
			c-0.5,2.3-1.5,4.5-3,6.7c0.1,0.3,0.3,0.7,0.5,1.3c1-1.6,1.9-3.5,2.5-5.8v11.3h1v-10.4c1,0.9,1.8,1.7,2.4,2.4l0.8-0.7
			c-0.5-0.5-1.3-1.3-2.6-2.3l-0.7,0.6v-3.1h2.6v-0.9h-2.6v-4.1H209.1z M217,115c-1,2.5-2,4.5-3,6c-0.3,0.5-0.7,0.8-1,1l0.5,1.1
			c0.4-0.1,1-0.2,1.6-0.2c1.7-0.1,3.5-0.2,5.2-0.3l0.5,1l1-0.5c-0.8-1.4-1.7-3.1-2.9-5.1l-0.9,0.4c0.8,1.3,1.4,2.4,1.9,3.3
			c-0.8,0-2,0.1-3.5,0.2c-0.7,0-1.2,0.1-1.5,0.1c1.1-1.9,2.3-4.1,3.4-6.5L217,115z M243.2,111.5c-0.9-0.7-1.9-1.3-3-1.9l-0.6,0.7
			c1.1,0.7,2,1.3,2.9,2L243.2,111.5z M228.8,123.7c0.3-1.2,0.5-3.1,0.5-5.5h4.5c0,1.3-0.1,2.8-0.2,4.4c0,1.2-0.6,1.7-1.7,1.7h-0.6
			c-0.2,0-0.3,0-0.5,0c-0.3,0-0.5,0-0.8,0c0.1,0.3,0.2,0.7,0.2,1.1c0.8,0,1.3,0,1.8,0c1.7,0,2.5-0.9,2.6-2.8
			c0.1-2.1,0.2-3.8,0.2-5.3h-5.6v-3.3h7.9c0.2,3.8,0.7,6.8,1.4,9c-1.1,1.3-2.5,2.6-4.1,3.7c0.3,0.3,0.6,0.6,0.8,0.8
			c1.5-1.1,2.7-2.2,3.7-3.4c0.9,2.5,2.1,3.7,3.5,3.6c1.1,0,1.8-0.6,2.2-1.9c0.2-0.6,0.4-1.5,0.5-2.6c-0.3-0.1-0.7-0.2-1-0.4
			c-0.1,0.9-0.3,1.7-0.5,2.5c-0.3,0.9-0.7,1.3-1.2,1.3c-1,0-1.9-1.2-2.7-3.5c1.3-1.7,2.6-3.9,3.9-6.6l-1-0.4c-1,2.4-2.1,4.3-3.3,5.8
			c-0.6-2-0.9-4.7-1.1-8h6.7v-1h-6.8c-0.1-1.2-0.1-2.5-0.1-3.9h-1.1c0,1.4,0.1,2.7,0.1,3.9h-8.9v4.2c0,2.8-0.1,4.8-0.4,6
			c-0.2,1.2-0.8,2.5-1.7,4c0.4,0.3,0.7,0.5,0.9,0.7C227.9,126.3,228.5,124.9,228.8,123.7z M181.3,166.5c-0.8,0-1.6,0-2.3-0.1
			c0.1,0.4,0.2,0.8,0.2,1.2h0.7c0.2,0,0.4,0,0.5,0c0.3,0,0.7,0,1.1,0c1.7,0,2.5-0.8,2.5-2.4v-15h-15.5v6.9c0,2.7-0.1,4.7-0.5,6
			c-0.3,1.3-0.9,2.6-1.9,4.1c0.4,0.2,0.7,0.5,1,0.7c1.4-2,2.1-4.2,2.3-6.5h6.2v6.2h1.1v-6.2h6.2v3.8
			C182.9,166.1,182.4,166.5,181.3,166.5z M175.5,160.3h-6.1c0.1-1.2,0.1-2.3,0.1-3.2v-0.9h6V160.3z M175.5,155.2h-6v-4.1h6V155.2z
			 M176.6,151.1h6.2v4.1h-6.2V151.1z M176.6,160.3v-4.1h6.2v4.1H176.6z M188.5,157.3c0,2.5-0.1,4.4-0.5,5.6
			c-0.3,1.3-0.9,2.6-1.9,4.1c0.4,0.2,0.7,0.5,0.9,0.7c1.7-2.3,2.5-5.2,2.6-8.6h12.8v1h1.1v-8.3h-7.1l0.9-0.4c-0.5-0.7-1-1.6-1.7-2.5
			l-1,0.5c0.6,0.9,1.1,1.7,1.5,2.5h-7.7V157.3z M189.6,152.9h12.8v5.2h-12.8V152.9z M219.4,152.6h4.8v-0.9h-4.8v-2.7h-1.1v2.7h-4.8
			v0.9h4.8v3.2h-5.6v0.9h12.4v-0.9h-5.7V152.6z M220.9,157.8v1.9h-8.2v0.9h8.2v4.3c0,0.6-0.1,1-0.3,1.2c-0.2,0.2-0.7,0.3-1.3,0.3
			h-0.8c-0.2,0-0.4,0-0.5,0c-0.3,0-0.7,0-1.2-0.1c0.1,0.5,0.2,0.8,0.2,1.1h1.4c0.4,0,0.7,0,1.1,0c1.7,0,2.6-0.7,2.5-2.2v-4.7h3.1
			v-0.9H222v-1.9H220.9z M217.3,164.2c-0.5-0.5-1.5-1.4-2.8-2.7l-0.8,0.7c0.9,0.9,1.8,1.8,2.7,2.7L217.3,164.2z M206.7,159.3
			c-0.3,0.1-0.5,0.1-0.6,0.1l0.2,1.1c0.3-0.1,0.7-0.2,1.3-0.3c0.7-0.2,1.1-0.3,1.5-0.4v5.5c0,0.7-0.3,1.1-1,1c-0.7,0-1.3,0-1.6,0
			c0.1,0.4,0.2,0.8,0.2,1.2c0.5,0,1.1,0,1.6,0c1.3,0,1.9-0.6,1.8-2v-6c0.2,0,0.5-0.1,1-0.2c0.6-0.1,1.1-0.3,1.4-0.3
			c0-0.2,0-0.4,0-0.6c0-0.2,0-0.3,0-0.5c-0.3,0.1-0.8,0.2-1.4,0.4c-0.4,0.1-0.7,0.2-0.9,0.2v-4.4h2.3v-1h-2.3v-4.2h-1v4.2h-2.7v1
			h2.7v4.7C208.5,158.9,207.7,159.1,206.7,159.3z M230.1,157.3v10.5h1.1v-4.5h10.3v1.7c0,0.5-0.1,0.9-0.3,1.1
			c-0.2,0.2-0.6,0.3-1.2,0.3c-1.1,0-2,0-2.8,0c0.1,0.3,0.2,0.6,0.3,1.1c1.1,0,2,0,2.8,0c1.6,0,2.4-0.7,2.3-2.2v-9.9h-10.7
			c0.7-0.9,1.3-1.8,1.8-2.6h11.2v-1h-10.6c0.3-0.6,0.7-1.4,1.2-2.4l-1.1-0.3c-0.4,0.9-0.9,1.8-1.4,2.7h-6.1v1h5.6
			c-1.6,2.6-3.7,5-6.3,7.1c0.3,0.3,0.5,0.6,0.7,0.9C228.1,159.4,229.2,158.3,230.1,157.3z M231.2,156.1h10.3v2.6h-10.3V156.1z
			 M231.2,159.7h10.3v2.6h-10.3V159.7z M264.3,166.6c-3-1.2-5.8-2.3-8.3-3.3c0-0.1,0.1-0.3,0.1-0.5c0-0.1,0-0.2,0-0.2
			c0.1-0.7,0.2-1.4,0.2-2.1h-1c0,0.8,0,1.4-0.1,1.9c-0.4,2.1-3.1,3.5-8.3,4.1c0.2,0.4,0.4,0.7,0.6,1.1c4.5-0.8,7.2-2,8.1-3.5
			c2.4,0.9,5.2,2.1,8.2,3.4L264.3,166.6z M251.5,154.4c-0.3-0.5-0.5-0.8-0.5-1c-1.5,1.2-3.1,2.4-4.7,3.5l0.8,1
			C248.5,156.7,250,155.5,251.5,154.4z M251.6,156.8c0.2,0.3,0.4,0.6,0.6,1c3.5-1.1,5.6-2.5,6.2-4.4c0.8,2.1,2.8,3.6,5.9,4.5
			c0.2-0.3,0.4-0.7,0.6-1c-3.1-0.6-5.1-2.2-6.1-4.7c0-0.2,0.1-0.4,0.1-0.6h4.2l-1.1,2.1c0.4,0.1,0.7,0.3,1,0.4l1.2-2.4v-1h-8.9
			c0.3-0.5,0.5-1,0.7-1.6l-1-0.3c-0.7,1.8-1.7,3.3-3.1,4.7c0.2,0.2,0.5,0.4,0.8,0.7c0.8-0.9,1.5-1.8,2-2.7h3.1
			C257.7,154.2,255.6,155.9,251.6,156.8z M250.9,151.5c-1.1-0.9-2.2-1.6-3.1-2.3l-0.7,0.8c1.1,0.8,2.1,1.5,3.1,2.3L250.9,151.5z
			 M262.2,164.1v-5.7h-13v5.7h1v-4.7h11v4.7H262.2z M269.2,159.3v-1.5h15.2v-1h-5.7c0.8-1.1,1.5-2.2,2.2-3.2l-1-0.5
			c-0.8,1.3-1.5,2.6-2.3,3.8h-9.4v2.5c0,1.9-0.1,3.3-0.5,4.5c-0.3,1.1-0.9,2.2-1.6,3.2c0.3,0.2,0.6,0.4,0.9,0.8
			C268.6,165.6,269.3,162.8,269.2,159.3z M273.1,156.5l1-0.6c-0.9-1.2-1.6-2.2-2.2-2.9l-0.9,0.6
			C271.7,154.5,272.4,155.5,273.1,156.5z M285,151.2h-8c-0.2-0.6-0.5-1.4-0.8-2.3l-1.1,0.3c0,0,0,0.1,0.1,0.1
			c0.3,0.8,0.5,1.4,0.6,1.8h-9.2v1H285V151.2z M176.2,193.6h7.2v-1h-7.2v-3.6h-1.1v3.6h-7.2v1h7.2v4.7h-8.8v1h7.8
			c-1.2,1.8-2.7,3.5-4.4,5.3c-0.5,0.5-1,0.8-1.6,1.1l0.6,1.2c0.4-0.1,1-0.2,1.8-0.2c4-0.2,7.8-0.3,11.4-0.4c0.4,0.4,0.8,0.9,1.2,1.4
			l1-0.7c-1.5-1.6-3.2-3.5-5.3-5.6l-0.9,0.6c1,1,2,2.1,3.1,3.4c-0.9,0-2.2,0.1-4,0.1c-3.1,0.1-5.3,0.1-6.7,0.2c2.3-2.5,4-4.5,5.2-6
			l-0.8-0.3H185v-1h-8.8V193.6z M203.8,201.7v-8.5h-7.6v-4.3h-1.1v4.3h-7.6v8.5h1.1v-1.1h6.5v7.3h1.1v-7.3h6.6v1.1H203.8z
			 M195.1,199.6h-6.5v-5.4h6.5V199.6z M196.2,199.6v-5.4h6.6v5.4H196.2z M221.8,194.3l-1.1,0.5c1.2,2.3,2.3,4.6,3.2,6.9l1.2-0.5
			C224.2,199,223.1,196.7,221.8,194.3z M207.3,202.8c0.8-2.5,1.4-5.1,2-7.7l-1.1-0.3c-0.5,2.6-1.2,5.1-2.1,7.6
			C206.5,202.5,206.9,202.7,207.3,202.8z M212.3,192.7h-1.1v11.6c0,1.9,0.9,2.9,2.8,2.8h4.3c1.9,0,3-0.7,3.2-2.2
			c0.2-0.8,0.3-1.7,0.5-2.9c-0.3-0.1-0.7-0.2-1.2-0.4c-0.1,1.1-0.2,2-0.3,2.7c-0.2,1.2-1,1.8-2.4,1.7h-3.8c-0.7,0-1.3-0.1-1.6-0.4
			c-0.3-0.3-0.4-0.8-0.4-1.5V192.7z M218.4,194.2c-1.1-1.9-2.2-3.7-3.3-5.3l-1,0.5c1.1,1.8,2.2,3.6,3.2,5.4L218.4,194.2z
			 M243.6,204.7c-0.2,0.9-0.9,1.4-2.1,1.3h-2.2c-0.7,0-1.2-0.1-1.5-0.4c-0.3-0.2-0.4-0.7-0.4-1.4v-5.4c2.5-1.8,4.7-4,6.7-6.5l-1-0.6
			c-1.7,2.2-3.6,4.1-5.7,5.8v-8.1h-1.1v8.9c-1.4,1-3,1.9-4.8,2.7c0.3,0.4,0.5,0.7,0.7,1c1.4-0.7,2.8-1.5,4.1-2.4v4.8
			c-0.1,1.9,0.8,2.8,2.7,2.8h2.5c1.8,0,2.8-0.7,3.1-2.1c0.2-0.9,0.3-2,0.5-3.4c-0.3-0.1-0.6-0.2-1.1-0.4
			C243.9,202.8,243.7,204,243.6,204.7z M229.3,196.3v11.4h1.1v-13.3c0.9-1.7,1.7-3.3,2.4-4.9l-1.1-0.3c-1.4,3.8-3.3,6.9-5.5,9.6
			c0.3,0.3,0.5,0.7,0.7,1.1C227.7,198.7,228.5,197.5,229.3,196.3z M254.4,195.4h9.3v-5.2h-9.3V195.4z M255.5,191.1h7.2v3.3h-7.2
			V191.1z M249.3,197.9v9.9h1v-9.2c1,1,1.7,1.9,2.2,2.5l0.8-0.7c-0.6-0.6-1.4-1.5-2.4-2.5l-0.7,0.5v-2.7h2.7v-0.9h-2.7v-3.7
			c0.4,0,1.1-0.1,2-0.2c0.3,0,0.6-0.1,0.7-0.1l-0.2-0.9c-2.1,0.2-4.2,0.4-6.4,0.5c0.1,0.2,0.1,0.5,0.2,0.9c0,0,0,0.1,0,0.1
			c1.1,0,2-0.1,2.7-0.1v3.6h-3v0.9h2.9c-0.7,2.7-1.8,5-3.3,7.1c0.3,0.4,0.5,0.7,0.6,1C247.8,202.1,248.7,200.2,249.3,197.9z
			 M259.6,202.6h4.5v-0.9h-4.5v-3.1h4.9v-0.9h-10.9v0.9h4.9v3.1H254v0.9h4.5v3.2h-6v0.9h12.6v-0.9h-5.6V202.6z M284.3,207.6
			c0.1-0.4,0.3-0.7,0.5-1.1c-2.8-0.4-5.1-0.9-6.8-1.7c1.5-0.8,2.9-2,4.3-3.6v-1h-11.7v0.9h1.3c1.1,1.6,2.4,2.8,3.9,3.6
			c-1.9,0.8-4.2,1.5-6.8,2c0.2,0.3,0.4,0.6,0.6,1c3.1-0.7,5.6-1.5,7.3-2.4C278.8,206.3,281.3,207.1,284.3,207.6z M273.2,201.2h7.9
			c-1.2,1.3-2.6,2.3-4.1,3.1C275.6,203.6,274.4,202.5,273.2,201.2z M281,198.4v-3h3.6v-0.9H281v-1.7h-1v1.7h-6v-1.7h-1v1.7h-2.9v0.9
			h2.9v3H281z M274,195.4h6v2.1h-6V195.4z M268.1,197.6c0,2.6-0.1,4.5-0.4,5.6c-0.2,1.1-0.8,2.4-1.7,3.9c0.3,0.2,0.6,0.5,0.8,0.7
			c0.9-1.5,1.5-2.9,1.8-4.2c0.3-1.3,0.5-3.3,0.4-5.8v-5.6h15.6v-1h-7.4c-0.1-0.6-0.3-1.4-0.5-2.2l-1.1,0.2c0,0.2,0.1,0.4,0.2,0.7
			c0.1,0.6,0.2,1,0.3,1.3h-8.2V197.6z M179.4,241.1h3.7v0.8h1v-8.6h-4.5v-2.2h5.3v-0.9h-11.3v0.9h5v2.2H174v7.7h4.4
			c-0.2,1.3-0.6,2.3-1.2,3c-0.8-0.6-1.5-1.4-2.2-2.4l-0.8,0.6c0.8,1.1,1.5,1.9,2.2,2.5c-0.8,0.7-2.4,1.4-4.7,2.1
			c0.2,0.3,0.4,0.6,0.6,0.9c2.4-0.8,4-1.6,4.9-2.4c1.5,1,3.9,1.8,7.2,2.1c0.2-0.4,0.3-0.8,0.5-1c-3.2-0.3-5.6-0.9-7-1.8
			C178.8,243.8,179.2,242.6,179.4,241.1z M179.6,234.2h3.6v2.5h-3.6V234.2z M179.6,237.6h3.6v2.5h-3.7
			C179.6,239.2,179.6,238.4,179.6,237.6z M175,234.2h3.6v2.5H175V234.2z M175,240.2v-2.5h3.6c0,0.9,0,1.7-0.1,2.5H175z M166.7,240.7
			c0.5-0.8,0.9-1.6,1.3-2.4v7.8h0.9v-1.4h3.2V236H169c0.6-1.5,1-3,1.3-4.6h2.5v-0.9h-6.3v0.9h2.8c-0.6,3.1-1.7,5.9-3.4,8.5
			c0,0,0.1,0.1,0.2,0.2C166.4,240.4,166.6,240.6,166.7,240.7z M168.9,236.9h2.3v6.9h-2.3V236.9z M186.1,238.6
			c0.2,0.5,0.4,0.8,0.5,1.2c0.8-1.1,1.5-2.4,2.3-3.8v11.8h1.1v-14.1c0.6-1.5,1.2-2.9,1.5-4.2l-1.1-0.3
			C189.4,232.7,187.9,235.9,186.1,238.6z M199.8,234.6h4.7v-1h-4.7V229h-1.1v4.5h-3.8c0.3-0.8,0.6-1.8,0.9-2.8l-1.1-0.3
			c-0.7,2.7-1.6,5.1-2.8,7.2c0.4,0.2,0.8,0.4,1,0.6c0.6-1.2,1.2-2.4,1.6-3.6h4.2v5.3h-7.2v1h7.2v6.9h1.1v-6.9h5.3v-1h-5.3V234.6z
			 M206.8,236.4c0.8-1,1.5-2.2,2.1-3.5h4.2v-0.9h-3.8c0.3-0.8,0.7-1.6,1-2.5l-1-0.3c-0.8,2.5-1.9,4.7-3.3,6.4
			C206.4,235.8,206.6,236.1,206.8,236.4z M219,230.1c0.9,0.7,1.8,1.5,2.8,2.3l0.7-0.8c-1-0.8-2-1.6-2.9-2.2L219,230.1z M224.1,242.6
			c-0.2,1.1-0.3,2-0.6,2.7c-0.2,0.9-0.6,1.3-1.2,1.2c-1.1,0-2.1-1-3-3c1.4-0.9,2.8-2.1,4.1-3.6l-0.8-0.6c-1.3,1.3-2.5,2.4-3.8,3.2
			c0-0.1-0.1-0.2-0.1-0.3c0-0.1,0-0.1-0.1-0.2c-0.4-1.2-0.7-2.3-0.9-3.5l6.5-0.8l-0.1-0.9l-6.6,0.8c-0.1-1.1-0.3-2.2-0.3-3.1
			l6.7-0.8l-0.1-0.9l-6.7,0.7c-0.1-1.5-0.1-3.1-0.2-4.6h-1.1c0,1.7,0.1,3.3,0.2,4.7l-2.8,0.3l0.2,0.9l2.7-0.3
			c0.1,1.1,0.2,2.1,0.3,3.1l-3.2,0.4l0.2,0.9l3.2-0.4c0.2,1.3,0.5,2.6,1,3.9c0.1,0.2,0.1,0.4,0.2,0.6c-1.4,0.8-3.1,1.6-5.2,2.3
			c0.3,0.3,0.4,0.6,0.6,1c2-0.7,3.7-1.5,5-2.3c1,2.3,2.4,3.5,3.9,3.5c1,0,1.7-0.6,2-1.8c0.2-0.7,0.4-1.6,0.6-2.8
			C224.8,242.9,224.4,242.7,224.1,242.6z M212.9,242.7c-0.9,0.9-1.8,1.8-2.6,2.5v-4.8h2.9v-0.9h-2.9v-3.1h2.4v-0.9h-5v0.9h1.5v3.1
			h-3v0.9h3v4.9c0,0.5-0.1,0.9-0.4,1.3l0.8,0.7c0.3-0.4,0.5-0.7,0.7-0.9c1-0.9,2-1.8,2.9-2.7C213.2,243.5,213.1,243.1,212.9,242.7z
			 M237.2,240.5v-5.4h-8.3v9.3c0,1.8,0.9,2.7,2.8,2.7h9.7c1.9,0,2.9-0.7,3.2-2c0.2-0.7,0.3-1.7,0.5-2.9c-0.4-0.1-0.7-0.2-1.1-0.4
			c-0.1,1.1-0.2,2.1-0.4,2.8c-0.1,1-0.9,1.4-2.3,1.4h-9.3c-1.4,0.1-2-0.5-2-1.7v-3.8H237.2z M230,236h6.2v3.5H230V236z M230.6,232.2
			h10.8c0,3-0.1,5.7-0.3,8.2c0,1.5-0.8,2.2-2.2,2.1c-1,0-1.8,0-2.5-0.1c0.1,0.4,0.2,0.8,0.2,1.2h1.3c0.3,0,0.7,0,1.1,0
			c2.1,0.1,3.2-1,3.2-3.2c0.1-3.4,0.2-6.4,0.3-9.2h-11.4c0.3-0.7,0.6-1.3,1-2.1l-1.1-0.3c-1.1,2.9-2.7,5.5-4.9,7.8
			c0.2,0.2,0.4,0.5,0.7,0.9C228.4,235.7,229.7,233.9,230.6,232.2z M255.2,228.9v2.8h-8.9v1h8.9v3.3h-7v1h1.9
			c1.1,2.9,2.6,5.2,4.6,6.8c-1.9,1.2-4.7,2.2-8.3,3c0.3,0.4,0.5,0.8,0.6,1c3.8-0.9,6.7-2.1,8.6-3.4c1.5,1.2,4.4,2.2,8.6,3
			c0.1-0.3,0.4-0.6,0.6-1c0,0,0-0.1,0.1-0.1c-3.8-0.7-6.6-1.6-8.3-2.7c2.3-1.7,4-3.9,5.2-6.7v-1h-5.5v-3.3h8.5v-1h-8.5v-2.8H255.2z
			 M260.6,237.1c-1.1,2.6-2.8,4.7-4.9,6.1c-1.9-1.3-3.3-3.3-4.4-6.1H260.6z M272.4,237.9c-0.3,0.1-0.8,0.2-1.4,0.4
			c-0.4,0.1-0.7,0.2-0.9,0.2v-4.4h2.3v-1h-2.3v-4.2h-1v4.2h-2.7v1h2.7v4.7c-0.5,0.1-1.3,0.3-2.3,0.5c-0.3,0.1-0.5,0.1-0.6,0.1
			l0.2,1.1c0.3-0.1,0.7-0.2,1.3-0.3c0.7-0.2,1.1-0.3,1.5-0.4v5.5c0,0.7-0.3,1.1-1,1c-0.7,0-1.3,0-1.6,0c0.1,0.4,0.2,0.8,0.2,1.2
			c0.5,0,1.1,0,1.6,0c1.3,0,1.9-0.6,1.8-2v-6c0.2,0,0.5-0.1,1-0.2c0.6-0.1,1.1-0.3,1.4-0.3c0-0.2,0-0.4,0-0.6
			C272.4,238.2,272.4,238.1,272.4,237.9z M274.5,241.5l-0.8,0.7c0.9,0.9,1.8,1.8,2.7,2.7l0.8-0.7
			C276.8,243.6,275.8,242.7,274.5,241.5z M282,237.8h-1.1v1.9h-8.2v0.9h8.2v4.3c0,0.6-0.1,1-0.3,1.2c-0.2,0.2-0.7,0.3-1.3,0.3h-0.8
			c-0.2,0-0.4,0-0.5,0c-0.3,0-0.7,0-1.2-0.1c0.1,0.5,0.2,0.8,0.2,1.1h1.4c0.4,0,0.7,0,1.1,0c1.7,0,2.6-0.7,2.5-2.2v-4.7h3.1v-0.9
			H282V237.8z M279.4,232.6h4.8v-0.9h-4.8v-2.7h-1.1v2.7h-4.8v0.9h4.8v3.2h-5.6v0.9h12.4v-0.9h-5.7V232.6z M167.2,317.9v7.5
			c-0.4,0.1-0.8,0.1-1.1,0.2l0.2,1.1c2.9-0.6,5.3-1.1,7.2-1.5c0-0.2,0-0.4,0-0.6c0-0.1,0-0.3,0-0.4c-0.3,0.1-0.7,0.2-1.3,0.3
			c-0.6,0.1-1,0.2-1.3,0.3v-4.6h2.1v-0.9h-2.1V316h1.8v-5.9h-5.4v5.9h2.7v9c-0.2,0-0.4,0.1-0.8,0.2c-0.4,0.1-0.7,0.1-0.9,0.2v-7.4
			H167.2z M168.2,315.1V311h3.5v4.1H168.2z M180.6,312.3h3.9v-0.9h-5.6c0.3-0.7,0.6-1.4,0.9-2.2l-1-0.2c-0.3,0.9-0.6,1.8-1,2.5h-3.9
			v0.9h3.4c-0.8,1.5-2.3,2.9-4.3,4.2c0.3,0.3,0.5,0.6,0.7,0.8c2.2-1.5,3.8-3.2,4.7-5.1h1.1c1,2,2.6,3.6,4.9,4.8c0,0,0-0.1,0.1-0.1
			c0.2-0.4,0.4-0.6,0.5-0.8C183.1,315.3,181.6,314,180.6,312.3z M173.5,319.6h2.2l-0.9,3.1h7.3c-0.1,0.7-0.1,1.5-0.2,2.1
			c-0.1,1-0.7,1.5-1.8,1.5c-0.1,0-0.3,0-0.5,0c-0.2,0-0.4,0-0.7,0c-0.4,0-1,0-1.8-0.1c0.1,0.4,0.2,0.8,0.3,1.1c1.1,0,2.1,0,2.9,0
			c1.7,0,2.6-0.7,2.7-2.3c0.1-0.8,0.2-1.9,0.3-3.2h-7.1l0.6-2.2h7.9v-0.9h-11.2V319.6z M176.2,315.8v0.9h5.9v-0.9H176.2z
			 M194.1,309.3l-0.9,0.3c0.6,1.5,1,2.8,1.4,3.9l1-0.3C195.2,312.2,194.7,310.9,194.1,309.3z M189.7,316.5h1.9v-0.9h-4.1v0.9h1.2
			v2.8h-2.5v0.9h2.5v4.2c0,0.4,0,0.7-0.1,1c-0.1,0.3-0.2,0.5-0.4,0.8l0.7,0.8c0.3-0.4,0.6-0.6,0.8-0.8c0.7-0.7,1.6-1.5,2.5-2.3
			l-0.2-1.1l-2.3,2.2v-4.7h2.6v-0.9h-2.6V316.5z M189.8,309.2l-1-0.2c-0.7,2.5-1.6,4.7-2.7,6.5c0.3,0.2,0.6,0.5,0.8,0.7
			c0.7-1.2,1.3-2.3,1.6-3.2h3.7v-0.9h-3.3C189.1,311.4,189.4,310.4,189.8,309.2z M193.8,324.3c-0.9,1.1-1.6,2-2.1,2.6l0.8,0.7
			c0.7-1.1,1.4-2,2-2.7c1.1,1.5,2.7,2.3,4.8,2.3c2.2,0.1,4,0.1,5.4,0.1c0.1-0.4,0.2-0.7,0.3-1.1c-0.9,0-1.9,0-2.8,0
			c-0.9,0-1.9,0-2.8,0c-1.9,0-3.4-0.7-4.4-2.2v-7.9h-2.5v0.9h1.6v6.9C194.1,324,194,324.1,193.8,324.3z M196.4,321.3v0.9h4.3v3.1h1
			v-3.1h3.2v-0.9h-3.2v-2.9h2.7v-0.9h-2.7v-3.5h-1v3.5H198c0.6-1.5,1.2-3.1,1.7-4.9h5v-0.9H200c0.2-0.7,0.5-1.5,0.7-2.5l-1-0.2
			c-0.2,0.9-0.5,1.8-0.7,2.7h-2.3v0.9h2c-0.5,1.8-1.1,3.4-1.7,4.7v1.2h3.7v2.9H196.4z M215.2,308.9v2.8h-8.9v1h8.9v3.3h-7v1h1.9
			c1.1,2.9,2.6,5.2,4.6,6.8c-1.9,1.2-4.7,2.2-8.3,3c0.3,0.4,0.5,0.8,0.6,1c3.8-0.9,6.7-2.1,8.6-3.4c1.5,1.2,4.4,2.2,8.6,3
			c0.1-0.3,0.4-0.6,0.6-1c0,0,0-0.1,0.1-0.1c-3.8-0.7-6.6-1.6-8.3-2.7c2.3-1.7,4-3.9,5.2-6.7v-1h-5.5v-3.3h8.5v-1h-8.5v-2.8H215.2z
			 M220.6,317.1c-1.1,2.6-2.8,4.7-4.9,6.1c-1.9-1.3-3.3-3.3-4.4-6.1H220.6z M226.7,319.3c-0.3,0.1-0.5,0.1-0.6,0.1l0.2,1.1
			c0.3-0.1,0.7-0.2,1.3-0.3c0.7-0.2,1.1-0.3,1.5-0.4v5.5c0,0.7-0.3,1.1-1,1c-0.7,0-1.3,0-1.6,0c0.1,0.4,0.2,0.8,0.2,1.2
			c0.5,0,1.1,0,1.6,0c1.3,0,1.9-0.6,1.8-2v-6c0.2,0,0.5-0.1,1-0.2c0.6-0.1,1.1-0.3,1.4-0.3c0-0.2,0-0.4,0-0.6c0-0.2,0-0.3,0-0.5
			c-0.3,0.1-0.8,0.2-1.4,0.4c-0.4,0.1-0.7,0.2-0.9,0.2v-4.4h2.3v-1h-2.3v-4.2h-1v4.2h-2.7v1h2.7v4.7
			C228.5,318.9,227.7,319.1,226.7,319.3z M239.4,312.6h4.8v-0.9h-4.8v-2.7h-1.1v2.7h-4.8v0.9h4.8v3.2h-5.6v0.9h12.4v-0.9h-5.7V312.6
			z M240.9,317.8v1.9h-8.2v0.9h8.2v4.3c0,0.6-0.1,1-0.3,1.2c-0.2,0.2-0.7,0.3-1.3,0.3h-0.8c-0.2,0-0.4,0-0.5,0c-0.3,0-0.7,0-1.2-0.1
			c0.1,0.5,0.2,0.8,0.2,1.1h1.4c0.4,0,0.7,0,1.1,0c1.7,0,2.6-0.7,2.5-2.2v-4.7h3.1v-0.9H242v-1.9H240.9z M237.3,324.2
			c-0.5-0.5-1.5-1.4-2.8-2.7l-0.8,0.7c0.9,0.9,1.8,1.8,2.7,2.7L237.3,324.2z M184.2,363c-0.1,0.9-0.1,1.7-0.2,2.4
			c-0.1,0.6-0.4,1-0.9,1h-0.5c-0.7,0-1-0.3-1-1V359h-1v6.5c0,1.2,0.6,1.8,1.8,1.8h0.9c1,0,1.5-0.5,1.7-1.6c0.1-0.6,0.2-1.4,0.3-2.4
			C184.8,363.2,184.5,363.1,184.2,363z M169.1,357.7l0.8-0.8c-0.9-0.7-1.9-1.5-3-2.4l-0.7,0.7C167.3,356.1,168.3,356.9,169.1,357.7z
			 M166.6,367.1l1.1,0.4c0.5-1.9,1.2-4.3,2.1-7.1c-0.4-0.1-0.7-0.3-1-0.4C168,362.8,167.3,365.2,166.6,367.1z M173.5,364.6
			c0.5-1.1,0.7-3,0.7-5.5h-1c0,2.4-0.2,4-0.6,5.1c-0.4,1-1.2,2-2.5,2.9c0.3,0.3,0.6,0.5,0.8,0.8
			C172.2,366.8,173.1,365.8,173.5,364.6z M184.5,351.5h-6.4l0.7-0.3c-0.4-0.8-0.8-1.6-1.2-2.3l-1,0.4c0.4,0.6,0.8,1.3,1.2,2.2h-6.5
			v1h5c-1.3,1.5-2.4,2.7-3.4,3.5c-0.4,0.3-0.8,0.6-1.2,0.8l0.5,1c0.5-0.1,1-0.1,1.6-0.1c0.2,0,0.6,0,1.1,0c3.1-0.1,5.6-0.2,7.6-0.2
			c0.1,0.2,0.4,0.4,0.6,0.8c0.2,0.2,0.3,0.4,0.4,0.5l0.9-0.7c-1.3-1.5-2.6-2.9-3.9-4.2l-0.8,0.6c0.7,0.7,1.4,1.4,2,2.1
			c-3,0.1-5.6,0.2-8.1,0.2c1.3-1.2,2.7-2.5,4-3.9l-0.7-0.3h7.8V351.5z M170.5,351.8c-1.1-1-2.1-1.8-3-2.5l-0.7,0.7
			c1.1,0.9,2.1,1.8,2.9,2.6L170.5,351.8z M176.8,367.4h1v-8.3h-1V367.4z M198.2,349c0,1.4,0,2.8-0.1,4.1h-3v1h3c0,0.2,0,0.6,0,1
			c0,0.4,0,0.7,0,0.8c-0.1,4.8-1.4,8.5-4.1,11.1c0.4,0.3,0.7,0.6,0.9,0.8c2.8-3,4.2-6.9,4.2-11.8c0-0.6,0-1.3,0.1-2h4.1
			c0,2.6-0.1,6-0.3,10.1c0,1.3-0.7,2-1.9,2c-0.8,0-1.6,0-2.6-0.1c0.1,0.4,0.3,0.8,0.4,1.3h1.4c0.4,0,0.7,0,1,0c1.8,0,2.7-1,2.8-3.1
			c0.1-2.1,0.2-5.8,0.3-11.1h-5.2c0-1.5,0.1-2.8,0.1-4.1H198.2z M186.3,364.3l0.5,1c0.3-0.1,0.7-0.2,1.2-0.2c2-0.2,3.9-0.4,5.7-0.5
			c0.1,0.1,0.2,0.4,0.3,0.6c0.1,0.1,0.1,0.2,0.1,0.3l1-0.5c-0.8-1.8-1.6-3.5-2.5-5.1l-1,0.4c0.6,1.1,1.1,2.2,1.6,3.4
			c-1.9,0.2-3.7,0.3-5.4,0.4c1-2,2-4.2,3.1-6.8h4.4v-1h-9v1h3.4c-0.8,2.2-1.6,4.1-2.4,5.7C187,363.5,186.7,364,186.3,364.3z
			 M187.1,350.7v1h7.4v-1H187.1z M210,349h-1.1v18.9h1.1V349z M208,353.6l-1-0.2c-0.2,1.4-0.5,3-0.8,4.5c0.4,0,0.7,0.1,1,0.2
			C207.5,356.5,207.8,354.9,208,353.6z M225.1,365.9h-5.7v-5.5h4.8v-1h-4.8v-5h5.1v-1h-5.1V349h-1.1v4.3h-3.2
			c0.3-0.7,0.5-1.7,0.8-2.8l-1.1-0.3c-0.6,2.5-1.4,4.7-2.6,6.8c0.4,0.2,0.8,0.4,1,0.6c0.6-1.2,1.1-2.3,1.5-3.4h3.6v5h-5.1v1h5.1v5.5
			H212v1h13.1V365.9z M212.6,354.8c-0.5-0.8-1-1.6-1.6-2.5l-0.8,0.5c0.5,0.8,1,1.6,1.6,2.6L212.6,354.8z M244.4,366.6
			c-1.9-1.3-4-2.6-6.3-4.1l-0.7,0.8c1.9,1.2,4,2.6,6.2,4.1L244.4,366.6z M245,359.9h-5.1V354h4.3v-1h-4.3v-3.9h-1.1v3.9h-6.5v-3.9
			h-1.1v3.9H227v1h4.3v5.8h-5.1v1H245V359.9z M238.9,359.9h-6.5V354h6.5V359.9z M227.2,367.5c2.1-1.2,4.2-2.6,6.5-4.2l-0.8-0.8
			c-2,1.5-4.1,2.8-6.4,4.1C226.7,366.9,226.9,367.2,227.2,367.5z M254.9,366.4c-0.2,0.2-0.6,0.3-1.2,0.3c-0.9,0-1.7,0-2.5-0.1
			c0.1,0.4,0.2,0.8,0.2,1.1h1.5c0.4,0,0.7,0,1.1,0c1.6,0,2.3-0.7,2.3-2.2v-1.7h8.7v-0.9h-8.7v-0.5l6-2.1v-1h-14.4v0.9H260l-4.7,1.5
			v1.1h-9.1v0.9h9.1v1.6C255.3,365.8,255.2,366.2,254.9,366.4z M246.4,352.2h18.4v-0.9h-8.3c-0.3-0.8-0.5-1.6-0.8-2.4l-1.1,0.3
			c0.3,0.7,0.5,1.4,0.8,2.1h-9V352.2z M262,357.5v-3.7h-13v3.7H262z M250.1,354.7H261v1.8h-10.9V354.7z M183.5,389.9h-10.3v5.4h10.3
			V389.9z M182.5,394.5h-8.3V393h8.3V394.5z M182.5,392.2h-8.3v-1.5h8.3V392.2z M184.3,400.1v-0.9h-5.8v0.8h0.6
			c0.4,1.8,1,3.3,1.9,4.4c-0.8,0.9-1.8,1.7-3,2.4c0.2,0.3,0.4,0.5,0.6,0.8c1.2-0.8,2.2-1.6,3-2.5c0.7,0.7,1.7,1.5,3,2.2
			c0.2-0.3,0.3-0.5,0.6-0.8c-1.3-0.7-2.2-1.4-2.9-2.1C183.2,403.2,183.9,401.8,184.3,400.1z M180,400h3.4c-0.4,1.4-1,2.6-1.8,3.7
			C180.9,402.7,180.4,401.5,180,400z M167.6,406.6c-0.3,0-0.7,0-1.3,0c0.1,0.4,0.1,0.8,0.2,1c0.5,0,0.9,0,1.4,0c1.2,0,1.8-0.7,1.7-2
			v-5.9c0.5-0.1,1.1-0.3,1.9-0.6c-0.1-0.3-0.1-0.7-0.1-1c-0.2,0.1-0.4,0.1-0.8,0.2c-0.5,0.1-0.8,0.2-1.1,0.3v-4.7h1.9V393h-1.9v-3.9
			h-1v3.9h-2.2v0.9h2.2v5c-0.7,0.2-1.5,0.4-2.4,0.7l0.1,1.1c0.8-0.3,1.6-0.5,2.3-0.7v5.6C168.6,406.3,168.3,406.6,167.6,406.6z
			 M185.1,397.7v-0.9h-13.4v0.9h0.9v7.7c-0.3,0-0.8,0.1-1.5,0.2l0.2,0.9c2.1-0.4,4-0.7,5.6-1v2.3h1v-2.5c0,0,0.1,0,0.2,0
			c0.4-0.1,0.7-0.1,0.9-0.1c0-0.1,0-0.2,0-0.4v-0.5c-0.2,0.1-0.6,0.1-1.1,0.2v-6.8H185.1z M176.8,404.6c-0.4,0.1-0.9,0.1-1.6,0.3
			c-0.7,0.1-1.3,0.2-1.6,0.3V403h3.3V404.6z M176.8,402.2h-3.3v-1.8h3.3V402.2z M176.8,399.5h-3.3v-1.8h3.3V399.5z M189,407.8h1.1
			v-1.3h11v1.3h1.1v-8.3H189V407.8z M190.1,400.5h11v5h-11V400.5z M190.1,395.7v1h11v-1H190.1z M186.9,397.4c3.8-2,6.7-4.3,8.7-6.8
			c1.9,2.6,4.8,4.7,8.6,6.5c0.2-0.4,0.4-0.7,0.7-1.1c-3.6-1.5-6.5-3.6-8.7-6.3c0-0.1,0.1-0.2,0.2-0.3c0.1-0.2,0.2-0.3,0.3-0.4
			l-1.2-0.2c-2.1,3-5.2,5.5-9.4,7.5C186.5,396.7,186.7,397.1,186.9,397.4z M207.2,398.2c0.3-1.7,0.6-3.2,0.8-4.5l-1-0.2
			c-0.2,1.4-0.5,3-0.8,4.5C206.5,398,206.9,398.1,207.2,398.2z M225.1,405.9h-5.7v-5.5h4.8v-1h-4.8v-5h5.1v-1h-5.1V389h-1.1v4.3
			h-3.2c0.3-0.7,0.5-1.7,0.8-2.8l-1.1-0.3c-0.6,2.5-1.4,4.7-2.6,6.8c0.4,0.2,0.8,0.4,1,0.6c0.6-1.2,1.1-2.3,1.5-3.4h3.6v5h-5.1v1
			h5.1v5.5H212v1h13.1V405.9z M211.8,395.4l0.9-0.6c-0.5-0.8-1-1.6-1.6-2.5l-0.8,0.5C210.7,393.6,211.2,394.4,211.8,395.4z
			 M208.9,407.8h1.1V389h-1.1V407.8z M226.6,394.8c0.4-0.1,0.9-0.2,1.4-0.2c2.2-0.1,4.4-0.2,6.4-0.3c0.1,0.1,0.2,0.2,0.4,0.4
			c0.3,0.3,0.5,0.6,0.6,0.8l0.9-0.7c-1.2-1.4-2.4-2.7-3.6-3.8l-0.8,0.6c0.5,0.6,1.1,1.2,1.7,1.8c-2.6,0.2-4.5,0.3-5.8,0.3
			c1.3-1.3,2.5-2.8,3.7-4.3l-1-0.5c-1,1.4-2,2.8-3.2,4c-0.4,0.4-0.8,0.7-1.2,0.9L226.6,394.8z M237.2,395.2c0,1.5,0.7,2.2,2.3,2.1
			h2.5c1.4,0,2.3-0.6,2.5-1.9c0.1-0.5,0.2-1.2,0.4-2c-0.3-0.1-0.7-0.2-1-0.4c-0.1,0.8-0.2,1.5-0.3,2.1c-0.1,0.8-0.7,1.2-1.7,1.2
			h-2.2c-1,0-1.5-0.4-1.5-1.3v-1.2c2.1-0.8,4.1-1.7,6.1-2.8l-0.6-0.9c-1.7,1-3.5,1.9-5.5,2.6V389h-1V395.2z M232.9,407.4
			c1.3,0,1.9-0.6,1.8-1.9v-9.1h-7.4v11.2h1v-4.2h5.3v2.2c0,0.6-0.3,0.9-1.1,0.9c-0.7,0-1.3,0-1.8-0.1c0.1,0.3,0.2,0.7,0.2,1
			C231.7,407.5,232.3,407.4,232.9,407.4z M228.3,397.3h5.3v2.2h-5.3V397.3z M228.3,402.5v-2.2h5.3v2.2H228.3z M239.5,407.3h2.6
			c1.5,0,2.3-0.6,2.5-1.9c0.1-0.5,0.2-1.2,0.3-2c-0.3-0.1-0.6-0.2-1-0.3c-0.1,0.9-0.1,1.6-0.2,2.1c-0.1,0.8-0.7,1.1-1.7,1.1h-2.3
			c-1,0-1.5-0.4-1.5-1.4V403c2.1-0.8,4.3-1.8,6.5-2.9l-0.6-0.9c-1.8,1.1-3.8,2-5.9,2.8v-3.4h-1v6.5
			C237.1,406.6,237.9,407.3,239.5,407.3z M183.4,436.3v-1.1h-8.1v-5.9h-1.2v16.2h-7.8v1.1h18.6v-1.1h-9.7v-9.2H183.4z M204.2,431
			l-0.2-1c-4.8,0.3-10.5,0.5-16.9,0.6c0.1,0.2,0.1,0.6,0.2,1c1.7,0,4.2-0.1,7.8-0.2v3.9h-6.9v10.3h1.1v-9.3h5.8v11.5h1.1v-11.5h6
			v6.6c0,1-0.5,1.5-1.7,1.5h-0.8c-0.2,0-0.4,0-0.5,0c-0.3,0-0.5,0-0.8,0c0.1,0.3,0.2,0.7,0.2,1.1c0.5,0,0.9,0,1.3,0c0.4,0,0.7,0,1,0
			c1.7,0,2.5-0.8,2.4-2.4v-7.7h-7.1v-3.9C199.6,431.3,202.3,431.1,204.2,431z M207.9,443.9h1.1v-1.2h6.1v5.2h1.1v-5.2h6.1v1.2h1.1
			V432h-7.2v-3h-1.1v3h-7.2V443.9z M216.2,433h6.1v3.9h-6.1V433z M216.2,437.8h6.1v3.9h-6.1V437.8z M209,433h6.1v3.9H209V433z
			 M209,437.8h6.1v3.9H209V437.8z M242.2,446.3c-0.2,0.2-0.6,0.3-1.1,0.3c-0.6,0-1,0-1.4,0c-0.4,0-0.8,0-1.2-0.1
			c0.1,0.3,0.2,0.6,0.3,1c0,0,0,0.1,0,0.1c0.8,0,1.7,0,2.6,0c1.5,0,2.3-0.7,2.2-2.1v-7.3h-10.7v9.6h1v-3.5h8.7v1.2
			C242.6,445.8,242.5,446.1,242.2,446.3z M233.9,439h8.7v1.7h-8.7V439z M233.9,443.4v-1.7h8.7v1.7H233.9z M226.2,436.7h2.4v8.3
			c0,0.5-0.1,0.9-0.5,1.2l0.7,0.8c0.3-0.2,0.5-0.5,0.8-0.6c0.6-0.4,1.4-1,2.5-1.6c-0.1-0.4-0.1-0.8-0.2-1.1
			c-0.5,0.4-1.2,0.9-2.2,1.5v-9.4h-3.4V436.7z M228.1,429.6l-0.8,0.7c0.9,0.9,1.8,1.8,2.7,2.8l0.9-0.7
			C230.1,431.5,229.2,430.6,228.1,429.6z M245.1,435.8h-6.4v-1.7h5.5v-0.9h-5.5v-1.7h6.1v-0.9h-6.1v-1.7h-1v1.7H232v0.9h5.7v1.7
			h-5.3v0.9h5.3v1.7h-6.3v0.9h13.7V435.8z M185.1,525.5h-5.5V516h4.8v-1h-4.8v-5.8h-1.1v5.8h-4.6v1h4.6v9.6h-5.7v1h12.3V525.5z
			 M166.6,522.3c1.3-1.7,2.2-3.7,2.8-6.1v11.5h1.1v-10.2c0.6,0.6,1.5,1.6,2.5,2.8l0.8-0.7c-0.8-0.8-1.7-1.8-2.7-2.8l-0.7,0.6V514h3
			v-1h-3v-3.9h-1.1v3.9h-3v1h2.9c-0.7,2.9-1.8,5.3-3.4,7.3C166.2,521.6,166.4,522,166.6,522.3z M204,522.6c-0.1,0.9-0.2,1.6-0.3,2.1
			c-0.2,1.1-0.9,1.6-2.1,1.6h-5.4c-1.2,0-1.8-0.5-1.7-1.5v-3.9h9.1V515H200l2.2-3v-1h-5.3c0.2-0.3,0.5-0.8,0.8-1.4
			c0.1-0.2,0.2-0.3,0.2-0.4l-1.1-0.2c-1.3,2.5-2.8,4.7-4.5,6.5c0.2,0.3,0.4,0.6,0.6,0.9c0.3-0.3,0.5-0.6,0.6-0.7v9.4
			c0,1.5,0.8,2.3,2.5,2.3h5.9c1.6,0,2.6-0.7,2.9-2.2c0.1-0.5,0.2-1.2,0.3-2.2C204.7,522.8,204.4,522.7,204,522.6z M198.2,519.9h-3.5
			v-3.9h3.5V519.9z M202.7,515.9v3.9h-3.6v-3.9H202.7z M194,515c0.7-0.9,1.5-1.9,2.2-3.1h4.7l-2.2,3.1H194z M186.3,526.2
			c2.2-0.4,4.2-0.8,6-1c0-0.4,0-0.7,0.1-1c-2.1,0.4-4.2,0.7-6.3,1L186.3,526.2z M186.5,516.6c0.8-0.1,1.9-0.1,3.4-0.1
			c-0.7,1.1-1.4,2.1-2,2.9c-0.5,0.6-1,1.1-1.4,1.4l0.4,1c1-0.1,2.7-0.3,5.2-0.5c0-0.1,0-0.1,0-0.2c0-0.3,0.1-0.6,0.1-0.7
			c-1,0.1-2.4,0.2-4.1,0.3c1.5-1.9,3-4.1,4.7-6.7l-1-0.5c-0.5,0.9-1,1.6-1.3,2.1c-0.6,0-1.3,0-2.2,0.1c-0.4,0-0.7,0-0.8,0
			c1.3-1.9,2.7-3.9,4-6.2l-1.1-0.4c-0.8,1.7-1.8,3.4-2.9,5.1c-0.4,0.6-0.8,1.1-1.2,1.4L186.5,516.6z M216.1,512.2
			c0-0.5,0.1-1.2,0.1-2.1c0-0.4,0-0.7,0-0.9h-1.2c0,1.2,0,2.1-0.1,2.8c0,0.7-0.1,1.4-0.2,2.1c-0.7,5.5-3.5,9.7-8.5,12.6
			c0.2,0.2,0.5,0.5,0.8,0.9c5-2.9,7.8-7.1,8.5-12.7c0.6,5.7,3.5,9.9,8.5,12.5c0.3-0.4,0.5-0.7,0.8-1
			C219.9,524.1,216.9,519.4,216.1,512.2z M228.5,510.1c1,0.9,2,1.9,2.8,2.8l0.9-0.8c-1.1-1.1-2.1-2-2.9-2.7L228.5,510.1z
			 M226.6,526.9c0.3,0.3,0.6,0.6,0.9,0.9c4.8-3,7.5-7.2,7.9-12.7h7.4c0,3-0.2,5.8-0.3,8.2c-0.1,1.1-0.3,1.8-0.7,2.1
			c-0.4,0.4-1,0.6-2.1,0.6c-1.7,0-2.9,0-3.6-0.1c0.1,0.4,0.2,0.8,0.3,1.3c1.2,0,2.3,0,3.5,0c2.4,0.1,3.6-1.2,3.7-3.9
			c0.2-3.1,0.3-6.2,0.3-9.3h-8.3c0.2-1.4,0.3-3.1,0.3-5.2h-1.1c0,2-0.1,3.7-0.3,5.2h-7.5v1.1h7.3C234,520.1,231.4,524,226.6,526.9z
			 M237.1,518.3l-0.8,0.6c1.3,1.3,2.3,2.4,3,3.3l0.9-0.8C239.3,520.4,238.3,519.4,237.1,518.3z M256.2,511.5h7.3v-1.1h-15.8v1.1h7.3
			v6.1h-8.9v1.1h8.9v9.2h1.2v-9.2h8.9v-1.1h-8.9V511.5z M273.2,510h-6.7v0.9h5.6l-2.5,3c-0.5-0.5-1-1-1.5-1.4l-0.7,0.6
			c1.2,1.1,2.2,2.2,3,3.1h-4.3v1h3.2v8.3c0,0.8-0.4,1.1-1.2,1.1c-0.6,0-1.2,0-1.6-0.1c0.1,0.3,0.1,0.6,0.2,1.1h1c0.3,0,0.5,0,0.8,0
			c1.3,0,1.9-0.7,1.9-2.1v-8.4h2.5l-1,3.1c0.4,0.1,0.7,0.1,1,0.3l1-3.3v-1h-3.3l0.7-0.6c-0.1-0.1-0.2-0.2-0.3-0.3
			c-0.3-0.3-0.5-0.5-0.6-0.6l3-3.5V510z M280.2,518.9v-2.7h-1v2.6c0,2.1-0.4,3.7-1.2,4.7c-0.8,1.1-2.4,2.2-4.9,3.4
			c0.3,0.3,0.5,0.6,0.7,0.9c3.1-1.6,4.9-3.2,5.6-4.7c1.5,1.3,3.2,2.8,4.9,4.4l0.8-0.9c-1.4-1.2-3.2-2.7-5.3-4.5
			C280,521.3,280.2,520.2,280.2,518.9z M285.1,510.9v-1h-10.6v1h4.5l-0.5,3.1h-3.3v9.2h1V515h7v8.2h1v-9.1h-4.8l0.6-3.1H285.1z
			 M184.5,558c-2.1-1.4-4.1-2.7-5.9-3.9l-0.7,0.8c2.1,1.4,4.1,2.8,5.8,4.1L184.5,558z M166.5,552.9h18.2v-1h-8.9l0.9-0.5
			c-0.4-0.8-0.9-1.6-1.4-2.5l-1,0.5c0.6,0.9,1,1.7,1.4,2.5h-9.1V552.9z M167,567.8c4.1-1.2,7-2.5,8.6-3.9c1.7,1.4,4.6,2.7,8.5,3.7
			c0.2-0.5,0.4-0.9,0.6-1.1c-3.7-0.8-6.5-2-8.3-3.4c1.3-1.2,2.4-3,3.5-5.2l-1-0.4c-1,2.2-2.1,3.9-3.3,5c-1.3-1.2-2.4-2.8-3.4-4.8
			l-1,0.5c1.1,2.2,2.3,3.9,3.5,5c-1.6,1.3-4.4,2.5-8.4,3.5L167,567.8z M172.5,554.1c-1.8,1.7-3.8,3.1-5.8,4.3c0.3,0.4,0.5,0.7,0.7,1
			c2.2-1.5,4.1-2.9,5.9-4.4L172.5,554.1z M191.2,559c0.4-0.4,0.8-0.9,1.2-1.5l-1-0.4c-1.3,1.8-2.9,3.4-5,4.6
			c0.3,0.3,0.5,0.6,0.7,0.8c1.3-0.8,2.4-1.6,3.3-2.6h3.6c-1.1,2.4-3.7,4.3-7.7,5.8c0.3,0.3,0.5,0.6,0.7,0.9c4.2-1.6,6.9-3.8,8.1-6.7
			h3.3c-0.6,2.9-2.8,5.3-6.5,7c0.2,0.2,0.5,0.5,0.7,0.9c3.9-1.8,6.2-4.5,6.9-7.8h3.2c0,0.9-0.1,2.1-0.2,3.5c0,2-0.9,2.9-2.5,2.9
			c-0.1,0-0.2,0-0.3,0c-0.8,0-1.7,0-2.5-0.1c0.1,0.4,0.2,0.8,0.2,1.1c0.9,0,1.7,0,2.3,0c2.5,0.1,3.8-1.2,3.8-3.9
			c0.1-1.6,0.2-3.1,0.2-4.5H191.2z M188.8,556.9h13.9v-7.1h-13.9V556.9z M189.9,550.7h11.9v2.1h-11.9V550.7z M189.9,553.8h11.9v2.2
			h-11.9V553.8z M214.8,566c-0.2,0.2-0.7,0.3-1.3,0.3h-1c-0.3,0-0.5,0-0.7,0c-0.5,0-0.9,0-1.2,0c0,0,0,0.1,0,0.2
			c0.1,0.4,0.2,0.7,0.2,1c1.4,0,2.4,0,2.9,0c1.8,0,2.6-0.8,2.6-2.4v-3.7h8.8v-1h-8.8v-4.1h7.1v-1h-7.1v-4c2.4-0.1,4.7-0.2,7-0.3
			l-0.2-1c-4.7,0.3-9.9,0.5-15.6,0.6c0.1,0.4,0.2,0.8,0.2,1c2.2,0,4.7-0.1,7.6-0.2v4h-7.5v1h7.5v4.1h-8.9v1h8.9v3.5
			C215.1,565.4,215,565.8,214.8,566z M226.4,556.4c0.7-0.1,1.8-0.2,3.2-0.2c-0.7,1.1-1.4,2.1-2.1,3.2c-0.4,0.5-0.7,0.9-1.1,1.1
			l0.4,1c0.7-0.1,2.4-0.3,5.1-0.5c0-0.4,0.1-0.7,0.1-1c-1.6,0.1-3,0.3-4,0.3c1.5-2.2,3.1-4.5,4.6-7.1l-1-0.4
			c-0.5,0.8-0.9,1.6-1.4,2.4c-0.8,0-1.7,0.1-2.8,0.1c1.2-1.7,2.4-3.7,3.7-6.1l-1.1-0.4c-0.9,2-2,3.8-3.1,5.5
			c-0.2,0.4-0.5,0.7-0.9,0.9L226.4,556.4z M226.2,564.9l0.2,1c0.1,0,0.3,0,0.6-0.1c2.3-0.4,4-0.6,5.1-0.8c0-0.1,0-0.3,0-0.5
			c0-0.2,0-0.4,0-0.5C230.1,564.3,228.1,564.6,226.2,564.9z M245,562.7v-0.9h-5.2c0.2-1.2,0.4-3,0.4-5.3h-1c0,2.5-0.1,4.2-0.4,5.3
			h-6v0.9h5.7c-0.6,1.7-2.8,3-6.6,4.2c0.2,0.3,0.4,0.6,0.6,1c3.2-1.1,5.3-2.3,6.3-3.6c1.9,1.1,3.6,2.3,5.4,3.4l0.7-0.9
			c-1.8-1.1-3.6-2.2-5.6-3.3c0.1-0.2,0.2-0.4,0.3-0.7H245z M233,559.1c0.9,0.5,1.9,1,2.9,1.7l0.5-0.8c-1.2-0.7-2.1-1.2-2.9-1.6
			L233,559.1z M237.8,557.8c-1-0.6-1.9-1.1-2.8-1.5l-0.5,0.7c0.9,0.5,1.8,1,2.8,1.6L237.8,557.8z M244,552.2v-0.9h-4.7V549h-1v2.3
			h-4.6v0.9h4.6v2.4h-5.4v0.9h10.9l-0.6,2.3c0.4,0,0.7,0.1,1,0.1l0.6-2.4v-1h-5.5v-2.4H244z M255.6,564.5c2.2,0.8,4.9,1.9,8.1,3.2
			l0.5-1c-2.4-0.9-5.1-1.9-8.2-3c0.2-0.6,0.4-1.2,0.4-2h-1.1c-0.1,1.6-0.7,2.7-1.8,3.3c-1.1,0.7-3.2,1.3-6.3,1.8
			c0.2,0.3,0.4,0.7,0.5,1C252.2,567.1,254.8,566,255.6,564.5z M246.2,560.6c0.2,0.3,0.4,0.6,0.6,1c1.1-0.3,2.1-0.7,2.9-1.1v4.3h1
			v-4.2h10.1v3.9h1v-4.8h-10.6c1.1-0.6,1.8-1.5,2.1-2.5h4.5v1.8h1v-1.8h4.6c0,0.1,0,0.3,0,0.6c0,0.5-0.3,0.8-0.9,0.7
			c-0.5,0-1.1,0-1.8,0c0.1,0.3,0.2,0.6,0.2,0.9h0.6c0.1,0,0.3,0,0.4,0c0.3,0,0.5,0,0.8,0c1,0,1.5-0.5,1.6-1.4c0-0.5,0.1-1,0.1-1.6
			h-5.6v-2h4.7v-3.7h-4.7V549h-1v1.6H254c0-0.2,0-0.5,0-0.8c0-0.4,0-0.6,0-0.8h-1c0,0.2,0,0.4,0,0.8c0,0.4,0,0.7,0,0.9h-5.6v0.9h5.5
			c0,0.9-0.1,1.5-0.1,1.9h-4.6l-0.6,3.7h4.4C251.7,558.6,249.7,559.7,246.2,560.6z M258.9,551.5h3.7v1.9h-3.7V551.5z M254,552.6
			c0-0.5,0-0.8,0-1.1h3.8v1.9h-3.9C254,553.3,254,553,254,552.6z M253.9,554.3h4v2h-4.2C253.8,555.8,253.9,555.1,253.9,554.3z
			 M248.9,556.3l0.3-2h3.7c0,0.7-0.1,1.4-0.3,2H248.9z M172.5,594.1c-1.8,1.7-3.8,3.1-5.8,4.3c0.3,0.4,0.5,0.7,0.7,1
			c2.2-1.5,4.1-2.9,5.9-4.4L172.5,594.1z M167,607.8c4.1-1.2,7-2.5,8.6-3.9c1.7,1.4,4.6,2.7,8.5,3.7c0.2-0.5,0.4-0.9,0.6-1.1
			c-3.7-0.8-6.5-2-8.3-3.4c1.3-1.2,2.4-3,3.5-5.2l-1-0.4c-1,2.2-2.1,3.9-3.3,5c-1.3-1.2-2.4-2.8-3.4-4.8l-1,0.5
			c1.1,2.2,2.3,3.9,3.5,5c-1.6,1.3-4.4,2.5-8.4,3.5L167,607.8z M184.5,598c-2.1-1.4-4.1-2.7-5.9-3.9l-0.7,0.8
			c2.1,1.4,4.1,2.8,5.8,4.1L184.5,598z M184.8,591.9h-8.9l0.9-0.5c-0.4-0.8-0.9-1.6-1.4-2.5l-1,0.5c0.6,0.9,1,1.7,1.4,2.5h-9.1v1
			h18.2V591.9z M199.9,606.5c-0.1,0-0.2,0-0.3,0c-0.8,0-1.7,0-2.5-0.1c0.1,0.4,0.2,0.8,0.2,1.1c0.9,0,1.7,0,2.3,0
			c2.5,0.1,3.8-1.2,3.8-3.9c0.1-1.6,0.2-3.1,0.2-4.5h-12.5c0.4-0.4,0.8-0.9,1.2-1.5l-1-0.4c-1.3,1.8-2.9,3.4-5,4.6
			c0.3,0.3,0.5,0.6,0.7,0.8c1.3-0.8,2.4-1.6,3.3-2.6h3.6c-1.1,2.4-3.7,4.3-7.7,5.8c0.3,0.3,0.5,0.6,0.7,0.9c4.2-1.6,6.9-3.8,8.1-6.7
			h3.3c-0.6,2.9-2.8,5.3-6.5,7c0.2,0.2,0.5,0.5,0.7,0.9c3.9-1.8,6.2-4.5,6.9-7.8h3.2c0,0.9-0.1,2.1-0.2,3.5
			C202.4,605.5,201.6,606.5,199.9,606.5z M202.8,589.8h-13.9v7.1h13.9V589.8z M201.7,596h-11.9v-2.2h11.9V596z M201.7,592.9h-11.9
			v-2.1h11.9V592.9z M208.4,594.9v9.3h1.1v-1.6h7.1v-7.7H208.4z M215.4,601.6h-6v-5.7h6V601.6z M217.3,607.4c0.3,0,0.5,0,0.8,0
			c0.4,0,0.8,0,1.2,0c1.8,0,2.6-0.8,2.5-2.4v-13.4h3.3v-1h-18.8v1h14.5v13.1c0,0.7-0.1,1.1-0.4,1.4c-0.2,0.2-0.7,0.4-1.4,0.4H218
			c-0.3,0-0.5,0-0.7,0c-0.5,0-0.9,0-1.3,0c0.1,0.4,0.1,0.7,0.2,1.1H217.3z M244.3,594.4v-3.2h-8.6l0.9-0.4c-0.3-0.6-0.7-1.3-1.2-2
			l-1,0.4c0.4,0.8,0.8,1.4,1.1,2h-8.7v3.2h1v-2.3h15.4v2.3H244.3z M242.6,604.5v-9.2h-6.4v-2.1h-1.1v2.1h-6.4v9.2h1v-0.9h5.4v4.3
			h1.1v-4.3h5.4v0.9H242.6z M235.1,602.6h-5.4v-2.8h5.4V602.6z M235.1,599h-5.4v-2.7h5.4V599z M236.1,596.2h5.4v2.7h-5.4V596.2z
			 M236.1,602.6v-2.8h5.4v2.8H236.1z M246.2,596.6h2.8v8.3c0,0.4,0,0.7-0.1,0.9c-0.1,0.2-0.2,0.5-0.5,0.7l0.8,0.8
			c0.3-0.3,0.6-0.6,0.9-0.8c1.4-1,2.8-1.9,4-2.6c-0.1-0.3-0.3-0.7-0.4-1.1c-1.1,0.8-2.3,1.6-3.7,2.5v-9.7h-3.8V596.6z M251,593.2
			l0.9-0.8c-1-1-2.1-2-3.2-3.1l-0.8,0.7C248.7,590.8,249.8,591.9,251,593.2z M259.3,589h-1.1v6.7h-5.8v1h5.8v11h1.1v-11h5.8v-1h-5.8
			V589z M170.5,647.7v-10.2c0.6,0.6,1.5,1.6,2.5,2.8l0.8-0.7c-0.8-0.8-1.7-1.8-2.7-2.8l-0.7,0.6V634h3v-1h-3v-3.9h-1.1v3.9h-3v1h2.9
			c-0.7,2.9-1.8,5.3-3.4,7.3c0.3,0.4,0.5,0.7,0.6,1.1c1.3-1.7,2.2-3.7,2.8-6.1v11.5H170.5z M185.1,645.5h-5.5V636h4.8v-1h-4.8v-5.8
			h-1.1v5.8h-4.6v1h4.6v9.6h-5.7v1h12.3V645.5z M191.8,633.4c-0.5,0.9-1,1.6-1.3,2.1c-0.6,0-1.3,0-2.2,0.1c-0.4,0-0.7,0-0.8,0
			c1.3-1.9,2.7-3.9,4-6.2l-1.1-0.4c-0.8,1.7-1.8,3.4-2.9,5.1c-0.4,0.6-0.8,1.1-1.2,1.4l0.3,1c0.8-0.1,1.9-0.1,3.4-0.1
			c-0.7,1.1-1.4,2.1-2,2.9c-0.5,0.6-1,1.1-1.4,1.4l0.4,1c1-0.1,2.7-0.3,5.2-0.5c0-0.1,0-0.1,0-0.2c0-0.3,0.1-0.6,0.1-0.7
			c-1,0.1-2.4,0.2-4.1,0.3c1.5-1.9,3-4.1,4.7-6.7L191.8,633.4z M186.3,646.2c2.2-0.4,4.2-0.8,6-1c0-0.4,0-0.7,0.1-1
			c-2.1,0.4-4.2,0.7-6.3,1L186.3,646.2z M205.1,642.9c-0.4-0.1-0.7-0.2-1-0.3c-0.1,0.9-0.2,1.6-0.3,2.1c-0.2,1.1-0.9,1.6-2.1,1.6
			h-5.4c-1.2,0-1.8-0.5-1.7-1.5v-3.9h9.1V635H200l2.2-3v-1h-5.3c0.2-0.3,0.5-0.8,0.8-1.4c0.1-0.2,0.2-0.3,0.2-0.4l-1.1-0.2
			c-1.3,2.5-2.8,4.7-4.5,6.5c0.2,0.3,0.4,0.6,0.6,0.9c0.3-0.3,0.5-0.6,0.6-0.7v9.4c0,1.5,0.8,2.3,2.5,2.3h5.9c1.6,0,2.6-0.7,2.9-2.2
			C204.9,644.5,205,643.8,205.1,642.9z M198.2,639.9h-3.5v-3.9h3.5V639.9z M202.7,635.9v3.9h-3.6v-3.9H202.7z M194,635
			c0.7-0.9,1.5-1.9,2.2-3.1h4.7l-2.2,3.1H194z M219.6,641.8c-0.8,0-1.7,0-2.5-0.1c0.1,0.3,0.2,0.7,0.2,1.1h1.4c0.4,0,0.7,0,1,0
			c1.8,0,2.7-0.7,2.7-2.3c0.1-1.2,0.1-2.6,0.1-4.2h-8.5v8.4c0,1,0.2,1.6,0.6,2c0.4,0.4,1.1,0.5,2.1,0.5h4.8c1.6,0,2.5-0.7,2.8-2.1
			c0.1-0.8,0.3-1.7,0.4-2.7c-0.4-0.1-0.7-0.2-1.1-0.3c-0.1,1-0.2,1.9-0.3,2.6c-0.2,1-0.8,1.5-2,1.4h-4.3c-0.8,0-1.3-0.1-1.6-0.3
			c-0.3-0.2-0.4-0.7-0.4-1.3v-7.3h6.4c0,1.1,0,2.1-0.1,3.1C221.4,641.4,220.8,641.8,219.6,641.8z M219,629.7c0-0.1,0.1-0.2,0.2-0.3
			c0.1-0.2,0.2-0.4,0.3-0.5l-1.1-0.2c-1.5,2.9-3.6,5.2-6.4,6.9c0.2,0.2,0.5,0.5,0.8,0.9c2.5-1.8,4.5-3.8,5.8-6
			c1.5,2.3,3.5,4.2,5.9,5.7c0.2-0.3,0.5-0.7,0.7-1C222.7,634.1,220.7,632.2,219,629.7z M207.8,646.5c-0.5,0-1,0-1.5-0.1
			c0.1,0.3,0.2,0.7,0.2,1.1h0.9c0.2,0,0.4,0,0.6,0c1.3,0,1.9-0.6,1.8-1.9v-6c0.2-0.1,0.6-0.1,1-0.2c0.6-0.2,1.1-0.3,1.4-0.3
			c0-0.2,0-0.6,0-1c-0.3,0.1-0.7,0.2-1.2,0.3c-0.5,0.1-0.9,0.2-1.2,0.3v-4.8h2.3v-0.9H210V629h-1v3.9h-2.5v0.9h2.5v5
			c-0.4,0.1-1,0.2-1.8,0.4c-0.5,0.1-0.8,0.2-1,0.2l0.2,1.1c0.3-0.1,0.7-0.2,1.3-0.3c0.6-0.1,1-0.3,1.3-0.3v5.7
			C209,646.2,208.6,646.5,207.8,646.5z M244.2,642.4c-0.1,1-0.2,1.8-0.3,2.6c-0.2,0.8-0.7,1.2-1.7,1.2H240c-1,0-1.5-0.4-1.4-1.4V639
			h6.3v-1h-8.1v-4.2h7v-1h-7V629h-1.1v3.8h-4.9c0.4-0.8,0.8-1.8,1.3-3l-1.1-0.3c-0.9,2.5-2,4.7-3.5,6.5c0.2,0.1,0.6,0.3,0.9,0.6
			c0.7-1,1.3-1.9,1.8-2.9h5.4v4.2h-9.1v1h5.6c0,0.1,0,0.3,0,0.5c0,3.7-2,6.1-5.9,7.2c0.2,0.2,0.4,0.6,0.6,1c4.2-1.4,6.3-4.2,6.3-8.3
			c0-0.2,0-0.4,0-0.5h4.3v6c0,1.5,0.7,2.3,2.3,2.2h2.6c1.4,0,2.3-0.7,2.5-1.9c0.1-0.5,0.2-1.3,0.4-2.6
			C244.9,642.7,244.6,642.6,244.2,642.4z M247,647.8c4.1-1.2,7-2.5,8.6-3.9c1.7,1.4,4.6,2.7,8.5,3.7c0.2-0.5,0.4-0.9,0.6-1.1
			c-3.7-0.8-6.5-2-8.3-3.4c1.3-1.2,2.4-3,3.5-5.2l-1-0.4c-1,2.2-2.1,3.9-3.3,5c-1.3-1.2-2.4-2.8-3.4-4.8l-1,0.5
			c1.1,2.2,2.3,3.9,3.5,5c-1.6,1.3-4.4,2.5-8.4,3.5L247,647.8z M246.5,632.9h18.2v-1h-8.9l0.9-0.5c-0.4-0.8-0.9-1.6-1.4-2.5l-1,0.5
			c0.6,0.9,1,1.7,1.4,2.5h-9.1V632.9z M252.5,634.1c-1.8,1.7-3.8,3.1-5.8,4.3c0.3,0.4,0.5,0.7,0.7,1c2.2-1.5,4.1-2.9,5.9-4.4
			L252.5,634.1z M264.5,638c-2.1-1.4-4.1-2.7-5.9-3.9l-0.7,0.8c2.1,1.4,4.1,2.8,5.8,4.1L264.5,638z M268.8,636.9h13.9v-7.1h-13.9
			V636.9z M269.9,630.7h11.9v2.1h-11.9V630.7z M269.9,633.8h11.9v2.2h-11.9V633.8z M283.5,643.5c0.1-1.6,0.2-3.1,0.2-4.5h-12.5
			c0.4-0.4,0.8-0.9,1.2-1.5l-1-0.4c-1.3,1.8-2.9,3.4-5,4.6c0.3,0.3,0.5,0.6,0.7,0.8c1.3-0.8,2.4-1.6,3.3-2.6h3.6
			c-1.1,2.4-3.7,4.3-7.7,5.8c0.3,0.3,0.5,0.6,0.7,0.9c4.2-1.6,6.9-3.8,8.1-6.7h3.3c-0.6,2.9-2.8,5.3-6.5,7c0.2,0.2,0.5,0.5,0.7,0.9
			c3.9-1.8,6.2-4.5,6.9-7.8h3.2c0,0.9-0.1,2.1-0.2,3.5c0,2-0.9,2.9-2.5,2.9c-0.1,0-0.2,0-0.3,0c-0.8,0-1.7,0-2.5-0.1
			c0.1,0.4,0.2,0.8,0.2,1.1c0.9,0,1.7,0,2.3,0C282.1,647.6,283.4,646.2,283.5,643.5z M180,710l-0.7,0.7c1.3,1.1,2.4,2.1,3.3,2.9
			l0.8-0.8C182.2,711.8,181.1,710.8,180,710z M168.9,715.7v12.1h1.1v-14.2c0.6-1.3,1.2-2.7,1.8-4.2l-1.1-0.3
			c-1.2,3.5-2.8,6.5-4.8,9.1c0.2,0.4,0.4,0.8,0.5,1.2C167.3,718.2,168.2,717,168.9,715.7z M171.8,716.8l4.5-0.5
			c0.3,3.5,0.9,6.2,1.9,8.2c1,2.1,2.3,3.2,3.9,3.2c1.2,0,2-0.7,2.4-2.2c0.2-0.8,0.4-1.6,0.5-2.4c-0.3-0.1-0.7-0.2-1-0.4
			c-0.2,1-0.3,1.8-0.5,2.5c-0.2,0.9-0.7,1.4-1.4,1.4c-1.1,0-2-0.9-2.9-2.6c-1-1.9-1.6-4.5-1.8-7.8l7.3-0.8l-0.1-1l-7.3,0.8
			c-0.1-1.6-0.2-3.7-0.2-6.1H176c0,2.5,0.1,4.5,0.2,6.2l-4.6,0.5L171.8,716.8z M199.6,727.4c0.2,0,0.4,0,0.6,0c0.4,0,0.7,0,1.1,0
			c1.8,0,2.8-0.9,2.8-2.6c0.1-1.9,0.2-4.1,0.3-6.7h-2.1l0.8-7.9h-8.4v1h7.3l-0.7,6.9h-5l0.5-5.7h-1l-0.6,6.7h8.2
			c-0.1,2-0.1,3.8-0.3,5.6c-0.1,1.2-0.7,1.8-1.9,1.8c-1,0-1.9,0-2.6-0.1c0.1,0.4,0.2,0.7,0.3,1.1H199.6z M201.8,722H194v1h7.8V722z
			 M193.7,711.7v-1h-7v1h3.1c-0.7,2.7-1.9,5.2-3.6,7.6c0.2,0.3,0.4,0.6,0.6,0.9c0.6-0.9,1.1-1.6,1.3-2v8.8h1v-1.6h2.9v1.4h1v-10.2
			H189c0.7-1.4,1.3-3,1.8-4.9H193.7z M189.1,717.5h2.9v7h-2.9V717.5z M220.3,711.5h4v-1.1h-17.1v1.1h4.2v6.1h-5.1v1.1h5.1
			c0,2.2-0.3,3.8-1,4.9c-0.6,1.1-1.9,2.2-3.8,3.2c0.3,0.3,0.6,0.7,0.8,1c3.4-1.7,5.1-4.5,5.1-8.4c0-0.3,0-0.5,0-0.7h6.6v9h1.1v-9
			h4.8v-1.1h-4.8V711.5z M219.2,717.6h-6.6v-6.1h6.6V717.6z M226.6,727.2l1.1,0.4c0.6-2.7,1.2-5.1,1.8-7.3c-0.4-0.1-0.7-0.3-1-0.4
			C227.8,722.7,227.2,725.1,226.6,727.2z M236,722.6c-0.9,1.4-1.9,2.7-3,3.8c0.2,0.2,0.5,0.4,0.8,0.7c1.1-1.3,2.2-2.6,3-3.9
			L236,722.6z M241.3,723.1c1.2,1.4,2.3,2.7,3.1,3.7l0.9-0.7c-0.8-1-1.9-2.3-3.2-3.7L241.3,723.1z M245.1,711.3v-1h-13.1v6.5
			c0,2.6-0.2,4.7-0.5,6.1c-0.3,1.5-1,2.8-2,4.2c0.4,0.2,0.7,0.5,0.9,0.7c1.9-2.6,2.8-6.2,2.6-10.9v-5.5h5.6l-0.7,2.6h-2.9v7.2h3.9
			v4.4c0,0.7-0.3,1.1-1,1.1c-0.6,0-1.2,0-1.8-0.1c0.1,0.4,0.2,0.7,0.3,1h1c0.3,0,0.5,0,0.7,0c1.3,0,1.9-0.7,1.8-2v-4.5h3.8v-7.2
			h-4.8l0.8-2.6H245.1z M242.6,720.2h-6.7V718h6.7V720.2z M242.6,714.8v2.2h-6.7v-2.2H242.6z M226.2,715.2c1.1,0.8,2.1,1.6,3.1,2.5
			l0.8-0.9c-1-0.8-2.1-1.6-3.1-2.4L226.2,715.2z M227.7,709.4l-0.7,0.7c0.9,0.8,1.9,1.6,2.9,2.6l0.8-0.8
			C229.7,711,228.7,710.2,227.7,709.4z M180.3,751.5h4v-1.1h-17.1v1.1h4.2v6.1h-5.1v1.1h5.1c0,2.2-0.3,3.8-1,4.9
			c-0.6,1.1-1.9,2.2-3.8,3.2c0.3,0.3,0.6,0.7,0.8,1c3.4-1.7,5.1-4.5,5.1-8.4c0-0.3,0-0.5,0-0.7h6.6v9h1.1v-9h4.8v-1.1h-4.8V751.5z
			 M179.2,757.6h-6.6v-6.1h6.6V757.6z M200.5,763c1.5-2.1,2.5-5.2,2.9-9.3h1.7v-1h-7c0.5-1.3,0.9-2.5,1.3-3.6l-1.1-0.2
			c-0.8,3.2-2.1,5.9-3.8,8.2c0.2,0.2,0.4,0.4,0.8,0.9c0.6-0.9,1.1-1.7,1.4-2.4c0.3,3.1,1.1,5.5,2.4,7.4c-1.1,1.3-2.8,2.6-5.1,4
			c0.2,0.3,0.5,0.6,0.8,1c2.2-1.3,3.9-2.7,5-4c1.1,1.3,2.6,2.5,4.6,3.8c0.2-0.3,0.4-0.7,0.7-1C203.1,765.5,201.5,764.3,200.5,763z
			 M197.4,754c0.1-0.1,0.1-0.2,0.1-0.2c0,0,0-0.1,0-0.1h4.7c-0.3,3.7-1.2,6.5-2.5,8.3C198.6,760.1,197.8,757.5,197.4,754z
			 M190,749.2c0.4,1,0.7,2,1.1,3.2l1.1-0.3c-0.3-1-0.7-2.1-1.1-3.2L190,749.2z M189.6,758.2h3.5c0,2-0.1,4.1-0.2,6.3
			c0,0.6-0.2,1-0.4,1.3c-0.2,0.2-0.7,0.3-1.3,0.3c-0.5,0-1,0-1.5-0.1c0.1,0.5,0.2,0.8,0.2,1.1c0.7,0,1.1,0,1.5,0
			c1.8,0,2.7-0.8,2.6-2.7c0.1-2.9,0.2-5.3,0.3-7.2h-4.5c0.1-1.5,0.1-2.7,0.1-3.7h5.5v-1h-9v1h2.4c0,1.6-0.1,2.9-0.1,4.1
			c-0.1,4.4-0.9,7.5-2.5,9.4c0.4,0.3,0.7,0.6,0.9,0.7C188.5,765.8,189.4,762.6,189.6,758.2z M211.7,749v2.6h-5.4v1h5.4v2.2h1.1v-2.2
			h5.8v2.2h1.1v-2.2h5.4v-1h-5.4V749h-1.1v2.6h-5.8V749H211.7z M220.9,763.5c-0.4,0.3-1,0.5-1.9,0.5c-0.9,0-1.7,0-2.6-0.1
			c0.1,0.4,0.2,0.8,0.2,1.2c1.2,0,2,0,2.5,0c2.3,0.1,3.5-1.1,3.5-3.4c0.1-1.5,0.2-3.2,0.3-5.1h-15.7v1h5v10.3h1.1v-10.3h8.4
			c0,1.7-0.1,3.1-0.2,4.2C221.5,762.6,221.2,763.2,220.9,763.5z M237.5,763l-1,0.3c0.4,0.8,0.9,2,1.5,3.6c0,0.1,0,0.1,0.1,0.2l1-0.4
			C238.4,764.9,237.8,763.7,237.5,763z M241.5,763.5c1,1.6,1.7,2.9,2.2,3.8l1-0.5c-0.8-1.4-1.6-2.6-2.2-3.7L241.5,763.5z
			 M244.7,752.4v-1h-8.8v-2.5h-1.1v6.3h-6.2v6.3h14.2v-6.3h-7v-2.8H244.7z M241.8,756.2v4.3h-12.1v-4.3H241.8z M233.1,767.3l1.1-0.3
			c-0.5-1.5-1-2.8-1.4-3.8l-1,0.3C232.4,764.9,232.8,766.2,233.1,767.3z M229.6,763.4l-1-0.5c-0.8,1.5-1.6,2.8-2.4,4l1,0.6
			C228,766.3,228.8,765,229.6,763.4z M253.4,758c1.5-1.1,2.9-2.1,4.1-3.2l-0.8-0.7c-1.3,1.1-2.6,2.1-4,3.1
			C253,757.4,253.2,757.7,253.4,758z M264.8,757.1c-1.4-1.1-2.6-2.1-3.8-3l-0.7,0.7c1.1,0.8,2.4,1.9,3.8,3.1L264.8,757.1z
			 M247.8,766.6c-0.5,0-1,0-1.6-0.1c0.1,0.4,0.2,0.7,0.2,1.1c0.7,0,1.2,0,1.6,0c1.3,0,2-0.7,1.9-2.1v-5.9c0.4-0.1,1-0.3,1.7-0.5
			c0.2-0.1,0.4-0.1,0.5-0.1c-0.1-0.3-0.1-0.6-0.1-1c-0.2,0.1-0.5,0.2-1,0.3c-0.5,0.1-0.8,0.3-1.1,0.3v-4.5h2.1v-1h-2.1v-4h-1v4h-2.6
			v1h2.6v4.8c-1.2,0.4-2.2,0.6-2.8,0.8l0.2,1.1c0.9-0.3,1.7-0.5,2.6-0.8v5.6C248.9,766.2,248.6,766.6,247.8,766.6z M259.2,751.8
			l0.9-0.5c-0.4-0.7-0.9-1.4-1.5-2.4l-0.9,0.5C258.2,750.1,258.7,750.9,259.2,751.8z M263.6,754.9h1V752h-11.4v2.9h1v-2h9.4V754.9z
			 M263.6,764.6c-0.1,1.1-1,1.6-2.6,1.6c-1,0-1.8,0-2.5,0c-0.7,0-1.5,0-2.3,0c-1.2,0-1.8-0.4-1.8-1c0-0.4,0.3-0.8,0.8-1.3
			c1.1-1.1,3.4-2.8,6.9-5v-1.2h-7.5v1h6.1c-2.9,1.8-5,3.3-6.3,4.6c-0.7,0.7-1.1,1.4-1.1,2.1c0,1.2,0.9,1.8,2.5,1.9
			c0.9,0,1.8,0,2.7,0c0.9,0,1.9,0,2.9,0c1.8-0.1,2.8-0.8,3.1-2.3c0.1-0.7,0.3-1.6,0.4-2.5c-0.4-0.1-0.7-0.2-1-0.3
			C263.9,763.1,263.8,764,263.6,764.6z M273,756.2h-3.7c0.5-1.2,1-2.7,1.5-4.4h3v-1h-7.1v1h3c-0.7,3.1-1.9,5.7-3.6,7.7
			c0.2,0.2,0.4,0.5,0.6,0.9c0.6-0.7,1-1.4,1.4-1.9v7.4h1v-1.2h3.9V756.2z M272,763.7h-2.9v-6.5h2.9V763.7z M275.2,757
			c0,2.8-0.1,4.8-0.5,6c-0.3,1.2-1,2.6-2.2,4c0.3,0.2,0.6,0.4,0.9,0.7c1.2-1.5,1.9-3,2.2-4.3c0.4-1.4,0.6-3.5,0.5-6.4v-3.9h8.7v-1
			h-9.8V757z M278.5,749.3c0.6,1,1.1,1.9,1.5,2.7l1-0.5c-0.5-0.8-1-1.7-1.5-2.6L278.5,749.3z M289.7,754.3l0.8-0.7
			c-0.6-0.7-1.6-1.6-2.9-2.9l-0.8,0.6C288,752.5,289,753.5,289.7,754.3z M295.6,753.6c1,0.9,1.8,1.6,2.3,2.1l0.8-0.7
			c-1-0.8-1.8-1.5-2.5-2c0,0,0.1-0.1,0.2-0.2c0.2-0.2,0.4-0.4,0.4-0.5h5.9c-1.6,2.9-4.6,4.8-9,5.9c0.2,0.3,0.4,0.6,0.6,1
			c4.7-1.1,7.9-3.4,9.6-6.8v-1h-6.3c0.5-0.6,0.9-1.3,1.3-2l-1.1-0.3c-1.1,2-2.6,3.8-4.5,5.3c0.4,0.3,0.7,0.6,0.8,0.7
			C294.6,754.7,295,754.2,295.6,753.6z M296.4,761.9h8.4v-1H296c0.1-0.4,0.1-0.8,0.2-1.5h-1.1c0,0.6-0.1,1.1-0.2,1.5h-8.4v1h8.2
			c-0.5,2.3-3.4,4-8.5,5c0.2,0.4,0.4,0.7,0.6,1c5.2-1.1,8.1-2.9,8.8-5.4c1.2,2.7,4.1,4.4,8.6,5.2c0.2-0.4,0.4-0.8,0.6-1
			C300.6,766,297.8,764.5,296.4,761.9z M291.3,755.7v4.1h1.1V749h-1.1v5.6c-1.5,0.7-3.2,1.5-5,2.3l0.4,1.1
			C288.3,757.1,289.9,756.4,291.3,755.7z M312.3,758.2c0-1,0.1-2.1,0.1-3.3h4.1v-1h-6.9v1h1.7c0,3.7-0.2,6.2-0.5,7.6
			c-0.3,1.4-0.9,2.9-2,4.5c0.3,0.2,0.6,0.4,0.8,0.7c1.6-2,2.5-4.9,2.6-8.5h2.7c0,1.8-0.1,3.6-0.2,5.3c0,0.7-0.2,1.1-0.4,1.4
			c-0.2,0.2-0.6,0.3-1.1,0.3c-0.5,0-0.9,0-1.2,0c0.1,0.3,0.1,0.6,0.2,1.1h0.7c0.2,0,0.4,0,0.5,0c0.9,0,1.5-0.2,1.8-0.6
			c0.3-0.4,0.5-1.1,0.6-2.2c0.1-2.4,0.2-4.5,0.2-6.2H312.3z M316.8,750.2h-9.2v7.1c0,2.8-0.1,4.8-0.3,5.9c-0.2,1.1-0.6,2.4-1.3,3.7
			c0.2,0.1,0.5,0.3,0.9,0.7c0.7-1.4,1.2-2.7,1.4-4.1c0.2-1.3,0.3-3.3,0.3-6.1v-6.2h8.1V750.2z M320.3,749h-1.1c0,0.9,0,2.2,0,4.1
			h-1.6v1h1.6c0,0.5,0,1.3-0.1,2.2c0,0.4,0,0.7,0,0.8c0,4.4-1,7.7-3.1,9.9c0.4,0.3,0.7,0.5,0.9,0.7c2.2-2.4,3.3-6,3.3-10.9
			c0-0.2,0-0.5,0-0.9c0-0.8,0-1.4,0-1.8h2.9c0,3.3-0.1,6.7-0.2,10.1c0,0.8-0.2,1.3-0.4,1.6c-0.2,0.3-0.6,0.4-1.2,0.4
			c-0.7,0-1.3,0-1.8-0.1c0.1,0.4,0.2,0.8,0.2,1.1h1c0.3,0,0.5,0,0.7,0c0.9,0,1.6-0.3,1.9-0.7c0.4-0.4,0.6-1.3,0.6-2.5
			c0.1-4,0.2-7.6,0.3-11h-4C320.3,751,320.3,749.7,320.3,749z M184.5,798c-2.1-1.4-4.1-2.7-5.9-3.9l-0.7,0.8
			c2.1,1.4,4.1,2.8,5.8,4.1L184.5,798z M176.8,791.4c-0.4-0.8-0.9-1.6-1.4-2.5l-1,0.5c0.6,0.9,1,1.7,1.4,2.5h-9.1v1h18.2v-1h-8.9
			L176.8,791.4z M172.5,794.1c-1.8,1.7-3.8,3.1-5.8,4.3c0.3,0.4,0.5,0.7,0.7,1c2.2-1.5,4.1-2.9,5.9-4.4L172.5,794.1z M179.9,797.9
			l-1-0.4c-1,2.2-2.1,3.9-3.3,5c-1.3-1.2-2.4-2.8-3.4-4.8l-1,0.5c1.1,2.2,2.3,3.9,3.5,5c-1.6,1.3-4.4,2.5-8.4,3.5l0.6,1.1
			c4.1-1.2,7-2.5,8.6-3.9c1.7,1.4,4.6,2.7,8.5,3.7c0.2-0.5,0.4-0.9,0.6-1.1c-3.7-0.8-6.5-2-8.3-3.4
			C177.7,801.9,178.9,800.1,179.9,797.9z M192.3,797.6l-1-0.4c-1.3,1.8-2.9,3.4-5,4.6c0.3,0.3,0.5,0.6,0.7,0.8
			c1.3-0.8,2.4-1.6,3.3-2.6h3.6c-1.1,2.4-3.7,4.3-7.7,5.8c0.3,0.3,0.5,0.6,0.7,0.9c4.2-1.6,6.9-3.8,8.1-6.7h3.3
			c-0.6,2.9-2.8,5.3-6.5,7c0.2,0.2,0.5,0.5,0.7,0.9c3.9-1.8,6.2-4.5,6.9-7.8h3.2c0,0.9-0.1,2.1-0.2,3.5c0,2-0.9,2.9-2.5,2.9
			c-0.1,0-0.2,0-0.3,0c-0.8,0-1.7,0-2.5-0.1c0.1,0.4,0.2,0.8,0.2,1.1c0.9,0,1.7,0,2.3,0c2.5,0.1,3.8-1.2,3.8-3.9
			c0.1-1.6,0.2-3.1,0.2-4.5h-12.5C191.6,798.6,192,798.1,192.3,797.6z M188.8,796.9h13.9v-7.1h-13.9V796.9z M189.9,790.7h11.9v2.1
			h-11.9V790.7z M189.9,793.8h11.9v2.2h-11.9V793.8z M214,794.8h-5.1v-3.4c2.1-0.1,4.1-0.3,5.8-0.6l-0.4-1c-2.1,0.4-4.2,0.6-6.4,0.7
			v7.7c0,2.4-0.1,4.2-0.4,5.3c-0.2,1.1-0.7,2.2-1.5,3.5c0.4,0.3,0.7,0.6,0.9,0.7c1.2-1.9,1.8-4.1,1.9-6.7h5.2V794.8z M212.9,800
			h-4.1c0-0.2,0-0.4,0-0.8c0-0.4,0-0.7,0-0.9v-2.6h4.1V800z M217.2,791.5c2.8-0.2,5.3-0.4,7.5-0.7l-0.4-1c-2.4,0.4-5.2,0.7-8.2,0.8
			v5.9c0,2.8-0.2,4.9-0.6,6.3c-0.4,1.4-1.3,2.8-2.5,4.2c0.4,0.3,0.7,0.6,0.9,0.8c2.4-2.5,3.5-6,3.4-10.6h3.9v10.6h1v-10.6h3v-0.9h-8
			V791.5z M239.8,799.1h5.1v-1h-5.2c0-0.6,0.1-1.2,0.1-1.8v-2.2h4.5v-1h-3.4c0.8-1.2,1.5-2.4,2.3-3.6l-1-0.5
			c-0.6,1.2-1.4,2.6-2.4,4.1h-5v1h4v2.3c0,0.6,0,1.2-0.1,1.7H234v1h4.5c-0.3,3.2-2,5.8-5.1,7.8c0.3,0.3,0.5,0.6,0.8,0.9
			c2.9-2,4.6-4.5,5.1-7.5c0.6,3,2.3,5.4,5,7.3c0.1-0.2,0.3-0.4,0.6-0.7c0.1-0.1,0.2-0.2,0.2-0.2
			C242.3,805.1,240.6,802.6,239.8,799.1z M234.6,803.3c0-0.1,0-0.3,0-0.4v-0.6c-0.2,0-0.6,0.1-1,0.2c-0.3,0.1-0.6,0.1-0.8,0.1v-11.4
			h1.2v-0.9h-7.8v0.9h1.3v12.3c-0.5,0.1-1,0.1-1.4,0.2l0.2,1c2.2-0.4,4-0.8,5.5-1v4h1v-4.2c0.1,0,0.4-0.1,0.7-0.1
			C234,803.4,234.4,803.4,234.6,803.3z M231.8,802.9c-0.6,0.1-1.4,0.2-2.4,0.4c-0.4,0.1-0.6,0.1-0.8,0.1v-3.7h3.2V802.9z
			 M231.8,798.8h-3.2v-3.3h3.2V798.8z M231.8,794.6h-3.2v-3.3h3.2V794.6z M235.4,789.7c0.8,1.2,1.5,2.2,2,3l1-0.5
			c-0.8-1.3-1.5-2.3-2.1-3L235.4,789.7z M263,800.9h-14.7v5.2h-1.9v0.9h18.5v-0.9H263V800.9z M252.8,806.1h-3.6v-4.3h3.6V806.1z
			 M257.4,806.1h-3.5v-4.3h3.5V806.1z M262,806.1h-3.6v-4.3h3.6V806.1z M247.6,798.8h6.1V790h-6.1V798.8z M248.6,790.9h4.1v3h-4.1
			V790.9z M248.6,794.8h4.1v3.1h-4.1V794.8z M261.2,798.7c-1.2,0-2.1,0-2.5,0c0.1,0.3,0.2,0.7,0.2,1c1.1,0,2,0,2.5,0
			c1.5,0,2.2-0.6,2.2-1.9v-7.9h-7.4v3.5c0,1.7-0.1,2.9-0.5,3.7c-0.3,0.8-0.9,1.6-1.9,2.4c0.2,0.1,0.5,0.4,0.8,0.7
			c1.2-1.1,1.9-2.2,2.2-3.4h5.7v0.8C262.7,798.4,262.2,798.8,261.2,798.7z M257.2,790.8h5.4v2.1h-5.4V790.8z M257.1,795.9
			c0.1-0.5,0.1-1.3,0.1-2.2h5.4v2.2H257.1z M16.4,712.4h3.1v-2.5H2.1v2.5h3.5v4.8H1v2.5h4.4c-0.1,1.8-0.6,3.2-1.4,4.1
			c-0.8,0.9-1.8,1.7-3,2.3c0.9,0.7,1.7,1.4,2.5,2c1.6-0.9,2.7-1.9,3.5-3.1c0.8-1.2,1.2-3,1.3-5.3h5.2v8h2.8v-8h4v-2.5h-4V712.4z
			 M13.5,717.2H8.4v-4.8h5.2V717.2z M39.2,714.3h1.1v-2.6h-5.7c0.2-0.7,0.5-1.5,0.7-2.4l-2.7-0.7c-0.7,3.3-1.7,5.9-3.1,7.9h-4.3
			l0-2.1h5v-2.6h-3.7l1.1-0.4c-0.6-1.2-1-2.1-1.5-2.8l-2.5,1c0.3,0.6,0.7,1.4,1.1,2.3h-3.8v2.6h1.7l0,4c0,1.3-0.2,2.5-0.5,3.7
			c-0.3,1.2-0.8,2.2-1.4,3.2c0.7,1.2,1.2,2.2,1.5,2.8c0.7-0.9,1.3-1.9,1.7-3.1c0.2,0.7,0.4,1.6,0.6,2.7c1.2,0,2,0,2.6-0.1
			c0.6-0.1,1-0.3,1.3-0.6c0.3-0.3,0.5-0.7,0.6-1.2c0.1-0.5,0.2-1.6,0.3-3.2l0.2-5.3c0.5,0.6,0.9,1.1,1.3,1.6
			c0.2-0.2,0.4-0.5,0.6-0.8c0.3,1.8,0.9,3.4,1.8,4.9c-1.1,1.1-2.5,2-3.9,2.7c0.5,0.8,1,1.6,1.5,2.6c1.6-0.8,2.9-1.8,4.1-3
			c1,1.1,2.2,2.1,3.6,2.9c0.6-1,1.2-1.9,1.7-2.6c-1.5-0.6-2.7-1.4-3.7-2.4C38,720.6,38.9,717.7,39.2,714.3z M26.9,723.6
			c0,0.9-0.4,1.4-1.1,1.4c-0.5,0-1.1,0-1.7-0.1c0.7-1.7,1-3.8,1.1-6.1h1.9L26.9,723.6z M35,720.7c-0.9-1.6-1.4-3.5-1.6-5.8
			c0.1-0.2,0.2-0.4,0.3-0.6h3C36.4,717,35.8,719.1,35,720.7z M55.7,721.1h4v-2.5h-4V715h4.1v-2.5h-4.1v-3.8H53v3.8h-1.9
			c0.1-0.8,0.3-1.6,0.4-2.4l-2.4-0.2c-0.4,2.6-1,5-1.8,7.1c0.8,0.4,1.5,0.8,2.3,1.3c0.3-1,0.7-2,0.9-3.2H53v3.5h-4.4v2.5H53v3.6
			h-5.4v2.5h12.7v-2.5h-4.6V721.1z M48.4,712.4c-0.8-0.4-1.5-0.7-2.2-1v-2.7h-2.6V728h2.6v-14.2l1.2,0.8L48.4,712.4z M41,718.1
			c0.5,0.1,1,0.2,1.6,0.4c0.2-1.7,0.4-3.7,0.6-5.8l-1.7-0.2C41.4,714.2,41.2,716.1,41,718.1z M12.2,516.5l-2.9-1.3
			c-0.8,1.5-1.9,3.3-3.3,5.4c-1.5,2.1-2.6,3.5-3.5,4l1.2,2.6c0.7-0.2,1.4-0.3,2-0.4l10.2-0.5c0.4,0.6,0.7,1.1,1,1.7l2.6-1.8
			c-1.6-2.4-3.5-4.9-5.5-7.4l-2.3,1.5c0.9,1.2,1.7,2.3,2.5,3.4c-2.4,0.1-4.8,0.2-7.4,0.2C8.2,522.4,10,519.9,12.2,516.5z M9.1,510.4
			l-2.7-1.1c-1.3,2.9-3.1,5.3-5.4,7.4c0.9,0.9,1.5,1.7,2,2.3C5.7,516.5,7.7,513.6,9.1,510.4z M14.7,509l-2.6,1.2
			c1.7,3.5,3.7,6.4,6,8.5c0.5-0.6,1.3-1.4,2.2-2.3C18.1,514.5,16.2,512,14.7,509z M33,517.3l2,1.6c1.5-1.6,3-3.2,4.4-4.9l-2.3-1.6
			C35.8,514.1,34.5,515.7,33,517.3z M32.1,527.9v-6.1h8.1v-2.6h-8.1v-7.2h7.2v-2.6H22v2.6h7.1v7.2h-7.9v2.6h7.9v6.1H32.1z
			 M24.4,512.4l-2.1,1.4c1.1,1.4,2.3,3,3.6,5l2.4-1.6C26.9,515.5,25.6,513.9,24.4,512.4z M55.7,521.1h4v-2.5h-4V515h4.1v-2.5h-4.1
			v-3.8H53v3.8h-1.9c0.1-0.8,0.3-1.6,0.4-2.4l-2.4-0.2c-0.4,2.6-1,5-1.8,7.1c0.8,0.4,1.5,0.8,2.3,1.3c0.3-1,0.7-2,0.9-3.2H53v3.5
			h-4.4v2.5H53v3.6h-5.4v2.5h12.7v-2.5h-4.6V521.1z M43.6,508.7V528h2.6v-14.2l1.2,0.8l1-2.1c-0.8-0.4-1.5-0.7-2.2-1v-2.7H43.6z
			 M41,518.1c0.5,0.1,1,0.2,1.6,0.4c0.2-1.7,0.4-3.7,0.6-5.8l-1.7-0.2C41.4,514.2,41.2,516.1,41,518.1z M1,326.9
			c0.8,0.3,1.7,0.6,2.7,0.9l2.1-7.5c-0.9-0.3-1.7-0.6-2.6-1C2.5,322.3,1.8,324.8,1,326.9z M13.5,327.6v-8.7H11v8.7H13.5z M5.8,316.7
			c-0.9-0.8-2-1.7-3.2-2.5L0.9,316c1.2,1,2.2,1.9,3.1,2.7L5.8,316.7z M16.9,327.8h0.7c0.7,0,1.2-0.2,1.6-0.5
			c0.4-0.3,0.7-0.8,0.8-1.4c0.1-0.6,0.2-1.8,0.4-3.7c-0.6-0.2-1.3-0.5-1.9-0.7c-0.1,2-0.2,3.2-0.2,3.6c-0.1,0.4-0.2,0.6-0.5,0.6
			h-0.1c-0.3,0-0.4-0.2-0.4-0.6v-6.3h-2.5v6.6C14.6,327,15.4,327.8,16.9,327.8z M18,319l2.3-1.6c-1.1-1.3-2.3-2.7-3.7-4.2l-2.1,1.3
			c0.3,0.4,0.6,0.7,1,1.1l-5.1,0.2c0.9-0.9,1.8-1.9,2.6-2.9h6.6v-2.3h-5.2c-0.3-0.7-0.6-1.4-1-2.1l-2.9,0.5c0.3,0.6,0.5,1.1,0.7,1.6
			h-5v2.3h3.3c-1.4,1.8-2.5,2.9-3.4,3.2l0.8,2.2c1.5-0.2,4.9-0.4,10.2-0.6L18,319z M4.3,313.5l1.8-2c-1.1-1-2.2-1.8-3.2-2.5
			l-1.6,1.7C2.1,311.4,3.1,312.3,4.3,313.5z M6.9,328c2.1-1.5,3.1-3.9,3.1-7.1v-2.1H7.5v1.5c0,2.7-0.9,4.6-2.6,5.9
			C5.7,326.9,6.3,327.5,6.9,328z M21.8,310.2v2.5h7.5v-2.5H21.8z M22.1,326.1c0.4-0.2,1.1-0.3,1.9-0.4l5.4-0.5
			c-0.3,0.4-0.7,0.8-1,1.2c0.8,0.5,1.6,1.1,2.4,1.6c0.9-1,1.6-2.1,2.1-3.4c0.5-1.3,0.9-2.6,1.1-3.8c0.2-1.3,0.3-3.3,0.4-6.2h2.5
			c0,2.5-0.1,4.6-0.1,6.4c0,1.7-0.1,2.7-0.1,3s-0.2,0.5-0.4,0.6c-0.2,0.1-0.5,0.2-0.9,0.2c-0.6,0-1.3,0-2.1-0.1
			c0.3,1,0.5,1.9,0.7,2.9c1.9,0,3.1-0.1,3.5-0.2c0.4-0.1,0.8-0.3,1.1-0.6c0.3-0.3,0.5-0.6,0.5-1c0.1-0.4,0.2-1.3,0.2-2.8l0.2-11
			h-5.1l0-3.3h-2.6l0,3.3h-2v2.6h2c0,4.3-0.4,7.3-1.3,8.9l-2.1-4.9l-2.2,0.7c0.4,1.1,0.9,2.3,1.4,3.6c-1,0.1-2,0.1-3.2,0.1
			c0.7-1.8,1.3-3.6,1.9-5.4H30v-2.5h-9v2.5h2.4c-1,3.5-1.8,5.6-2.5,6.1L22.1,326.1z M55.7,321.1h4v-2.5h-4V315h4.1v-2.5h-4.1v-3.8
			H53v3.8h-1.9c0.1-0.8,0.3-1.6,0.4-2.4l-2.4-0.2c-0.4,2.6-1,5-1.8,7.1c0.8,0.4,1.5,0.8,2.3,1.3c0.3-1,0.7-2,0.9-3.2H53v3.5h-4.4
			v2.5H53v3.6h-5.4v2.5h12.7v-2.5h-4.6V321.1z M41,318.1c0.5,0.1,1,0.2,1.6,0.4c0.2-1.7,0.4-3.7,0.6-5.8l-1.7-0.2
			C41.4,314.2,41.2,316.1,41,318.1z M48.4,312.4c-0.8-0.4-1.5-0.7-2.2-1v-2.7h-2.6V328h2.6v-14.2l1.2,0.8L48.4,312.4z M11.9,108.7
			l-3.2,0.6c0.2,0.5,0.4,0.9,0.5,1.4H1.7v4.2h2.8v-1.8h12.2v1.8h2.8v-4.3h-6.9L11.9,108.7z M11.3,114.4l-3.1-0.8
			c-0.4,1-0.8,2-1.3,2.9H1v2.5h4.6c-0.6,1-1.2,2.1-1.9,3c1.4,0.5,2.9,1.1,4.6,1.8C6.5,124.5,4,125,1,125.4c0.4,0.7,0.9,1.5,1.4,2.6
			c4-0.7,7.2-1.6,9.4-2.8l6.7,2.9l1.4-2.6l-5.6-2.1c1.1-1.1,2-2.6,2.6-4.4h3.6v-2.5H10.2L11.3,114.4z M13.6,118.9
			c-0.5,1.4-1.3,2.6-2.3,3.3l-3.7-1.4c0.4-0.6,0.8-1.2,1.2-2H13.6z M32.3,109.5l0.5-0.7h-3.4c-1.5,2.6-4.3,4.9-8.5,7.2
			c0.8,1,1.4,1.8,1.7,2.3c1-0.6,1.9-1.2,2.8-1.8v1.5h3.8v2h-5.8v2.5h5.8v2.3h-7.4v2.5h17.7v-2.5h-7.4v-2.3H38v-2.5h-5.9v-2h3.8v-1.6
			c0.8,0.6,1.8,1.1,2.7,1.6c0.5-0.7,1.1-1.4,1.8-2.3C36.7,114,34,111.9,32.3,109.5z M26.6,115.5c1.6-1.3,2.9-2.6,4-3.9
			c1.1,1.4,2.4,2.7,4,3.9H26.6z M55.7,121.1h4v-2.5h-4V115h4.1v-2.5h-4.1v-3.8H53v3.8h-1.9c0.1-0.8,0.3-1.6,0.4-2.4l-2.4-0.2
			c-0.4,2.6-1,5-1.8,7.1c0.8,0.4,1.5,0.8,2.3,1.3c0.3-1,0.7-2,0.9-3.2H53v3.5h-4.4v2.5H53v3.6h-5.4v2.5h12.7v-2.5h-4.6V121.1z
			 M48.4,112.4c-0.8-0.4-1.5-0.7-2.2-1v-2.7h-2.6V128h2.6v-14.2l1.2,0.8L48.4,112.4z M41,118.1c0.5,0.1,1,0.2,1.6,0.4
			c0.2-1.7,0.4-3.7,0.6-5.8l-1.7-0.2C41.4,114.2,41.2,116.1,41,118.1z"/>
	</g>
</g>
<path class="st2" d="M1,78v-1h1140v1H1z"/>
<path class="st2" d="M1,679v-1h1140v1H1z"/>
<path class="st2" d="M1,479v-1h1140v1H1z"/>
<path class="st2" d="M1,279v-1h1140v1H1z"/>
</svg>
