<svg id="图层_1" xmlns="http://www.w3.org/2000/svg" viewBox="0 0 1141 859"><style>.st2{opacity:.2;fill-rule:evenodd;clip-rule:evenodd;fill:#fff}</style><path d="M361 0h263v859H361V0z" fill-rule="evenodd" clip-rule="evenodd" fill="#2d2c51"/><path d="M1051.8 46.6c1.8 0 3.2-.3 4.3-.8v-3c-1.1.7-2.3 1-3.7 1-1.4 0-2.6-.5-3.4-1.4-.8-.9-1.3-2.1-1.3-3.6s.4-2.8 1.3-3.7c.9-.9 2.1-1.4 3.5-1.4 1.3 0 2.5.3 3.5.9v-3.1c-1-.4-2.2-.6-3.7-.6-2.4 0-4.3.8-5.8 2.3-1.5 1.5-2.2 3.5-2.2 5.9 0 2.3.7 4.1 2 5.5 1.5 1.3 3.3 2 5.5 2zm16-2.9h-5.7V40h5v-2.6h-5v-3.6h5.4v-2.6h-8.6v15.1h9v-2.6zm5 2.7l2.7-5c.2-.4.3-.8.4-1 .1.5.2.8.3 1l2.7 5h3.8l-4.7-7.6 4.6-7.5h-3.6l-2.5 4.6c-.2.5-.4.9-.5 1.3-.1-.5-.3-.9-.5-1.3l-2.3-4.6h-3.9l4.4 7.6-4.9 7.6h4zM859 45.1c1-.8 1.5-1.9 1.5-3.3 0-1-.3-1.8-1-2.5-.6-.7-1.5-1-2.6-1.2.8-.2 1.5-.7 2.1-1.3.6-.6.8-1.3.8-2.2 0-1.1-.4-2-1.3-2.6-.9-.6-2.2-.9-3.8-.9h-5.4v15.1h5.7c1.7.2 3-.2 4-1.1zm-6.4-11.5h1.4c1.7 0 2.5.6 2.5 1.7 0 .6-.2 1.1-.6 1.5-.4.4-1 .5-1.7.5h-1.5v-3.7zm0 10.4v-4.2h1.9c.8 0 1.5.2 1.9.5.5.4.7.8.7 1.5s-.2 1.2-.7 1.6c-.5.4-1.1.6-1.9.6h-1.9zm11.7-10.3c.5 0 1-.2 1.3-.5.3-.3.5-.7.5-1.2s-.2-.9-.5-1.2c-.3-.3-.8-.5-1.3-.5s-1 .2-1.3.5c-.3.3-.5.7-.5 1.2s.2.9.5 1.2c.3.4.7.5 1.3.5zm-1.6 12.7h3.1V35.6h-3.1v10.8zm13.1-6.1v6h3.1v-6.6c0-3-1.2-4.5-3.6-4.5-1.5 0-2.7.7-3.5 2v-1.7h-3.2v10.8h3.2v-6.2c0-.7.2-1.3.6-1.8.4-.5.9-.7 1.5-.7 1.2.1 1.9 1 1.9 2.7zm14.6 6.1v-6.5c0-3-1.5-4.5-4.5-4.5-.6 0-1.3.1-2.1.3-.8.2-1.5.4-2 .7v2.4c1.1-.8 2.4-1.2 3.6-1.2 1.3 0 2 .6 2 1.9l-3 .4c-2.5.3-3.7 1.5-3.7 3.6 0 1 .3 1.8.9 2.4.6.6 1.4.9 2.5.9 1.4 0 2.5-.6 3.2-1.8v1.6h3.1zm-3.6-2.7c-.4.5-.9.7-1.6.7-.5 0-.8-.1-1.1-.4-.3-.2-.4-.6-.4-1 0-.9.6-1.4 1.7-1.5l2-.3v.8c.1.7-.1 1.2-.6 1.7zm16.6 2.7v-6.6c0-3-1.2-4.5-3.6-4.5-1.5 0-2.7.7-3.5 2v-1.7h-3.2v10.8h3.2v-6.2c0-.7.2-1.3.6-1.8.4-.5.9-.7 1.5-.7 1.3 0 1.9.9 1.9 2.6v6h3.1zm7.6.2c1.4 0 2.5-.2 3.2-.7v-2.6c-.8.5-1.6.8-2.5.8-1 0-1.7-.3-2.3-.9-.6-.6-.8-1.3-.8-2.3 0-1 .3-1.8.9-2.4.6-.6 1.4-.9 2.3-.9.9 0 1.6.3 2.4.8v-2.7c-.6-.3-1.5-.5-2.7-.5-1.8 0-3.3.5-4.4 1.6-1.1 1.1-1.6 2.5-1.6 4.3 0 1.6.5 2.9 1.5 3.9 1 1.1 2.3 1.6 4 1.6zm10.2 0c1.6 0 2.9-.3 3.9-.8v-2.3c-.9.6-2 .9-3.2.9-1.9 0-2.9-.8-3-2.5h7.1v-1.3c0-1.6-.4-2.9-1.3-3.8-.9-.9-2.1-1.4-3.6-1.4s-2.8.5-3.8 1.6-1.5 2.5-1.5 4.2c0 1.7.5 3.1 1.4 4.1 1 .8 2.3 1.3 4 1.3zm-1.5-8.5c.4-.4.9-.7 1.4-.7 1.3 0 2 .8 2 2.4h-4.2c.1-.7.4-1.2.8-1.7zm19.9-6.9h-5.2v15.1h5.2c2.4 0 4.3-.7 5.8-2.1 1.5-1.4 2.3-3.3 2.3-5.6-.1-4.9-2.8-7.4-8.1-7.4zm3.3 11.2c-.9.9-2.1 1.4-3.6 1.4h-1.8v-9.9h1.7c1.5 0 2.6.4 3.6 1.3.9.8 1.4 2 1.4 3.5s-.4 2.7-1.3 3.7zm10.5-2.3h5v-2.6h-5v-3.6h5.4v-2.6h-8.6v15.1h9v-2.6h-5.7v-3.7zm20.6-8.9h-3.6l-2.5 4.6c-.2.5-.4.9-.5 1.3-.1-.5-.3-.9-.5-1.3l-2.3-4.6h-3.9l4.4 7.6-4.9 7.6h3.9l2.7-5c.2-.4.3-.8.4-1 .1.5.2.8.3 1l2.7 5h3.8l-4.7-7.6 4.7-7.6zM658.7 46.6c1.8 0 3.1-.7 4.1-2.1.9-1.4 1.4-3.3 1.4-5.9 0-5.1-1.7-7.7-5.2-7.7-1.8 0-3.2.7-4.2 2.1-1 1.4-1.4 3.4-1.4 6 0 5.1 1.8 7.6 5.3 7.6zm.2-13.2c1.4 0 2.1 1.8 2.1 5.4 0 3.6-.7 5.4-2.2 5.4-1.5 0-2.2-1.7-2.2-5.2 0-3.7.7-5.6 2.3-5.6zm9.8 13l1.6-3c.2-.3.3-.6.4-.9.1.2.2.6.5 1l1.6 3h3.6l-3.5-5.5 3.6-5.3h-3.4l-1.7 3.1c-.2.4-.4.8-.4 1-.1-.4-.3-.7-.4-1l-1.6-3.1h-3.7l3.4 5.4-3.7 5.4h3.7zm18.9-5.3h1.7c1.7 0 3.1-.4 4.3-1.3 1.1-.9 1.7-2.2 1.7-3.7 0-3.2-1.9-4.8-5.6-4.8h-5.2v15.1h3.2v-5.3zm0-7.4h1.4c1.9 0 2.8.8 2.8 2.4 0 1.6-.9 2.5-2.8 2.5h-1.4v-4.9zm12.8 3.9v-2h-3.2v10.8h3.2v-5.2c0-1 .2-1.7.6-2.3.4-.5 1-.8 1.7-.8.5 0 1 .1 1.4.3v-2.9c-.2-.1-.5-.1-.8-.1-1.5 0-2.4.7-2.9 2.2zm10.3 9c1.8 0 3.2-.5 4.3-1.6 1-1 1.6-2.5 1.6-4.2 0-1.7-.5-3-1.5-4s-2.4-1.5-4.1-1.5c-1.8 0-3.2.5-4.3 1.5-1.1 1-1.6 2.4-1.6 4.2 0 1.7.5 3.1 1.5 4.1s2.3 1.5 4.1 1.5zm-1.9-8c.5-.6 1.1-.8 1.9-.8 1.7 0 2.5 1.1 2.5 3.2 0 2.2-.8 3.3-2.5 3.3-1.8 0-2.6-1.1-2.6-3.2 0-1.2.2-2 .7-2.5zm13.8-6.3l-3.1.9v2.4h-1.8V38h1.8v5c0 2.4 1.1 3.6 3.4 3.6 1 0 1.7-.1 2.2-.4v-2.4c-.4.2-.7.3-1.1.3-.9 0-1.4-.6-1.4-1.7v-4.6h2.5v-2.4h-2.5v-3.1zm9.4 14.3c1.8 0 3.2-.5 4.3-1.6 1-1 1.6-2.5 1.6-4.2 0-1.7-.5-3-1.5-4s-2.4-1.5-4.1-1.5c-1.8 0-3.2.5-4.3 1.5-1.1 1-1.6 2.4-1.6 4.2 0 1.7.5 3.1 1.5 4.1.9 1 2.3 1.5 4.1 1.5zm-1.9-8c.5-.6 1.1-.8 1.9-.8 1.7 0 2.5 1.1 2.5 3.2 0 2.2-.8 3.3-2.5 3.3-1.8 0-2.6-1.1-2.6-3.2.1-1.2.3-2 .7-2.5zm18 4.8c-.8.5-1.6.8-2.5.8-1 0-1.7-.3-2.3-.9-.6-.6-.8-1.3-.8-2.3 0-1 .3-1.8.9-2.4.6-.6 1.4-.9 2.3-.9.9 0 1.6.3 2.4.8v-2.7c-.6-.3-1.5-.5-2.7-.5-1.8 0-3.3.5-4.4 1.6-1.1 1.1-1.6 2.5-1.6 4.3 0 1.6.5 2.9 1.5 3.9s2.3 1.5 4 1.5c1.4 0 2.5-.2 3.2-.7v-2.5zm7.4 3.2c1.8 0 3.2-.5 4.3-1.6 1-1 1.6-2.5 1.6-4.2 0-1.7-.5-3-1.5-4s-2.4-1.5-4.1-1.5c-1.8 0-3.2.5-4.3 1.5-1.1 1-1.6 2.4-1.6 4.2 0 1.7.5 3.1 1.5 4.1.9 1 2.3 1.5 4.1 1.5zm-1.9-8c.5-.6 1.1-.8 1.9-.8 1.7 0 2.5 1.1 2.5 3.2 0 2.2-.8 3.3-2.5 3.3-1.8 0-2.6-1.1-2.6-3.2 0-1.2.3-2 .7-2.5zm13-8.2h-3.1v16h3.1v-16zm-594.7 2.9c-.8-1.2-1.7-2.4-2.6-3.6L167 31c1 1.4 1.7 2.7 2.4 3.8l2.5-1.5zm8.2-.1h4.6v-2.5h-12v2.5h4.6v6.7h-5.5v2.5h5.5V49h2.9v-6.6h5.2v-2.5h-5.2v-6.7zm.7 5l2.2 1 2.1-4.8-2.4-.9c-.7 1.9-1.4 3.5-1.9 4.7zm-6-4.5l-2.5.7c.6 1.5 1.1 3.1 1.7 4.6l2.5-.8-1.7-4.5zM168 45.3c0 .7-.2 1.2-.5 1.6l1.4 1.9c.8-1 2.2-2.1 4.2-3.4-.2-.8-.3-1.7-.4-2.9-.4.4-1.2.9-2.2 1.7v-8H166v2.5h2v6.6zm32-15.4h-2.9v3.5h-4.9v2.5h4.9V39h-4v9.8h2.7v-1.1h5.5v1.1h2.7V39h-4v-3.1h5.1v-2.5H200v-3.5zm1.4 11.6v3.7h-5.5v-3.7h5.5zm-13-1.6v8.9h2.7V34.2c.4-1.1.9-2.3 1.3-3.5l-2.6-.8c-1.2 3.8-2.5 6.8-3.9 9.1.4 1.4.6 2.6.8 3.6.6-.9 1.2-1.8 1.7-2.7zm17.5 3.9l.5 2.9c1.8-.5 3.8-1.1 6-1.6 0-1 0-2 .1-2.9-.7.2-1.3.4-2 .5v-9h1.9V31h-6.3v2.7h1.8v9.6l-2 .5zm9.8-6.7h5.9v6.6h2.7v-8.9h-4.8l.4-1.9h5.2v-2.4h-11.8v2.4h3.7l-.4 1.9h-3.5v9.1h2.7v-6.8zm4.5 1.2h-2.6c0 2.3-.5 4.1-1.4 5.4s-2.6 2.2-5 2.7c.5.8 1 1.7 1.5 2.7 2.6-1 4.5-2.3 5.7-4.1 2.2 1.5 3.9 2.9 5.3 4l1.7-2.1c-2-1.5-4-2.8-6-4 .5-1.3.7-2.8.8-4.6zm-205.4-.1l2.2 1 2.1-4.8-2.4-.9c-.7 1.9-1.3 3.5-1.9 4.7zM2 45.3c0 .7-.2 1.2-.5 1.6l1.4 1.9c.8-1 2.2-2.1 4.2-3.4-.2-.8-.3-1.7-.4-2.9-.4.4-1.2.9-2.2 1.7v-8H0v2.5h2v6.6zm8.4-7l-1.6-4.6-2.5.7c.6 1.6 1.1 3.1 1.7 4.7l2.4-.8zm-4.5-5c-.8-1.2-1.7-2.4-2.6-3.6L1.1 31c1 1.4 1.7 2.7 2.4 3.8l2.4-1.5zm5.4 6.6H5.8v2.5h5.5V49h2.9v-6.6h5.2v-2.5h-5.2v-6.7h4.6v-2.5h-12v2.5h4.6v6.7zm15-4h4.9V39h-4v9.8h2.7v-1.1h5.5v1.1h2.7V39H34v-3.1h5.1v-2.5H34v-3.5h-2.9v3.5h-4.9v2.5zm9.1 5.6v3.7h-5.5v-3.7h5.5zm-13 7.3h2.7V34.2c.4-1.1.9-2.3 1.3-3.5l-2.6-.8c-1.2 3.8-2.5 6.8-3.9 9.1.4 1.4.6 2.6.8 3.6.6-.8 1.1-1.7 1.6-2.6v8.8zm17.8-2.1c.5.6 1 1.4 1.6 2.4 4.5-1.1 7.1-2.7 7.9-5 1.6 2.6 4.2 4.3 7.7 5.1.4-.6 1-1.4 1.7-2.5-3-.3-5.3-1.3-7-2.9h6.8v-2.4h-8.2c.1-.4.1-.7.1-1.1h-2.7c0 .4 0 .8-.1 1.1h-7.8v2.4h6.9c-1.1 1.4-3.5 2.4-6.9 2.9zm.7-8.2c.5.8.9 1.6 1.3 2.4 2.6-.8 4.6-1.8 6.1-3v1.8H51v-1.6c2.6 1.1 4.7 2.1 6.4 2.9l1.1-2.2c-2-.8-4.2-1.6-6.6-2.4h6.7V34h-4.3c.9-.7 2-1.5 3-2.4l-1.7-1.7c-1.2 1.1-2.4 2-3.3 2.8l1.3 1.3H51v-4.2h-2.7V34h-2.5c.9-1 1.4-1.4 1.4-1.5-1.2-.9-2.4-1.8-3.5-2.6l-1.5 1.6c1 .8 2 1.6 2.9 2.4h-4.5v2.3h6c-1.3 1.1-3.2 1.8-5.7 2.3zm359 8.1c1.8 0 3.2-.3 4.3-.8v-3c-1.1.7-2.3 1-3.7 1-1.4 0-2.6-.5-3.4-1.4-.8-.9-1.3-2.1-1.3-3.6s.4-2.8 1.3-3.7c.9-.9 2.1-1.4 3.5-1.4 1.3 0 2.5.3 3.5.9v-3.1c-1-.4-2.2-.6-3.7-.6-2.4 0-4.3.8-5.8 2.3-1.5 1.5-2.2 3.5-2.2 5.9 0 2.3.7 4.1 2 5.5 1.4 1.3 3.2 2 5.5 2zm12.8 0c1.8 0 3.2-.3 4.3-.8v-3c-1.1.7-2.3 1-3.7 1-1.4 0-2.6-.5-3.4-1.4-.8-.9-1.3-2.1-1.3-3.6s.4-2.8 1.3-3.7c.9-.9 2.1-1.4 3.5-1.4 1.3 0 2.5.3 3.5.9v-3.1c-1-.4-2.2-.6-3.7-.6-2.4 0-4.3.8-5.8 2.3-1.5 1.5-2.2 3.5-2.2 5.9 0 2.3.7 4.1 2 5.5 1.4 1.3 3.2 2 5.5 2zm12.2-15.4h-5.2v15.1h5.2c2.4 0 4.3-.7 5.8-2.1 1.5-1.4 2.3-3.3 2.3-5.6-.1-4.9-2.7-7.4-8.1-7.4zm3.4 11.2c-.9.9-2.1 1.4-3.6 1.4h-1.8v-9.9h1.7c1.5 0 2.6.4 3.6 1.3.9.8 1.4 2 1.4 3.5s-.5 2.7-1.3 3.7zm16.2 1.3h-5.7V40h5v-2.6h-5v-3.6h5.4v-2.6h-8.6v15.1h9v-2.6zm5 2.7l2.7-5c.2-.4.3-.8.4-1 .1.5.2.8.3 1l2.7 5h3.8l-4.7-7.6 4.6-7.5h-3.6l-2.5 4.6c-.2.5-.4.9-.5 1.3-.1-.5-.3-.9-.5-1.3l-2.3-4.6H446l4.4 7.6-4.9 7.6h4zm602.8 66.5c1.2 0 2.3.2 3.3.7v-1.1a9.6 9.6 0 0 0-3.3-.6c-2.2 0-4 .7-5.4 2.2-1.4 1.5-2.1 3.4-2.1 5.9 0 2.2.7 4 2 5.4 1.3 1.4 3 2.1 5.1 2.1 1.3 0 2.6-.3 3.8-.8v-1c-1.1.5-2.4.8-3.7.8-1.7 0-3.2-.6-4.3-1.8-1.1-1.2-1.7-2.8-1.7-4.9 0-2.1.6-3.8 1.8-5.1 1-1.1 2.6-1.8 4.5-1.8zm13.7.3v-1h-7.1v15.1h7.4v-.9h-6.4v-6.2h5.6v-.9h-5.6v-6.1h6.1zm3.7 14.2l3.5-5.8c.2-.3.4-.7.6-1.1.2.3.3.7.6 1.1l3.5 5.8h1.3l-4.6-7.6 4.5-7.5h-1.2l-3.4 5.7-.6 1c-.2-.4-.4-.7-.5-1l-3.4-5.7h-1.3l4.5 7.5-4.8 7.6h1.3zm-15.6 29.5l-3.5 3.5-3.5-3.5-.6.6 3.5 3.5-3.5 3.5.6.6 3.5-3.5 3.5 3.5.6-.6-3.5-3.5 3.5-3.5-.6-.6zm-9 53c4.6-2.5 7.3-6 8.2-10.2h.9v6.9c-.1 1.8.8 2.6 2.6 2.6h3.2c1.8.1 2.7-.6 2.9-2 .1-.6.2-1.5.2-2.5-.3-.1-.6-.2-1.1-.4 0 .9-.1 1.7-.2 2.4-.1 1.1-.7 1.7-1.9 1.6h-2.7c-.7 0-1.2-.1-1.4-.4-.3-.2-.4-.7-.4-1.3v-6.7h7.7v-1h-9.4c.3-1.3.4-3 .5-5.1h7.4v-1h-15.4v1h7c-.1 2-.2 3.7-.5 5.1h-7.9v1h7.7c-.8 3.9-3.4 7-7.9 9.3.1.1.2.2.3.4-.1 0 .1.2.2.3zm2 35.3l3.5-3.5 3.5 3.5.6-.6-3.5-3.5 3.5-3.5-.6-.6-3.5 3.5-3.5-3.5-.6.6 3.5 3.5-3.5 3.5.6.6zm0 80l3.5-3.5 3.5 3.5.6-.6-3.5-3.5 3.5-3.5-.6-.6-3.5 3.5-3.5-3.5-.6.6 3.5 3.5-3.5 3.5.6.6zm0 40l3.5-3.5 3.5 3.5.6-.6-3.5-3.5 3.5-3.5-.6-.6-3.5 3.5-3.5-3.5-.6.6 3.5 3.5-3.5 3.5.6.6zm13.4 35l-1-.4c-.7 2-1.5 3.5-2.4 4.6-.9-1.1-1.7-2.6-2.4-4.5l-1 .4c.8 2.1 1.7 3.8 2.7 4.8-1.2 1.3-3.1 2.4-5.7 3.5.1.2.4.5.6 1 2.6-1.1 4.5-2.3 5.8-3.7 1.1 1.1 3 2.2 5.4 3.4.1-.3.3-.6.6-1-2.4-1-4.2-2-5.3-3.1 1.1-1.2 1.9-2.8 2.7-5zm-14.7 5.5c1.1-.2 1.9-.4 2.5-.5v4.5h1V405c.5-.1 1.3-.2 2.2-.4.2 0 .3 0 .3-.1v-1c-.2 0-.4.1-.8.1-.8.1-1.4.3-1.8.3v-3.1h1.9v-1h-1.9V396h-1v3.8h-2.6c.6-1.7 1.2-3.4 1.8-5.2h4v-1h-3.7c.3-1 .6-1.9.8-2.8l-1-.2c-.3 1-.5 2-.8 3h-2.4v1h2.1c-.6 1.8-1.2 3.6-1.9 5.2v.9h3.7v3.3c-1.4.3-2.8.5-4.2.7l.2 1c.4.3.9.2 1.6 0zm17-11.6h-10.5v1h10.5v-1zm.2 6c-1-1-2.3-2.4-4-4.1l-.7.6c1.2 1.2 2.5 2.6 3.9 4.2l.8-.7zm-10.6 1c1.3-1.4 2.6-2.9 3.8-4.5l-.9-.6c-1.1 1.7-2.4 3.1-3.7 4.4.4.2.6.5.8.7zm6.2-7.6c-.3-.7-.8-1.5-1.4-2.6l-.9.4c.1.1.2.3.3.5.5.9.9 1.6 1.1 2.1l.9-.4zm23.3 13.8v-6.4h-16.6v8.8h1v-7.9h14.5v5.5c0 .5-.1.8-.3 1-.2.2-.6.3-1.2.3-.8 0-1.6 0-2.2-.1.1.3.2.7.2 1.1h2.4c1.6-.1 2.3-.8 2.2-2.3zm-4.1-3.9h-8.4v3.9h8.4v-3.9zm-1 3.1h-6.4v-2.2h6.4v2.2zm-9.3-11v3.7h12.2v-3.7h-12.2zm11.2 2.8h-10.2v-1.9h10.2v1.9zm4.3-5.4h-8.6c-.2-.7-.3-1.4-.5-2l-1.1.2c.2.8.4 1.4.5 1.8h-9.1v.9h18.8v-.9zm-24.4 40.6c-.3-.7-.8-1.5-1.4-2.6l-.9.4c.1.1.2.3.3.5.5.9.9 1.6 1.1 2.1l.9-.4zm-.3 3.2c1.2 1.2 2.5 2.6 3.9 4.2l.8-.8c-1-1-2.3-2.4-4-4.1l-.7.7zm-5.9 4.4c1.3-1.4 2.6-2.9 3.8-4.5l-.9-.6c-1.1 1.7-2.4 3.1-3.7 4.4.4.2.6.5.8.7zm-.1-6.1h10.5v-1h-10.5v1zm-6.5 10.7c1.1-.2 1.9-.4 2.5-.5v4.5h1V445c.5-.1 1.3-.2 2.2-.4.2 0 .3 0 .3-.1v-1c-.2 0-.4.1-.8.1-.8.1-1.4.3-1.8.3v-3.1h1.9v-1h-1.9V436h-1v3.8h-2.6c.6-1.7 1.2-3.4 1.8-5.2h4v-1h-3.7c.3-1 .6-1.9.8-2.8l-1-.2c-.3 1-.5 2-.8 3h-2.4v1h2.1c-.6 1.8-1.2 3.6-1.9 5.2v.9h3.7v3.3c-1.4.3-2.8.5-4.2.7l.2 1c.4.3.9.2 1.6 0zm14.7-5.5l-1-.4c-.7 2-1.5 3.5-2.4 4.6-.9-1.1-1.7-2.6-2.4-4.5l-1 .4c.8 2.1 1.7 3.8 2.7 4.8-1.2 1.3-3.1 2.4-5.7 3.5.1.2.4.5.6 1 2.6-1.1 4.5-2.3 5.8-3.7 1.1 1.1 3 2.2 5.4 3.4.1-.3.3-.6.6-1-2.4-1-4.2-2-5.3-3.1 1.1-1.2 1.9-2.8 2.7-5zm18.1 7.3V444h3.9v-.9h-3.9v-3.4h3.9v-.9h-3.9v-3.3h4.2v-.9h-9.1c.4-.9.9-2 1.4-3.3l-1-.3c-1 3-2.4 5.7-4.3 8 .1.1.3.3.7.8.5-.7 1.1-1.5 1.6-2.3v12.3h1v-1.4h9.8v-.9h-4.3zm-1 0h-4.4V444h4.4v3.5zm0-4.4h-4.4v-3.4h4.4v3.4zm0-4.3h-4.4v-3.2c0-.1 0-.1.1-.2h4.3v3.4zm.7-4.5l1-.5c-.3-.7-.8-1.7-1.5-2.9l-.9.4c.4 1.1.9 2.1 1.4 3zm-10.2 9.3c.1.2.2.4.4.7.8 1.5 1.4 2.6 1.7 3.3l.9-.5c-.2-.3-.4-.8-.8-1.6-.7-1.4-1.3-2.4-1.7-3.2.7-1.9 1.2-4.6 1.6-7.9v-1h-5.8v1h4.7c-.3 2.7-.7 4.9-1.2 6.7-.9-1.8-1.8-3.4-2.7-5l-.9.5c.6 1.1 1.7 3.1 3.1 5.8-.8 2-1.9 3.9-3.5 5.7.3.3.6.6.8.9 1.5-1.8 2.6-3.6 3.4-5.4zm-14 73.3l-3.5 3.5-3.5-3.5-.6.6 3.5 3.5-3.5 3.5.6.6 3.5-3.5 3.5 3.5.6-.6-3.5-3.5 3.5-3.5-.6-.6zm4.2 39.8c1.2 1.2 2.5 2.6 3.9 4.2l.8-.8c-1-1-2.3-2.4-4-4.1l-.7.7zm-10 13h1V565c.5-.1 1.3-.2 2.2-.4.2 0 .3 0 .3-.1v-1c-.2 0-.4.1-.8.1-.8.1-1.4.3-1.8.3v-3.1h1.9v-1h-1.9V556h-1v3.8h-2.6c.6-1.7 1.2-3.4 1.8-5.2h4v-1h-3.7c.3-1 .6-1.9.8-2.8l-1-.2c-.3 1-.5 2-.8 3h-2.4v1h2.1c-.6 1.8-1.2 3.6-1.9 5.2v.9h3.7v3.3c-1.4.3-2.8.5-4.2.7l.2 1c.3-.1.8-.2 1.5-.3 1.1-.2 1.9-.4 2.5-.5v4.8zm4-14.7h10.5v-1h-10.5v1zm8.2 5.2l-1-.4c-.7 2-1.5 3.5-2.4 4.6-.9-1.1-1.7-2.6-2.4-4.5l-1 .4c.8 2.1 1.7 3.8 2.7 4.8-1.2 1.3-3.1 2.4-5.7 3.5.1.2.4.5.6 1 2.6-1.1 4.5-2.3 5.8-3.7 1.1 1.1 3 2.2 5.4 3.4.1-.3.3-.6.6-1-2.4-1-4.2-2-5.3-3.1 1.1-1.2 1.9-2.8 2.7-5zm-1.9-6.7c-.3-.7-.8-1.5-1.4-2.6l-.9.4c.1.1.2.3.3.5.5.9.9 1.6 1.1 2.1l.9-.4zm-6.2 7.6c1.3-1.4 2.6-2.9 3.8-4.5l-.9-.6c-1.1 1.7-2.4 3.1-3.7 4.4.4.2.6.5.8.7zm21.5-10.2l-1.1.2c.2.8.4 1.4.5 1.8h-9.1v.9h18.8v-.9h-8.6c-.2-.7-.4-1.3-.5-2zm3.9 12.5h-8.4v3.9h8.4v-3.9zm-1 3.1h-6.4v-2.2h6.4v2.2zm-9.3-11v3.7h12.2v-3.7h-12.2zm11.2 2.8h-10.2v-1.9h10.2v1.9zm-13.4 11.4h1v-7.9h14.5v5.5c0 .5-.1.8-.3 1-.2.2-.6.3-1.2.3-.8 0-1.6 0-2.2-.1.1.3.2.7.2 1.1h2.4c1.5 0 2.2-.7 2.1-2.2V561h-16.6v8.7zm-11.2 27.2l-3.5 3.5-3.5-3.5-.6.6 3.5 3.5-3.5 3.5.6.6 3.5-3.5 3.5 3.5.6-.6-3.5-3.5 3.5-3.5-.6-.6zm0 40l-3.5 3.5-3.5-3.5-.6.6 3.5 3.5-3.5 3.5.6.6 3.5-3.5 3.5 3.5.6-.6-3.5-3.5 3.5-3.5-.6-.6zm0 80l-3.5 3.5-3.5-3.5-.6.6 3.5 3.5-3.5 3.5.6.6 3.5-3.5 3.5 3.5.6-.6-3.5-3.5 3.5-3.5-.6-.6zm0 40l-3.5 3.5-3.5-3.5-.6.6 3.5 3.5-3.5 3.5.6.6 3.5-3.5 3.5 3.5.6-.6-3.5-3.5 3.5-3.5-.6-.6zm0 40l-3.5 3.5-3.5-3.5-.6.6 3.5 3.5-3.5 3.5.6.6 3.5-3.5 3.5 3.5.6-.6-3.5-3.5 3.5-3.5-.6-.6zM862 117.6c0-2.4-.7-4.2-2-5.5-1.3-1.3-3.2-1.9-5.7-1.9h-3.8v15.1h3.6c2.5 0 4.4-.7 5.8-2.2 1.4-1.3 2.1-3.2 2.1-5.5zm-8 6.8h-2.4v-13.2h2.6c4.5 0 6.8 2.1 6.8 6.4 0 2.2-.6 3.9-1.8 5-1.3 1.2-3 1.8-5.2 1.8zm12.2-6.2h5.6v-.9h-5.6v-6.1h6v-1h-7.1v15.1h7.4v-.9h-6.4v-6.2zm19.1-8H884l-3.4 5.7-.6 1c-.2-.4-.4-.7-.5-1l-3.4-5.7h-1.3l4.5 7.5-4.8 7.6h1.3l3.5-5.8c.2-.3.4-.7.6-1.1.2.3.3.7.6 1.1l3.5 5.8h1.3l-4.6-7.6 4.6-7.5zm8.3 4.1h-.9v4.3h-4.3v.9h4.3v4.3h.9v-4.3h4.3v-.9h-4.3v-4.3zm14.7-3.9l-1.1-.4c-1.5 3.3-3.6 6-6.5 8.2.4.3.7.6.9.9 2.9-2.4 5.1-5.3 6.7-8.7zm4.7-.8l-1 .4c1.3 3.4 3.5 6.3 6.7 8.6.2-.3.5-.6.9-1-3.1-1.9-5.3-4.6-6.6-8zm-1.1 11.4c1.4 1.6 2.5 3 3.3 3.9-2.5.1-5.6.2-9.3.4h-1.3c2.1-2.5 4-5.1 5.7-7.9l-1.2-.6c-1.6 2.9-3.4 5.4-5.3 7.5-.4.4-.9.8-1.4 1l.5 1.2c.5-.1 1.2-.2 2-.2 2.9-.2 6.6-.3 11-.5.5.6.9 1.2 1.4 1.8l1-.8c-1.9-2.3-3.8-4.5-5.6-6.6l-.8.8zm23.3 4.4h1v-3.1h3.2v-.9h-3.2v-2.9h2.7v-.9h-2.7v-3.5h-1v3.5h-2.7c.6-1.5 1.2-3.1 1.7-4.9h5v-.9h-4.7c.2-.7.5-1.5.7-2.5l-1-.2c-.2.9-.5 1.8-.7 2.7h-2.3v.9h2c-.5 1.8-1.1 3.4-1.7 4.7v1.2h3.7v2.9h-4.3v.9h4.3v3zm-8.7-2.6l-2.3 2.2v-4.7h2.6v-.9h-2.6v-2.8h1.9v-.9H922v.9h1.2v2.8h-2.5v.9h2.5v4.2c0 .4 0 .7-.1 1-.1.3-.2.5-.4.8l.7.8c.3-.4.6-.6.8-.8.7-.7 1.6-1.5 2.5-2.3l-.2-1.2zm7.5 3.4c-1.9 0-3.4-.7-4.4-2.2v-7.9h-2.5v.9h1.6v6.9c-.1.1-.1.2-.3.3-.9 1.1-1.6 2-2.1 2.6l.8.7c.7-1.1 1.4-2 2-2.7 1.1 1.5 2.7 2.3 4.8 2.3 2.2.1 4 .1 5.4.1.1-.4.2-.7.3-1.1h-2.8c-.9.1-1.9.1-2.8.1zm-3.9-13c-.3-1-.8-2.3-1.5-3.9l-.9.3c.6 1.5 1 2.8 1.4 3.9l1-.3zm-7.1-.2h3.7v-.9h-3.3c.3-.7.6-1.7.9-2.8l-1-.2c-.7 2.5-1.6 4.7-2.7 6.5.3.2.6.5.8.7.7-1.3 1.2-2.4 1.6-3.3zm-63.8 41.9l-3.5 3.5-3.5-3.5-.6.6 3.5 3.5-3.5 3.5.6.6 3.5-3.5 3.5 3.5.6-.6-3.5-3.5 3.5-3.5-.6-.6zm-9.8 44.2c.8-.9 1.5-2.1 2.3-3.4v12.1h1v-14c.7-1.3 1.3-2.8 2-4.5l-1-.4c-1.2 3.5-2.8 6.5-4.8 9 0 0 0 .1.1.1.2.4.3.8.4 1.1zm17.6 6.4c-.1.6-.4.9-.7.9-.5 0-1-.4-1.4-1.1-1.2-1.8-1.9-4.3-2.1-7.7h5.2v-1h-5.3c-.1-1.9-.2-3.7-.2-5.4h.6c1.9-.1 3.4-.3 4.6-.4l-.4-1c-3.7.4-7.5.6-11.4.7v13.7c0 .4 0 .7-.1 1-.1.3-.2.5-.4.8l.8.9c.4-.3.7-.6.9-.7 1.1-.7 2.4-1.4 3.8-2.2-.1-.5-.2-.8-.2-1-1.3.8-2.5 1.5-3.7 2.1v-7.5h4.7c.3 3.6 1 6.4 2.2 8.1.7 1.1 1.5 1.7 2.4 1.7.9 0 1.4-.5 1.6-1.5.1-.6.3-1.5.4-2.8-.2 0-.5-.1-1-.3-.1 1-.2 1.8-.3 2.7zm-10.1-8.9v-5.1c1.3 0 2.8-.1 4.4-.2 0 2.2.1 3.9.2 5.3h-4.6zm4 8.8c-.2-.1-.3-.3-.4-.3l-.7.6c.8.8 1.4 1.5 1.9 2l.8-.7-1.6-1.6zm-5.4 38.4l-3-7.5h-2.4v.9h1.7l3.4 8.2h.8l4-16h-.9l-3.6 14.4zm-3.4 79.4l3.5-3.5 3.5 3.5.6-.6-3.5-3.5 3.5-3.5-.6-.6-3.5 3.5-3.5-3.5-.6.6 3.5 3.5-3.5 3.5.6.6zm0 40l3.5-3.5 3.5 3.5.6-.6-3.5-3.5 3.5-3.5-.6-.6-3.5 3.5-3.5-3.5-.6.6 3.5 3.5-3.5 3.5.6.6zm14.7 38.5v-8.5h-7.6v-4.3h-1.1v4.3h-7.6v8.5h1.1v-1.1h6.5v7.3h1.1v-7.3h6.6v1.1h1zm-8.7-2.1h-6.5v-5.4h6.5v5.4zm1.1 0v-5.4h6.6v5.4h-6.6zm4.4 42.4h3.9v-.9h-3.9v-3.4h3.9v-.9h-3.9v-3.3h4.2v-.9h-9.1c.4-.9.9-2 1.4-3.3l-1-.3c-1 3-2.4 5.7-4.3 8 .1.1.3.3.7.8.5-.7 1.1-1.5 1.6-2.3v12.3h1v-1.4h9.8v-.9h-4.4V442zm-1 3.5h-4.4V442h4.4v3.5zm0-4.4h-4.4v-3.4h4.4v3.4zm0-4.3h-4.4v-3.2c0-.1 0-.1.1-.2h4.3v3.4zm.7-4.5l1-.5c-.3-.7-.8-1.7-1.5-2.9l-.9.4c.4 1.1.9 2.1 1.4 3zm-10.2 9.3c.1.2.2.4.4.7.8 1.5 1.4 2.6 1.7 3.3l.9-.5c-.2-.3-.4-.8-.8-1.6-.7-1.4-1.3-2.4-1.7-3.2.7-1.9 1.2-4.6 1.6-7.9v-1h-5.8v1h4.7c-.3 2.7-.7 4.9-1.2 6.7-.9-1.8-1.8-3.4-2.7-5l-.9.5c.6 1.1 1.7 3.1 3.1 5.8-.8 2-1.9 3.9-3.5 5.7.3.3.6.6.8.9 1.5-1.8 2.6-3.6 3.4-5.4zm6.1 73.3l-3.5 3.5-3.5-3.5-.6.6 3.5 3.5-3.5 3.5.6.6 3.5-3.5 3.5 3.5.6-.6-3.5-3.5 3.5-3.5-.6-.6zm-8.9 52.8h1v-7.9h14.5v5.5c0 .5-.1.8-.3 1-.2.2-.6.3-1.2.3-.8 0-1.6 0-2.2-.1.1.3.2.7.2 1.1h2.4c1.5 0 2.2-.7 2.1-2.2V559h-16.6v8.7zm12.5-6.3h-8.4v3.9h8.4v-3.9zm-1 3.1h-6.4v-2.2h6.4v2.2zm-2.9-15.6l-1.1.2c.2.8.4 1.4.5 1.8h-9.1v.9H868v-.9h-8.6c-.2-.7-.4-1.3-.5-2zm-6.4 4.6v3.7h12.2v-3.7h-12.2zm11.2 2.8h-10.2v-1.9h10.2v1.9zm-8.2 47.5l-3-7.5h-2.4v.9h1.7l3.4 8.2h.8l4-16h-.9l-3.6 14.4zm0 40l-3-7.5h-2.4v.9h1.7l3.4 8.2h.8l4-16h-.9l-3.6 14.4zm3.7 71.1l-3.5 3.5-3.5-3.5-.6.6 3.5 3.5-3.5 3.5.6.6 3.5-3.5 3.5 3.5.6-.6-3.5-3.5 3.5-3.5-.6-.6zm0 40l-3.5 3.5-3.5-3.5-.6.6 3.5 3.5-3.5 3.5.6.6 3.5-3.5 3.5 3.5.6-.6-3.5-3.5 3.5-3.5-.6-.6zm0 40l-3.5 3.5-3.5-3.5-.6.6 3.5 3.5-3.5 3.5.6.6 3.5-3.5 3.5 3.5.6-.6-3.5-3.5 3.5-3.5-.6-.6zM664.9 123.2c1.4-1.4 2.1-3.3 2.1-5.6 0-2.4-.7-4.2-2-5.5-1.3-1.3-3.2-1.9-5.7-1.9h-3.8v15.1h3.6c2.5.1 4.4-.7 5.8-2.1zm-8.3 1.2v-13.2h2.6c4.5 0 6.8 2.1 6.8 6.4 0 2.2-.6 3.9-1.8 5-1.2 1.2-2.9 1.7-5.2 1.7h-2.4zm20.6-13.2v-1h-7.1v15.1h7.4v-.9h-6.4v-6.2h5.6v-.9h-5.6v-6.1h6.1zm3.7 14.2l3.5-5.8c.2-.3.4-.7.6-1.1.2.3.3.7.6 1.1l3.5 5.8h1.3l-4.6-7.6 4.5-7.5H689l-3.4 5.7-.6 1c-.2-.4-.4-.7-.5-1l-3.4-5.7h-1.3l4.5 7.5-4.8 7.6h1.4zm17.7-11.1h-.9v4.3h-4.3v.9h4.3v4.3h.9v-4.3h4.3v-.9h-4.3v-4.3zm20.9 3.6l-1-.4c-1 2.2-2.1 3.9-3.3 5-1.3-1.2-2.4-2.8-3.4-4.8l-1 .5c1.1 2.2 2.3 3.9 3.5 5-1.6 1.3-4.4 2.5-8.4 3.5l.6 1.1c4.1-1.2 7-2.5 8.6-3.9 1.7 1.4 4.6 2.7 8.5 3.7.2-.5.4-.9.6-1.1-3.7-.8-6.5-2-8.3-3.4 1.4-1.2 2.5-3 3.6-5.2zm4.5.1c-2.1-1.4-4.1-2.7-5.9-3.9l-.7.8c2.1 1.4 4.1 2.8 5.8 4.1l.8-1zm-7.7-6.6c-.4-.8-.9-1.6-1.4-2.5l-1 .5c.6.9 1 1.7 1.4 2.5h-9.1v1h18.2v-1h-8.9l.8-.5zm-4.2 2.7c-1.8 1.7-3.8 3.1-5.8 4.3.3.4.5.7.7 1 2.2-1.5 4.1-2.9 5.9-4.4l-.8-.9zm19.8 3.5l-1-.4c-1.3 1.8-2.9 3.4-5 4.6.3.3.5.6.7.8 1.3-.8 2.4-1.6 3.3-2.6h3.6c-1.1 2.4-3.7 4.3-7.7 5.8.3.3.5.6.7.9 4.2-1.6 6.9-3.8 8.1-6.7h3.3c-.6 2.9-2.8 5.3-6.5 7 .2.2.5.5.7.9 3.9-1.8 6.2-4.5 6.9-7.8h3.2c0 .9-.1 2.1-.2 3.5 0 2-.9 2.9-2.5 2.9h-.3c-.8 0-1.7 0-2.5-.1.1.4.2.8.2 1.1h2.3c2.5.1 3.8-1.2 3.8-3.9.1-1.6.2-3.1.2-4.5h-12.5l1.2-1.5zm-3.5-.7h13.9v-7.1h-13.9v7.1zm1-6.2h11.9v2.1h-11.9v-2.1zm0 3.1h11.9v2.2h-11.9v-2.2zm23.8 3.1l-1-.3c-.6 1.6-1.3 3.3-2.1 5 .4.1.7.2 1 .4.8-1.6 1.5-3.3 2.1-5.1zm3.4-6.8V109h-1.1c0 1.3 0 2.6-.1 4h-3.3v1h3.3c0 1.2-.1 2.2-.1 2.9-.1 4.6-1.7 7.9-4.8 10.1.3.3.6.5.9.8 3.2-2.3 4.9-6 5-11 0-.6.1-1.5.1-2.7h3.7c0 3.2-.1 6.5-.3 10.1 0 1.5-.6 2.2-1.8 2.1-.8 0-1.5 0-2.2-.1.1.2.1.6.2 1.2h2.1c1.9.1 2.8-1 2.8-3.3.1-4.1.3-7.7.3-11h-4.8c.1-.7.1-1.7.1-3zm5.2 6.9c.8 1.6 1.4 3.1 2 4.6l1-.4c-.5-1.3-1.2-2.8-2.1-4.6l-.9.4zm-10.7-2.3h-2.2V109h-1.1v5.7h-2.2v1h2.2v12h1.1v-12h2.2v-1zm20.9 7.1c-.9.7-1.9 1.5-2.9 2.3v-8.6h-3.4v1h2.4v7.2c0 .6-.2 1.2-.6 1.6l.8.8.8-.8c1.1-.9 2.2-1.8 3.1-2.5 0-.3-.1-.7-.2-1zm11.1-11.4l-1.1-.2c-.6 4.6-2.1 8.2-4.4 10.9-2.4-2.8-3.9-6.4-4.4-10.9l-1.1.2c.6 4.9 2.2 8.7 4.7 11.6-1.7 1.7-3.9 3.3-6.6 4.7.3.4.6.8.8 1.1 2.9-1.7 5.1-3.3 6.6-4.9 1.6 1.7 3.7 3.2 6.3 4.7.2-.4.5-.8.8-1.1-2.6-1.3-4.7-2.8-6.4-4.5 2.3-2.7 3.9-6.6 4.8-11.6zm-4.1 2.8c-.7-1.3-1.5-2.7-2.4-4l-.9.5c.7 1.2 1.5 2.5 2.3 4.1l1-.6zm-8.7-.7c-.8-1-1.7-2-2.7-3l-.8.6c.8.9 1.7 1.9 2.6 3.1l.9-.7zm-115.2 44.7h1.7l3.4 8.2h.8l4-16h-.9l-3.6 14.5-3-7.5h-2.4v.8zm17.9 33.7h-8.6c-.2-.7-.3-1.4-.5-2l-1.1.2c.2.8.4 1.4.5 1.8h-9.1v.9H673v-.9zm-3.2 16.6c1.5 0 2.2-.7 2.1-2.2v-6.4h-16.6v8.8h1v-7.9h14.5v5.5c0 .5-.1.8-.3 1-.2.2-.6.3-1.2.3-.8 0-1.6 0-2.2-.1.1.3.2.7.2 1.1 1-.1 1.8-.1 2.5-.1zm-12.3-14v3.7h12.2v-3.7h-12.2zm11.2 2.8h-10.2v-1.9h10.2v1.9zm-.9 5.1h-8.4v3.9h8.4v-3.9zm-1 3.1h-6.4v-2.2h6.4v2.2zm-2.6 30.4l-3.5 3.5-3.5-3.5-.6.6 3.5 3.5-3.5 3.5.6.6 3.5-3.5 3.5 3.5.6-.6-3.5-3.5 3.5-3.5-.6-.6zm0 80l-3.5 3.5-3.5-3.5-.6.6 3.5 3.5-3.5 3.5.6.6 3.5-3.5 3.5 3.5.6-.6-3.5-3.5 3.5-3.5-.6-.6zm0 40l-3.5 3.5-3.5-3.5-.6.6 3.5 3.5-3.5 3.5.6.6 3.5-3.5 3.5 3.5.6-.6-3.5-3.5 3.5-3.5-.6-.6zm-7.4 40.8v12.1h1v-14c.7-1.3 1.3-2.8 2-4.5l-1-.4c-1.2 3.5-2.8 6.5-4.8 9 0 0 0 .1.1.1.2.3.3.7.4 1 .7-.9 1.5-2 2.3-3.3zm15.2 9.8c-.1.6-.4.9-.7.9-.5 0-1-.4-1.4-1.1-1.2-1.8-1.9-4.3-2.1-7.7h5.2v-1h-5.3c-.1-1.9-.2-3.7-.2-5.4h.6c1.9-.1 3.4-.3 4.6-.4l-.4-1c-3.7.4-7.5.6-11.4.7v13.7c0 .4 0 .7-.1 1-.1.3-.2.5-.4.8l.8.9c.4-.3.7-.6.9-.7 1.1-.7 2.4-1.4 3.8-2.2-.1-.5-.2-.8-.2-1-1.3.8-2.5 1.5-3.7 2.1v-7.5h4.7c.3 3.6 1 6.4 2.2 8.1.7 1.1 1.5 1.7 2.4 1.7.9 0 1.4-.5 1.6-1.5.1-.6.3-1.5.4-2.8-.2 0-.5-.1-1-.3-.1 1-.2 1.8-.3 2.7zm-10.1-8.9v-5.1c1.3 0 2.8-.1 4.4-.2 0 2.2.1 3.9.2 5.3h-4.6zm4 8.8c-.2-.1-.3-.3-.4-.3l-.7.6c.8.8 1.4 1.5 1.9 2l.8-.7-1.6-1.6zm-2.8 23.5v4.3h-7.6v8.5h1.1v-1.1h6.5v7.3h1.1v-7.3h6.6v1.1h1.1v-8.5h-7.6v-4.3h-1.2zm0 10.7h-6.5v-5.4h6.5v5.4zm7.6-5.4v5.4h-6.6v-5.4h6.6zm7.5 9.2c1 .9 1.9 1.7 2.8 2.6l.8-.7c-.9-.9-1.9-1.7-2.8-2.5l-.8.6zm2.1-9l.8-.6c-.6-.7-1.2-1.3-1.7-1.8l-.8.6c.6.6 1.2 1.3 1.7 1.8zm3.7 1.7h7.7v-.9H684v-1.3h-1.1v1.3h-7.4v.9h7.4v2.3h-8.7v.9H693v-.9h-9v-2.3zm5.1-1.6l.8-.7c-.7-.7-1.3-1.3-1.9-1.8l-.7.6c.5.5 1.1 1.2 1.8 1.9zm-.9 5.6h-1.1v1.4h-12.2v.9h12.2v2.5c0 .6-.1 1-.4 1.3-.2.2-.6.4-1.2.4-.9 0-1.7 0-2.6-.1.1.3.2.7.3 1.1h2.6c1.7 0 2.5-.8 2.5-2.4v-2.7h4.2v-.9h-4.2v-1.5zm-10.8-8.4h6.3v-.9H678c.3-.4.6-1 1-1.8l-1-.2c-1 2-2.3 3.7-3.9 4.9.3.2.6.5.8.8 1-.9 1.8-1.8 2.5-2.8zm15.5-.9h-6.5c.3-.5.6-1.1 1-1.8l-1.1-.2c-.6 1.5-1.6 2.9-2.9 4.2.4.2.7.4.9.6.6-.7 1.1-1.3 1.5-1.9h7.1v-.9zm-32.4 93l-3-7.5h-2.4v.9h1.7l3.4 8.2h.8l4-16h-.9l-3.6 14.4zm7.3 37.6h-8.4v3.9h8.4v-3.9zm-1 3.1h-6.4v-2.2h6.4v2.2zm-2.9-15.6l-1.1.2c.2.8.4 1.4.5 1.8h-9.1v.9H673v-.9h-8.6c-.2-.7-.3-1.3-.5-2zm-6.4 4.6v3.7h12.2v-3.7h-12.2zm11.2 2.8h-10.2v-1.9h10.2v1.9zm-13.4 11.4h1v-7.9h14.5v5.5c0 .5-.1.8-.3 1-.2.2-.6.3-1.2.3-.8 0-1.6 0-2.2-.1.1.3.2.7.2 1.1h2.4c1.5 0 2.2-.7 2.1-2.2V559h-16.6v8.7zm5.2 36.1l-3-7.5h-2.4v.9h1.7l3.4 8.2h.8l4-16h-.9l-3.6 14.4zm-3.4 39.4l3.5-3.5 3.5 3.5.6-.6-3.5-3.5 3.5-3.5-.6-.6-3.5 3.5-3.5-3.5-.6.6 3.5 3.5-3.5 3.5.6.6zm3.4 80.6l-3-7.5h-2.4v.9h1.7l3.4 8.2h.8l4-16h-.9l-3.6 14.4zm-3.4 39.4l3.5-3.5 3.5 3.5.6-.6-3.5-3.5 3.5-3.5-.6-.6-3.5 3.5-3.5-3.5-.6.6 3.5 3.5-3.5 3.5.6.6zm3.4 40.6l-3-7.5h-2.4v.9h1.7l3.4 8.2h.8l4-16h-.9l-3.6 14.4zM403.1 112.1c-1.3-1.3-3.2-1.9-5.7-1.9h-3.8v15.1h3.6c2.5 0 4.4-.7 5.8-2.2 1.4-1.4 2.1-3.3 2.1-5.6-.1-2.3-.7-4.1-2-5.4zm-1 10.6c-1.2 1.2-2.9 1.7-5.2 1.7h-2.4v-13.2h2.6c4.5 0 6.8 2.1 6.8 6.4.1 2.2-.5 3.9-1.8 5.1zm13.1-11.5v-1h-7.1v15.1h7.4v-.9h-6.4v-6.2h5.6v-.9h-5.6v-6.1h6.1zm3.7 14.2l3.5-5.8c.2-.3.4-.7.6-1.1.2.3.3.7.6 1.1l3.5 5.8h1.3l-4.6-7.6 4.5-7.5h-1.2l-3.4 5.7-.6 1c-.2-.4-.4-.7-.5-1l-3.4-5.7h-1.3l4.5 7.5-4.8 7.6h1.3zm17.7-11.1h-.9v4.3h-4.3v.9h4.3v4.3h.9v-4.3h4.3v-.9h-4.3v-4.3zm13.5-.2c-1.8 1.7-3.8 3.1-5.8 4.3.3.4.5.7.7 1 2.2-1.5 4.1-2.9 5.9-4.4l-.8-.9zm7.4 3.8l-1-.4c-1 2.2-2.1 3.9-3.3 5-1.3-1.2-2.4-2.8-3.4-4.8l-1 .5c1.1 2.2 2.3 3.9 3.5 5-1.6 1.3-4.4 2.5-8.4 3.5l.6 1.1c4.1-1.2 7-2.5 8.6-3.9 1.7 1.4 4.6 2.7 8.5 3.7.2-.5.4-.9.6-1.1-3.7-.8-6.5-2-8.3-3.4 1.4-1.2 2.5-3 3.6-5.2zm-3.2-6.5c-.4-.8-.9-1.6-1.4-2.5l-1 .5c.6.9 1 1.7 1.4 2.5h-9.1v1h18.2v-1h-8.9l.8-.5zm7.7 6.6c-2.1-1.4-4.1-2.7-5.9-3.9l-.7.8c2.1 1.4 4.1 2.8 5.8 4.1l.8-1zm18.3-8.2h-13.9v7.1h13.9v-7.1zm-1 6.2h-11.9v-2.2h11.9v2.2zm0-3.1h-11.9v-2.1h11.9v2.1zm-9.4 4.7l-1-.4c-1.3 1.8-2.9 3.4-5 4.6.3.3.5.6.7.8 1.3-.8 2.4-1.6 3.3-2.6h3.6c-1.1 2.4-3.7 4.3-7.7 5.8.3.3.5.6.7.9 4.2-1.6 6.9-3.8 8.1-6.7h3.3c-.6 2.9-2.8 5.3-6.5 7 .2.2.5.5.7.9 3.9-1.8 6.2-4.5 6.9-7.8h3.2c0 .9-.1 2.1-.2 3.5 0 2-.9 2.9-2.5 2.9h-.3c-.8 0-1.7 0-2.5-.1.1.4.2.8.2 1.1h2.3c2.5.1 3.8-1.2 3.8-3.9.1-1.6.2-3.1.2-4.5h-12.5l1.2-1.5zm29.9-.6c.8 1.6 1.4 3.1 2 4.6l1-.4c-.5-1.3-1.2-2.8-2.1-4.6l-.9.4zm-8.6-.1l-1-.3c-.6 1.6-1.3 3.3-2.1 5 .4.1.7.2 1 .4.8-1.6 1.5-3.3 2.1-5.1zm3.4-6.8V109h-1.1c0 1.3 0 2.6-.1 4h-3.3v1h3.3c0 1.2-.1 2.2-.1 2.9-.1 4.6-1.7 7.9-4.8 10.1.3.3.6.5.9.8 3.2-2.3 4.9-6 5-11 0-.6.1-1.5.1-2.7h3.7c0 3.2-.1 6.5-.3 10.1 0 1.5-.6 2.2-1.8 2.1-.8 0-1.5 0-2.2-.1.1.2.1.6.2 1.2h2.1c1.9.1 2.8-1 2.8-3.3.1-4.1.3-7.7.3-11h-4.8c.1-.7.1-1.7.1-3zm-5.5 4.6h-2.2V109h-1.1v5.7h-2.2v1h2.2v12h1.1v-12h2.2v-1zm27.9-1.5c-.7-1.3-1.5-2.7-2.4-4l-.9.5c.7 1.2 1.5 2.5 2.3 4.1l1-.6zm-7 8.6c-.9.7-1.9 1.5-2.9 2.3v-8.6h-3.4v1h2.4v7.2c0 .6-.2 1.2-.6 1.6l.8.8.8-.8c1.1-.9 2.2-1.8 3.1-2.5 0-.3-.1-.7-.2-1zm11.1-11.4l-1.1-.2c-.6 4.6-2.1 8.2-4.4 10.9-2.4-2.8-3.9-6.4-4.4-10.9l-1.1.2c.6 4.9 2.2 8.7 4.7 11.6-1.7 1.7-3.9 3.3-6.6 4.7.3.4.6.8.8 1.1 2.9-1.7 5.1-3.3 6.6-4.9 1.6 1.7 3.7 3.2 6.3 4.7.2-.4.5-.8.8-1.1-2.6-1.3-4.7-2.8-6.4-4.5 2.4-2.7 3.9-6.6 4.8-11.6zm-12.8 2.1c-.8-1-1.7-2-2.7-3l-.8.6c.8.9 1.7 1.9 2.6 3.1l.9-.7zm22.3 1.8h-.9v4.3h-4.3v.9h4.3v4.3h.9v-4.3h4.3v-.9h-4.3v-4.3zm14.8-3.9l-1.1-.4c-1.5 3.3-3.6 6-6.5 8.2.4.3.7.6.9.9 2.8-2.4 5-5.3 6.7-8.7zm3.5 10.6c1.4 1.6 2.5 3 3.3 3.9-2.5.1-5.6.2-9.3.4h-1.3c2.1-2.5 4-5.1 5.7-7.9l-1.2-.6c-1.6 2.9-3.4 5.4-5.3 7.5-.4.4-.9.8-1.4 1l.5 1.2c.5-.1 1.2-.2 2-.2 2.9-.2 6.6-.3 11-.5.5.6.9 1.2 1.4 1.8l1-.8c-1.9-2.3-3.8-4.5-5.6-6.6l-.8.8zm1.2-11.4l-1.1.4c1.3 3.4 3.5 6.3 6.7 8.6.2-.3.5-.6.9-1-3.1-1.9-5.2-4.6-6.5-8zm13.4 13.2l-2.3 2.2v-4.7h2.6v-.9h-2.6v-2.8h1.9v-.9H559v.9h1.2v2.8h-2.5v.9h2.5v4.2c0 .4 0 .7-.1 1-.1.3-.2.5-.4.8l.7.8c.3-.4.6-.6.8-.8.7-.7 1.6-1.5 2.5-2.3l-.2-1.2zm7.6 3.4c-1.9 0-3.4-.7-4.4-2.2v-7.9h-2.5v.9h1.6v6.9c-.1.1-.1.2-.3.3-.9 1.1-1.6 2-2.1 2.6l.8.7c.7-1.1 1.4-2 2-2.7 1.1 1.5 2.7 2.3 4.8 2.3 2.2.1 4 .1 5.4.1.1-.4.2-.7.3-1.1h-2.8c-1 .1-1.9.1-2.8.1zM560 113h3.7v-.9h-3.3c.3-.7.6-1.7.9-2.8l-1-.2c-.7 2.5-1.6 4.7-2.7 6.5.3.2.6.5.8.7.7-1.3 1.3-2.4 1.6-3.3zm12.3 12.4h1v-3.1h3.2v-.9h-3.2v-2.9h2.7v-.9h-2.7v-3.5h-1v3.5h-2.7c.6-1.5 1.2-3.1 1.7-4.9h5v-.9h-4.7c.2-.7.5-1.5.7-2.5l-1-.2c-.2.9-.5 1.8-.7 2.7h-2.3v.9h2c-.5 1.8-1.1 3.4-1.7 4.7v1.2h3.7v2.9H568v.9h4.3v3zm-5.2-12.2c-.3-1-.8-2.3-1.5-3.9l-.9.3c.6 1.5 1 2.8 1.4 3.9l1-.3zm-168.6 50.6l-3-7.5h-2.4v.9h1.7l3.4 8.2h.8l4-16h-.9l-3.6 14.4zm7.3 37.6h-8.4v3.9h8.4v-3.9zm-1 3.1h-6.4v-2.2h6.4v2.2zm-9.3-11v3.7h12.2v-3.7h-12.2zm11.2 2.8h-10.2v-1.9h10.2v1.9zm1.1 11.2c1.5 0 2.2-.7 2.1-2.2v-6.4h-16.6v8.8h1v-7.9h14.5v5.5c0 .5-.1.8-.3 1-.2.2-.6.3-1.2.3-.8 0-1.6 0-2.2-.1.1.3.2.7.2 1.1 1-.1 1.8-.1 2.5-.1zm3.2-16.6h-8.6c-.2-.7-.3-1.4-.5-2l-1.1.2c.2.8.4 1.4.5 1.8h-9.1v.9H411v-.9zm-8.9 38.5l-3.6 14.5-3-7.5h-2.4v.9h1.7l3.4 8.2h.8l4-16h-.9zm0 80l-3.6 14.5-3-7.5h-2.4v.9h1.7l3.4 8.2h.8l4-16h-.9zm-6.6 46.9h-2.4v.9h1.7l3.4 8.2h.8l4-16h-.9l-3.6 14.5-3-7.6zm0 37.2v3.7h12.2v-3.7h-12.2zm11.2 2.8h-10.2v-1.9h10.2v1.9zm-13.4 11.4h1v-7.9h14.5v5.5c0 .5-.1.8-.3 1-.2.2-.6.3-1.2.3-.8 0-1.6 0-2.2-.1.1.3.2.7.2 1.1h2.4c1.5 0 2.2-.7 2.1-2.2V399h-16.6v8.7zm17.7-16.8h-8.6c-.2-.7-.3-1.4-.5-2l-1.1.2c.2.8.4 1.4.5 1.8h-9.1v.9H411v-.9zm-13.6 10.5v3.9h8.4v-3.9h-8.4zm7.4 3.1h-6.4v-2.2h6.4v2.2zm-1.2 29.9c2 .9 3.9 1.9 5.8 3l.6-.9c-1.4-.7-3.3-1.7-5.8-2.9l-.6.8zm6.5-3.1h-7.7v-.2c-.2-1-.3-1.7-.4-2.2l-1.1.2c.2.7.4 1.5.5 2.2h-8.2v3.1h1.1v-2.2h14.9v2.2h1.1v-3.1zm-2.4 16.5V441h-12.3v6.8h1.1v-1.1h10.1v1.1h1.1zm-11.1-2V442h10.1v3.8h-10.1zm-3.9-3.6c3.7-1.5 6.6-3.4 8.9-5.7 2.1 2.3 5 4.1 8.9 5.5.1-.3.3-.6.6-.9-3.7-1.2-6.7-3-8.8-5.2.1-.1.1-.2.3-.3.1-.1.1-.2.2-.2l-1.1-.3c-2.3 2.6-5.5 4.7-9.6 6.3 0 0 0 .1.1.1.2.3.4.5.5.7zm1-4.7c1.6-.8 3.6-1.8 5.8-3.1l-.7-.8c-1.8 1.1-3.7 2.1-5.8 3 .3.3.5.6.7.9zm35.1-7.7h-13.9v7.1h13.9v-7.1zm-1.1 6.2h-11.9v-2.2h11.9v2.2zm0-3.1h-11.9v-2.1h11.9v2.1zm-9.4 4.7l-1-.4c-1.3 1.8-2.9 3.4-5 4.6.3.3.5.6.7.8 1.3-.8 2.4-1.6 3.3-2.6h3.6c-1.1 2.4-3.7 4.3-7.7 5.8.3.3.5.6.7.9 4.2-1.6 6.9-3.8 8.1-6.7h3.3c-.6 2.9-2.8 5.3-6.5 7 .2.2.5.5.7.9 3.9-1.8 6.2-4.5 6.9-7.8h3.2c0 .9-.1 2.1-.2 3.5 0 2-.9 2.9-2.5 2.9h-.3c-.8 0-1.7 0-2.5-.1.1.4.2.8.2 1.1h2.3c2.5.1 3.8-1.2 3.8-3.9.1-1.6.2-3.1.2-4.5h-12.5c.5-.5.8-1 1.2-1.5zm-22.8 78.7h-2.4v.9h1.7l3.4 8.2h.8l4-16h-.9l-3.6 14.5-3-7.6zm14.5 49.2c-.1.6-.4.9-.7.9-.5 0-1-.4-1.4-1.1-1.2-1.8-1.9-4.3-2.1-7.7h5.2v-1h-5.3c-.1-1.9-.2-3.7-.2-5.4h.6c1.9-.1 3.4-.3 4.6-.4l-.4-1c-3.7.4-7.5.6-11.4.7v13.7c0 .4 0 .7-.1 1-.1.3-.2.5-.4.8l.8.9c.4-.3.7-.6.9-.7 1.1-.7 2.4-1.4 3.8-2.2-.1-.5-.2-.8-.2-1-1.3.8-2.5 1.5-3.7 2.1v-7.5h4.7c.3 3.6 1 6.4 2.2 8.1.7 1.1 1.5 1.7 2.4 1.7.9 0 1.4-.5 1.6-1.5.1-.6.3-1.5.4-2.8-.2 0-.5-.1-1-.3-.1 1-.2 1.8-.3 2.7zm-10.1-8.9v-5.1c1.3 0 2.8-.1 4.4-.2 0 2.2.1 3.9.2 5.3h-4.6zm4 8.8c-.2-.1-.3-.3-.4-.3l-.7.6c.8.8 1.4 1.5 1.9 2l.8-.7-1.6-1.6zm-9.1 2.4h1v-14c.7-1.3 1.3-2.8 2-4.5l-1-.4c-1.2 3.5-2.8 6.5-4.8 9 0 0 0 .1.1.1.2.3.3.7.4 1 .8-.9 1.5-2.1 2.3-3.4v12.2zm3.7 36l-3-7.5h-2.4v.9h1.7l3.4 8.2h.8l4-16h-.9l-3.6 14.4zm0 40l-3-7.5h-2.4v.9h1.7l3.4 8.2h.8l4-16h-.9l-3.6 14.4zm0 80l-3-7.5h-2.4v.9h1.7l3.4 8.2h.8l4-16h-.9l-3.6 14.4zm0 40l-3-7.5h-2.4v.9h1.7l3.4 8.2h.8l4-16h-.9l-3.6 14.4zm0 40l-3-7.5h-2.4v.9h1.7l3.4 8.2h.8l4-16h-.9l-3.6 14.4zM184.1 109.9h-16.8v1h7.8v8.6h-8.7v1.1h8.7v7.2h1.1v-7.2h8.8v-1.1h-8.8V111h7.9v-1.1zm-14.9 2.8l-.9.6c1.3 1.7 2.5 3.3 3.4 4.7l1-.7c-1.2-1.6-2.3-3.1-3.5-4.6zm9.9 5.4c1.4-1.6 2.7-3.2 3.8-4.7l-1-.6c-1.1 1.6-2.4 3.2-3.7 4.6l.9.7zm23.3 9.7v-8.5h-13.5v8.5h1.1v-1.3h11.4v1.3h1zm-12.5-2.3v-5.2h11.4v5.2h-11.4zm5.5-16l-1.1-.6c-1.8 2.2-3.8 4.2-6.1 6.2-.4.4-.9.7-1.5.9l.5 1.2c.5-.1 1.1-.2 1.9-.2 3.2-.2 7.7-.3 13.4-.5l1.6 1.6 1-.7c-2.1-2.1-4-4-5.7-5.6l-.9.6 3.1 3.1c-1.8.1-3.5.1-5.2.2-3.5.1-6 .2-7.5.2 2.5-2.3 4.7-4.4 6.5-6.4zm20.6-.5c-.9 2.5-2 4.7-3.5 6.7.2.1.5.3 1 .6.6-.9 1.2-1.9 1.8-3.1h7.9c-.1 3.8-.2 7.3-.3 10.5 0 1-.2 1.6-.6 1.9-.3.4-1 .5-1.9.5h-3.5c.1.5.2.9.2 1.1h3.3c2.4.1 3.5-1 3.5-3.3.1-2.9.2-6.8.4-11.8h-8.5c.4-.9.9-1.9 1.2-2.9l-1-.2zm-6.9.1v4.1h-2.8v.9h2.8v.1c-.5 2.3-1.5 4.5-3 6.7.1.3.3.7.5 1.3 1-1.6 1.9-3.5 2.5-5.8v11.3h1v-10.4c1 .9 1.8 1.7 2.4 2.4l.8-.7c-.5-.5-1.3-1.3-2.6-2.3l-.7.6v-3.1h2.6v-.9H210v-4.1h-.9zm7.9 5.9c-1 2.5-2 4.5-3 6-.3.5-.7.8-1 1l.5 1.1c.4-.1 1-.2 1.6-.2 1.7-.1 3.5-.2 5.2-.3l.5 1 1-.5c-.8-1.4-1.7-3.1-2.9-5.1l-.9.4c.8 1.3 1.4 2.4 1.9 3.3-.8 0-2 .1-3.5.2-.7 0-1.2.1-1.5.1 1.1-1.9 2.3-4.1 3.4-6.5l-1.3-.5zm26.2-3.5c-.9-.7-1.9-1.3-3-1.9l-.6.7c1.1.7 2 1.3 2.9 2l.7-.8zm-14.4 12.2c.3-1.2.5-3.1.5-5.5h4.5c0 1.3-.1 2.8-.2 4.4 0 1.2-.6 1.7-1.7 1.7H230c.1.3.2.7.2 1.1h1.8c1.7 0 2.5-.9 2.6-2.8.1-2.1.2-3.8.2-5.3h-5.6V114h7.9c.2 3.8.7 6.8 1.4 9-1.1 1.3-2.5 2.6-4.1 3.7l.8.8c1.5-1.1 2.7-2.2 3.7-3.4.9 2.5 2.1 3.7 3.5 3.6 1.1 0 1.8-.6 2.2-1.9.2-.6.4-1.5.5-2.6-.3-.1-.7-.2-1-.4-.1.9-.3 1.7-.5 2.5-.3.9-.7 1.3-1.2 1.3-1 0-1.9-1.2-2.7-3.5 1.3-1.7 2.6-3.9 3.9-6.6l-1-.4c-1 2.4-2.1 4.3-3.3 5.8-.6-2-.9-4.7-1.1-8h6.7v-1h-6.8c-.1-1.2-.1-2.5-.1-3.9h-1.1c0 1.4.1 2.7.1 3.9h-8.9v4.2c0 2.8-.1 4.8-.4 6-.2 1.2-.8 2.5-1.7 4 .4.3.7.5.9.7 1-1.5 1.6-2.9 1.9-4.1zm-47.5 42.8c-.8 0-1.6 0-2.3-.1.1.4.2.8.2 1.2h2.3c1.7 0 2.5-.8 2.5-2.4v-15h-15.5v6.9c0 2.7-.1 4.7-.5 6-.3 1.3-.9 2.6-1.9 4.1.4.2.7.5 1 .7 1.4-2 2.1-4.2 2.3-6.5h6.2v6.2h1.1v-6.2h6.2v3.8c0 .9-.5 1.3-1.6 1.3zm-5.8-6.2h-6.1c.1-1.2.1-2.3.1-3.2v-.9h6v4.1zm0-5.1h-6v-4.1h6v4.1zm1.1-4.1h6.2v4.1h-6.2v-4.1zm0 9.2v-4.1h6.2v4.1h-6.2zm11.9-3c0 2.5-.1 4.4-.5 5.6-.3 1.3-.9 2.6-1.9 4.1.4.2.7.5.9.7 1.7-2.3 2.5-5.2 2.6-8.6h12.8v1h1.1v-8.3h-7.1l.9-.4c-.5-.7-1-1.6-1.7-2.5l-1 .5c.6.9 1.1 1.7 1.5 2.5h-7.7v5.4zm1.1-4.4h12.8v5.2h-12.8v-5.2zm29.8-.3h4.8v-.9h-4.8V149h-1.1v2.7h-4.8v.9h4.8v3.2h-5.6v.9h12.4v-.9h-5.7v-3.2zm1.5 5.2v1.9h-8.2v.9h8.2v4.3c0 .6-.1 1-.3 1.2-.2.2-.7.3-1.3.3H218c-.3 0-.7 0-1.2-.1.1.5.2.8.2 1.1h2.5c1.7 0 2.6-.7 2.5-2.2v-4.7h3.1v-.9H222v-1.9h-1.1zm-3.6 6.4c-.5-.5-1.5-1.4-2.8-2.7l-.8.7 2.7 2.7.9-.7zm-10.6-4.9c-.3.1-.5.1-.6.1l.2 1.1c.3-.1.7-.2 1.3-.3.7-.2 1.1-.3 1.5-.4v5.5c0 .7-.3 1.1-1 1h-1.6c.1.4.2.8.2 1.2h1.6c1.3 0 1.9-.6 1.8-2v-6c.2 0 .5-.1 1-.2.6-.1 1.1-.3 1.4-.3v-.6-.5c-.3.1-.8.2-1.4.4-.4.1-.7.2-.9.2v-4.4h2.3v-1h-2.3v-4.2h-1v4.2h-2.7v1h2.7v4.7c-.7.1-1.5.3-2.5.5zm23.4-2v10.5h1.1v-4.5h10.3v1.7c0 .5-.1.9-.3 1.1-.2.2-.6.3-1.2.3h-2.8c.1.3.2.6.3 1.1h2.8c1.6 0 2.4-.7 2.3-2.2v-9.9h-10.7c.7-.9 1.3-1.8 1.8-2.6h11.2v-1h-10.6l1.2-2.4-1.1-.3c-.4.9-.9 1.8-1.4 2.7h-6.1v1h5.6c-1.6 2.6-3.7 5-6.3 7.1.3.3.5.6.7.9 1.2-1.4 2.3-2.5 3.2-3.5zm1.1-1.2h10.3v2.6h-10.3v-2.6zm0 3.6h10.3v2.6h-10.3v-2.6zm33.1 6.9c-3-1.2-5.8-2.3-8.3-3.3 0-.1.1-.3.1-.5v-.2c.1-.7.2-1.4.2-2.1h-1c0 .8 0 1.4-.1 1.9-.4 2.1-3.1 3.5-8.3 4.1.2.4.4.7.6 1.1 4.5-.8 7.2-2 8.1-3.5 2.4.9 5.2 2.1 8.2 3.4l.5-.9zm-12.8-12.2c-.3-.5-.5-.8-.5-1-1.5 1.2-3.1 2.4-4.7 3.5l.8 1c1.4-1.2 2.9-2.4 4.4-3.5zm.1 2.4c.2.3.4.6.6 1 3.5-1.1 5.6-2.5 6.2-4.4.8 2.1 2.8 3.6 5.9 4.5.2-.3.4-.7.6-1-3.1-.6-5.1-2.2-6.1-4.7 0-.2.1-.4.1-.6h4.2l-1.1 2.1c.4.1.7.3 1 .4l1.2-2.4v-1h-8.9c.3-.5.5-1 .7-1.6l-1-.3c-.7 1.8-1.7 3.3-3.1 4.7.2.2.5.4.8.7.8-.9 1.5-1.8 2-2.7h3.1c-.1 2.7-2.2 4.4-6.2 5.3zm-.7-5.3c-1.1-.9-2.2-1.6-3.1-2.3l-.7.8c1.1.8 2.1 1.5 3.1 2.3l.7-.8zm11.3 12.6v-5.7h-13v5.7h1v-4.7h11v4.7h1zm7-4.8v-1.5h15.2v-1h-5.7c.8-1.1 1.5-2.2 2.2-3.2l-1-.5c-.8 1.3-1.5 2.6-2.3 3.8h-9.4v2.5c0 1.9-.1 3.3-.5 4.5-.3 1.1-.9 2.2-1.6 3.2.3.2.6.4.9.8 1.6-2.3 2.3-5.1 2.2-8.6zm3.9-2.8l1-.6c-.9-1.2-1.6-2.2-2.2-2.9l-.9.6c.7.9 1.4 1.9 2.1 2.9zm11.9-5.3h-8c-.2-.6-.5-1.4-.8-2.3l-1.1.3s0 .1.1.1c.3.8.5 1.4.6 1.8h-9.2v1H285v-.9zm-108.8 42.4h7.2v-1h-7.2V189h-1.1v3.6h-7.2v1h7.2v4.7h-8.8v1h7.8c-1.2 1.8-2.7 3.5-4.4 5.3-.5.5-1 .8-1.6 1.1l.6 1.2c.4-.1 1-.2 1.8-.2 4-.2 7.8-.3 11.4-.4.4.4.8.9 1.2 1.4l1-.7c-1.5-1.6-3.2-3.5-5.3-5.6l-.9.6c1 1 2 2.1 3.1 3.4-.9 0-2.2.1-4 .1-3.1.1-5.3.1-6.7.2 2.3-2.5 4-4.5 5.2-6l-.8-.3H185v-1h-8.8v-4.8zm27.6 8.1v-8.5h-7.6v-4.3h-1.1v4.3h-7.6v8.5h1.1v-1.1h6.5v7.3h1.1v-7.3h6.6v1.1h1zm-8.7-2.1h-6.5v-5.4h6.5v5.4zm1.1 0v-5.4h6.6v5.4h-6.6zm25.6-5.3l-1.1.5c1.2 2.3 2.3 4.6 3.2 6.9l1.2-.5c-.9-2.2-2-4.5-3.3-6.9zm-14.5 8.5c.8-2.5 1.4-5.1 2-7.7l-1.1-.3c-.5 2.6-1.2 5.1-2.1 7.6.4.1.8.3 1.2.4zm5-10.1h-1.1v11.6c0 1.9.9 2.9 2.8 2.8h4.3c1.9 0 3-.7 3.2-2.2.2-.8.3-1.7.5-2.9-.3-.1-.7-.2-1.2-.4-.1 1.1-.2 2-.3 2.7-.2 1.2-1 1.8-2.4 1.7h-3.8c-.7 0-1.3-.1-1.6-.4-.3-.3-.4-.8-.4-1.5v-11.4zm6.1 1.5c-1.1-1.9-2.2-3.7-3.3-5.3l-1 .5c1.1 1.8 2.2 3.6 3.2 5.4l1.1-.6zm25.2 10.5c-.2.9-.9 1.4-2.1 1.3h-2.2c-.7 0-1.2-.1-1.5-.4-.3-.2-.4-.7-.4-1.4v-5.4c2.5-1.8 4.7-4 6.7-6.5l-1-.6c-1.7 2.2-3.6 4.1-5.7 5.8v-8.1h-1.1v8.9c-1.4 1-3 1.9-4.8 2.7.3.4.5.7.7 1 1.4-.7 2.8-1.5 4.1-2.4v4.8c-.1 1.9.8 2.8 2.7 2.8h2.5c1.8 0 2.8-.7 3.1-2.1.2-.9.3-2 .5-3.4-.3-.1-.6-.2-1.1-.4-.1 1.5-.3 2.7-.4 3.4zm-14.3-8.4v11.4h1.1v-13.3c.9-1.7 1.7-3.3 2.4-4.9l-1.1-.3c-1.4 3.8-3.3 6.9-5.5 9.6.3.3.5.7.7 1.1l2.4-3.6zm25.1-.9h9.3v-5.2h-9.3v5.2zm1.1-4.3h7.2v3.3h-7.2v-3.3zm-6.2 6.8v9.9h1v-9.2c1 1 1.7 1.9 2.2 2.5l.8-.7c-.6-.6-1.4-1.5-2.4-2.5l-.7.5v-2.7h2.7v-.9h-2.7v-3.7c.4 0 1.1-.1 2-.2.3 0 .6-.1.7-.1l-.2-.9c-2.1.2-4.2.4-6.4.5.1.2.1.5.2.9v.1c1.1 0 2-.1 2.7-.1v3.6h-3v.9h2.9c-.7 2.7-1.8 5-3.3 7.1.3.4.5.7.6 1 1.4-1.8 2.3-3.7 2.9-6zm10.3 4.7h4.5v-.9h-4.5v-3.1h4.9v-.9h-10.9v.9h4.9v3.1H254v.9h4.5v3.2h-6v.9h12.6v-.9h-5.6v-3.2zm24.7 5c.1-.4.3-.7.5-1.1-2.8-.4-5.1-.9-6.8-1.7 1.5-.8 2.9-2 4.3-3.6v-1h-11.7v.9h1.3c1.1 1.6 2.4 2.8 3.9 3.6-1.9.8-4.2 1.5-6.8 2 .2.3.4.6.6 1 3.1-.7 5.6-1.5 7.3-2.4 1.9 1 4.4 1.8 7.4 2.3zm-11.1-6.4h7.9c-1.2 1.3-2.6 2.3-4.1 3.1-1.4-.7-2.6-1.8-3.8-3.1zm7.8-2.8v-3h3.6v-.9H281v-1.7h-1v1.7h-6v-1.7h-1v1.7h-2.9v.9h2.9v3h8zm-7-3h6v2.1h-6v-2.1zm-5.9 2.2c0 2.6-.1 4.5-.4 5.6-.2 1.1-.8 2.4-1.7 3.9.3.2.6.5.8.7.9-1.5 1.5-2.9 1.8-4.2.3-1.3.5-3.3.4-5.8v-5.6h15.6v-1h-7.4c-.1-.6-.3-1.4-.5-2.2l-1.1.2c0 .2.1.4.2.7.1.6.2 1 .3 1.3h-8.2v6.4zm-88.7 43.5h3.7v.8h1v-8.6h-4.5v-2.2h5.3v-.9h-11.3v.9h5v2.2H174v7.7h4.4c-.2 1.3-.6 2.3-1.2 3-.8-.6-1.5-1.4-2.2-2.4l-.8.6c.8 1.1 1.5 1.9 2.2 2.5-.8.7-2.4 1.4-4.7 2.1l.6.9c2.4-.8 4-1.6 4.9-2.4 1.5 1 3.9 1.8 7.2 2.1.2-.4.3-.8.5-1-3.2-.3-5.6-.9-7-1.8.9-.8 1.3-2 1.5-3.5zm.2-6.9h3.6v2.5h-3.6v-2.5zm0 3.4h3.6v2.5h-3.7c.1-.9.1-1.7.1-2.5zm-4.6-3.4h3.6v2.5H175v-2.5zm0 6v-2.5h3.6c0 .9 0 1.7-.1 2.5H175zm-8.3.5c.5-.8.9-1.6 1.3-2.4v7.8h.9v-1.4h3.2V236H169c.6-1.5 1-3 1.3-4.6h2.5v-.9h-6.3v.9h2.8c-.6 3.1-1.7 5.9-3.4 8.5l.2.2.6.6zm2.2-3.8h2.3v6.9h-2.3v-6.9zm17.2 1.7c.2.5.4.8.5 1.2.8-1.1 1.5-2.4 2.3-3.8v11.8h1.1v-14.1c.6-1.5 1.2-2.9 1.5-4.2l-1.1-.3c-1 3.5-2.5 6.7-4.3 9.4zm13.7-4h4.7v-1h-4.7V229h-1.1v4.5h-3.8c.3-.8.6-1.8.9-2.8l-1.1-.3c-.7 2.7-1.6 5.1-2.8 7.2.4.2.8.4 1 .6.6-1.2 1.2-2.4 1.6-3.6h4.2v5.3h-7.2v1h7.2v6.9h1.1v-6.9h5.3v-1h-5.3v-5.3zm7 1.8c.8-1 1.5-2.2 2.1-3.5h4.2v-.9h-3.8c.3-.8.7-1.6 1-2.5l-1-.3c-.8 2.5-1.9 4.7-3.3 6.4.4.2.6.5.8.8zm12.2-6.3c.9.7 1.8 1.5 2.8 2.3l.7-.8c-1-.8-2-1.6-2.9-2.2l-.6.7zm5.1 12.5c-.2 1.1-.3 2-.6 2.7-.2.9-.6 1.3-1.2 1.2-1.1 0-2.1-1-3-3 1.4-.9 2.8-2.1 4.1-3.6l-.8-.6c-1.3 1.3-2.5 2.4-3.8 3.2 0-.1-.1-.2-.1-.3 0-.1 0-.1-.1-.2-.4-1.2-.7-2.3-.9-3.5l6.5-.8-.1-.9-6.6.8c-.1-1.1-.3-2.2-.3-3.1l6.7-.8-.1-.9-6.7.7c-.1-1.5-.1-3.1-.2-4.6h-1.1c0 1.7.1 3.3.2 4.7l-2.8.3.2.9 2.7-.3c.1 1.1.2 2.1.3 3.1l-3.2.4.2.9 3.2-.4c.2 1.3.5 2.6 1 3.9.1.2.1.4.2.6-1.4.8-3.1 1.6-5.2 2.3.3.3.4.6.6 1 2-.7 3.7-1.5 5-2.3 1 2.3 2.4 3.5 3.9 3.5 1 0 1.7-.6 2-1.8.2-.7.4-1.6.6-2.8.1 0-.3-.2-.6-.3zm-11.2.1c-.9.9-1.8 1.8-2.6 2.5v-4.8h2.9v-.9h-2.9v-3.1h2.4v-.9h-5v.9h1.5v3.1h-3v.9h3v4.9c0 .5-.1.9-.4 1.3l.8.7c.3-.4.5-.7.7-.9 1-.9 2-1.8 2.9-2.7 0-.2-.1-.6-.3-1zm24.3-2.2v-5.4h-8.3v9.3c0 1.8.9 2.7 2.8 2.7h9.7c1.9 0 2.9-.7 3.2-2 .2-.7.3-1.7.5-2.9-.4-.1-.7-.2-1.1-.4-.1 1.1-.2 2.1-.4 2.8-.1 1-.9 1.4-2.3 1.4H232c-1.4.1-2-.5-2-1.7v-3.8h7.2zM230 236h6.2v3.5H230V236zm.6-3.8h10.8c0 3-.1 5.7-.3 8.2 0 1.5-.8 2.2-2.2 2.1-1 0-1.8 0-2.5-.1.1.4.2.8.2 1.2H239c2.1.1 3.2-1 3.2-3.2.1-3.4.2-6.4.3-9.2h-11.4c.3-.7.6-1.3 1-2.1l-1.1-.3c-1.1 2.9-2.7 5.5-4.9 7.8.2.2.4.5.7.9 1.6-1.8 2.9-3.6 3.8-5.3zm24.6-3.3v2.8h-8.9v1h8.9v3.3h-7v1h1.9c1.1 2.9 2.6 5.2 4.6 6.8-1.9 1.2-4.7 2.2-8.3 3 .3.4.5.8.6 1 3.8-.9 6.7-2.1 8.6-3.4 1.5 1.2 4.4 2.2 8.6 3 .1-.3.4-.6.6-1 0 0 0-.1.1-.1-3.8-.7-6.6-1.6-8.3-2.7 2.3-1.7 4-3.9 5.2-6.7v-1h-5.5v-3.3h8.5v-1h-8.5v-2.8h-1.1zm5.4 8.2c-1.1 2.6-2.8 4.7-4.9 6.1-1.9-1.3-3.3-3.3-4.4-6.1h9.3zm11.8.8c-.3.1-.8.2-1.4.4-.4.1-.7.2-.9.2v-4.4h2.3v-1h-2.3v-4.2h-1v4.2h-2.7v1h2.7v4.7c-.5.1-1.3.3-2.3.5-.3.1-.5.1-.6.1l.2 1.1c.3-.1.7-.2 1.3-.3.7-.2 1.1-.3 1.5-.4v5.5c0 .7-.3 1.1-1 1h-1.6c.1.4.2.8.2 1.2h1.6c1.3 0 1.9-.6 1.8-2v-6c.2 0 .5-.1 1-.2.6-.1 1.1-.3 1.4-.3v-.6c-.2-.2-.2-.3-.2-.5zm2.1 3.6l-.8.7 2.7 2.7.8-.7c-.4-.6-1.4-1.5-2.7-2.7zm7.5-3.7h-1.1v1.9h-8.2v.9h8.2v4.3c0 .6-.1 1-.3 1.2-.2.2-.7.3-1.3.3H278c-.3 0-.7 0-1.2-.1.1.5.2.8.2 1.1h2.5c1.7 0 2.6-.7 2.5-2.2v-4.7h3.1v-.9H282v-1.8zm-2.6-5.2h4.8v-.9h-4.8V229h-1.1v2.7h-4.8v.9h4.8v3.2h-5.6v.9h12.4v-.9h-5.7v-3.2zm-112.2 85.3v7.5c-.4.1-.8.1-1.1.2l.2 1.1c2.9-.6 5.3-1.1 7.2-1.5v-.6-.4c-.3.1-.7.2-1.3.3-.6.1-1 .2-1.3.3v-4.6h2.1v-.9h-2.1V316h1.8v-5.9h-5.4v5.9h2.7v9c-.2 0-.4.1-.8.2s-.7.1-.9.2V318h-1.1zm1-2.8V311h3.5v4.1h-3.5zm12.4-2.8h3.9v-.9h-5.6c.3-.7.6-1.4.9-2.2l-1-.2c-.3.9-.6 1.8-1 2.5h-3.9v.9h3.4c-.8 1.5-2.3 2.9-4.3 4.2.3.3.5.6.7.8 2.2-1.5 3.8-3.2 4.7-5.1h1.1c1 2 2.6 3.6 4.9 4.8 0 0 0-.1.1-.1.2-.4.4-.6.5-.8-1.9-.9-3.4-2.2-4.4-3.9zm-7.1 7.3h2.2l-.9 3.1h7.3c-.1.7-.1 1.5-.2 2.1-.1 1-.7 1.5-1.8 1.5h-1.2c-.4 0-1 0-1.8-.1.1.4.2.8.3 1.1h2.9c1.7 0 2.6-.7 2.7-2.3.1-.8.2-1.9.3-3.2h-7.1l.6-2.2h7.9v-.9h-11.2v.9zm2.7-3.8v.9h5.9v-.9h-5.9zm17.9-6.5l-.9.3c.6 1.5 1 2.8 1.4 3.9l1-.3c-.4-1-.9-2.3-1.5-3.9zm-4.4 7.2h1.9v-.9h-4.1v.9h1.2v2.8h-2.5v.9h2.5v4.2c0 .4 0 .7-.1 1-.1.3-.2.5-.4.8l.7.8c.3-.4.6-.6.8-.8.7-.7 1.6-1.5 2.5-2.3l-.2-1.1-2.3 2.2v-4.7h2.6v-.9h-2.6v-2.9zm.1-7.3l-1-.2c-.7 2.5-1.6 4.7-2.7 6.5.3.2.6.5.8.7.7-1.2 1.3-2.3 1.6-3.2h3.7v-.9h-3.3c.2-.7.5-1.7.9-2.9zm4 15.1c-.9 1.1-1.6 2-2.1 2.6l.8.7c.7-1.1 1.4-2 2-2.7 1.1 1.5 2.7 2.3 4.8 2.3 2.2.1 4 .1 5.4.1.1-.4.2-.7.3-1.1h-5.6c-1.9 0-3.4-.7-4.4-2.2v-7.9h-2.5v.9h1.6v6.9c0 .1-.1.2-.3.4zm2.6-3v.9h4.3v3.1h1v-3.1h3.2v-.9h-3.2v-2.9h2.7v-.9h-2.7V314h-1v3.5H198c.6-1.5 1.2-3.1 1.7-4.9h5v-.9H200c.2-.7.5-1.5.7-2.5l-1-.2c-.2.9-.5 1.8-.7 2.7h-2.3v.9h2c-.5 1.8-1.1 3.4-1.7 4.7v1.2h3.7v2.9h-4.3zm18.8-12.4v2.8h-8.9v1h8.9v3.3h-7v1h1.9c1.1 2.9 2.6 5.2 4.6 6.8-1.9 1.2-4.7 2.2-8.3 3 .3.4.5.8.6 1 3.8-.9 6.7-2.1 8.6-3.4 1.5 1.2 4.4 2.2 8.6 3 .1-.3.4-.6.6-1 0 0 0-.1.1-.1-3.8-.7-6.6-1.6-8.3-2.7 2.3-1.7 4-3.9 5.2-6.7v-1h-5.5v-3.3h8.5v-1h-8.5v-2.8h-1.1zm5.4 8.2c-1.1 2.6-2.8 4.7-4.9 6.1-1.9-1.3-3.3-3.3-4.4-6.1h9.3zm6.1 2.2c-.3.1-.5.1-.6.1l.2 1.1c.3-.1.7-.2 1.3-.3.7-.2 1.1-.3 1.5-.4v5.5c0 .7-.3 1.1-1 1h-1.6c.1.4.2.8.2 1.2h1.6c1.3 0 1.9-.6 1.8-2v-6c.2 0 .5-.1 1-.2.6-.1 1.1-.3 1.4-.3v-.6-.5c-.3.1-.8.2-1.4.4-.4.1-.7.2-.9.2v-4.4h2.3v-1h-2.3v-4.2h-1v4.2h-2.7v1h2.7v4.7c-.7.1-1.5.3-2.5.5zm12.7-6.7h4.8v-.9h-4.8V309h-1.1v2.7h-4.8v.9h4.8v3.2h-5.6v.9h12.4v-.9h-5.7v-3.2zm1.5 5.2v1.9h-8.2v.9h8.2v4.3c0 .6-.1 1-.3 1.2-.2.2-.7.3-1.3.3H238c-.3 0-.7 0-1.2-.1.1.5.2.8.2 1.1h2.5c1.7 0 2.6-.7 2.5-2.2v-4.7h3.1v-.9H242v-1.9h-1.1zm-3.6 6.4c-.5-.5-1.5-1.4-2.8-2.7l-.8.7 2.7 2.7.9-.7zM184.2 363c-.1.9-.1 1.7-.2 2.4-.1.6-.4 1-.9 1h-.5c-.7 0-1-.3-1-1V359h-1v6.5c0 1.2.6 1.8 1.8 1.8h.9c1 0 1.5-.5 1.7-1.6.1-.6.2-1.4.3-2.4-.5-.1-.8-.2-1.1-.3zm-15.1-5.3l.8-.8c-.9-.7-1.9-1.5-3-2.4l-.7.7c1.1.9 2.1 1.7 2.9 2.5zm-2.5 9.4l1.1.4c.5-1.9 1.2-4.3 2.1-7.1-.4-.1-.7-.3-1-.4-.8 2.8-1.5 5.2-2.2 7.1zm6.9-2.5c.5-1.1.7-3 .7-5.5h-1c0 2.4-.2 4-.6 5.1-.4 1-1.2 2-2.5 2.9.3.3.6.5.8.8 1.3-1.1 2.2-2.1 2.6-3.3zm11-13.1h-6.4l.7-.3c-.4-.8-.8-1.6-1.2-2.3l-1 .4c.4.6.8 1.3 1.2 2.2h-6.5v1h5c-1.3 1.5-2.4 2.7-3.4 3.5-.4.3-.8.6-1.2.8l.5 1c.5-.1 1-.1 1.6-.1h1.1c3.1-.1 5.6-.2 7.6-.2.1.2.4.4.6.8.2.2.3.4.4.5l.9-.7c-1.3-1.5-2.6-2.9-3.9-4.2l-.8.6c.7.7 1.4 1.4 2 2.1-3 .1-5.6.2-8.1.2 1.3-1.2 2.7-2.5 4-3.9l-.7-.3h7.8v-1.1zm-14 .3c-1.1-1-2.1-1.8-3-2.5l-.7.7c1.1.9 2.1 1.8 2.9 2.6l.8-.8zm6.3 15.6h1v-8.3h-1v8.3zm21.4-18.4c0 1.4 0 2.8-.1 4.1h-3v1h3v1.8c-.1 4.8-1.4 8.5-4.1 11.1.4.3.7.6.9.8 2.8-3 4.2-6.9 4.2-11.8 0-.6 0-1.3.1-2h4.1c0 2.6-.1 6-.3 10.1 0 1.3-.7 2-1.9 2-.8 0-1.6 0-2.6-.1.1.4.3.8.4 1.3h2.4c1.8 0 2.7-1 2.8-3.1.1-2.1.2-5.8.3-11.1h-5.2c0-1.5.1-2.8.1-4.1h-1.1zm-11.9 15.3l.5 1c.3-.1.7-.2 1.2-.2 2-.2 3.9-.4 5.7-.5.1.1.2.4.3.6.1.1.1.2.1.3l1-.5c-.8-1.8-1.6-3.5-2.5-5.1l-1 .4c.6 1.1 1.1 2.2 1.6 3.4-1.9.2-3.7.3-5.4.4 1-2 2-4.2 3.1-6.8h4.4v-1h-9v1h3.4c-.8 2.2-1.6 4.1-2.4 5.7-.3.5-.6 1-1 1.3zm.8-13.6v1h7.4v-1h-7.4zM210 349h-1.1v18.9h1.1V349zm-2 4.6l-1-.2c-.2 1.4-.5 3-.8 4.5.4 0 .7.1 1 .2.3-1.6.6-3.2.8-4.5zm17.1 12.3h-5.7v-5.5h4.8v-1h-4.8v-5h5.1v-1h-5.1V349h-1.1v4.3h-3.2c.3-.7.5-1.7.8-2.8l-1.1-.3c-.6 2.5-1.4 4.7-2.6 6.8.4.2.8.4 1 .6.6-1.2 1.1-2.3 1.5-3.4h3.6v5h-5.1v1h5.1v5.5H212v1h13.1v-.8zm-12.5-11.1c-.5-.8-1-1.6-1.6-2.5l-.8.5c.5.8 1 1.6 1.6 2.6l.8-.6zm31.8 11.8c-1.9-1.3-4-2.6-6.3-4.1l-.7.8c1.9 1.2 4 2.6 6.2 4.1l.8-.8zm.6-6.7h-5.1V354h4.3v-1h-4.3v-3.9h-1.1v3.9h-6.5v-3.9h-1.1v3.9H227v1h4.3v5.8h-5.1v1H245v-.9zm-6.1 0h-6.5V354h6.5v5.9zm-11.7 7.6c2.1-1.2 4.2-2.6 6.5-4.2l-.8-.8c-2 1.5-4.1 2.8-6.4 4.1.2.3.4.6.7.9zm27.7-1.1c-.2.2-.6.3-1.2.3-.9 0-1.7 0-2.5-.1.1.4.2.8.2 1.1h2.6c1.6 0 2.3-.7 2.3-2.2v-1.7h8.7v-.9h-8.7v-.5l6-2.1v-1h-14.4v.9H260l-4.7 1.5v1.1h-9.1v.9h9.1v1.6c0 .5-.1.9-.4 1.1zm-8.5-14.2h18.4v-.9h-8.3c-.3-.8-.5-1.6-.8-2.4l-1.1.3c.3.7.5 1.4.8 2.1h-9v.9zm15.6 5.3v-3.7h-13v3.7h13zm-11.9-2.8H261v1.8h-10.9v-1.8zm-66.6 35.2h-10.3v5.4h10.3v-5.4zm-1 4.6h-8.3V393h8.3v1.5zm0-2.3h-8.3v-1.5h8.3v1.5zm1.8 7.9v-.9h-5.8v.8h.6c.4 1.8 1 3.3 1.9 4.4-.8.9-1.8 1.7-3 2.4.2.3.4.5.6.8 1.2-.8 2.2-1.6 3-2.5.7.7 1.7 1.5 3 2.2.2-.3.3-.5.6-.8-1.3-.7-2.2-1.4-2.9-2.1.9-1.2 1.6-2.6 2-4.3zm-4.3-.1h3.4c-.4 1.4-1 2.6-1.8 3.7-.7-1-1.2-2.2-1.6-3.7zm-12.4 6.6h-1.3c.1.4.1.8.2 1h1.4c1.2 0 1.8-.7 1.7-2v-5.9c.5-.1 1.1-.3 1.9-.6-.1-.3-.1-.7-.1-1-.2.1-.4.1-.8.2-.5.1-.8.2-1.1.3v-4.7h1.9v-.9h-1.9v-3.9h-1v3.9h-2.2v.9h2.2v5c-.7.2-1.5.4-2.4.7l.1 1.1c.8-.3 1.6-.5 2.3-.7v5.6c.1.7-.2 1-.9 1zm17.5-8.9v-.9h-13.4v.9h.9v7.7c-.3 0-.8.1-1.5.2l.2.9c2.1-.4 4-.7 5.6-1v2.3h1v-2.5h.2c.4-.1.7-.1.9-.1v-.9c-.2.1-.6.1-1.1.2v-6.8h7.2zm-8.3 6.9c-.4.1-.9.1-1.6.3-.7.1-1.3.2-1.6.3V403h3.3v1.6zm0-2.4h-3.3v-1.8h3.3v1.8zm0-2.7h-3.3v-1.8h3.3v1.8zm12.2 8.3h1.1v-1.3h11v1.3h1.1v-8.3H189v8.3zm1.1-7.3h11v5h-11v-5zm0-4.8v1h11v-1h-11zm-3.2 1.7c3.8-2 6.7-4.3 8.7-6.8 1.9 2.6 4.8 4.7 8.6 6.5.2-.4.4-.7.7-1.1-3.6-1.5-6.5-3.6-8.7-6.3 0-.1.1-.2.2-.3.1-.2.2-.3.3-.4l-1.2-.2c-2.1 3-5.2 5.5-9.4 7.5.4.4.6.8.8 1.1zm20.3.8c.3-1.7.6-3.2.8-4.5l-1-.2c-.2 1.4-.5 3-.8 4.5.3 0 .7.1 1 .2zm17.9 7.7h-5.7v-5.5h4.8v-1h-4.8v-5h5.1v-1h-5.1V389h-1.1v4.3h-3.2c.3-.7.5-1.7.8-2.8l-1.1-.3c-.6 2.5-1.4 4.7-2.6 6.8.4.2.8.4 1 .6.6-1.2 1.1-2.3 1.5-3.4h3.6v5h-5.1v1h5.1v5.5H212v1h13.1v-.8zm-13.3-10.5l.9-.6c-.5-.8-1-1.6-1.6-2.5l-.8.5c.4.8.9 1.6 1.5 2.6zm-2.9 12.4h1.1V389h-1.1v18.8zm17.7-13c.4-.1.9-.2 1.4-.2 2.2-.1 4.4-.2 6.4-.3l.4.4c.3.3.5.6.6.8l.9-.7c-1.2-1.4-2.4-2.7-3.6-3.8l-.8.6c.5.6 1.1 1.2 1.7 1.8-2.6.2-4.5.3-5.8.3 1.3-1.3 2.5-2.8 3.7-4.3l-1-.5c-1 1.4-2 2.8-3.2 4-.4.4-.8.7-1.2.9l.5 1zm10.6.4c0 1.5.7 2.2 2.3 2.1h2.5c1.4 0 2.3-.6 2.5-1.9.1-.5.2-1.2.4-2-.3-.1-.7-.2-1-.4-.1.8-.2 1.5-.3 2.1-.1.8-.7 1.2-1.7 1.2h-2.2c-1 0-1.5-.4-1.5-1.3v-1.2c2.1-.8 4.1-1.7 6.1-2.8l-.6-.9c-1.7 1-3.5 1.9-5.5 2.6V389h-1v6.2zm-4.3 12.2c1.3 0 1.9-.6 1.8-1.9v-9.1h-7.4v11.2h1v-4.2h5.3v2.2c0 .6-.3.9-1.1.9-.7 0-1.3 0-1.8-.1.1.3.2.7.2 1 .8.1 1.4 0 2 0zm-4.6-10.1h5.3v2.2h-5.3v-2.2zm0 5.2v-2.2h5.3v2.2h-5.3zm11.2 4.8h2.6c1.5 0 2.3-.6 2.5-1.9.1-.5.2-1.2.3-2-.3-.1-.6-.2-1-.3-.1.9-.1 1.6-.2 2.1-.1.8-.7 1.1-1.7 1.1h-2.3c-1 0-1.5-.4-1.5-1.4V403c2.1-.8 4.3-1.8 6.5-2.9l-.6-.9c-1.8 1.1-3.8 2-5.9 2.8v-3.4h-1v6.5c-.1 1.5.7 2.2 2.3 2.2zm-56.1 29v-1.1h-8.1v-5.9h-1.2v16.2h-7.8v1.1h18.6v-1.1h-9.7v-9.2h8.2zm20.8-5.3l-.2-1c-4.8.3-10.5.5-16.9.6.1.2.1.6.2 1 1.7 0 4.2-.1 7.8-.2v3.9h-6.9v10.3h1.1v-9.3h5.8v11.5h1.1v-11.5h6v6.6c0 1-.5 1.5-1.7 1.5h-2.1c.1.3.2.7.2 1.1h2.3c1.7 0 2.5-.8 2.4-2.4v-7.7h-7.1v-3.9c3.4-.2 6.1-.4 8-.5zm3.7 12.9h1.1v-1.2h6.1v5.2h1.1v-5.2h6.1v1.2h1.1V432h-7.2v-3h-1.1v3h-7.2v11.9zm8.3-10.9h6.1v3.9h-6.1V433zm0 4.8h6.1v3.9h-6.1v-3.9zM209 433h6.1v3.9H209V433zm0 4.8h6.1v3.9H209v-3.9zm33.2 8.5c-.2.2-.6.3-1.1.3h-1.4c-.4 0-.8 0-1.2-.1.1.3.2.6.3 1v.1h2.6c1.5 0 2.3-.7 2.2-2.1v-7.3h-10.7v9.6h1v-3.5h8.7v1.2c0 .3-.1.6-.4.8zm-8.3-7.3h8.7v1.7h-8.7V439zm0 4.4v-1.7h8.7v1.7h-8.7zm-7.7-6.7h2.4v8.3c0 .5-.1.9-.5 1.2l.7.8c.3-.2.5-.5.8-.6.6-.4 1.4-1 2.5-1.6-.1-.4-.1-.8-.2-1.1-.5.4-1.2.9-2.2 1.5v-9.4h-3.4v.9zm1.9-7.1l-.8.7c.9.9 1.8 1.8 2.7 2.8l.9-.7c-.8-.9-1.7-1.8-2.8-2.8zm17 6.2h-6.4v-1.7h5.5v-.9h-5.5v-1.7h6.1v-.9h-6.1v-1.7h-1v1.7H232v.9h5.7v1.7h-5.3v.9h5.3v1.7h-6.3v.9h13.7v-.9zm-60 89.7h-5.5V516h4.8v-1h-4.8v-5.8h-1.1v5.8h-4.6v1h4.6v9.6h-5.7v1h12.3v-1.1zm-18.5-3.2c1.3-1.7 2.2-3.7 2.8-6.1v11.5h1.1v-10.2c.6.6 1.5 1.6 2.5 2.8l.8-.7c-.8-.8-1.7-1.8-2.7-2.8l-.7.6V514h3v-1h-3v-3.9h-1.1v3.9h-3v1h2.9c-.7 2.9-1.8 5.3-3.4 7.3.4.3.6.7.8 1zm37.4.3c-.1.9-.2 1.6-.3 2.1-.2 1.1-.9 1.6-2.1 1.6h-5.4c-1.2 0-1.8-.5-1.7-1.5v-3.9h9.1V515H200l2.2-3v-1h-5.3c.2-.3.5-.8.8-1.4.1-.2.2-.3.2-.4l-1.1-.2c-1.3 2.5-2.8 4.7-4.5 6.5l.6.9c.3-.3.5-.6.6-.7v9.4c0 1.5.8 2.3 2.5 2.3h5.9c1.6 0 2.6-.7 2.9-2.2.1-.5.2-1.2.3-2.2-.4-.2-.7-.3-1.1-.4zm-5.8-2.7h-3.5V516h3.5v3.9zm4.5-4v3.9h-3.6v-3.9h3.6zm-8.7-.9c.7-.9 1.5-1.9 2.2-3.1h4.7l-2.2 3.1H194zm-7.7 11.2c2.2-.4 4.2-.8 6-1 0-.4 0-.7.1-1-2.1.4-4.2.7-6.3 1l.2 1zm.2-9.6c.8-.1 1.9-.1 3.4-.1-.7 1.1-1.4 2.1-2 2.9-.5.6-1 1.1-1.4 1.4l.4 1c1-.1 2.7-.3 5.2-.5v-.2c0-.3.1-.6.1-.7-1 .1-2.4.2-4.1.3 1.5-1.9 3-4.1 4.7-6.7l-1-.5c-.5.9-1 1.6-1.3 2.1-.6 0-1.3 0-2.2.1h-.8c1.3-1.9 2.7-3.9 4-6.2l-1.1-.4c-.8 1.7-1.8 3.4-2.9 5.1-.4.6-.8 1.1-1.2 1.4l.2 1zm29.6-4.4c0-.5.1-1.2.1-2.1v-.9H215c0 1.2 0 2.1-.1 2.8 0 .7-.1 1.4-.2 2.1-.7 5.5-3.5 9.7-8.5 12.6.2.2.5.5.8.9 5-2.9 7.8-7.1 8.5-12.7.6 5.7 3.5 9.9 8.5 12.5.3-.4.5-.7.8-1-4.9-2.3-7.9-7-8.7-14.2zm12.4-2.1c1 .9 2 1.9 2.8 2.8l.9-.8c-1.1-1.1-2.1-2-2.9-2.7l-.8.7zm-1.9 16.8l.9.9c4.8-3 7.5-7.2 7.9-12.7h7.4c0 3-.2 5.8-.3 8.2-.1 1.1-.3 1.8-.7 2.1-.4.4-1 .6-2.1.6-1.7 0-2.9 0-3.6-.1.1.4.2.8.3 1.3h3.5c2.4.1 3.6-1.2 3.7-3.9.2-3.1.3-6.2.3-9.3h-8.3c.2-1.4.3-3.1.3-5.2h-1.1c0 2-.1 3.7-.3 5.2H227v1.1h7.3c-.3 5-2.9 8.9-7.7 11.8zm10.5-8.6l-.8.6c1.3 1.3 2.3 2.4 3 3.3l.9-.8c-.9-1-1.9-2-3.1-3.1zm19.1-6.8h7.3v-1.1h-15.8v1.1h7.3v6.1h-8.9v1.1h8.9v9.2h1.2v-9.2h8.9v-1.1h-8.9v-6.1zm17-1.5h-6.7v.9h5.6l-2.5 3c-.5-.5-1-1-1.5-1.4l-.7.6c1.2 1.1 2.2 2.2 3 3.1h-4.3v1h3.2v8.3c0 .8-.4 1.1-1.2 1.1-.6 0-1.2 0-1.6-.1.1.3.1.6.2 1.1h1.8c1.3 0 1.9-.7 1.9-2.1v-8.4h2.5l-1 3.1c.4.1.7.1 1 .3l1-3.3v-1h-3.3l.7-.6-.3-.3-.6-.6 3-3.5V510zm7 8.9v-2.7h-1v2.6c0 2.1-.4 3.7-1.2 4.7-.8 1.1-2.4 2.2-4.9 3.4.3.3.5.6.7.9 3.1-1.6 4.9-3.2 5.6-4.7 1.5 1.3 3.2 2.8 4.9 4.4l.8-.9c-1.4-1.2-3.2-2.7-5.3-4.5.2-.8.4-1.9.4-3.2zm4.9-8v-1h-10.6v1h4.5l-.5 3.1h-3.3v9.2h1V515h7v8.2h1v-9.1h-4.8l.6-3.1h5.1zM184.5 558c-2.1-1.4-4.1-2.7-5.9-3.9l-.7.8c2.1 1.4 4.1 2.8 5.8 4.1l.8-1zm-18-5.1h18.2v-1h-8.9l.9-.5c-.4-.8-.9-1.6-1.4-2.5l-1 .5c.6.9 1 1.7 1.4 2.5h-9.1v1zm.5 14.9c4.1-1.2 7-2.5 8.6-3.9 1.7 1.4 4.6 2.7 8.5 3.7.2-.5.4-.9.6-1.1-3.7-.8-6.5-2-8.3-3.4 1.3-1.2 2.4-3 3.5-5.2l-1-.4c-1 2.2-2.1 3.9-3.3 5-1.3-1.2-2.4-2.8-3.4-4.8l-1 .5c1.1 2.2 2.3 3.9 3.5 5-1.6 1.3-4.4 2.5-8.4 3.5l.7 1.1zm5.5-13.7c-1.8 1.7-3.8 3.1-5.8 4.3.3.4.5.7.7 1 2.2-1.5 4.1-2.9 5.9-4.4l-.8-.9zm18.7 4.9c.4-.4.8-.9 1.2-1.5l-1-.4c-1.3 1.8-2.9 3.4-5 4.6.3.3.5.6.7.8 1.3-.8 2.4-1.6 3.3-2.6h3.6c-1.1 2.4-3.7 4.3-7.7 5.8.3.3.5.6.7.9 4.2-1.6 6.9-3.8 8.1-6.7h3.3c-.6 2.9-2.8 5.3-6.5 7 .2.2.5.5.7.9 3.9-1.8 6.2-4.5 6.9-7.8h3.2c0 .9-.1 2.1-.2 3.5 0 2-.9 2.9-2.5 2.9h-.3c-.8 0-1.7 0-2.5-.1.1.4.2.8.2 1.1h2.3c2.5.1 3.8-1.2 3.8-3.9.1-1.6.2-3.1.2-4.5h-12.5zm-2.4-2.1h13.9v-7.1h-13.9v7.1zm1.1-6.2h11.9v2.1h-11.9v-2.1zm0 3.1h11.9v2.2h-11.9v-2.2zm24.9 12.2c-.2.2-.7.3-1.3.3h-2.9v.2c.1.4.2.7.2 1h2.9c1.8 0 2.6-.8 2.6-2.4v-3.7h8.8v-1h-8.8v-4.1h7.1v-1h-7.1v-4c2.4-.1 4.7-.2 7-.3l-.2-1c-4.7.3-9.9.5-15.6.6.1.4.2.8.2 1 2.2 0 4.7-.1 7.6-.2v4h-7.5v1h7.5v4.1h-8.9v1h8.9v3.5c-.2.4-.3.8-.5 1zm11.6-9.6c.7-.1 1.8-.2 3.2-.2-.7 1.1-1.4 2.1-2.1 3.2-.4.5-.7.9-1.1 1.1l.4 1c.7-.1 2.4-.3 5.1-.5 0-.4.1-.7.1-1-1.6.1-3 .3-4 .3 1.5-2.2 3.1-4.5 4.6-7.1l-1-.4c-.5.8-.9 1.6-1.4 2.4-.8 0-1.7.1-2.8.1 1.2-1.7 2.4-3.7 3.7-6.1l-1.1-.4c-.9 2-2 3.8-3.1 5.5-.2.4-.5.7-.9.9l.4 1.2zm-.2 8.5l.2 1c.1 0 .3 0 .6-.1 2.3-.4 4-.6 5.1-.8v-.5-.5c-2 .3-4 .6-5.9.9zm18.8-2.2v-.9h-5.2c.2-1.2.4-3 .4-5.3h-1c0 2.5-.1 4.2-.4 5.3h-6v.9h5.7c-.6 1.7-2.8 3-6.6 4.2.2.3.4.6.6 1 3.2-1.1 5.3-2.3 6.3-3.6 1.9 1.1 3.6 2.3 5.4 3.4l.7-.9c-1.8-1.1-3.6-2.2-5.6-3.3.1-.2.2-.4.3-.7h5.4zm-12-3.6c.9.5 1.9 1 2.9 1.7l.5-.8c-1.2-.7-2.1-1.2-2.9-1.6l-.5.7zm4.8-1.3c-1-.6-1.9-1.1-2.8-1.5l-.5.7c.9.5 1.8 1 2.8 1.6l.5-.8zm6.2-5.6v-.9h-4.7V549h-1v2.3h-4.6v.9h4.6v2.4h-5.4v.9h10.9l-.6 2.3c.4 0 .7.1 1 .1l.6-2.4v-1h-5.5v-2.4h4.7zm11.6 12.3c2.2.8 4.9 1.9 8.1 3.2l.5-1c-2.4-.9-5.1-1.9-8.2-3 .2-.6.4-1.2.4-2h-1.1c-.1 1.6-.7 2.7-1.8 3.3-1.1.7-3.2 1.3-6.3 1.8.2.3.4.7.5 1 4.5-.7 7.1-1.8 7.9-3.3zm-9.4-3.9c.2.3.4.6.6 1 1.1-.3 2.1-.7 2.9-1.1v4.3h1v-4.2h10.1v3.9h1v-4.8h-10.6c1.1-.6 1.8-1.5 2.1-2.5h4.5v1.8h1v-1.8h4.6v.6c0 .5-.3.8-.9.7h-1.8c.1.3.2.6.2.9h1.8c1 0 1.5-.5 1.6-1.4 0-.5.1-1 .1-1.6h-5.6v-2h4.7v-3.7h-4.7V549h-1v1.6H254v-.8-.8h-1V550.7h-5.6v.9h5.5c0 .9-.1 1.5-.1 1.9h-4.6l-.6 3.7h4.4c-.3 1.4-2.3 2.5-5.8 3.4zm12.7-9.1h3.7v1.9h-3.7v-1.9zm-4.9 1.1v-1.1h3.8v1.9h-3.9c.1-.1.1-.4.1-.8zm-.1 1.7h4v2h-4.2c.1-.5.2-1.2.2-2zm-5 2l.3-2h3.7c0 .7-.1 1.4-.3 2h-3.7zm-76.4 37.8c-1.8 1.7-3.8 3.1-5.8 4.3.3.4.5.7.7 1 2.2-1.5 4.1-2.9 5.9-4.4l-.8-.9zm-5.5 13.7c4.1-1.2 7-2.5 8.6-3.9 1.7 1.4 4.6 2.7 8.5 3.7.2-.5.4-.9.6-1.1-3.7-.8-6.5-2-8.3-3.4 1.3-1.2 2.4-3 3.5-5.2l-1-.4c-1 2.2-2.1 3.9-3.3 5-1.3-1.2-2.4-2.8-3.4-4.8l-1 .5c1.1 2.2 2.3 3.9 3.5 5-1.6 1.3-4.4 2.5-8.4 3.5l.7 1.1zm17.5-9.8c-2.1-1.4-4.1-2.7-5.9-3.9l-.7.8c2.1 1.4 4.1 2.8 5.8 4.1l.8-1zm.3-6.1h-8.9l.9-.5c-.4-.8-.9-1.6-1.4-2.5l-1 .5c.6.9 1 1.7 1.4 2.5h-9.1v1h18.2v-1zm15.1 14.6h-.3c-.8 0-1.7 0-2.5-.1.1.4.2.8.2 1.1h2.3c2.5.1 3.8-1.2 3.8-3.9.1-1.6.2-3.1.2-4.5h-12.5c.4-.4.8-.9 1.2-1.5l-1-.4c-1.3 1.8-2.9 3.4-5 4.6.3.3.5.6.7.8 1.3-.8 2.4-1.6 3.3-2.6h3.6c-1.1 2.4-3.7 4.3-7.7 5.8.3.3.5.6.7.9 4.2-1.6 6.9-3.8 8.1-6.7h3.3c-.6 2.9-2.8 5.3-6.5 7 .2.2.5.5.7.9 3.9-1.8 6.2-4.5 6.9-7.8h3.2c0 .9-.1 2.1-.2 3.5 0 1.9-.8 2.9-2.5 2.9zm2.9-16.7h-13.9v7.1h13.9v-7.1zm-1.1 6.2h-11.9v-2.2h11.9v2.2zm0-3.1h-11.9v-2.1h11.9v2.1zm6.7 2v9.3h1.1v-1.6h7.1v-7.7h-8.2zm7 6.7h-6v-5.7h6v5.7zm1.9 5.8h2c1.8 0 2.6-.8 2.5-2.4v-13.4h3.3v-1h-18.8v1h14.5v13.1c0 .7-.1 1.1-.4 1.4-.2.2-.7.4-1.4.4h-3c.1.4.1.7.2 1.1h1.1zm27-13v-3.2h-8.6l.9-.4c-.3-.6-.7-1.3-1.2-2l-1 .4c.4.8.8 1.4 1.1 2h-8.7v3.2h1v-2.3h15.4v2.3h1.1zm-1.7 10.1v-9.2h-6.4v-2.1h-1.1v2.1h-6.4v9.2h1v-.9h5.4v4.3h1.1v-4.3h5.4v.9h1zm-7.5-1.9h-5.4v-2.8h5.4v2.8zm0-3.6h-5.4v-2.7h5.4v2.7zm1-2.8h5.4v2.7h-5.4v-2.7zm0 6.4v-2.8h5.4v2.8h-5.4zm10.1-6h2.8v8.3c0 .4 0 .7-.1.9-.1.2-.2.5-.5.7l.8.8c.3-.3.6-.6.9-.8 1.4-1 2.8-1.9 4-2.6-.1-.3-.3-.7-.4-1.1-1.1.8-2.3 1.6-3.7 2.5v-9.7h-3.8v1zm4.8-3.4l.9-.8c-1-1-2.1-2-3.2-3.1l-.8.7c.8.8 1.9 1.9 3.1 3.2zm8.3-4.2h-1.1v6.7h-5.8v1h5.8v11h1.1v-11h5.8v-1h-5.8V589zm-88.8 58.7v-10.2c.6.6 1.5 1.6 2.5 2.8l.8-.7c-.8-.8-1.7-1.8-2.7-2.8l-.7.6V634h3v-1h-3v-3.9h-1.1v3.9h-3v1h2.9c-.7 2.9-1.8 5.3-3.4 7.3.3.4.5.7.6 1.1 1.3-1.7 2.2-3.7 2.8-6.1v11.5h1.3zm14.6-2.2h-5.5V636h4.8v-1h-4.8v-5.8h-1.1v5.8h-4.6v1h4.6v9.6h-5.7v1h12.3v-1.1zm6.7-12.1c-.5.9-1 1.6-1.3 2.1-.6 0-1.3 0-2.2.1h-.8c1.3-1.9 2.7-3.9 4-6.2l-1.1-.4c-.8 1.7-1.8 3.4-2.9 5.1-.4.6-.8 1.1-1.2 1.4l.3 1c.8-.1 1.9-.1 3.4-.1-.7 1.1-1.4 2.1-2 2.9-.5.6-1 1.1-1.4 1.4l.4 1c1-.1 2.7-.3 5.2-.5v-.2c0-.3.1-.6.1-.7-1 .1-2.4.2-4.1.3 1.5-1.9 3-4.1 4.7-6.7l-1.1-.5zm-5.5 12.8c2.2-.4 4.2-.8 6-1 0-.4 0-.7.1-1-2.1.4-4.2.7-6.3 1l.2 1zm18.8-3.3c-.4-.1-.7-.2-1-.3-.1.9-.2 1.6-.3 2.1-.2 1.1-.9 1.6-2.1 1.6h-5.4c-1.2 0-1.8-.5-1.7-1.5v-3.9h9.1V635H200l2.2-3v-1h-5.3c.2-.3.5-.8.8-1.4.1-.2.2-.3.2-.4l-1.1-.2c-1.3 2.5-2.8 4.7-4.5 6.5l.6.9c.3-.3.5-.6.6-.7v9.4c0 1.5.8 2.3 2.5 2.3h5.9c1.6 0 2.6-.7 2.9-2.2.1-.7.2-1.4.3-2.3zm-6.9-3h-3.5V636h3.5v3.9zm4.5-4v3.9h-3.6v-3.9h3.6zm-8.7-.9c.7-.9 1.5-1.9 2.2-3.1h4.7l-2.2 3.1H194zm25.6 6.8c-.8 0-1.7 0-2.5-.1.1.3.2.7.2 1.1h2.4c1.8 0 2.7-.7 2.7-2.3.1-1.2.1-2.6.1-4.2H214v8.4c0 1 .2 1.6.6 2 .4.4 1.1.5 2.1.5h4.8c1.6 0 2.5-.7 2.8-2.1.1-.8.3-1.7.4-2.7-.4-.1-.7-.2-1.1-.3-.1 1-.2 1.9-.3 2.6-.2 1-.8 1.5-2 1.4H217c-.8 0-1.3-.1-1.6-.3-.3-.2-.4-.7-.4-1.3v-7.3h6.4c0 1.1 0 2.1-.1 3.1.1 1.1-.5 1.5-1.7 1.5zm-.6-12.1c0-.1.1-.2.2-.3.1-.2.2-.4.3-.5l-1.1-.2c-1.5 2.9-3.6 5.2-6.4 6.9.2.2.5.5.8.9 2.5-1.8 4.5-3.8 5.8-6 1.5 2.3 3.5 4.2 5.9 5.7.2-.3.5-.7.7-1-2.5-1.1-4.5-3-6.2-5.5zm-11.2 16.8c-.5 0-1 0-1.5-.1.1.3.2.7.2 1.1h1.5c1.3 0 1.9-.6 1.8-1.9v-6c.2-.1.6-.1 1-.2.6-.2 1.1-.3 1.4-.3v-1c-.3.1-.7.2-1.2.3-.5.1-.9.2-1.2.3v-4.8h2.3v-.9H210v-4h-1v3.9h-2.5v.9h2.5v5c-.4.1-1 .2-1.8.4-.5.1-.8.2-1 .2l.2 1.1c.3-.1.7-.2 1.3-.3.6-.1 1-.3 1.3-.3v5.7c0 .6-.4.9-1.2.9zm36.4-4.1c-.1 1-.2 1.8-.3 2.6-.2.8-.7 1.2-1.7 1.2H240c-1 0-1.5-.4-1.4-1.4V639h6.3v-1h-8.1v-4.2h7v-1h-7V629h-1.1v3.8h-4.9c.4-.8.8-1.8 1.3-3l-1.1-.3c-.9 2.5-2 4.7-3.5 6.5.2.1.6.3.9.6.7-1 1.3-1.9 1.8-2.9h5.4v4.2h-9.1v1h5.6v.5c0 3.7-2 6.1-5.9 7.2.2.2.4.6.6 1 4.2-1.4 6.3-4.2 6.3-8.3v-.5h4.3v6c0 1.5.7 2.3 2.3 2.2h2.6c1.4 0 2.3-.7 2.5-1.9.1-.5.2-1.3.4-2.6-.3.2-.6.1-1-.1zm2.8 5.4c4.1-1.2 7-2.5 8.6-3.9 1.7 1.4 4.6 2.7 8.5 3.7.2-.5.4-.9.6-1.1-3.7-.8-6.5-2-8.3-3.4 1.3-1.2 2.4-3 3.5-5.2l-1-.4c-1 2.2-2.1 3.9-3.3 5-1.3-1.2-2.4-2.8-3.4-4.8l-1 .5c1.1 2.2 2.3 3.9 3.5 5-1.6 1.3-4.4 2.5-8.4 3.5l.7 1.1zm-.5-14.9h18.2v-1h-8.9l.9-.5c-.4-.8-.9-1.6-1.4-2.5l-1 .5c.6.9 1 1.7 1.4 2.5h-9.1v1zm6 1.2c-1.8 1.7-3.8 3.1-5.8 4.3.3.4.5.7.7 1 2.2-1.5 4.1-2.9 5.9-4.4l-.8-.9zm12 3.9c-2.1-1.4-4.1-2.7-5.9-3.9l-.7.8c2.1 1.4 4.1 2.8 5.8 4.1l.8-1zm4.3-1.1h13.9v-7.1h-13.9v7.1zm1.1-6.2h11.9v2.1h-11.9v-2.1zm0 3.1h11.9v2.2h-11.9v-2.2zm13.6 9.7c.1-1.6.2-3.1.2-4.5h-12.5c.4-.4.8-.9 1.2-1.5l-1-.4c-1.3 1.8-2.9 3.4-5 4.6.3.3.5.6.7.8 1.3-.8 2.4-1.6 3.3-2.6h3.6c-1.1 2.4-3.7 4.3-7.7 5.8.3.3.5.6.7.9 4.2-1.6 6.9-3.8 8.1-6.7h3.3c-.6 2.9-2.8 5.3-6.5 7 .2.2.5.5.7.9 3.9-1.8 6.2-4.5 6.9-7.8h3.2c0 .9-.1 2.1-.2 3.5 0 2-.9 2.9-2.5 2.9h-.3c-.8 0-1.7 0-2.5-.1.1.4.2.8.2 1.1h2.3c2.4.2 3.7-1.2 3.8-3.9zM180 710l-.7.7c1.3 1.1 2.4 2.1 3.3 2.9l.8-.8c-1.2-1-2.3-2-3.4-2.8zm-11.1 5.7v12.1h1.1v-14.2c.6-1.3 1.2-2.7 1.8-4.2l-1.1-.3c-1.2 3.5-2.8 6.5-4.8 9.1.2.4.4.8.5 1.2.9-1.2 1.8-2.4 2.5-3.7zm2.9 1.1l4.5-.5c.3 3.5.9 6.2 1.9 8.2 1 2.1 2.3 3.2 3.9 3.2 1.2 0 2-.7 2.4-2.2.2-.8.4-1.6.5-2.4-.3-.1-.7-.2-1-.4-.2 1-.3 1.8-.5 2.5-.2.9-.7 1.4-1.4 1.4-1.1 0-2-.9-2.9-2.6-1-1.9-1.6-4.5-1.8-7.8l7.3-.8-.1-1-7.3.8c-.1-1.6-.2-3.7-.2-6.1H176c0 2.5.1 4.5.2 6.2l-4.6.5.2 1zm27.8 10.6H201.3c1.8 0 2.8-.9 2.8-2.6.1-1.9.2-4.1.3-6.7h-2.1l.8-7.9h-8.4v1h7.3l-.7 6.9h-5l.5-5.7h-1l-.6 6.7h8.2c-.1 2-.1 3.8-.3 5.6-.1 1.2-.7 1.8-1.9 1.8-1 0-1.9 0-2.6-.1.1.4.2.7.3 1.1h.7zm2.2-5.4H194v1h7.8v-1zm-8.1-10.3v-1h-7v1h3.1c-.7 2.7-1.9 5.2-3.6 7.6l.6.9c.6-.9 1.1-1.6 1.3-2v8.8h1v-1.6h2.9v1.4h1v-10.2h-4c.7-1.4 1.3-3 1.8-4.9h2.9zm-4.6 5.8h2.9v7h-2.9v-7zm31.2-6h4v-1.1h-17.1v1.1h4.2v6.1h-5.1v1.1h5.1c0 2.2-.3 3.8-1 4.9-.6 1.1-1.9 2.2-3.8 3.2.3.3.6.7.8 1 3.4-1.7 5.1-4.5 5.1-8.4v-.7h6.6v9h1.1v-9h4.8v-1.1h-4.8v-6.1zm-1.1 6.1h-6.6v-6.1h6.6v6.1zm7.4 9.6l1.1.4c.6-2.7 1.2-5.1 1.8-7.3-.4-.1-.7-.3-1-.4-.7 2.8-1.3 5.2-1.9 7.3zm9.4-4.6c-.9 1.4-1.9 2.7-3 3.8.2.2.5.4.8.7 1.1-1.3 2.2-2.6 3-3.9l-.8-.6zm5.3.5c1.2 1.4 2.3 2.7 3.1 3.7l.9-.7c-.8-1-1.9-2.3-3.2-3.7l-.8.7zm3.8-11.8v-1H232v6.5c0 2.6-.2 4.7-.5 6.1-.3 1.5-1 2.8-2 4.2.4.2.7.5.9.7 1.9-2.6 2.8-6.2 2.6-10.9v-5.5h5.6l-.7 2.6H235v7.2h3.9v4.4c0 .7-.3 1.1-1 1.1-.6 0-1.2 0-1.8-.1.1.4.2.7.3 1h1.7c1.3 0 1.9-.7 1.8-2v-4.5h3.8v-7.2h-4.8l.8-2.6h5.4zm-2.5 8.9h-6.7V718h6.7v2.2zm0-5.4v2.2h-6.7v-2.2h6.7zm-16.4.4c1.1.8 2.1 1.6 3.1 2.5l.8-.9c-1-.8-2.1-1.6-3.1-2.4l-.8.8zm1.5-5.8l-.7.7c.9.8 1.9 1.6 2.9 2.6l.8-.8c-1-.9-2-1.7-3-2.5zm-47.4 42.1h4v-1.1h-17.1v1.1h4.2v6.1h-5.1v1.1h5.1c0 2.2-.3 3.8-1 4.9-.6 1.1-1.9 2.2-3.8 3.2.3.3.6.7.8 1 3.4-1.7 5.1-4.5 5.1-8.4v-.7h6.6v9h1.1v-9h4.8v-1.1h-4.8v-6.1zm-1.1 6.1h-6.6v-6.1h6.6v6.1zm21.3 5.4c1.5-2.1 2.5-5.2 2.9-9.3h1.7v-1h-7c.5-1.3.9-2.5 1.3-3.6l-1.1-.2c-.8 3.2-2.1 5.9-3.8 8.2.2.2.4.4.8.9.6-.9 1.1-1.7 1.4-2.4.3 3.1 1.1 5.5 2.4 7.4-1.1 1.3-2.8 2.6-5.1 4 .2.3.5.6.8 1 2.2-1.3 3.9-2.7 5-4 1.1 1.3 2.6 2.5 4.6 3.8.2-.3.4-.7.7-1-2-1.3-3.6-2.5-4.6-3.8zm-3.1-9c.1-.1.1-.2.1-.2v-.1h4.7c-.3 3.7-1.2 6.5-2.5 8.3-1.1-1.9-1.9-4.5-2.3-8zm-7.4-4.8c.4 1 .7 2 1.1 3.2l1.1-.3c-.3-1-.7-2.1-1.1-3.2l-1.1.3zm-.4 9h3.5c0 2-.1 4.1-.2 6.3 0 .6-.2 1-.4 1.3-.2.2-.7.3-1.3.3-.5 0-1 0-1.5-.1.1.5.2.8.2 1.1h1.5c1.8 0 2.7-.8 2.6-2.7.1-2.9.2-5.3.3-7.2h-4.5c.1-1.5.1-2.7.1-3.7h5.5v-1h-9v1h2.4c0 1.6-.1 2.9-.1 4.1-.1 4.4-.9 7.5-2.5 9.4.4.3.7.6.9.7 1.4-1.9 2.3-5.1 2.5-9.5zm22.1-9.2v2.6h-5.4v1h5.4v2.2h1.1v-2.2h5.8v2.2h1.1v-2.2h5.4v-1h-5.4V749h-1.1v2.6h-5.8V749h-1.1zm9.2 14.5c-.4.3-1 .5-1.9.5-.9 0-1.7 0-2.6-.1.1.4.2.8.2 1.2h2.5c2.3.1 3.5-1.1 3.5-3.4.1-1.5.2-3.2.3-5.1h-15.7v1h5v10.3h1.1v-10.3h8.4c0 1.7-.1 3.1-.2 4.2 0 .8-.3 1.4-.6 1.7zm16.6-.5l-1 .3c.4.8.9 2 1.5 3.6 0 .1 0 .1.1.2l1-.4c-.7-1.8-1.3-3-1.6-3.7zm4 .5c1 1.6 1.7 2.9 2.2 3.8l1-.5c-.8-1.4-1.6-2.6-2.2-3.7l-1 .4zm3.2-11.1v-1h-8.8v-2.5h-1.1v6.3h-6.2v6.3h14.2v-6.3h-7v-2.8h8.9zm-2.9 3.8v4.3h-12.1v-4.3h12.1zm-8.7 11.1l1.1-.3c-.5-1.5-1-2.8-1.4-3.8l-1 .3c.6 1.4 1 2.7 1.3 3.8zm-3.5-3.9l-1-.5c-.8 1.5-1.6 2.8-2.4 4l1 .6c.8-1.2 1.6-2.5 2.4-4.1zm23.8-5.4c1.5-1.1 2.9-2.1 4.1-3.2l-.8-.7c-1.3 1.1-2.6 2.1-4 3.1.3.2.5.5.7.8zm11.4-.9c-1.4-1.1-2.6-2.1-3.8-3l-.7.7c1.1.8 2.4 1.9 3.8 3.1l.7-.8zm-17 9.5c-.5 0-1 0-1.6-.1.1.4.2.7.2 1.1h1.6c1.3 0 2-.7 1.9-2.1v-5.9c.4-.1 1-.3 1.7-.5.2-.1.4-.1.5-.1-.1-.3-.1-.6-.1-1-.2.1-.5.2-1 .3-.5.1-.8.3-1.1.3v-4.5h2.1v-1h-2.1v-4h-1v4h-2.6v1h2.6v4.8c-1.2.4-2.2.6-2.8.8l.2 1.1c.9-.3 1.7-.5 2.6-.8v5.6c0 .6-.3 1-1.1 1zm11.4-14.8l.9-.5c-.4-.7-.9-1.4-1.5-2.4l-.9.5c.5.7 1 1.5 1.5 2.4zm4.4 3.1h1V752h-11.4v2.9h1v-2h9.4v2zm0 9.7c-.1 1.1-1 1.6-2.6 1.6h-4.8c-1.2 0-1.8-.4-1.8-1 0-.4.3-.8.8-1.3 1.1-1.1 3.4-2.8 6.9-5v-1.2h-7.5v1h6.1c-2.9 1.8-5 3.3-6.3 4.6-.7.7-1.1 1.4-1.1 2.1 0 1.2.9 1.8 2.5 1.9h5.6c1.8-.1 2.8-.8 3.1-2.3.1-.7.3-1.6.4-2.5-.4-.1-.7-.2-1-.3 0 .9-.1 1.8-.3 2.4zm9.4-8.4h-3.7c.5-1.2 1-2.7 1.5-4.4h3v-1h-7.1v1h3c-.7 3.1-1.9 5.7-3.6 7.7.2.2.4.5.6.9.6-.7 1-1.4 1.4-1.9v7.4h1v-1.2h3.9v-8.5zm-1 7.5h-2.9v-6.5h2.9v6.5zm3.2-6.7c0 2.8-.1 4.8-.5 6-.3 1.2-1 2.6-2.2 4 .3.2.6.4.9.7 1.2-1.5 1.9-3 2.2-4.3.4-1.4.6-3.5.5-6.4v-3.9h8.7v-1H275v4.9zm3.3-7.7c.6 1 1.1 1.9 1.5 2.7l1-.5c-.5-.8-1-1.7-1.5-2.6l-1 .4zm11.2 5l.8-.7c-.6-.7-1.6-1.6-2.9-2.9l-.8.6c1.2 1.2 2.2 2.2 2.9 3zm5.9-.7c1 .9 1.8 1.6 2.3 2.1l.8-.7c-1-.8-1.8-1.5-2.5-2l.2-.2c.2-.2.4-.4.4-.5h5.9c-1.6 2.9-4.6 4.8-9 5.9.2.3.4.6.6 1 4.7-1.1 7.9-3.4 9.6-6.8v-1h-6.3c.5-.6.9-1.3 1.3-2l-1.1-.3c-1.1 2-2.6 3.8-4.5 5.3.4.3.7.6.8.7.5-.4.9-.9 1.5-1.5zm.8 8.3h8.4v-1H296c.1-.4.1-.8.2-1.5h-1.1c0 .6-.1 1.1-.2 1.5h-8.4v1h8.2c-.5 2.3-3.4 4-8.5 5 .2.4.4.7.6 1 5.2-1.1 8.1-2.9 8.8-5.4 1.2 2.7 4.1 4.4 8.6 5.2.2-.4.4-.8.6-1-4.2-.7-7-2.2-8.4-4.8zm-5.1-6.2v4.1h1.1V749h-1.1v5.6c-1.5.7-3.2 1.5-5 2.3l.4 1.1c1.6-.9 3.2-1.6 4.6-2.3zm21 2.5c0-1 .1-2.1.1-3.3h4.1v-1h-6.9v1h1.7c0 3.7-.2 6.2-.5 7.6-.3 1.4-.9 2.9-2 4.5.3.2.6.4.8.7 1.6-2 2.5-4.9 2.6-8.5h2.7c0 1.8-.1 3.6-.2 5.3 0 .7-.2 1.1-.4 1.4-.2.2-.6.3-1.1.3H312c.1.3.1.6.2 1.1h1.2c.9 0 1.5-.2 1.8-.6.3-.4.5-1.1.6-2.2.1-2.4.2-4.5.2-6.2h-3.7zm4.5-8h-9.2v7.1c0 2.8-.1 4.8-.3 5.9-.2 1.1-.6 2.4-1.3 3.7.2.1.5.3.9.7.7-1.4 1.2-2.7 1.4-4.1.2-1.3.3-3.3.3-6.1v-6.2h8.1v-1zm3.5-1.2h-1.1v4.1h-1.6v1h1.6c0 .5 0 1.3-.1 2.2v.8c0 4.4-1 7.7-3.1 9.9.4.3.7.5.9.7 2.2-2.4 3.3-6 3.3-10.9v-.9-1.8h2.9c0 3.3-.1 6.7-.2 10.1 0 .8-.2 1.3-.4 1.6-.2.3-.6.4-1.2.4-.7 0-1.3 0-1.8-.1.1.4.2.8.2 1.1h1.7c.9 0 1.6-.3 1.9-.7.4-.4.6-1.3.6-2.5.1-4 .2-7.6.3-11h-4c.1-2 .1-3.3.1-4zm-135.8 49c-2.1-1.4-4.1-2.7-5.9-3.9l-.7.8c2.1 1.4 4.1 2.8 5.8 4.1l.8-1zm-7.7-6.6c-.4-.8-.9-1.6-1.4-2.5l-1 .5c.6.9 1 1.7 1.4 2.5h-9.1v1h18.2v-1H176l.8-.5zm-4.3 2.7c-1.8 1.7-3.8 3.1-5.8 4.3.3.4.5.7.7 1 2.2-1.5 4.1-2.9 5.9-4.4l-.8-.9zm7.4 3.8l-1-.4c-1 2.2-2.1 3.9-3.3 5-1.3-1.2-2.4-2.8-3.4-4.8l-1 .5c1.1 2.2 2.3 3.9 3.5 5-1.6 1.3-4.4 2.5-8.4 3.5l.6 1.1c4.1-1.2 7-2.5 8.6-3.9 1.7 1.4 4.6 2.7 8.5 3.7.2-.5.4-.9.6-1.1-3.7-.8-6.5-2-8.3-3.4 1.4-1.2 2.6-3 3.6-5.2zm12.4-.3l-1-.4c-1.3 1.8-2.9 3.4-5 4.6.3.3.5.6.7.8 1.3-.8 2.4-1.6 3.3-2.6h3.6c-1.1 2.4-3.7 4.3-7.7 5.8.3.3.5.6.7.9 4.2-1.6 6.9-3.8 8.1-6.7h3.3c-.6 2.9-2.8 5.3-6.5 7 .2.2.5.5.7.9 3.9-1.8 6.2-4.5 6.9-7.8h3.2c0 .9-.1 2.1-.2 3.5 0 2-.9 2.9-2.5 2.9h-.3c-.8 0-1.7 0-2.5-.1.1.4.2.8.2 1.1h2.3c2.5.1 3.8-1.2 3.8-3.9.1-1.6.2-3.1.2-4.5h-12.5c.5-.5.9-1 1.2-1.5zm-3.5-.7h13.9v-7.1h-13.9v7.1zm1.1-6.2h11.9v2.1h-11.9v-2.1zm0 3.1h11.9v2.2h-11.9v-2.2zm24.1 1h-5.1v-3.4c2.1-.1 4.1-.3 5.8-.6l-.4-1c-2.1.4-4.2.6-6.4.7v7.7c0 2.4-.1 4.2-.4 5.3-.2 1.1-.7 2.2-1.5 3.5.4.3.7.6.9.7 1.2-1.9 1.8-4.1 1.9-6.7h5.2v-6.2zm-1.1 5.2h-4.1v-.8-3.5h4.1v4.3zm4.3-8.5c2.8-.2 5.3-.4 7.5-.7l-.4-1c-2.4.4-5.2.7-8.2.8v5.9c0 2.8-.2 4.9-.6 6.3-.4 1.4-1.3 2.8-2.5 4.2.4.3.7.6.9.8 2.4-2.5 3.5-6 3.4-10.6h3.9v10.6h1v-10.6h3v-.9h-8v-4.8zm22.6 7.6h5.1v-1h-5.2c0-.6.1-1.2.1-1.8v-2.2h4.5v-1h-3.4c.8-1.2 1.5-2.4 2.3-3.6l-1-.5c-.6 1.2-1.4 2.6-2.4 4.1h-5v1h4v2.3c0 .6 0 1.2-.1 1.7H234v1h4.5c-.3 3.2-2 5.8-5.1 7.8.3.3.5.6.8.9 2.9-2 4.6-4.5 5.1-7.5.6 3 2.3 5.4 5 7.3.1-.2.3-.4.6-.7l.2-.2c-2.8-1.6-4.5-4.1-5.3-7.6zm-5.2 4.2v-1c-.2 0-.6.1-1 .2-.3.1-.6.1-.8.1v-11.4h1.2v-.9h-7.8v.9h1.3v12.3c-.5.1-1 .1-1.4.2l.2 1c2.2-.4 4-.8 5.5-1v4h1v-4.2c.1 0 .4-.1.7-.1.5 0 .9 0 1.1-.1zm-2.8-.4c-.6.1-1.4.2-2.4.4-.4.1-.6.1-.8.1v-3.7h3.2v3.2zm0-4.1h-3.2v-3.3h3.2v3.3zm0-4.2h-3.2v-3.3h3.2v3.3zm3.6-4.9c.8 1.2 1.5 2.2 2 3l1-.5c-.8-1.3-1.5-2.3-2.1-3l-.9.5zm27.6 11.2h-14.7v5.2h-1.9v.9h18.5v-.9H263v-5.2zm-10.2 5.2h-3.6v-4.3h3.6v4.3zm4.6 0h-3.5v-4.3h3.5v4.3zm4.6 0h-3.6v-4.3h3.6v4.3zm-14.4-7.3h6.1V790h-6.1v8.8zm1-7.9h4.1v3h-4.1v-3zm0 3.9h4.1v3.1h-4.1v-3.1zm12.6 3.9h-2.5c.1.3.2.7.2 1h2.5c1.5 0 2.2-.6 2.2-1.9v-7.9h-7.4v3.5c0 1.7-.1 2.9-.5 3.7-.3.8-.9 1.6-1.9 2.4.2.1.5.4.8.7 1.2-1.1 1.9-2.2 2.2-3.4h5.7v.8c.2.8-.3 1.2-1.3 1.1zm-4-7.9h5.4v2.1h-5.4v-2.1zm-.1 5.1c.1-.5.1-1.3.1-2.2h5.4v2.2h-5.5zM16.4 712.4h3.1v-2.5H2.1v2.5h3.5v4.8H1v2.5h4.4c-.1 1.8-.6 3.2-1.4 4.1-.8.9-1.8 1.7-3 2.3.9.7 1.7 1.4 2.5 2 1.6-.9 2.7-1.9 3.5-3.1.8-1.2 1.2-3 1.3-5.3h5.2v8h2.8v-8h4v-2.5h-4v-4.8zm-2.9 4.8H8.4v-4.8h5.2v4.8zm25.7-2.9h1.1v-2.6h-5.7c.2-.7.5-1.5.7-2.4l-2.7-.7c-.7 3.3-1.7 5.9-3.1 7.9h-4.3v-2.1h5v-2.6h-3.7l1.1-.4c-.6-1.2-1-2.1-1.5-2.8l-2.5 1c.3.6.7 1.4 1.1 2.3h-3.8v2.6h1.7v4c0 1.3-.2 2.5-.5 3.7-.3 1.2-.8 2.2-1.4 3.2.7 1.2 1.2 2.2 1.5 2.8.7-.9 1.3-1.9 1.7-3.1.2.7.4 1.6.6 2.7 1.2 0 2 0 2.6-.1.6-.1 1-.3 1.3-.6.3-.3.5-.7.6-1.2.1-.5.2-1.6.3-3.2l.2-5.3c.5.6.9 1.1 1.3 1.6.2-.2.4-.5.6-.8.3 1.8.9 3.4 1.8 4.9-1.1 1.1-2.5 2-3.9 2.7.5.8 1 1.6 1.5 2.6 1.6-.8 2.9-1.8 4.1-3 1 1.1 2.2 2.1 3.6 2.9.6-1 1.2-1.9 1.7-2.6-1.5-.6-2.7-1.4-3.7-2.4 1.5-2.7 2.4-5.6 2.7-9zm-12.3 9.3c0 .9-.4 1.4-1.1 1.4-.5 0-1.1 0-1.7-.1.7-1.7 1-3.8 1.1-6.1h1.9l-.2 4.8zm8.1-2.9c-.9-1.6-1.4-3.5-1.6-5.8l.3-.6h3c-.3 2.7-.9 4.8-1.7 6.4zm20.7.4h4v-2.5h-4V715h4.1v-2.5h-4.1v-3.8H53v3.8h-1.9c.1-.8.3-1.6.4-2.4l-2.4-.2c-.4 2.6-1 5-1.8 7.1.8.4 1.5.8 2.3 1.3.3-1 .7-2 .9-3.2H53v3.5h-4.4v2.5H53v3.6h-5.4v2.5h12.7v-2.5h-4.6v-3.6zm-7.3-8.7c-.8-.4-1.5-.7-2.2-1v-2.7h-2.6V728h2.6v-14.2l1.2.8 1-2.2zm-7.4 5.7c.5.1 1 .2 1.6.4.2-1.7.4-3.7.6-5.8l-1.7-.2c-.1 1.7-.3 3.6-.5 5.6zM12.2 516.5l-2.9-1.3c-.8 1.5-1.9 3.3-3.3 5.4-1.5 2.1-2.6 3.5-3.5 4l1.2 2.6c.7-.2 1.4-.3 2-.4l10.2-.5c.4.6.7 1.1 1 1.7l2.6-1.8c-1.6-2.4-3.5-4.9-5.5-7.4l-2.3 1.5c.9 1.2 1.7 2.3 2.5 3.4-2.4.1-4.8.2-7.4.2 1.4-1.5 3.2-4 5.4-7.4zm-3.1-6.1l-2.7-1.1c-1.3 2.9-3.1 5.3-5.4 7.4.9.9 1.5 1.7 2 2.3 2.7-2.5 4.7-5.4 6.1-8.6zm5.6-1.4l-2.6 1.2c1.7 3.5 3.7 6.4 6 8.5.5-.6 1.3-1.4 2.2-2.3-2.2-1.9-4.1-4.4-5.6-7.4zm18.3 8.3l2 1.6c1.5-1.6 3-3.2 4.4-4.9l-2.3-1.6c-1.3 1.7-2.6 3.3-4.1 4.9zm-.9 10.6v-6.1h8.1v-2.6h-8.1V512h7.2v-2.6H22v2.6h7.1v7.2h-7.9v2.6h7.9v6.1h3zm-7.7-15.5l-2.1 1.4c1.1 1.4 2.3 3 3.6 5l2.4-1.6c-1.4-1.7-2.7-3.3-3.9-4.8zm31.3 8.7h4v-2.5h-4V515h4.1v-2.5h-4.1v-3.8H53v3.8h-1.9c.1-.8.3-1.6.4-2.4l-2.4-.2c-.4 2.6-1 5-1.8 7.1.8.4 1.5.8 2.3 1.3.3-1 .7-2 .9-3.2H53v3.5h-4.4v2.5H53v3.6h-5.4v2.5h12.7v-2.5h-4.6v-3.6zm-12.1-12.4V528h2.6v-14.2l1.2.8 1-2.1c-.8-.4-1.5-.7-2.2-1v-2.7h-2.6zm-2.6 9.4c.5.1 1 .2 1.6.4.2-1.7.4-3.7.6-5.8l-1.7-.2c-.1 1.7-.3 3.6-.5 5.6zM1 326.9c.8.3 1.7.6 2.7.9l2.1-7.5c-.9-.3-1.7-.6-2.6-1-.7 3-1.4 5.5-2.2 7.6zm12.5.7v-8.7H11v8.7h2.5zm-7.7-10.9c-.9-.8-2-1.7-3.2-2.5L.9 316c1.2 1 2.2 1.9 3.1 2.7l1.8-2zm11.1 11.1h.7c.7 0 1.2-.2 1.6-.5.4-.3.7-.8.8-1.4.1-.6.2-1.8.4-3.7-.6-.2-1.3-.5-1.9-.7-.1 2-.2 3.2-.2 3.6-.1.4-.2.6-.5.6h-.1c-.3 0-.4-.2-.4-.6v-6.3h-2.5v6.6c-.2 1.6.6 2.4 2.1 2.4zM18 319l2.3-1.6c-1.1-1.3-2.3-2.7-3.7-4.2l-2.1 1.3c.3.4.6.7 1 1.1l-5.1.2c.9-.9 1.8-1.9 2.6-2.9h6.6v-2.3h-5.2c-.3-.7-.6-1.4-1-2.1l-2.9.5c.3.6.5 1.1.7 1.6h-5v2.3h3.3c-1.4 1.8-2.5 2.9-3.4 3.2l.8 2.2c1.5-.2 4.9-.4 10.2-.6l.9 1.3zm-13.7-5.5l1.8-2c-1.1-1-2.2-1.8-3.2-2.5l-1.6 1.7c.8.7 1.8 1.6 3 2.8zM6.9 328c2.1-1.5 3.1-3.9 3.1-7.1v-2.1H7.5v1.5c0 2.7-.9 4.6-2.6 5.9.8.7 1.4 1.3 2 1.8zm14.9-17.8v2.5h7.5v-2.5h-7.5zm.3 15.9c.4-.2 1.1-.3 1.9-.4l5.4-.5c-.3.4-.7.8-1 1.2.8.5 1.6 1.1 2.4 1.6.9-1 1.6-2.1 2.1-3.4.5-1.3.9-2.6 1.1-3.8.2-1.3.3-3.3.4-6.2h2.5c0 2.5-.1 4.6-.1 6.4 0 1.7-.1 2.7-.1 3s-.2.5-.4.6c-.2.1-.5.2-.9.2-.6 0-1.3 0-2.1-.1.3 1 .5 1.9.7 2.9 1.9 0 3.1-.1 3.5-.2.4-.1.8-.3 1.1-.6.3-.3.5-.6.5-1 .1-.4.2-1.3.2-2.8l.2-11h-5.1v-3.3h-2.6v3.3h-2v2.6h2c0 4.3-.4 7.3-1.3 8.9l-2.1-4.9-2.2.7c.4 1.1.9 2.3 1.4 3.6-1 .1-2 .1-3.2.1.7-1.8 1.3-3.6 1.9-5.4H30v-2.5h-9v2.5h2.4c-1 3.5-1.8 5.6-2.5 6.1l1.2 2.4zm33.6-5h4v-2.5h-4V315h4.1v-2.5h-4.1v-3.8H53v3.8h-1.9c.1-.8.3-1.6.4-2.4l-2.4-.2c-.4 2.6-1 5-1.8 7.1.8.4 1.5.8 2.3 1.3.3-1 .7-2 .9-3.2H53v3.5h-4.4v2.5H53v3.6h-5.4v2.5h12.7v-2.5h-4.6v-3.6zm-14.7-3c.5.1 1 .2 1.6.4.2-1.7.4-3.7.6-5.8l-1.7-.2c-.1 1.7-.3 3.6-.5 5.6zm7.4-5.7c-.8-.4-1.5-.7-2.2-1v-2.7h-2.6V328h2.6v-14.2l1.2.8 1-2.2zM11.9 108.7l-3.2.6c.2.5.4.9.5 1.4H1.7v4.2h2.8v-1.8h12.2v1.8h2.8v-4.3h-6.9l-.7-1.9zm-.6 5.7l-3.1-.8c-.4 1-.8 2-1.3 2.9H1v2.5h4.6c-.6 1-1.2 2.1-1.9 3 1.4.5 2.9 1.1 4.6 1.8-1.8.7-4.3 1.2-7.3 1.6.4.7.9 1.5 1.4 2.6 4-.7 7.2-1.6 9.4-2.8l6.7 2.9 1.4-2.6-5.6-2.1c1.1-1.1 2-2.6 2.6-4.4h3.6v-2.5H10.2l1.1-2.1zm2.3 4.5c-.5 1.4-1.3 2.6-2.3 3.3l-3.7-1.4c.4-.6.8-1.2 1.2-2h4.8zm18.7-9.4l.5-.7h-3.4c-1.5 2.6-4.3 4.9-8.5 7.2.8 1 1.4 1.8 1.7 2.3 1-.6 1.9-1.2 2.8-1.8v1.5h3.8v2h-5.8v2.5h5.8v2.3h-7.4v2.5h17.7v-2.5h-7.4v-2.3H38V120h-5.9v-2h3.8v-1.6c.8.6 1.8 1.1 2.7 1.6.5-.7 1.1-1.4 1.8-2.3-3.7-1.7-6.4-3.8-8.1-6.2zm-5.7 6c1.6-1.3 2.9-2.6 4-3.9 1.1 1.4 2.4 2.7 4 3.9h-8zm29.1 5.6h4v-2.5h-4V115h4.1v-2.5h-4.1v-3.8H53v3.8h-1.9c.1-.8.3-1.6.4-2.4l-2.4-.2c-.4 2.6-1 5-1.8 7.1.8.4 1.5.8 2.3 1.3.3-1 .7-2 .9-3.2H53v3.5h-4.4v2.5H53v3.6h-5.4v2.5h12.7v-2.5h-4.6v-3.6zm-7.3-8.7c-.8-.4-1.5-.7-2.2-1v-2.7h-2.6V128h2.6v-14.2l1.2.8 1-2.2zm-7.4 5.7c.5.1 1 .2 1.6.4.2-1.7.4-3.7.6-5.8l-1.7-.2c-.1 1.7-.3 3.6-.5 5.6z" fill-rule="evenodd" clip-rule="evenodd" fill="#fff"/><path class="st2" d="M1 78v-1h1140v1H1zM1 679v-1h1140v1H1zM1 479v-1h1140v1H1zM1 279v-1h1140v1H1z"/></svg>