<?xml version="1.0" encoding="utf-8"?>
<!-- Generator: Adobe Illustrator 22.1.0, SVG Export Plug-In . SVG Version: 6.00 Build 0)  -->
<svg version="1.1" id="图层_1" xmlns="http://www.w3.org/2000/svg" xmlns:xlink="http://www.w3.org/1999/xlink" x="0px" y="0px"
	 viewBox="0 0 1170 859" style="enable-background:new 0 0 1170 859;" xml:space="preserve">
<style type="text/css">
	.st0{fill-rule:evenodd;clip-rule:evenodd;fill:#2D2C51;}
	.st1{fill-rule:evenodd;clip-rule:evenodd;fill:#FFFFFF;}
	.st2{opacity:0.3;fill-rule:evenodd;clip-rule:evenodd;fill:#FFFFFF;}
</style>
<path class="st0" d="M375,0h263v859H375V0z"/>
<g>
	<g>
		<path class="st1" d="M1065.8,46.6c1.8,0,3.2-0.3,4.3-0.8v-3c-1.1,0.7-2.3,1-3.7,1c-1.4,0-2.6-0.5-3.4-1.4
			c-0.8-0.9-1.3-2.1-1.3-3.6c0-1.5,0.4-2.8,1.3-3.7c0.9-0.9,2.1-1.4,3.5-1.4c1.3,0,2.5,0.3,3.5,0.9v-3.1c-1-0.4-2.2-0.6-3.7-0.6
			c-2.4,0-4.3,0.8-5.8,2.3c-1.5,1.5-2.2,3.5-2.2,5.9c0,2.3,0.7,4.1,2,5.5C1061.8,45.9,1063.6,46.6,1065.8,46.6z M1081.8,43.7h-5.7
			v-3.7h5v-2.6h-5v-3.6h5.4v-2.6h-8.6v15.1h9V43.7z M1086.8,46.4l2.7-5c0.2-0.4,0.3-0.8,0.4-1h0c0.1,0.5,0.2,0.8,0.3,1l2.7,5h3.8
			l-4.7-7.6l4.6-7.5h-3.6l-2.5,4.6c-0.2,0.5-0.4,0.9-0.5,1.3h0c-0.1-0.5-0.3-0.9-0.5-1.3l-2.3-4.6h-3.9l4.4,7.6l-4.9,7.6H1086.8z
			 M873,45.1c1-0.8,1.5-1.9,1.5-3.3c0-1-0.3-1.8-1-2.5c-0.6-0.7-1.5-1-2.6-1.2v0c0.8-0.2,1.5-0.7,2.1-1.3c0.6-0.6,0.8-1.3,0.8-2.2
			c0-1.1-0.4-2-1.3-2.6c-0.9-0.6-2.2-0.9-3.8-0.9h-5.4v15.1h5.7C870.7,46.4,872,46,873,45.1z M866.6,33.6h1.4c1.7,0,2.5,0.6,2.5,1.7
			c0,0.6-0.2,1.1-0.6,1.5c-0.4,0.4-1,0.5-1.7,0.5h-1.5V33.6z M866.6,44v-4.2h1.9c0.8,0,1.5,0.2,1.9,0.5c0.5,0.4,0.7,0.8,0.7,1.5
			c0,0.7-0.2,1.2-0.7,1.6c-0.5,0.4-1.1,0.6-1.9,0.6H866.6z M876.7,46.4h3.1V35.6h-3.1V46.4z M878.3,33.7c0.5,0,1-0.2,1.3-0.5
			c0.3-0.3,0.5-0.7,0.5-1.2c0-0.5-0.2-0.9-0.5-1.2c-0.3-0.3-0.8-0.5-1.3-0.5c-0.5,0-1,0.2-1.3,0.5c-0.3,0.3-0.5,0.7-0.5,1.2
			c0,0.5,0.2,0.9,0.5,1.2C877.3,33.6,877.7,33.7,878.3,33.7z M889.8,40.3v6h3.1v-6.6c0-3-1.2-4.5-3.6-4.5c-1.5,0-2.7,0.7-3.5,2h0
			v-1.7h-3.2v10.8h3.2v-6.2c0-0.7,0.2-1.3,0.6-1.8c0.4-0.5,0.9-0.7,1.5-0.7C889.1,37.7,889.8,38.6,889.8,40.3z M904.4,46.4v-6.5
			c0-3-1.5-4.5-4.5-4.5c-0.6,0-1.3,0.1-2.1,0.3c-0.8,0.2-1.5,0.4-2,0.7v2.4c1.1-0.8,2.4-1.2,3.6-1.2c1.3,0,2,0.6,2,1.9l-3,0.4
			c-2.5,0.3-3.7,1.5-3.7,3.6c0,1,0.3,1.8,0.9,2.4c0.6,0.6,1.4,0.9,2.5,0.9c1.4,0,2.5-0.6,3.2-1.8h0v1.6H904.4z M900.8,43.7
			c-0.4,0.5-0.9,0.7-1.6,0.7c-0.5,0-0.8-0.1-1.1-0.4c-0.3-0.2-0.4-0.6-0.4-1c0-0.9,0.6-1.4,1.7-1.5l2-0.3V42
			C901.5,42.7,901.3,43.2,900.8,43.7z M917.4,46.4v-6.6c0-3-1.2-4.5-3.6-4.5c-1.5,0-2.7,0.7-3.5,2h0v-1.7h-3.2v10.8h3.2v-6.2
			c0-0.7,0.2-1.3,0.6-1.8c0.4-0.5,0.9-0.7,1.5-0.7c1.3,0,1.9,0.9,1.9,2.6v6H917.4z M925,46.6c1.4,0,2.5-0.2,3.2-0.7v-2.6
			c-0.8,0.5-1.6,0.8-2.5,0.8c-1,0-1.7-0.3-2.3-0.9c-0.6-0.6-0.8-1.3-0.8-2.3c0-1,0.3-1.8,0.9-2.4c0.6-0.6,1.4-0.9,2.3-0.9
			c0.9,0,1.6,0.3,2.4,0.8v-2.7c-0.6-0.3-1.5-0.5-2.7-0.5c-1.8,0-3.3,0.5-4.4,1.6c-1.1,1.1-1.6,2.5-1.6,4.3c0,1.6,0.5,2.9,1.5,3.9
			C922,46.1,923.3,46.6,925,46.6z M935.2,46.6c1.6,0,2.9-0.3,3.9-0.8v-2.3c-0.9,0.6-2,0.9-3.2,0.9c-1.9,0-2.9-0.8-3-2.5h7.1v-1.3
			c0-1.6-0.4-2.9-1.3-3.8c-0.9-0.9-2.1-1.4-3.6-1.4c-1.5,0-2.8,0.5-3.8,1.6c-1,1.1-1.5,2.5-1.5,4.2c0,1.7,0.5,3.1,1.4,4.1
			C932.2,46.1,933.5,46.6,935.2,46.6z M933.7,38.1c0.4-0.4,0.9-0.7,1.4-0.7c1.3,0,2,0.8,2,2.4h-4.2C933,39.1,933.3,38.6,933.7,38.1z
			 M953.6,31.2h-5.2v15.1h5.2c2.4,0,4.3-0.7,5.8-2.1c1.5-1.4,2.3-3.3,2.3-5.6C961.6,33.7,958.9,31.2,953.6,31.2z M956.9,42.4
			c-0.9,0.9-2.1,1.4-3.6,1.4h-1.8v-9.9h1.7c1.5,0,2.6,0.4,3.6,1.3c0.9,0.8,1.4,2,1.4,3.5C958.2,40.2,957.8,41.4,956.9,42.4z
			 M967.4,40.1h5v-2.6h-5v-3.6h5.4v-2.6h-8.6v15.1h9v-2.6h-5.7V40.1z M988,31.2h-3.6l-2.5,4.6c-0.2,0.5-0.4,0.9-0.5,1.3h0
			c-0.1-0.5-0.3-0.9-0.5-1.3l-2.3-4.6h-3.9l4.4,7.6l-4.9,7.6h3.9l2.7-5c0.2-0.4,0.3-0.8,0.4-1h0c0.1,0.5,0.2,0.8,0.3,1l2.7,5h3.8
			l-4.7-7.6L988,31.2z M674.7,46.6c2.2,0,4-0.7,5.4-2.2c1.4-1.5,2.1-3.4,2.1-5.7c0-2.3-0.7-4.1-2-5.5c-1.3-1.4-3.1-2.2-5.2-2.2
			c-2.3,0-4.1,0.7-5.5,2.2c-1.4,1.5-2.1,3.4-2.1,5.8c0,2.2,0.7,4.1,2,5.5C670.8,45.9,672.6,46.6,674.7,46.6z M671.9,35.2
			c0.7-0.9,1.7-1.4,3-1.4c1.2,0,2.2,0.5,2.9,1.4c0.7,0.9,1,2.2,1,3.7c0,1.5-0.4,2.7-1.1,3.6c-0.7,0.9-1.7,1.3-2.9,1.3
			c-1.2,0-2.2-0.5-2.9-1.4c-0.7-0.9-1.1-2.1-1.1-3.6C670.8,37.3,671.2,36.1,671.9,35.2z M686.7,46.4l1.6-3c0.2-0.3,0.3-0.6,0.4-0.9
			h0c0.1,0.2,0.2,0.6,0.5,1l1.6,3h3.6l-3.5-5.5l3.6-5.3h-3.4l-1.7,3.1c-0.2,0.4-0.4,0.8-0.4,1h0c-0.1-0.4-0.3-0.7-0.4-1l-1.6-3.1
			h-3.7l3.4,5.4l-3.7,5.4H686.7z M713.2,36c0-3.2-1.9-4.8-5.6-4.8h-5.2v15.1h3.2v-5.3h1.7c1.7,0,3.1-0.4,4.3-1.3
			C712.7,38.8,713.2,37.6,713.2,36z M707,38.6h-1.4v-4.9h1.4c1.9,0,2.8,0.8,2.8,2.4C709.8,37.8,708.9,38.6,707,38.6z M722.1,38.4
			v-2.9c-0.2-0.1-0.5-0.1-0.8-0.1c-1.4,0-2.3,0.7-2.8,2.2h0v-2h-3.2v10.8h3.2v-5.2c0-1,0.2-1.7,0.6-2.3c0.4-0.5,1-0.8,1.7-0.8
			C721.2,38.1,721.7,38.2,722.1,38.4z M728.7,46.6c1.8,0,3.2-0.5,4.3-1.6c1-1,1.6-2.5,1.6-4.2c0-1.7-0.5-3-1.5-4
			c-1-1-2.4-1.5-4.1-1.5c-1.8,0-3.2,0.5-4.3,1.5c-1.1,1-1.6,2.4-1.6,4.2c0,1.7,0.5,3.1,1.5,4.1C725.5,46.1,726.9,46.6,728.7,46.6z
			 M726.8,38.6c0.5-0.6,1.1-0.8,1.9-0.8c1.7,0,2.5,1.1,2.5,3.2c0,2.2-0.8,3.3-2.5,3.3c-1.8,0-2.6-1.1-2.6-3.2
			C726.1,39.9,726.4,39.1,726.8,38.6z M743.1,46.2v-2.4c-0.4,0.2-0.7,0.3-1.1,0.3c-0.9,0-1.4-0.6-1.4-1.7v-4.6h2.5v-2.4h-2.5v-3.3
			l-3.1,0.9v2.4h-1.8v2.4h1.8V43c0,2.4,1.1,3.6,3.4,3.6C741.9,46.6,742.6,46.5,743.1,46.2z M750,46.6c1.8,0,3.2-0.5,4.3-1.6
			c1-1,1.6-2.5,1.6-4.2c0-1.7-0.5-3-1.5-4c-1-1-2.4-1.5-4.1-1.5c-1.8,0-3.2,0.5-4.3,1.5c-1.1,1-1.6,2.4-1.6,4.2
			c0,1.7,0.5,3.1,1.5,4.1C746.9,46.1,748.3,46.6,750,46.6z M748.2,38.6c0.5-0.6,1.1-0.8,1.9-0.8c1.7,0,2.5,1.1,2.5,3.2
			c0,2.2-0.8,3.3-2.5,3.3c-1.8,0-2.6-1.1-2.6-3.2C747.5,39.9,747.7,39.1,748.2,38.6z M766.2,46v-2.6c-0.8,0.5-1.6,0.8-2.5,0.8
			c-1,0-1.7-0.3-2.3-0.9c-0.6-0.6-0.8-1.3-0.8-2.3c0-1,0.3-1.8,0.9-2.4c0.6-0.6,1.4-0.9,2.3-0.9c0.9,0,1.6,0.3,2.4,0.8v-2.7
			c-0.6-0.3-1.5-0.5-2.7-0.5c-1.8,0-3.3,0.5-4.4,1.6c-1.1,1.1-1.6,2.5-1.6,4.3c0,1.6,0.5,2.9,1.5,3.9c1,1,2.3,1.5,4,1.5
			C764.3,46.6,765.4,46.4,766.2,46z M773.6,35.3c-1.8,0-3.2,0.5-4.3,1.5c-1.1,1-1.6,2.4-1.6,4.2c0,1.7,0.5,3.1,1.5,4.1
			c1,1,2.4,1.5,4.2,1.5c1.8,0,3.2-0.5,4.3-1.6c1-1,1.6-2.5,1.6-4.2c0-1.7-0.5-3-1.5-4C776.8,35.8,775.4,35.3,773.6,35.3z
			 M773.6,44.2c-1.8,0-2.6-1.1-2.6-3.2c0-1,0.2-1.8,0.7-2.4s1.1-0.8,1.9-0.8c1.7,0,2.5,1.1,2.5,3.2
			C776.1,43.1,775.3,44.2,773.6,44.2z M784.6,30.4h-3.1v16h3.1V30.4z M194.1,33.2h4.6v-2.5h-12v2.5h4.6v6.7h-5.5v2.5h5.5V49h2.9
			v-6.6h5.2v-2.5h-5.2V33.2z M185.9,33.3c-0.8-1.2-1.7-2.4-2.6-3.6l-2.3,1.3c1,1.4,1.7,2.7,2.4,3.8L185.9,33.3z M194.7,38.2l2.2,1
			l2.1-4.8l-2.4-0.9C196,35.4,195.3,37,194.7,38.2z M182,45.3c0,0.7-0.2,1.2-0.5,1.6l1.4,1.9c0.8-1,2.2-2.1,4.2-3.4
			c-0.2-0.8-0.3-1.7-0.4-2.9c-0.4,0.4-1.2,0.9-2.2,1.7v-8H180v2.5h2V45.3z M188.8,33.7l-2.5,0.7c0.6,1.5,1.1,3.1,1.7,4.6l2.5-0.8
			L188.8,33.7z M202.4,39.9v8.9h2.7V34.2c0.4-1.1,0.9-2.3,1.3-3.5l-2.6-0.8c-1.2,3.8-2.5,6.8-3.9,9.1c0.4,1.4,0.6,2.6,0.8,3.6
			C201.3,41.7,201.8,40.8,202.4,39.9z M214,29.9h-2.9v3.5h-4.9v2.5h4.9V39h-4v9.8h2.7v-1.1h5.5v1.1h2.7V39H214v-3.1h5.1v-2.5H214
			V29.9z M215.4,41.5v3.7h-5.5v-3.7H215.4z M219.9,43.8l0.5,2.9c1.8-0.5,3.8-1.1,6-1.6c0-1,0-2,0.1-2.9c-0.7,0.2-1.3,0.4-2,0.5v-9
			h1.9V31h-6.3v2.7h1.8v9.6L219.9,43.8z M234.1,38.3h-2.6c0,2.3-0.5,4.1-1.4,5.4s-2.6,2.2-5,2.7c0.5,0.8,1,1.7,1.5,2.7
			c2.6-1,4.5-2.3,5.7-4.1c2.2,1.5,3.9,2.9,5.3,4l1.7-2.1c-2-1.5-4-2.8-6-4C233.9,41.6,234.1,40.1,234.1,38.3z M229.7,37.1h5.9v6.6
			h2.7v-8.9h-4.8l0.4-1.9h5.2v-2.4h-11.8v2.4h3.7l-0.4,1.9h-3.5v9.1h2.7V37.1z M24.4,38.3l-1.6-4.6l-2.5,0.7
			c0.6,1.5,1.1,3.1,1.7,4.6L24.4,38.3z M16,45.3c0,0.7-0.2,1.2-0.5,1.6l1.4,1.9c0.8-1,2.2-2.1,4.2-3.4c-0.2-0.8-0.3-1.7-0.4-2.9
			c-0.4,0.4-1.2,0.9-2.2,1.7v-8H14v2.5h2V45.3z M19.9,33.3c-0.8-1.2-1.7-2.4-2.6-3.6L15.1,31c1,1.4,1.7,2.7,2.4,3.8L19.9,33.3z
			 M28.7,38.2l2.2,1l2.1-4.8l-2.4-0.9C30,35.4,29.3,37,28.7,38.2z M25.2,39.9h-5.5v2.5h5.5V49h2.9v-6.6h5.2v-2.5h-5.2v-6.7h4.6v-2.5
			h-12v2.5h4.6V39.9z M36.4,48.8h2.7V34.2c0.4-1.1,0.9-2.3,1.3-3.5l-2.6-0.8c-1.2,3.8-2.5,6.8-3.9,9.1c0.4,1.4,0.6,2.6,0.8,3.6
			c0.6-0.8,1.1-1.7,1.6-2.6V48.8z M40.3,35.9h4.9V39h-4v9.8h2.7v-1.1h5.5v1.1h2.7V39H48v-3.1h5.1v-2.5H48v-3.5h-2.9v3.5h-4.9V35.9z
			 M49.4,41.5v3.7h-5.5v-3.7H49.4z M54.1,46.7c0.5,0.6,1,1.4,1.6,2.4c4.5-1.1,7.1-2.7,7.9-5c1.6,2.6,4.2,4.3,7.7,5.1
			c0.4-0.6,1-1.4,1.7-2.5c-3-0.3-5.3-1.3-7-2.9h6.8v-2.4h-8.2c0.1-0.4,0.1-0.7,0.1-1.1h-2.7c0,0.4,0,0.8-0.1,1.1h-7.8v2.4h6.9
			C60,45.2,57.6,46.2,54.1,46.7z M54.9,38.5c0.5,0.8,0.9,1.6,1.3,2.4c2.6-0.8,4.6-1.8,6.1-3v1.8h2.7v-1.6c2.6,1.1,4.7,2.1,6.4,2.9
			l1.1-2.2c-2-0.8-4.2-1.6-6.6-2.4h6.7V34h-4.3c0.9-0.7,2-1.5,3-2.4l-1.7-1.7c-1.2,1.1-2.4,2-3.3,2.8l1.3,1.3h-2.6v-4.2h-2.7V34
			h-2.5c0.9-1,1.4-1.4,1.4-1.5c-1.2-0.9-2.4-1.8-3.5-2.6l-1.5,1.6c1,0.8,2,1.6,2.9,2.4h-4.5v2.3h6C59.3,37.3,57.3,38,54.9,38.5z
			 M413.8,46.6c1.8,0,3.2-0.3,4.3-0.8v-3c-1.1,0.7-2.3,1-3.7,1c-1.4,0-2.6-0.5-3.4-1.4c-0.8-0.9-1.3-2.1-1.3-3.6
			c0-1.5,0.4-2.8,1.3-3.7c0.9-0.9,2.1-1.4,3.5-1.4c1.3,0,2.5,0.3,3.5,0.9v-3.1c-1-0.4-2.2-0.6-3.7-0.6c-2.4,0-4.3,0.8-5.8,2.3
			c-1.5,1.5-2.2,3.5-2.2,5.9c0,2.3,0.7,4.1,2,5.5C409.8,45.9,411.6,46.6,413.8,46.6z M426.7,46.6c1.8,0,3.2-0.3,4.3-0.8v-3
			c-1.1,0.7-2.3,1-3.7,1c-1.4,0-2.6-0.5-3.4-1.4c-0.8-0.9-1.3-2.1-1.3-3.6c0-1.5,0.4-2.8,1.3-3.7c0.9-0.9,2.1-1.4,3.5-1.4
			c1.3,0,2.5,0.3,3.5,0.9v-3.1c-1-0.4-2.2-0.6-3.7-0.6c-2.4,0-4.3,0.8-5.8,2.3c-1.5,1.5-2.2,3.5-2.2,5.9c0,2.3,0.7,4.1,2,5.5
			C422.6,45.9,424.4,46.6,426.7,46.6z M438.9,31.2h-5.2v15.1h5.2c2.4,0,4.3-0.7,5.8-2.1c1.5-1.4,2.3-3.3,2.3-5.6
			C446.9,33.7,444.2,31.2,438.9,31.2z M442.2,42.4c-0.9,0.9-2.1,1.4-3.6,1.4h-1.8v-9.9h1.7c1.5,0,2.6,0.4,3.6,1.3
			c0.9,0.8,1.4,2,1.4,3.5C443.5,40.2,443.1,41.4,442.2,42.4z M458.4,43.7h-5.7v-3.7h5v-2.6h-5v-3.6h5.4v-2.6h-8.6v15.1h9V43.7z
			 M463.5,46.4l2.7-5c0.2-0.4,0.3-0.8,0.4-1h0c0.1,0.5,0.2,0.8,0.3,1l2.7,5h3.8l-4.7-7.6l4.6-7.5h-3.6l-2.5,4.6
			c-0.2,0.5-0.4,0.9-0.5,1.3h0c-0.1-0.5-0.3-0.9-0.5-1.3l-2.3-4.6H460l4.4,7.6l-4.9,7.6H463.5z M1066.2,112.9c1.2,0,2.3,0.2,3.3,0.7
			v-1.1c-1.1-0.4-2.2-0.6-3.3-0.6c-2.2,0-4,0.7-5.4,2.2c-1.4,1.5-2.1,3.4-2.1,5.9c0,2.2,0.7,4,2,5.4c1.3,1.4,3,2.1,5.1,2.1
			c1.3,0,2.6-0.3,3.8-0.8v-1c-1.1,0.5-2.4,0.8-3.7,0.8c-1.7,0-3.2-0.6-4.3-1.8c-1.1-1.2-1.7-2.8-1.7-4.9c0-2.1,0.6-3.8,1.8-5.1
			C1062.8,113.6,1064.3,112.9,1066.2,112.9z M1080,113.2v-1h-7.1v15.1h7.4v-0.9h-6.4v-6.2h5.6v-0.9h-5.6v-6.1H1080z M1083.7,127.4
			l3.5-5.8c0.2-0.3,0.4-0.7,0.6-1.1h0c0.2,0.3,0.3,0.7,0.6,1.1l3.5,5.8h1.3l-4.6-7.6l4.5-7.5h-1.2l-3.4,5.7l-0.6,1h0
			c-0.2-0.4-0.4-0.7-0.5-1l-3.4-5.7h-1.3l4.5,7.5l-4.8,7.6H1083.7z M1068.1,156.9l-3.5,3.5l-3.5-3.5l-0.6,0.6l3.5,3.5l-3.5,3.5
			l0.6,0.6l3.5-3.5l3.5,3.5l0.6-0.6l-3.5-3.5l3.5-3.5L1068.1,156.9z M1059.1,209.9c4.6-2.5,7.3-6,8.2-10.2h0.9v6.9
			c-0.1,1.8,0.8,2.6,2.6,2.6h3.2c1.8,0.1,2.7-0.6,2.9-2c0.1-0.6,0.2-1.5,0.2-2.5c-0.3-0.1-0.6-0.2-1.1-0.4c0,0.9-0.1,1.7-0.2,2.4
			c-0.1,1.1-0.7,1.7-1.9,1.6h-2.7c-0.7,0-1.2-0.1-1.4-0.4c-0.3-0.2-0.4-0.7-0.4-1.3v-6.7h7.7v-1h-9.4c0.3-1.3,0.4-3,0.5-5.1h7.4v-1
			h-15.4v1h7c-0.1,2-0.2,3.7-0.5,5.1h-7.9v1h7.7c-0.8,3.9-3.4,7-7.9,9.3c0.1,0.1,0.2,0.2,0.3,0.4
			C1058.8,209.6,1059,209.8,1059.1,209.9z M1061.1,245.2l3.5-3.5l3.5,3.5l0.6-0.6l-3.5-3.5l3.5-3.5l-0.6-0.6l-3.5,3.5l-3.5-3.5
			l-0.6,0.6l3.5,3.5l-3.5,3.5L1061.1,245.2z M1061.1,325.2l3.5-3.5l3.5,3.5l0.6-0.6l-3.5-3.5l3.5-3.5l-0.6-0.6l-3.5,3.5l-3.5-3.5
			l-0.6,0.6l3.5,3.5l-3.5,3.5L1061.1,325.2z M1061.1,365.2l3.5-3.5l3.5,3.5l0.6-0.6l-3.5-3.5l3.5-3.5l-0.6-0.6l-3.5,3.5l-3.5-3.5
			l-0.6,0.6l3.5,3.5l-3.5,3.5L1061.1,365.2z M1077,400.1c-1-1-2.3-2.4-4-4.1l-0.7,0.6c1.2,1.2,2.5,2.6,3.9,4.2L1077,400.1z
			 M1076.8,394.1h-10.5v1h10.5V394.1z M1072.6,393.5c-0.3-0.7-0.8-1.5-1.4-2.6l-0.9,0.4c0.1,0.1,0.2,0.3,0.3,0.5
			c0.5,0.9,0.9,1.6,1.1,2.1L1072.6,393.5z M1066.4,401.1c1.3-1.4,2.6-2.9,3.8-4.5l-0.9-0.6c-1.1,1.7-2.4,3.1-3.7,4.4
			C1066,400.6,1066.2,400.9,1066.4,401.1z M1074.5,400.2l-1-0.4c-0.7,2-1.5,3.5-2.4,4.6c-0.9-1.1-1.7-2.6-2.4-4.5l-1,0.4
			c0.8,2.1,1.7,3.8,2.7,4.8c-1.2,1.3-3.1,2.4-5.7,3.5c0.1,0.2,0.4,0.5,0.6,1c2.6-1.1,4.5-2.3,5.8-3.7c1.1,1.1,3,2.2,5.4,3.4
			c0.1-0.3,0.3-0.6,0.6-1c-2.4-1-4.2-2-5.3-3.1C1072.9,404,1073.7,402.4,1074.5,400.2z M1059.8,405.7c1.1-0.2,1.9-0.4,2.5-0.5v4.5h1
			v-4.7c0.5-0.1,1.3-0.2,2.2-0.4c0.2,0,0.3,0,0.3-0.1c0-0.5,0-0.9,0-1c-0.2,0-0.4,0.1-0.8,0.1c-0.8,0.1-1.4,0.3-1.8,0.3v-3.1h1.9v-1
			h-1.9v-3.8h-1v3.8h-2.6c0.6-1.7,1.2-3.4,1.8-5.2h4v-1h-3.7c0.3-1,0.6-1.9,0.8-2.8l-1-0.2c-0.3,1-0.5,2-0.8,3h-2.4v1h2.1
			c-0.6,1.8-1.2,3.6-1.9,5.2v0.9h3.7v3.3c-1.4,0.3-2.8,0.5-4.2,0.7l0.2,1C1058.6,406,1059.1,405.9,1059.8,405.7z M1095.9,407.3v-6.4
			h-16.6v8.8h1v-7.9h14.5v5.5c0,0.5-0.1,0.8-0.3,1c-0.2,0.2-0.6,0.3-1.2,0.3c-0.8,0-1.6,0-2.2-0.1c0.1,0.3,0.2,0.7,0.2,1.1
			c0.9,0,1.7,0,2.4,0C1095.3,409.5,1096,408.8,1095.9,407.3z M1081.5,395.5v3.7h12.2v-3.7H1081.5z M1092.7,398.3h-10.2v-1.9h10.2
			V398.3z M1097,392.9h-8.6c-0.2-0.7-0.3-1.4-0.5-2l-1.1,0.2c0.2,0.8,0.4,1.4,0.5,1.8h-9.1v0.9h18.8V392.9z M1091.8,403.4h-8.4v3.9
			h8.4V403.4z M1090.8,406.5h-6.4v-2.2h6.4V406.5z M1072.6,433.5c-0.3-0.7-0.8-1.5-1.4-2.6l-0.9,0.4c0.1,0.1,0.2,0.3,0.3,0.5
			c0.5,0.9,0.9,1.6,1.1,2.1L1072.6,433.5z M1059.8,445.7c1.1-0.2,1.9-0.4,2.5-0.5v4.5h1v-4.7c0.5-0.1,1.3-0.2,2.2-0.4
			c0.2,0,0.3,0,0.3-0.1c0-0.5,0-0.9,0-1c-0.2,0-0.4,0.1-0.8,0.1c-0.8,0.1-1.4,0.3-1.8,0.3v-3.1h1.9v-1h-1.9v-3.8h-1v3.8h-2.6
			c0.6-1.7,1.2-3.4,1.8-5.2h4v-1h-3.7c0.3-1,0.6-1.9,0.8-2.8l-1-0.2c-0.3,1-0.5,2-0.8,3h-2.4v1h2.1c-0.6,1.8-1.2,3.6-1.9,5.2v0.9
			h3.7v3.3c-1.4,0.3-2.8,0.5-4.2,0.7l0.2,1C1058.6,446,1059.1,445.9,1059.8,445.7z M1074.5,440.2l-1-0.4c-0.7,2-1.5,3.5-2.4,4.6
			c-0.9-1.1-1.7-2.6-2.4-4.5l-1,0.4c0.8,2.1,1.7,3.8,2.7,4.8c-1.2,1.3-3.1,2.4-5.7,3.5c0.1,0.2,0.4,0.5,0.6,1
			c2.6-1.1,4.5-2.3,5.8-3.7c1.1,1.1,3,2.2,5.4,3.4c0.1-0.3,0.3-0.6,0.6-1c-2.4-1-4.2-2-5.3-3.1
			C1072.9,444,1073.7,442.4,1074.5,440.2z M1072.3,436.7c1.2,1.2,2.5,2.6,3.9,4.2l0.8-0.8c-1-1-2.3-2.4-4-4.1L1072.3,436.7z
			 M1066.3,435h10.5v-1h-10.5V435z M1066.4,441.1c1.3-1.4,2.6-2.9,3.8-4.5l-0.9-0.6c-1.1,1.7-2.4,3.1-3.7,4.4
			C1066,440.6,1066.2,440.9,1066.4,441.1z M1092.6,447.5V444h3.9v-0.9h-3.9v-3.4h3.9v-0.9h-3.9v-3.3h4.2v-0.9h-9.1
			c0.4-0.9,0.9-2,1.4-3.3l-1-0.3c-1,3-2.4,5.7-4.3,8c0.1,0.1,0.3,0.3,0.7,0.8c0,0,0,0,0,0c0.5-0.7,1.1-1.5,1.6-2.3v12.3h1v-1.4h9.8
			v-0.9H1092.6z M1091.6,447.5h-4.4V444h4.4V447.5z M1091.6,443.1h-4.4v-3.4h4.4V443.1z M1091.6,438.8h-4.4v-3.2
			c0-0.1,0-0.1,0.1-0.2h4.3V438.8z M1092.3,434.3l1-0.5c-0.3-0.7-0.8-1.7-1.5-2.9l-0.9,0.4C1091.3,432.4,1091.8,433.4,1092.3,434.3z
			 M1082.1,443.6c0.1,0.2,0.2,0.4,0.4,0.7c0.8,1.5,1.4,2.6,1.7,3.3l0.9-0.5c-0.2-0.3-0.4-0.8-0.8-1.6c-0.7-1.4-1.3-2.4-1.7-3.2
			c0.7-1.9,1.2-4.6,1.6-7.9v-1h-5.8v1h4.7c-0.3,2.7-0.7,4.9-1.2,6.7c-0.9-1.8-1.8-3.4-2.7-5l-0.9,0.5c0.6,1.1,1.7,3.1,3.1,5.8
			c-0.8,2-1.9,3.9-3.5,5.7c0.3,0.3,0.6,0.6,0.8,0.9C1080.2,447.2,1081.3,445.4,1082.1,443.6z M1068.1,516.9l-3.5,3.5l-3.5-3.5
			l-0.6,0.6l3.5,3.5l-3.5,3.5l0.6,0.6l3.5-3.5l3.5,3.5l0.6-0.6l-3.5-3.5l3.5-3.5L1068.1,516.9z M1072.3,556.7
			c1.2,1.2,2.5,2.6,3.9,4.2l0.8-0.8c-1-1-2.3-2.4-4-4.1L1072.3,556.7z M1066.4,561.1c1.3-1.4,2.6-2.9,3.8-4.5l-0.9-0.6
			c-1.1,1.7-2.4,3.1-3.7,4.4C1066,560.6,1066.2,560.9,1066.4,561.1z M1074.5,560.2l-1-0.4c-0.7,2-1.5,3.5-2.4,4.6
			c-0.9-1.1-1.7-2.6-2.4-4.5l-1,0.4c0.8,2.1,1.7,3.8,2.7,4.8c-1.2,1.3-3.1,2.4-5.7,3.5c0.1,0.2,0.4,0.5,0.6,1
			c2.6-1.1,4.5-2.3,5.8-3.7c1.1,1.1,3,2.2,5.4,3.4c0.1-0.3,0.3-0.6,0.6-1c-2.4-1-4.2-2-5.3-3.1
			C1072.9,564,1073.7,562.4,1074.5,560.2z M1062.3,569.7h1v-4.7c0.5-0.1,1.3-0.2,2.2-0.4c0.2,0,0.3,0,0.3-0.1c0-0.5,0-0.9,0-1
			c-0.2,0-0.4,0.1-0.8,0.1c-0.8,0.1-1.4,0.3-1.8,0.3v-3.1h1.9v-1h-1.9v-3.8h-1v3.8h-2.6c0.6-1.7,1.2-3.4,1.8-5.2h4v-1h-3.7
			c0.3-1,0.6-1.9,0.8-2.8l-1-0.2c-0.3,1-0.5,2-0.8,3h-2.4v1h2.1c-0.6,1.8-1.2,3.6-1.9,5.2v0.9h3.7v3.3c-1.4,0.3-2.8,0.5-4.2,0.7
			l0.2,1c0.3-0.1,0.8-0.2,1.5-0.3c1.1-0.2,1.9-0.4,2.5-0.5V569.7z M1066.3,555h10.5v-1h-10.5V555z M1072.6,553.5
			c-0.3-0.7-0.8-1.5-1.4-2.6l-0.9,0.4c0.1,0.1,0.2,0.3,0.3,0.5c0.5,0.9,0.9,1.6,1.1,2.1L1072.6,553.5z M1081.5,555.5v3.7h12.2v-3.7
			H1081.5z M1092.7,558.3h-10.2v-1.9h10.2V558.3z M1087.9,550.9l-1.1,0.2c0.2,0.8,0.4,1.4,0.5,1.8h-9.1v0.9h18.8v-0.9h-8.6
			C1088.2,552.2,1088,551.6,1087.9,550.9z M1079.3,569.7h1v-7.9h14.5v5.5c0,0.5-0.1,0.8-0.3,1c-0.2,0.2-0.6,0.3-1.2,0.3
			c-0.8,0-1.6,0-2.2-0.1c0.1,0.3,0.2,0.7,0.2,1.1c0.9,0,1.7,0,2.4,0c1.5,0,2.2-0.7,2.1-2.2v-6.4h-16.6V569.7z M1091.8,563.4h-8.4
			v3.9h8.4V563.4z M1090.8,566.5h-6.4v-2.2h6.4V566.5z M1068.1,596.9l-3.5,3.5l-3.5-3.5l-0.6,0.6l3.5,3.5l-3.5,3.5l0.6,0.6l3.5-3.5
			l3.5,3.5l0.6-0.6l-3.5-3.5l3.5-3.5L1068.1,596.9z M1068.1,636.9l-3.5,3.5l-3.5-3.5l-0.6,0.6l3.5,3.5l-3.5,3.5l0.6,0.6l3.5-3.5
			l3.5,3.5l0.6-0.6l-3.5-3.5l3.5-3.5L1068.1,636.9z M1068.1,716.9l-3.5,3.5l-3.5-3.5l-0.6,0.6l3.5,3.5l-3.5,3.5l0.6,0.6l3.5-3.5
			l3.5,3.5l0.6-0.6l-3.5-3.5l3.5-3.5L1068.1,716.9z M1068.1,756.9l-3.5,3.5l-3.5-3.5l-0.6,0.6l3.5,3.5l-3.5,3.5l0.6,0.6l3.5-3.5
			l3.5,3.5l0.6-0.6l-3.5-3.5l3.5-3.5L1068.1,756.9z M1068.1,796.9l-3.5,3.5l-3.5-3.5l-0.6,0.6l3.5,3.5l-3.5,3.5l0.6,0.6l3.5-3.5
			l3.5,3.5l0.6-0.6l-3.5-3.5l3.5-3.5L1068.1,796.9z M876,117.6c0-2.4-0.7-4.2-2-5.5c-1.3-1.3-3.2-1.9-5.7-1.9h-3.8v15.1h3.6
			c2.5,0,4.4-0.7,5.8-2.2C875.3,121.8,876,119.9,876,117.6z M868,124.4h-2.4v-13.2h2.6c4.5,0,6.8,2.1,6.8,6.4c0,2.2-0.6,3.9-1.8,5
			C871.9,123.8,870.2,124.4,868,124.4z M880.1,118.2h5.6v-0.9h-5.6v-6.1h6v-1h-7.1v15.1h7.4v-0.9h-6.4V118.2z M899.3,110.2H898
			l-3.4,5.7l-0.6,1h0c-0.2-0.4-0.4-0.7-0.5-1l-3.4-5.7h-1.3l4.5,7.5l-4.8,7.6h1.3l3.5-5.8c0.2-0.3,0.4-0.7,0.6-1.1h0
			c0.2,0.3,0.3,0.7,0.6,1.1l3.5,5.8h1.3l-4.6-7.6L899.3,110.2z M907.6,114.3h-0.9v4.3h-4.3v0.9h4.3v4.3h0.9v-4.3h4.3v-0.9h-4.3
			V114.3z M922.3,110.4l-1.1-0.4c-1.5,3.3-3.6,6-6.5,8.2c0.4,0.3,0.7,0.6,0.9,0.9C918.5,116.7,920.7,113.8,922.3,110.4z M925.8,121
			c1.4,1.6,2.5,3,3.3,3.9c-2.5,0.1-5.6,0.2-9.3,0.4c-0.6,0-1,0-1.3,0c2.1-2.5,4-5.1,5.7-7.9l-1.2-0.6c-1.6,2.9-3.4,5.4-5.3,7.5
			c-0.4,0.4-0.9,0.8-1.4,1l0.5,1.2c0.5-0.1,1.2-0.2,2-0.2c2.9-0.2,6.6-0.3,11-0.5c0.5,0.6,0.9,1.2,1.4,1.8l1-0.8
			c-1.9-2.3-3.8-4.5-5.6-6.6L925.8,121z M927,109.6L926,110c1.3,3.4,3.5,6.3,6.7,8.6c0.2-0.3,0.5-0.6,0.9-1
			C930.5,115.7,928.3,113,927,109.6z M940.5,122.8l-2.3,2.2v-4.7h2.6v-0.9h-2.6v-2.8h1.9v-0.9H936v0.9h1.2v2.8h-2.5v0.9h2.5v4.2
			c0,0.4,0,0.7-0.1,1c-0.1,0.3-0.2,0.5-0.4,0.8l0.7,0.8c0.3-0.4,0.6-0.6,0.8-0.8c0.7-0.7,1.6-1.5,2.5-2.3L940.5,122.8z M937,113h3.7
			v-0.9h-3.3c0.3-0.7,0.6-1.7,0.9-2.8l-1-0.2c-0.7,2.5-1.6,4.7-2.7,6.5c0.3,0.2,0.6,0.5,0.8,0.7C936.1,115,936.6,113.9,937,113z
			 M944.1,113.2c-0.3-1-0.8-2.3-1.5-3.9l-0.9,0.3c0.6,1.5,1,2.8,1.4,3.9L944.1,113.2z M949.2,125.4h1v-3.1h3.2v-0.9h-3.2v-2.9h2.7
			v-0.9h-2.7v-3.5h-1v3.5h-2.7c0.6-1.5,1.2-3.1,1.7-4.9h5v-0.9h-4.7c0.2-0.7,0.5-1.5,0.7-2.5l-1-0.2c-0.2,0.9-0.5,1.8-0.7,2.7h-2.3
			v0.9h2c-0.5,1.8-1.1,3.4-1.7,4.7v1.2h3.7v2.9h-4.3v0.9h4.3V125.4z M948,126.2c-1.9,0-3.4-0.7-4.4-2.2v-7.9h-2.5v0.9h1.6v6.9
			c-0.1,0.1-0.1,0.2-0.3,0.3c-0.9,1.1-1.6,2-2.1,2.6l0.8,0.7c0.7-1.1,1.4-2,2-2.7c1.1,1.5,2.7,2.3,4.8,2.3c2.2,0.1,4,0.1,5.4,0.1
			c0.1-0.4,0.2-0.7,0.3-1.1c-0.9,0-1.9,0-2.8,0C949.9,126.2,948.9,126.2,948,126.2z M873.1,154.9l-3.5,3.5l-3.5-3.5l-0.6,0.6
			l3.5,3.5l-3.5,3.5l0.6,0.6l3.5-3.5l3.5,3.5l0.6-0.6l-3.5-3.5l3.5-3.5L873.1,154.9z M874.9,205.4c-0.2-0.1-0.3-0.3-0.4-0.3
			l-0.7,0.6c0.8,0.8,1.4,1.5,1.9,2l0.8-0.7C876.2,206.7,875.6,206.2,874.9,205.4z M880.9,205.5c-0.1,0.6-0.4,0.9-0.7,0.9
			c-0.5,0-1-0.4-1.4-1.1c-1.2-1.8-1.9-4.3-2.1-7.7h5.2v-1h-5.3c-0.1-1.9-0.2-3.7-0.2-5.4c0.1,0,0.3,0,0.6,0c1.9-0.1,3.4-0.3,4.6-0.4
			l-0.4-1c-3.7,0.4-7.5,0.6-11.4,0.7v13.7c0,0.4,0,0.7-0.1,1c-0.1,0.3-0.2,0.5-0.4,0.8l0.8,0.9c0.4-0.3,0.7-0.6,0.9-0.7
			c1.1-0.7,2.4-1.4,3.8-2.2c-0.1-0.5-0.2-0.8-0.2-1c-1.3,0.8-2.5,1.5-3.7,2.1v-7.5h4.7c0.3,3.6,1,6.4,2.2,8.1
			c0.7,1.1,1.5,1.7,2.4,1.7c0.9,0,1.4-0.5,1.6-1.5c0.1-0.6,0.3-1.5,0.4-2.8c-0.2,0-0.5-0.1-1-0.3
			C881.2,203.8,881.1,204.6,880.9,205.5z M870.9,196.6v-5.1c1.3,0,2.8-0.1,4.4-0.2c0,2.2,0.1,3.9,0.2,5.3H870.9z M863.4,199.1
			c0.8-0.9,1.5-2.1,2.3-3.4v12.1h1v-14c0.7-1.3,1.3-2.8,2-4.5l-1-0.4c-1.2,3.5-2.8,6.5-4.8,9c0,0,0,0.1,0.1,0.1
			C863.2,198.4,863.3,198.8,863.4,199.1z M869.5,243.8l-3-7.5h-2.4v0.9h1.7l3.4,8.2h0.8l4-16h-0.9L869.5,243.8z M866.1,323.2
			l3.5-3.5l3.5,3.5l0.6-0.6l-3.5-3.5l3.5-3.5l-0.6-0.6l-3.5,3.5l-3.5-3.5l-0.6,0.6l3.5,3.5l-3.5,3.5L866.1,323.2z M866.1,363.2
			l3.5-3.5l3.5,3.5l0.6-0.6l-3.5-3.5l3.5-3.5l-0.6-0.6l-3.5,3.5l-3.5-3.5l-0.6,0.6l3.5,3.5l-3.5,3.5L866.1,363.2z M880.8,401.7v-8.5
			h-7.6v-4.3H872v4.3h-7.6v8.5h1.1v-1.1h6.5v7.3h1.1v-7.3h6.6v1.1H880.8z M872,399.6h-6.5v-5.4h6.5V399.6z M873.1,399.6v-5.4h6.6
			v5.4H873.1z M877.6,442h3.9v-0.9h-3.9v-3.4h3.9v-0.9h-3.9v-3.3h4.2v-0.9h-9.1c0.4-0.9,0.9-2,1.4-3.3l-1-0.3c-1,3-2.4,5.7-4.3,8
			c0.1,0.1,0.3,0.3,0.7,0.8c0,0,0,0,0,0c0.5-0.7,1.1-1.5,1.6-2.3v12.3h1v-1.4h9.8v-0.9h-4.4V442z M876.6,445.5h-4.4V442h4.4V445.5z
			 M876.6,441.1h-4.4v-3.4h4.4V441.1z M876.6,436.8h-4.4v-3.2c0-0.1,0-0.1,0.1-0.2h4.3V436.8z M867.1,441.6c0.1,0.2,0.2,0.4,0.4,0.7
			c0.8,1.5,1.4,2.6,1.7,3.3l0.9-0.5c-0.2-0.3-0.4-0.8-0.8-1.6c-0.7-1.4-1.3-2.4-1.7-3.2c0.7-1.9,1.2-4.6,1.6-7.9v-1h-5.8v1h4.7
			c-0.3,2.7-0.7,4.9-1.2,6.7c-0.9-1.8-1.8-3.4-2.7-5l-0.9,0.5c0.6,1.1,1.7,3.1,3.1,5.8c-0.8,2-1.9,3.9-3.5,5.7
			c0.3,0.3,0.6,0.6,0.8,0.9C865.2,445.2,866.3,443.4,867.1,441.6z M877.3,432.3l1-0.5c-0.3-0.7-0.8-1.7-1.5-2.9l-0.9,0.4
			C876.3,430.4,876.8,431.4,877.3,432.3z M873.1,514.9l-3.5,3.5l-3.5-3.5l-0.6,0.6l3.5,3.5l-3.5,3.5l0.6,0.6l3.5-3.5l3.5,3.5
			l0.6-0.6l-3.5-3.5l3.5-3.5L873.1,514.9z M866.5,553.5v3.7h12.2v-3.7H866.5z M877.7,556.3h-10.2v-1.9h10.2V556.3z M864.3,567.7h1
			v-7.9h14.5v5.5c0,0.5-0.1,0.8-0.3,1c-0.2,0.2-0.6,0.3-1.2,0.3c-0.8,0-1.6,0-2.2-0.1c0.1,0.3,0.2,0.7,0.2,1.1c0.9,0,1.7,0,2.4,0
			c1.5,0,2.2-0.7,2.1-2.2v-6.4h-16.6V567.7z M876.8,561.4h-8.4v3.9h8.4V561.4z M875.8,564.5h-6.4v-2.2h6.4V564.5z M872.9,548.9
			l-1.1,0.2c0.2,0.8,0.4,1.4,0.5,1.8h-9.1v0.9H882v-0.9h-8.6C873.2,550.2,873,549.6,872.9,548.9z M869.5,603.8l-3-7.5h-2.4v0.9h1.7
			l3.4,8.2h0.8l4-16h-0.9L869.5,603.8z M869.5,643.8l-3-7.5h-2.4v0.9h1.7l3.4,8.2h0.8l4-16h-0.9L869.5,643.8z M873.1,714.9l-3.5,3.5
			l-3.5-3.5l-0.6,0.6l3.5,3.5l-3.5,3.5l0.6,0.6l3.5-3.5l3.5,3.5l0.6-0.6l-3.5-3.5l3.5-3.5L873.1,714.9z M873.1,754.9l-3.5,3.5
			l-3.5-3.5l-0.6,0.6l3.5,3.5l-3.5,3.5l0.6,0.6l3.5-3.5l3.5,3.5l0.6-0.6l-3.5-3.5l3.5-3.5L873.1,754.9z M873.1,794.9l-3.5,3.5
			l-3.5-3.5l-0.6,0.6l3.5,3.5l-3.5,3.5l0.6,0.6l3.5-3.5l3.5,3.5l0.6-0.6l-3.5-3.5l3.5-3.5L873.1,794.9z M678.9,123.2
			c1.4-1.4,2.1-3.3,2.1-5.6c0-2.4-0.7-4.2-2-5.5c-1.3-1.3-3.2-1.9-5.7-1.9h-3.8v15.1h3.6C675.6,125.4,677.5,124.6,678.9,123.2z
			 M670.6,124.4v-13.2h2.6c4.5,0,6.8,2.1,6.8,6.4c0,2.2-0.6,3.9-1.8,5c-1.2,1.2-2.9,1.7-5.2,1.7H670.6z M691.5,124.4h-6.4v-6.2h5.6
			v-0.9h-5.6v-6.1h6v-1h-7.1v15.1h7.4V124.4z M698.4,117.7l-4.8,7.6h1.3l3.5-5.8c0.2-0.3,0.4-0.7,0.6-1.1h0c0.2,0.3,0.3,0.7,0.6,1.1
			l3.5,5.8h1.3l-4.6-7.6l4.5-7.5H703l-3.4,5.7l-0.6,1h0c-0.2-0.4-0.4-0.7-0.5-1l-3.4-5.7h-1.3L698.4,117.7z M712.6,114.3h-0.9v4.3
			h-4.3v0.9h4.3v4.3h0.9v-4.3h4.3v-0.9h-4.3V114.3z M733.4,117.9l-1-0.4c-1,2.2-2.1,3.9-3.3,5c-1.3-1.2-2.4-2.8-3.4-4.8l-1,0.5
			c1.1,2.2,2.3,3.9,3.5,5c-1.6,1.3-4.4,2.5-8.4,3.5l0.6,1.1c4.1-1.2,7-2.5,8.6-3.9c1.7,1.4,4.6,2.7,8.5,3.7c0.2-0.5,0.4-0.9,0.6-1.1
			c-3.7-0.8-6.5-2-8.3-3.4C731.2,121.9,732.4,120.1,733.4,117.9z M726.1,114.1c-1.8,1.7-3.8,3.1-5.8,4.3c0.3,0.4,0.5,0.7,0.7,1
			c2.2-1.5,4.1-2.9,5.9-4.4L726.1,114.1z M730.3,111.4c-0.4-0.8-0.9-1.6-1.4-2.5l-1,0.5c0.6,0.9,1,1.7,1.4,2.5H720v1h18.2v-1h-8.9
			L730.3,111.4z M738,118c-2.1-1.4-4.1-2.7-5.9-3.9l-0.7,0.8c2.1,1.4,4.1,2.8,5.8,4.1L738,118z M745.9,117.6l-1-0.4
			c-1.3,1.8-2.9,3.4-5,4.6c0.3,0.3,0.5,0.6,0.7,0.8c1.3-0.8,2.4-1.6,3.3-2.6h3.6c-1.1,2.4-3.7,4.3-7.7,5.8c0.3,0.3,0.5,0.6,0.7,0.9
			c4.2-1.6,6.9-3.8,8.1-6.7h3.3c-0.6,2.9-2.8,5.3-6.5,7c0.2,0.2,0.5,0.5,0.7,0.9c3.9-1.8,6.2-4.5,6.9-7.8h3.2c0,0.9-0.1,2.1-0.2,3.5
			c0,2-0.9,2.9-2.5,2.9c-0.1,0-0.2,0-0.3,0c-0.8,0-1.7,0-2.5-0.1c0.1,0.4,0.2,0.8,0.2,1.1c0.9,0,1.7,0,2.3,0
			c2.5,0.1,3.8-1.2,3.8-3.9c0.1-1.6,0.2-3.1,0.2-4.5h-12.5C745.1,118.6,745.5,118.1,745.9,117.6z M742.4,116.9h13.9v-7.1h-13.9
			V116.9z M743.4,110.7h11.9v2.1h-11.9V110.7z M743.4,113.8h11.9v2.2h-11.9V113.8z M767.2,116.9l-1-0.3c-0.6,1.6-1.3,3.3-2.1,5
			c0.4,0.1,0.7,0.2,1,0.4C765.9,120.4,766.6,118.7,767.2,116.9z M765.1,114.7h-2.2V109h-1.1v5.7h-2.2v1h2.2v12h1.1v-12h2.2V114.7z
			 M770.6,110.1c0-0.5,0-0.8,0-1.1h-1.1c0,1.3,0,2.6-0.1,4h-3.3v1h3.3c0,1.2-0.1,2.2-0.1,2.9c-0.1,4.6-1.7,7.9-4.8,10.1
			c0.3,0.3,0.6,0.5,0.9,0.8c3.2-2.3,4.9-6,5-11c0-0.6,0.1-1.5,0.1-2.7h3.7c0,3.2-0.1,6.5-0.3,10.1c0,1.5-0.6,2.2-1.8,2.1
			c-0.8,0-1.5,0-2.2-0.1c0.1,0.2,0.1,0.6,0.2,1.2c1,0,1.7,0,2.1,0c1.9,0.1,2.8-1,2.8-3.3c0.1-4.1,0.3-7.7,0.3-11h-4.8
			C770.5,112.4,770.6,111.4,770.6,110.1z M775.8,117c0.8,1.6,1.4,3.1,2,4.6l1-0.4c-0.5-1.3-1.2-2.8-2.1-4.6L775.8,117z M797,110.4
			l-1.1-0.2c-0.6,4.6-2.1,8.2-4.4,10.9c-2.4-2.8-3.9-6.4-4.4-10.9l-1.1,0.2c0.6,4.9,2.2,8.7,4.7,11.6c-1.7,1.7-3.9,3.3-6.6,4.7
			c0.3,0.4,0.6,0.8,0.8,1.1c2.9-1.7,5.1-3.3,6.6-4.9c1.6,1.7,3.7,3.2,6.3,4.7c0.2-0.4,0.5-0.8,0.8-1.1c-2.6-1.3-4.7-2.8-6.4-4.5
			C794.6,119.3,796.2,115.4,797,110.4z M786,121.8c-0.9,0.7-1.9,1.5-2.9,2.3v-8.6h-3.4v1h2.4v7.2c0,0.6-0.2,1.2-0.6,1.6l0.8,0.8
			c0.2-0.2,0.5-0.5,0.8-0.8c1.1-0.9,2.2-1.8,3.1-2.5C786.2,122.5,786.1,122.1,786,121.8z M784.3,112.5c-0.8-1-1.7-2-2.7-3l-0.8,0.6
			c0.8,0.9,1.7,1.9,2.6,3.1L784.3,112.5z M793,113.2c-0.7-1.3-1.5-2.7-2.4-4l-0.9,0.5c0.7,1.2,1.5,2.5,2.3,4.1L793,113.2z
			 M669.1,157.2h1.7l3.4,8.2h0.8l4-16h-0.9l-3.6,14.5l-3-7.5h-2.4V157.2z M687,190.9h-8.6c-0.2-0.7-0.3-1.4-0.5-2l-1.1,0.2
			c0.2,0.8,0.4,1.4,0.5,1.8h-9.1v0.9H687V190.9z M671.5,193.5v3.7h12.2v-3.7H671.5z M682.7,196.3h-10.2v-1.9h10.2V196.3z
			 M683.8,207.5c1.5,0,2.2-0.7,2.1-2.2v-6.4h-16.6v8.8h1v-7.9h14.5v5.5c0,0.5-0.1,0.8-0.3,1c-0.2,0.2-0.6,0.3-1.2,0.3
			c-0.8,0-1.6,0-2.2-0.1c0.1,0.3,0.2,0.7,0.2,1.1C682.3,207.5,683.1,207.5,683.8,207.5z M681.8,201.4h-8.4v3.9h8.4V201.4z
			 M680.8,204.5h-6.4v-2.2h6.4V204.5z M678.1,234.9l-3.5,3.5l-3.5-3.5l-0.6,0.6l3.5,3.5l-3.5,3.5l0.6,0.6l3.5-3.5l3.5,3.5l0.6-0.6
			l-3.5-3.5l3.5-3.5L678.1,234.9z M678.1,314.9l-3.5,3.5l-3.5-3.5l-0.6,0.6l3.5,3.5l-3.5,3.5l0.6,0.6l3.5-3.5l3.5,3.5l0.6-0.6
			l-3.5-3.5l3.5-3.5L678.1,314.9z M678.1,354.9l-3.5,3.5l-3.5-3.5l-0.6,0.6l3.5,3.5l-3.5,3.5l0.6,0.6l3.5-3.5l3.5,3.5l0.6-0.6
			l-3.5-3.5l3.5-3.5L678.1,354.9z M685.9,405.5c-0.1,0.6-0.4,0.9-0.7,0.9c-0.5,0-1-0.4-1.4-1.1c-1.2-1.8-1.9-4.3-2.1-7.7h5.2v-1
			h-5.3c-0.1-1.9-0.2-3.7-0.2-5.4c0.1,0,0.3,0,0.6,0c1.9-0.1,3.4-0.3,4.6-0.4l-0.4-1c-3.7,0.4-7.5,0.6-11.4,0.7v13.7
			c0,0.4,0,0.7-0.1,1c-0.1,0.3-0.2,0.5-0.4,0.8l0.8,0.9c0.4-0.3,0.7-0.6,0.9-0.7c1.1-0.7,2.4-1.4,3.8-2.2c-0.1-0.5-0.2-0.8-0.2-1
			c-1.3,0.8-2.5,1.5-3.7,2.1v-7.5h4.7c0.3,3.6,1,6.4,2.2,8.1c0.7,1.1,1.5,1.7,2.4,1.7c0.9,0,1.4-0.5,1.6-1.5
			c0.1-0.6,0.3-1.5,0.4-2.8c-0.2,0-0.5-0.1-1-0.3C686.2,403.8,686.1,404.6,685.9,405.5z M675.9,396.6v-5.1c1.3,0,2.8-0.1,4.4-0.2
			c0,2.2,0.1,3.9,0.2,5.3H675.9z M679.9,405.4c-0.2-0.1-0.3-0.3-0.4-0.3l-0.7,0.6c0.8,0.8,1.4,1.5,1.9,2l0.8-0.7
			C681.2,406.7,680.6,406.2,679.9,405.4z M670.8,395.7v12.1h1v-14c0.7-1.3,1.3-2.8,2-4.5l-1-0.4c-1.2,3.5-2.8,6.5-4.8,9
			c0,0,0,0.1,0.1,0.1c0.2,0.3,0.3,0.7,0.4,1C669.2,398.1,670,397,670.8,395.7z M677,428.9v4.3h-7.6v8.5h1.1v-1.1h6.5v7.3h1.1v-7.3
			h6.6v1.1h1.1v-8.5h-7.6v-4.3H677z M677,439.6h-6.5v-5.4h6.5V439.6z M684.7,434.2v5.4h-6.6v-5.4H684.7z M692.1,443.4
			c1,0.9,1.9,1.7,2.8,2.6l0.8-0.7c-0.9-0.9-1.9-1.7-2.8-2.5L692.1,443.4z M702.1,440.1h-1.1v1.4h-12.2v0.9h12.2v2.5
			c0,0.6-0.1,1-0.4,1.3c-0.2,0.2-0.6,0.4-1.2,0.4c-0.9,0-1.7,0-2.6-0.1c0.1,0.3,0.2,0.7,0.3,1.1c1.2,0,2,0,2.6,0
			c1.7,0,2.5-0.8,2.5-2.4v-2.7h4.2v-0.9h-4.2V440.1z M691.4,431.7h6.3v-0.9H692c0.3-0.4,0.6-1,1-1.8l-1-0.2c-1,2-2.3,3.7-3.9,4.9
			c0.3,0.2,0.6,0.5,0.8,0.8C689.9,433.6,690.7,432.7,691.4,431.7z M694.2,434.4l0.8-0.6c-0.6-0.7-1.2-1.3-1.7-1.8l-0.8,0.6
			C693.2,433.2,693.8,433.9,694.2,434.4z M698,436.1h7.7v-0.9H698v-1.3h-1.1v1.3h-7.4v0.9h7.4v2.3h-8.7v0.9H707v-0.9h-9V436.1z
			 M703.1,434.5l0.8-0.7c-0.7-0.7-1.3-1.3-1.9-1.8l-0.7,0.6C701.8,433.1,702.4,433.8,703.1,434.5z M706.8,430.8h-6.5
			c0.3-0.5,0.6-1.1,1-1.8l-1.1-0.2c-0.6,1.5-1.6,2.9-2.9,4.2c0.4,0.2,0.7,0.4,0.9,0.6c0.6-0.7,1.1-1.3,1.5-1.9h7.1V430.8z
			 M674.5,523.8l-3-7.5h-2.4v0.9h1.7l3.4,8.2h0.8l4-16h-0.9L674.5,523.8z M677.9,548.9l-1.1,0.2c0.2,0.8,0.4,1.4,0.5,1.8h-9.1v0.9
			H687v-0.9h-8.6C678.2,550.2,678,549.6,677.9,548.9z M671.5,553.5v3.7h12.2v-3.7H671.5z M682.7,556.3h-10.2v-1.9h10.2V556.3z
			 M681.8,561.4h-8.4v3.9h8.4V561.4z M680.8,564.5h-6.4v-2.2h6.4V564.5z M669.3,567.7h1v-7.9h14.5v5.5c0,0.5-0.1,0.8-0.3,1
			c-0.2,0.2-0.6,0.3-1.2,0.3c-0.8,0-1.6,0-2.2-0.1c0.1,0.3,0.2,0.7,0.2,1.1c0.9,0,1.7,0,2.4,0c1.5,0,2.2-0.7,2.1-2.2v-6.4h-16.6
			V567.7z M674.5,603.8l-3-7.5h-2.4v0.9h1.7l3.4,8.2h0.8l4-16h-0.9L674.5,603.8z M671.1,643.2l3.5-3.5l3.5,3.5l0.6-0.6l-3.5-3.5
			l3.5-3.5l-0.6-0.6l-3.5,3.5l-3.5-3.5l-0.6,0.6l3.5,3.5l-3.5,3.5L671.1,643.2z M674.5,723.8l-3-7.5h-2.4v0.9h1.7l3.4,8.2h0.8l4-16
			h-0.9L674.5,723.8z M671.1,763.2l3.5-3.5l3.5,3.5l0.6-0.6l-3.5-3.5l3.5-3.5l-0.6-0.6l-3.5,3.5l-3.5-3.5l-0.6,0.6l3.5,3.5l-3.5,3.5
			L671.1,763.2z M674.5,803.8l-3-7.5h-2.4v0.9h1.7l3.4,8.2h0.8l4-16h-0.9L674.5,803.8z M417.1,112.1c-1.3-1.3-3.2-1.9-5.7-1.9h-3.8
			v15.1h3.6c2.5,0,4.4-0.7,5.8-2.2c1.4-1.4,2.1-3.3,2.1-5.6C419,115.2,418.4,113.4,417.1,112.1z M416.1,122.7
			c-1.2,1.2-2.9,1.7-5.2,1.7h-2.4v-13.2h2.6c4.5,0,6.8,2.1,6.8,6.4C417.9,119.8,417.3,121.5,416.1,122.7z M429.2,111.2v-1h-7.1v15.1
			h7.4v-0.9h-6.4v-6.2h5.6v-0.9h-5.6v-6.1H429.2z M432.9,125.4l3.5-5.8c0.2-0.3,0.4-0.7,0.6-1.1h0c0.2,0.3,0.3,0.7,0.6,1.1l3.5,5.8
			h1.3l-4.6-7.6l4.5-7.5H441l-3.4,5.7l-0.6,1h0c-0.2-0.4-0.4-0.7-0.5-1l-3.4-5.7h-1.3l4.5,7.5l-4.8,7.6H432.9z M450.6,114.3h-0.9
			v4.3h-4.3v0.9h4.3v4.3h0.9v-4.3h4.3v-0.9h-4.3V114.3z M464.1,114.1c-1.8,1.7-3.8,3.1-5.8,4.3c0.3,0.4,0.5,0.7,0.7,1
			c2.2-1.5,4.1-2.9,5.9-4.4L464.1,114.1z M471.4,117.9l-1-0.4c-1,2.2-2.1,3.9-3.3,5c-1.3-1.2-2.4-2.8-3.4-4.8l-1,0.5
			c1.1,2.2,2.3,3.9,3.5,5c-1.6,1.3-4.4,2.5-8.4,3.5l0.6,1.1c4.1-1.2,7-2.5,8.6-3.9c1.7,1.4,4.6,2.7,8.5,3.7c0.2-0.5,0.4-0.9,0.6-1.1
			c-3.7-0.8-6.5-2-8.3-3.4C469.2,121.9,470.4,120.1,471.4,117.9z M476,118c-2.1-1.4-4.1-2.7-5.9-3.9l-0.7,0.8
			c2.1,1.4,4.1,2.8,5.8,4.1L476,118z M468.3,111.4c-0.4-0.8-0.9-1.6-1.4-2.5l-1,0.5c0.6,0.9,1,1.7,1.4,2.5H458v1h18.2v-1h-8.9
			L468.3,111.4z M494.3,109.8h-13.9v7.1h13.9V109.8z M493.3,116h-11.9v-2.2h11.9V116z M493.3,112.9h-11.9v-2.1h11.9V112.9z
			 M483.9,117.6l-1-0.4c-1.3,1.8-2.9,3.4-5,4.6c0.3,0.3,0.5,0.6,0.7,0.8c1.3-0.8,2.4-1.6,3.3-2.6h3.6c-1.1,2.4-3.7,4.3-7.7,5.8
			c0.3,0.3,0.5,0.6,0.7,0.9c4.2-1.6,6.9-3.8,8.1-6.7h3.3c-0.6,2.9-2.8,5.3-6.5,7c0.2,0.2,0.5,0.5,0.7,0.9c3.9-1.8,6.2-4.5,6.9-7.8
			h3.2c0,0.9-0.1,2.1-0.2,3.5c0,2-0.9,2.9-2.5,2.9c-0.1,0-0.2,0-0.3,0c-0.8,0-1.7,0-2.5-0.1c0.1,0.4,0.2,0.8,0.2,1.1
			c0.9,0,1.7,0,2.3,0c2.5,0.1,3.8-1.2,3.8-3.9c0.1-1.6,0.2-3.1,0.2-4.5h-12.5C483.1,118.6,483.5,118.1,483.9,117.6z M503.1,114.7
			h-2.2V109h-1.1v5.7h-2.2v1h2.2v12h1.1v-12h2.2V114.7z M505.2,116.9l-1-0.3c-0.6,1.6-1.3,3.3-2.1,5c0.4,0.1,0.7,0.2,1,0.4
			C503.9,120.4,504.6,118.7,505.2,116.9z M508.6,110.1c0-0.5,0-0.8,0-1.1h-1.1c0,1.3,0,2.6-0.1,4h-3.3v1h3.3c0,1.2-0.1,2.2-0.1,2.9
			c-0.1,4.6-1.7,7.9-4.8,10.1c0.3,0.3,0.6,0.5,0.9,0.8c3.2-2.3,4.9-6,5-11c0-0.6,0.1-1.5,0.1-2.7h3.7c0,3.2-0.1,6.5-0.3,10.1
			c0,1.5-0.6,2.2-1.8,2.1c-0.8,0-1.5,0-2.2-0.1c0.1,0.2,0.1,0.6,0.2,1.2c1,0,1.7,0,2.1,0c1.9,0.1,2.8-1,2.8-3.3
			c0.1-4.1,0.3-7.7,0.3-11h-4.8C508.5,112.4,508.6,111.4,508.6,110.1z M513.8,117c0.8,1.6,1.4,3.1,2,4.6l1-0.4
			c-0.5-1.3-1.2-2.8-2.1-4.6L513.8,117z M524,121.8c-0.9,0.7-1.9,1.5-2.9,2.3v-8.6h-3.4v1h2.4v7.2c0,0.6-0.2,1.2-0.6,1.6l0.8,0.8
			c0.2-0.2,0.5-0.5,0.8-0.8c1.1-0.9,2.2-1.8,3.1-2.5C524.2,122.5,524.1,122.1,524,121.8z M535,110.4l-1.1-0.2
			c-0.6,4.6-2.1,8.2-4.4,10.9c-2.4-2.8-3.9-6.4-4.4-10.9l-1.1,0.2c0.6,4.9,2.2,8.7,4.7,11.6c-1.7,1.7-3.9,3.3-6.6,4.7
			c0.3,0.4,0.6,0.8,0.8,1.1c2.9-1.7,5.1-3.3,6.6-4.9c1.6,1.7,3.7,3.2,6.3,4.7c0.2-0.4,0.5-0.8,0.8-1.1c-2.6-1.3-4.7-2.8-6.4-4.5
			C532.6,119.3,534.2,115.4,535,110.4z M531,113.2c-0.7-1.3-1.5-2.7-2.4-4l-0.9,0.5c0.7,1.2,1.5,2.5,2.3,4.1L531,113.2z
			 M522.3,112.5c-0.8-1-1.7-2-2.7-3l-0.8,0.6c0.8,0.9,1.7,1.9,2.6,3.1L522.3,112.5z M544.6,114.3h-0.9v4.3h-4.3v0.9h4.3v4.3h0.9
			v-4.3h4.3v-0.9h-4.3V114.3z M559.3,110.4l-1.1-0.4c-1.5,3.3-3.6,6-6.5,8.2c0.4,0.3,0.7,0.6,0.9,0.9
			C555.5,116.7,557.7,113.8,559.3,110.4z M562.9,121c1.4,1.6,2.5,3,3.3,3.9c-2.5,0.1-5.6,0.2-9.3,0.4c-0.6,0-1,0-1.3,0
			c2.1-2.5,4-5.1,5.7-7.9l-1.2-0.6c-1.6,2.9-3.4,5.4-5.3,7.5c-0.4,0.4-0.9,0.8-1.4,1l0.5,1.2c0.5-0.1,1.2-0.2,2-0.2
			c2.9-0.2,6.6-0.3,11-0.5c0.5,0.6,0.9,1.2,1.4,1.8l1-0.8c-1.9-2.3-3.8-4.5-5.6-6.6L562.9,121z M564.1,109.6L563,110
			c1.3,3.4,3.5,6.3,6.7,8.6c0.2-0.3,0.5-0.6,0.9-1C567.5,115.7,565.3,113,564.1,109.6z M581.1,113.2c-0.3-1-0.8-2.3-1.5-3.9
			l-0.9,0.3c0.6,1.5,1,2.8,1.4,3.9L581.1,113.2z M586.2,125.4h1v-3.1h3.2v-0.9h-3.2v-2.9h2.7v-0.9h-2.7v-3.5h-1v3.5h-2.7
			c0.6-1.5,1.2-3.1,1.7-4.9h5v-0.9h-4.7c0.2-0.7,0.5-1.5,0.7-2.5l-1-0.2c-0.2,0.9-0.5,1.8-0.7,2.7h-2.3v0.9h2
			c-0.5,1.8-1.1,3.4-1.7,4.7v1.2h3.7v2.9h-4.3v0.9h4.3V125.4z M577.5,122.8l-2.3,2.2v-4.7h2.6v-0.9h-2.6v-2.8h1.9v-0.9H573v0.9h1.2
			v2.8h-2.5v0.9h2.5v4.2c0,0.4,0,0.7-0.1,1c-0.1,0.3-0.2,0.5-0.4,0.8l0.7,0.8c0.3-0.4,0.6-0.6,0.8-0.8c0.7-0.7,1.6-1.5,2.5-2.3
			L577.5,122.8z M574,113h3.7v-0.9h-3.3c0.3-0.7,0.6-1.7,0.9-2.8l-1-0.2c-0.7,2.5-1.6,4.7-2.7,6.5c0.3,0.2,0.6,0.5,0.8,0.7
			C573.1,115,573.6,113.9,574,113z M585,126.2c-1.9,0-3.4-0.7-4.4-2.2v-7.9h-2.5v0.9h1.6v6.9c-0.1,0.1-0.1,0.2-0.3,0.3
			c-0.9,1.1-1.6,2-2.1,2.6l0.8,0.7c0.7-1.1,1.4-2,2-2.7c1.1,1.5,2.7,2.3,4.8,2.3c2.2,0.1,4,0.1,5.4,0.1c0.1-0.4,0.2-0.7,0.3-1.1
			c-0.9,0-1.9,0-2.8,0C586.9,126.2,586,126.2,585,126.2z M412.5,163.8l-3-7.5h-2.4v0.9h1.7l3.4,8.2h0.8l4-16h-0.9L412.5,163.8z
			 M419.8,201.4h-8.4v3.9h8.4V201.4z M418.8,204.5h-6.4v-2.2h6.4V204.5z M425,190.9h-8.6c-0.2-0.7-0.3-1.4-0.5-2l-1.1,0.2
			c0.2,0.8,0.4,1.4,0.5,1.8h-9.1v0.9H425V190.9z M409.5,193.5v3.7h12.2v-3.7H409.5z M420.7,196.3h-10.2v-1.9h10.2V196.3z
			 M421.8,207.5c1.5,0,2.2-0.7,2.1-2.2v-6.4h-16.6v8.8h1v-7.9h14.5v5.5c0,0.5-0.1,0.8-0.3,1c-0.2,0.2-0.6,0.3-1.2,0.3
			c-0.8,0-1.6,0-2.2-0.1c0.1,0.3,0.2,0.7,0.2,1.1C420.3,207.5,421.1,207.5,421.8,207.5z M416.1,229.4l-3.6,14.5l-3-7.5h-2.4v0.9h1.7
			l3.4,8.2h0.8l4-16H416.1z M416.1,309.4l-3.6,14.5l-3-7.5h-2.4v0.9h1.7l3.4,8.2h0.8l4-16H416.1z M409.5,356.3h-2.4v0.9h1.7l3.4,8.2
			h0.8l4-16h-0.9l-3.6,14.5L409.5,356.3z M407.3,407.7h1v-7.9h14.5v5.5c0,0.5-0.1,0.8-0.3,1c-0.2,0.2-0.6,0.3-1.2,0.3
			c-0.8,0-1.6,0-2.2-0.1c0.1,0.3,0.2,0.7,0.2,1.1c0.9,0,1.7,0,2.4,0c1.5,0,2.2-0.7,2.1-2.2v-6.4h-16.6V407.7z M425,390.9h-8.6
			c-0.2-0.7-0.3-1.4-0.5-2l-1.1,0.2c0.2,0.8,0.4,1.4,0.5,1.8h-9.1v0.9H425V390.9z M411.4,401.4v3.9h8.4v-3.9H411.4z M418.8,404.5
			h-6.4v-2.2h6.4V404.5z M409.5,393.5v3.7h12.2v-3.7H409.5z M420.7,396.3h-10.2v-1.9h10.2V396.3z M424.1,431.3h-7.7c0,0,0-0.1,0-0.2
			c-0.2-1-0.3-1.7-0.4-2.2l-1.1,0.2c0.2,0.7,0.4,1.5,0.5,2.2h-8.2v3.1h1.1v-2.2h14.9v2.2h1.1V431.3z M406.7,442.2
			c3.7-1.5,6.6-3.4,8.9-5.7c2.1,2.3,5,4.1,8.9,5.5c0.1-0.3,0.3-0.6,0.6-0.9c-3.7-1.2-6.7-3-8.8-5.2c0.1-0.1,0.1-0.2,0.3-0.3
			c0.1-0.1,0.1-0.2,0.2-0.2l-1.1-0.3c-2.3,2.6-5.5,4.7-9.6,6.3c0,0,0,0.1,0.1,0.1C406.4,441.8,406.6,442,406.7,442.2z M407.7,437.5
			c1.6-0.8,3.6-1.8,5.8-3.1l-0.7-0.8c-1.8,1.1-3.7,2.1-5.8,3C407.3,436.9,407.5,437.2,407.7,437.5z M417.6,434.4
			c2,0.9,3.9,1.9,5.8,3l0.6-0.9c-1.4-0.7-3.3-1.7-5.8-2.9L417.6,434.4z M421.7,447.8V441h-12.3v6.8h1.1v-1.1h10.1v1.1H421.7z
			 M410.5,445.8V442h10.1v3.8H410.5z M442.8,429.8h-13.9v7.1h13.9V429.8z M441.7,436h-11.9v-2.2h11.9V436z M441.7,432.9h-11.9v-2.1
			h11.9V432.9z M432.3,437.6l-1-0.4c-1.3,1.8-2.9,3.4-5,4.6c0.3,0.3,0.5,0.6,0.7,0.8c1.3-0.8,2.4-1.6,3.3-2.6h3.6
			c-1.1,2.4-3.7,4.3-7.7,5.8c0.3,0.3,0.5,0.6,0.7,0.9c4.2-1.6,6.9-3.8,8.1-6.7h3.3c-0.6,2.9-2.8,5.3-6.5,7c0.2,0.2,0.5,0.5,0.7,0.9
			c3.9-1.8,6.2-4.5,6.9-7.8h3.2c0,0.9-0.1,2.1-0.2,3.5c0,2-0.9,2.9-2.5,2.9c-0.1,0-0.2,0-0.3,0c-0.8,0-1.7,0-2.5-0.1
			c0.1,0.4,0.2,0.8,0.2,1.1c0.9,0,1.7,0,2.3,0c2.5,0.1,3.8-1.2,3.8-3.9c0.1-1.6,0.2-3.1,0.2-4.5h-12.5
			C431.5,438.6,431.9,438.1,432.3,437.6z M409.5,516.3h-2.4v0.9h1.7l3.4,8.2h0.8l4-16h-0.9l-3.6,14.5L409.5,516.3z M408.8,567.8h1
			v-14c0.7-1.3,1.3-2.8,2-4.5l-1-0.4c-1.2,3.5-2.8,6.5-4.8,9c0,0,0,0.1,0.1,0.1c0.2,0.3,0.3,0.7,0.4,1c0.8-0.9,1.5-2.1,2.3-3.4
			V567.8z M423.9,565.5c-0.1,0.6-0.4,0.9-0.7,0.9c-0.5,0-1-0.4-1.4-1.1c-1.2-1.8-1.9-4.3-2.1-7.7h5.2v-1h-5.3
			c-0.1-1.9-0.2-3.7-0.2-5.4c0.1,0,0.3,0,0.6,0c1.9-0.1,3.4-0.3,4.6-0.4l-0.4-1c-3.7,0.4-7.5,0.6-11.4,0.7v13.7c0,0.4,0,0.7-0.1,1
			c-0.1,0.3-0.2,0.5-0.4,0.8l0.8,0.9c0.4-0.3,0.7-0.6,0.9-0.7c1.1-0.7,2.4-1.4,3.8-2.2c-0.1-0.5-0.2-0.8-0.2-1
			c-1.3,0.8-2.5,1.5-3.7,2.1v-7.5h4.7c0.3,3.6,1,6.4,2.2,8.1c0.7,1.1,1.5,1.7,2.4,1.7c0.9,0,1.4-0.5,1.6-1.5
			c0.1-0.6,0.3-1.5,0.4-2.8c-0.2,0-0.5-0.1-1-0.3C424.2,563.8,424.1,564.6,423.9,565.5z M413.9,556.6v-5.1c1.3,0,2.8-0.1,4.4-0.2
			c0,2.2,0.1,3.9,0.2,5.3H413.9z M417.9,565.4c-0.2-0.1-0.3-0.3-0.4-0.3l-0.7,0.6c0.8,0.8,1.4,1.5,1.9,2l0.8-0.7
			C419.2,566.7,418.6,566.2,417.9,565.4z M412.5,603.8l-3-7.5h-2.4v0.9h1.7l3.4,8.2h0.8l4-16h-0.9L412.5,603.8z M412.5,643.8l-3-7.5
			h-2.4v0.9h1.7l3.4,8.2h0.8l4-16h-0.9L412.5,643.8z M412.5,723.8l-3-7.5h-2.4v0.9h1.7l3.4,8.2h0.8l4-16h-0.9L412.5,723.8z
			 M412.5,763.8l-3-7.5h-2.4v0.9h1.7l3.4,8.2h0.8l4-16h-0.9L412.5,763.8z M412.5,803.8l-3-7.5h-2.4v0.9h1.7l3.4,8.2h0.8l4-16h-0.9
			L412.5,803.8z M183.2,112.7l-0.9,0.6c1.3,1.7,2.5,3.3,3.4,4.7l1-0.7C185.5,115.7,184.3,114.2,183.2,112.7z M198.1,109.9h-16.8v1
			h7.8v8.6h-8.7v1.1h8.7v7.2h1.1v-7.2h8.8v-1.1h-8.8V111h7.9V109.9z M193.1,118.1c1.4-1.6,2.7-3.2,3.8-4.7l-1-0.6
			c-1.1,1.6-2.4,3.2-3.7,4.6L193.1,118.1z M216.4,127.8v-8.5h-13.5v8.5h1.1v-1.3h11.4v1.3H216.4z M203.9,125.5v-5.2h11.4v5.2H203.9z
			 M209.4,109.5l-1.1-0.6c-1.8,2.2-3.8,4.2-6.1,6.2c-0.4,0.4-0.9,0.7-1.5,0.9l0.5,1.2c0.5-0.1,1.1-0.2,1.9-0.2
			c3.2-0.2,7.7-0.3,13.4-0.5c0.4,0.4,0.9,0.9,1.6,1.6l1-0.7c-2.1-2.1-4-4-5.7-5.6l-0.9,0.6c1.4,1.4,2.4,2.4,3.1,3.1
			c-1.8,0.1-3.5,0.1-5.2,0.2c-3.5,0.1-6,0.2-7.5,0.2C205.4,113.6,207.6,111.5,209.4,109.5z M223,109.1v4.1h-2.8v0.9h2.8v0.1
			c-0.5,2.3-1.5,4.5-3,6.7c0.1,0.3,0.3,0.7,0.5,1.3c1-1.6,1.9-3.5,2.5-5.8v11.3h1v-10.4c1,0.9,1.8,1.7,2.4,2.4l0.8-0.7
			c-0.5-0.5-1.3-1.3-2.6-2.3l-0.7,0.6v-3.1h2.6v-0.9h-2.6v-4.1H223z M231,115c-1,2.5-2,4.5-3,6c-0.3,0.5-0.7,0.8-1,1l0.5,1.1
			c0.4-0.1,1-0.2,1.6-0.2c1.7-0.1,3.5-0.2,5.2-0.3l0.5,1l1-0.5c-0.8-1.4-1.7-3.1-2.9-5.1l-0.9,0.4c0.8,1.3,1.4,2.4,1.9,3.3
			c-0.8,0-2,0.1-3.5,0.2c-0.7,0-1.2,0.1-1.5,0.1c1.1-1.9,2.3-4.1,3.4-6.5L231,115z M230,109c-0.9,2.5-2,4.7-3.5,6.7
			c0.2,0.1,0.5,0.3,1,0.6c0.6-0.9,1.2-1.9,1.8-3.1h7.9c-0.1,3.8-0.2,7.3-0.3,10.5c0,1-0.2,1.6-0.6,1.9c-0.3,0.4-1,0.5-1.9,0.5
			c-0.6,0-1.1,0-1.3,0c-0.3,0-0.6,0-0.8,0c-0.5,0-1,0-1.4,0c0.1,0.5,0.2,0.9,0.2,1.1c1.4,0,2.5,0,3.3,0c2.4,0.1,3.5-1,3.5-3.3
			c0.1-2.9,0.2-6.8,0.4-11.8h-8.5c0.4-0.9,0.9-1.9,1.2-2.9L230,109z M257.2,111.5c-0.9-0.7-1.9-1.3-3-1.9l-0.6,0.7
			c1.1,0.7,2,1.3,2.9,2L257.2,111.5z M242.8,123.7c0.3-1.2,0.5-3.1,0.5-5.5h4.5c0,1.3-0.1,2.8-0.2,4.4c0,1.2-0.6,1.7-1.7,1.7
			c-0.3,0-0.5,0-0.6,0c-0.2,0-0.3,0-0.5,0c-0.3,0-0.5,0-0.8,0c0.1,0.3,0.2,0.7,0.2,1.1c0.8,0,1.3,0,1.8,0c1.7,0,2.5-0.9,2.6-2.8
			c0.1-2.1,0.2-3.8,0.2-5.3h-5.6v-3.3h7.9c0.2,3.8,0.7,6.8,1.4,9c-1.1,1.3-2.5,2.6-4.1,3.7c0.3,0.3,0.6,0.6,0.8,0.8
			c1.5-1.1,2.7-2.2,3.7-3.4c0.9,2.5,2.1,3.7,3.5,3.6c1.1,0,1.8-0.6,2.2-1.9c0.2-0.6,0.4-1.5,0.5-2.6c-0.3-0.1-0.7-0.2-1-0.4
			c-0.1,0.9-0.3,1.7-0.5,2.5c-0.3,0.9-0.7,1.3-1.2,1.3c-1,0-1.9-1.2-2.7-3.5c1.3-1.7,2.6-3.9,3.9-6.6l-1-0.4c-1,2.4-2.1,4.3-3.3,5.8
			c-0.6-2-0.9-4.7-1.1-8h6.7v-1h-6.8c-0.1-1.2-0.1-2.5-0.1-3.9h-1.1c0,1.4,0.1,2.7,0.1,3.9h-8.9v4.2c0,2.8-0.1,4.8-0.4,6
			c-0.2,1.2-0.8,2.5-1.7,4c0.4,0.3,0.7,0.5,0.9,0.7C241.9,126.3,242.5,124.9,242.8,123.7z M195.3,166.5c-0.8,0-1.6,0-2.3-0.1
			c0.1,0.4,0.2,0.8,0.2,1.2c0.3,0,0.5,0,0.7,0c0.2,0,0.4,0,0.5,0c0.3,0,0.7,0,1.1,0c1.7,0,2.5-0.8,2.5-2.4v-15h-15.5v6.9
			c0,2.7-0.1,4.7-0.5,6c-0.3,1.3-0.9,2.6-1.9,4.1c0.4,0.2,0.7,0.5,1,0.7c1.4-2,2.1-4.2,2.3-6.5h6.2v6.2h1.1v-6.2h6.2v3.8
			C196.9,166.1,196.3,166.5,195.3,166.5z M189.5,160.3h-6.1c0.1-1.2,0.1-2.3,0.1-3.2v-0.9h6V160.3z M189.5,155.2h-6v-4.1h6V155.2z
			 M190.6,151.1h6.2v4.1h-6.2V151.1z M190.6,160.3v-4.1h6.2v4.1H190.6z M202.5,157.3c0,2.5-0.1,4.4-0.5,5.6
			c-0.3,1.3-0.9,2.6-1.9,4.1c0.4,0.2,0.7,0.5,0.9,0.7c1.7-2.3,2.5-5.2,2.6-8.6h12.8v1h1.1v-8.3h-7.1l0.9-0.4c-0.5-0.7-1-1.6-1.7-2.5
			l-1,0.5c0.6,0.9,1.1,1.7,1.5,2.5h-7.7V157.3z M203.6,157.3v-4.4h12.8v5.2h-12.8V157.3z M220.7,159.3c-0.3,0.1-0.5,0.1-0.6,0.1
			l0.2,1.1c0.3-0.1,0.7-0.2,1.3-0.3c0.7-0.2,1.1-0.3,1.5-0.4v5.5c0,0.7-0.3,1.1-1,1c-0.7,0-1.3,0-1.6,0c0.1,0.4,0.2,0.8,0.2,1.2
			c0.5,0,1.1,0,1.6,0c1.3,0,1.9-0.6,1.8-2v-6c0.2,0,0.5-0.1,1-0.2c0.6-0.1,1.1-0.3,1.4-0.3c0-0.2,0-0.4,0-0.6c0-0.2,0-0.3,0-0.5
			c-0.3,0.1-0.8,0.2-1.4,0.4c-0.4,0.1-0.7,0.2-0.9,0.2v-4.4h2.3v-1H224v-4.2h-1v4.2h-2.7v1h2.7v4.7
			C222.5,158.9,221.7,159.1,220.7,159.3z M231.3,164.2c-0.5-0.5-1.5-1.4-2.8-2.7l-0.8,0.7c0.9,0.9,1.8,1.8,2.7,2.7L231.3,164.2z
			 M234.9,157.8v1.9h-8.2v0.9h8.2v4.3c0,0.6-0.1,1-0.3,1.2c-0.2,0.2-0.7,0.3-1.3,0.3c-0.4,0-0.6,0-0.8,0c-0.2,0-0.4,0-0.5,0
			c-0.3,0-0.7,0-1.2-0.1c0.1,0.5,0.2,0.8,0.2,1.1c0.4,0,0.6,0,0.8,0c0.2,0,0.4,0,0.6,0c0.4,0,0.7,0,1.1,0c1.7,0,2.6-0.7,2.5-2.2
			v-4.7h3.1v-0.9H236v-1.9H234.9z M233.4,152.6h4.8v-0.9h-4.8v-2.7h-1.1v2.7h-4.8v0.9h4.8v3.2h-5.6v0.9h12.4v-0.9h-5.7V152.6z
			 M244.1,157.3v10.5h1.1v-4.5h10.3v1.7c0,0.5-0.1,0.9-0.3,1.1c-0.2,0.2-0.6,0.3-1.2,0.3c-1.1,0-2,0-2.8,0c0.1,0.3,0.2,0.6,0.3,1.1
			c1.1,0,2,0,2.8,0c1.6,0,2.4-0.7,2.3-2.2v-9.9h-10.7c0.7-0.9,1.3-1.8,1.8-2.6h11.2v-1h-10.6c0.3-0.6,0.7-1.4,1.2-2.4l-1.1-0.3
			c-0.4,0.9-0.9,1.8-1.4,2.7h-6.1v1h5.6c-1.6,2.6-3.7,5-6.3,7.1c0.3,0.3,0.5,0.6,0.7,0.9C242.1,159.4,243.2,158.3,244.1,157.3z
			 M245.1,156.1h10.3v2.6h-10.3V156.1z M245.1,159.7h10.3v2.6h-10.3V159.7z M276.2,164.1v-5.7h-13v5.7h1v-4.7h11v4.7H276.2z
			 M265.5,154.4c-0.3-0.5-0.5-0.8-0.5-1c-1.5,1.2-3.1,2.4-4.7,3.5l0.8,1C262.5,156.7,264,155.5,265.5,154.4z M264.9,151.5
			c-1.1-0.9-2.2-1.6-3.1-2.3l-0.7,0.8c1.1,0.8,2.1,1.5,3.1,2.3L264.9,151.5z M265.6,156.8c0.2,0.3,0.4,0.6,0.6,1
			c3.5-1.1,5.6-2.5,6.2-4.4c0.8,2.1,2.8,3.6,5.9,4.5c0.2-0.3,0.4-0.7,0.6-1c-3.1-0.6-5.1-2.2-6.1-4.7c0-0.2,0.1-0.4,0.1-0.6h4.2
			l-1.1,2.1c0.4,0.1,0.7,0.3,1,0.4l1.2-2.4v-1h-8.9c0.3-0.5,0.5-1,0.7-1.6l-1-0.3c-0.7,1.8-1.7,3.3-3.1,4.7c0.2,0.2,0.5,0.4,0.8,0.7
			c0.8-0.9,1.5-1.8,2-2.7h3.1C271.7,154.2,269.6,155.9,265.6,156.8z M278.2,166.6c-3-1.2-5.8-2.3-8.3-3.3c0-0.1,0.1-0.3,0.1-0.5
			c0-0.1,0-0.2,0-0.2c0.1-0.7,0.2-1.4,0.2-2.1h-1c0,0.8,0,1.4-0.1,1.9c-0.4,2.1-3.1,3.5-8.3,4.1c0.2,0.4,0.4,0.7,0.6,1.1
			c4.5-0.8,7.2-2,8.1-3.5c2.4,0.9,5.2,2.1,8.2,3.4L278.2,166.6z M287.1,156.5l1-0.6c-0.9-1.2-1.6-2.2-2.2-2.9l-0.9,0.6
			C285.6,154.5,286.4,155.5,287.1,156.5z M283.2,159.3v-1.5h15.2v-1h-5.7c0.8-1.1,1.5-2.2,2.2-3.2l-1-0.5c-0.8,1.3-1.5,2.6-2.3,3.8
			h-9.4v2.5c0,1.9-0.1,3.3-0.5,4.5c-0.3,1.1-0.9,2.2-1.6,3.2c0.3,0.2,0.6,0.4,0.9,0.8C282.5,165.6,283.3,162.8,283.2,159.3z
			 M298.9,151.2h-8c-0.2-0.6-0.5-1.4-0.8-2.3l-1.1,0.3c0,0,0,0.1,0.1,0.1c0.3,0.8,0.5,1.4,0.6,1.8h-9.2v1h18.4V151.2z M185.1,204.3
			c2-1.6,4-3.3,5.7-5.1c1.8,1.7,3.5,3.3,5,4.8l0.9-0.9c-2-1.9-3.7-3.5-5.1-4.7c1.5-1.6,3-3.3,4.2-5.1l-0.9-0.6
			c-1.3,1.8-2.6,3.4-4.1,5c-0.7-0.6-1.7-1.6-3.1-2.8c-0.9-0.8-1.6-1.4-2-1.8l-0.8,0.7c1.7,1.5,3.4,3.1,5.1,4.7
			c-1.9,1.9-3.8,3.5-5.8,4.9C184.5,203.6,184.8,203.9,185.1,204.3z M198.4,205.6h-15.6v-14.2H198v-1h-16.3v16.3h16.6V205.6z
			 M217.8,201.7v-8.5h-7.6v-4.3H209v4.3h-7.6v8.5h1.1v-1.1h6.5v7.3h1.1v-7.3h6.6v1.1H217.8z M209,199.6h-6.5v-5.4h6.5V199.6z
			 M210.1,199.6v-5.4h6.6v5.4H210.1z M232.4,194.2c-1.1-1.9-2.2-3.7-3.3-5.3l-1,0.5c1.1,1.8,2.2,3.6,3.2,5.4L232.4,194.2z
			 M235.8,194.3l-1.1,0.5c1.2,2.3,2.3,4.6,3.2,6.9l1.2-0.5C238.1,199,237,196.7,235.8,194.3z M221.3,202.8c0.8-2.5,1.4-5.1,2-7.7
			l-1.1-0.3c-0.5,2.6-1.2,5.1-2.1,7.6C220.5,202.5,220.9,202.7,221.3,202.8z M226.3,192.7h-1.1v11.6c0,1.9,0.9,2.9,2.8,2.8h4.3
			c1.9,0,3-0.7,3.2-2.2c0.2-0.8,0.3-1.7,0.5-2.9c-0.3-0.1-0.7-0.2-1.2-0.4c-0.1,1.1-0.2,2-0.3,2.7c-0.2,1.2-1,1.8-2.4,1.7h-3.8
			c-0.7,0-1.3-0.1-1.6-0.4c-0.3-0.3-0.4-0.8-0.4-1.5V192.7z M257.5,204.7c-0.2,0.9-0.9,1.4-2.1,1.3h-2.2c-0.7,0-1.2-0.1-1.5-0.4
			c-0.3-0.2-0.4-0.7-0.4-1.4v-5.4c2.5-1.8,4.7-4,6.7-6.5l-1-0.6c-1.7,2.2-3.6,4.1-5.7,5.8v-8.1h-1.1v8.9c-1.4,1-3,1.9-4.8,2.7
			c0.3,0.4,0.5,0.7,0.7,1c1.4-0.7,2.8-1.5,4.1-2.4v4.8c-0.1,1.9,0.8,2.8,2.7,2.8h2.5c1.8,0,2.8-0.7,3.1-2.1c0.2-0.9,0.3-2,0.5-3.4
			c-0.3-0.1-0.6-0.2-1.1-0.4C257.9,202.8,257.7,204,257.5,204.7z M243.2,196.3v11.4h1.1v-13.3c0.9-1.7,1.7-3.3,2.4-4.9l-1.1-0.3
			c-1.4,3.8-3.3,6.9-5.5,9.6c0.3,0.3,0.5,0.7,0.7,1.1C241.7,198.7,242.5,197.5,243.2,196.3z M263.3,197.9v9.9h1v-9.2
			c1,1,1.7,1.9,2.2,2.5l0.8-0.7c-0.6-0.6-1.4-1.5-2.4-2.5l-0.7,0.5v-2.7h2.7v-0.9h-2.7v-3.7c0.4,0,1.1-0.1,2-0.2
			c0.3,0,0.6-0.1,0.7-0.1l-0.2-0.9c-2.1,0.2-4.2,0.4-6.4,0.5c0.1,0.2,0.1,0.5,0.2,0.9c0,0,0,0.1,0,0.1c1.1,0,2-0.1,2.7-0.1v3.6h-3
			v0.9h2.9c-0.7,2.7-1.8,5-3.3,7.1c0.3,0.4,0.5,0.7,0.6,1C261.7,202.1,262.7,200.2,263.3,197.9z M273.5,202.6h4.5v-0.9h-4.5v-3.1
			h4.9v-0.9h-10.9v0.9h4.9v3.1H268v0.9h4.5v3.2h-6v0.9h12.6v-0.9h-5.6V202.6z M268.4,195.4h9.3v-5.2h-9.3V195.4z M269.4,191.1h7.2
			v3.3h-7.2V191.1z M295,198.4v-3h3.6v-0.9H295v-1.7h-1v1.7h-6v-1.7h-1v1.7h-2.9v0.9h2.9v3H295z M288,195.4h6v2.1h-6V195.4z
			 M282.1,197.6c0,2.6-0.1,4.5-0.4,5.6c-0.2,1.1-0.8,2.4-1.7,3.9c0.3,0.2,0.6,0.5,0.8,0.7c0.9-1.5,1.5-2.9,1.8-4.2
			c0.3-1.3,0.5-3.3,0.4-5.8v-5.6h15.6v-1h-7.4c-0.1-0.6-0.3-1.4-0.5-2.2l-1.1,0.2c0,0.2,0.1,0.4,0.2,0.7c0.1,0.6,0.2,1,0.3,1.3h-8.2
			V197.6z M298.3,207.6c0.1-0.4,0.3-0.7,0.5-1.1c-2.8-0.4-5.1-0.9-6.8-1.7c1.5-0.8,2.9-2,4.3-3.6v-1h-11.7v0.9h1.3
			c1.1,1.6,2.4,2.8,3.9,3.6c-1.9,0.8-4.2,1.5-6.8,2c0.2,0.3,0.4,0.6,0.6,1c3.1-0.7,5.6-1.5,7.3-2.4
			C292.8,206.3,295.3,207.1,298.3,207.6z M287.2,201.2h7.9c-1.2,1.3-2.6,2.3-4.1,3.1C289.6,203.6,288.3,202.5,287.2,201.2z
			 M193.4,241.1h3.7v0.8h1v-8.6h-4.5v-2.2h5.3v-0.9h-11.3v0.9h5v2.2H188v7.7h4.4c-0.2,1.3-0.6,2.3-1.2,3c-0.8-0.6-1.5-1.4-2.2-2.4
			l-0.8,0.6c0.8,1.1,1.5,1.9,2.2,2.5c-0.8,0.7-2.4,1.4-4.7,2.1c0.2,0.3,0.4,0.6,0.6,0.9c2.4-0.8,4-1.6,4.9-2.4
			c1.5,1,3.9,1.8,7.2,2.1c0.2-0.4,0.3-0.8,0.5-1c-3.2-0.3-5.6-0.9-7-1.8C192.8,243.8,193.2,242.6,193.4,241.1z M193.6,234.2h3.6v2.5
			h-3.6V234.2z M193.6,237.6h3.6v2.5h-3.7C193.5,239.2,193.6,238.4,193.6,237.6z M189,234.2h3.6v2.5H189V234.2z M189,240.2v-2.5h3.6
			c0,0.9,0,1.7-0.1,2.5H189z M180.7,240.7c0.5-0.8,0.9-1.6,1.3-2.4v7.8h0.9v-1.4h3.2V236H183c0.6-1.5,1-3,1.3-4.6h2.5v-0.9h-6.3v0.9
			h2.8c-0.6,3.1-1.7,5.9-3.4,8.5c0,0,0.1,0.1,0.2,0.2C180.4,240.4,180.6,240.6,180.7,240.7z M182.9,236.9h2.3v6.9h-2.3V236.9z
			 M213.8,234.6h4.7v-1h-4.7V229h-1.1v4.5h-3.8c0.3-0.8,0.6-1.8,0.9-2.8l-1.1-0.3c-0.7,2.7-1.6,5.1-2.8,7.2c0.4,0.2,0.8,0.4,1,0.6
			c0.6-1.2,1.2-2.4,1.6-3.6h4.2v5.3h-7.2v1h7.2v6.9h1.1v-6.9h5.3v-1h-5.3V234.6z M200.1,238.6c0.2,0.5,0.4,0.8,0.5,1.2
			c0.8-1.1,1.5-2.4,2.3-3.8v11.8h1.1v-14.1c0.6-1.5,1.2-2.9,1.5-4.2l-1.1-0.3C203.4,232.7,201.9,235.9,200.1,238.6z M233,230.1
			c0.9,0.7,1.8,1.5,2.8,2.3l0.7-0.8c-1-0.8-2-1.6-2.9-2.2L233,230.1z M238.1,242.6c-0.2,1.1-0.3,2-0.6,2.7c-0.2,0.9-0.6,1.3-1.2,1.2
			c-1.1,0-2.1-1-3-3c1.4-0.9,2.8-2.1,4.1-3.6l-0.8-0.6c-1.3,1.3-2.5,2.4-3.8,3.2c0-0.1-0.1-0.2-0.1-0.3c0-0.1,0-0.1-0.1-0.2
			c-0.4-1.2-0.7-2.3-0.9-3.5l6.5-0.8l-0.1-0.9l-6.6,0.8c-0.1-1.1-0.3-2.2-0.3-3.1l6.7-0.8l-0.1-0.9l-6.7,0.7
			c-0.1-1.5-0.1-3.1-0.2-4.6h-1.1c0,1.7,0.1,3.3,0.2,4.7l-2.8,0.3l0.2,0.9l2.7-0.3c0.1,1.1,0.2,2.1,0.3,3.1l-3.2,0.4l0.2,0.9
			l3.2-0.4c0.2,1.3,0.5,2.6,1,3.9c0.1,0.2,0.1,0.4,0.2,0.6c-1.4,0.8-3.1,1.6-5.2,2.3c0.3,0.3,0.4,0.6,0.6,1c2-0.7,3.7-1.5,5-2.3
			c1,2.3,2.4,3.5,3.9,3.5c1,0,1.7-0.6,2-1.8c0.2-0.7,0.4-1.6,0.6-2.8C238.7,242.9,238.4,242.7,238.1,242.6z M220.8,236.4
			c0.8-1,1.5-2.2,2.1-3.5h4.2v-0.9h-3.8c0.3-0.8,0.7-1.6,1-2.5l-1-0.3c-0.8,2.5-1.9,4.7-3.3,6.4
			C220.4,235.8,220.6,236.1,220.8,236.4z M226.9,242.7c-0.9,0.9-1.8,1.8-2.6,2.5v-4.8h2.9v-0.9h-2.9v-3.1h2.4v-0.9h-5v0.9h1.5v3.1
			h-3v0.9h3v4.9c0,0.5-0.1,0.9-0.4,1.3l0.8,0.7c0.3-0.4,0.5-0.7,0.7-0.9c1-0.9,2-1.8,2.9-2.7C227.2,243.5,227.1,243.1,226.9,242.7z
			 M251.2,240.5v-5.4h-8.3v9.3c0,1.8,0.9,2.7,2.8,2.7h9.7c1.9,0,2.9-0.7,3.2-2c0.2-0.7,0.3-1.7,0.5-2.9c-0.4-0.1-0.7-0.2-1.1-0.4
			c-0.1,1.1-0.2,2.1-0.4,2.8c-0.1,1-0.9,1.4-2.3,1.4h-9.3c-1.4,0.1-2-0.5-2-1.7v-3.8H251.2z M243.9,236h6.2v3.5h-6.2V236z
			 M244.6,232.2h10.8c0,3-0.1,5.7-0.3,8.2c0,1.5-0.8,2.2-2.2,2.1c-1,0-1.8,0-2.5-0.1c0.1,0.4,0.2,0.8,0.2,1.2c0.3,0,0.6,0,0.8,0
			c0.2,0,0.4,0,0.5,0c0.3,0,0.7,0,1.1,0c2.1,0.1,3.2-1,3.2-3.2c0.1-3.4,0.2-6.4,0.3-9.2h-11.4c0.3-0.7,0.6-1.3,1-2.1l-1.1-0.3
			c-1.1,2.9-2.7,5.5-4.9,7.8c0.2,0.2,0.4,0.5,0.7,0.9C242.4,235.7,243.7,233.9,244.6,232.2z M269.2,228.9v2.8h-8.9v1h8.9v3.3h-7v1
			h1.9c1.1,2.9,2.6,5.2,4.6,6.8c-1.9,1.2-4.7,2.2-8.3,3c0.3,0.4,0.5,0.8,0.6,1c3.8-0.9,6.7-2.1,8.6-3.4c1.5,1.2,4.4,2.2,8.6,3
			c0.1-0.3,0.4-0.6,0.6-1c0,0,0-0.1,0.1-0.1c-3.8-0.7-6.6-1.6-8.3-2.7c2.3-1.7,4-3.9,5.2-6.7v-1h-5.5v-3.3h8.5v-1h-8.5v-2.8H269.2z
			 M274.6,237.1c-1.1,2.6-2.8,4.7-4.9,6.1c-1.9-1.3-3.3-3.3-4.4-6.1H274.6z M293.4,232.6h4.8v-0.9h-4.8v-2.7h-1.1v2.7h-4.8v0.9h4.8
			v3.2h-5.6v0.9h12.4v-0.9h-5.7V232.6z M288.5,241.5l-0.8,0.7c0.9,0.9,1.8,1.8,2.7,2.7l0.8-0.7C290.7,243.6,289.8,242.7,288.5,241.5
			z M286.4,237.9c-0.3,0.1-0.8,0.2-1.4,0.4c-0.4,0.1-0.7,0.2-0.9,0.2v-4.4h2.3v-1H284v-4.2h-1v4.2h-2.7v1h2.7v4.7
			c-0.5,0.1-1.3,0.3-2.3,0.5c-0.3,0.1-0.5,0.1-0.6,0.1l0.2,1.1c0.3-0.1,0.7-0.2,1.3-0.3c0.7-0.2,1.1-0.3,1.5-0.4v5.5
			c0,0.7-0.3,1.1-1,1c-0.7,0-1.3,0-1.6,0c0.1,0.4,0.2,0.8,0.2,1.2c0.5,0,1.1,0,1.6,0c1.3,0,1.9-0.6,1.8-2v-6c0.2,0,0.5-0.1,1-0.2
			c0.6-0.1,1.1-0.3,1.4-0.3c0-0.2,0-0.4,0-0.6C286.4,238.2,286.4,238.1,286.4,237.9z M296,237.8h-1.1v1.9h-8.2v0.9h8.2v4.3
			c0,0.6-0.1,1-0.3,1.2c-0.2,0.2-0.7,0.3-1.3,0.3c-0.4,0-0.6,0-0.8,0c-0.2,0-0.4,0-0.5,0c-0.3,0-0.7,0-1.2-0.1
			c0.1,0.5,0.2,0.8,0.2,1.1c0.4,0,0.6,0,0.8,0c0.2,0,0.4,0,0.6,0c0.4,0,0.7,0,1.1,0c1.7,0,2.6-0.7,2.5-2.2v-4.7h3.1v-0.9H296V237.8z
			 M190.2,315.8v0.9h5.9v-0.9H190.2z M187.5,319.6h2.2l-0.9,3.1h7.3c-0.1,0.7-0.1,1.5-0.2,2.1c-0.1,1-0.7,1.5-1.8,1.5
			c-0.1,0-0.3,0-0.5,0c-0.2,0-0.4,0-0.7,0c-0.4,0-1,0-1.8-0.1c0.1,0.4,0.2,0.8,0.3,1.1c1.1,0,2.1,0,2.9,0c1.7,0,2.6-0.7,2.7-2.3
			c0.1-0.8,0.2-1.9,0.3-3.2h-7.1l0.6-2.2h7.9v-0.9h-11.2V319.6z M194.5,312.3h3.9v-0.9h-5.6c0.3-0.7,0.6-1.4,0.9-2.2l-1-0.2
			c-0.3,0.9-0.6,1.8-1,2.5h-3.9v0.9h3.4c-0.8,1.5-2.3,2.9-4.3,4.2c0.3,0.3,0.5,0.6,0.7,0.8c2.2-1.5,3.8-3.2,4.7-5.1h1.1
			c1,2,2.6,3.6,4.9,4.8c0,0,0-0.1,0.1-0.1c0.2-0.4,0.4-0.6,0.5-0.8C197.1,315.3,195.6,314,194.5,312.3z M181.2,317.9v7.5
			c-0.4,0.1-0.8,0.1-1.1,0.2l0.2,1.1c2.9-0.6,5.3-1.1,7.2-1.5c0-0.2,0-0.4,0-0.6c0-0.1,0-0.3,0-0.4c-0.3,0.1-0.7,0.2-1.3,0.3
			c-0.6,0.1-1,0.2-1.3,0.3v-4.6h2.1v-0.9h-2.1V316h1.8v-5.9h-5.4v5.9h2.7v9c-0.2,0-0.4,0.1-0.8,0.2c-0.4,0.1-0.7,0.1-0.9,0.2v-7.4
			H181.2z M182.2,315.1V311h3.5v4.1H182.2z M203.7,316.5h1.9v-0.9h-4.1v0.9h1.2v2.8h-2.5v0.9h2.5v4.2c0,0.4,0,0.7-0.1,1
			c-0.1,0.3-0.2,0.5-0.4,0.8l0.7,0.8c0.3-0.4,0.6-0.6,0.8-0.8c0.7-0.7,1.6-1.5,2.5-2.3l-0.2-1.1l-2.3,2.2v-4.7h2.6v-0.9h-2.6V316.5z
			 M203.8,309.2l-1-0.2c-0.7,2.5-1.6,4.7-2.7,6.5c0.3,0.2,0.6,0.5,0.8,0.7c0.7-1.2,1.3-2.3,1.6-3.2h3.7v-0.9h-3.3
			C203.1,311.4,203.4,310.4,203.8,309.2z M208,309.3l-0.9,0.3c0.6,1.5,1,2.8,1.4,3.9l1-0.3C209.2,312.2,208.7,310.9,208,309.3z
			 M207.8,324.3c-0.9,1.1-1.6,2-2.1,2.6l0.8,0.7c0.7-1.1,1.4-2,2-2.7c1.1,1.5,2.7,2.3,4.8,2.3c2.2,0.1,4,0.1,5.4,0.1
			c0.1-0.4,0.2-0.7,0.3-1.1c-0.9,0-1.9,0-2.8,0c-0.9,0-1.9,0-2.8,0c-1.9,0-3.4-0.7-4.4-2.2v-7.9h-2.5v0.9h1.6v6.9
			C208,324,208,324.1,207.8,324.3z M210.4,321.3v0.9h4.3v3.1h1v-3.1h3.2v-0.9h-3.2v-2.9h2.7v-0.9h-2.7v-3.5h-1v3.5H212
			c0.6-1.5,1.2-3.1,1.7-4.9h5v-0.9H214c0.2-0.7,0.5-1.5,0.7-2.5l-1-0.2c-0.2,0.9-0.5,1.8-0.7,2.7h-2.3v0.9h2
			c-0.5,1.8-1.1,3.4-1.7,4.7v1.2h3.7v2.9H210.4z M229.2,308.9v2.8h-8.9v1h8.9v3.3h-7v1h1.9c1.1,2.9,2.6,5.2,4.6,6.8
			c-1.9,1.2-4.7,2.2-8.3,3c0.3,0.4,0.5,0.8,0.6,1c3.8-0.9,6.7-2.1,8.6-3.4c1.5,1.2,4.4,2.2,8.6,3c0.1-0.3,0.4-0.6,0.6-1
			c0,0,0-0.1,0.1-0.1c-3.8-0.7-6.6-1.6-8.3-2.7c2.3-1.7,4-3.9,5.2-6.7v-1h-5.5v-3.3h8.5v-1h-8.5v-2.8H229.2z M234.6,317.1
			c-1.1,2.6-2.8,4.7-4.9,6.1c-1.9-1.3-3.3-3.3-4.4-6.1H234.6z M240.7,319.3c-0.3,0.1-0.5,0.1-0.6,0.1l0.2,1.1
			c0.3-0.1,0.7-0.2,1.3-0.3c0.7-0.2,1.1-0.3,1.5-0.4v5.5c0,0.7-0.3,1.1-1,1c-0.7,0-1.3,0-1.6,0c0.1,0.4,0.2,0.8,0.2,1.2
			c0.5,0,1.1,0,1.6,0c1.3,0,1.9-0.6,1.8-2v-6c0.2,0,0.5-0.1,1-0.2c0.6-0.1,1.1-0.3,1.4-0.3c0-0.2,0-0.4,0-0.6c0-0.2,0-0.3,0-0.5
			c-0.3,0.1-0.8,0.2-1.4,0.4c-0.4,0.1-0.7,0.2-0.9,0.2v-4.4h2.3v-1H244v-4.2h-1v4.2h-2.7v1h2.7v4.7
			C242.5,318.9,241.7,319.1,240.7,319.3z M251.3,324.2c-0.5-0.5-1.5-1.4-2.8-2.7l-0.8,0.7c0.9,0.9,1.8,1.8,2.7,2.7L251.3,324.2z
			 M254.9,317.8v1.9h-8.2v0.9h8.2v4.3c0,0.6-0.1,1-0.3,1.2c-0.2,0.2-0.7,0.3-1.3,0.3c-0.4,0-0.6,0-0.8,0c-0.2,0-0.4,0-0.5,0
			c-0.3,0-0.7,0-1.2-0.1c0.1,0.5,0.2,0.8,0.2,1.1c0.4,0,0.6,0,0.8,0c0.2,0,0.4,0,0.6,0c0.4,0,0.7,0,1.1,0c1.7,0,2.6-0.7,2.5-2.2
			v-4.7h3.1v-0.9H256v-1.9H254.9z M253.4,312.6h4.8v-0.9h-4.8v-2.7h-1.1v2.7h-4.8v0.9h4.8v3.2h-5.6v0.9h12.4v-0.9h-5.7V312.6z
			 M198.5,351.5h-6.4l0.7-0.3c-0.4-0.8-0.8-1.6-1.2-2.3l-1,0.4c0.4,0.6,0.8,1.3,1.2,2.2h-6.5v1h5c-1.3,1.5-2.4,2.7-3.4,3.5
			c-0.4,0.3-0.8,0.6-1.2,0.8l0.5,1c0.5-0.1,1-0.1,1.6-0.1c0.2,0,0.6,0,1.1,0c3.1-0.1,5.6-0.2,7.6-0.2c0.1,0.2,0.4,0.4,0.6,0.8
			c0.2,0.2,0.3,0.4,0.4,0.5l0.9-0.7c-1.3-1.5-2.6-2.9-3.9-4.2l-0.8,0.6c0.7,0.7,1.4,1.4,2,2.1c-3,0.1-5.6,0.2-8.1,0.2
			c1.3-1.2,2.7-2.5,4-3.9l-0.7-0.3h7.8V351.5z M198.1,363c-0.1,0.9-0.1,1.7-0.2,2.4c-0.1,0.6-0.4,1-0.9,1h-0.5c-0.7,0-1-0.3-1-1V359
			h-1v6.5c0,1.2,0.6,1.8,1.8,1.8h0.9c1,0,1.5-0.5,1.7-1.6c0.1-0.6,0.2-1.4,0.3-2.4C198.8,363.2,198.4,363.1,198.1,363z M187.5,364.6
			c0.5-1.1,0.7-3,0.7-5.5h-1c0,2.4-0.2,4-0.6,5.1c-0.4,1-1.2,2-2.5,2.9c0.3,0.3,0.6,0.5,0.8,0.8C186.1,366.8,187,365.8,187.5,364.6z
			 M183.1,357.7l0.8-0.8c-0.9-0.7-1.9-1.5-3-2.4l-0.7,0.7C181.3,356.1,182.2,356.9,183.1,357.7z M184.5,351.8c-1.1-1-2.1-1.8-3-2.5
			l-0.7,0.7c1.1,0.9,2.1,1.8,2.9,2.6L184.5,351.8z M190.8,367.4h1v-8.3h-1V367.4z M180.6,367.1l1.1,0.4c0.5-1.9,1.2-4.3,2.1-7.1
			c-0.4-0.1-0.7-0.3-1-0.4C182,362.8,181.3,365.2,180.6,367.1z M212.2,349c0,1.4,0,2.8-0.1,4.1h-3v1h3c0,0.2,0,0.6,0,1
			c0,0.4,0,0.7,0,0.8c-0.1,4.8-1.4,8.5-4.1,11.1c0.4,0.3,0.7,0.6,0.9,0.8c2.8-3,4.2-6.9,4.2-11.8c0-0.6,0-1.3,0.1-2h4.1
			c0,2.6-0.1,6-0.3,10.1c0,1.3-0.7,2-1.9,2c-0.8,0-1.6,0-2.6-0.1c0.1,0.4,0.3,0.8,0.4,1.3c0.4,0,0.6,0,0.8,0c0.2,0,0.4,0,0.6,0
			c0.4,0,0.7,0,1,0c1.8,0,2.7-1,2.8-3.1c0.1-2.1,0.2-5.8,0.3-11.1h-5.2c0-1.5,0.1-2.8,0.1-4.1H212.2z M200.3,364.3l0.5,1
			c0.3-0.1,0.7-0.2,1.2-0.2c2-0.2,3.9-0.4,5.7-0.5c0.1,0.1,0.2,0.4,0.3,0.6c0.1,0.1,0.1,0.2,0.1,0.3l1-0.5c-0.8-1.8-1.6-3.5-2.5-5.1
			l-1,0.4c0.6,1.1,1.1,2.2,1.6,3.4c-1.9,0.2-3.7,0.3-5.4,0.4c1-2,2-4.2,3.1-6.8h4.4v-1h-9v1h3.4c-0.8,2.2-1.6,4.1-2.4,5.7
			C201,363.5,200.6,364,200.3,364.3z M201.1,350.7v1h7.4v-1H201.1z M223.9,349h-1.1v18.9h1.1V349z M226.6,354.8
			c-0.5-0.8-1-1.6-1.6-2.5l-0.8,0.5c0.5,0.8,1,1.6,1.6,2.6L226.6,354.8z M239,365.9h-5.7v-5.5h4.8v-1h-4.8v-5h5.1v-1h-5.1V349h-1.1
			v4.3h-3.2c0.3-0.7,0.5-1.7,0.8-2.8l-1.1-0.3c-0.6,2.5-1.4,4.7-2.6,6.8c0.4,0.2,0.8,0.4,1,0.6c0.6-1.2,1.1-2.3,1.5-3.4h3.6v5h-5.1
			v1h5.1v5.5H226v1H239V365.9z M221.9,353.6l-1-0.2c-0.2,1.4-0.5,3-0.8,4.5c0.4,0,0.7,0.1,1,0.2
			C221.5,356.5,221.7,354.9,221.9,353.6z M241.1,367.5c2.1-1.2,4.2-2.6,6.5-4.2l-0.8-0.8c-2,1.5-4.1,2.8-6.4,4.1
			C240.7,366.9,240.9,367.2,241.1,367.5z M259,359.9h-5.1V354h4.3v-1h-4.3v-3.9h-1.1v3.9h-6.5v-3.9h-1.1v3.9H241v1h4.3v5.8h-5.1v1
			H259V359.9z M252.8,359.9h-6.5V354h6.5V359.9z M258.4,366.6c-1.9-1.3-4-2.6-6.3-4.1l-0.7,0.8c1.9,1.2,4,2.6,6.2,4.1L258.4,366.6z
			 M260.4,352.2h18.4v-0.9h-8.3c-0.3-0.8-0.5-1.6-0.8-2.4l-1.1,0.3c0.3,0.7,0.5,1.4,0.8,2.1h-9V352.2z M276,357.5v-3.7h-13v3.7H276z
			 M264.1,354.7H275v1.8h-10.9V354.7z M268.9,366.4c-0.2,0.2-0.6,0.3-1.2,0.3c-0.9,0-1.7,0-2.5-0.1c0.1,0.4,0.2,0.8,0.2,1.1
			c0.4,0,0.7,0,0.9,0c0.2,0,0.4,0,0.6,0c0.4,0,0.7,0,1.1,0c1.6,0,2.3-0.7,2.3-2.2v-1.7h8.7v-0.9h-8.7v-0.5l6-2.1v-1h-14.4v0.9H274
			l-4.7,1.5v1.1h-9.1v0.9h9.1v1.6C269.3,365.8,269.1,366.2,268.9,366.4z M198.3,400.1v-0.9h-5.8v0.8h0.6c0.4,1.8,1,3.3,1.9,4.4
			c-0.8,0.9-1.8,1.7-3,2.4c0.2,0.3,0.4,0.5,0.6,0.8c1.2-0.8,2.2-1.6,3-2.5c0.7,0.7,1.7,1.5,3,2.2c0.2-0.3,0.3-0.5,0.6-0.8
			c-1.3-0.7-2.2-1.4-2.9-2.1C197.2,403.2,197.9,401.8,198.3,400.1z M194,400h3.4c-0.4,1.4-1,2.6-1.8,3.7
			C194.9,402.7,194.4,401.5,194,400z M199,397.7v-0.9h-13.4v0.9h0.9v7.7c-0.3,0-0.8,0.1-1.5,0.2l0.2,0.9c2.1-0.4,4-0.7,5.6-1v2.3h1
			v-2.5c0,0,0.1,0,0.2,0c0.4-0.1,0.7-0.1,0.9-0.1c0-0.1,0-0.2,0-0.4c0-0.1,0-0.3,0-0.5c-0.2,0.1-0.6,0.1-1.1,0.2v-6.8H199z
			 M190.8,404.6c-0.4,0.1-0.9,0.1-1.6,0.3c-0.7,0.1-1.3,0.2-1.6,0.3V403h3.3V404.6z M190.8,402.2h-3.3v-1.8h3.3V402.2z M190.8,399.5
			h-3.3v-1.8h3.3V399.5z M181.6,406.6c-0.3,0-0.7,0-1.3,0c0.1,0.4,0.1,0.8,0.2,1c0.5,0,0.9,0,1.4,0c1.2,0,1.8-0.7,1.7-2v-5.9
			c0.5-0.1,1.1-0.3,1.9-0.6c-0.1-0.3-0.1-0.7-0.1-1c-0.2,0.1-0.4,0.1-0.8,0.2c-0.5,0.1-0.8,0.2-1.1,0.3v-4.7h1.9V393h-1.9v-3.9h-1
			v3.9h-2.2v0.9h2.2v5c-0.7,0.2-1.5,0.4-2.4,0.7l0.1,1.1c0.8-0.3,1.6-0.5,2.3-0.7v5.6C182.6,406.3,182.3,406.6,181.6,406.6z
			 M197.5,389.9h-10.3v5.4h10.3V389.9z M196.5,394.5h-8.3V393h8.3V394.5z M196.5,392.2h-8.3v-1.5h8.3V392.2z M204.1,395.7v1h11v-1
			H204.1z M203,407.8h1.1v-1.3h11v1.3h1.1v-8.3H203V407.8z M204,400.5h11v5h-11V400.5z M200.9,397.4c3.8-2,6.7-4.3,8.7-6.8
			c1.9,2.6,4.8,4.7,8.6,6.5c0.2-0.4,0.4-0.7,0.7-1.1c-3.6-1.5-6.5-3.6-8.7-6.3c0-0.1,0.1-0.2,0.2-0.3c0.1-0.2,0.2-0.3,0.3-0.4
			l-1.2-0.2c-2.1,3-5.2,5.5-9.4,7.5C200.5,396.7,200.7,397.1,200.9,397.4z M225.7,395.4l0.9-0.6c-0.5-0.8-1-1.6-1.6-2.5l-0.8,0.5
			C224.7,393.6,225.2,394.4,225.7,395.4z M222.9,407.8h1.1V389h-1.1V407.8z M221.1,398.2c0.3-1.7,0.6-3.2,0.8-4.5l-1-0.2
			c-0.2,1.4-0.5,3-0.8,4.5C220.5,398,220.8,398.1,221.1,398.2z M239,405.9h-5.7v-5.5h4.8v-1h-4.8v-5h5.1v-1h-5.1V389h-1.1v4.3h-3.2
			c0.3-0.7,0.5-1.7,0.8-2.8l-1.1-0.3c-0.6,2.5-1.4,4.7-2.6,6.8c0.4,0.2,0.8,0.4,1,0.6c0.6-1.2,1.1-2.3,1.5-3.4h3.6v5h-5.1v1h5.1v5.5
			H226v1H239V405.9z M240.6,394.8c0.4-0.1,0.9-0.2,1.4-0.2c2.2-0.1,4.4-0.2,6.4-0.3c0.1,0.1,0.2,0.2,0.4,0.4
			c0.3,0.3,0.5,0.6,0.6,0.8l0.9-0.7c-1.2-1.4-2.4-2.7-3.6-3.8l-0.8,0.6c0.5,0.6,1.1,1.2,1.7,1.8c-2.6,0.2-4.5,0.3-5.8,0.3
			c1.3-1.3,2.5-2.8,3.7-4.3l-1-0.5c-1,1.4-2,2.8-3.2,4c-0.4,0.4-0.8,0.7-1.2,0.9L240.6,394.8z M251.2,395.2c0,1.5,0.7,2.2,2.3,2.1
			h2.5c1.4,0,2.3-0.6,2.5-1.9c0.1-0.5,0.2-1.2,0.4-2c-0.3-0.1-0.7-0.2-1-0.4c-0.1,0.8-0.2,1.5-0.3,2.1c-0.1,0.8-0.7,1.2-1.7,1.2
			h-2.2c-1,0-1.5-0.4-1.5-1.3v-1.2c2.1-0.8,4.1-1.7,6.1-2.8l-0.6-0.9c-1.7,1-3.5,1.9-5.5,2.6V389h-1V395.2z M246.9,407.4
			c1.3,0,1.9-0.6,1.8-1.9v-9.1h-7.4v11.2h1v-4.2h5.3v2.2c0,0.6-0.3,0.9-1.1,0.9c-0.7,0-1.3,0-1.8-0.1c0.1,0.3,0.2,0.7,0.2,1
			C245.7,407.5,246.3,407.4,246.9,407.4z M242.3,397.3h5.3v2.2h-5.3V397.3z M242.3,402.5v-2.2h5.3v2.2H242.3z M253.4,407.3h2.6
			c1.5,0,2.3-0.6,2.5-1.9c0.1-0.5,0.2-1.2,0.3-2c-0.3-0.1-0.6-0.2-1-0.3c-0.1,0.9-0.1,1.6-0.2,2.1c-0.1,0.8-0.7,1.1-1.7,1.1h-2.3
			c-1,0-1.5-0.4-1.5-1.4V403c2.1-0.8,4.3-1.8,6.5-2.9l-0.6-0.9c-1.8,1.1-3.8,2-5.9,2.8v-3.4h-1v6.5
			C251.1,406.6,251.9,407.3,253.4,407.3z M197.3,436.3v-1.1h-8.1v-5.9h-1.2v16.2h-7.8v1.1h18.6v-1.1h-9.7v-9.2H197.3z M218.2,431
			l-0.2-1c-4.8,0.3-10.5,0.5-16.9,0.6c0.1,0.2,0.1,0.6,0.2,1c1.7,0,4.2-0.1,7.8-0.2v3.9h-6.9v10.3h1.1v-9.3h5.8v11.5h1.1v-11.5h6
			v6.6c0,1-0.5,1.5-1.7,1.5c-0.4,0-0.7,0-0.8,0c-0.2,0-0.4,0-0.5,0c-0.3,0-0.5,0-0.8,0c0.1,0.3,0.2,0.7,0.2,1.1c0.5,0,0.9,0,1.3,0
			c0.4,0,0.7,0,1,0c1.7,0,2.5-0.8,2.4-2.4v-7.7h-7.1v-3.9C213.6,431.3,216.3,431.1,218.2,431z M221.9,443.9h1.1v-1.2h6.1v5.2h1.1
			v-5.2h6.1v1.2h1.1V432h-7.2v-3H229v3h-7.2V443.9z M230.1,433h6.1v3.9h-6.1V433z M230.1,437.8h6.1v3.9h-6.1V437.8z M222.9,433h6.1
			v3.9h-6.1V433z M222.9,437.8h6.1v3.9h-6.1V437.8z M242.1,429.6l-0.8,0.7c0.9,0.9,1.8,1.8,2.7,2.8l0.9-0.7
			C244.1,431.5,243.1,430.6,242.1,429.6z M256.2,446.3c-0.2,0.2-0.6,0.3-1.1,0.3c-0.6,0-1,0-1.4,0c-0.4,0-0.8,0-1.2-0.1
			c0.1,0.3,0.2,0.6,0.3,1c0,0,0,0.1,0,0.1c0.8,0,1.7,0,2.6,0c1.5,0,2.3-0.7,2.2-2.1v-7.3h-10.7v9.6h1v-3.5h8.7v1.2
			C256.5,445.8,256.4,446.1,256.2,446.3z M247.9,439h8.7v1.7h-8.7V439z M247.9,443.4v-1.7h8.7v1.7H247.9z M240.1,436.7h2.4v8.3
			c0,0.5-0.1,0.9-0.5,1.2l0.7,0.8c0.3-0.2,0.5-0.5,0.8-0.6c0.6-0.4,1.4-1,2.5-1.6c-0.1-0.4-0.1-0.8-0.2-1.1
			c-0.5,0.4-1.2,0.9-2.2,1.5v-9.4h-3.4V436.7z M259,435.8h-6.4v-1.7h5.5v-0.9h-5.5v-1.7h6.1v-0.9h-6.1v-1.7h-1v1.7h-5.7v0.9h5.7v1.7
			h-5.3v0.9h5.3v1.7h-6.3v0.9H259V435.8z M199.1,525.5h-5.5V516h4.8v-1h-4.8v-5.8h-1.1v5.8h-4.6v1h4.6v9.6h-5.7v1h12.3V525.5z
			 M180.6,522.3c1.3-1.7,2.2-3.7,2.8-6.1v11.5h1.1v-10.2c0.6,0.6,1.5,1.6,2.5,2.8l0.8-0.7c-0.8-0.8-1.7-1.8-2.7-2.8l-0.7,0.6V514h3
			v-1h-3v-3.9h-1.1v3.9h-3v1h2.9c-0.7,2.9-1.8,5.3-3.4,7.3C180.2,521.6,180.4,522,180.6,522.3z M200.5,516.6
			c0.8-0.1,1.9-0.1,3.4-0.1c-0.7,1.1-1.4,2.1-2,2.9c-0.5,0.6-1,1.1-1.4,1.4l0.4,1c1-0.1,2.7-0.3,5.2-0.5c0-0.1,0-0.1,0-0.2
			c0-0.3,0.1-0.6,0.1-0.7c-1,0.1-2.4,0.2-4.1,0.3c1.5-1.9,3-4.1,4.7-6.7l-1-0.5c-0.5,0.9-1,1.6-1.3,2.1c-0.6,0-1.3,0-2.2,0.1
			c-0.4,0-0.7,0-0.8,0c1.3-1.9,2.7-3.9,4-6.2l-1.1-0.4c-0.8,1.7-1.8,3.4-2.9,5.1c-0.4,0.6-0.8,1.1-1.2,1.4L200.5,516.6z
			 M200.3,526.2c2.2-0.4,4.2-0.8,6-1c0-0.4,0-0.7,0.1-1c-2.1,0.4-4.2,0.7-6.3,1L200.3,526.2z M218,522.6c-0.1,0.9-0.2,1.6-0.3,2.1
			c-0.2,1.1-0.9,1.6-2.1,1.6h-5.4c-1.2,0-1.8-0.5-1.7-1.5v-3.9h9.1V515h-3.8l2.2-3v-1h-5.3c0.2-0.3,0.5-0.8,0.8-1.4
			c0.1-0.2,0.2-0.3,0.2-0.4l-1.1-0.2c-1.3,2.5-2.8,4.7-4.5,6.5c0.2,0.3,0.4,0.6,0.6,0.9c0.3-0.3,0.5-0.6,0.6-0.7v9.4
			c0,1.5,0.8,2.3,2.5,2.3h5.9c1.6,0,2.6-0.7,2.9-2.2c0.1-0.5,0.2-1.2,0.3-2.2C218.7,522.8,218.3,522.7,218,522.6z M212.1,519.9h-3.5
			v-3.9h3.5V519.9z M216.7,515.9v3.9h-3.6v-3.9H216.7z M208,515c0.7-0.9,1.5-1.9,2.2-3.1h4.7l-2.2,3.1H208z M230.1,512.2
			c0-0.5,0.1-1.2,0.1-2.1c0-0.4,0-0.7,0-0.9h-1.2c0,1.2,0,2.1-0.1,2.8c0,0.7-0.1,1.4-0.2,2.1c-0.7,5.5-3.5,9.7-8.5,12.6
			c0.2,0.2,0.5,0.5,0.8,0.9c5-2.9,7.8-7.1,8.5-12.7c0.6,5.7,3.5,9.9,8.5,12.5c0.3-0.4,0.5-0.7,0.8-1
			C233.8,524.1,230.9,519.4,230.1,512.2z M251.1,518.3l-0.8,0.6c1.3,1.3,2.3,2.4,3,3.3l0.9-0.8C253.3,520.4,252.3,519.4,251.1,518.3
			z M242.4,510.1c1,0.9,2,1.9,2.8,2.8l0.9-0.8c-1.1-1.1-2.1-2-2.9-2.7L242.4,510.1z M240.6,526.9c0.3,0.3,0.6,0.6,0.9,0.9
			c4.8-3,7.5-7.2,7.9-12.7h7.4c0,3-0.2,5.8-0.3,8.2c-0.1,1.1-0.3,1.8-0.7,2.1c-0.4,0.4-1,0.6-2.1,0.6c-1.7,0-2.9,0-3.6-0.1
			c0.1,0.4,0.2,0.8,0.3,1.3c1.2,0,2.3,0,3.5,0c2.4,0.1,3.6-1.2,3.7-3.9c0.2-3.1,0.3-6.2,0.3-9.3h-8.3c0.2-1.4,0.3-3.1,0.3-5.2h-1.1
			c0,2-0.1,3.7-0.3,5.2h-7.5v1.1h7.3C248,520.1,245.4,524,240.6,526.9z M270.2,511.5h7.3v-1.1h-15.8v1.1h7.3v6.1h-8.9v1.1h8.9v9.2
			h1.2v-9.2h8.9v-1.1h-8.9V511.5z M299,510.9v-1h-10.6v1h4.5l-0.5,3.1h-3.3v9.2h1V515h7v8.2h1v-9.1h-4.8l0.6-3.1H299z M294.1,518.9
			v-2.7h-1v2.6c0,2.1-0.4,3.7-1.2,4.7c-0.8,1.1-2.4,2.2-4.9,3.4c0.3,0.3,0.5,0.6,0.7,0.9c3.1-1.6,4.9-3.2,5.6-4.7
			c1.5,1.3,3.2,2.8,4.9,4.4l0.8-0.9c-1.4-1.2-3.2-2.7-5.3-4.5C294,521.3,294.2,520.2,294.1,518.9z M287.2,510h-6.7v0.9h5.6l-2.5,3
			c-0.5-0.5-1-1-1.5-1.4l-0.7,0.6c1.2,1.1,2.2,2.2,3,3.1h-4.3v1h3.2v8.3c0,0.8-0.4,1.1-1.2,1.1c-0.6,0-1.2,0-1.6-0.1
			c0.1,0.3,0.1,0.6,0.2,1.1c0.2,0,0.4,0,0.5,0c0.1,0,0.3,0,0.4,0c0.3,0,0.5,0,0.8,0c1.3,0,1.9-0.7,1.9-2.1v-8.4h2.5l-1,3.1
			c0.4,0.1,0.7,0.1,1,0.3l1-3.3v-1h-3.3l0.7-0.6c-0.1-0.1-0.2-0.2-0.3-0.3c-0.3-0.3-0.5-0.5-0.6-0.6l3-3.5V510z M198.5,558
			c-2.1-1.4-4.1-2.7-5.9-3.9l-0.7,0.8c2.1,1.4,4.1,2.8,5.8,4.1L198.5,558z M186.5,554.1c-1.8,1.7-3.8,3.1-5.8,4.3
			c0.3,0.4,0.5,0.7,0.7,1c2.2-1.5,4.1-2.9,5.9-4.4L186.5,554.1z M181,567.8c4.1-1.2,7-2.5,8.6-3.9c1.7,1.4,4.6,2.7,8.5,3.7
			c0.2-0.5,0.4-0.9,0.6-1.1c-3.7-0.8-6.5-2-8.3-3.4c1.3-1.2,2.4-3,3.5-5.2l-1-0.4c-1,2.2-2.1,3.9-3.3,5c-1.3-1.2-2.4-2.8-3.4-4.8
			l-1,0.5c1.1,2.2,2.3,3.9,3.5,5c-1.6,1.3-4.4,2.5-8.4,3.5L181,567.8z M180.5,552.9h18.2v-1h-8.9l0.9-0.5c-0.4-0.8-0.9-1.6-1.4-2.5
			l-1,0.5c0.6,0.9,1,1.7,1.4,2.5h-9.1V552.9z M205.2,559c0.4-0.4,0.8-0.9,1.2-1.5l-1-0.4c-1.3,1.8-2.9,3.4-5,4.6
			c0.3,0.3,0.5,0.6,0.7,0.8c1.3-0.8,2.4-1.6,3.3-2.6h3.6c-1.1,2.4-3.7,4.3-7.7,5.8c0.3,0.3,0.5,0.6,0.7,0.9c4.2-1.6,6.9-3.8,8.1-6.7
			h3.3c-0.6,2.9-2.8,5.3-6.5,7c0.2,0.2,0.5,0.5,0.7,0.9c3.9-1.8,6.2-4.5,6.9-7.8h3.2c0,0.9-0.1,2.1-0.2,3.5c0,2-0.9,2.9-2.5,2.9
			c-0.1,0-0.2,0-0.3,0c-0.8,0-1.7,0-2.5-0.1c0.1,0.4,0.2,0.8,0.2,1.1c0.9,0,1.7,0,2.3,0c2.5,0.1,3.8-1.2,3.8-3.9
			c0.1-1.6,0.2-3.1,0.2-4.5H205.2z M202.8,556.9h13.9v-7.1h-13.9V556.9z M203.9,550.7h11.9v2.1h-11.9V550.7z M203.9,553.8h11.9v2.2
			h-11.9V553.8z M228.8,566c-0.2,0.2-0.7,0.3-1.3,0.3c-0.4,0-0.7,0-1,0c-0.3,0-0.5,0-0.7,0c-0.5,0-0.9,0-1.2,0c0,0,0,0.1,0,0.2
			c0.1,0.4,0.2,0.7,0.2,1c1.4,0,2.4,0,2.9,0c1.8,0,2.6-0.8,2.6-2.4v-3.7h8.8v-1h-8.8v-4.1h7.1v-1h-7.1v-4c2.4-0.1,4.7-0.2,7-0.3
			l-0.2-1c-4.7,0.3-9.9,0.5-15.6,0.6c0.1,0.4,0.2,0.8,0.2,1c2.2,0,4.7-0.1,7.6-0.2v4h-7.5v1h7.5v4.1h-8.9v1h8.9v3.5
			C229.1,565.4,229,565.8,228.8,566z M251.8,557.8c-1-0.6-1.9-1.1-2.8-1.5l-0.5,0.7c0.9,0.5,1.8,1,2.8,1.6L251.8,557.8z
			 M246.9,559.1c0.9,0.5,1.9,1,2.9,1.7l0.5-0.8c-1.2-0.7-2.1-1.2-2.9-1.6L246.9,559.1z M258,552.2v-0.9h-4.7V549h-1v2.3h-4.6v0.9
			h4.6v2.4h-5.4v0.9h10.9l-0.6,2.3c0.4,0,0.7,0.1,1,0.1l0.6-2.4v-1h-5.5v-2.4H258z M259,562.7v-0.9h-5.2c0.2-1.2,0.4-3,0.4-5.3h-1
			c0,2.5-0.1,4.2-0.4,5.3h-6v0.9h5.7c-0.6,1.7-2.8,3-6.6,4.2c0.2,0.3,0.4,0.6,0.6,1c3.2-1.1,5.3-2.3,6.3-3.6
			c1.9,1.1,3.6,2.3,5.4,3.4l0.7-0.9c-1.8-1.1-3.6-2.2-5.6-3.3c0.1-0.2,0.2-0.4,0.3-0.7H259z M240.2,564.9l0.2,1c0.1,0,0.3,0,0.6-0.1
			c2.3-0.4,4-0.6,5.1-0.8c0-0.1,0-0.3,0-0.5c0-0.2,0-0.4,0-0.5C244.1,564.3,242.1,564.6,240.2,564.9z M240.4,556.4
			c0.7-0.1,1.8-0.2,3.2-0.2c-0.7,1.1-1.4,2.1-2.1,3.2c-0.4,0.5-0.7,0.9-1.1,1.1l0.4,1c0.7-0.1,2.4-0.3,5.1-0.5c0-0.4,0.1-0.7,0.1-1
			c-1.6,0.1-3,0.3-4,0.3c1.5-2.2,3.1-4.5,4.6-7.1l-1-0.4c-0.5,0.8-0.9,1.6-1.4,2.4c-0.8,0-1.7,0.1-2.8,0.1c1.2-1.7,2.4-3.7,3.7-6.1
			l-1.1-0.4c-0.9,2-2,3.8-3.1,5.5c-0.2,0.4-0.5,0.7-0.9,0.9L240.4,556.4z M260.2,560.6c0.2,0.3,0.4,0.6,0.6,1
			c1.1-0.3,2.1-0.7,2.9-1.1v4.3h1v-4.2h10.1v3.9h1v-4.8h-10.6c1.1-0.6,1.8-1.5,2.1-2.5h4.5v1.8h1v-1.8h4.6c0,0.1,0,0.3,0,0.6
			c0,0.5-0.3,0.8-0.9,0.7c-0.5,0-1.1,0-1.8,0c0.1,0.3,0.2,0.6,0.2,0.9c0.3,0,0.4,0,0.6,0c0.1,0,0.3,0,0.4,0c0.3,0,0.5,0,0.8,0
			c1,0,1.5-0.5,1.6-1.4c0-0.5,0.1-1,0.1-1.6h-5.6v-2h4.7v-3.7h-4.7V549h-1v1.6H268c0-0.2,0-0.5,0-0.8c0-0.4,0-0.6,0-0.8h-1
			c0,0.2,0,0.4,0,0.8c0,0.4,0,0.7,0,0.9h-5.6v0.9h5.5c0,0.9-0.1,1.5-0.1,1.9h-4.6l-0.6,3.7h4.4C265.6,558.6,263.6,559.7,260.2,560.6
			z M272.9,551.5h3.7v1.9h-3.7V551.5z M268,552.6c0-0.5,0-0.8,0-1.1h3.8v1.9h-3.9C267.9,553.3,267.9,553,268,552.6z M267.9,554.3h4
			v2h-4.2C267.8,555.8,267.8,555.1,267.9,554.3z M262.9,556.3l0.3-2h3.7c0,0.7-0.1,1.4-0.3,2H262.9z M269.6,564.5
			c2.2,0.8,4.9,1.9,8.1,3.2l0.5-1c-2.4-0.9-5.1-1.9-8.2-3c0.2-0.6,0.4-1.2,0.4-2h-1.1c-0.1,1.6-0.7,2.7-1.8,3.3
			c-1.1,0.7-3.2,1.3-6.3,1.8c0.2,0.3,0.4,0.7,0.5,1C266.2,567.1,268.8,566,269.6,564.5z M181,607.8c4.1-1.2,7-2.5,8.6-3.9
			c1.7,1.4,4.6,2.7,8.5,3.7c0.2-0.5,0.4-0.9,0.6-1.1c-3.7-0.8-6.5-2-8.3-3.4c1.3-1.2,2.4-3,3.5-5.2l-1-0.4c-1,2.2-2.1,3.9-3.3,5
			c-1.3-1.2-2.4-2.8-3.4-4.8l-1,0.5c1.1,2.2,2.3,3.9,3.5,5c-1.6,1.3-4.4,2.5-8.4,3.5L181,607.8z M198.5,598
			c-2.1-1.4-4.1-2.7-5.9-3.9l-0.7,0.8c2.1,1.4,4.1,2.8,5.8,4.1L198.5,598z M198.7,591.9h-8.9l0.9-0.5c-0.4-0.8-0.9-1.6-1.4-2.5
			l-1,0.5c0.6,0.9,1,1.7,1.4,2.5h-9.1v1h18.2V591.9z M186.5,594.1c-1.8,1.7-3.8,3.1-5.8,4.3c0.3,0.4,0.5,0.7,0.7,1
			c2.2-1.5,4.1-2.9,5.9-4.4L186.5,594.1z M213.9,606.5c-0.1,0-0.2,0-0.3,0c-0.8,0-1.7,0-2.5-0.1c0.1,0.4,0.2,0.8,0.2,1.1
			c0.9,0,1.7,0,2.3,0c2.5,0.1,3.8-1.2,3.8-3.9c0.1-1.6,0.2-3.1,0.2-4.5h-12.5c0.4-0.4,0.8-0.9,1.2-1.5l-1-0.4
			c-1.3,1.8-2.9,3.4-5,4.6c0.3,0.3,0.5,0.6,0.7,0.8c1.3-0.8,2.4-1.6,3.3-2.6h3.6c-1.1,2.4-3.7,4.3-7.7,5.8c0.3,0.3,0.5,0.6,0.7,0.9
			c4.2-1.6,6.9-3.8,8.1-6.7h3.3c-0.6,2.9-2.8,5.3-6.5,7c0.2,0.2,0.5,0.5,0.7,0.9c3.9-1.8,6.2-4.5,6.9-7.8h3.2c0,0.9-0.1,2.1-0.2,3.5
			C216.4,605.5,215.5,606.5,213.9,606.5z M216.8,589.8h-13.9v7.1h13.9V589.8z M215.7,596h-11.9v-2.2h11.9V596z M215.7,592.9h-11.9
			v-2.1h11.9V592.9z M222.4,594.9v9.3h1.1v-1.6h7.1v-7.7H222.4z M229.4,601.6h-6v-5.7h6V601.6z M231.3,607.4c0.3,0,0.5,0,0.8,0
			c0.4,0,0.8,0,1.2,0c1.8,0,2.6-0.8,2.5-2.4v-13.4h3.3v-1h-18.8v1h14.5v13.1c0,0.7-0.1,1.1-0.4,1.4c-0.2,0.2-0.7,0.4-1.4,0.4
			c-0.4,0-0.7,0-0.9,0c-0.3,0-0.5,0-0.7,0c-0.5,0-0.9,0-1.3,0c0.1,0.4,0.1,0.7,0.2,1.1C230.7,607.4,231.1,607.4,231.3,607.4z
			 M258.3,594.4v-3.2h-8.6l0.9-0.4c-0.3-0.6-0.7-1.3-1.2-2l-1,0.4c0.4,0.8,0.8,1.4,1.1,2h-8.7v3.2h1v-2.3h15.4v2.3H258.3z
			 M256.6,604.5v-9.2h-6.4v-2.1h-1.1v2.1h-6.4v9.2h1v-0.9h5.4v4.3h1.1v-4.3h5.4v0.9H256.6z M249.1,602.6h-5.4v-2.8h5.4V602.6z
			 M249.1,599h-5.4v-2.7h5.4V599z M250.1,596.2h5.4v2.7h-5.4V596.2z M250.1,602.6v-2.8h5.4v2.8H250.1z M260.2,596.6h2.8v8.3
			c0,0.4,0,0.7-0.1,0.9c-0.1,0.2-0.2,0.5-0.5,0.7l0.8,0.8c0.3-0.3,0.6-0.6,0.9-0.8c1.4-1,2.8-1.9,4-2.6c-0.1-0.3-0.3-0.7-0.4-1.1
			c-1.1,0.8-2.3,1.6-3.7,2.5v-9.7h-3.8V596.6z M273.3,589h-1.1v6.7h-5.8v1h5.8v11h1.1v-11h5.8v-1h-5.8V589z M264.9,593.2l0.9-0.8
			c-1-1-2.1-2-3.2-3.1l-0.8,0.7C262.7,590.8,263.8,591.9,264.9,593.2z M184.5,647.7v-10.2c0.6,0.6,1.5,1.6,2.5,2.8l0.8-0.7
			c-0.8-0.8-1.7-1.8-2.7-2.8l-0.7,0.6V634h3v-1h-3v-3.9h-1.1v3.9h-3v1h2.9c-0.7,2.9-1.8,5.3-3.4,7.3c0.3,0.4,0.5,0.7,0.6,1.1
			c1.3-1.7,2.2-3.7,2.8-6.1v11.5H184.5z M199.1,645.5h-5.5V636h4.8v-1h-4.8v-5.8h-1.1v5.8h-4.6v1h4.6v9.6h-5.7v1h12.3V645.5z
			 M219.1,642.9c-0.4-0.1-0.7-0.2-1-0.3c-0.1,0.9-0.2,1.6-0.3,2.1c-0.2,1.1-0.9,1.6-2.1,1.6h-5.4c-1.2,0-1.8-0.5-1.7-1.5v-3.9h9.1
			V635h-3.8l2.2-3v-1h-5.3c0.2-0.3,0.5-0.8,0.8-1.4c0.1-0.2,0.2-0.3,0.2-0.4l-1.1-0.2c-1.3,2.5-2.8,4.7-4.5,6.5
			c0.2,0.3,0.4,0.6,0.6,0.9c0.3-0.3,0.5-0.6,0.6-0.7v9.4c0,1.5,0.8,2.3,2.5,2.3h5.9c1.6,0,2.6-0.7,2.9-2.2
			C218.9,644.5,219,643.8,219.1,642.9z M212.1,639.9h-3.5v-3.9h3.5V639.9z M216.7,635.9v3.9h-3.6v-3.9H216.7z M208,635
			c0.7-0.9,1.5-1.9,2.2-3.1h4.7l-2.2,3.1H208z M200.3,646.2c2.2-0.4,4.2-0.8,6-1c0-0.4,0-0.7,0.1-1c-2.1,0.4-4.2,0.7-6.3,1
			L200.3,646.2z M205.8,633.4c-0.5,0.9-1,1.6-1.3,2.1c-0.6,0-1.3,0-2.2,0.1c-0.4,0-0.7,0-0.8,0c1.3-1.9,2.7-3.9,4-6.2l-1.1-0.4
			c-0.8,1.7-1.8,3.4-2.9,5.1c-0.4,0.6-0.8,1.1-1.2,1.4l0.3,1c0.8-0.1,1.9-0.1,3.4-0.1c-0.7,1.1-1.4,2.1-2,2.9
			c-0.5,0.6-1,1.1-1.4,1.4l0.4,1c1-0.1,2.7-0.3,5.2-0.5c0-0.1,0-0.1,0-0.2c0-0.3,0.1-0.6,0.1-0.7c-1,0.1-2.4,0.2-4.1,0.3
			c1.5-1.9,3-4.1,4.7-6.7L205.8,633.4z M233.5,641.8c-0.8,0-1.7,0-2.5-0.1c0.1,0.3,0.2,0.7,0.2,1.1c0.4,0,0.6,0,0.8,0
			c0.2,0,0.4,0,0.6,0c0.4,0,0.7,0,1,0c1.8,0,2.7-0.7,2.7-2.3c0.1-1.2,0.1-2.6,0.1-4.2h-8.5v8.4c0,1,0.2,1.6,0.6,2
			c0.4,0.4,1.1,0.5,2.1,0.5h4.8c1.6,0,2.5-0.7,2.8-2.1c0.1-0.8,0.3-1.7,0.4-2.7c-0.4-0.1-0.7-0.2-1.1-0.3c-0.1,1-0.2,1.9-0.3,2.6
			c-0.2,1-0.8,1.5-2,1.4h-4.3c-0.8,0-1.3-0.1-1.6-0.3c-0.3-0.2-0.4-0.7-0.4-1.3v-7.3h6.4c0,1.1,0,2.1-0.1,3.1
			C235.4,641.4,234.8,641.8,233.5,641.8z M221.8,646.5c-0.5,0-1,0-1.5-0.1c0.1,0.3,0.2,0.7,0.2,1.1c0.2,0,0.4,0,0.5,0
			c0.1,0,0.3,0,0.4,0c0.2,0,0.4,0,0.6,0c1.3,0,1.9-0.6,1.8-1.9v-6c0.2-0.1,0.6-0.1,1-0.2c0.6-0.2,1.1-0.3,1.4-0.3c0-0.2,0-0.6,0-1
			c-0.3,0.1-0.7,0.2-1.2,0.3c-0.5,0.1-0.9,0.2-1.2,0.3v-4.8h2.3v-0.9h-2.3V629h-1v3.9h-2.5v0.9h2.5v5c-0.4,0.1-1,0.2-1.8,0.4
			c-0.5,0.1-0.8,0.2-1,0.2l0.2,1.1c0.3-0.1,0.7-0.2,1.3-0.3c0.6-0.1,1-0.3,1.3-0.3v5.7C222.9,646.2,222.6,646.5,221.8,646.5z
			 M233,629.7c0-0.1,0.1-0.2,0.2-0.3c0.1-0.2,0.2-0.4,0.3-0.5l-1.1-0.2c-1.5,2.9-3.6,5.2-6.4,6.9c0.2,0.2,0.5,0.5,0.8,0.9
			c2.5-1.8,4.5-3.8,5.8-6c1.5,2.3,3.5,4.2,5.9,5.7c0.2-0.3,0.5-0.7,0.7-1C236.7,634.1,234.7,632.2,233,629.7z M258.2,642.4
			c-0.1,1-0.2,1.8-0.3,2.6c-0.2,0.8-0.7,1.2-1.7,1.2h-2.2c-1,0-1.5-0.4-1.4-1.4V639h6.3v-1h-8.1v-4.2h7v-1h-7V629h-1.1v3.8h-4.9
			c0.4-0.8,0.8-1.8,1.3-3l-1.1-0.3c-0.9,2.5-2,4.7-3.5,6.5c0.2,0.1,0.6,0.3,0.9,0.6c0.7-1,1.3-1.9,1.8-2.9h5.4v4.2h-9.1v1h5.6
			c0,0.1,0,0.3,0,0.5c0,3.7-2,6.1-5.9,7.2c0.2,0.2,0.4,0.6,0.6,1c4.2-1.4,6.3-4.2,6.3-8.3c0-0.2,0-0.4,0-0.5h4.3v6
			c0,1.5,0.7,2.3,2.3,2.2h2.6c1.4,0,2.3-0.7,2.5-1.9c0.1-0.5,0.2-1.3,0.4-2.6C258.9,642.7,258.6,642.6,258.2,642.4z M266.5,634.1
			c-1.8,1.7-3.8,3.1-5.8,4.3c0.3,0.4,0.5,0.7,0.7,1c2.2-1.5,4.1-2.9,5.9-4.4L266.5,634.1z M278.5,638c-2.1-1.4-4.1-2.7-5.9-3.9
			l-0.7,0.8c2.1,1.4,4.1,2.8,5.8,4.1L278.5,638z M260.5,632.9h18.2v-1h-8.9l0.9-0.5c-0.4-0.8-0.9-1.6-1.4-2.5l-1,0.5
			c0.6,0.9,1,1.7,1.4,2.5h-9.1V632.9z M261,647.8c4.1-1.2,7-2.5,8.6-3.9c1.7,1.4,4.6,2.7,8.5,3.7c0.2-0.5,0.4-0.9,0.6-1.1
			c-3.7-0.8-6.5-2-8.3-3.4c1.3-1.2,2.4-3,3.5-5.2l-1-0.4c-1,2.2-2.1,3.9-3.3,5c-1.3-1.2-2.4-2.8-3.4-4.8l-1,0.5
			c1.1,2.2,2.3,3.9,3.5,5c-1.6,1.3-4.4,2.5-8.4,3.5L261,647.8z M282.8,636.9h13.9v-7.1h-13.9V636.9z M283.9,630.7h11.9v2.1h-11.9
			V630.7z M283.9,633.8h11.9v2.2h-11.9V633.8z M297.5,643.5c0.1-1.6,0.2-3.1,0.2-4.5h-12.5c0.4-0.4,0.8-0.9,1.2-1.5l-1-0.4
			c-1.3,1.8-2.9,3.4-5,4.6c0.3,0.3,0.5,0.6,0.7,0.8c1.3-0.8,2.4-1.6,3.3-2.6h3.6c-1.1,2.4-3.7,4.3-7.7,5.8c0.3,0.3,0.5,0.6,0.7,0.9
			c4.2-1.6,6.9-3.8,8.1-6.7h3.3c-0.6,2.9-2.8,5.3-6.5,7c0.2,0.2,0.5,0.5,0.7,0.9c3.9-1.8,6.2-4.5,6.9-7.8h3.2c0,0.9-0.1,2.1-0.2,3.5
			c0,2-0.9,2.9-2.5,2.9c-0.1,0-0.2,0-0.3,0c-0.8,0-1.7,0-2.5-0.1c0.1,0.4,0.2,0.8,0.2,1.1c0.9,0,1.7,0,2.3,0
			C296.1,647.6,297.4,646.2,297.5,643.5z M194,710l-0.7,0.7c1.3,1.1,2.4,2.1,3.3,2.9l0.8-0.8C196.2,711.8,195.1,710.8,194,710z
			 M185.8,716.8l4.5-0.5c0.3,3.5,0.9,6.2,1.9,8.2c1,2.1,2.3,3.2,3.9,3.2c1.2,0,2-0.7,2.4-2.2c0.2-0.8,0.4-1.6,0.5-2.4
			c-0.3-0.1-0.7-0.2-1-0.4c-0.2,1-0.3,1.8-0.5,2.5c-0.2,0.9-0.7,1.4-1.4,1.4c-1.1,0-2-0.9-2.9-2.6c-1-1.9-1.6-4.5-1.8-7.8l7.3-0.8
			l-0.1-1l-7.3,0.8c-0.1-1.6-0.2-3.7-0.2-6.1H190c0,2.5,0.1,4.5,0.2,6.2l-4.6,0.5L185.8,716.8z M182.9,715.7v12.1h1.1v-14.2
			c0.6-1.3,1.2-2.7,1.8-4.2l-1.1-0.3c-1.2,3.5-2.8,6.5-4.8,9.1c0.2,0.4,0.4,0.8,0.5,1.2C181.3,718.2,182.1,717,182.9,715.7z
			 M207.6,711.7v-1h-7v1h3.1c-0.7,2.7-1.9,5.2-3.6,7.6c0.2,0.3,0.4,0.6,0.6,0.9c0.6-0.9,1.1-1.6,1.3-2v8.8h1v-1.6h2.9v1.4h1v-10.2
			H203c0.7-1.4,1.3-3,1.8-4.9H207.6z M203,717.5h2.9v7H203V717.5z M213.5,727.4c0.2,0,0.4,0,0.6,0c0.4,0,0.7,0,1.1,0
			c1.8,0,2.8-0.9,2.8-2.6c0.1-1.9,0.2-4.1,0.3-6.7h-2.1l0.8-7.9h-8.4v1h7.3l-0.7,6.9h-5l0.5-5.7h-1l-0.6,6.7h8.2
			c-0.1,2-0.1,3.8-0.3,5.6c-0.1,1.2-0.7,1.8-1.9,1.8c-1,0-1.9,0-2.6-0.1c0.1,0.4,0.2,0.7,0.3,1.1
			C213.1,727.4,213.3,727.4,213.5,727.4z M215.8,722H208v1h7.8V722z M234.3,711.5h4v-1.1h-17.1v1.1h4.2v6.1h-5.1v1.1h5.1
			c0,2.2-0.3,3.8-1,4.9c-0.6,1.1-1.9,2.2-3.8,3.2c0.3,0.3,0.6,0.7,0.8,1c3.4-1.7,5.1-4.5,5.1-8.4c0-0.3,0-0.5,0-0.7h6.6v9h1.1v-9
			h4.8v-1.1h-4.8V711.5z M233.2,717.6h-6.6v-6.1h6.6V717.6z M250,722.6c-0.9,1.4-1.9,2.7-3,3.8c0.2,0.2,0.5,0.4,0.8,0.7
			c1.1-1.3,2.2-2.6,3-3.9L250,722.6z M241.7,709.4l-0.7,0.7c0.9,0.8,1.9,1.6,2.9,2.6l0.8-0.8C243.7,711,242.7,710.2,241.7,709.4z
			 M240.5,727.2l1.1,0.4c0.6-2.7,1.2-5.1,1.8-7.3c-0.4-0.1-0.7-0.3-1-0.4C241.7,722.7,241.1,725.1,240.5,727.2z M240.2,715.2
			c1.1,0.8,2.1,1.6,3.1,2.5l0.8-0.9c-1-0.8-2.1-1.6-3.1-2.4L240.2,715.2z M259,711.3v-1h-13.1v6.5c0,2.6-0.2,4.7-0.5,6.1
			c-0.3,1.5-1,2.8-2,4.2c0.4,0.2,0.7,0.5,0.9,0.7c1.9-2.6,2.8-6.2,2.6-10.9v-5.5h5.6l-0.7,2.6h-2.9v7.2h3.9v4.4c0,0.7-0.3,1.1-1,1.1
			c-0.6,0-1.2,0-1.8-0.1c0.1,0.4,0.2,0.7,0.3,1c0.3,0,0.4,0,0.6,0c0.2,0,0.3,0,0.4,0c0.3,0,0.5,0,0.7,0c1.3,0,1.9-0.7,1.8-2v-4.5
			h3.8v-7.2h-4.8l0.8-2.6H259z M256.6,720.2h-6.7V718h6.7V720.2z M256.6,714.8v2.2h-6.7v-2.2H256.6z M255.3,723.1
			c1.2,1.4,2.3,2.7,3.1,3.7l0.9-0.7c-0.8-1-1.9-2.3-3.2-3.7L255.3,723.1z M194.3,751.5h4v-1.1h-17.1v1.1h4.2v6.1h-5.1v1.1h5.1
			c0,2.2-0.3,3.8-1,4.9c-0.6,1.1-1.9,2.2-3.8,3.2c0.3,0.3,0.6,0.7,0.8,1c3.4-1.7,5.1-4.5,5.1-8.4c0-0.3,0-0.5,0-0.7h6.6v9h1.1v-9
			h4.8v-1.1h-4.8V751.5z M193.2,757.6h-6.6v-6.1h6.6V757.6z M203.5,758.2h3.5c0,2-0.1,4.1-0.2,6.3c0,0.6-0.2,1-0.4,1.3
			c-0.2,0.2-0.7,0.3-1.3,0.3c-0.5,0-1,0-1.5-0.1c0.1,0.5,0.2,0.8,0.2,1.1c0.7,0,1.1,0,1.5,0c1.8,0,2.7-0.8,2.6-2.7
			c0.1-2.9,0.2-5.3,0.3-7.2h-4.5c0.1-1.5,0.1-2.7,0.1-3.7h5.5v-1h-9v1h2.4c0,1.6-0.1,2.9-0.1,4.1c-0.1,4.4-0.9,7.5-2.5,9.4
			c0.4,0.3,0.7,0.6,0.9,0.7C202.5,765.8,203.4,762.6,203.5,758.2z M214.4,763c1.5-2.1,2.5-5.2,2.9-9.3h1.7v-1h-7
			c0.5-1.3,0.9-2.5,1.3-3.6l-1.1-0.2c-0.8,3.2-2.1,5.9-3.8,8.2c0.2,0.2,0.4,0.4,0.8,0.9c0.6-0.9,1.1-1.7,1.4-2.4
			c0.3,3.1,1.1,5.5,2.4,7.4c-1.1,1.3-2.8,2.6-5.1,4c0.2,0.3,0.5,0.6,0.8,1c2.2-1.3,3.9-2.7,5-4c1.1,1.3,2.6,2.5,4.6,3.8
			c0.2-0.3,0.4-0.7,0.7-1C217.1,765.5,215.5,764.3,214.4,763z M211.4,754c0.1-0.1,0.1-0.2,0.1-0.2c0,0,0-0.1,0-0.1h4.7
			c-0.3,3.7-1.2,6.5-2.5,8.3C212.5,760.1,211.7,757.5,211.4,754z M204,749.2c0.4,1,0.7,2,1.1,3.2l1.1-0.3c-0.3-1-0.7-2.1-1.1-3.2
			L204,749.2z M225.6,749v2.6h-5.4v1h5.4v2.2h1.1v-2.2h5.8v2.2h1.1v-2.2h5.4v-1h-5.4V749h-1.1v2.6h-5.8V749H225.6z M234.8,763.5
			c-0.4,0.3-1,0.5-1.9,0.5c-0.9,0-1.7,0-2.6-0.1c0.1,0.4,0.2,0.8,0.2,1.2c1.2,0,2,0,2.5,0c2.3,0.1,3.5-1.1,3.5-3.4
			c0.1-1.5,0.2-3.2,0.3-5.1h-15.7v1h5v10.3h1.1v-10.3h8.4c0,1.7-0.1,3.1-0.2,4.2C235.4,762.6,235.2,763.2,234.8,763.5z M243.6,763.4
			l-1-0.5c-0.8,1.5-1.6,2.8-2.4,4l1,0.6C241.9,766.3,242.8,765,243.6,763.4z M255.5,763.5c1,1.6,1.7,2.9,2.2,3.8l1-0.5
			c-0.8-1.4-1.6-2.6-2.2-3.7L255.5,763.5z M258.7,752.4v-1h-8.8v-2.5h-1.1v6.3h-6.2v6.3h14.2v-6.3h-7v-2.8H258.7z M255.8,756.2v4.3
			h-12.1v-4.3H255.8z M247.1,767.3l1.1-0.3c-0.5-1.5-1-2.8-1.4-3.8l-1,0.3C246.3,764.9,246.8,766.2,247.1,767.3z M251.5,763l-1,0.3
			c0.4,0.8,0.9,2,1.5,3.6c0,0.1,0,0.1,0.1,0.2l1-0.4C252.4,764.9,251.8,763.7,251.5,763z M277.6,764.6c-0.1,1.1-1,1.6-2.6,1.6
			c-1,0-1.8,0-2.5,0c-0.7,0-1.5,0-2.3,0c-1.2,0-1.8-0.4-1.8-1c0-0.4,0.3-0.8,0.8-1.3c1.1-1.1,3.4-2.8,6.9-5v-1.2h-7.5v1h6.1
			c-2.9,1.8-5,3.3-6.3,4.6c-0.7,0.7-1.1,1.4-1.1,2.1c0,1.2,0.9,1.8,2.5,1.9c0.9,0,1.8,0,2.7,0c0.9,0,1.9,0,2.9,0
			c1.8-0.1,2.8-0.8,3.1-2.3c0.1-0.7,0.3-1.6,0.4-2.5c-0.4-0.1-0.7-0.2-1-0.3C277.8,763.1,277.7,764,277.6,764.6z M267.4,758
			c1.5-1.1,2.9-2.1,4.1-3.2l-0.8-0.7c-1.3,1.1-2.6,2.1-4,3.1C267,757.4,267.2,757.7,267.4,758z M277.6,754.9h1V752h-11.4v2.9h1v-2
			h9.4V754.9z M273.1,751.8l0.9-0.5c-0.4-0.7-0.9-1.4-1.5-2.4l-0.9,0.5C272.2,750.1,272.7,750.9,273.1,751.8z M278.8,757.1
			c-1.4-1.1-2.6-2.1-3.8-3l-0.7,0.7c1.1,0.8,2.4,1.9,3.8,3.1L278.8,757.1z M261.8,766.6c-0.5,0-1,0-1.6-0.1c0.1,0.4,0.2,0.7,0.2,1.1
			c0.7,0,1.2,0,1.6,0c1.3,0,2-0.7,1.9-2.1v-5.9c0.4-0.1,1-0.3,1.7-0.5c0.2-0.1,0.4-0.1,0.5-0.1c-0.1-0.3-0.1-0.6-0.1-1
			c-0.2,0.1-0.5,0.2-1,0.3c-0.5,0.1-0.8,0.3-1.1,0.3v-4.5h2.1v-1h-2.1v-4h-1v4h-2.6v1h2.6v4.8c-1.2,0.4-2.2,0.6-2.8,0.8l0.2,1.1
			c0.9-0.3,1.7-0.5,2.6-0.8v5.6C262.9,766.2,262.6,766.6,261.8,766.6z M289.2,757c0,2.8-0.1,4.8-0.5,6c-0.3,1.2-1,2.6-2.2,4
			c0.3,0.2,0.6,0.4,0.9,0.7c1.2-1.5,1.9-3,2.2-4.3c0.4-1.4,0.6-3.5,0.5-6.4v-3.9h8.7v-1h-9.8V757z M286.9,756.2h-3.7
			c0.5-1.2,1-2.7,1.5-4.4h3v-1h-7.1v1h3c-0.7,3.1-1.9,5.7-3.6,7.7c0.2,0.2,0.4,0.5,0.6,0.9c0.6-0.7,1-1.4,1.4-1.9v7.4h1v-1.2h3.9
			V756.2z M285.9,763.7h-2.9v-6.5h2.9V763.7z M292.5,749.3c0.6,1,1.1,1.9,1.5,2.7l1-0.5c-0.5-0.8-1-1.7-1.5-2.6L292.5,749.3z
			 M305.3,755.7v4.1h1.1V749h-1.1v5.6c-1.5,0.7-3.2,1.5-5,2.3l0.4,1.1C302.3,757.1,303.9,756.4,305.3,755.7z M309.6,753.6
			c1,0.9,1.8,1.6,2.3,2.1l0.8-0.7c-1-0.8-1.8-1.5-2.5-2c0,0,0.1-0.1,0.2-0.2c0.2-0.2,0.4-0.4,0.4-0.5h5.9c-1.6,2.9-4.6,4.8-9,5.9
			c0.2,0.3,0.4,0.6,0.6,1c4.7-1.1,7.9-3.4,9.6-6.8v-1h-6.3c0.5-0.6,0.9-1.3,1.3-2l-1.1-0.3c-1.1,2-2.6,3.8-4.5,5.3
			c0.4,0.3,0.7,0.6,0.8,0.7C308.5,754.7,309,754.2,309.6,753.6z M310.4,761.9h8.4v-1H310c0.1-0.4,0.1-0.8,0.2-1.5h-1.1
			c0,0.6-0.1,1.1-0.2,1.5h-8.4v1h8.2c-0.5,2.3-3.4,4-8.5,5c0.2,0.4,0.4,0.7,0.6,1c5.2-1.1,8.1-2.9,8.8-5.4c1.2,2.7,4.1,4.4,8.6,5.2
			c0.2-0.4,0.4-0.8,0.6-1C314.6,766,311.7,764.5,310.4,761.9z M303.7,754.3l0.8-0.7c-0.6-0.7-1.6-1.6-2.9-2.9l-0.8,0.6
			C302,752.5,303,753.5,303.7,754.3z M326.3,758.2c0-1,0.1-2.1,0.1-3.3h4.1v-1h-6.9v1h1.7c0,3.7-0.2,6.2-0.5,7.6
			c-0.3,1.4-0.9,2.9-2,4.5c0.3,0.2,0.6,0.4,0.8,0.7c1.6-2,2.5-4.9,2.6-8.5h2.7c0,1.8-0.1,3.6-0.2,5.3c0,0.7-0.2,1.1-0.4,1.4
			c-0.2,0.2-0.6,0.3-1.1,0.3c-0.5,0-0.9,0-1.2,0c0.1,0.3,0.1,0.6,0.2,1.1c0.2,0,0.3,0,0.4,0c0.1,0,0.2,0,0.3,0c0.2,0,0.4,0,0.5,0
			c0.9,0,1.5-0.2,1.8-0.6c0.3-0.4,0.5-1.1,0.6-2.2c0.1-2.4,0.2-4.5,0.2-6.2H326.3z M334.3,749h-1.1c0,0.9,0,2.2,0,4.1h-1.6v1h1.6
			c0,0.5,0,1.3-0.1,2.2c0,0.4,0,0.7,0,0.8c0,4.4-1,7.7-3.1,9.9c0.4,0.3,0.7,0.5,0.9,0.7c2.2-2.4,3.3-6,3.3-10.9c0-0.2,0-0.5,0-0.9
			c0-0.8,0-1.4,0-1.8h2.9c0,3.3-0.1,6.7-0.2,10.1c0,0.8-0.2,1.3-0.4,1.6c-0.2,0.3-0.6,0.4-1.2,0.4c-0.7,0-1.3,0-1.8-0.1
			c0.1,0.4,0.2,0.8,0.2,1.1c0.2,0,0.4,0,0.6,0c0.2,0,0.3,0,0.4,0c0.3,0,0.5,0,0.7,0c0.9,0,1.6-0.3,1.9-0.7c0.4-0.4,0.6-1.3,0.6-2.5
			c0.1-4,0.2-7.6,0.3-11h-4C334.3,751,334.3,749.7,334.3,749z M330.8,750.2h-9.2v7.1c0,2.8-0.1,4.8-0.3,5.9
			c-0.2,1.1-0.6,2.4-1.3,3.7c0.2,0.1,0.5,0.3,0.9,0.7c0.7-1.4,1.2-2.7,1.4-4.1c0.2-1.3,0.3-3.3,0.3-6.1v-6.2h8.1V750.2z
			 M186.5,794.1c-1.8,1.7-3.8,3.1-5.8,4.3c0.3,0.4,0.5,0.7,0.7,1c2.2-1.5,4.1-2.9,5.9-4.4L186.5,794.1z M193.9,797.9l-1-0.4
			c-1,2.2-2.1,3.9-3.3,5c-1.3-1.2-2.4-2.8-3.4-4.8l-1,0.5c1.1,2.2,2.3,3.9,3.5,5c-1.6,1.3-4.4,2.5-8.4,3.5l0.6,1.1
			c4.1-1.2,7-2.5,8.6-3.9c1.7,1.4,4.6,2.7,8.5,3.7c0.2-0.5,0.4-0.9,0.6-1.1c-3.7-0.8-6.5-2-8.3-3.4
			C191.7,801.9,192.9,800.1,193.9,797.9z M198.5,798c-2.1-1.4-4.1-2.7-5.9-3.9l-0.7,0.8c2.1,1.4,4.1,2.8,5.8,4.1L198.5,798z
			 M190.8,791.4c-0.4-0.8-0.9-1.6-1.4-2.5l-1,0.5c0.6,0.9,1,1.7,1.4,2.5h-9.1v1h18.2v-1h-8.9L190.8,791.4z M202.8,796.9h13.9v-7.1
			h-13.9V796.9z M203.9,790.7h11.9v2.1h-11.9V790.7z M203.9,793.8h11.9v2.2h-11.9V793.8z M206.3,797.6l-1-0.4
			c-1.3,1.8-2.9,3.4-5,4.6c0.3,0.3,0.5,0.6,0.7,0.8c1.3-0.8,2.4-1.6,3.3-2.6h3.6c-1.1,2.4-3.7,4.3-7.7,5.8c0.3,0.3,0.5,0.6,0.7,0.9
			c4.2-1.6,6.9-3.8,8.1-6.7h3.3c-0.6,2.9-2.8,5.3-6.5,7c0.2,0.2,0.5,0.5,0.7,0.9c3.9-1.8,6.2-4.5,6.9-7.8h3.2c0,0.9-0.1,2.1-0.2,3.5
			c0,2-0.9,2.9-2.5,2.9c-0.1,0-0.2,0-0.3,0c-0.8,0-1.7,0-2.5-0.1c0.1,0.4,0.2,0.8,0.2,1.1c0.9,0,1.7,0,2.3,0
			c2.5,0.1,3.8-1.2,3.8-3.9c0.1-1.6,0.2-3.1,0.2-4.5h-12.5C205.5,798.6,205.9,798.1,206.3,797.6z M231.2,791.5
			c2.8-0.2,5.3-0.4,7.5-0.7l-0.4-1c-2.4,0.4-5.2,0.7-8.2,0.8v5.9c0,2.8-0.2,4.9-0.6,6.3c-0.4,1.4-1.3,2.8-2.5,4.2
			c0.4,0.3,0.7,0.6,0.9,0.8c2.4-2.5,3.5-6,3.4-10.6h3.9v10.6h1v-10.6h3v-0.9h-8V791.5z M228,794.8h-5.1v-3.4
			c2.1-0.1,4.1-0.3,5.8-0.6l-0.4-1c-2.1,0.4-4.2,0.6-6.4,0.7v7.7c0,2.4-0.1,4.2-0.4,5.3c-0.2,1.1-0.7,2.2-1.5,3.5
			c0.4,0.3,0.7,0.6,0.9,0.7c1.2-1.9,1.8-4.1,1.9-6.7h5.2V794.8z M226.9,800h-4.1c0-0.2,0-0.4,0-0.8c0-0.4,0-0.7,0-0.9v-2.6h4.1V800z
			 M249.3,789.7c0.8,1.2,1.5,2.2,2,3l1-0.5c-0.8-1.3-1.5-2.3-2.1-3L249.3,789.7z M248.6,803.3c0-0.1,0-0.3,0-0.4c0-0.1,0-0.3,0-0.6
			c-0.2,0-0.6,0.1-1,0.2c-0.3,0.1-0.6,0.1-0.8,0.1v-11.4h1.2v-0.9h-7.8v0.9h1.3v12.3c-0.5,0.1-1,0.1-1.4,0.2l0.2,1
			c2.2-0.4,4-0.8,5.5-1v4h1v-4.2c0.1,0,0.4-0.1,0.7-0.1C248,803.4,248.3,803.4,248.6,803.3z M245.8,802.9c-0.6,0.1-1.4,0.2-2.4,0.4
			c-0.4,0.1-0.6,0.1-0.8,0.1v-3.7h3.2V802.9z M245.8,798.8h-3.2v-3.3h3.2V798.8z M245.8,794.6h-3.2v-3.3h3.2V794.6z M253.7,799.1
			h5.1v-1h-5.2c0-0.6,0.1-1.2,0.1-1.8v-2.2h4.5v-1h-3.4c0.8-1.2,1.5-2.4,2.3-3.6l-1-0.5c-0.6,1.2-1.4,2.6-2.4,4.1h-5v1h4v2.3
			c0,0.6,0,1.2-0.1,1.7H248v1h4.5c-0.3,3.2-2,5.8-5.1,7.8c0.3,0.3,0.5,0.6,0.8,0.9c2.9-2,4.6-4.5,5.1-7.5c0.6,3,2.3,5.4,5,7.3
			c0.1-0.2,0.3-0.4,0.6-0.7c0.1-0.1,0.2-0.2,0.2-0.2C256.3,805.1,254.5,802.6,253.7,799.1z M275.2,798.7c-1.2,0-2.1,0-2.5,0
			c0.1,0.3,0.2,0.7,0.2,1c1.1,0,2,0,2.5,0c1.5,0,2.2-0.6,2.2-1.9v-7.9h-7.4v3.5c0,1.7-0.1,2.9-0.5,3.7c-0.3,0.8-0.9,1.6-1.9,2.4
			c0.2,0.1,0.5,0.4,0.8,0.7c1.2-1.1,1.9-2.2,2.2-3.4h5.7v0.8C276.6,798.4,276.2,798.8,275.2,798.7z M271.2,790.8h5.4v2.1h-5.4V790.8
			z M271,795.9c0.1-0.5,0.1-1.3,0.1-2.2h5.4v2.2H271z M277,800.9h-14.7v5.2h-1.9v0.9h18.5v-0.9H277V800.9z M266.8,806.1h-3.6v-4.3
			h3.6V806.1z M271.3,806.1h-3.5v-4.3h3.5V806.1z M275.9,806.1h-3.6v-4.3h3.6V806.1z M261.6,798.8h6.1V790h-6.1V798.8z M262.6,790.9
			h4.1v3h-4.1V790.9z M262.6,794.8h4.1v3.1h-4.1V794.8z M30.3,712.4h3.1v-2.5H16.1v2.5h3.5v4.8H15v2.5h4.4c-0.1,1.8-0.6,3.2-1.4,4.1
			c-0.8,0.9-1.8,1.7-3,2.3c0.9,0.7,1.7,1.4,2.5,2c1.6-0.9,2.7-1.9,3.5-3.1c0.8-1.2,1.2-3,1.3-5.3h5.2v8h2.8v-8h4v-2.5h-4V712.4z
			 M27.5,717.2h-5.2v-4.8h5.2V717.2z M53.2,714.3h1.1v-2.6h-5.7c0.2-0.7,0.5-1.5,0.7-2.4l-2.7-0.7c-0.7,3.3-1.7,5.9-3.1,7.9h-4.3
			l0-2.1h5v-2.6h-3.7l1.1-0.4c-0.6-1.2-1-2.1-1.5-2.8l-2.5,1c0.3,0.6,0.7,1.4,1.1,2.3h-3.8v2.6h1.7l0,4c0,1.3-0.2,2.5-0.5,3.7
			c-0.3,1.2-0.8,2.2-1.4,3.2c0.7,1.2,1.2,2.2,1.5,2.8c0.7-0.9,1.3-1.9,1.7-3.1c0.2,0.7,0.4,1.6,0.6,2.7c1.2,0,2,0,2.6-0.1
			c0.6-0.1,1-0.3,1.3-0.6c0.3-0.3,0.5-0.7,0.6-1.2c0.1-0.5,0.2-1.6,0.3-3.2l0.2-5.3c0.5,0.6,0.9,1.1,1.3,1.6
			c0.2-0.2,0.4-0.5,0.6-0.8c0.3,1.8,0.9,3.4,1.8,4.9c-1.1,1.1-2.5,2-3.9,2.7c0.5,0.8,1,1.6,1.5,2.6c1.6-0.8,2.9-1.8,4.1-3
			c1,1.1,2.2,2.1,3.6,2.9c0.6-1,1.2-1.9,1.7-2.6c-1.5-0.6-2.7-1.4-3.8-2.4C52,720.6,52.8,717.7,53.2,714.3z M40.9,723.6
			c0,0.9-0.4,1.4-1.1,1.4c-0.5,0-1.1,0-1.7-0.1c0.7-1.7,1-3.8,1.1-6.1h1.9L40.9,723.6z M49,720.7c-0.9-1.6-1.4-3.5-1.6-5.8
			c0.1-0.2,0.2-0.4,0.3-0.6h3C50.4,717,49.8,719.1,49,720.7z M62.4,712.4c-0.8-0.4-1.5-0.7-2.2-1v-2.7h-2.6V728h2.6v-14.2l1.2,0.8
			L62.4,712.4z M54.9,718.1c0.5,0.1,1,0.2,1.6,0.4c0.2-1.7,0.4-3.7,0.6-5.8l-1.7-0.2C55.4,714.2,55.2,716.1,54.9,718.1z M69.7,721.1
			h4v-2.5h-4V715h4.1v-2.5h-4.1v-3.8H67v3.8h-1.9c0.1-0.8,0.3-1.6,0.4-2.4l-2.4-0.2c-0.4,2.6-1,5-1.8,7.1c0.8,0.4,1.5,0.8,2.3,1.3
			c0.3-1,0.7-2,0.9-3.2H67v3.5h-4.4v2.5H67v3.6h-5.4v2.5h12.7v-2.5h-4.6V721.1z M26.2,516.5l-2.9-1.3c-0.8,1.5-1.9,3.3-3.3,5.4
			c-1.5,2.1-2.6,3.5-3.5,4l1.2,2.6c0.7-0.2,1.4-0.3,2-0.4l10.2-0.5c0.4,0.6,0.7,1.1,1,1.7l2.6-1.8c-1.6-2.4-3.5-4.9-5.5-7.4
			l-2.3,1.5c0.9,1.2,1.7,2.3,2.5,3.4c-2.4,0.1-4.8,0.2-7.4,0.2C22.2,522.4,24,519.9,26.2,516.5z M23.1,510.4l-2.7-1.1
			c-1.3,2.9-3.1,5.3-5.4,7.4c0.9,0.9,1.5,1.7,2,2.3C19.6,516.5,21.7,513.6,23.1,510.4z M28.7,509l-2.6,1.2c1.7,3.5,3.7,6.4,6,8.5
			c0.5-0.6,1.3-1.4,2.2-2.3C32,514.5,30.1,512,28.7,509z M46.9,517.3l2,1.6c1.5-1.6,3-3.2,4.4-4.9l-2.3-1.6
			C49.8,514.1,48.5,515.7,46.9,517.3z M46.1,527.9v-6.1h8.1v-2.6h-8.1v-7.2h7.2v-2.6H36v2.6h7.1v7.2h-7.9v2.6h7.9v6.1H46.1z
			 M38.3,512.4l-2.1,1.4c1.1,1.4,2.3,3,3.6,5l2.4-1.6C40.9,515.5,39.6,513.9,38.3,512.4z M57.6,508.7V528h2.6v-14.2l1.2,0.8l1-2.1
			c-0.8-0.4-1.5-0.7-2.2-1v-2.7H57.6z M54.9,518.1c0.5,0.1,1,0.2,1.6,0.4c0.2-1.7,0.4-3.7,0.6-5.8l-1.7-0.2
			C55.4,514.2,55.2,516.1,54.9,518.1z M69.7,521.1h4v-2.5h-4V515h4.1v-2.5h-4.1v-3.8H67v3.8h-1.9c0.1-0.8,0.3-1.6,0.4-2.4l-2.4-0.2
			c-0.4,2.6-1,5-1.8,7.1c0.8,0.4,1.5,0.8,2.3,1.3c0.3-1,0.7-2,0.9-3.2H67v3.5h-4.4v2.5H67v3.6h-5.4v2.5h12.7v-2.5h-4.6V521.1z
			 M31.9,319l2.3-1.6c-1.1-1.3-2.3-2.7-3.7-4.2l-2.1,1.3c0.3,0.4,0.6,0.7,1,1.1l-5.1,0.2c0.9-0.9,1.8-1.9,2.6-2.9h6.6v-2.3h-5.2
			c-0.3-0.7-0.6-1.4-1-2.1l-2.9,0.5c0.3,0.6,0.5,1.1,0.7,1.6h-5v2.3h3.3c-1.4,1.8-2.5,2.9-3.4,3.2l0.8,2.2c1.5-0.2,4.9-0.4,10.2-0.6
			L31.9,319z M19.8,316.7c-0.9-0.8-2-1.7-3.2-2.5l-1.7,1.8c1.2,1,2.2,1.9,3.1,2.7L19.8,316.7z M27.5,327.6v-8.7H25v8.7H27.5z
			 M30.8,327.8h0.7c0.7,0,1.2-0.2,1.6-0.5c0.4-0.3,0.7-0.8,0.8-1.4c0.1-0.6,0.2-1.8,0.4-3.7c-0.6-0.2-1.3-0.5-1.9-0.7
			c-0.1,2-0.2,3.2-0.2,3.6c-0.1,0.4-0.2,0.6-0.5,0.6h-0.1c-0.3,0-0.4-0.2-0.4-0.6v-6.3h-2.5v6.6C28.6,327,29.3,327.8,30.8,327.8z
			 M15,326.9c0.8,0.3,1.7,0.6,2.7,0.9l2.1-7.5c-0.9-0.3-1.7-0.6-2.6-1C16.5,322.3,15.7,324.8,15,326.9z M20.9,328
			c2.1-1.5,3.1-3.9,3.1-7.1v-2.1h-2.5v1.5c0,2.7-0.9,4.6-2.6,5.9C19.7,326.9,20.3,327.5,20.9,328z M18.2,313.5l1.8-2
			c-1.1-1-2.2-1.8-3.2-2.5l-1.6,1.7C16.1,311.4,17.1,312.3,18.2,313.5z M35.8,310.2v2.5h7.5v-2.5H35.8z M36.1,326.1
			c0.4-0.2,1.1-0.3,1.9-0.4l5.4-0.5c-0.3,0.4-0.7,0.8-1,1.2c0.8,0.5,1.6,1.1,2.4,1.6c0.9-1,1.6-2.1,2.1-3.4c0.5-1.3,0.9-2.6,1.1-3.8
			c0.2-1.3,0.3-3.3,0.4-6.2h2.5c0,2.5-0.1,4.6-0.1,6.4c0,1.7-0.1,2.7-0.1,3c0,0.3-0.2,0.5-0.4,0.6c-0.2,0.1-0.5,0.2-0.9,0.2
			c-0.6,0-1.3,0-2.1-0.1c0.3,1,0.5,1.9,0.7,2.9c1.9,0,3.1-0.1,3.5-0.2c0.4-0.1,0.8-0.3,1.1-0.6c0.3-0.3,0.5-0.6,0.5-1
			s0.2-1.3,0.2-2.8l0.2-11h-5.1l0-3.3h-2.6l0,3.3h-2v2.6h2c0,4.3-0.4,7.3-1.3,8.9l-2.1-4.9l-2.2,0.7c0.4,1.1,0.9,2.3,1.4,3.6
			c-1,0.1-2,0.1-3.2,0.1c0.7-1.8,1.3-3.6,1.9-5.4H44v-2.5h-9v2.5h2.4c-1,3.5-1.8,5.6-2.5,6.1L36.1,326.1z M62.4,312.4
			c-0.8-0.4-1.5-0.7-2.2-1v-2.7h-2.6V328h2.6v-14.2l1.2,0.8L62.4,312.4z M54.9,318.1c0.5,0.1,1,0.2,1.6,0.4c0.2-1.7,0.4-3.7,0.6-5.8
			l-1.7-0.2C55.4,314.2,55.2,316.1,54.9,318.1z M69.7,321.1h4v-2.5h-4V315h4.1v-2.5h-4.1v-3.8H67v3.8h-1.9c0.1-0.8,0.3-1.6,0.4-2.4
			l-2.4-0.2c-0.4,2.6-1,5-1.8,7.1c0.8,0.4,1.5,0.8,2.3,1.3c0.3-1,0.7-2,0.9-3.2H67v3.5h-4.4v2.5H67v3.6h-5.4v2.5h12.7v-2.5h-4.6
			V321.1z M25.3,114.4l-3.1-0.8c-0.4,1-0.8,2-1.3,2.9H15v2.5h4.6c-0.6,1-1.2,2.1-1.9,3c1.4,0.5,2.9,1.1,4.6,1.8
			c-1.9,0.7-4.4,1.2-7.4,1.6c0.4,0.7,0.9,1.5,1.4,2.6c4-0.7,7.2-1.6,9.4-2.8l6.7,2.9l1.4-2.6l-5.6-2.1c1.1-1.1,2-2.6,2.6-4.4h3.6
			v-2.5H24.1L25.3,114.4z M27.6,118.9c-0.5,1.4-1.3,2.6-2.3,3.3l-3.7-1.4c0.4-0.6,0.8-1.2,1.2-2H27.6z M25.9,108.7l-3.2,0.6
			c0.2,0.5,0.4,0.9,0.5,1.4h-7.5v4.2h2.8v-1.8h12.2v1.8h2.8v-4.3h-6.9L25.9,108.7z M46.3,109.5l0.5-0.7h-3.4
			c-1.5,2.6-4.3,4.9-8.5,7.2c0.8,1,1.4,1.8,1.7,2.3c1-0.6,1.9-1.2,2.8-1.8v1.5h3.8v2h-5.8v2.5h5.8v2.3h-7.4v2.5h17.7v-2.5h-7.4v-2.3
			h5.9v-2.5h-5.9v-2h3.8v-1.6c0.8,0.6,1.8,1.1,2.7,1.6c0.5-0.7,1.1-1.4,1.8-2.3C50.6,114,47.9,111.9,46.3,109.5z M40.6,115.5
			c1.6-1.3,2.9-2.6,4-3.9c1.1,1.4,2.4,2.7,4,3.9H40.6z M62.4,112.4c-0.8-0.4-1.5-0.7-2.2-1v-2.7h-2.6V128h2.6v-14.2l1.2,0.8
			L62.4,112.4z M69.7,121.1h4v-2.5h-4V115h4.1v-2.5h-4.1v-3.8H67v3.8h-1.9c0.1-0.8,0.3-1.6,0.4-2.4l-2.4-0.2c-0.4,2.6-1,5-1.8,7.1
			c0.8,0.4,1.5,0.8,2.3,1.3c0.3-1,0.7-2,0.9-3.2H67v3.5h-4.4v2.5H67v3.6h-5.4v2.5h12.7v-2.5h-4.6V121.1z M54.9,118.1
			c0.5,0.1,1,0.2,1.6,0.4c0.2-1.7,0.4-3.7,0.6-5.8l-1.7-0.2C55.4,114.2,55.2,116.1,54.9,118.1z"/>
	</g>
</g>
<path class="st2" d="M0,78v-1h1170v1H0z"/>
<path class="st2" d="M0,679v-1h1170v1H0z"/>
<path class="st2" d="M0,479v-1h1170v1H0z"/>
<path class="st2" d="M0,279v-1h1170v1H0z"/>
</svg>
