<?xml version="1.0" encoding="utf-8"?>
<!-- Generator: Adobe Illustrator 22.1.0, SVG Export Plug-In . SVG Version: 6.00 Build 0)  -->
<svg version="1.1" id="图层_1" xmlns="http://www.w3.org/2000/svg" xmlns:xlink="http://www.w3.org/1999/xlink" x="0px" y="0px"
	 viewBox="0 0 24 24" style="enable-background:new 0 0 24 24;" xml:space="preserve">
<style type="text/css">
	.st0{fill:#FDFDFF;}
</style>
<path class="st0" d="M21.4,0H2.5C1.1,0,0,1.1,0,2.5v18.9C0,22.8,1.1,24,2.5,24h18.9c1.4,0,2.5-1.1,2.5-2.5v-19C24,1.1,22.8,0,21.4,0
	z M20.9,5.9l-2.7,12.7c-0.2,0.9-0.7,1.1-1.5,0.7l-4.1-3l-2,1.9c-0.2,0.2-0.4,0.4-0.8,0.4l0.3-4.2l7.6-6.9c0.3-0.3-0.1-0.5-0.5-0.2
	l-9.4,5.9L3.7,12c-0.9-0.2-0.9-0.9,0.2-1.3l15.8-6.1C20.5,4.3,21.2,4.8,20.9,5.9z"/>
</svg>
