<?xml version="1.0" encoding="utf-8"?>
<!-- Generator: Adobe Illustrator 22.1.0, SVG Export Plug-In . SVG Version: 6.00 Build 0)  -->
<svg version="1.1" id="图层_1" xmlns="http://www.w3.org/2000/svg" xmlns:xlink="http://www.w3.org/1999/xlink" x="0px" y="0px"
	 viewBox="0 0 24 24" style="enable-background:new 0 0 24 24;" xml:space="preserve">
<style type="text/css">
	.st0{fill:#FFFFFF;}
</style>
<path class="st0" d="M21.4,0H2.5C1.1,0,0,1.1,0,2.5v18.9C0,22.8,1.1,24,2.5,24h18.9c1.4,0,2.5-1.1,2.5-2.5v-19C24,1.1,22.8,0,21.4,0
	z M19.2,8.2v0.5c0,1-0.1,2-0.4,3s-0.7,2-1.3,2.9c-0.6,0.9-1.3,1.8-2.1,2.5c-0.8,0.7-1.8,1.3-2.9,1.7c-1.1,0.4-2.4,0.6-3.7,0.6
	c-2.2,0-4.1-0.5-5.7-1.5C3.3,18,3.6,18,3.9,18c1.6,0,3.1-0.6,4.6-1.8c-0.8,0-1.5-0.3-2.1-0.8s-1.6-1.3-1.9-2.1
	c0.8,0.2,1.8,0.2,2.2,0.1c-0.8,0-3.7-2-3.7-3.6c0.5,0.3,1.8,0.8,2.4,0.4c-2-1.8-1.8-4.3-0.9-5.7C5,5.6,5.3,6.6,7.6,8
	c1.3,0.8,2.9,0.9,4.4,1c-0.1-0.2,0-1.2,0-1.5c0-1,0.5-1.6,0.8-1.9c0.7-0.8,1.6-1.1,2.6-1.1c1.1,0,2,0.4,2.7,1.2
	c0.8-0.2,1.6-0.5,2.3-0.9c-0.3,0.9-0.8,1.6-1.6,2.1c0.7-0.1,1.4-0.3,2.1-0.6C20.5,7,19.9,7.7,19.2,8.2z"/>
</svg>
