<svg xmlns="http://www.w3.org/2000/svg" viewBox="0 0 24 24"><path d="M21.4 0H2.5C1.1 0 0 1.1 0 2.5v18.9C0 22.8 1.1 24 2.5 24h18.9c1.4 0 2.5-1.1 2.5-2.5v-19C24 1.1 22.8 0 21.4 0zm-2.2 8.2v.5c0 1-.1 2-.4 3s-.7 2-1.3 2.9c-.6.9-1.3 1.8-2.1 2.5s-1.8 1.3-2.9 1.7c-1.1.4-2.4.6-3.7.6-2.2 0-4.1-.5-5.7-1.5.2.1.5.1.8.1 1.6 0 3.1-.6 4.6-1.8-.8 0-1.5-.3-2.1-.8s-1.6-1.3-1.9-2.1c.8.2 1.8.2 2.2.1-.8 0-3.7-2-3.7-3.6.5.3 1.8.8 2.4.4-2-1.8-1.8-4.3-.9-5.7.5 1.1.8 2.1 3.1 3.5 1.3.8 2.9.9 4.4 1-.1-.2 0-1.2 0-1.5 0-1 .5-1.6.8-1.9.7-.8 1.6-1.1 2.6-1.1 1.1 0 2 .4 2.7 1.2.8-.2 1.6-.5 2.3-.9-.3.9-.8 1.6-1.6 2.1.7-.1 1.4-.3 2.1-.6-.4.7-1 1.4-1.7 1.9z" fill="#fff"/></svg>