<?xml version="1.0" encoding="utf-8"?>
<!-- Generator: Adobe Illustrator 22.1.0, SVG Export Plug-In . SVG Version: 6.00 Build 0)  -->
<svg version="1.1" id="图层_1" xmlns="http://www.w3.org/2000/svg" xmlns:xlink="http://www.w3.org/1999/xlink" x="0px" y="0px"
	 viewBox="0 0 19 22" style="enable-background:new 0 0 19 22;" xml:space="preserve">
<style type="text/css">
	.st0{opacity:0.33;}
	.st1{filter:url(#Adobe_OpacityMaskFilter);}
	.st2{mask:url(#SVGID_1_);}
	.st3{fill:#FFFFFF;}
	.st4{fill:none;}
</style>
<g class="st0">
	<defs>
		<filter id="Adobe_OpacityMaskFilter" filterUnits="userSpaceOnUse" x="0.1" y="0" width="18.8" height="22">
			<feFlood  style="flood-color:white;flood-opacity:1" result="back"/>
			<feBlend  in="SourceGraphic" in2="back" mode="normal"/>
		</filter>
	</defs>
	<mask maskUnits="userSpaceOnUse" x="0.1" y="0" width="18.8" height="22" id="SVGID_1_">
		<g class="st1">
			<image style="overflow:visible;" width="23" height="28" xlink:href="9E1645C6.jpg"  transform="matrix(1 0 0 1 -2 -3)">
			</image>
		</g>
	</mask>
	<g class="st2">
		<g>
			<g>
				<path class="st3" d="M18.2,4.7l-7.6-4.4C9.9-0.1,9-0.1,8.3,0.2L1,4.7c-0.6,0.3-1,1-1,1.9v8.9c0,0.6,0.3,1.3,1,1.9l7.3,4.4
					c0.6,0.3,1.6,0.3,2.2,0l7.3-4.4c0.6-0.3,1-1,1-1.9V6.6C19.1,5.6,18.8,5,18.2,4.7z"/>
			</g>
		</g>
	</g>
</g>
<path class="st4" d="M9.5,11"/>
<path class="st4" d="M9.5,11"/>
<path class="st4" d="M9.5,11"/>
<g>
	<g>
		<path class="st3" d="M10.5,10.3v1.1c-0.3,0-0.6,0-1,0c-0.3,0-0.6,0-0.9,0v-1.1c-1.7,0.1-3,0.4-3,0.7c0,0.3,1.3,0.6,3,0.7l0.1,0h0
			c0.1,0,0.2,0,0.3,0h0l0.1,0h0l0.1,0h0.5l0.1,0h0l0.1,0h0c0.1,0,0.2,0,0.2,0h0l0.1,0h0l0.1,0c1.7-0.1,3-0.4,3-0.7
			C13.4,10.6,12.2,10.3,10.5,10.3z M9.5,4.2c-3.8,0-6.8,3.1-6.8,6.8s3.1,6.8,6.8,6.8s6.8-3.1,6.8-6.8S13.3,4.2,9.5,4.2z M10.5,12.1
			v3.7H8.6v-3.7c-2.2-0.1-3.8-0.5-3.8-1s1.6-0.9,3.8-1V8.9H5.9V7.1h7.2v1.8h-2.7V10c2.2,0.1,3.8,0.5,3.8,1
			C14.2,11.6,12.6,12,10.5,12.1z"/>
	</g>
</g>
</svg>
