<svg id="图层_1" xmlns="http://www.w3.org/2000/svg" xmlns:xlink="http://www.w3.org/1999/xlink" viewBox="0 0 19 22" enable-background="new 0 0 19 22"><style>.st3{fill:#fff}.st4{fill:none}</style><g opacity=".33"><defs><filter id="Adobe_OpacityMaskFilter" filterUnits="userSpaceOnUse" x=".1" y="0" width="18.8" height="22"><feFlood result="back" flood-color="#fff" flood-opacity="1"/><feBlend in="SourceGraphic" in2="back"/></filter></defs><mask maskUnits="userSpaceOnUse" x=".1" y="0" width="18.8" height="22" id="SVGID_1_"><image width="23" height="28" xlink:href="9E1645C6.jpg" transform="translate(-2 -3)" overflow="visible" filter="url(#Adobe_OpacityMaskFilter)"/></mask><g mask="url(#SVGID_1_)"><path class="st3" d="M18.2 4.7L10.6.3C9.9-.1 9-.1 8.3.2L1 4.7c-.6.3-1 1-1 1.9v8.9c0 .6.3 1.3 1 1.9l7.3 4.4c.6.3 1.6.3 2.2 0l7.3-4.4c.6-.3 1-1 1-1.9V6.6c.3-1 0-1.6-.6-1.9z"/></g></g><path class="st3" d="M10.5 10.3v1.1H8.6v-1.1c-1.7.1-3 .4-3 .7 0 .3 1.3.6 3 .7H10.3c1.7-.1 3-.4 3-.7.1-.4-1.1-.7-2.8-.7zm-1-6.1c-3.8 0-6.8 3.1-6.8 6.8s3.1 6.8 6.8 6.8 6.8-3.1 6.8-6.8-3-6.8-6.8-6.8zm1 7.9v3.7H8.6v-3.7c-2.2-.1-3.8-.5-3.8-1s1.6-.9 3.8-1V8.9H5.9V7.1h7.2v1.8h-2.7V10c2.2.1 3.8.5 3.8 1 0 .6-1.6 1-3.7 1.1z"/></svg>