<?xml version="1.0" encoding="utf-8"?>
<!-- Generator: Adobe Illustrator 22.1.0, SVG Export Plug-In . SVG Version: 6.00 Build 0)  -->
<svg version="1.1" id="图层_1" xmlns="http://www.w3.org/2000/svg" xmlns:xlink="http://www.w3.org/1999/xlink" x="0px" y="0px"
	 viewBox="0 0 25 25" style="enable-background:new 0 0 25 25;" xml:space="preserve">
<style type="text/css">
	.st0{fill:#FFFFFF;}
</style>
<g>
	<g>
		<path class="st0" d="M12,9.9c-0.1,0-0.1,0-0.1-0.1l0,0C11.9,9.8,11.9,9.9,12,9.9z M8.2,8.5c-0.1,0-0.2,0-0.3,0H7.8
			c0,0-0.1,0-0.1,0.1L7.6,8.7c0,0,0,0-0.1,0.1c0,0.1-0.1,0.2-0.1,0.3v0.1l0,0l0,0c0,0.2,0.1,0.4,0.3,0.5C7.8,9.9,8,9.9,8.2,9.9
			C8.7,9.9,9,9.7,9,9.2C9,8.8,8.7,8.5,8.2,8.5z M11.8,9.8L11.8,9.8c0.1,0.1,0.1,0.1,0.2,0.1c0.1,0,0.2,0,0.3,0c0.2,0,0.3,0,0.4-0.1
			C12.9,9.7,13,9.5,13,9.2c0-0.2-0.1-0.4-0.2-0.5c-0.1-0.1-0.3-0.2-0.5-0.2c-0.1,0-0.2,0-0.3,0h-0.1c-0.1,0-0.1,0.1-0.2,0.1
			c0,0-0.1,0-0.1,0.1c-0.1,0.1-0.1,0.1-0.2,0.2l0,0l0,0c0,0.1-0.1,0.2-0.1,0.3C11.4,9.5,11.6,9.7,11.8,9.8z M22.4,0H2.6
			C1.2,0,0,1.2,0,2.6v19.7C0,23.8,1.2,25,2.6,25h19.7c1.5,0,2.6-1.2,2.6-2.6V2.6C25,1.2,23.8,0,22.4,0z M10.1,15.9
			c-0.8,0-1.3-0.1-2-0.3l-2.1,1l0.6-1.8c-1.4-1-2.3-2.3-2.3-3.9C4.3,8.1,6.9,6,10.1,6c2.8,0,5.3,1.7,5.8,4c-0.2,0-0.4-0.1-0.5-0.1
			c-2.8,0-4.9,2.1-4.9,4.6c0,0.4,0.1,0.8,0.2,1.2C10.5,15.9,10.3,15.9,10.1,15.9z M18.6,17.9l0.4,1.5l-1.5-0.9
			c-0.6,0.1-1.2,0.3-1.8,0.3c-2.7,0-4.9-1.9-4.9-4.2s2.2-4.2,4.9-4.2c2.6,0,4.9,1.9,4.9,4.2C20.6,15.9,19.8,17,18.6,17.9z
			 M14.5,12.8L14.5,12.8L14.5,12.8c0,0-0.1,0-0.2-0.1c-0.1,0-0.1,0-0.2,0c-0.2,0-0.3,0.1-0.4,0.2c-0.1,0.1-0.1,0.2-0.1,0.3
			s0.1,0.2,0.1,0.3c0.1,0.1,0.3,0.2,0.4,0.2c0.1,0,0.2,0,0.3-0.1l0,0c0.1,0,0.2-0.1,0.2-0.2l0,0l0,0c0,0,0-0.1,0.1-0.1v-0.1l0,0
			C14.9,13.1,14.7,12.9,14.5,12.8z M18,13l-0.1-0.1l0,0l-0.1-0.1c0,0-0.1,0-0.1-0.1l0,0c-0.1,0-0.2,0-0.3,0c-0.2,0-0.3,0.1-0.4,0.2
			c-0.1,0.1-0.1,0.2-0.1,0.4c0,0.1,0.1,0.2,0.1,0.3c0.1,0.1,0.3,0.2,0.4,0.2c0.4,0,0.7-0.3,0.7-0.5C18.1,13.2,18,13.1,18,13L18,13z"
			/>
	</g>
</g>
</svg>
