<svg xmlns="http://www.w3.org/2000/svg" viewBox="0 0 25 25"><path d="M12 9.9c-.1 0-.1 0-.1-.1 0 0 0 .1.1.1zM8.2 8.5h-.4s-.1 0-.1.1l-.1.1-.1.1c0 .1-.1.2-.1.3v.1c0 .2.1.4.3.5.1.2.3.2.5.2.5 0 .8-.2.8-.7 0-.4-.3-.7-.8-.7zm3.6 1.3c.1.1.1.1.2.1h.3c.2 0 .3 0 .4-.1.2-.1.3-.3.3-.6 0-.2-.1-.4-.2-.5-.1-.1-.3-.2-.5-.2h-.4c-.1 0-.1.1-.2.1 0 0-.1 0-.1.1l-.2.2c0 .1-.1.2-.1.3.1.3.3.5.5.6zM22.4 0H2.6C1.2 0 0 1.2 0 2.6v19.7C0 23.8 1.2 25 2.6 25h19.7c1.5 0 2.6-1.2 2.6-2.6V2.6C25 1.2 23.8 0 22.4 0zM10.1 15.9c-.8 0-1.3-.1-2-.3l-2.1 1 .6-1.8c-1.4-1-2.3-2.3-2.3-3.9C4.3 8.1 6.9 6 10.1 6c2.8 0 5.3 1.7 5.8 4-.2 0-.4-.1-.5-.1-2.8 0-4.9 2.1-4.9 4.6 0 .4.1.8.2 1.2-.2.2-.4.2-.6.2zm8.5 2l.4 1.5-1.5-.9c-.6.1-1.2.3-1.8.3-2.7 0-4.9-1.9-4.9-4.2s2.2-4.2 4.9-4.2c2.6 0 4.9 1.9 4.9 4.2 0 1.3-.8 2.4-2 3.3zm-4.1-5.1s-.1 0-.2-.1h-.2c-.2 0-.3.1-.4.2-.1.1-.1.2-.1.3s.1.2.1.3c.1.1.3.2.4.2.1 0 .2 0 .3-.1.1 0 .2-.1.2-.2 0 0 0-.1.1-.1v-.1c.2-.1 0-.3-.2-.4zm3.5.2l-.1-.1-.1-.1s-.1 0-.1-.1h-.3c-.2 0-.3.1-.4.2-.1.1-.1.2-.1.4 0 .1.1.2.1.3.1.1.3.2.4.2.4 0 .7-.3.7-.5 0-.1-.1-.2-.1-.3z" fill="#fff"/></svg>